<?xml version="1.0" encoding="utf-8" standalone="no"?>
<!DOCTYPE svg PUBLIC "-//W3C//DTD SVG 1.1//EN"
  "http://www.w3.org/Graphics/SVG/1.1/DTD/svg11.dtd">
<!-- Created with matplotlib (https://matplotlib.org/) -->
<svg height="345.6pt" version="1.1" viewBox="0 0 460.8 345.6" width="460.8pt" xmlns="http://www.w3.org/2000/svg" xmlns:xlink="http://www.w3.org/1999/xlink">
 <defs>
  <style type="text/css">
*{stroke-linecap:butt;stroke-linejoin:round;}
  </style>
 </defs>
 <g id="figure_1">
  <g id="patch_1">
   <path d="M 0 345.6 
L 460.8 345.6 
L 460.8 0 
L 0 0 
z
" style="fill:#ffffff;"/>
  </g>
  <g id="axes_1">
   <g id="patch_2">
    <path d="M 46.08 156.672 
L 437.76 156.672 
L 437.76 27.648 
L 46.08 27.648 
z
" style="fill:#ffffff;"/>
   </g>
   <g id="matplotlib.axis_1">
    <g id="xtick_1">
     <g id="line2d_1">
      <path clip-path="url(#pc9c7960ea2)" d="M 63.527207 156.672 
L 63.527207 27.648 
" style="fill:none;stroke:#b0b0b0;stroke-linecap:square;stroke-width:0.8;"/>
     </g>
     <g id="line2d_2">
      <defs>
       <path d="M 0 0 
L 0 3.5 
" id="mc441eaaf25" style="stroke:#000000;stroke-width:0.8;"/>
      </defs>
      <g>
       <use style="stroke:#000000;stroke-width:0.8;" x="63.527207" xlink:href="#mc441eaaf25" y="156.672"/>
      </g>
     </g>
     <g id="text_1">
      <!-- 0 -->
      <defs>
       <path d="M 31.78125 66.40625 
Q 24.171875 66.40625 20.328125 58.90625 
Q 16.5 51.421875 16.5 36.375 
Q 16.5 21.390625 20.328125 13.890625 
Q 24.171875 6.390625 31.78125 6.390625 
Q 39.453125 6.390625 43.28125 13.890625 
Q 47.125 21.390625 47.125 36.375 
Q 47.125 51.421875 43.28125 58.90625 
Q 39.453125 66.40625 31.78125 66.40625 
z
M 31.78125 74.21875 
Q 44.046875 74.21875 50.515625 64.515625 
Q 56.984375 54.828125 56.984375 36.375 
Q 56.984375 17.96875 50.515625 8.265625 
Q 44.046875 -1.421875 31.78125 -1.421875 
Q 19.53125 -1.421875 13.0625 8.265625 
Q 6.59375 17.96875 6.59375 36.375 
Q 6.59375 54.828125 13.0625 64.515625 
Q 19.53125 74.21875 31.78125 74.21875 
z
" id="DejaVuSans-48"/>
      </defs>
      <g transform="translate(60.345957 171.270437)scale(0.1 -0.1)">
       <use xlink:href="#DejaVuSans-48"/>
      </g>
     </g>
    </g>
    <g id="xtick_2">
     <g id="line2d_3">
      <path clip-path="url(#pc9c7960ea2)" d="M 134.813038 156.672 
L 134.813038 27.648 
" style="fill:none;stroke:#b0b0b0;stroke-linecap:square;stroke-width:0.8;"/>
     </g>
     <g id="line2d_4">
      <g>
       <use style="stroke:#000000;stroke-width:0.8;" x="134.813038" xlink:href="#mc441eaaf25" y="156.672"/>
      </g>
     </g>
     <g id="text_2">
      <!-- 200 -->
      <defs>
       <path d="M 19.1875 8.296875 
L 53.609375 8.296875 
L 53.609375 0 
L 7.328125 0 
L 7.328125 8.296875 
Q 12.9375 14.109375 22.625 23.890625 
Q 32.328125 33.6875 34.8125 36.53125 
Q 39.546875 41.84375 41.421875 45.53125 
Q 43.3125 49.21875 43.3125 52.78125 
Q 43.3125 58.59375 39.234375 62.25 
Q 35.15625 65.921875 28.609375 65.921875 
Q 23.96875 65.921875 18.8125 64.3125 
Q 13.671875 62.703125 7.8125 59.421875 
L 7.8125 69.390625 
Q 13.765625 71.78125 18.9375 73 
Q 24.125 74.21875 28.421875 74.21875 
Q 39.75 74.21875 46.484375 68.546875 
Q 53.21875 62.890625 53.21875 53.421875 
Q 53.21875 48.921875 51.53125 44.890625 
Q 49.859375 40.875 45.40625 35.40625 
Q 44.1875 33.984375 37.640625 27.21875 
Q 31.109375 20.453125 19.1875 8.296875 
z
" id="DejaVuSans-50"/>
      </defs>
      <g transform="translate(125.269288 171.270437)scale(0.1 -0.1)">
       <use xlink:href="#DejaVuSans-50"/>
       <use x="63.623047" xlink:href="#DejaVuSans-48"/>
       <use x="127.246094" xlink:href="#DejaVuSans-48"/>
      </g>
     </g>
    </g>
    <g id="xtick_3">
     <g id="line2d_5">
      <path clip-path="url(#pc9c7960ea2)" d="M 206.09887 156.672 
L 206.09887 27.648 
" style="fill:none;stroke:#b0b0b0;stroke-linecap:square;stroke-width:0.8;"/>
     </g>
     <g id="line2d_6">
      <g>
       <use style="stroke:#000000;stroke-width:0.8;" x="206.09887" xlink:href="#mc441eaaf25" y="156.672"/>
      </g>
     </g>
     <g id="text_3">
      <!-- 400 -->
      <defs>
       <path d="M 37.796875 64.3125 
L 12.890625 25.390625 
L 37.796875 25.390625 
z
M 35.203125 72.90625 
L 47.609375 72.90625 
L 47.609375 25.390625 
L 58.015625 25.390625 
L 58.015625 17.1875 
L 47.609375 17.1875 
L 47.609375 0 
L 37.796875 0 
L 37.796875 17.1875 
L 4.890625 17.1875 
L 4.890625 26.703125 
z
" id="DejaVuSans-52"/>
      </defs>
      <g transform="translate(196.55512 171.270437)scale(0.1 -0.1)">
       <use xlink:href="#DejaVuSans-52"/>
       <use x="63.623047" xlink:href="#DejaVuSans-48"/>
       <use x="127.246094" xlink:href="#DejaVuSans-48"/>
      </g>
     </g>
    </g>
    <g id="xtick_4">
     <g id="line2d_7">
      <path clip-path="url(#pc9c7960ea2)" d="M 277.384701 156.672 
L 277.384701 27.648 
" style="fill:none;stroke:#b0b0b0;stroke-linecap:square;stroke-width:0.8;"/>
     </g>
     <g id="line2d_8">
      <g>
       <use style="stroke:#000000;stroke-width:0.8;" x="277.384701" xlink:href="#mc441eaaf25" y="156.672"/>
      </g>
     </g>
     <g id="text_4">
      <!-- 600 -->
      <defs>
       <path d="M 33.015625 40.375 
Q 26.375 40.375 22.484375 35.828125 
Q 18.609375 31.296875 18.609375 23.390625 
Q 18.609375 15.53125 22.484375 10.953125 
Q 26.375 6.390625 33.015625 6.390625 
Q 39.65625 6.390625 43.53125 10.953125 
Q 47.40625 15.53125 47.40625 23.390625 
Q 47.40625 31.296875 43.53125 35.828125 
Q 39.65625 40.375 33.015625 40.375 
z
M 52.59375 71.296875 
L 52.59375 62.3125 
Q 48.875 64.0625 45.09375 64.984375 
Q 41.3125 65.921875 37.59375 65.921875 
Q 27.828125 65.921875 22.671875 59.328125 
Q 17.53125 52.734375 16.796875 39.40625 
Q 19.671875 43.65625 24.015625 45.921875 
Q 28.375 48.1875 33.59375 48.1875 
Q 44.578125 48.1875 50.953125 41.515625 
Q 57.328125 34.859375 57.328125 23.390625 
Q 57.328125 12.15625 50.6875 5.359375 
Q 44.046875 -1.421875 33.015625 -1.421875 
Q 20.359375 -1.421875 13.671875 8.265625 
Q 6.984375 17.96875 6.984375 36.375 
Q 6.984375 53.65625 15.1875 63.9375 
Q 23.390625 74.21875 37.203125 74.21875 
Q 40.921875 74.21875 44.703125 73.484375 
Q 48.484375 72.75 52.59375 71.296875 
z
" id="DejaVuSans-54"/>
      </defs>
      <g transform="translate(267.840951 171.270437)scale(0.1 -0.1)">
       <use xlink:href="#DejaVuSans-54"/>
       <use x="63.623047" xlink:href="#DejaVuSans-48"/>
       <use x="127.246094" xlink:href="#DejaVuSans-48"/>
      </g>
     </g>
    </g>
    <g id="xtick_5">
     <g id="line2d_9">
      <path clip-path="url(#pc9c7960ea2)" d="M 348.670532 156.672 
L 348.670532 27.648 
" style="fill:none;stroke:#b0b0b0;stroke-linecap:square;stroke-width:0.8;"/>
     </g>
     <g id="line2d_10">
      <g>
       <use style="stroke:#000000;stroke-width:0.8;" x="348.670532" xlink:href="#mc441eaaf25" y="156.672"/>
      </g>
     </g>
     <g id="text_5">
      <!-- 800 -->
      <defs>
       <path d="M 31.78125 34.625 
Q 24.75 34.625 20.71875 30.859375 
Q 16.703125 27.09375 16.703125 20.515625 
Q 16.703125 13.921875 20.71875 10.15625 
Q 24.75 6.390625 31.78125 6.390625 
Q 38.8125 6.390625 42.859375 10.171875 
Q 46.921875 13.96875 46.921875 20.515625 
Q 46.921875 27.09375 42.890625 30.859375 
Q 38.875 34.625 31.78125 34.625 
z
M 21.921875 38.8125 
Q 15.578125 40.375 12.03125 44.71875 
Q 8.5 49.078125 8.5 55.328125 
Q 8.5 64.0625 14.71875 69.140625 
Q 20.953125 74.21875 31.78125 74.21875 
Q 42.671875 74.21875 48.875 69.140625 
Q 55.078125 64.0625 55.078125 55.328125 
Q 55.078125 49.078125 51.53125 44.71875 
Q 48 40.375 41.703125 38.8125 
Q 48.828125 37.15625 52.796875 32.3125 
Q 56.78125 27.484375 56.78125 20.515625 
Q 56.78125 9.90625 50.3125 4.234375 
Q 43.84375 -1.421875 31.78125 -1.421875 
Q 19.734375 -1.421875 13.25 4.234375 
Q 6.78125 9.90625 6.78125 20.515625 
Q 6.78125 27.484375 10.78125 32.3125 
Q 14.796875 37.15625 21.921875 38.8125 
z
M 18.3125 54.390625 
Q 18.3125 48.734375 21.84375 45.5625 
Q 25.390625 42.390625 31.78125 42.390625 
Q 38.140625 42.390625 41.71875 45.5625 
Q 45.3125 48.734375 45.3125 54.390625 
Q 45.3125 60.0625 41.71875 63.234375 
Q 38.140625 66.40625 31.78125 66.40625 
Q 25.390625 66.40625 21.84375 63.234375 
Q 18.3125 60.0625 18.3125 54.390625 
z
" id="DejaVuSans-56"/>
      </defs>
      <g transform="translate(339.126782 171.270437)scale(0.1 -0.1)">
       <use xlink:href="#DejaVuSans-56"/>
       <use x="63.623047" xlink:href="#DejaVuSans-48"/>
       <use x="127.246094" xlink:href="#DejaVuSans-48"/>
      </g>
     </g>
    </g>
    <g id="xtick_6">
     <g id="line2d_11">
      <path clip-path="url(#pc9c7960ea2)" d="M 419.956364 156.672 
L 419.956364 27.648 
" style="fill:none;stroke:#b0b0b0;stroke-linecap:square;stroke-width:0.8;"/>
     </g>
     <g id="line2d_12">
      <g>
       <use style="stroke:#000000;stroke-width:0.8;" x="419.956364" xlink:href="#mc441eaaf25" y="156.672"/>
      </g>
     </g>
     <g id="text_6">
      <!-- 1000 -->
      <defs>
       <path d="M 12.40625 8.296875 
L 28.515625 8.296875 
L 28.515625 63.921875 
L 10.984375 60.40625 
L 10.984375 69.390625 
L 28.421875 72.90625 
L 38.28125 72.90625 
L 38.28125 8.296875 
L 54.390625 8.296875 
L 54.390625 0 
L 12.40625 0 
z
" id="DejaVuSans-49"/>
      </defs>
      <g transform="translate(407.231364 171.270437)scale(0.1 -0.1)">
       <use xlink:href="#DejaVuSans-49"/>
       <use x="63.623047" xlink:href="#DejaVuSans-48"/>
       <use x="127.246094" xlink:href="#DejaVuSans-48"/>
       <use x="190.869141" xlink:href="#DejaVuSans-48"/>
      </g>
     </g>
    </g>
    <g id="text_7">
     <!-- Corridas -->
     <defs>
      <path d="M 64.40625 67.28125 
L 64.40625 56.890625 
Q 59.421875 61.53125 53.78125 63.8125 
Q 48.140625 66.109375 41.796875 66.109375 
Q 29.296875 66.109375 22.65625 58.46875 
Q 16.015625 50.828125 16.015625 36.375 
Q 16.015625 21.96875 22.65625 14.328125 
Q 29.296875 6.6875 41.796875 6.6875 
Q 48.140625 6.6875 53.78125 8.984375 
Q 59.421875 11.28125 64.40625 15.921875 
L 64.40625 5.609375 
Q 59.234375 2.09375 53.4375 0.328125 
Q 47.65625 -1.421875 41.21875 -1.421875 
Q 24.65625 -1.421875 15.125 8.703125 
Q 5.609375 18.84375 5.609375 36.375 
Q 5.609375 53.953125 15.125 64.078125 
Q 24.65625 74.21875 41.21875 74.21875 
Q 47.75 74.21875 53.53125 72.484375 
Q 59.328125 70.75 64.40625 67.28125 
z
" id="DejaVuSans-67"/>
      <path d="M 30.609375 48.390625 
Q 23.390625 48.390625 19.1875 42.75 
Q 14.984375 37.109375 14.984375 27.296875 
Q 14.984375 17.484375 19.15625 11.84375 
Q 23.34375 6.203125 30.609375 6.203125 
Q 37.796875 6.203125 41.984375 11.859375 
Q 46.1875 17.53125 46.1875 27.296875 
Q 46.1875 37.015625 41.984375 42.703125 
Q 37.796875 48.390625 30.609375 48.390625 
z
M 30.609375 56 
Q 42.328125 56 49.015625 48.375 
Q 55.71875 40.765625 55.71875 27.296875 
Q 55.71875 13.875 49.015625 6.21875 
Q 42.328125 -1.421875 30.609375 -1.421875 
Q 18.84375 -1.421875 12.171875 6.21875 
Q 5.515625 13.875 5.515625 27.296875 
Q 5.515625 40.765625 12.171875 48.375 
Q 18.84375 56 30.609375 56 
z
" id="DejaVuSans-111"/>
      <path d="M 41.109375 46.296875 
Q 39.59375 47.171875 37.8125 47.578125 
Q 36.03125 48 33.890625 48 
Q 26.265625 48 22.1875 43.046875 
Q 18.109375 38.09375 18.109375 28.8125 
L 18.109375 0 
L 9.078125 0 
L 9.078125 54.6875 
L 18.109375 54.6875 
L 18.109375 46.1875 
Q 20.953125 51.171875 25.484375 53.578125 
Q 30.03125 56 36.53125 56 
Q 37.453125 56 38.578125 55.875 
Q 39.703125 55.765625 41.0625 55.515625 
z
" id="DejaVuSans-114"/>
      <path d="M 9.421875 54.6875 
L 18.40625 54.6875 
L 18.40625 0 
L 9.421875 0 
z
M 9.421875 75.984375 
L 18.40625 75.984375 
L 18.40625 64.59375 
L 9.421875 64.59375 
z
" id="DejaVuSans-105"/>
      <path d="M 45.40625 46.390625 
L 45.40625 75.984375 
L 54.390625 75.984375 
L 54.390625 0 
L 45.40625 0 
L 45.40625 8.203125 
Q 42.578125 3.328125 38.25 0.953125 
Q 33.9375 -1.421875 27.875 -1.421875 
Q 17.96875 -1.421875 11.734375 6.484375 
Q 5.515625 14.40625 5.515625 27.296875 
Q 5.515625 40.1875 11.734375 48.09375 
Q 17.96875 56 27.875 56 
Q 33.9375 56 38.25 53.625 
Q 42.578125 51.265625 45.40625 46.390625 
z
M 14.796875 27.296875 
Q 14.796875 17.390625 18.875 11.75 
Q 22.953125 6.109375 30.078125 6.109375 
Q 37.203125 6.109375 41.296875 11.75 
Q 45.40625 17.390625 45.40625 27.296875 
Q 45.40625 37.203125 41.296875 42.84375 
Q 37.203125 48.484375 30.078125 48.484375 
Q 22.953125 48.484375 18.875 42.84375 
Q 14.796875 37.203125 14.796875 27.296875 
z
" id="DejaVuSans-100"/>
      <path d="M 34.28125 27.484375 
Q 23.390625 27.484375 19.1875 25 
Q 14.984375 22.515625 14.984375 16.5 
Q 14.984375 11.71875 18.140625 8.90625 
Q 21.296875 6.109375 26.703125 6.109375 
Q 34.1875 6.109375 38.703125 11.40625 
Q 43.21875 16.703125 43.21875 25.484375 
L 43.21875 27.484375 
z
M 52.203125 31.203125 
L 52.203125 0 
L 43.21875 0 
L 43.21875 8.296875 
Q 40.140625 3.328125 35.546875 0.953125 
Q 30.953125 -1.421875 24.3125 -1.421875 
Q 15.921875 -1.421875 10.953125 3.296875 
Q 6 8.015625 6 15.921875 
Q 6 25.140625 12.171875 29.828125 
Q 18.359375 34.515625 30.609375 34.515625 
L 43.21875 34.515625 
L 43.21875 35.40625 
Q 43.21875 41.609375 39.140625 45 
Q 35.0625 48.390625 27.6875 48.390625 
Q 23 48.390625 18.546875 47.265625 
Q 14.109375 46.140625 10.015625 43.890625 
L 10.015625 52.203125 
Q 14.9375 54.109375 19.578125 55.046875 
Q 24.21875 56 28.609375 56 
Q 40.484375 56 46.34375 49.84375 
Q 52.203125 43.703125 52.203125 31.203125 
z
" id="DejaVuSans-97"/>
      <path d="M 44.28125 53.078125 
L 44.28125 44.578125 
Q 40.484375 46.53125 36.375 47.5 
Q 32.28125 48.484375 27.875 48.484375 
Q 21.1875 48.484375 17.84375 46.4375 
Q 14.5 44.390625 14.5 40.28125 
Q 14.5 37.15625 16.890625 35.375 
Q 19.28125 33.59375 26.515625 31.984375 
L 29.59375 31.296875 
Q 39.15625 29.25 43.1875 25.515625 
Q 47.21875 21.78125 47.21875 15.09375 
Q 47.21875 7.46875 41.1875 3.015625 
Q 35.15625 -1.421875 24.609375 -1.421875 
Q 20.21875 -1.421875 15.453125 -0.5625 
Q 10.6875 0.296875 5.421875 2 
L 5.421875 11.28125 
Q 10.40625 8.6875 15.234375 7.390625 
Q 20.0625 6.109375 24.8125 6.109375 
Q 31.15625 6.109375 34.5625 8.28125 
Q 37.984375 10.453125 37.984375 14.40625 
Q 37.984375 18.0625 35.515625 20.015625 
Q 33.0625 21.96875 24.703125 23.78125 
L 21.578125 24.515625 
Q 13.234375 26.265625 9.515625 29.90625 
Q 5.8125 33.546875 5.8125 39.890625 
Q 5.8125 47.609375 11.28125 51.796875 
Q 16.75 56 26.8125 56 
Q 31.78125 56 36.171875 55.265625 
Q 40.578125 54.546875 44.28125 53.078125 
z
" id="DejaVuSans-115"/>
     </defs>
     <g transform="translate(221.027031 184.948562)scale(0.1 -0.1)">
      <use xlink:href="#DejaVuSans-67"/>
      <use x="69.824219" xlink:href="#DejaVuSans-111"/>
      <use x="131.005859" xlink:href="#DejaVuSans-114"/>
      <use x="172.103516" xlink:href="#DejaVuSans-114"/>
      <use x="213.216797" xlink:href="#DejaVuSans-105"/>
      <use x="241" xlink:href="#DejaVuSans-100"/>
      <use x="304.476562" xlink:href="#DejaVuSans-97"/>
      <use x="365.755859" xlink:href="#DejaVuSans-115"/>
     </g>
    </g>
   </g>
   <g id="matplotlib.axis_2">
    <g id="ytick_1">
     <g id="line2d_13">
      <path clip-path="url(#pc9c7960ea2)" d="M 46.08 150.807273 
L 437.76 150.807273 
" style="fill:none;stroke:#b0b0b0;stroke-linecap:square;stroke-width:0.8;"/>
     </g>
     <g id="line2d_14">
      <defs>
       <path d="M 0 0 
L -3.5 0 
" id="mf10d78135c" style="stroke:#000000;stroke-width:0.8;"/>
      </defs>
      <g>
       <use style="stroke:#000000;stroke-width:0.8;" x="46.08" xlink:href="#mf10d78135c" y="150.807273"/>
      </g>
     </g>
     <g id="text_8">
      <!-- 0.00000 -->
      <defs>
       <path d="M 10.6875 12.40625 
L 21 12.40625 
L 21 0 
L 10.6875 0 
z
" id="DejaVuSans-46"/>
      </defs>
      <g transform="translate(-2.273125 154.606491)scale(0.1 -0.1)">
       <use xlink:href="#DejaVuSans-48"/>
       <use x="63.623047" xlink:href="#DejaVuSans-46"/>
       <use x="95.410156" xlink:href="#DejaVuSans-48"/>
       <use x="159.033203" xlink:href="#DejaVuSans-48"/>
       <use x="222.65625" xlink:href="#DejaVuSans-48"/>
       <use x="286.279297" xlink:href="#DejaVuSans-48"/>
       <use x="349.902344" xlink:href="#DejaVuSans-48"/>
      </g>
     </g>
    </g>
    <g id="ytick_2">
     <g id="line2d_15">
      <path clip-path="url(#pc9c7960ea2)" d="M 46.08 122.152873 
L 437.76 122.152873 
" style="fill:none;stroke:#b0b0b0;stroke-linecap:square;stroke-width:0.8;"/>
     </g>
     <g id="line2d_16">
      <g>
       <use style="stroke:#000000;stroke-width:0.8;" x="46.08" xlink:href="#mf10d78135c" y="122.152873"/>
      </g>
     </g>
     <g id="text_9">
      <!-- 0.00001 -->
      <g transform="translate(-2.273125 125.952091)scale(0.1 -0.1)">
       <use xlink:href="#DejaVuSans-48"/>
       <use x="63.623047" xlink:href="#DejaVuSans-46"/>
       <use x="95.410156" xlink:href="#DejaVuSans-48"/>
       <use x="159.033203" xlink:href="#DejaVuSans-48"/>
       <use x="222.65625" xlink:href="#DejaVuSans-48"/>
       <use x="286.279297" xlink:href="#DejaVuSans-48"/>
       <use x="349.902344" xlink:href="#DejaVuSans-49"/>
      </g>
     </g>
    </g>
    <g id="ytick_3">
     <g id="line2d_17">
      <path clip-path="url(#pc9c7960ea2)" d="M 46.08 93.498473 
L 437.76 93.498473 
" style="fill:none;stroke:#b0b0b0;stroke-linecap:square;stroke-width:0.8;"/>
     </g>
     <g id="line2d_18">
      <g>
       <use style="stroke:#000000;stroke-width:0.8;" x="46.08" xlink:href="#mf10d78135c" y="93.498473"/>
      </g>
     </g>
     <g id="text_10">
      <!-- 0.00002 -->
      <g transform="translate(-2.273125 97.297691)scale(0.1 -0.1)">
       <use xlink:href="#DejaVuSans-48"/>
       <use x="63.623047" xlink:href="#DejaVuSans-46"/>
       <use x="95.410156" xlink:href="#DejaVuSans-48"/>
       <use x="159.033203" xlink:href="#DejaVuSans-48"/>
       <use x="222.65625" xlink:href="#DejaVuSans-48"/>
       <use x="286.279297" xlink:href="#DejaVuSans-48"/>
       <use x="349.902344" xlink:href="#DejaVuSans-50"/>
      </g>
     </g>
    </g>
    <g id="ytick_4">
     <g id="line2d_19">
      <path clip-path="url(#pc9c7960ea2)" d="M 46.08 64.844073 
L 437.76 64.844073 
" style="fill:none;stroke:#b0b0b0;stroke-linecap:square;stroke-width:0.8;"/>
     </g>
     <g id="line2d_20">
      <g>
       <use style="stroke:#000000;stroke-width:0.8;" x="46.08" xlink:href="#mf10d78135c" y="64.844073"/>
      </g>
     </g>
     <g id="text_11">
      <!-- 0.00003 -->
      <defs>
       <path d="M 40.578125 39.3125 
Q 47.65625 37.796875 51.625 33 
Q 55.609375 28.21875 55.609375 21.1875 
Q 55.609375 10.40625 48.1875 4.484375 
Q 40.765625 -1.421875 27.09375 -1.421875 
Q 22.515625 -1.421875 17.65625 -0.515625 
Q 12.796875 0.390625 7.625 2.203125 
L 7.625 11.71875 
Q 11.71875 9.328125 16.59375 8.109375 
Q 21.484375 6.890625 26.8125 6.890625 
Q 36.078125 6.890625 40.9375 10.546875 
Q 45.796875 14.203125 45.796875 21.1875 
Q 45.796875 27.640625 41.28125 31.265625 
Q 36.765625 34.90625 28.71875 34.90625 
L 20.21875 34.90625 
L 20.21875 43.015625 
L 29.109375 43.015625 
Q 36.375 43.015625 40.234375 45.921875 
Q 44.09375 48.828125 44.09375 54.296875 
Q 44.09375 59.90625 40.109375 62.90625 
Q 36.140625 65.921875 28.71875 65.921875 
Q 24.65625 65.921875 20.015625 65.03125 
Q 15.375 64.15625 9.8125 62.3125 
L 9.8125 71.09375 
Q 15.4375 72.65625 20.34375 73.4375 
Q 25.25 74.21875 29.59375 74.21875 
Q 40.828125 74.21875 47.359375 69.109375 
Q 53.90625 64.015625 53.90625 55.328125 
Q 53.90625 49.265625 50.4375 45.09375 
Q 46.96875 40.921875 40.578125 39.3125 
z
" id="DejaVuSans-51"/>
      </defs>
      <g transform="translate(-2.273125 68.643291)scale(0.1 -0.1)">
       <use xlink:href="#DejaVuSans-48"/>
       <use x="63.623047" xlink:href="#DejaVuSans-46"/>
       <use x="95.410156" xlink:href="#DejaVuSans-48"/>
       <use x="159.033203" xlink:href="#DejaVuSans-48"/>
       <use x="222.65625" xlink:href="#DejaVuSans-48"/>
       <use x="286.279297" xlink:href="#DejaVuSans-48"/>
       <use x="349.902344" xlink:href="#DejaVuSans-51"/>
      </g>
     </g>
    </g>
    <g id="ytick_5">
     <g id="line2d_21">
      <path clip-path="url(#pc9c7960ea2)" d="M 46.08 36.189672 
L 437.76 36.189672 
" style="fill:none;stroke:#b0b0b0;stroke-linecap:square;stroke-width:0.8;"/>
     </g>
     <g id="line2d_22">
      <g>
       <use style="stroke:#000000;stroke-width:0.8;" x="46.08" xlink:href="#mf10d78135c" y="36.189672"/>
      </g>
     </g>
     <g id="text_12">
      <!-- 0.00004 -->
      <g transform="translate(-2.273125 39.988891)scale(0.1 -0.1)">
       <use xlink:href="#DejaVuSans-48"/>
       <use x="63.623047" xlink:href="#DejaVuSans-46"/>
       <use x="95.410156" xlink:href="#DejaVuSans-48"/>
       <use x="159.033203" xlink:href="#DejaVuSans-48"/>
       <use x="222.65625" xlink:href="#DejaVuSans-48"/>
       <use x="286.279297" xlink:href="#DejaVuSans-48"/>
       <use x="349.902344" xlink:href="#DejaVuSans-52"/>
      </g>
     </g>
    </g>
    <g id="text_13">
     <!-- Demora -->
     <defs>
      <path d="M 19.671875 64.796875 
L 19.671875 8.109375 
L 31.59375 8.109375 
Q 46.6875 8.109375 53.6875 14.9375 
Q 60.6875 21.78125 60.6875 36.53125 
Q 60.6875 51.171875 53.6875 57.984375 
Q 46.6875 64.796875 31.59375 64.796875 
z
M 9.8125 72.90625 
L 30.078125 72.90625 
Q 51.265625 72.90625 61.171875 64.09375 
Q 71.09375 55.28125 71.09375 36.53125 
Q 71.09375 17.671875 61.125 8.828125 
Q 51.171875 0 30.078125 0 
L 9.8125 0 
z
" id="DejaVuSans-68"/>
      <path d="M 56.203125 29.59375 
L 56.203125 25.203125 
L 14.890625 25.203125 
Q 15.484375 15.921875 20.484375 11.0625 
Q 25.484375 6.203125 34.421875 6.203125 
Q 39.59375 6.203125 44.453125 7.46875 
Q 49.3125 8.734375 54.109375 11.28125 
L 54.109375 2.78125 
Q 49.265625 0.734375 44.1875 -0.34375 
Q 39.109375 -1.421875 33.890625 -1.421875 
Q 20.796875 -1.421875 13.15625 6.1875 
Q 5.515625 13.8125 5.515625 26.8125 
Q 5.515625 40.234375 12.765625 48.109375 
Q 20.015625 56 32.328125 56 
Q 43.359375 56 49.78125 48.890625 
Q 56.203125 41.796875 56.203125 29.59375 
z
M 47.21875 32.234375 
Q 47.125 39.59375 43.09375 43.984375 
Q 39.0625 48.390625 32.421875 48.390625 
Q 24.90625 48.390625 20.390625 44.140625 
Q 15.875 39.890625 15.1875 32.171875 
z
" id="DejaVuSans-101"/>
      <path d="M 52 44.1875 
Q 55.375 50.25 60.0625 53.125 
Q 64.75 56 71.09375 56 
Q 79.640625 56 84.28125 50.015625 
Q 88.921875 44.046875 88.921875 33.015625 
L 88.921875 0 
L 79.890625 0 
L 79.890625 32.71875 
Q 79.890625 40.578125 77.09375 44.375 
Q 74.3125 48.1875 68.609375 48.1875 
Q 61.625 48.1875 57.5625 43.546875 
Q 53.515625 38.921875 53.515625 30.90625 
L 53.515625 0 
L 44.484375 0 
L 44.484375 32.71875 
Q 44.484375 40.625 41.703125 44.40625 
Q 38.921875 48.1875 33.109375 48.1875 
Q 26.21875 48.1875 22.15625 43.53125 
Q 18.109375 38.875 18.109375 30.90625 
L 18.109375 0 
L 9.078125 0 
L 9.078125 54.6875 
L 18.109375 54.6875 
L 18.109375 46.1875 
Q 21.1875 51.21875 25.484375 53.609375 
Q 29.78125 56 35.6875 56 
Q 41.65625 56 45.828125 52.96875 
Q 50 49.953125 52 44.1875 
z
" id="DejaVuSans-109"/>
     </defs>
     <g transform="translate(-8.352813 112.135781)rotate(-90)scale(0.1 -0.1)">
      <use xlink:href="#DejaVuSans-68"/>
      <use x="77.001953" xlink:href="#DejaVuSans-101"/>
      <use x="138.525391" xlink:href="#DejaVuSans-109"/>
      <use x="235.9375" xlink:href="#DejaVuSans-111"/>
      <use x="297.119141" xlink:href="#DejaVuSans-114"/>
      <use x="338.232422" xlink:href="#DejaVuSans-97"/>
     </g>
    </g>
   </g>
   <g id="line2d_23">
    <path clip-path="url(#pc9c7960ea2)" d="M 63.883636 150.807273 
L 64.240066 150.807273 
L 64.596495 33.512727 
L 64.952924 62.836364 
L 65.309353 80.430545 
L 66.022211 100.538182 
L 66.73507 111.709091 
L 67.447928 118.817851 
L 68.160786 123.739301 
L 68.873645 127.348364 
L 69.586503 130.108235 
L 70.65579 133.213091 
L 71.725078 135.507984 
L 72.794365 137.273287 
L 73.150794 125.320124 
L 73.507224 126.230379 
L 73.863653 124.46984 
L 74.93294 126.938974 
L 76.358657 129.591008 
L 77.784373 131.712634 
L 78.853661 133.044818 
L 79.21009 132.877725 
L 79.566519 133.27616 
L 79.922948 128.606734 
L 80.992236 129.965951 
L 81.348665 129.706232 
L 82.061523 130.51781 
L 82.417952 103.422146 
L 82.774382 102.482773 
L 83.48724 104.208648 
L 83.843669 100.412778 
L 84.200098 100.491001 
L 85.982244 104.484356 
L 87.76439 107.890453 
L 88.120819 108.512436 
L 88.477248 105.499441 
L 89.190106 106.757992 
L 89.546536 103.656344 
L 89.902965 104.293519 
L 90.259394 103.451282 
L 92.04154 106.411032 
L 94.180115 109.508444 
L 96.31869 112.201846 
L 98.457265 114.565443 
L 100.952269 116.981565 
L 101.308698 115.733994 
L 103.803702 117.906675 
L 104.160131 118.195277 
L 104.51656 116.151076 
L 105.942277 117.31599 
L 106.298706 117.145581 
L 108.437281 118.748519 
L 108.79371 115.834671 
L 111.645143 117.907122 
L 113.07086 118.853889 
L 113.427289 118.536971 
L 116.635152 120.486184 
L 120.199443 122.39317 
L 120.555872 122.341006 
L 121.62516 122.864925 
L 121.981589 122.710694 
L 125.189451 124.172366 
L 125.90231 124.415067 
L 126.615168 124.713284 
L 126.971597 122.683877 
L 128.397314 123.301974 
L 128.753743 123.291578 
L 132.318034 124.717262 
L 132.674464 124.35408 
L 134.456609 125.018733 
L 134.813038 119.43856 
L 135.169468 119.594624 
L 135.525897 119.491956 
L 136.951613 120.040736 
L 137.308043 119.749982 
L 139.446618 120.531266 
L 143.367338 121.968547 
L 143.723767 122.096719 
L 144.080197 119.685909 
L 146.575201 120.601103 
L 146.93163 118.744039 
L 147.288059 118.880478 
L 147.644488 118.741248 
L 148.713776 119.14375 
L 149.070205 116.984722 
L 149.426634 116.47139 
L 152.990925 117.839353 
L 153.347355 113.409182 
L 157.268075 114.97336 
L 157.624505 114.508401 
L 158.693792 114.916254 
L 159.050221 113.720187 
L 164.753088 115.8096 
L 165.109517 115.066501 
L 166.891663 115.682721 
L 167.248092 115.044429 
L 170.099525 116.001295 
L 170.455954 114.177616 
L 170.812383 114.299309 
L 171.168812 113.57318 
L 176.871679 115.446593 
L 177.228108 114.944325 
L 177.584537 115.056397 
L 177.940966 115.040872 
L 179.723112 115.589436 
L 180.079541 115.411207 
L 181.861687 115.94428 
L 182.218116 115.816068 
L 183.287404 116.12849 
L 183.643833 113.609021 
L 185.782408 114.25972 
L 186.138837 114.07946 
L 189.703129 115.116969 
L 190.059558 114.748491 
L 191.841704 115.249308 
L 192.198133 114.733499 
L 193.980278 115.22631 
L 194.336708 114.785244 
L 195.049566 114.980485 
L 195.405995 114.682604 
L 200.396003 115.968038 
L 201.108862 115.831181 
L 207.168157 117.306599 
L 207.524586 117.132229 
L 208.950303 117.462376 
L 209.306732 116.98798 
L 211.801736 117.552411 
L 212.158165 117.128923 
L 217.504603 118.29831 
L 218.217461 118.161828 
L 221.425324 118.825054 
L 221.781753 118.465292 
L 227.841048 119.657947 
L 228.197477 118.015181 
L 235.68249 119.391656 
L 236.751777 119.58558 
L 237.108206 119.158281 
L 238.890352 119.479917 
L 239.246781 119.064294 
L 239.60321 117.898979 
L 241.028927 118.163303 
L 241.385356 118.030977 
L 242.098215 118.161821 
L 242.454644 117.825531 
L 253.147518 119.685404 
L 254.573235 119.917657 
L 254.929664 119.320259 
L 262.058247 120.387259 
L 262.771106 120.436609 
L 269.18683 121.327914 
L 269.54326 120.870649 
L 273.107551 121.329539 
L 274.176839 121.42593 
L 277.028272 121.818335 
L 277.384701 120.859878 
L 280.948993 121.350819 
L 281.305422 121.200434 
L 285.939001 121.817243 
L 286.29543 121.438598 
L 290.929009 121.93697 
L 294.493301 122.3825 
L 294.84973 122.306247 
L 300.909025 122.953184 
L 301.265455 122.744416 
L 306.611892 123.361634 
L 306.968321 122.913175 
L 311.245471 123.3948 
L 311.6019 123.055601 
L 311.958329 123.095417 
L 312.314758 122.610123 
L 314.809762 122.890094 
L 315.166192 122.790799 
L 320.869058 123.326236 
L 322.294775 123.445596 
L 323.364062 123.558196 
L 323.720491 123.480939 
L 324.43335 123.555601 
L 324.789779 123.364126 
L 326.571925 123.550056 
L 326.928354 123.201688 
L 331.561933 123.678912 
L 331.918362 122.418289 
L 334.413366 122.590275 
L 343.324095 123.456548 
L 343.680524 123.354598 
L 345.46267 123.528129 
L 345.819099 123.442078 
L 347.601245 123.595274 
L 347.957674 123.006401 
L 356.868403 123.835339 
L 357.224832 123.421749 
L 357.581261 123.227526 
L 361.858411 123.622935 
L 362.21484 123.38543 
L 368.986994 123.993382 
L 369.343423 123.27525 
L 372.907715 123.507926 
L 373.977002 123.553931 
L 381.105586 124.120638 
L 382.174873 124.155707 
L 384.669877 124.267228 
L 385.382735 124.223061 
L 391.085602 124.672579 
L 391.442031 124.419866 
L 393.937035 124.619124 
L 394.293464 124.243002 
L 394.649894 123.377067 
L 395.719181 123.465362 
L 396.07561 123.266538 
L 403.917052 123.832764 
L 405.342768 123.913884 
L 407.481343 124.081097 
L 407.837772 123.7088 
L 408.550631 123.661889 
L 408.90706 123.109676 
L 411.758493 123.336473 
L 412.114922 123.193674 
L 416.035643 123.400123 
L 416.392072 123.264099 
L 419.956364 123.53953 
L 419.956364 123.53953 
" style="fill:none;stroke:#1f77b4;stroke-linecap:square;stroke-width:1.5;"/>
   </g>
   <g id="patch_3">
    <path d="M 46.08 156.672 
L 46.08 27.648 
" style="fill:none;stroke:#000000;stroke-linecap:square;stroke-linejoin:miter;stroke-width:0.8;"/>
   </g>
   <g id="patch_4">
    <path d="M 437.76 156.672 
L 437.76 27.648 
" style="fill:none;stroke:#000000;stroke-linecap:square;stroke-linejoin:miter;stroke-width:0.8;"/>
   </g>
   <g id="patch_5">
    <path d="M 46.08 156.672 
L 437.76 156.672 
" style="fill:none;stroke:#000000;stroke-linecap:square;stroke-linejoin:miter;stroke-width:0.8;"/>
   </g>
   <g id="patch_6">
    <path d="M 46.08 27.648 
L 437.76 27.648 
" style="fill:none;stroke:#000000;stroke-linecap:square;stroke-linejoin:miter;stroke-width:0.8;"/>
   </g>
   <g id="text_14">
    <!-- Demora promedio en cola A -->
    <defs>
     <path id="DejaVuSans-32"/>
     <path d="M 18.109375 8.203125 
L 18.109375 -20.796875 
L 9.078125 -20.796875 
L 9.078125 54.6875 
L 18.109375 54.6875 
L 18.109375 46.390625 
Q 20.953125 51.265625 25.265625 53.625 
Q 29.59375 56 35.59375 56 
Q 45.5625 56 51.78125 48.09375 
Q 58.015625 40.1875 58.015625 27.296875 
Q 58.015625 14.40625 51.78125 6.484375 
Q 45.5625 -1.421875 35.59375 -1.421875 
Q 29.59375 -1.421875 25.265625 0.953125 
Q 20.953125 3.328125 18.109375 8.203125 
z
M 48.6875 27.296875 
Q 48.6875 37.203125 44.609375 42.84375 
Q 40.53125 48.484375 33.40625 48.484375 
Q 26.265625 48.484375 22.1875 42.84375 
Q 18.109375 37.203125 18.109375 27.296875 
Q 18.109375 17.390625 22.1875 11.75 
Q 26.265625 6.109375 33.40625 6.109375 
Q 40.53125 6.109375 44.609375 11.75 
Q 48.6875 17.390625 48.6875 27.296875 
z
" id="DejaVuSans-112"/>
     <path d="M 54.890625 33.015625 
L 54.890625 0 
L 45.90625 0 
L 45.90625 32.71875 
Q 45.90625 40.484375 42.875 44.328125 
Q 39.84375 48.1875 33.796875 48.1875 
Q 26.515625 48.1875 22.3125 43.546875 
Q 18.109375 38.921875 18.109375 30.90625 
L 18.109375 0 
L 9.078125 0 
L 9.078125 54.6875 
L 18.109375 54.6875 
L 18.109375 46.1875 
Q 21.34375 51.125 25.703125 53.5625 
Q 30.078125 56 35.796875 56 
Q 45.21875 56 50.046875 50.171875 
Q 54.890625 44.34375 54.890625 33.015625 
z
" id="DejaVuSans-110"/>
     <path d="M 48.78125 52.59375 
L 48.78125 44.1875 
Q 44.96875 46.296875 41.140625 47.34375 
Q 37.3125 48.390625 33.40625 48.390625 
Q 24.65625 48.390625 19.8125 42.84375 
Q 14.984375 37.3125 14.984375 27.296875 
Q 14.984375 17.28125 19.8125 11.734375 
Q 24.65625 6.203125 33.40625 6.203125 
Q 37.3125 6.203125 41.140625 7.25 
Q 44.96875 8.296875 48.78125 10.40625 
L 48.78125 2.09375 
Q 45.015625 0.34375 40.984375 -0.53125 
Q 36.96875 -1.421875 32.421875 -1.421875 
Q 20.0625 -1.421875 12.78125 6.34375 
Q 5.515625 14.109375 5.515625 27.296875 
Q 5.515625 40.671875 12.859375 48.328125 
Q 20.21875 56 33.015625 56 
Q 37.15625 56 41.109375 55.140625 
Q 45.0625 54.296875 48.78125 52.59375 
z
" id="DejaVuSans-99"/>
     <path d="M 9.421875 75.984375 
L 18.40625 75.984375 
L 18.40625 0 
L 9.421875 0 
z
" id="DejaVuSans-108"/>
     <path d="M 34.1875 63.1875 
L 20.796875 26.90625 
L 47.609375 26.90625 
z
M 28.609375 72.90625 
L 39.796875 72.90625 
L 67.578125 0 
L 57.328125 0 
L 50.6875 18.703125 
L 17.828125 18.703125 
L 11.1875 0 
L 0.78125 0 
z
" id="DejaVuSans-65"/>
    </defs>
    <g transform="translate(157.780313 21.648)scale(0.12 -0.12)">
     <use xlink:href="#DejaVuSans-68"/>
     <use x="77.001953" xlink:href="#DejaVuSans-101"/>
     <use x="138.525391" xlink:href="#DejaVuSans-109"/>
     <use x="235.9375" xlink:href="#DejaVuSans-111"/>
     <use x="297.119141" xlink:href="#DejaVuSans-114"/>
     <use x="338.232422" xlink:href="#DejaVuSans-97"/>
     <use x="399.511719" xlink:href="#DejaVuSans-32"/>
     <use x="431.298828" xlink:href="#DejaVuSans-112"/>
     <use x="494.775391" xlink:href="#DejaVuSans-114"/>
     <use x="535.857422" xlink:href="#DejaVuSans-111"/>
     <use x="597.039062" xlink:href="#DejaVuSans-109"/>
     <use x="694.451172" xlink:href="#DejaVuSans-101"/>
     <use x="755.974609" xlink:href="#DejaVuSans-100"/>
     <use x="819.451172" xlink:href="#DejaVuSans-105"/>
     <use x="847.234375" xlink:href="#DejaVuSans-111"/>
     <use x="908.416016" xlink:href="#DejaVuSans-32"/>
     <use x="940.203125" xlink:href="#DejaVuSans-101"/>
     <use x="1001.726562" xlink:href="#DejaVuSans-110"/>
     <use x="1065.105469" xlink:href="#DejaVuSans-32"/>
     <use x="1096.892578" xlink:href="#DejaVuSans-99"/>
     <use x="1151.873047" xlink:href="#DejaVuSans-111"/>
     <use x="1213.054688" xlink:href="#DejaVuSans-108"/>
     <use x="1240.837891" xlink:href="#DejaVuSans-97"/>
     <use x="1302.117188" xlink:href="#DejaVuSans-32"/>
     <use x="1333.904297" xlink:href="#DejaVuSans-65"/>
    </g>
   </g>
  </g>
  <g id="axes_2">
   <g id="patch_7">
    <path d="M 46.08 317.952 
L 212.75234 317.952 
L 212.75234 188.928 
L 46.08 188.928 
z
" style="fill:#ffffff;"/>
   </g>
   <g id="matplotlib.axis_3">
    <g id="xtick_7">
     <g id="line2d_24">
      <path clip-path="url(#pa06c6e1dc0)" d="M 53.504343 317.952 
L 53.504343 188.928 
" style="fill:none;stroke:#b0b0b0;stroke-linecap:square;stroke-width:0.8;"/>
     </g>
     <g id="line2d_25">
      <g>
       <use style="stroke:#000000;stroke-width:0.8;" x="53.504343" xlink:href="#mc441eaaf25" y="317.952"/>
      </g>
     </g>
     <g id="text_15">
      <!-- 0 -->
      <g transform="translate(50.323093 332.550437)scale(0.1 -0.1)">
       <use xlink:href="#DejaVuSans-48"/>
      </g>
     </g>
    </g>
    <g id="xtick_8">
     <g id="line2d_26">
      <path clip-path="url(#pa06c6e1dc0)" d="M 91.422339 317.952 
L 91.422339 188.928 
" style="fill:none;stroke:#b0b0b0;stroke-linecap:square;stroke-width:0.8;"/>
     </g>
     <g id="line2d_27">
      <g>
       <use style="stroke:#000000;stroke-width:0.8;" x="91.422339" xlink:href="#mc441eaaf25" y="317.952"/>
      </g>
     </g>
     <g id="text_16">
      <!-- 250 -->
      <defs>
       <path d="M 10.796875 72.90625 
L 49.515625 72.90625 
L 49.515625 64.59375 
L 19.828125 64.59375 
L 19.828125 46.734375 
Q 21.96875 47.46875 24.109375 47.828125 
Q 26.265625 48.1875 28.421875 48.1875 
Q 40.625 48.1875 47.75 41.5 
Q 54.890625 34.8125 54.890625 23.390625 
Q 54.890625 11.625 47.5625 5.09375 
Q 40.234375 -1.421875 26.90625 -1.421875 
Q 22.3125 -1.421875 17.546875 -0.640625 
Q 12.796875 0.140625 7.71875 1.703125 
L 7.71875 11.625 
Q 12.109375 9.234375 16.796875 8.0625 
Q 21.484375 6.890625 26.703125 6.890625 
Q 35.15625 6.890625 40.078125 11.328125 
Q 45.015625 15.765625 45.015625 23.390625 
Q 45.015625 31 40.078125 35.4375 
Q 35.15625 39.890625 26.703125 39.890625 
Q 22.75 39.890625 18.8125 39.015625 
Q 14.890625 38.140625 10.796875 36.28125 
z
" id="DejaVuSans-53"/>
      </defs>
      <g transform="translate(81.878589 332.550437)scale(0.1 -0.1)">
       <use xlink:href="#DejaVuSans-50"/>
       <use x="63.623047" xlink:href="#DejaVuSans-53"/>
       <use x="127.246094" xlink:href="#DejaVuSans-48"/>
      </g>
     </g>
    </g>
    <g id="xtick_9">
     <g id="line2d_28">
      <path clip-path="url(#pa06c6e1dc0)" d="M 129.340334 317.952 
L 129.340334 188.928 
" style="fill:none;stroke:#b0b0b0;stroke-linecap:square;stroke-width:0.8;"/>
     </g>
     <g id="line2d_29">
      <g>
       <use style="stroke:#000000;stroke-width:0.8;" x="129.340334" xlink:href="#mc441eaaf25" y="317.952"/>
      </g>
     </g>
     <g id="text_17">
      <!-- 500 -->
      <g transform="translate(119.796584 332.550437)scale(0.1 -0.1)">
       <use xlink:href="#DejaVuSans-53"/>
       <use x="63.623047" xlink:href="#DejaVuSans-48"/>
       <use x="127.246094" xlink:href="#DejaVuSans-48"/>
      </g>
     </g>
    </g>
    <g id="xtick_10">
     <g id="line2d_30">
      <path clip-path="url(#pa06c6e1dc0)" d="M 167.25833 317.952 
L 167.25833 188.928 
" style="fill:none;stroke:#b0b0b0;stroke-linecap:square;stroke-width:0.8;"/>
     </g>
     <g id="line2d_31">
      <g>
       <use style="stroke:#000000;stroke-width:0.8;" x="167.25833" xlink:href="#mc441eaaf25" y="317.952"/>
      </g>
     </g>
     <g id="text_18">
      <!-- 750 -->
      <defs>
       <path d="M 8.203125 72.90625 
L 55.078125 72.90625 
L 55.078125 68.703125 
L 28.609375 0 
L 18.3125 0 
L 43.21875 64.59375 
L 8.203125 64.59375 
z
" id="DejaVuSans-55"/>
      </defs>
      <g transform="translate(157.71458 332.550437)scale(0.1 -0.1)">
       <use xlink:href="#DejaVuSans-55"/>
       <use x="63.623047" xlink:href="#DejaVuSans-53"/>
       <use x="127.246094" xlink:href="#DejaVuSans-48"/>
      </g>
     </g>
    </g>
    <g id="xtick_11">
     <g id="line2d_32">
      <path clip-path="url(#pa06c6e1dc0)" d="M 205.176325 317.952 
L 205.176325 188.928 
" style="fill:none;stroke:#b0b0b0;stroke-linecap:square;stroke-width:0.8;"/>
     </g>
     <g id="line2d_33">
      <g>
       <use style="stroke:#000000;stroke-width:0.8;" x="205.176325" xlink:href="#mc441eaaf25" y="317.952"/>
      </g>
     </g>
     <g id="text_19">
      <!-- 1000 -->
      <g transform="translate(192.451325 332.550437)scale(0.1 -0.1)">
       <use xlink:href="#DejaVuSans-49"/>
       <use x="63.623047" xlink:href="#DejaVuSans-48"/>
       <use x="127.246094" xlink:href="#DejaVuSans-48"/>
       <use x="190.869141" xlink:href="#DejaVuSans-48"/>
      </g>
     </g>
    </g>
    <g id="text_20">
     <!-- Corridas -->
     <g transform="translate(108.523201 346.228563)scale(0.1 -0.1)">
      <use xlink:href="#DejaVuSans-67"/>
      <use x="69.824219" xlink:href="#DejaVuSans-111"/>
      <use x="131.005859" xlink:href="#DejaVuSans-114"/>
      <use x="172.103516" xlink:href="#DejaVuSans-114"/>
      <use x="213.216797" xlink:href="#DejaVuSans-105"/>
      <use x="241" xlink:href="#DejaVuSans-100"/>
      <use x="304.476562" xlink:href="#DejaVuSans-97"/>
      <use x="365.755859" xlink:href="#DejaVuSans-115"/>
     </g>
    </g>
   </g>
   <g id="matplotlib.axis_4">
    <g id="ytick_6">
     <g id="line2d_34">
      <path clip-path="url(#pa06c6e1dc0)" d="M 46.08 312.497331 
L 212.75234 312.497331 
" style="fill:none;stroke:#b0b0b0;stroke-linecap:square;stroke-width:0.8;"/>
     </g>
     <g id="line2d_35">
      <g>
       <use style="stroke:#000000;stroke-width:0.8;" x="46.08" xlink:href="#mf10d78135c" y="312.497331"/>
      </g>
     </g>
     <g id="text_21">
      <!-- 0.040 -->
      <g transform="translate(10.451875 316.296549)scale(0.1 -0.1)">
       <use xlink:href="#DejaVuSans-48"/>
       <use x="63.623047" xlink:href="#DejaVuSans-46"/>
       <use x="95.410156" xlink:href="#DejaVuSans-48"/>
       <use x="159.033203" xlink:href="#DejaVuSans-52"/>
       <use x="222.65625" xlink:href="#DejaVuSans-48"/>
      </g>
     </g>
    </g>
    <g id="ytick_7">
     <g id="line2d_36">
      <path clip-path="url(#pa06c6e1dc0)" d="M 46.08 288.205931 
L 212.75234 288.205931 
" style="fill:none;stroke:#b0b0b0;stroke-linecap:square;stroke-width:0.8;"/>
     </g>
     <g id="line2d_37">
      <g>
       <use style="stroke:#000000;stroke-width:0.8;" x="46.08" xlink:href="#mf10d78135c" y="288.205931"/>
      </g>
     </g>
     <g id="text_22">
      <!-- 0.045 -->
      <g transform="translate(10.451875 292.00515)scale(0.1 -0.1)">
       <use xlink:href="#DejaVuSans-48"/>
       <use x="63.623047" xlink:href="#DejaVuSans-46"/>
       <use x="95.410156" xlink:href="#DejaVuSans-48"/>
       <use x="159.033203" xlink:href="#DejaVuSans-52"/>
       <use x="222.65625" xlink:href="#DejaVuSans-53"/>
      </g>
     </g>
    </g>
    <g id="ytick_8">
     <g id="line2d_38">
      <path clip-path="url(#pa06c6e1dc0)" d="M 46.08 263.914532 
L 212.75234 263.914532 
" style="fill:none;stroke:#b0b0b0;stroke-linecap:square;stroke-width:0.8;"/>
     </g>
     <g id="line2d_39">
      <g>
       <use style="stroke:#000000;stroke-width:0.8;" x="46.08" xlink:href="#mf10d78135c" y="263.914532"/>
      </g>
     </g>
     <g id="text_23">
      <!-- 0.050 -->
      <g transform="translate(10.451875 267.713751)scale(0.1 -0.1)">
       <use xlink:href="#DejaVuSans-48"/>
       <use x="63.623047" xlink:href="#DejaVuSans-46"/>
       <use x="95.410156" xlink:href="#DejaVuSans-48"/>
       <use x="159.033203" xlink:href="#DejaVuSans-53"/>
       <use x="222.65625" xlink:href="#DejaVuSans-48"/>
      </g>
     </g>
    </g>
    <g id="ytick_9">
     <g id="line2d_40">
      <path clip-path="url(#pa06c6e1dc0)" d="M 46.08 239.623132 
L 212.75234 239.623132 
" style="fill:none;stroke:#b0b0b0;stroke-linecap:square;stroke-width:0.8;"/>
     </g>
     <g id="line2d_41">
      <g>
       <use style="stroke:#000000;stroke-width:0.8;" x="46.08" xlink:href="#mf10d78135c" y="239.623132"/>
      </g>
     </g>
     <g id="text_24">
      <!-- 0.055 -->
      <g transform="translate(10.451875 243.422351)scale(0.1 -0.1)">
       <use xlink:href="#DejaVuSans-48"/>
       <use x="63.623047" xlink:href="#DejaVuSans-46"/>
       <use x="95.410156" xlink:href="#DejaVuSans-48"/>
       <use x="159.033203" xlink:href="#DejaVuSans-53"/>
       <use x="222.65625" xlink:href="#DejaVuSans-53"/>
      </g>
     </g>
    </g>
    <g id="ytick_10">
     <g id="line2d_42">
      <path clip-path="url(#pa06c6e1dc0)" d="M 46.08 215.331733 
L 212.75234 215.331733 
" style="fill:none;stroke:#b0b0b0;stroke-linecap:square;stroke-width:0.8;"/>
     </g>
     <g id="line2d_43">
      <g>
       <use style="stroke:#000000;stroke-width:0.8;" x="46.08" xlink:href="#mf10d78135c" y="215.331733"/>
      </g>
     </g>
     <g id="text_25">
      <!-- 0.060 -->
      <g transform="translate(10.451875 219.130952)scale(0.1 -0.1)">
       <use xlink:href="#DejaVuSans-48"/>
       <use x="63.623047" xlink:href="#DejaVuSans-46"/>
       <use x="95.410156" xlink:href="#DejaVuSans-48"/>
       <use x="159.033203" xlink:href="#DejaVuSans-54"/>
       <use x="222.65625" xlink:href="#DejaVuSans-48"/>
      </g>
     </g>
    </g>
    <g id="ytick_11">
     <g id="line2d_44">
      <path clip-path="url(#pa06c6e1dc0)" d="M 46.08 191.040333 
L 212.75234 191.040333 
" style="fill:none;stroke:#b0b0b0;stroke-linecap:square;stroke-width:0.8;"/>
     </g>
     <g id="line2d_45">
      <g>
       <use style="stroke:#000000;stroke-width:0.8;" x="46.08" xlink:href="#mf10d78135c" y="191.040333"/>
      </g>
     </g>
     <g id="text_26">
      <!-- 0.065 -->
      <g transform="translate(10.451875 194.839552)scale(0.1 -0.1)">
       <use xlink:href="#DejaVuSans-48"/>
       <use x="63.623047" xlink:href="#DejaVuSans-46"/>
       <use x="95.410156" xlink:href="#DejaVuSans-48"/>
       <use x="159.033203" xlink:href="#DejaVuSans-54"/>
       <use x="222.65625" xlink:href="#DejaVuSans-53"/>
      </g>
     </g>
    </g>
    <g id="text_27">
     <!-- Demora -->
     <g transform="translate(4.372188 273.415781)rotate(-90)scale(0.1 -0.1)">
      <use xlink:href="#DejaVuSans-68"/>
      <use x="77.001953" xlink:href="#DejaVuSans-101"/>
      <use x="138.525391" xlink:href="#DejaVuSans-109"/>
      <use x="235.9375" xlink:href="#DejaVuSans-111"/>
      <use x="297.119141" xlink:href="#DejaVuSans-114"/>
      <use x="338.232422" xlink:href="#DejaVuSans-97"/>
     </g>
    </g>
   </g>
   <g id="line2d_46">
    <path clip-path="url(#pa06c6e1dc0)" d="M 53.656015 312.087273 
L 53.807687 284.551971 
L 53.959359 194.792727 
L 54.111031 214.343359 
L 54.262703 219.157409 
L 54.414375 197.59016 
L 55.172735 234.053452 
L 55.476079 237.822189 
L 55.627751 245.229736 
L 55.931095 238.360283 
L 56.234439 242.527951 
L 56.386111 238.866673 
L 56.689455 247.620925 
L 56.841127 244.888813 
L 56.992799 244.717016 
L 57.144471 245.067076 
L 57.296143 245.834798 
L 57.599487 241.799219 
L 58.054503 245.599572 
L 58.206175 246.038301 
L 58.357847 243.046252 
L 58.509519 243.125876 
L 58.661191 241.427667 
L 58.812863 241.423532 
L 58.964535 241.293904 
L 59.116207 242.872429 
L 59.267879 242.786234 
L 59.419551 243.258415 
L 59.722895 245.88779 
L 59.874567 245.590628 
L 60.026239 243.612701 
L 60.177911 247.415615 
L 60.329583 246.737739 
L 60.481255 247.265599 
L 60.632927 246.020932 
L 60.784599 246.83758 
L 60.936271 246.277915 
L 61.087943 247.144781 
L 61.239615 246.703786 
L 61.391287 246.910598 
L 61.542959 245.497572 
L 61.69463 246.589534 
L 61.846302 246.823283 
L 61.997974 246.202923 
L 62.149646 247.551876 
L 62.604662 245.29775 
L 62.908006 240.064897 
L 63.363022 243.753715 
L 63.514694 244.422832 
L 63.666366 244.442724 
L 63.96971 245.495704 
L 64.121382 244.444156 
L 64.273054 244.900596 
L 64.424726 244.353609 
L 64.576398 244.577748 
L 64.72807 244.415862 
L 65.031414 243.078018 
L 65.334758 245.012938 
L 65.48643 244.803107 
L 65.638102 245.017544 
L 65.789774 243.787801 
L 65.941446 244.328574 
L 66.24479 243.862791 
L 66.548134 242.834425 
L 66.851478 243.80592 
L 67.00315 244.85231 
L 67.154822 244.671979 
L 67.609838 247.322934 
L 67.76151 246.318415 
L 67.913182 246.438719 
L 68.064854 245.926697 
L 68.216526 246.924076 
L 68.368198 246.032198 
L 68.51987 245.95708 
L 68.671542 246.048578 
L 68.974886 247.054484 
L 69.126558 246.715006 
L 69.27823 246.816219 
L 69.429902 247.444141 
L 69.581574 247.369493 
L 69.733246 247.113207 
L 69.884917 247.571627 
L 70.188261 247.217054 
L 70.339933 247.112007 
L 70.491605 247.216441 
L 70.794949 246.960368 
L 71.098293 248.217658 
L 71.249965 248.610699 
L 71.401637 248.36209 
L 71.856653 249.4132 
L 72.008325 249.140095 
L 72.159997 247.937915 
L 72.311669 247.912843 
L 72.463341 248.087609 
L 72.615013 247.794114 
L 72.766685 246.976902 
L 72.918357 246.968143 
L 73.070029 247.194414 
L 73.221701 246.686956 
L 73.525045 248.026681 
L 73.676717 248.156605 
L 73.828389 249.072322 
L 73.980061 248.92701 
L 74.131733 249.555816 
L 74.283405 249.538475 
L 74.586749 247.895854 
L 74.738421 248.406308 
L 74.890093 248.405102 
L 75.041765 249.011013 
L 75.496781 247.702384 
L 75.648453 248.237581 
L 75.800125 248.199491 
L 75.951797 248.610506 
L 76.255141 250.066306 
L 76.558485 250.809993 
L 77.316845 249.480333 
L 77.468517 249.355057 
L 77.620189 248.911168 
L 77.771861 249.139086 
L 77.923533 248.796766 
L 78.075204 248.103472 
L 78.226876 248.097526 
L 78.833564 246.977136 
L 78.985236 246.864639 
L 79.440252 247.523486 
L 80.04694 248.260434 
L 80.198612 248.166818 
L 80.501956 248.611601 
L 80.956972 247.363186 
L 81.108644 247.197007 
L 81.411988 247.398083 
L 81.56366 247.415245 
L 81.715332 246.549387 
L 82.018676 246.690507 
L 82.32202 247.386427 
L 82.473692 247.298602 
L 82.625364 247.464117 
L 82.777036 247.413556 
L 82.928708 247.03983 
L 83.08038 247.116415 
L 83.383724 246.755766 
L 83.535396 247.03252 
L 83.83874 246.728743 
L 83.990412 246.846282 
L 84.142084 246.762237 
L 84.748772 247.175919 
L 84.900444 247.342074 
L 85.052116 247.159047 
L 85.203788 247.629004 
L 85.507132 246.097507 
L 86.417163 246.142825 
L 87.023851 244.904906 
L 87.175523 244.836344 
L 87.478867 245.036498 
L 87.630539 244.947376 
L 87.782211 245.178867 
L 88.237227 244.568216 
L 88.388899 243.883835 
L 88.540571 244.267742 
L 88.692243 243.801355 
L 88.843915 243.903406 
L 89.147259 244.714914 
L 89.450603 245.516574 
L 89.602275 245.210281 
L 89.753947 245.554014 
L 90.208963 245.536112 
L 90.360635 245.85987 
L 90.663979 245.932951 
L 90.815651 245.346918 
L 91.118995 245.208957 
L 91.725683 245.907896 
L 91.877355 245.058874 
L 92.180699 245.364408 
L 92.332371 245.207768 
L 92.635715 245.389909 
L 93.697419 246.686507 
L 93.849091 246.285596 
L 94.000763 246.568019 
L 94.152435 246.567851 
L 94.304107 246.400169 
L 94.60745 246.605047 
L 94.910794 246.427664 
L 95.062466 246.735519 
L 95.669154 246.687289 
L 95.972498 247.249974 
L 96.12417 247.36384 
L 96.275842 246.942309 
L 96.579186 247.244754 
L 96.730858 246.950379 
L 97.185874 247.112851 
L 97.64089 246.76059 
L 97.792562 246.440622 
L 98.095906 246.660743 
L 98.247578 246.6166 
L 98.39925 246.347329 
L 98.702594 246.333697 
L 98.854266 246.703465 
L 99.15761 246.338704 
L 99.309282 246.685926 
L 99.460954 246.627998 
L 99.91597 247.595227 
L 100.219314 247.63137 
L 100.522658 248.146554 
L 100.977674 247.577839 
L 101.129346 248.008663 
L 101.43269 247.783737 
L 101.584362 247.874202 
L 102.039378 247.175313 
L 102.342722 247.225978 
L 102.646065 246.984721 
L 102.797737 247.182252 
L 102.949409 247.008381 
L 103.101081 247.036208 
L 103.252753 247.400979 
L 103.404425 246.791911 
L 103.556097 246.694206 
L 103.707769 246.989057 
L 104.162785 247.186363 
L 104.314457 247.224969 
L 104.466129 247.061145 
L 104.617801 247.128239 
L 105.072817 246.098436 
L 105.831177 246.362378 
L 106.286193 247.066553 
L 106.589537 247.194362 
L 106.741209 247.146352 
L 106.892881 247.245136 
L 107.196225 246.937747 
L 107.651241 247.143382 
L 107.802913 246.957564 
L 107.954585 247.235034 
L 108.257929 247.215981 
L 108.712945 247.996231 
L 108.864617 247.957584 
L 109.016289 248.177586 
L 109.167961 247.885762 
L 109.471305 247.883804 
L 109.622977 247.827808 
L 109.774649 248.156849 
L 109.926321 247.911693 
L 110.077993 248.043986 
L 110.381337 247.881925 
L 110.684681 247.953322 
L 110.988024 247.493439 
L 111.44304 247.017125 
L 111.594712 246.815775 
L 111.898056 247.044156 
L 112.049728 246.884427 
L 112.353072 247.060976 
L 112.504744 246.993241 
L 112.656416 247.065126 
L 112.808088 246.973015 
L 112.95976 247.120115 
L 113.263104 246.633847 
L 114.021464 247.5916 
L 114.173136 247.449821 
L 114.324808 247.096671 
L 114.47648 247.22731 
L 114.779824 246.928034 
L 114.931496 246.966286 
L 115.386512 246.208156 
L 115.538184 246.205644 
L 115.689856 245.841669 
L 116.144872 246.121578 
L 116.296544 246.041375 
L 116.448216 246.154611 
L 116.75156 245.917341 
L 117.206576 245.897038 
L 117.661592 246.141615 
L 117.813264 246.104648 
L 118.571624 246.60766 
L 118.874968 246.533057 
L 119.026639 246.552216 
L 119.178311 246.34667 
L 119.329983 246.354067 
L 119.481655 246.568947 
L 119.633327 246.216189 
L 119.784999 246.197706 
L 120.240015 245.850476 
L 120.998375 246.370181 
L 121.301719 246.17399 
L 121.453391 246.375447 
L 121.605063 246.357474 
L 121.756735 246.226631 
L 122.060079 246.402268 
L 122.363423 246.468541 
L 122.515095 246.412833 
L 122.666767 246.59648 
L 122.818439 246.543377 
L 122.970111 246.651041 
L 123.576799 246.243893 
L 124.335159 246.598454 
L 124.486831 246.814548 
L 124.941847 246.633491 
L 125.093519 246.629987 
L 125.245191 246.362325 
L 125.396863 246.554522 
L 125.548535 246.523042 
L 125.700207 246.732983 
L 126.306895 246.745938 
L 126.610239 246.991483 
L 126.913583 246.84547 
L 127.065255 246.938615 
L 127.368598 246.657564 
L 127.52027 246.672681 
L 127.671942 246.807736 
L 127.975286 246.528783 
L 128.27863 246.136588 
L 128.581974 246.451906 
L 129.03699 245.896813 
L 129.188662 246.07615 
L 129.340334 245.946367 
L 129.492006 246.141926 
L 129.643678 246.134652 
L 129.79535 245.956846 
L 130.098694 246.183538 
L 130.55371 246.019774 
L 130.705382 246.066523 
L 130.857054 246.311457 
L 131.008726 246.302993 
L 131.160398 246.425279 
L 131.31207 246.087487 
L 131.615414 246.131815 
L 131.767086 246.234678 
L 132.980462 245.931463 
L 133.132134 245.982784 
L 133.283806 245.902762 
L 133.435478 246.048899 
L 134.042166 245.684052 
L 134.34551 246.04314 
L 134.800526 246.321781 
L 134.952198 246.299984 
L 135.255541 246.444457 
L 135.407213 246.413742 
L 135.558885 246.498683 
L 136.620589 245.989897 
L 137.075605 246.177992 
L 137.378949 246.216989 
L 137.833965 246.207157 
L 138.440653 245.487377 
L 139.957373 245.552416 
L 140.109045 245.391656 
L 140.412389 245.535056 
L 140.715733 245.265324 
L 141.019077 245.446582 
L 141.170749 245.180887 
L 141.625765 245.487018 
L 141.929109 245.55912 
L 142.384125 245.78524 
L 142.687469 245.71289 
L 142.839141 245.784018 
L 142.990813 245.659199 
L 143.294157 245.72456 
L 143.445828 245.730986 
L 143.749172 245.973946 
L 144.052516 246.029281 
L 144.810876 246.211762 
L 144.962548 246.345044 
L 145.265892 246.315436 
L 145.720908 246.379375 
L 145.87258 246.10353 
L 146.479268 246.134654 
L 146.782612 246.050262 
L 147.692644 246.030005 
L 147.844316 245.656631 
L 148.451004 245.778572 
L 148.602676 246.001971 
L 149.512708 245.790086 
L 149.816052 245.720338 
L 149.967724 245.830092 
L 150.271068 245.47313 
L 150.574412 245.397071 
L 151.332772 245.355392 
L 151.484444 245.432604 
L 151.787787 245.289683 
L 152.394475 245.549564 
L 152.849491 245.173359 
L 154.366211 245.702022 
L 154.517883 245.819838 
L 155.124571 245.556289 
L 155.731259 245.667556 
L 156.641291 245.727078 
L 156.792963 245.609037 
L 156.944635 245.640658 
L 157.096307 245.5241 
L 157.247979 245.64228 
L 157.399651 245.456147 
L 157.702995 245.615288 
L 157.854667 245.513671 
L 158.006339 245.573564 
L 158.613027 245.398645 
L 158.916371 245.535887 
L 159.219715 245.488545 
L 159.371387 245.630117 
L 159.674731 245.551669 
L 160.129746 245.602639 
L 160.281418 245.469018 
L 160.43309 245.66703 
L 160.584762 245.529134 
L 160.888106 245.503354 
L 161.494794 245.510973 
L 161.798138 245.354439 
L 162.70817 245.624182 
L 163.011514 245.337343 
L 163.163186 245.369318 
L 163.46653 245.165492 
L 163.769874 245.230445 
L 164.528234 245.230676 
L 164.98325 245.380811 
L 165.286594 245.303933 
L 166.348298 245.497654 
L 166.651642 245.571244 
L 167.106658 245.484377 
L 167.865018 245.546576 
L 168.016689 245.617363 
L 168.168361 245.524954 
L 168.623377 245.712587 
L 168.775049 245.641674 
L 168.926721 245.787203 
L 169.230065 245.70511 
L 169.533409 245.882196 
L 169.685081 245.898982 
L 169.836753 246.049931 
L 169.988425 246.036381 
L 170.140097 245.839237 
L 170.898457 245.894989 
L 171.050129 245.838134 
L 171.353473 245.652464 
L 171.656817 245.702521 
L 172.263505 245.476923 
L 172.415177 245.296838 
L 172.718521 245.405019 
L 173.021865 245.500275 
L 173.173537 245.40051 
L 173.931897 245.522786 
L 174.235241 245.450109 
L 174.386913 245.442135 
L 174.690257 245.604467 
L 174.841929 245.548785 
L 175.600289 245.824944 
L 175.903633 245.781098 
L 176.206976 245.849846 
L 176.661992 245.997458 
L 176.813664 246.060713 
L 176.965336 245.928245 
L 177.26868 245.985125 
L 177.420352 245.756548 
L 177.723696 245.858531 
L 177.875368 245.869621 
L 178.02704 245.767939 
L 178.330384 245.839692 
L 178.633728 245.763052 
L 179.088744 245.719333 
L 179.392088 245.757869 
L 179.695432 245.70968 
L 179.998776 245.733284 
L 180.908808 245.416181 
L 181.06048 245.274087 
L 181.212152 245.418372 
L 181.667168 245.273726 
L 182.122184 245.231355 
L 182.425528 245.104032 
L 183.33556 245.008343 
L 183.638904 244.880714 
L 183.942248 244.943698 
L 184.245592 244.821402 
L 184.397263 244.649116 
L 185.003951 244.75405 
L 185.307295 244.850561 
L 185.610639 244.887649 
L 186.368999 245.07609 
L 186.975687 245.329552 
L 188.492407 245.481172 
L 188.795751 245.563509 
L 189.099095 245.55556 
L 189.402439 245.555991 
L 189.554111 245.395734 
L 190.312471 245.589772 
L 190.767487 245.28318 
L 191.222503 245.414988 
L 191.525847 245.364995 
L 191.677519 245.206648 
L 192.58755 245.346279 
L 192.739222 245.440032 
L 193.042566 245.378898 
L 193.194238 245.407646 
L 193.34591 245.305895 
L 193.649254 245.529556 
L 193.800926 245.458916 
L 194.255942 245.639955 
L 194.86263 245.600715 
L 195.014302 245.683475 
L 195.62099 245.531793 
L 196.37935 245.702535 
L 198.047742 245.413623 
L 199.109446 245.815332 
L 199.867806 245.593478 
L 200.17115 245.608158 
L 201.232853 245.431161 
L 201.384525 245.466625 
L 201.536197 245.63755 
L 201.687869 245.587015 
L 201.839541 245.653884 
L 202.142885 245.635461 
L 202.597901 245.800696 
L 203.962949 245.646794 
L 204.266293 245.732461 
L 204.569637 245.508129 
L 205.024653 245.568315 
L 205.176325 245.552123 
L 205.176325 245.552123 
" style="fill:none;stroke:#1f77b4;stroke-linecap:square;stroke-width:1.5;"/>
   </g>
   <g id="patch_8">
    <path d="M 46.08 317.952 
L 46.08 188.928 
" style="fill:none;stroke:#000000;stroke-linecap:square;stroke-linejoin:miter;stroke-width:0.8;"/>
   </g>
   <g id="patch_9">
    <path d="M 212.75234 317.952 
L 212.75234 188.928 
" style="fill:none;stroke:#000000;stroke-linecap:square;stroke-linejoin:miter;stroke-width:0.8;"/>
   </g>
   <g id="patch_10">
    <path d="M 46.08 317.952 
L 212.75234 317.952 
" style="fill:none;stroke:#000000;stroke-linecap:square;stroke-linejoin:miter;stroke-width:0.8;"/>
   </g>
   <g id="patch_11">
    <path d="M 46.08 188.928 
L 212.75234 188.928 
" style="fill:none;stroke:#000000;stroke-linecap:square;stroke-linejoin:miter;stroke-width:0.8;"/>
   </g>
   <g id="text_28">
    <!-- Demora promedio en cola C1 -->
    <g transform="translate(41.37367 182.928)scale(0.12 -0.12)">
     <use xlink:href="#DejaVuSans-68"/>
     <use x="77.001953" xlink:href="#DejaVuSans-101"/>
     <use x="138.525391" xlink:href="#DejaVuSans-109"/>
     <use x="235.9375" xlink:href="#DejaVuSans-111"/>
     <use x="297.119141" xlink:href="#DejaVuSans-114"/>
     <use x="338.232422" xlink:href="#DejaVuSans-97"/>
     <use x="399.511719" xlink:href="#DejaVuSans-32"/>
     <use x="431.298828" xlink:href="#DejaVuSans-112"/>
     <use x="494.775391" xlink:href="#DejaVuSans-114"/>
     <use x="535.857422" xlink:href="#DejaVuSans-111"/>
     <use x="597.039062" xlink:href="#DejaVuSans-109"/>
     <use x="694.451172" xlink:href="#DejaVuSans-101"/>
     <use x="755.974609" xlink:href="#DejaVuSans-100"/>
     <use x="819.451172" xlink:href="#DejaVuSans-105"/>
     <use x="847.234375" xlink:href="#DejaVuSans-111"/>
     <use x="908.416016" xlink:href="#DejaVuSans-32"/>
     <use x="940.203125" xlink:href="#DejaVuSans-101"/>
     <use x="1001.726562" xlink:href="#DejaVuSans-110"/>
     <use x="1065.105469" xlink:href="#DejaVuSans-32"/>
     <use x="1096.892578" xlink:href="#DejaVuSans-99"/>
     <use x="1151.873047" xlink:href="#DejaVuSans-111"/>
     <use x="1213.054688" xlink:href="#DejaVuSans-108"/>
     <use x="1240.837891" xlink:href="#DejaVuSans-97"/>
     <use x="1302.117188" xlink:href="#DejaVuSans-32"/>
     <use x="1333.904297" xlink:href="#DejaVuSans-67"/>
     <use x="1403.728516" xlink:href="#DejaVuSans-49"/>
    </g>
   </g>
  </g>
  <g id="axes_3">
   <g id="patch_12">
    <path d="M 271.08766 317.952 
L 437.76 317.952 
L 437.76 188.928 
L 271.08766 188.928 
z
" style="fill:#ffffff;"/>
   </g>
   <g id="matplotlib.axis_5">
    <g id="xtick_12">
     <g id="line2d_47">
      <path clip-path="url(#p0ab6ad7828)" d="M 278.512003 317.952 
L 278.512003 188.928 
" style="fill:none;stroke:#b0b0b0;stroke-linecap:square;stroke-width:0.8;"/>
     </g>
     <g id="line2d_48">
      <g>
       <use style="stroke:#000000;stroke-width:0.8;" x="278.512003" xlink:href="#mc441eaaf25" y="317.952"/>
      </g>
     </g>
     <g id="text_29">
      <!-- 0 -->
      <g transform="translate(275.330753 332.550437)scale(0.1 -0.1)">
       <use xlink:href="#DejaVuSans-48"/>
      </g>
     </g>
    </g>
    <g id="xtick_13">
     <g id="line2d_49">
      <path clip-path="url(#p0ab6ad7828)" d="M 316.429998 317.952 
L 316.429998 188.928 
" style="fill:none;stroke:#b0b0b0;stroke-linecap:square;stroke-width:0.8;"/>
     </g>
     <g id="line2d_50">
      <g>
       <use style="stroke:#000000;stroke-width:0.8;" x="316.429998" xlink:href="#mc441eaaf25" y="317.952"/>
      </g>
     </g>
     <g id="text_30">
      <!-- 250 -->
      <g transform="translate(306.886248 332.550437)scale(0.1 -0.1)">
       <use xlink:href="#DejaVuSans-50"/>
       <use x="63.623047" xlink:href="#DejaVuSans-53"/>
       <use x="127.246094" xlink:href="#DejaVuSans-48"/>
      </g>
     </g>
    </g>
    <g id="xtick_14">
     <g id="line2d_51">
      <path clip-path="url(#p0ab6ad7828)" d="M 354.347994 317.952 
L 354.347994 188.928 
" style="fill:none;stroke:#b0b0b0;stroke-linecap:square;stroke-width:0.8;"/>
     </g>
     <g id="line2d_52">
      <g>
       <use style="stroke:#000000;stroke-width:0.8;" x="354.347994" xlink:href="#mc441eaaf25" y="317.952"/>
      </g>
     </g>
     <g id="text_31">
      <!-- 500 -->
      <g transform="translate(344.804244 332.550437)scale(0.1 -0.1)">
       <use xlink:href="#DejaVuSans-53"/>
       <use x="63.623047" xlink:href="#DejaVuSans-48"/>
       <use x="127.246094" xlink:href="#DejaVuSans-48"/>
      </g>
     </g>
    </g>
    <g id="xtick_15">
     <g id="line2d_53">
      <path clip-path="url(#p0ab6ad7828)" d="M 392.265989 317.952 
L 392.265989 188.928 
" style="fill:none;stroke:#b0b0b0;stroke-linecap:square;stroke-width:0.8;"/>
     </g>
     <g id="line2d_54">
      <g>
       <use style="stroke:#000000;stroke-width:0.8;" x="392.265989" xlink:href="#mc441eaaf25" y="317.952"/>
      </g>
     </g>
     <g id="text_32">
      <!-- 750 -->
      <g transform="translate(382.722239 332.550437)scale(0.1 -0.1)">
       <use xlink:href="#DejaVuSans-55"/>
       <use x="63.623047" xlink:href="#DejaVuSans-53"/>
       <use x="127.246094" xlink:href="#DejaVuSans-48"/>
      </g>
     </g>
    </g>
    <g id="xtick_16">
     <g id="line2d_55">
      <path clip-path="url(#p0ab6ad7828)" d="M 430.183985 317.952 
L 430.183985 188.928 
" style="fill:none;stroke:#b0b0b0;stroke-linecap:square;stroke-width:0.8;"/>
     </g>
     <g id="line2d_56">
      <g>
       <use style="stroke:#000000;stroke-width:0.8;" x="430.183985" xlink:href="#mc441eaaf25" y="317.952"/>
      </g>
     </g>
     <g id="text_33">
      <!-- 1000 -->
      <g transform="translate(417.458985 332.550437)scale(0.1 -0.1)">
       <use xlink:href="#DejaVuSans-49"/>
       <use x="63.623047" xlink:href="#DejaVuSans-48"/>
       <use x="127.246094" xlink:href="#DejaVuSans-48"/>
       <use x="190.869141" xlink:href="#DejaVuSans-48"/>
      </g>
     </g>
    </g>
    <g id="text_34">
     <!-- Corridas -->
     <g transform="translate(333.530861 346.228563)scale(0.1 -0.1)">
      <use xlink:href="#DejaVuSans-67"/>
      <use x="69.824219" xlink:href="#DejaVuSans-111"/>
      <use x="131.005859" xlink:href="#DejaVuSans-114"/>
      <use x="172.103516" xlink:href="#DejaVuSans-114"/>
      <use x="213.216797" xlink:href="#DejaVuSans-105"/>
      <use x="241" xlink:href="#DejaVuSans-100"/>
      <use x="304.476562" xlink:href="#DejaVuSans-97"/>
      <use x="365.755859" xlink:href="#DejaVuSans-115"/>
     </g>
    </g>
   </g>
   <g id="matplotlib.axis_6">
    <g id="ytick_12">
     <g id="line2d_57">
      <path clip-path="url(#p0ab6ad7828)" d="M 271.08766 317.778429 
L 437.76 317.778429 
" style="fill:none;stroke:#b0b0b0;stroke-linecap:square;stroke-width:0.8;"/>
     </g>
     <g id="line2d_58">
      <g>
       <use style="stroke:#000000;stroke-width:0.8;" x="271.08766" xlink:href="#mf10d78135c" y="317.778429"/>
      </g>
     </g>
     <g id="text_35">
      <!-- 0.042 -->
      <g transform="translate(235.459535 321.577648)scale(0.1 -0.1)">
       <use xlink:href="#DejaVuSans-48"/>
       <use x="63.623047" xlink:href="#DejaVuSans-46"/>
       <use x="95.410156" xlink:href="#DejaVuSans-48"/>
       <use x="159.033203" xlink:href="#DejaVuSans-52"/>
       <use x="222.65625" xlink:href="#DejaVuSans-50"/>
      </g>
     </g>
    </g>
    <g id="ytick_13">
     <g id="line2d_59">
      <path clip-path="url(#p0ab6ad7828)" d="M 271.08766 293.28071 
L 437.76 293.28071 
" style="fill:none;stroke:#b0b0b0;stroke-linecap:square;stroke-width:0.8;"/>
     </g>
     <g id="line2d_60">
      <g>
       <use style="stroke:#000000;stroke-width:0.8;" x="271.08766" xlink:href="#mf10d78135c" y="293.28071"/>
      </g>
     </g>
     <g id="text_36">
      <!-- 0.044 -->
      <g transform="translate(235.459535 297.079929)scale(0.1 -0.1)">
       <use xlink:href="#DejaVuSans-48"/>
       <use x="63.623047" xlink:href="#DejaVuSans-46"/>
       <use x="95.410156" xlink:href="#DejaVuSans-48"/>
       <use x="159.033203" xlink:href="#DejaVuSans-52"/>
       <use x="222.65625" xlink:href="#DejaVuSans-52"/>
      </g>
     </g>
    </g>
    <g id="ytick_14">
     <g id="line2d_61">
      <path clip-path="url(#p0ab6ad7828)" d="M 271.08766 268.782991 
L 437.76 268.782991 
" style="fill:none;stroke:#b0b0b0;stroke-linecap:square;stroke-width:0.8;"/>
     </g>
     <g id="line2d_62">
      <g>
       <use style="stroke:#000000;stroke-width:0.8;" x="271.08766" xlink:href="#mf10d78135c" y="268.782991"/>
      </g>
     </g>
     <g id="text_37">
      <!-- 0.046 -->
      <g transform="translate(235.459535 272.582209)scale(0.1 -0.1)">
       <use xlink:href="#DejaVuSans-48"/>
       <use x="63.623047" xlink:href="#DejaVuSans-46"/>
       <use x="95.410156" xlink:href="#DejaVuSans-48"/>
       <use x="159.033203" xlink:href="#DejaVuSans-52"/>
       <use x="222.65625" xlink:href="#DejaVuSans-54"/>
      </g>
     </g>
    </g>
    <g id="ytick_15">
     <g id="line2d_63">
      <path clip-path="url(#p0ab6ad7828)" d="M 271.08766 244.285271 
L 437.76 244.285271 
" style="fill:none;stroke:#b0b0b0;stroke-linecap:square;stroke-width:0.8;"/>
     </g>
     <g id="line2d_64">
      <g>
       <use style="stroke:#000000;stroke-width:0.8;" x="271.08766" xlink:href="#mf10d78135c" y="244.285271"/>
      </g>
     </g>
     <g id="text_38">
      <!-- 0.048 -->
      <g transform="translate(235.459535 248.08449)scale(0.1 -0.1)">
       <use xlink:href="#DejaVuSans-48"/>
       <use x="63.623047" xlink:href="#DejaVuSans-46"/>
       <use x="95.410156" xlink:href="#DejaVuSans-48"/>
       <use x="159.033203" xlink:href="#DejaVuSans-52"/>
       <use x="222.65625" xlink:href="#DejaVuSans-56"/>
      </g>
     </g>
    </g>
    <g id="ytick_16">
     <g id="line2d_65">
      <path clip-path="url(#p0ab6ad7828)" d="M 271.08766 219.787552 
L 437.76 219.787552 
" style="fill:none;stroke:#b0b0b0;stroke-linecap:square;stroke-width:0.8;"/>
     </g>
     <g id="line2d_66">
      <g>
       <use style="stroke:#000000;stroke-width:0.8;" x="271.08766" xlink:href="#mf10d78135c" y="219.787552"/>
      </g>
     </g>
     <g id="text_39">
      <!-- 0.050 -->
      <g transform="translate(235.459535 223.58677)scale(0.1 -0.1)">
       <use xlink:href="#DejaVuSans-48"/>
       <use x="63.623047" xlink:href="#DejaVuSans-46"/>
       <use x="95.410156" xlink:href="#DejaVuSans-48"/>
       <use x="159.033203" xlink:href="#DejaVuSans-53"/>
       <use x="222.65625" xlink:href="#DejaVuSans-48"/>
      </g>
     </g>
    </g>
    <g id="ytick_17">
     <g id="line2d_67">
      <path clip-path="url(#p0ab6ad7828)" d="M 271.08766 195.289832 
L 437.76 195.289832 
" style="fill:none;stroke:#b0b0b0;stroke-linecap:square;stroke-width:0.8;"/>
     </g>
     <g id="line2d_68">
      <g>
       <use style="stroke:#000000;stroke-width:0.8;" x="271.08766" xlink:href="#mf10d78135c" y="195.289832"/>
      </g>
     </g>
     <g id="text_40">
      <!-- 0.052 -->
      <g transform="translate(235.459535 199.089051)scale(0.1 -0.1)">
       <use xlink:href="#DejaVuSans-48"/>
       <use x="63.623047" xlink:href="#DejaVuSans-46"/>
       <use x="95.410156" xlink:href="#DejaVuSans-48"/>
       <use x="159.033203" xlink:href="#DejaVuSans-53"/>
       <use x="222.65625" xlink:href="#DejaVuSans-50"/>
      </g>
     </g>
    </g>
    <g id="text_41">
     <!-- Demora -->
     <g transform="translate(229.379847 273.415781)rotate(-90)scale(0.1 -0.1)">
      <use xlink:href="#DejaVuSans-68"/>
      <use x="77.001953" xlink:href="#DejaVuSans-101"/>
      <use x="138.525391" xlink:href="#DejaVuSans-109"/>
      <use x="235.9375" xlink:href="#DejaVuSans-111"/>
      <use x="297.119141" xlink:href="#DejaVuSans-114"/>
      <use x="338.232422" xlink:href="#DejaVuSans-97"/>
     </g>
    </g>
   </g>
   <g id="line2d_69">
    <path clip-path="url(#p0ab6ad7828)" d="M 278.663675 280.622531 
L 278.815347 277.88069 
L 278.967019 194.792727 
L 279.270363 265.255576 
L 279.422035 231.795633 
L 279.877051 275.161133 
L 280.028723 284.01378 
L 280.332067 308.837393 
L 280.483739 293.954361 
L 280.635411 303.514171 
L 280.938755 290.785444 
L 281.090427 290.307969 
L 281.242099 294.170697 
L 281.393771 293.592896 
L 281.697115 310.101173 
L 281.848787 307.586502 
L 282.000459 312.087273 
L 282.152131 310.643488 
L 282.303803 306.45442 
L 282.455475 297.709007 
L 282.607147 298.21205 
L 282.758819 305.151932 
L 283.062163 286.871613 
L 283.365506 284.811426 
L 283.66885 290.552021 
L 283.820522 290.69721 
L 283.972194 290.135784 
L 284.123866 290.950249 
L 284.275538 286.893339 
L 284.42721 287.342447 
L 284.730554 284.822253 
L 284.882226 285.319659 
L 285.033898 281.027874 
L 285.18557 284.599254 
L 285.337242 284.832891 
L 285.488914 286.022082 
L 285.792258 280.434054 
L 285.94393 280.859447 
L 286.247274 276.422186 
L 286.398946 276.53816 
L 286.550618 275.123273 
L 286.70229 278.125422 
L 286.853962 275.833233 
L 287.005634 278.959797 
L 287.308978 276.698301 
L 287.46065 275.396146 
L 287.612322 276.746786 
L 287.763994 272.529684 
L 287.915666 272.242558 
L 288.370682 278.347302 
L 288.522354 275.657132 
L 288.825698 274.469153 
L 288.97737 274.53683 
L 289.280714 271.534323 
L 289.73573 273.648468 
L 289.887402 273.628619 
L 290.039074 271.197447 
L 290.190746 271.921617 
L 290.49409 267.554609 
L 290.797434 268.075594 
L 291.100778 270.433593 
L 291.25245 269.756927 
L 291.404121 269.641078 
L 291.859137 272.146449 
L 292.010809 272.322566 
L 292.162481 272.101958 
L 292.465825 273.703289 
L 292.617497 274.147942 
L 292.769169 271.964931 
L 292.920841 272.755768 
L 293.072513 272.29831 
L 293.224185 272.470095 
L 293.375857 271.181071 
L 293.527529 272.044153 
L 293.679201 271.365861 
L 293.830873 270.010352 
L 293.982545 270.711845 
L 294.134217 272.035598 
L 294.285889 271.793884 
L 294.437561 273.50356 
L 294.892577 272.202055 
L 295.044249 269.621287 
L 295.195921 270.100515 
L 295.347593 270.991749 
L 295.499265 270.906415 
L 295.650937 271.006742 
L 295.954281 272.489138 
L 296.105953 272.543407 
L 296.257625 273.707217 
L 296.409297 272.34827 
L 296.560969 272.831859 
L 296.712641 272.71949 
L 296.864313 273.831347 
L 297.167657 272.957446 
L 297.319329 274.482825 
L 297.471001 274.203459 
L 297.622673 274.999687 
L 297.774345 274.398286 
L 298.077689 274.291265 
L 298.229361 273.354019 
L 298.381033 274.832374 
L 298.532705 274.989561 
L 298.684377 277.174339 
L 298.836049 277.026572 
L 299.139393 279.064345 
L 299.291065 280.973833 
L 299.594408 279.77916 
L 299.74608 281.183784 
L 299.897752 281.278859 
L 300.352768 278.880089 
L 300.959456 277.971198 
L 301.414472 279.983068 
L 301.566144 279.652188 
L 301.717816 279.922325 
L 302.02116 278.544189 
L 302.172832 278.823108 
L 302.324504 278.768793 
L 302.476176 279.069092 
L 302.77952 277.567707 
L 303.082864 278.138793 
L 303.234536 278.352312 
L 303.386208 278.217109 
L 303.53788 278.598448 
L 303.689552 278.267179 
L 303.841224 278.933293 
L 303.992896 278.716136 
L 304.144568 279.133618 
L 304.29624 280.101926 
L 304.599584 280.461989 
L 304.751256 281.039731 
L 304.902928 279.045984 
L 305.0546 278.947199 
L 305.206272 277.590798 
L 305.357944 277.593923 
L 305.509616 276.460574 
L 305.661288 274.293443 
L 305.81296 274.965972 
L 306.116304 273.689308 
L 306.57132 273.998962 
L 306.874664 272.690839 
L 307.026336 272.579334 
L 307.178008 272.743245 
L 307.32968 273.421515 
L 307.481352 272.411393 
L 307.633024 272.286268 
L 307.936367 269.776195 
L 308.088039 269.829232 
L 308.239711 269.480497 
L 308.391383 269.63029 
L 308.543055 270.348051 
L 308.846399 268.832914 
L 308.998071 269.769465 
L 309.149743 269.697384 
L 309.604759 267.839252 
L 309.908103 268.936202 
L 310.059775 268.783342 
L 310.211447 269.333913 
L 310.363119 268.887996 
L 310.969807 269.511302 
L 311.273151 268.637064 
L 311.728167 264.456535 
L 311.879839 264.244196 
L 312.031511 263.321639 
L 312.183183 263.180762 
L 312.638199 262.006316 
L 312.789871 262.219285 
L 312.941543 261.588131 
L 313.396559 258.836431 
L 313.548231 259.618254 
L 313.699903 257.856912 
L 314.003247 257.508683 
L 314.154919 258.535585 
L 314.306591 258.529744 
L 314.458263 259.868051 
L 314.609935 259.339386 
L 315.064951 260.970249 
L 315.216623 261.257478 
L 315.519967 261.306828 
L 315.671639 260.947805 
L 315.823311 259.682617 
L 315.974982 259.442582 
L 316.126654 258.866538 
L 316.429998 260.065206 
L 316.58167 259.587177 
L 316.733342 259.518197 
L 316.885014 257.311853 
L 317.188358 257.154812 
L 317.491702 255.910968 
L 317.795046 255.200345 
L 317.946718 256.026893 
L 318.09839 255.937454 
L 318.250062 256.036647 
L 318.401734 255.102593 
L 318.553406 254.98106 
L 318.705078 255.34334 
L 318.85675 254.134977 
L 319.160094 254.840821 
L 319.311766 253.396862 
L 319.463438 253.690213 
L 319.61511 252.986642 
L 319.766782 253.270033 
L 319.918454 251.833211 
L 320.070126 251.770221 
L 320.221798 251.216271 
L 320.37347 251.100961 
L 320.525142 250.533815 
L 320.676814 250.560526 
L 320.980158 251.491751 
L 321.283502 251.768813 
L 321.586846 251.801811 
L 321.89019 251.289764 
L 322.193534 251.39965 
L 322.345206 250.663811 
L 322.496878 251.046755 
L 322.64855 250.545253 
L 322.951894 250.76805 
L 323.255238 249.981522 
L 323.558582 249.912076 
L 323.710254 249.604778 
L 323.861926 250.633353 
L 324.013598 250.148769 
L 324.316941 250.627071 
L 324.468613 250.714934 
L 324.771957 251.715831 
L 325.075301 252.27344 
L 325.226973 252.161975 
L 325.681989 252.856503 
L 325.985333 253.150829 
L 326.137005 253.500655 
L 326.288677 253.489299 
L 326.440349 252.983941 
L 326.592021 253.394161 
L 326.743693 253.407717 
L 326.895365 252.563161 
L 327.047037 253.030861 
L 327.198709 253.023037 
L 327.502053 253.235648 
L 327.805397 253.091317 
L 327.957069 252.994699 
L 328.108741 253.149099 
L 328.260413 253.784585 
L 328.563757 253.153073 
L 328.715429 253.888854 
L 328.867101 253.579282 
L 329.018773 253.657295 
L 329.170445 254.104956 
L 329.322117 254.020919 
L 329.473789 253.161364 
L 329.625461 253.570522 
L 329.777133 253.367468 
L 330.080477 252.596734 
L 330.687165 253.789551 
L 330.990509 253.543619 
L 331.293853 253.995748 
L 331.597197 254.637997 
L 331.748869 254.334333 
L 332.052213 254.746534 
L 332.203885 254.684467 
L 332.507228 255.519181 
L 332.6589 255.560278 
L 332.810572 255.48175 
L 332.962244 255.569663 
L 333.265588 255.383635 
L 333.41726 255.10123 
L 333.568932 255.661842 
L 333.720604 255.733246 
L 333.872276 255.254733 
L 334.17562 255.635875 
L 334.327292 255.071277 
L 334.478964 255.369489 
L 334.630636 255.342184 
L 334.782308 255.871503 
L 335.085652 255.012986 
L 335.237324 254.857528 
L 335.388996 254.930314 
L 335.69234 254.302372 
L 335.844012 253.691423 
L 336.299028 253.339438 
L 336.4507 252.762407 
L 336.602372 252.645853 
L 336.754044 252.76401 
L 336.905716 253.167109 
L 337.20906 253.040825 
L 337.360732 252.533114 
L 337.512404 252.448271 
L 337.815748 252.020028 
L 337.96742 252.42521 
L 338.422436 252.540602 
L 338.574108 252.286636 
L 338.72578 252.336744 
L 339.180796 253.020586 
L 339.332468 252.945325 
L 339.787484 253.764133 
L 339.939156 254.294366 
L 340.2425 253.831611 
L 340.394172 254.161238 
L 340.545843 254.135326 
L 340.697515 253.720213 
L 341.000859 254.355404 
L 341.152531 254.057538 
L 341.607547 254.693353 
L 342.214235 255.236837 
L 342.517579 255.312241 
L 342.820923 254.995887 
L 342.972595 255.042727 
L 343.275939 255.340548 
L 343.730955 255.052683 
L 344.185971 254.478519 
L 344.489315 254.76442 
L 344.792659 254.789538 
L 344.944331 255.118839 
L 345.247675 254.387266 
L 345.399347 254.633744 
L 345.551019 254.504643 
L 345.854363 253.52833 
L 346.006035 253.740026 
L 346.309379 254.496036 
L 346.461051 254.495644 
L 346.612723 254.726828 
L 346.916067 254.16628 
L 347.067739 254.456351 
L 347.219411 253.936205 
L 347.371083 254.21515 
L 347.522755 254.050581 
L 347.826099 254.488081 
L 347.977771 254.471326 
L 348.129443 254.125986 
L 348.281115 254.211391 
L 348.432787 254.080849 
L 348.584459 253.704146 
L 348.887802 253.691046 
L 349.039474 254.173672 
L 349.191146 253.365735 
L 349.342818 253.438542 
L 349.49449 253.673655 
L 349.797834 253.442128 
L 349.949506 253.008065 
L 350.101178 253.088689 
L 350.25285 252.718989 
L 350.404522 252.868899 
L 350.556194 252.764457 
L 350.707866 253.097972 
L 350.859538 253.073468 
L 351.162882 253.207438 
L 351.617898 253.306299 
L 351.921242 252.192477 
L 352.072914 252.835841 
L 352.52793 252.07695 
L 352.679602 252.285252 
L 352.831274 252.267873 
L 353.134618 252.07726 
L 353.28629 252.077657 
L 353.437962 252.326159 
L 353.589634 252.004121 
L 353.892978 252.146003 
L 354.04465 251.60637 
L 354.347994 251.597792 
L 354.499666 251.894997 
L 354.651338 251.829441 
L 354.80301 251.532927 
L 354.954682 251.555189 
L 355.106354 251.849112 
L 355.409698 251.690205 
L 355.56137 251.847569 
L 355.864714 251.515811 
L 356.016386 251.138388 
L 356.168058 251.456632 
L 356.623074 251.287584 
L 356.774745 251.505956 
L 356.926417 251.438831 
L 357.381433 251.892647 
L 357.533105 251.822814 
L 357.684777 252.00483 
L 357.836449 251.571005 
L 358.139793 251.918192 
L 358.291465 251.998627 
L 358.443137 251.850778 
L 358.594809 252.056453 
L 358.898153 251.996167 
L 359.201497 252.739768 
L 359.504841 252.911987 
L 359.656513 252.928168 
L 359.959857 252.678754 
L 360.111529 252.819857 
L 360.263201 253.295865 
L 360.414873 253.147336 
L 360.566545 253.182827 
L 360.718217 253.51187 
L 360.869889 253.175797 
L 361.021561 253.21404 
L 361.173233 252.827029 
L 361.324905 252.81964 
L 361.628249 252.147368 
L 361.931593 252.601715 
L 362.083265 252.740764 
L 362.234937 252.424087 
L 362.386609 252.896162 
L 362.538281 252.835359 
L 362.841625 253.318792 
L 363.296641 252.443932 
L 363.448313 252.382645 
L 363.599985 252.713791 
L 363.751657 252.594 
L 364.055001 252.970545 
L 364.206673 252.823778 
L 364.510017 253.226376 
L 364.661689 253.179506 
L 364.965032 252.660944 
L 365.116704 252.671964 
L 365.268376 252.851903 
L 365.420048 252.857452 
L 365.57172 252.469006 
L 365.875064 252.851829 
L 366.026736 252.879704 
L 366.178408 252.408749 
L 366.33008 252.652998 
L 366.481752 252.633716 
L 366.785096 253.227028 
L 366.936768 253.125494 
L 367.08844 253.35602 
L 367.391784 253.265957 
L 367.543456 252.966503 
L 367.695128 252.966365 
L 367.8468 253.182791 
L 367.998472 253.18224 
L 368.301816 252.884448 
L 368.756832 253.361284 
L 368.908504 253.242886 
L 369.211848 253.563597 
L 369.515192 253.386502 
L 369.666864 253.013797 
L 369.818536 253.296171 
L 369.970208 253.284685 
L 370.273552 253.073402 
L 370.728568 253.723006 
L 370.88024 253.426013 
L 371.183584 253.692178 
L 371.486928 253.779993 
L 371.790272 253.691195 
L 372.093616 253.942824 
L 372.39696 253.241436 
L 372.700304 253.086171 
L 372.851976 252.777913 
L 373.003648 252.79413 
L 373.306991 252.539843 
L 373.762007 252.415959 
L 374.065351 252.768522 
L 374.368695 252.348792 
L 374.520367 252.668391 
L 374.823711 252.626115 
L 374.975383 252.870637 
L 375.430399 252.27463 
L 375.582071 252.389233 
L 375.885415 252.83641 
L 376.037087 252.716314 
L 376.188759 252.332548 
L 376.340431 252.671094 
L 376.643775 252.520356 
L 376.795447 252.309064 
L 377.402135 253.049605 
L 377.857151 252.228236 
L 378.008823 252.424971 
L 378.160495 252.296985 
L 378.615511 252.856596 
L 378.767183 252.520183 
L 378.918855 252.886875 
L 379.222199 253.1009 
L 379.525543 253.224838 
L 379.677215 253.166266 
L 379.828887 253.318741 
L 380.435575 252.701414 
L 380.890591 253.243441 
L 381.193935 252.991939 
L 381.345606 252.964769 
L 381.497278 253.308413 
L 381.64895 252.988683 
L 382.103966 253.026137 
L 382.255638 253.209443 
L 382.558982 252.5302 
L 382.862326 252.931334 
L 383.013998 252.779726 
L 383.16567 252.808655 
L 383.317342 253.08832 
L 383.620686 253.171216 
L 383.92403 253.547255 
L 384.075702 253.276971 
L 384.68239 253.303603 
L 384.985734 253.51375 
L 385.289078 253.031835 
L 385.44075 253.459813 
L 385.592422 253.106084 
L 385.895766 253.118194 
L 386.19911 253.687889 
L 386.502454 253.796508 
L 386.654126 253.796336 
L 386.95747 252.977282 
L 387.109142 253.184881 
L 387.412486 252.752808 
L 387.71583 252.547134 
L 388.019174 252.036724 
L 388.170846 251.960289 
L 388.47419 251.356473 
L 388.625862 251.526398 
L 388.929206 251.469774 
L 389.23255 251.697072 
L 389.384222 251.429782 
L 389.535893 251.587744 
L 389.839237 251.173594 
L 389.990909 251.292215 
L 390.142581 251.242635 
L 390.294253 251.059435 
L 390.445925 251.105947 
L 391.204285 250.559064 
L 391.355957 250.803093 
L 391.659301 250.865154 
L 391.810973 250.681801 
L 391.962645 250.813825 
L 392.114317 251.136237 
L 392.265989 251.022935 
L 392.569333 251.185308 
L 392.721005 251.237833 
L 393.024349 251.746697 
L 393.176021 251.597952 
L 393.327693 251.971768 
L 393.782709 251.896251 
L 394.086053 252.082895 
L 394.389397 251.703813 
L 394.692741 251.961812 
L 394.996085 252.301571 
L 395.147757 251.985136 
L 395.299429 252.042701 
L 395.602773 252.329629 
L 395.754445 252.154503 
L 396.057789 252.469381 
L 397.271165 252.663798 
L 397.422837 252.318665 
L 397.877852 252.569391 
L 398.029524 252.707095 
L 398.332868 252.684027 
L 398.787884 252.662747 
L 399.394572 253.358821 
L 399.697916 253.650292 
L 400.00126 253.462522 
L 400.607948 254.355456 
L 401.062964 254.33519 
L 401.214636 254.62528 
L 401.366308 254.568576 
L 401.821324 254.849832 
L 402.579684 253.944001 
L 402.731356 254.222651 
L 402.883028 254.211569 
L 403.0347 253.969371 
L 403.338044 254.303069 
L 403.489716 254.043696 
L 403.641388 254.032688 
L 403.79306 253.80962 
L 404.248076 253.979726 
L 404.399748 253.731665 
L 404.854764 254.257474 
L 405.006436 254.07432 
L 405.916467 254.062704 
L 406.068139 253.892287 
L 406.219811 253.949218 
L 406.674827 253.331974 
L 406.978171 253.442026 
L 407.129843 253.461899 
L 407.433187 253.288243 
L 407.584859 253.395374 
L 408.039875 253.242466 
L 408.343219 253.341196 
L 408.646563 253.126759 
L 408.798235 253.26834 
L 409.253251 253.026828 
L 409.404923 252.503889 
L 409.556595 252.596354 
L 409.859939 252.516999 
L 410.011611 252.733792 
L 410.163283 252.676486 
L 410.466627 252.438365 
L 411.073315 253.059378 
L 411.224987 253.026463 
L 411.528331 253.308321 
L 411.680003 253.334036 
L 411.983347 253.60751 
L 412.135019 253.722682 
L 412.286691 253.665832 
L 412.438363 253.443633 
L 412.590035 253.472753 
L 412.741707 253.187515 
L 412.893379 253.30159 
L 413.196723 252.869101 
L 413.500067 253.07743 
L 413.955083 253.23029 
L 414.410098 253.28538 
L 414.56177 253.074875 
L 414.865114 253.403364 
L 415.168458 252.879824 
L 415.32013 252.868383 
L 415.471802 252.657485 
L 415.623474 252.723661 
L 415.775146 252.472806 
L 416.230162 252.910419 
L 416.988522 252.411642 
L 417.140194 252.555124 
L 417.291866 252.376817 
L 417.746882 252.429289 
L 417.898554 252.235283 
L 418.201898 252.244436 
L 418.35357 252.041739 
L 418.505242 252.065665 
L 418.656914 252.25713 
L 418.808586 252.074779 
L 419.263602 252.617799 
L 419.415274 252.551844 
L 419.566946 252.36025 
L 420.021962 252.342003 
L 420.173634 252.177508 
L 420.325306 252.322374 
L 420.62865 252.184756 
L 420.931994 252.185253 
L 421.083666 252.280878 
L 421.235338 252.0262 
L 421.38701 252.179732 
L 421.690354 252.075362 
L 421.842026 252.044044 
L 421.993698 252.177965 
L 422.14537 251.717329 
L 422.448713 251.774326 
L 422.600385 251.669432 
L 423.207073 252.138682 
L 423.510417 252.530006 
L 423.662089 252.483039 
L 423.965433 252.739215 
L 424.268777 252.623313 
L 424.420449 252.813698 
L 424.723793 252.535667 
L 424.875465 252.710415 
L 425.330481 252.222243 
L 425.785497 251.363264 
L 425.937169 251.194735 
L 426.088841 251.276629 
L 426.240513 251.195281 
L 426.543857 251.601651 
L 426.998873 251.159403 
L 427.150545 251.092199 
L 427.453889 251.454317 
L 427.908905 251.476464 
L 428.212249 251.557387 
L 428.363921 251.15492 
L 428.515593 251.181466 
L 428.970609 250.821139 
L 429.273953 250.983497 
L 429.577297 250.631775 
L 429.880641 250.85904 
L 430.183985 250.667939 
L 430.183985 250.667939 
" style="fill:none;stroke:#1f77b4;stroke-linecap:square;stroke-width:1.5;"/>
   </g>
   <g id="patch_13">
    <path d="M 271.08766 317.952 
L 271.08766 188.928 
" style="fill:none;stroke:#000000;stroke-linecap:square;stroke-linejoin:miter;stroke-width:0.8;"/>
   </g>
   <g id="patch_14">
    <path d="M 437.76 317.952 
L 437.76 188.928 
" style="fill:none;stroke:#000000;stroke-linecap:square;stroke-linejoin:miter;stroke-width:0.8;"/>
   </g>
   <g id="patch_15">
    <path d="M 271.08766 317.952 
L 437.76 317.952 
" style="fill:none;stroke:#000000;stroke-linecap:square;stroke-linejoin:miter;stroke-width:0.8;"/>
   </g>
   <g id="patch_16">
    <path d="M 271.08766 188.928 
L 437.76 188.928 
" style="fill:none;stroke:#000000;stroke-linecap:square;stroke-linejoin:miter;stroke-width:0.8;"/>
   </g>
   <g id="text_42">
    <!-- Demora promedio en cola C2 -->
    <g transform="translate(266.38133 182.928)scale(0.12 -0.12)">
     <use xlink:href="#DejaVuSans-68"/>
     <use x="77.001953" xlink:href="#DejaVuSans-101"/>
     <use x="138.525391" xlink:href="#DejaVuSans-109"/>
     <use x="235.9375" xlink:href="#DejaVuSans-111"/>
     <use x="297.119141" xlink:href="#DejaVuSans-114"/>
     <use x="338.232422" xlink:href="#DejaVuSans-97"/>
     <use x="399.511719" xlink:href="#DejaVuSans-32"/>
     <use x="431.298828" xlink:href="#DejaVuSans-112"/>
     <use x="494.775391" xlink:href="#DejaVuSans-114"/>
     <use x="535.857422" xlink:href="#DejaVuSans-111"/>
     <use x="597.039062" xlink:href="#DejaVuSans-109"/>
     <use x="694.451172" xlink:href="#DejaVuSans-101"/>
     <use x="755.974609" xlink:href="#DejaVuSans-100"/>
     <use x="819.451172" xlink:href="#DejaVuSans-105"/>
     <use x="847.234375" xlink:href="#DejaVuSans-111"/>
     <use x="908.416016" xlink:href="#DejaVuSans-32"/>
     <use x="940.203125" xlink:href="#DejaVuSans-101"/>
     <use x="1001.726562" xlink:href="#DejaVuSans-110"/>
     <use x="1065.105469" xlink:href="#DejaVuSans-32"/>
     <use x="1096.892578" xlink:href="#DejaVuSans-99"/>
     <use x="1151.873047" xlink:href="#DejaVuSans-111"/>
     <use x="1213.054688" xlink:href="#DejaVuSans-108"/>
     <use x="1240.837891" xlink:href="#DejaVuSans-97"/>
     <use x="1302.117188" xlink:href="#DejaVuSans-32"/>
     <use x="1333.904297" xlink:href="#DejaVuSans-67"/>
     <use x="1403.728516" xlink:href="#DejaVuSans-50"/>
    </g>
   </g>
  </g>
 </g>
 <defs>
  <clipPath id="pc9c7960ea2">
   <rect height="129.024" width="391.68" x="46.08" y="27.648"/>
  </clipPath>
  <clipPath id="pa06c6e1dc0">
   <rect height="129.024" width="166.67234" x="46.08" y="188.928"/>
  </clipPath>
  <clipPath id="p0ab6ad7828">
   <rect height="129.024" width="166.67234" x="271.08766" y="188.928"/>
  </clipPath>
 </defs>
</svg>
