<?xml version="1.0" encoding="utf-8" standalone="no"?>
<!DOCTYPE svg PUBLIC "-//W3C//DTD SVG 1.1//EN"
  "http://www.w3.org/Graphics/SVG/1.1/DTD/svg11.dtd">
<!-- Created with matplotlib (https://matplotlib.org/) -->
<svg height="345.6pt" version="1.1" viewBox="0 0 460.8 345.6" width="460.8pt" xmlns="http://www.w3.org/2000/svg" xmlns:xlink="http://www.w3.org/1999/xlink">
 <defs>
  <style type="text/css">
*{stroke-linecap:butt;stroke-linejoin:round;}
  </style>
 </defs>
 <g id="figure_1">
  <g id="patch_1">
   <path d="M 0 345.6 
L 460.8 345.6 
L 460.8 0 
L 0 0 
z
" style="fill:#ffffff;"/>
  </g>
  <g id="axes_1">
   <g id="patch_2">
    <path d="M 46.08 156.672 
L 437.76 156.672 
L 437.76 27.648 
L 46.08 27.648 
z
" style="fill:#ffffff;"/>
   </g>
   <g id="matplotlib.axis_1">
    <g id="xtick_1">
     <g id="line2d_1">
      <path clip-path="url(#p893851a201)" d="M 63.527207 156.672 
L 63.527207 27.648 
" style="fill:none;stroke:#b0b0b0;stroke-linecap:square;stroke-width:0.8;"/>
     </g>
     <g id="line2d_2">
      <defs>
       <path d="M 0 0 
L 0 3.5 
" id="mdc803ab8c9" style="stroke:#000000;stroke-width:0.8;"/>
      </defs>
      <g>
       <use style="stroke:#000000;stroke-width:0.8;" x="63.527207" xlink:href="#mdc803ab8c9" y="156.672"/>
      </g>
     </g>
     <g id="text_1">
      <!-- 0 -->
      <defs>
       <path d="M 31.78125 66.40625 
Q 24.171875 66.40625 20.328125 58.90625 
Q 16.5 51.421875 16.5 36.375 
Q 16.5 21.390625 20.328125 13.890625 
Q 24.171875 6.390625 31.78125 6.390625 
Q 39.453125 6.390625 43.28125 13.890625 
Q 47.125 21.390625 47.125 36.375 
Q 47.125 51.421875 43.28125 58.90625 
Q 39.453125 66.40625 31.78125 66.40625 
z
M 31.78125 74.21875 
Q 44.046875 74.21875 50.515625 64.515625 
Q 56.984375 54.828125 56.984375 36.375 
Q 56.984375 17.96875 50.515625 8.265625 
Q 44.046875 -1.421875 31.78125 -1.421875 
Q 19.53125 -1.421875 13.0625 8.265625 
Q 6.59375 17.96875 6.59375 36.375 
Q 6.59375 54.828125 13.0625 64.515625 
Q 19.53125 74.21875 31.78125 74.21875 
z
" id="DejaVuSans-48"/>
      </defs>
      <g transform="translate(60.345957 171.270437)scale(0.1 -0.1)">
       <use xlink:href="#DejaVuSans-48"/>
      </g>
     </g>
    </g>
    <g id="xtick_2">
     <g id="line2d_3">
      <path clip-path="url(#p893851a201)" d="M 134.813038 156.672 
L 134.813038 27.648 
" style="fill:none;stroke:#b0b0b0;stroke-linecap:square;stroke-width:0.8;"/>
     </g>
     <g id="line2d_4">
      <g>
       <use style="stroke:#000000;stroke-width:0.8;" x="134.813038" xlink:href="#mdc803ab8c9" y="156.672"/>
      </g>
     </g>
     <g id="text_2">
      <!-- 200 -->
      <defs>
       <path d="M 19.1875 8.296875 
L 53.609375 8.296875 
L 53.609375 0 
L 7.328125 0 
L 7.328125 8.296875 
Q 12.9375 14.109375 22.625 23.890625 
Q 32.328125 33.6875 34.8125 36.53125 
Q 39.546875 41.84375 41.421875 45.53125 
Q 43.3125 49.21875 43.3125 52.78125 
Q 43.3125 58.59375 39.234375 62.25 
Q 35.15625 65.921875 28.609375 65.921875 
Q 23.96875 65.921875 18.8125 64.3125 
Q 13.671875 62.703125 7.8125 59.421875 
L 7.8125 69.390625 
Q 13.765625 71.78125 18.9375 73 
Q 24.125 74.21875 28.421875 74.21875 
Q 39.75 74.21875 46.484375 68.546875 
Q 53.21875 62.890625 53.21875 53.421875 
Q 53.21875 48.921875 51.53125 44.890625 
Q 49.859375 40.875 45.40625 35.40625 
Q 44.1875 33.984375 37.640625 27.21875 
Q 31.109375 20.453125 19.1875 8.296875 
z
" id="DejaVuSans-50"/>
      </defs>
      <g transform="translate(125.269288 171.270437)scale(0.1 -0.1)">
       <use xlink:href="#DejaVuSans-50"/>
       <use x="63.623047" xlink:href="#DejaVuSans-48"/>
       <use x="127.246094" xlink:href="#DejaVuSans-48"/>
      </g>
     </g>
    </g>
    <g id="xtick_3">
     <g id="line2d_5">
      <path clip-path="url(#p893851a201)" d="M 206.09887 156.672 
L 206.09887 27.648 
" style="fill:none;stroke:#b0b0b0;stroke-linecap:square;stroke-width:0.8;"/>
     </g>
     <g id="line2d_6">
      <g>
       <use style="stroke:#000000;stroke-width:0.8;" x="206.09887" xlink:href="#mdc803ab8c9" y="156.672"/>
      </g>
     </g>
     <g id="text_3">
      <!-- 400 -->
      <defs>
       <path d="M 37.796875 64.3125 
L 12.890625 25.390625 
L 37.796875 25.390625 
z
M 35.203125 72.90625 
L 47.609375 72.90625 
L 47.609375 25.390625 
L 58.015625 25.390625 
L 58.015625 17.1875 
L 47.609375 17.1875 
L 47.609375 0 
L 37.796875 0 
L 37.796875 17.1875 
L 4.890625 17.1875 
L 4.890625 26.703125 
z
" id="DejaVuSans-52"/>
      </defs>
      <g transform="translate(196.55512 171.270437)scale(0.1 -0.1)">
       <use xlink:href="#DejaVuSans-52"/>
       <use x="63.623047" xlink:href="#DejaVuSans-48"/>
       <use x="127.246094" xlink:href="#DejaVuSans-48"/>
      </g>
     </g>
    </g>
    <g id="xtick_4">
     <g id="line2d_7">
      <path clip-path="url(#p893851a201)" d="M 277.384701 156.672 
L 277.384701 27.648 
" style="fill:none;stroke:#b0b0b0;stroke-linecap:square;stroke-width:0.8;"/>
     </g>
     <g id="line2d_8">
      <g>
       <use style="stroke:#000000;stroke-width:0.8;" x="277.384701" xlink:href="#mdc803ab8c9" y="156.672"/>
      </g>
     </g>
     <g id="text_4">
      <!-- 600 -->
      <defs>
       <path d="M 33.015625 40.375 
Q 26.375 40.375 22.484375 35.828125 
Q 18.609375 31.296875 18.609375 23.390625 
Q 18.609375 15.53125 22.484375 10.953125 
Q 26.375 6.390625 33.015625 6.390625 
Q 39.65625 6.390625 43.53125 10.953125 
Q 47.40625 15.53125 47.40625 23.390625 
Q 47.40625 31.296875 43.53125 35.828125 
Q 39.65625 40.375 33.015625 40.375 
z
M 52.59375 71.296875 
L 52.59375 62.3125 
Q 48.875 64.0625 45.09375 64.984375 
Q 41.3125 65.921875 37.59375 65.921875 
Q 27.828125 65.921875 22.671875 59.328125 
Q 17.53125 52.734375 16.796875 39.40625 
Q 19.671875 43.65625 24.015625 45.921875 
Q 28.375 48.1875 33.59375 48.1875 
Q 44.578125 48.1875 50.953125 41.515625 
Q 57.328125 34.859375 57.328125 23.390625 
Q 57.328125 12.15625 50.6875 5.359375 
Q 44.046875 -1.421875 33.015625 -1.421875 
Q 20.359375 -1.421875 13.671875 8.265625 
Q 6.984375 17.96875 6.984375 36.375 
Q 6.984375 53.65625 15.1875 63.9375 
Q 23.390625 74.21875 37.203125 74.21875 
Q 40.921875 74.21875 44.703125 73.484375 
Q 48.484375 72.75 52.59375 71.296875 
z
" id="DejaVuSans-54"/>
      </defs>
      <g transform="translate(267.840951 171.270437)scale(0.1 -0.1)">
       <use xlink:href="#DejaVuSans-54"/>
       <use x="63.623047" xlink:href="#DejaVuSans-48"/>
       <use x="127.246094" xlink:href="#DejaVuSans-48"/>
      </g>
     </g>
    </g>
    <g id="xtick_5">
     <g id="line2d_9">
      <path clip-path="url(#p893851a201)" d="M 348.670532 156.672 
L 348.670532 27.648 
" style="fill:none;stroke:#b0b0b0;stroke-linecap:square;stroke-width:0.8;"/>
     </g>
     <g id="line2d_10">
      <g>
       <use style="stroke:#000000;stroke-width:0.8;" x="348.670532" xlink:href="#mdc803ab8c9" y="156.672"/>
      </g>
     </g>
     <g id="text_5">
      <!-- 800 -->
      <defs>
       <path d="M 31.78125 34.625 
Q 24.75 34.625 20.71875 30.859375 
Q 16.703125 27.09375 16.703125 20.515625 
Q 16.703125 13.921875 20.71875 10.15625 
Q 24.75 6.390625 31.78125 6.390625 
Q 38.8125 6.390625 42.859375 10.171875 
Q 46.921875 13.96875 46.921875 20.515625 
Q 46.921875 27.09375 42.890625 30.859375 
Q 38.875 34.625 31.78125 34.625 
z
M 21.921875 38.8125 
Q 15.578125 40.375 12.03125 44.71875 
Q 8.5 49.078125 8.5 55.328125 
Q 8.5 64.0625 14.71875 69.140625 
Q 20.953125 74.21875 31.78125 74.21875 
Q 42.671875 74.21875 48.875 69.140625 
Q 55.078125 64.0625 55.078125 55.328125 
Q 55.078125 49.078125 51.53125 44.71875 
Q 48 40.375 41.703125 38.8125 
Q 48.828125 37.15625 52.796875 32.3125 
Q 56.78125 27.484375 56.78125 20.515625 
Q 56.78125 9.90625 50.3125 4.234375 
Q 43.84375 -1.421875 31.78125 -1.421875 
Q 19.734375 -1.421875 13.25 4.234375 
Q 6.78125 9.90625 6.78125 20.515625 
Q 6.78125 27.484375 10.78125 32.3125 
Q 14.796875 37.15625 21.921875 38.8125 
z
M 18.3125 54.390625 
Q 18.3125 48.734375 21.84375 45.5625 
Q 25.390625 42.390625 31.78125 42.390625 
Q 38.140625 42.390625 41.71875 45.5625 
Q 45.3125 48.734375 45.3125 54.390625 
Q 45.3125 60.0625 41.71875 63.234375 
Q 38.140625 66.40625 31.78125 66.40625 
Q 25.390625 66.40625 21.84375 63.234375 
Q 18.3125 60.0625 18.3125 54.390625 
z
" id="DejaVuSans-56"/>
      </defs>
      <g transform="translate(339.126782 171.270437)scale(0.1 -0.1)">
       <use xlink:href="#DejaVuSans-56"/>
       <use x="63.623047" xlink:href="#DejaVuSans-48"/>
       <use x="127.246094" xlink:href="#DejaVuSans-48"/>
      </g>
     </g>
    </g>
    <g id="xtick_6">
     <g id="line2d_11">
      <path clip-path="url(#p893851a201)" d="M 419.956364 156.672 
L 419.956364 27.648 
" style="fill:none;stroke:#b0b0b0;stroke-linecap:square;stroke-width:0.8;"/>
     </g>
     <g id="line2d_12">
      <g>
       <use style="stroke:#000000;stroke-width:0.8;" x="419.956364" xlink:href="#mdc803ab8c9" y="156.672"/>
      </g>
     </g>
     <g id="text_6">
      <!-- 1000 -->
      <defs>
       <path d="M 12.40625 8.296875 
L 28.515625 8.296875 
L 28.515625 63.921875 
L 10.984375 60.40625 
L 10.984375 69.390625 
L 28.421875 72.90625 
L 38.28125 72.90625 
L 38.28125 8.296875 
L 54.390625 8.296875 
L 54.390625 0 
L 12.40625 0 
z
" id="DejaVuSans-49"/>
      </defs>
      <g transform="translate(407.231364 171.270437)scale(0.1 -0.1)">
       <use xlink:href="#DejaVuSans-49"/>
       <use x="63.623047" xlink:href="#DejaVuSans-48"/>
       <use x="127.246094" xlink:href="#DejaVuSans-48"/>
       <use x="190.869141" xlink:href="#DejaVuSans-48"/>
      </g>
     </g>
    </g>
    <g id="text_7">
     <!-- Corridas -->
     <defs>
      <path d="M 64.40625 67.28125 
L 64.40625 56.890625 
Q 59.421875 61.53125 53.78125 63.8125 
Q 48.140625 66.109375 41.796875 66.109375 
Q 29.296875 66.109375 22.65625 58.46875 
Q 16.015625 50.828125 16.015625 36.375 
Q 16.015625 21.96875 22.65625 14.328125 
Q 29.296875 6.6875 41.796875 6.6875 
Q 48.140625 6.6875 53.78125 8.984375 
Q 59.421875 11.28125 64.40625 15.921875 
L 64.40625 5.609375 
Q 59.234375 2.09375 53.4375 0.328125 
Q 47.65625 -1.421875 41.21875 -1.421875 
Q 24.65625 -1.421875 15.125 8.703125 
Q 5.609375 18.84375 5.609375 36.375 
Q 5.609375 53.953125 15.125 64.078125 
Q 24.65625 74.21875 41.21875 74.21875 
Q 47.75 74.21875 53.53125 72.484375 
Q 59.328125 70.75 64.40625 67.28125 
z
" id="DejaVuSans-67"/>
      <path d="M 30.609375 48.390625 
Q 23.390625 48.390625 19.1875 42.75 
Q 14.984375 37.109375 14.984375 27.296875 
Q 14.984375 17.484375 19.15625 11.84375 
Q 23.34375 6.203125 30.609375 6.203125 
Q 37.796875 6.203125 41.984375 11.859375 
Q 46.1875 17.53125 46.1875 27.296875 
Q 46.1875 37.015625 41.984375 42.703125 
Q 37.796875 48.390625 30.609375 48.390625 
z
M 30.609375 56 
Q 42.328125 56 49.015625 48.375 
Q 55.71875 40.765625 55.71875 27.296875 
Q 55.71875 13.875 49.015625 6.21875 
Q 42.328125 -1.421875 30.609375 -1.421875 
Q 18.84375 -1.421875 12.171875 6.21875 
Q 5.515625 13.875 5.515625 27.296875 
Q 5.515625 40.765625 12.171875 48.375 
Q 18.84375 56 30.609375 56 
z
" id="DejaVuSans-111"/>
      <path d="M 41.109375 46.296875 
Q 39.59375 47.171875 37.8125 47.578125 
Q 36.03125 48 33.890625 48 
Q 26.265625 48 22.1875 43.046875 
Q 18.109375 38.09375 18.109375 28.8125 
L 18.109375 0 
L 9.078125 0 
L 9.078125 54.6875 
L 18.109375 54.6875 
L 18.109375 46.1875 
Q 20.953125 51.171875 25.484375 53.578125 
Q 30.03125 56 36.53125 56 
Q 37.453125 56 38.578125 55.875 
Q 39.703125 55.765625 41.0625 55.515625 
z
" id="DejaVuSans-114"/>
      <path d="M 9.421875 54.6875 
L 18.40625 54.6875 
L 18.40625 0 
L 9.421875 0 
z
M 9.421875 75.984375 
L 18.40625 75.984375 
L 18.40625 64.59375 
L 9.421875 64.59375 
z
" id="DejaVuSans-105"/>
      <path d="M 45.40625 46.390625 
L 45.40625 75.984375 
L 54.390625 75.984375 
L 54.390625 0 
L 45.40625 0 
L 45.40625 8.203125 
Q 42.578125 3.328125 38.25 0.953125 
Q 33.9375 -1.421875 27.875 -1.421875 
Q 17.96875 -1.421875 11.734375 6.484375 
Q 5.515625 14.40625 5.515625 27.296875 
Q 5.515625 40.1875 11.734375 48.09375 
Q 17.96875 56 27.875 56 
Q 33.9375 56 38.25 53.625 
Q 42.578125 51.265625 45.40625 46.390625 
z
M 14.796875 27.296875 
Q 14.796875 17.390625 18.875 11.75 
Q 22.953125 6.109375 30.078125 6.109375 
Q 37.203125 6.109375 41.296875 11.75 
Q 45.40625 17.390625 45.40625 27.296875 
Q 45.40625 37.203125 41.296875 42.84375 
Q 37.203125 48.484375 30.078125 48.484375 
Q 22.953125 48.484375 18.875 42.84375 
Q 14.796875 37.203125 14.796875 27.296875 
z
" id="DejaVuSans-100"/>
      <path d="M 34.28125 27.484375 
Q 23.390625 27.484375 19.1875 25 
Q 14.984375 22.515625 14.984375 16.5 
Q 14.984375 11.71875 18.140625 8.90625 
Q 21.296875 6.109375 26.703125 6.109375 
Q 34.1875 6.109375 38.703125 11.40625 
Q 43.21875 16.703125 43.21875 25.484375 
L 43.21875 27.484375 
z
M 52.203125 31.203125 
L 52.203125 0 
L 43.21875 0 
L 43.21875 8.296875 
Q 40.140625 3.328125 35.546875 0.953125 
Q 30.953125 -1.421875 24.3125 -1.421875 
Q 15.921875 -1.421875 10.953125 3.296875 
Q 6 8.015625 6 15.921875 
Q 6 25.140625 12.171875 29.828125 
Q 18.359375 34.515625 30.609375 34.515625 
L 43.21875 34.515625 
L 43.21875 35.40625 
Q 43.21875 41.609375 39.140625 45 
Q 35.0625 48.390625 27.6875 48.390625 
Q 23 48.390625 18.546875 47.265625 
Q 14.109375 46.140625 10.015625 43.890625 
L 10.015625 52.203125 
Q 14.9375 54.109375 19.578125 55.046875 
Q 24.21875 56 28.609375 56 
Q 40.484375 56 46.34375 49.84375 
Q 52.203125 43.703125 52.203125 31.203125 
z
" id="DejaVuSans-97"/>
      <path d="M 44.28125 53.078125 
L 44.28125 44.578125 
Q 40.484375 46.53125 36.375 47.5 
Q 32.28125 48.484375 27.875 48.484375 
Q 21.1875 48.484375 17.84375 46.4375 
Q 14.5 44.390625 14.5 40.28125 
Q 14.5 37.15625 16.890625 35.375 
Q 19.28125 33.59375 26.515625 31.984375 
L 29.59375 31.296875 
Q 39.15625 29.25 43.1875 25.515625 
Q 47.21875 21.78125 47.21875 15.09375 
Q 47.21875 7.46875 41.1875 3.015625 
Q 35.15625 -1.421875 24.609375 -1.421875 
Q 20.21875 -1.421875 15.453125 -0.5625 
Q 10.6875 0.296875 5.421875 2 
L 5.421875 11.28125 
Q 10.40625 8.6875 15.234375 7.390625 
Q 20.0625 6.109375 24.8125 6.109375 
Q 31.15625 6.109375 34.5625 8.28125 
Q 37.984375 10.453125 37.984375 14.40625 
Q 37.984375 18.0625 35.515625 20.015625 
Q 33.0625 21.96875 24.703125 23.78125 
L 21.578125 24.515625 
Q 13.234375 26.265625 9.515625 29.90625 
Q 5.8125 33.546875 5.8125 39.890625 
Q 5.8125 47.609375 11.28125 51.796875 
Q 16.75 56 26.8125 56 
Q 31.78125 56 36.171875 55.265625 
Q 40.578125 54.546875 44.28125 53.078125 
z
" id="DejaVuSans-115"/>
     </defs>
     <g transform="translate(221.027031 184.948562)scale(0.1 -0.1)">
      <use xlink:href="#DejaVuSans-67"/>
      <use x="69.824219" xlink:href="#DejaVuSans-111"/>
      <use x="131.005859" xlink:href="#DejaVuSans-114"/>
      <use x="172.103516" xlink:href="#DejaVuSans-114"/>
      <use x="213.216797" xlink:href="#DejaVuSans-105"/>
      <use x="241" xlink:href="#DejaVuSans-100"/>
      <use x="304.476562" xlink:href="#DejaVuSans-97"/>
      <use x="365.755859" xlink:href="#DejaVuSans-115"/>
     </g>
    </g>
   </g>
   <g id="matplotlib.axis_2">
    <g id="ytick_1">
     <g id="line2d_13">
      <path clip-path="url(#p893851a201)" d="M 46.08 150.807273 
L 437.76 150.807273 
" style="fill:none;stroke:#b0b0b0;stroke-linecap:square;stroke-width:0.8;"/>
     </g>
     <g id="line2d_14">
      <defs>
       <path d="M 0 0 
L -3.5 0 
" id="mcc57d30b54" style="stroke:#000000;stroke-width:0.8;"/>
      </defs>
      <g>
       <use style="stroke:#000000;stroke-width:0.8;" x="46.08" xlink:href="#mcc57d30b54" y="150.807273"/>
      </g>
     </g>
     <g id="text_8">
      <!-- 0.00000 -->
      <defs>
       <path d="M 10.6875 12.40625 
L 21 12.40625 
L 21 0 
L 10.6875 0 
z
" id="DejaVuSans-46"/>
      </defs>
      <g transform="translate(-2.273125 154.606491)scale(0.1 -0.1)">
       <use xlink:href="#DejaVuSans-48"/>
       <use x="63.623047" xlink:href="#DejaVuSans-46"/>
       <use x="95.410156" xlink:href="#DejaVuSans-48"/>
       <use x="159.033203" xlink:href="#DejaVuSans-48"/>
       <use x="222.65625" xlink:href="#DejaVuSans-48"/>
       <use x="286.279297" xlink:href="#DejaVuSans-48"/>
       <use x="349.902344" xlink:href="#DejaVuSans-48"/>
      </g>
     </g>
    </g>
    <g id="ytick_2">
     <g id="line2d_15">
      <path clip-path="url(#p893851a201)" d="M 46.08 121.570592 
L 437.76 121.570592 
" style="fill:none;stroke:#b0b0b0;stroke-linecap:square;stroke-width:0.8;"/>
     </g>
     <g id="line2d_16">
      <g>
       <use style="stroke:#000000;stroke-width:0.8;" x="46.08" xlink:href="#mcc57d30b54" y="121.570592"/>
      </g>
     </g>
     <g id="text_9">
      <!-- 0.00001 -->
      <g transform="translate(-2.273125 125.369811)scale(0.1 -0.1)">
       <use xlink:href="#DejaVuSans-48"/>
       <use x="63.623047" xlink:href="#DejaVuSans-46"/>
       <use x="95.410156" xlink:href="#DejaVuSans-48"/>
       <use x="159.033203" xlink:href="#DejaVuSans-48"/>
       <use x="222.65625" xlink:href="#DejaVuSans-48"/>
       <use x="286.279297" xlink:href="#DejaVuSans-48"/>
       <use x="349.902344" xlink:href="#DejaVuSans-49"/>
      </g>
     </g>
    </g>
    <g id="ytick_3">
     <g id="line2d_17">
      <path clip-path="url(#p893851a201)" d="M 46.08 92.333911 
L 437.76 92.333911 
" style="fill:none;stroke:#b0b0b0;stroke-linecap:square;stroke-width:0.8;"/>
     </g>
     <g id="line2d_18">
      <g>
       <use style="stroke:#000000;stroke-width:0.8;" x="46.08" xlink:href="#mcc57d30b54" y="92.333911"/>
      </g>
     </g>
     <g id="text_10">
      <!-- 0.00002 -->
      <g transform="translate(-2.273125 96.13313)scale(0.1 -0.1)">
       <use xlink:href="#DejaVuSans-48"/>
       <use x="63.623047" xlink:href="#DejaVuSans-46"/>
       <use x="95.410156" xlink:href="#DejaVuSans-48"/>
       <use x="159.033203" xlink:href="#DejaVuSans-48"/>
       <use x="222.65625" xlink:href="#DejaVuSans-48"/>
       <use x="286.279297" xlink:href="#DejaVuSans-48"/>
       <use x="349.902344" xlink:href="#DejaVuSans-50"/>
      </g>
     </g>
    </g>
    <g id="ytick_4">
     <g id="line2d_19">
      <path clip-path="url(#p893851a201)" d="M 46.08 63.09723 
L 437.76 63.09723 
" style="fill:none;stroke:#b0b0b0;stroke-linecap:square;stroke-width:0.8;"/>
     </g>
     <g id="line2d_20">
      <g>
       <use style="stroke:#000000;stroke-width:0.8;" x="46.08" xlink:href="#mcc57d30b54" y="63.09723"/>
      </g>
     </g>
     <g id="text_11">
      <!-- 0.00003 -->
      <defs>
       <path d="M 40.578125 39.3125 
Q 47.65625 37.796875 51.625 33 
Q 55.609375 28.21875 55.609375 21.1875 
Q 55.609375 10.40625 48.1875 4.484375 
Q 40.765625 -1.421875 27.09375 -1.421875 
Q 22.515625 -1.421875 17.65625 -0.515625 
Q 12.796875 0.390625 7.625 2.203125 
L 7.625 11.71875 
Q 11.71875 9.328125 16.59375 8.109375 
Q 21.484375 6.890625 26.8125 6.890625 
Q 36.078125 6.890625 40.9375 10.546875 
Q 45.796875 14.203125 45.796875 21.1875 
Q 45.796875 27.640625 41.28125 31.265625 
Q 36.765625 34.90625 28.71875 34.90625 
L 20.21875 34.90625 
L 20.21875 43.015625 
L 29.109375 43.015625 
Q 36.375 43.015625 40.234375 45.921875 
Q 44.09375 48.828125 44.09375 54.296875 
Q 44.09375 59.90625 40.109375 62.90625 
Q 36.140625 65.921875 28.71875 65.921875 
Q 24.65625 65.921875 20.015625 65.03125 
Q 15.375 64.15625 9.8125 62.3125 
L 9.8125 71.09375 
Q 15.4375 72.65625 20.34375 73.4375 
Q 25.25 74.21875 29.59375 74.21875 
Q 40.828125 74.21875 47.359375 69.109375 
Q 53.90625 64.015625 53.90625 55.328125 
Q 53.90625 49.265625 50.4375 45.09375 
Q 46.96875 40.921875 40.578125 39.3125 
z
" id="DejaVuSans-51"/>
      </defs>
      <g transform="translate(-2.273125 66.896449)scale(0.1 -0.1)">
       <use xlink:href="#DejaVuSans-48"/>
       <use x="63.623047" xlink:href="#DejaVuSans-46"/>
       <use x="95.410156" xlink:href="#DejaVuSans-48"/>
       <use x="159.033203" xlink:href="#DejaVuSans-48"/>
       <use x="222.65625" xlink:href="#DejaVuSans-48"/>
       <use x="286.279297" xlink:href="#DejaVuSans-48"/>
       <use x="349.902344" xlink:href="#DejaVuSans-51"/>
      </g>
     </g>
    </g>
    <g id="ytick_5">
     <g id="line2d_21">
      <path clip-path="url(#p893851a201)" d="M 46.08 33.86055 
L 437.76 33.86055 
" style="fill:none;stroke:#b0b0b0;stroke-linecap:square;stroke-width:0.8;"/>
     </g>
     <g id="line2d_22">
      <g>
       <use style="stroke:#000000;stroke-width:0.8;" x="46.08" xlink:href="#mcc57d30b54" y="33.86055"/>
      </g>
     </g>
     <g id="text_12">
      <!-- 0.00004 -->
      <g transform="translate(-2.273125 37.659768)scale(0.1 -0.1)">
       <use xlink:href="#DejaVuSans-48"/>
       <use x="63.623047" xlink:href="#DejaVuSans-46"/>
       <use x="95.410156" xlink:href="#DejaVuSans-48"/>
       <use x="159.033203" xlink:href="#DejaVuSans-48"/>
       <use x="222.65625" xlink:href="#DejaVuSans-48"/>
       <use x="286.279297" xlink:href="#DejaVuSans-48"/>
       <use x="349.902344" xlink:href="#DejaVuSans-52"/>
      </g>
     </g>
    </g>
    <g id="text_13">
     <!-- Número -->
     <defs>
      <path d="M 9.8125 72.90625 
L 23.09375 72.90625 
L 55.421875 11.921875 
L 55.421875 72.90625 
L 64.984375 72.90625 
L 64.984375 0 
L 51.703125 0 
L 19.390625 60.984375 
L 19.390625 0 
L 9.8125 0 
z
" id="DejaVuSans-78"/>
      <path d="M 8.5 21.578125 
L 8.5 54.6875 
L 17.484375 54.6875 
L 17.484375 21.921875 
Q 17.484375 14.15625 20.5 10.265625 
Q 23.53125 6.390625 29.59375 6.390625 
Q 36.859375 6.390625 41.078125 11.03125 
Q 45.3125 15.671875 45.3125 23.6875 
L 45.3125 54.6875 
L 54.296875 54.6875 
L 54.296875 0 
L 45.3125 0 
L 45.3125 8.40625 
Q 42.046875 3.421875 37.71875 1 
Q 33.40625 -1.421875 27.6875 -1.421875 
Q 18.265625 -1.421875 13.375 4.4375 
Q 8.5 10.296875 8.5 21.578125 
z
M 31.109375 56 
z
M 37.78125 79.984375 
L 47.5 79.984375 
L 31.59375 61.625 
L 24.109375 61.625 
z
" id="DejaVuSans-250"/>
      <path d="M 52 44.1875 
Q 55.375 50.25 60.0625 53.125 
Q 64.75 56 71.09375 56 
Q 79.640625 56 84.28125 50.015625 
Q 88.921875 44.046875 88.921875 33.015625 
L 88.921875 0 
L 79.890625 0 
L 79.890625 32.71875 
Q 79.890625 40.578125 77.09375 44.375 
Q 74.3125 48.1875 68.609375 48.1875 
Q 61.625 48.1875 57.5625 43.546875 
Q 53.515625 38.921875 53.515625 30.90625 
L 53.515625 0 
L 44.484375 0 
L 44.484375 32.71875 
Q 44.484375 40.625 41.703125 44.40625 
Q 38.921875 48.1875 33.109375 48.1875 
Q 26.21875 48.1875 22.15625 43.53125 
Q 18.109375 38.875 18.109375 30.90625 
L 18.109375 0 
L 9.078125 0 
L 9.078125 54.6875 
L 18.109375 54.6875 
L 18.109375 46.1875 
Q 21.1875 51.21875 25.484375 53.609375 
Q 29.78125 56 35.6875 56 
Q 41.65625 56 45.828125 52.96875 
Q 50 49.953125 52 44.1875 
z
" id="DejaVuSans-109"/>
      <path d="M 56.203125 29.59375 
L 56.203125 25.203125 
L 14.890625 25.203125 
Q 15.484375 15.921875 20.484375 11.0625 
Q 25.484375 6.203125 34.421875 6.203125 
Q 39.59375 6.203125 44.453125 7.46875 
Q 49.3125 8.734375 54.109375 11.28125 
L 54.109375 2.78125 
Q 49.265625 0.734375 44.1875 -0.34375 
Q 39.109375 -1.421875 33.890625 -1.421875 
Q 20.796875 -1.421875 13.15625 6.1875 
Q 5.515625 13.8125 5.515625 26.8125 
Q 5.515625 40.234375 12.765625 48.109375 
Q 20.015625 56 32.328125 56 
Q 43.359375 56 49.78125 48.890625 
Q 56.203125 41.796875 56.203125 29.59375 
z
M 47.21875 32.234375 
Q 47.125 39.59375 43.09375 43.984375 
Q 39.0625 48.390625 32.421875 48.390625 
Q 24.90625 48.390625 20.390625 44.140625 
Q 15.875 39.890625 15.1875 32.171875 
z
" id="DejaVuSans-101"/>
     </defs>
     <g transform="translate(-8.352813 112.129531)rotate(-90)scale(0.1 -0.1)">
      <use xlink:href="#DejaVuSans-78"/>
      <use x="74.804688" xlink:href="#DejaVuSans-250"/>
      <use x="138.183594" xlink:href="#DejaVuSans-109"/>
      <use x="235.595703" xlink:href="#DejaVuSans-101"/>
      <use x="297.119141" xlink:href="#DejaVuSans-114"/>
      <use x="338.201172" xlink:href="#DejaVuSans-111"/>
     </g>
    </g>
   </g>
   <g id="line2d_23">
    <path clip-path="url(#p893851a201)" d="M 63.883636 150.807273 
L 64.240066 150.807273 
L 64.596495 33.512727 
L 64.952924 62.836364 
L 65.309353 80.430545 
L 66.022211 100.538182 
L 66.73507 111.709091 
L 67.447928 118.817851 
L 68.160786 123.739301 
L 68.873645 127.348364 
L 69.586503 130.108235 
L 70.65579 133.213091 
L 71.725078 135.507984 
L 72.794365 137.273287 
L 73.150794 125.143376 
L 73.507224 126.059944 
L 73.863653 124.065618 
L 74.93294 126.572648 
L 76.358657 129.265384 
L 77.784373 131.419573 
L 78.853661 132.772203 
L 79.21009 132.62281 
L 79.566519 133.026909 
L 79.922948 128.033161 
L 80.992236 129.427494 
L 81.348665 129.180755 
L 82.061523 130.012544 
L 82.417952 101.27286 
L 82.774382 100.29674 
L 83.48724 102.100688 
L 83.843669 98.423222 
L 84.200098 98.514556 
L 85.982244 102.664771 
L 87.76439 106.204661 
L 88.120819 106.851076 
L 88.477248 103.572869 
L 89.190106 104.884936 
L 89.546536 101.538971 
L 89.902965 102.204759 
L 90.259394 101.313263 
L 92.04154 104.406638 
L 94.180115 107.643892 
L 96.31869 110.458895 
L 98.457265 112.929204 
L 100.952269 115.454408 
L 101.308698 114.256945 
L 103.803702 116.521125 
L 104.160131 116.821881 
L 104.51656 114.799373 
L 105.942277 116.009722 
L 106.298706 115.811164 
L 108.437281 117.477645 
L 108.79371 114.470741 
L 111.645143 116.624017 
L 113.07086 117.607708 
L 113.427289 117.278548 
L 116.635152 119.303773 
L 120.199443 121.285126 
L 120.555872 121.238263 
L 121.62516 121.782478 
L 121.981589 121.617113 
L 125.189451 123.135676 
L 125.90231 123.388219 
L 126.615168 123.698038 
L 126.971597 121.667337 
L 128.397314 122.307775 
L 128.753743 122.305285 
L 132.318034 123.782072 
L 132.674464 123.441421 
L 134.456609 124.129005 
L 134.813038 118.302712 
L 135.169468 118.464426 
L 135.525897 118.360553 
L 136.951613 118.928348 
L 137.308043 118.6235 
L 139.446618 119.432161 
L 143.010909 120.78708 
L 143.723767 121.053926 
L 144.080197 118.612475 
L 146.575201 119.55989 
L 146.93163 117.663587 
L 147.288059 117.804624 
L 147.644488 117.661289 
L 148.713776 118.077348 
L 149.070205 115.908867 
L 149.426634 115.389016 
L 152.990925 116.800102 
L 153.347355 112.225489 
L 157.268075 113.839176 
L 157.624505 113.393536 
L 158.693792 113.813915 
L 159.050221 112.596025 
L 164.396658 114.621356 
L 164.753088 114.748771 
L 165.109517 113.995841 
L 166.891663 114.630521 
L 167.248092 113.959789 
L 170.099525 114.945675 
L 170.455954 113.094462 
L 170.812383 113.219754 
L 171.168812 112.484388 
L 176.871679 114.412584 
L 177.228108 113.914062 
L 177.584537 114.029353 
L 177.940966 114.015754 
L 179.723112 114.580041 
L 180.079541 114.394276 
L 181.861687 114.942665 
L 182.218116 114.810829 
L 183.287404 115.132226 
L 183.643833 112.581501 
L 185.782408 113.250174 
L 186.138837 113.066091 
L 189.703129 114.132226 
L 190.059558 113.782915 
L 191.841704 114.297142 
L 192.198133 113.76297 
L 193.980278 114.26904 
L 194.336708 113.838705 
L 195.049566 114.039077 
L 195.405995 113.704022 
L 200.396003 115.025041 
L 201.108862 114.876804 
L 207.168157 116.392481 
L 207.524586 116.224767 
L 208.950303 116.563812 
L 209.306732 116.084033 
L 211.801736 116.663774 
L 212.158165 116.221616 
L 217.504603 117.422506 
L 218.217461 117.278921 
L 221.425324 117.960084 
L 221.781753 117.56364 
L 227.841048 118.789544 
L 228.197477 117.110282 
L 235.326061 118.458029 
L 236.751777 118.724277 
L 237.108206 118.299936 
L 238.890352 118.630295 
L 239.246781 118.214365 
L 239.60321 117.064032 
L 241.028927 117.335062 
L 241.385356 117.210269 
L 242.098215 117.344389 
L 242.454644 117.015656 
L 253.147518 118.921198 
L 254.573235 119.159154 
L 254.929664 118.533139 
L 262.058247 119.626092 
L 262.771106 119.674666 
L 269.18683 120.590162 
L 269.54326 120.102447 
L 273.107551 120.573667 
L 273.82041 120.620109 
L 277.028272 121.073672 
L 277.384701 120.12682 
L 280.948993 120.629779 
L 281.305422 120.473252 
L 285.939001 121.105211 
L 286.29543 120.704272 
L 290.216151 121.12166 
L 294.493301 121.671393 
L 294.84973 121.589807 
L 300.909025 122.251567 
L 301.265455 122.045921 
L 306.611892 122.678502 
L 306.968321 122.210961 
L 311.245471 122.70471 
L 311.6019 122.369688 
L 311.958329 122.410488 
L 312.314758 121.946511 
L 314.809762 122.233071 
L 315.166192 122.135538 
L 320.869058 122.682057 
L 322.294775 122.801799 
L 323.364062 122.917048 
L 324.076921 122.882143 
L 324.43335 122.920292 
L 324.789779 122.710737 
L 326.571925 122.901093 
L 326.928354 122.558663 
L 331.561933 123.047003 
L 331.918362 121.810574 
L 334.413366 121.982416 
L 343.324095 122.869551 
L 343.680524 122.763104 
L 345.46267 122.940374 
L 345.819099 122.853355 
L 347.601245 123.010072 
L 347.957674 122.41309 
L 356.868403 123.260194 
L 357.224832 122.821851 
L 357.581261 122.615924 
L 361.858411 123.020101 
L 362.21484 122.783791 
L 368.986994 123.405082 
L 369.343423 122.685388 
L 372.907715 122.917679 
L 373.977002 122.964222 
L 381.105586 123.544742 
L 381.818444 123.550083 
L 384.669877 123.693959 
L 385.382735 123.643388 
L 391.085602 124.1016 
L 391.442031 123.84668 
L 393.937035 124.050266 
L 394.293464 123.670584 
L 394.649894 122.774663 
L 395.719181 122.864896 
L 396.07561 122.668029 
L 403.917052 123.244861 
L 405.342768 123.327092 
L 407.481343 123.497954 
L 407.837772 123.0979 
L 408.550631 123.047616 
L 408.90706 122.450987 
L 411.758493 122.683178 
L 412.114922 122.540787 
L 415.322785 122.798537 
L 416.392072 122.602988 
L 419.956364 122.88503 
L 419.956364 122.88503 
" style="fill:none;stroke:#1f77b4;stroke-linecap:square;stroke-width:1.5;"/>
   </g>
   <g id="patch_3">
    <path d="M 46.08 156.672 
L 46.08 27.648 
" style="fill:none;stroke:#000000;stroke-linecap:square;stroke-linejoin:miter;stroke-width:0.8;"/>
   </g>
   <g id="patch_4">
    <path d="M 437.76 156.672 
L 437.76 27.648 
" style="fill:none;stroke:#000000;stroke-linecap:square;stroke-linejoin:miter;stroke-width:0.8;"/>
   </g>
   <g id="patch_5">
    <path d="M 46.08 156.672 
L 437.76 156.672 
" style="fill:none;stroke:#000000;stroke-linecap:square;stroke-linejoin:miter;stroke-width:0.8;"/>
   </g>
   <g id="patch_6">
    <path d="M 46.08 27.648 
L 437.76 27.648 
" style="fill:none;stroke:#000000;stroke-linecap:square;stroke-linejoin:miter;stroke-width:0.8;"/>
   </g>
   <g id="text_14">
    <!-- Número promedio de clientes en cola A -->
    <defs>
     <path id="DejaVuSans-32"/>
     <path d="M 18.109375 8.203125 
L 18.109375 -20.796875 
L 9.078125 -20.796875 
L 9.078125 54.6875 
L 18.109375 54.6875 
L 18.109375 46.390625 
Q 20.953125 51.265625 25.265625 53.625 
Q 29.59375 56 35.59375 56 
Q 45.5625 56 51.78125 48.09375 
Q 58.015625 40.1875 58.015625 27.296875 
Q 58.015625 14.40625 51.78125 6.484375 
Q 45.5625 -1.421875 35.59375 -1.421875 
Q 29.59375 -1.421875 25.265625 0.953125 
Q 20.953125 3.328125 18.109375 8.203125 
z
M 48.6875 27.296875 
Q 48.6875 37.203125 44.609375 42.84375 
Q 40.53125 48.484375 33.40625 48.484375 
Q 26.265625 48.484375 22.1875 42.84375 
Q 18.109375 37.203125 18.109375 27.296875 
Q 18.109375 17.390625 22.1875 11.75 
Q 26.265625 6.109375 33.40625 6.109375 
Q 40.53125 6.109375 44.609375 11.75 
Q 48.6875 17.390625 48.6875 27.296875 
z
" id="DejaVuSans-112"/>
     <path d="M 48.78125 52.59375 
L 48.78125 44.1875 
Q 44.96875 46.296875 41.140625 47.34375 
Q 37.3125 48.390625 33.40625 48.390625 
Q 24.65625 48.390625 19.8125 42.84375 
Q 14.984375 37.3125 14.984375 27.296875 
Q 14.984375 17.28125 19.8125 11.734375 
Q 24.65625 6.203125 33.40625 6.203125 
Q 37.3125 6.203125 41.140625 7.25 
Q 44.96875 8.296875 48.78125 10.40625 
L 48.78125 2.09375 
Q 45.015625 0.34375 40.984375 -0.53125 
Q 36.96875 -1.421875 32.421875 -1.421875 
Q 20.0625 -1.421875 12.78125 6.34375 
Q 5.515625 14.109375 5.515625 27.296875 
Q 5.515625 40.671875 12.859375 48.328125 
Q 20.21875 56 33.015625 56 
Q 37.15625 56 41.109375 55.140625 
Q 45.0625 54.296875 48.78125 52.59375 
z
" id="DejaVuSans-99"/>
     <path d="M 9.421875 75.984375 
L 18.40625 75.984375 
L 18.40625 0 
L 9.421875 0 
z
" id="DejaVuSans-108"/>
     <path d="M 54.890625 33.015625 
L 54.890625 0 
L 45.90625 0 
L 45.90625 32.71875 
Q 45.90625 40.484375 42.875 44.328125 
Q 39.84375 48.1875 33.796875 48.1875 
Q 26.515625 48.1875 22.3125 43.546875 
Q 18.109375 38.921875 18.109375 30.90625 
L 18.109375 0 
L 9.078125 0 
L 9.078125 54.6875 
L 18.109375 54.6875 
L 18.109375 46.1875 
Q 21.34375 51.125 25.703125 53.5625 
Q 30.078125 56 35.796875 56 
Q 45.21875 56 50.046875 50.171875 
Q 54.890625 44.34375 54.890625 33.015625 
z
" id="DejaVuSans-110"/>
     <path d="M 18.3125 70.21875 
L 18.3125 54.6875 
L 36.8125 54.6875 
L 36.8125 47.703125 
L 18.3125 47.703125 
L 18.3125 18.015625 
Q 18.3125 11.328125 20.140625 9.421875 
Q 21.96875 7.515625 27.59375 7.515625 
L 36.8125 7.515625 
L 36.8125 0 
L 27.59375 0 
Q 17.1875 0 13.234375 3.875 
Q 9.28125 7.765625 9.28125 18.015625 
L 9.28125 47.703125 
L 2.6875 47.703125 
L 2.6875 54.6875 
L 9.28125 54.6875 
L 9.28125 70.21875 
z
" id="DejaVuSans-116"/>
     <path d="M 34.1875 63.1875 
L 20.796875 26.90625 
L 47.609375 26.90625 
z
M 28.609375 72.90625 
L 39.796875 72.90625 
L 67.578125 0 
L 57.328125 0 
L 50.6875 18.703125 
L 17.828125 18.703125 
L 11.1875 0 
L 0.78125 0 
z
" id="DejaVuSans-65"/>
    </defs>
    <g transform="translate(123.17625 21.648)scale(0.12 -0.12)">
     <use xlink:href="#DejaVuSans-78"/>
     <use x="74.804688" xlink:href="#DejaVuSans-250"/>
     <use x="138.183594" xlink:href="#DejaVuSans-109"/>
     <use x="235.595703" xlink:href="#DejaVuSans-101"/>
     <use x="297.119141" xlink:href="#DejaVuSans-114"/>
     <use x="338.201172" xlink:href="#DejaVuSans-111"/>
     <use x="399.382812" xlink:href="#DejaVuSans-32"/>
     <use x="431.169922" xlink:href="#DejaVuSans-112"/>
     <use x="494.646484" xlink:href="#DejaVuSans-114"/>
     <use x="535.728516" xlink:href="#DejaVuSans-111"/>
     <use x="596.910156" xlink:href="#DejaVuSans-109"/>
     <use x="694.322266" xlink:href="#DejaVuSans-101"/>
     <use x="755.845703" xlink:href="#DejaVuSans-100"/>
     <use x="819.322266" xlink:href="#DejaVuSans-105"/>
     <use x="847.105469" xlink:href="#DejaVuSans-111"/>
     <use x="908.287109" xlink:href="#DejaVuSans-32"/>
     <use x="940.074219" xlink:href="#DejaVuSans-100"/>
     <use x="1003.550781" xlink:href="#DejaVuSans-101"/>
     <use x="1065.074219" xlink:href="#DejaVuSans-32"/>
     <use x="1096.861328" xlink:href="#DejaVuSans-99"/>
     <use x="1151.841797" xlink:href="#DejaVuSans-108"/>
     <use x="1179.625" xlink:href="#DejaVuSans-105"/>
     <use x="1207.408203" xlink:href="#DejaVuSans-101"/>
     <use x="1268.931641" xlink:href="#DejaVuSans-110"/>
     <use x="1332.310547" xlink:href="#DejaVuSans-116"/>
     <use x="1371.519531" xlink:href="#DejaVuSans-101"/>
     <use x="1433.042969" xlink:href="#DejaVuSans-115"/>
     <use x="1485.142578" xlink:href="#DejaVuSans-32"/>
     <use x="1516.929688" xlink:href="#DejaVuSans-101"/>
     <use x="1578.453125" xlink:href="#DejaVuSans-110"/>
     <use x="1641.832031" xlink:href="#DejaVuSans-32"/>
     <use x="1673.619141" xlink:href="#DejaVuSans-99"/>
     <use x="1728.599609" xlink:href="#DejaVuSans-111"/>
     <use x="1789.78125" xlink:href="#DejaVuSans-108"/>
     <use x="1817.564453" xlink:href="#DejaVuSans-97"/>
     <use x="1878.84375" xlink:href="#DejaVuSans-32"/>
     <use x="1910.630859" xlink:href="#DejaVuSans-65"/>
    </g>
   </g>
  </g>
  <g id="axes_2">
   <g id="patch_7">
    <path d="M 46.08 317.952 
L 212.75234 317.952 
L 212.75234 188.928 
L 46.08 188.928 
z
" style="fill:#ffffff;"/>
   </g>
   <g id="matplotlib.axis_3">
    <g id="xtick_7">
     <g id="line2d_24">
      <path clip-path="url(#pd57ba75b90)" d="M 53.504343 317.952 
L 53.504343 188.928 
" style="fill:none;stroke:#b0b0b0;stroke-linecap:square;stroke-width:0.8;"/>
     </g>
     <g id="line2d_25">
      <g>
       <use style="stroke:#000000;stroke-width:0.8;" x="53.504343" xlink:href="#mdc803ab8c9" y="317.952"/>
      </g>
     </g>
     <g id="text_15">
      <!-- 0 -->
      <g transform="translate(50.323093 332.550437)scale(0.1 -0.1)">
       <use xlink:href="#DejaVuSans-48"/>
      </g>
     </g>
    </g>
    <g id="xtick_8">
     <g id="line2d_26">
      <path clip-path="url(#pd57ba75b90)" d="M 91.422339 317.952 
L 91.422339 188.928 
" style="fill:none;stroke:#b0b0b0;stroke-linecap:square;stroke-width:0.8;"/>
     </g>
     <g id="line2d_27">
      <g>
       <use style="stroke:#000000;stroke-width:0.8;" x="91.422339" xlink:href="#mdc803ab8c9" y="317.952"/>
      </g>
     </g>
     <g id="text_16">
      <!-- 250 -->
      <defs>
       <path d="M 10.796875 72.90625 
L 49.515625 72.90625 
L 49.515625 64.59375 
L 19.828125 64.59375 
L 19.828125 46.734375 
Q 21.96875 47.46875 24.109375 47.828125 
Q 26.265625 48.1875 28.421875 48.1875 
Q 40.625 48.1875 47.75 41.5 
Q 54.890625 34.8125 54.890625 23.390625 
Q 54.890625 11.625 47.5625 5.09375 
Q 40.234375 -1.421875 26.90625 -1.421875 
Q 22.3125 -1.421875 17.546875 -0.640625 
Q 12.796875 0.140625 7.71875 1.703125 
L 7.71875 11.625 
Q 12.109375 9.234375 16.796875 8.0625 
Q 21.484375 6.890625 26.703125 6.890625 
Q 35.15625 6.890625 40.078125 11.328125 
Q 45.015625 15.765625 45.015625 23.390625 
Q 45.015625 31 40.078125 35.4375 
Q 35.15625 39.890625 26.703125 39.890625 
Q 22.75 39.890625 18.8125 39.015625 
Q 14.890625 38.140625 10.796875 36.28125 
z
" id="DejaVuSans-53"/>
      </defs>
      <g transform="translate(81.878589 332.550437)scale(0.1 -0.1)">
       <use xlink:href="#DejaVuSans-50"/>
       <use x="63.623047" xlink:href="#DejaVuSans-53"/>
       <use x="127.246094" xlink:href="#DejaVuSans-48"/>
      </g>
     </g>
    </g>
    <g id="xtick_9">
     <g id="line2d_28">
      <path clip-path="url(#pd57ba75b90)" d="M 129.340334 317.952 
L 129.340334 188.928 
" style="fill:none;stroke:#b0b0b0;stroke-linecap:square;stroke-width:0.8;"/>
     </g>
     <g id="line2d_29">
      <g>
       <use style="stroke:#000000;stroke-width:0.8;" x="129.340334" xlink:href="#mdc803ab8c9" y="317.952"/>
      </g>
     </g>
     <g id="text_17">
      <!-- 500 -->
      <g transform="translate(119.796584 332.550437)scale(0.1 -0.1)">
       <use xlink:href="#DejaVuSans-53"/>
       <use x="63.623047" xlink:href="#DejaVuSans-48"/>
       <use x="127.246094" xlink:href="#DejaVuSans-48"/>
      </g>
     </g>
    </g>
    <g id="xtick_10">
     <g id="line2d_30">
      <path clip-path="url(#pd57ba75b90)" d="M 167.25833 317.952 
L 167.25833 188.928 
" style="fill:none;stroke:#b0b0b0;stroke-linecap:square;stroke-width:0.8;"/>
     </g>
     <g id="line2d_31">
      <g>
       <use style="stroke:#000000;stroke-width:0.8;" x="167.25833" xlink:href="#mdc803ab8c9" y="317.952"/>
      </g>
     </g>
     <g id="text_18">
      <!-- 750 -->
      <defs>
       <path d="M 8.203125 72.90625 
L 55.078125 72.90625 
L 55.078125 68.703125 
L 28.609375 0 
L 18.3125 0 
L 43.21875 64.59375 
L 8.203125 64.59375 
z
" id="DejaVuSans-55"/>
      </defs>
      <g transform="translate(157.71458 332.550437)scale(0.1 -0.1)">
       <use xlink:href="#DejaVuSans-55"/>
       <use x="63.623047" xlink:href="#DejaVuSans-53"/>
       <use x="127.246094" xlink:href="#DejaVuSans-48"/>
      </g>
     </g>
    </g>
    <g id="xtick_11">
     <g id="line2d_32">
      <path clip-path="url(#pd57ba75b90)" d="M 205.176325 317.952 
L 205.176325 188.928 
" style="fill:none;stroke:#b0b0b0;stroke-linecap:square;stroke-width:0.8;"/>
     </g>
     <g id="line2d_33">
      <g>
       <use style="stroke:#000000;stroke-width:0.8;" x="205.176325" xlink:href="#mdc803ab8c9" y="317.952"/>
      </g>
     </g>
     <g id="text_19">
      <!-- 1000 -->
      <g transform="translate(192.451325 332.550437)scale(0.1 -0.1)">
       <use xlink:href="#DejaVuSans-49"/>
       <use x="63.623047" xlink:href="#DejaVuSans-48"/>
       <use x="127.246094" xlink:href="#DejaVuSans-48"/>
       <use x="190.869141" xlink:href="#DejaVuSans-48"/>
      </g>
     </g>
    </g>
    <g id="text_20">
     <!-- Corridas -->
     <g transform="translate(108.523201 346.228563)scale(0.1 -0.1)">
      <use xlink:href="#DejaVuSans-67"/>
      <use x="69.824219" xlink:href="#DejaVuSans-111"/>
      <use x="131.005859" xlink:href="#DejaVuSans-114"/>
      <use x="172.103516" xlink:href="#DejaVuSans-114"/>
      <use x="213.216797" xlink:href="#DejaVuSans-105"/>
      <use x="241" xlink:href="#DejaVuSans-100"/>
      <use x="304.476562" xlink:href="#DejaVuSans-97"/>
      <use x="365.755859" xlink:href="#DejaVuSans-115"/>
     </g>
    </g>
   </g>
   <g id="matplotlib.axis_4">
    <g id="ytick_6">
     <g id="line2d_34">
      <path clip-path="url(#pd57ba75b90)" d="M 46.08 307.817982 
L 212.75234 307.817982 
" style="fill:none;stroke:#b0b0b0;stroke-linecap:square;stroke-width:0.8;"/>
     </g>
     <g id="line2d_35">
      <g>
       <use style="stroke:#000000;stroke-width:0.8;" x="46.08" xlink:href="#mcc57d30b54" y="307.817982"/>
      </g>
     </g>
     <g id="text_21">
      <!-- 0.014 -->
      <g transform="translate(10.451875 311.617201)scale(0.1 -0.1)">
       <use xlink:href="#DejaVuSans-48"/>
       <use x="63.623047" xlink:href="#DejaVuSans-46"/>
       <use x="95.410156" xlink:href="#DejaVuSans-48"/>
       <use x="159.033203" xlink:href="#DejaVuSans-49"/>
       <use x="222.65625" xlink:href="#DejaVuSans-52"/>
      </g>
     </g>
    </g>
    <g id="ytick_7">
     <g id="line2d_36">
      <path clip-path="url(#pd57ba75b90)" d="M 46.08 266.196967 
L 212.75234 266.196967 
" style="fill:none;stroke:#b0b0b0;stroke-linecap:square;stroke-width:0.8;"/>
     </g>
     <g id="line2d_37">
      <g>
       <use style="stroke:#000000;stroke-width:0.8;" x="46.08" xlink:href="#mcc57d30b54" y="266.196967"/>
      </g>
     </g>
     <g id="text_22">
      <!-- 0.016 -->
      <g transform="translate(10.451875 269.996186)scale(0.1 -0.1)">
       <use xlink:href="#DejaVuSans-48"/>
       <use x="63.623047" xlink:href="#DejaVuSans-46"/>
       <use x="95.410156" xlink:href="#DejaVuSans-48"/>
       <use x="159.033203" xlink:href="#DejaVuSans-49"/>
       <use x="222.65625" xlink:href="#DejaVuSans-54"/>
      </g>
     </g>
    </g>
    <g id="ytick_8">
     <g id="line2d_38">
      <path clip-path="url(#pd57ba75b90)" d="M 46.08 224.575953 
L 212.75234 224.575953 
" style="fill:none;stroke:#b0b0b0;stroke-linecap:square;stroke-width:0.8;"/>
     </g>
     <g id="line2d_39">
      <g>
       <use style="stroke:#000000;stroke-width:0.8;" x="46.08" xlink:href="#mcc57d30b54" y="224.575953"/>
      </g>
     </g>
     <g id="text_23">
      <!-- 0.018 -->
      <g transform="translate(10.451875 228.375172)scale(0.1 -0.1)">
       <use xlink:href="#DejaVuSans-48"/>
       <use x="63.623047" xlink:href="#DejaVuSans-46"/>
       <use x="95.410156" xlink:href="#DejaVuSans-48"/>
       <use x="159.033203" xlink:href="#DejaVuSans-49"/>
       <use x="222.65625" xlink:href="#DejaVuSans-56"/>
      </g>
     </g>
    </g>
    <g id="text_24">
     <!-- Número -->
     <g transform="translate(4.372188 273.409531)rotate(-90)scale(0.1 -0.1)">
      <use xlink:href="#DejaVuSans-78"/>
      <use x="74.804688" xlink:href="#DejaVuSans-250"/>
      <use x="138.183594" xlink:href="#DejaVuSans-109"/>
      <use x="235.595703" xlink:href="#DejaVuSans-101"/>
      <use x="297.119141" xlink:href="#DejaVuSans-114"/>
      <use x="338.201172" xlink:href="#DejaVuSans-111"/>
     </g>
    </g>
   </g>
   <g id="line2d_40">
    <path clip-path="url(#pd57ba75b90)" d="M 53.656015 312.087273 
L 53.807687 290.232722 
L 53.959359 194.792727 
L 54.111031 248.759495 
L 54.262703 250.880786 
L 54.414375 223.9841 
L 54.566047 221.862784 
L 55.172735 257.674524 
L 55.324407 259.344176 
L 55.627751 267.840902 
L 55.779423 260.776805 
L 55.931095 259.18632 
L 56.234439 266.851105 
L 56.386111 263.209152 
L 56.537783 272.498733 
L 56.689455 274.720323 
L 56.841127 273.967271 
L 56.992799 278.082241 
L 57.599487 282.253137 
L 57.751159 286.054165 
L 57.902831 285.52736 
L 58.054503 285.761839 
L 58.661191 277.832725 
L 59.116207 276.905277 
L 59.267879 277.017159 
L 59.419551 278.745181 
L 59.571223 281.989337 
L 59.722895 282.790523 
L 60.026239 279.465254 
L 60.177911 283.882885 
L 60.329583 284.404211 
L 60.481255 283.837412 
L 60.632927 282.652673 
L 60.784599 282.836784 
L 60.936271 283.297871 
L 61.087943 284.243025 
L 61.542959 279.927123 
L 61.846302 281.78473 
L 61.997974 280.168344 
L 62.149646 282.086655 
L 62.45299 279.06751 
L 62.604662 279.604122 
L 62.756334 278.293504 
L 62.908006 274.802049 
L 63.059678 276.897726 
L 63.21135 277.310828 
L 63.363022 278.572412 
L 63.514694 278.888396 
L 63.666366 278.416734 
L 63.96971 280.329034 
L 64.273054 279.640616 
L 64.424726 278.569093 
L 64.72807 278.940886 
L 64.879742 278.114161 
L 65.183086 278.528508 
L 65.48643 280.926906 
L 65.638102 281.193929 
L 65.789774 279.056302 
L 65.941446 279.695942 
L 66.093118 279.714093 
L 66.24479 279.427511 
L 66.396462 278.450757 
L 66.548134 278.48777 
L 67.306494 282.285213 
L 67.458166 281.954354 
L 67.609838 283.884931 
L 67.76151 282.806978 
L 67.913182 282.966061 
L 68.064854 282.056696 
L 68.216526 283.270331 
L 68.368198 281.324607 
L 68.51987 281.58088 
L 68.671542 281.356606 
L 68.974886 282.510555 
L 69.126558 282.762507 
L 69.27823 282.177318 
L 69.581574 282.965852 
L 69.733246 282.351423 
L 69.884917 282.587624 
L 70.188261 281.578282 
L 70.491605 282.094798 
L 70.643277 281.574974 
L 70.946621 282.683717 
L 71.249965 284.690058 
L 71.401637 284.006985 
L 71.553309 283.929866 
L 71.856653 284.41995 
L 72.008325 283.976486 
L 72.159997 282.464575 
L 72.311669 282.841692 
L 72.463341 282.834959 
L 72.766685 280.821257 
L 72.918357 280.13906 
L 73.070029 280.33681 
L 73.221701 280.147047 
L 73.525045 281.633262 
L 73.676717 281.474586 
L 73.828389 282.621425 
L 73.980061 282.586119 
L 74.131733 283.104215 
L 74.283405 282.736806 
L 74.586749 280.98824 
L 75.041765 282.779804 
L 75.193437 282.724803 
L 75.345109 282.071508 
L 75.496781 281.913883 
L 75.648453 282.352719 
L 75.800125 282.000083 
L 75.951797 282.484197 
L 76.406813 284.858019 
L 76.558485 284.944371 
L 76.710157 284.65522 
L 77.013501 283.597557 
L 77.165173 283.414696 
L 77.316845 283.603255 
L 77.468517 283.214201 
L 77.771861 283.431071 
L 78.378548 281.77737 
L 78.53022 281.556987 
L 78.681892 281.896344 
L 78.985236 281.462903 
L 79.136908 281.52047 
L 79.28858 281.923233 
L 79.440252 281.791934 
L 79.743596 282.5446 
L 80.04694 281.87999 
L 80.501956 282.960284 
L 80.956972 281.008895 
L 81.108644 280.398023 
L 81.411988 280.938212 
L 81.56366 280.920783 
L 81.715332 280.444075 
L 82.777036 281.688149 
L 83.08038 281.60915 
L 83.383724 281.249683 
L 83.687068 281.866805 
L 83.990412 281.285458 
L 84.293756 281.710319 
L 84.445428 281.599026 
L 85.052116 282.126979 
L 85.203788 282.545889 
L 85.507132 281.676011 
L 85.658804 281.680443 
L 85.810476 281.837274 
L 85.962148 281.676999 
L 86.11382 281.705198 
L 86.417163 281.916216 
L 86.720507 281.204129 
L 87.175523 280.520992 
L 87.478867 280.530109 
L 87.630539 280.131571 
L 87.782211 280.594157 
L 88.237227 279.808023 
L 88.388899 278.981674 
L 88.540571 279.288003 
L 88.692243 279.052059 
L 88.843915 279.023389 
L 89.450603 281.196458 
L 89.602275 280.957756 
L 89.753947 281.323538 
L 89.905619 281.29034 
L 90.057291 281.374158 
L 90.208963 281.215414 
L 90.360635 281.581504 
L 90.663979 281.701604 
L 90.815651 281.213574 
L 91.118995 281.17923 
L 91.270667 281.358301 
L 91.725683 282.308917 
L 91.877355 281.655472 
L 92.484043 282.001227 
L 92.787387 282.13001 
L 92.939059 282.448938 
L 93.090731 282.173187 
L 93.697419 283.456776 
L 93.849091 282.939515 
L 94.000763 283.263992 
L 94.304107 282.713164 
L 94.455778 282.928572 
L 94.759122 282.944772 
L 94.910794 282.780356 
L 95.062466 283.082246 
L 95.36581 283.141427 
L 95.517482 283.215931 
L 96.12417 284.09902 
L 96.275842 284.063919 
L 96.579186 284.334939 
L 96.730858 284.060424 
L 96.88253 284.13348 
L 97.489218 283.612688 
L 97.64089 283.705892 
L 97.792562 283.546772 
L 98.095906 284.06649 
L 98.39925 284.128715 
L 98.550922 284.018455 
L 98.702594 283.664236 
L 98.854266 284.003428 
L 99.005938 283.768015 
L 99.15761 283.834831 
L 99.309282 284.328897 
L 99.460954 283.919311 
L 99.91597 284.995208 
L 100.219314 284.918136 
L 100.522658 285.40921 
L 100.826002 284.852806 
L 101.129346 285.554554 
L 101.43269 285.087763 
L 101.584362 285.207729 
L 101.736034 285.005573 
L 101.887706 284.605143 
L 102.646065 284.881851 
L 102.797737 285.185774 
L 102.949409 284.990324 
L 103.101081 285.061705 
L 103.252753 285.608681 
L 103.404425 285.004263 
L 103.556097 284.919862 
L 103.707769 285.192889 
L 103.859441 285.175495 
L 104.011113 284.939918 
L 104.162785 285.104284 
L 104.314457 284.900735 
L 104.466129 284.886724 
L 104.617801 285.063762 
L 104.769473 284.858464 
L 104.921145 284.263545 
L 105.224489 284.531428 
L 105.527833 284.654002 
L 105.831177 284.54102 
L 105.982849 284.750988 
L 106.134521 284.752725 
L 106.437865 285.10173 
L 106.589537 285.229764 
L 106.892881 284.996723 
L 107.044553 284.92729 
L 107.651241 285.473803 
L 107.802913 285.17363 
L 108.106257 285.657597 
L 108.257929 285.558359 
L 108.712945 286.001204 
L 108.864617 285.943151 
L 109.016289 286.064999 
L 109.167961 285.819113 
L 109.471305 286.037024 
L 109.622977 285.812031 
L 109.774649 286.12006 
L 109.926321 285.583127 
L 110.077993 285.525965 
L 110.381337 285.227901 
L 110.533009 285.332493 
L 110.684681 285.246608 
L 110.988024 284.734434 
L 111.139696 284.706695 
L 111.291368 284.814069 
L 111.44304 284.47764 
L 111.746384 284.481492 
L 111.898056 284.560373 
L 112.049728 284.494138 
L 112.504744 284.840483 
L 112.808088 284.584446 
L 112.95976 284.709287 
L 113.111432 284.592549 
L 113.263104 284.213418 
L 113.414776 284.23156 
L 113.566448 284.607571 
L 113.869792 284.639954 
L 114.021464 284.952799 
L 114.324808 284.435914 
L 114.47648 284.562935 
L 114.628152 284.288064 
L 114.931496 284.331446 
L 115.386512 283.473851 
L 115.538184 283.325833 
L 115.689856 282.854505 
L 116.144872 282.970524 
L 116.296544 282.848323 
L 116.448216 282.873303 
L 116.903232 282.409866 
L 117.206576 282.15622 
L 117.358248 282.187077 
L 117.50992 282.004749 
L 117.661592 282.148342 
L 117.813264 282.034543 
L 117.964936 282.111006 
L 118.26828 282.502263 
L 118.723296 282.482659 
L 119.026639 282.390343 
L 119.178311 282.184369 
L 119.329983 282.278888 
L 119.481655 282.603734 
L 119.633327 282.156024 
L 119.784999 282.236733 
L 119.936671 282.088259 
L 120.088343 281.745825 
L 120.543359 281.919934 
L 121.150047 282.342902 
L 121.301719 282.299588 
L 121.453391 282.426438 
L 121.756735 281.946186 
L 122.060079 282.112643 
L 122.211751 281.962331 
L 122.363423 282.051877 
L 122.515095 281.908583 
L 122.818439 282.184558 
L 122.970111 282.192335 
L 123.273455 281.8163 
L 123.425127 281.659899 
L 123.576799 281.691072 
L 124.031815 282.241821 
L 124.183487 282.042525 
L 124.638503 282.295599 
L 124.790175 282.334457 
L 125.093519 282.125012 
L 125.245191 281.742182 
L 125.396863 281.987239 
L 125.548535 282.005282 
L 125.700207 282.314675 
L 126.306895 282.272499 
L 126.610239 282.576807 
L 127.065255 282.857093 
L 127.52027 282.74345 
L 127.671942 282.876217 
L 128.126958 282.265386 
L 128.27863 282.009791 
L 128.430302 282.254635 
L 128.581974 282.24641 
L 129.03699 281.448544 
L 129.188662 281.612151 
L 129.340334 281.424095 
L 129.492006 281.627225 
L 129.79535 281.478732 
L 130.098694 281.708785 
L 130.402038 281.583782 
L 130.705382 281.723949 
L 130.857054 281.987576 
L 131.160398 282.001404 
L 131.31207 281.666416 
L 131.767086 281.590286 
L 132.373774 281.472406 
L 132.525446 281.204982 
L 132.82879 281.433886 
L 133.132134 281.332792 
L 133.283806 281.240999 
L 133.435478 281.354102 
L 133.890494 281.110746 
L 134.193838 281.405044 
L 134.648854 281.930571 
L 134.800526 281.901445 
L 135.10387 282.125019 
L 135.255541 282.136291 
L 135.407213 282.010632 
L 136.013901 282.336217 
L 136.165573 282.146903 
L 136.468917 282.124827 
L 136.620589 282.041063 
L 136.923933 282.315394 
L 137.075605 282.227461 
L 137.227277 282.283671 
L 137.378949 282.208331 
L 137.682293 282.3362 
L 137.833965 282.206718 
L 138.288981 281.190715 
L 138.895669 281.107776 
L 139.350685 280.696689 
L 139.502357 280.891708 
L 140.564061 280.783441 
L 140.715733 280.522388 
L 141.019077 280.625301 
L 141.170749 280.322469 
L 141.625765 280.762561 
L 141.929109 280.956685 
L 142.080781 281.061686 
L 142.232453 280.979981 
L 142.839141 281.187855 
L 142.990813 280.989058 
L 143.142485 281.135957 
L 143.294157 281.056412 
L 143.749172 281.289298 
L 144.204188 281.306046 
L 144.507532 281.450587 
L 144.810876 281.672086 
L 145.11422 281.798526 
L 145.569236 281.807679 
L 145.720908 282.028777 
L 146.024252 281.849041 
L 146.327596 281.953364 
L 146.63094 281.723298 
L 147.085956 281.745935 
L 147.237628 281.729182 
L 147.540972 281.823174 
L 147.692644 281.850701 
L 147.844316 281.462187 
L 148.14766 281.613612 
L 148.299332 281.448444 
L 148.451004 281.507756 
L 148.602676 281.75408 
L 148.754348 281.735871 
L 148.90602 281.600638 
L 149.057692 281.750115 
L 149.361036 281.539273 
L 149.512708 281.599596 
L 149.66438 281.478001 
L 149.967724 281.579804 
L 150.42274 281.144553 
L 151.332772 280.973571 
L 151.484444 281.126831 
L 151.939459 280.877243 
L 152.394475 281.192241 
L 152.697819 280.782645 
L 153.001163 280.776203 
L 153.304507 280.850488 
L 153.607851 280.939516 
L 153.759523 280.768116 
L 154.214539 280.887808 
L 154.517883 281.221974 
L 154.821227 280.897269 
L 155.124571 280.891691 
L 155.579587 280.949792 
L 156.944635 280.636269 
L 157.096307 280.548168 
L 157.247979 280.60785 
L 157.399651 280.468776 
L 158.006339 280.559973 
L 158.461355 280.524337 
L 158.613027 280.383841 
L 158.764699 280.542847 
L 159.219715 280.512753 
L 159.371387 280.662697 
L 159.674731 280.576666 
L 159.826402 280.503534 
L 160.129746 280.540511 
L 160.281418 280.332418 
L 160.43309 280.521927 
L 160.736434 280.484397 
L 161.039778 280.526153 
L 161.343122 280.63494 
L 161.494794 280.598901 
L 161.646466 280.42749 
L 161.94981 280.518834 
L 162.253154 280.627542 
L 162.556498 280.667565 
L 162.70817 280.710578 
L 163.011514 280.227769 
L 163.46653 280.057041 
L 163.769874 280.244434 
L 164.831578 280.380199 
L 165.74161 280.580158 
L 166.348298 280.532937 
L 166.49997 280.690071 
L 166.803314 280.572261 
L 167.106658 280.417487 
L 167.561674 280.40524 
L 167.713346 280.535772 
L 168.168361 280.491244 
L 168.623377 280.715 
L 168.775049 280.667397 
L 168.926721 280.79991 
L 169.230065 280.795577 
L 169.533409 280.897804 
L 169.685081 280.928973 
L 169.836753 281.10268 
L 169.988425 281.065019 
L 170.140097 280.897004 
L 170.595113 280.99166 
L 171.050129 280.776808 
L 171.353473 280.671079 
L 171.656817 280.781318 
L 171.960161 280.770301 
L 172.111833 280.854492 
L 172.415177 280.531653 
L 172.718521 280.606654 
L 173.021865 280.762812 
L 173.173537 280.57121 
L 173.476881 280.609023 
L 173.780225 280.623948 
L 174.841929 280.934174 
L 175.145273 280.989922 
L 175.448617 281.20401 
L 175.751961 281.031092 
L 175.903633 281.157465 
L 176.206976 281.136881 
L 176.813664 281.538786 
L 176.965336 281.326712 
L 177.26868 281.389632 
L 177.420352 281.115731 
L 177.723696 281.273919 
L 178.178712 281.199305 
L 178.482056 281.157835 
L 179.088744 281.038006 
L 179.240416 281.133935 
L 179.54376 281.061358 
L 179.998776 281.144853 
L 180.605464 280.773052 
L 180.757136 280.834318 
L 181.212152 280.577192 
L 182.425528 280.105275 
L 182.5772 280.172899 
L 182.880544 280.04747 
L 183.33556 280.197943 
L 183.638904 280.107023 
L 184.09392 280.197498 
L 185.003951 279.845987 
L 185.610639 279.98646 
L 185.762311 279.964864 
L 185.913983 280.064381 
L 186.217327 280.035408 
L 186.975687 280.407473 
L 188.037391 280.392809 
L 188.644079 280.463347 
L 188.947423 280.394962 
L 189.402439 280.463278 
L 189.554111 280.275373 
L 189.857455 280.511859 
L 190.009127 280.42928 
L 190.160799 280.484917 
L 190.767487 280.142132 
L 191.070831 280.352237 
L 191.222503 280.455772 
L 191.829191 280.205291 
L 192.132535 280.244722 
L 192.435879 280.285985 
L 192.739222 280.520299 
L 192.890894 280.40125 
L 193.194238 280.432468 
L 193.34591 280.342909 
L 193.497582 280.49772 
L 193.649254 280.487225 
L 193.800926 280.320619 
L 194.407614 280.546305 
L 194.559286 280.415293 
L 194.86263 280.549595 
L 195.014302 280.672532 
L 195.165974 280.528969 
L 195.317646 280.591324 
L 195.469318 280.403883 
L 195.924334 280.59123 
L 197.13771 280.476624 
L 197.592726 280.302897 
L 198.502758 280.687045 
L 199.109446 280.841159 
L 199.867806 280.673557 
L 200.17115 280.665308 
L 200.474494 280.475634 
L 200.777837 280.320775 
L 200.929509 280.442058 
L 201.081181 280.359114 
L 201.536197 280.556472 
L 201.687869 280.420064 
L 202.142885 280.514449 
L 202.749573 280.617319 
L 203.962949 280.346083 
L 205.024653 280.449147 
L 205.176325 280.401716 
L 205.176325 280.401716 
" style="fill:none;stroke:#1f77b4;stroke-linecap:square;stroke-width:1.5;"/>
   </g>
   <g id="patch_8">
    <path d="M 46.08 317.952 
L 46.08 188.928 
" style="fill:none;stroke:#000000;stroke-linecap:square;stroke-linejoin:miter;stroke-width:0.8;"/>
   </g>
   <g id="patch_9">
    <path d="M 212.75234 317.952 
L 212.75234 188.928 
" style="fill:none;stroke:#000000;stroke-linecap:square;stroke-linejoin:miter;stroke-width:0.8;"/>
   </g>
   <g id="patch_10">
    <path d="M 46.08 317.952 
L 212.75234 317.952 
" style="fill:none;stroke:#000000;stroke-linecap:square;stroke-linejoin:miter;stroke-width:0.8;"/>
   </g>
   <g id="patch_11">
    <path d="M 46.08 188.928 
L 212.75234 188.928 
" style="fill:none;stroke:#000000;stroke-linecap:square;stroke-linejoin:miter;stroke-width:0.8;"/>
   </g>
   <g id="text_25">
    <!-- Número promedio de clientes en cola C1 -->
    <g transform="translate(6.769608 182.928)scale(0.12 -0.12)">
     <use xlink:href="#DejaVuSans-78"/>
     <use x="74.804688" xlink:href="#DejaVuSans-250"/>
     <use x="138.183594" xlink:href="#DejaVuSans-109"/>
     <use x="235.595703" xlink:href="#DejaVuSans-101"/>
     <use x="297.119141" xlink:href="#DejaVuSans-114"/>
     <use x="338.201172" xlink:href="#DejaVuSans-111"/>
     <use x="399.382812" xlink:href="#DejaVuSans-32"/>
     <use x="431.169922" xlink:href="#DejaVuSans-112"/>
     <use x="494.646484" xlink:href="#DejaVuSans-114"/>
     <use x="535.728516" xlink:href="#DejaVuSans-111"/>
     <use x="596.910156" xlink:href="#DejaVuSans-109"/>
     <use x="694.322266" xlink:href="#DejaVuSans-101"/>
     <use x="755.845703" xlink:href="#DejaVuSans-100"/>
     <use x="819.322266" xlink:href="#DejaVuSans-105"/>
     <use x="847.105469" xlink:href="#DejaVuSans-111"/>
     <use x="908.287109" xlink:href="#DejaVuSans-32"/>
     <use x="940.074219" xlink:href="#DejaVuSans-100"/>
     <use x="1003.550781" xlink:href="#DejaVuSans-101"/>
     <use x="1065.074219" xlink:href="#DejaVuSans-32"/>
     <use x="1096.861328" xlink:href="#DejaVuSans-99"/>
     <use x="1151.841797" xlink:href="#DejaVuSans-108"/>
     <use x="1179.625" xlink:href="#DejaVuSans-105"/>
     <use x="1207.408203" xlink:href="#DejaVuSans-101"/>
     <use x="1268.931641" xlink:href="#DejaVuSans-110"/>
     <use x="1332.310547" xlink:href="#DejaVuSans-116"/>
     <use x="1371.519531" xlink:href="#DejaVuSans-101"/>
     <use x="1433.042969" xlink:href="#DejaVuSans-115"/>
     <use x="1485.142578" xlink:href="#DejaVuSans-32"/>
     <use x="1516.929688" xlink:href="#DejaVuSans-101"/>
     <use x="1578.453125" xlink:href="#DejaVuSans-110"/>
     <use x="1641.832031" xlink:href="#DejaVuSans-32"/>
     <use x="1673.619141" xlink:href="#DejaVuSans-99"/>
     <use x="1728.599609" xlink:href="#DejaVuSans-111"/>
     <use x="1789.78125" xlink:href="#DejaVuSans-108"/>
     <use x="1817.564453" xlink:href="#DejaVuSans-97"/>
     <use x="1878.84375" xlink:href="#DejaVuSans-32"/>
     <use x="1910.630859" xlink:href="#DejaVuSans-67"/>
     <use x="1980.455078" xlink:href="#DejaVuSans-49"/>
    </g>
   </g>
  </g>
  <g id="axes_3">
   <g id="patch_12">
    <path d="M 271.08766 317.952 
L 437.76 317.952 
L 437.76 188.928 
L 271.08766 188.928 
z
" style="fill:#ffffff;"/>
   </g>
   <g id="matplotlib.axis_5">
    <g id="xtick_12">
     <g id="line2d_41">
      <path clip-path="url(#p3a6fa8b624)" d="M 278.512003 317.952 
L 278.512003 188.928 
" style="fill:none;stroke:#b0b0b0;stroke-linecap:square;stroke-width:0.8;"/>
     </g>
     <g id="line2d_42">
      <g>
       <use style="stroke:#000000;stroke-width:0.8;" x="278.512003" xlink:href="#mdc803ab8c9" y="317.952"/>
      </g>
     </g>
     <g id="text_26">
      <!-- 0 -->
      <g transform="translate(275.330753 332.550437)scale(0.1 -0.1)">
       <use xlink:href="#DejaVuSans-48"/>
      </g>
     </g>
    </g>
    <g id="xtick_13">
     <g id="line2d_43">
      <path clip-path="url(#p3a6fa8b624)" d="M 316.429998 317.952 
L 316.429998 188.928 
" style="fill:none;stroke:#b0b0b0;stroke-linecap:square;stroke-width:0.8;"/>
     </g>
     <g id="line2d_44">
      <g>
       <use style="stroke:#000000;stroke-width:0.8;" x="316.429998" xlink:href="#mdc803ab8c9" y="317.952"/>
      </g>
     </g>
     <g id="text_27">
      <!-- 250 -->
      <g transform="translate(306.886248 332.550437)scale(0.1 -0.1)">
       <use xlink:href="#DejaVuSans-50"/>
       <use x="63.623047" xlink:href="#DejaVuSans-53"/>
       <use x="127.246094" xlink:href="#DejaVuSans-48"/>
      </g>
     </g>
    </g>
    <g id="xtick_14">
     <g id="line2d_45">
      <path clip-path="url(#p3a6fa8b624)" d="M 354.347994 317.952 
L 354.347994 188.928 
" style="fill:none;stroke:#b0b0b0;stroke-linecap:square;stroke-width:0.8;"/>
     </g>
     <g id="line2d_46">
      <g>
       <use style="stroke:#000000;stroke-width:0.8;" x="354.347994" xlink:href="#mdc803ab8c9" y="317.952"/>
      </g>
     </g>
     <g id="text_28">
      <!-- 500 -->
      <g transform="translate(344.804244 332.550437)scale(0.1 -0.1)">
       <use xlink:href="#DejaVuSans-53"/>
       <use x="63.623047" xlink:href="#DejaVuSans-48"/>
       <use x="127.246094" xlink:href="#DejaVuSans-48"/>
      </g>
     </g>
    </g>
    <g id="xtick_15">
     <g id="line2d_47">
      <path clip-path="url(#p3a6fa8b624)" d="M 392.265989 317.952 
L 392.265989 188.928 
" style="fill:none;stroke:#b0b0b0;stroke-linecap:square;stroke-width:0.8;"/>
     </g>
     <g id="line2d_48">
      <g>
       <use style="stroke:#000000;stroke-width:0.8;" x="392.265989" xlink:href="#mdc803ab8c9" y="317.952"/>
      </g>
     </g>
     <g id="text_29">
      <!-- 750 -->
      <g transform="translate(382.722239 332.550437)scale(0.1 -0.1)">
       <use xlink:href="#DejaVuSans-55"/>
       <use x="63.623047" xlink:href="#DejaVuSans-53"/>
       <use x="127.246094" xlink:href="#DejaVuSans-48"/>
      </g>
     </g>
    </g>
    <g id="xtick_16">
     <g id="line2d_49">
      <path clip-path="url(#p3a6fa8b624)" d="M 430.183985 317.952 
L 430.183985 188.928 
" style="fill:none;stroke:#b0b0b0;stroke-linecap:square;stroke-width:0.8;"/>
     </g>
     <g id="line2d_50">
      <g>
       <use style="stroke:#000000;stroke-width:0.8;" x="430.183985" xlink:href="#mdc803ab8c9" y="317.952"/>
      </g>
     </g>
     <g id="text_30">
      <!-- 1000 -->
      <g transform="translate(417.458985 332.550437)scale(0.1 -0.1)">
       <use xlink:href="#DejaVuSans-49"/>
       <use x="63.623047" xlink:href="#DejaVuSans-48"/>
       <use x="127.246094" xlink:href="#DejaVuSans-48"/>
       <use x="190.869141" xlink:href="#DejaVuSans-48"/>
      </g>
     </g>
    </g>
    <g id="text_31">
     <!-- Corridas -->
     <g transform="translate(333.530861 346.228563)scale(0.1 -0.1)">
      <use xlink:href="#DejaVuSans-67"/>
      <use x="69.824219" xlink:href="#DejaVuSans-111"/>
      <use x="131.005859" xlink:href="#DejaVuSans-114"/>
      <use x="172.103516" xlink:href="#DejaVuSans-114"/>
      <use x="213.216797" xlink:href="#DejaVuSans-105"/>
      <use x="241" xlink:href="#DejaVuSans-100"/>
      <use x="304.476562" xlink:href="#DejaVuSans-97"/>
      <use x="365.755859" xlink:href="#DejaVuSans-115"/>
     </g>
    </g>
   </g>
   <g id="matplotlib.axis_6">
    <g id="ytick_9">
     <g id="line2d_51">
      <path clip-path="url(#p3a6fa8b624)" d="M 271.08766 304.309374 
L 437.76 304.309374 
" style="fill:none;stroke:#b0b0b0;stroke-linecap:square;stroke-width:0.8;"/>
     </g>
     <g id="line2d_52">
      <g>
       <use style="stroke:#000000;stroke-width:0.8;" x="271.08766" xlink:href="#mcc57d30b54" y="304.309374"/>
      </g>
     </g>
     <g id="text_32">
      <!-- 0.0125 -->
      <g transform="translate(229.097035 308.108593)scale(0.1 -0.1)">
       <use xlink:href="#DejaVuSans-48"/>
       <use x="63.623047" xlink:href="#DejaVuSans-46"/>
       <use x="95.410156" xlink:href="#DejaVuSans-48"/>
       <use x="159.033203" xlink:href="#DejaVuSans-49"/>
       <use x="222.65625" xlink:href="#DejaVuSans-50"/>
       <use x="286.279297" xlink:href="#DejaVuSans-53"/>
      </g>
     </g>
    </g>
    <g id="ytick_10">
     <g id="line2d_53">
      <path clip-path="url(#p3a6fa8b624)" d="M 271.08766 263.978314 
L 437.76 263.978314 
" style="fill:none;stroke:#b0b0b0;stroke-linecap:square;stroke-width:0.8;"/>
     </g>
     <g id="line2d_54">
      <g>
       <use style="stroke:#000000;stroke-width:0.8;" x="271.08766" xlink:href="#mcc57d30b54" y="263.978314"/>
      </g>
     </g>
     <g id="text_33">
      <!-- 0.0130 -->
      <g transform="translate(229.097035 267.777533)scale(0.1 -0.1)">
       <use xlink:href="#DejaVuSans-48"/>
       <use x="63.623047" xlink:href="#DejaVuSans-46"/>
       <use x="95.410156" xlink:href="#DejaVuSans-48"/>
       <use x="159.033203" xlink:href="#DejaVuSans-49"/>
       <use x="222.65625" xlink:href="#DejaVuSans-51"/>
       <use x="286.279297" xlink:href="#DejaVuSans-48"/>
      </g>
     </g>
    </g>
    <g id="ytick_11">
     <g id="line2d_55">
      <path clip-path="url(#p3a6fa8b624)" d="M 271.08766 223.647254 
L 437.76 223.647254 
" style="fill:none;stroke:#b0b0b0;stroke-linecap:square;stroke-width:0.8;"/>
     </g>
     <g id="line2d_56">
      <g>
       <use style="stroke:#000000;stroke-width:0.8;" x="271.08766" xlink:href="#mcc57d30b54" y="223.647254"/>
      </g>
     </g>
     <g id="text_34">
      <!-- 0.0135 -->
      <g transform="translate(229.097035 227.446472)scale(0.1 -0.1)">
       <use xlink:href="#DejaVuSans-48"/>
       <use x="63.623047" xlink:href="#DejaVuSans-46"/>
       <use x="95.410156" xlink:href="#DejaVuSans-48"/>
       <use x="159.033203" xlink:href="#DejaVuSans-49"/>
       <use x="222.65625" xlink:href="#DejaVuSans-51"/>
       <use x="286.279297" xlink:href="#DejaVuSans-53"/>
      </g>
     </g>
    </g>
    <g id="text_35">
     <!-- Número -->
     <g transform="translate(223.017347 273.409531)rotate(-90)scale(0.1 -0.1)">
      <use xlink:href="#DejaVuSans-78"/>
      <use x="74.804688" xlink:href="#DejaVuSans-250"/>
      <use x="138.183594" xlink:href="#DejaVuSans-109"/>
      <use x="235.595703" xlink:href="#DejaVuSans-101"/>
      <use x="297.119141" xlink:href="#DejaVuSans-114"/>
      <use x="338.201172" xlink:href="#DejaVuSans-111"/>
     </g>
    </g>
   </g>
   <g id="line2d_57">
    <path clip-path="url(#p3a6fa8b624)" d="M 278.663675 290.134982 
L 278.815347 299.799872 
L 278.967019 211.66543 
L 279.118691 238.827661 
L 279.270363 291.216569 
L 279.422035 204.638656 
L 279.573707 194.792727 
L 279.877051 266.808646 
L 280.028723 265.296334 
L 280.180395 289.312013 
L 280.332067 292.667145 
L 280.483739 276.062963 
L 280.635411 286.767708 
L 280.938755 251.811563 
L 281.090427 250.74656 
L 281.242099 264.180317 
L 281.393771 265.742305 
L 281.697115 293.739415 
L 282.000459 312.087273 
L 282.303803 289.433189 
L 282.455475 270.531494 
L 282.607147 268.635405 
L 282.758819 279.229846 
L 282.910491 252.503276 
L 283.213834 264.794723 
L 283.365506 259.505247 
L 283.517178 268.123956 
L 283.66885 268.898821 
L 283.820522 267.867007 
L 283.972194 268.532596 
L 284.123866 274.611304 
L 284.275538 272.718013 
L 284.42721 278.66717 
L 284.730554 268.133334 
L 284.882226 268.55035 
L 285.033898 257.787311 
L 285.18557 266.946549 
L 285.488914 272.48852 
L 285.640586 271.104901 
L 285.792258 265.573077 
L 285.94393 266.135781 
L 286.095602 264.14789 
L 286.247274 263.756518 
L 286.398946 267.729738 
L 286.550618 263.68735 
L 286.70229 266.732103 
L 286.853962 263.980619 
L 287.005634 267.639683 
L 287.157306 267.567061 
L 287.46065 266.563018 
L 287.612322 269.614106 
L 287.763994 268.573407 
L 287.915666 268.948033 
L 288.370682 280.028811 
L 288.522354 277.29001 
L 288.674026 277.188252 
L 288.825698 272.991922 
L 288.97737 272.840887 
L 289.280714 264.767851 
L 289.584058 267.577966 
L 289.73573 267.221071 
L 289.887402 267.905585 
L 290.039074 262.139029 
L 290.190746 265.064385 
L 290.49409 251.851195 
L 290.645762 251.357935 
L 290.949106 256.403309 
L 291.100778 259.92758 
L 291.25245 259.998625 
L 291.404121 257.869367 
L 291.555793 258.33189 
L 292.314153 269.033323 
L 292.465825 269.30447 
L 292.617497 268.151063 
L 292.769169 264.668269 
L 293.072513 266.927034 
L 293.224185 266.028323 
L 293.375857 263.73617 
L 293.527529 265.894738 
L 293.679201 265.822783 
L 293.830873 263.979576 
L 293.982545 264.664054 
L 294.740905 272.250177 
L 294.892577 272.149308 
L 295.044249 267.986539 
L 295.195921 268.524629 
L 295.347593 270.298507 
L 295.499265 268.142848 
L 295.954281 272.344241 
L 296.105953 269.789933 
L 296.257625 273.137033 
L 296.560969 273.397823 
L 296.712641 271.803934 
L 297.015985 276.506773 
L 297.167657 275.527581 
L 297.471001 277.969405 
L 297.926017 280.265139 
L 298.077689 280.083536 
L 298.229361 276.645588 
L 298.381033 278.601093 
L 298.532705 278.067567 
L 298.684377 282.269357 
L 298.836049 280.285258 
L 298.987721 281.454961 
L 299.291065 287.084466 
L 299.442737 286.375225 
L 299.594408 284.997903 
L 299.74608 287.965342 
L 299.897752 287.932291 
L 300.049424 287.320283 
L 300.201096 284.834399 
L 300.352768 286.224015 
L 300.656112 284.315503 
L 300.807784 285.623348 
L 300.959456 285.1317 
L 301.2628 285.633318 
L 301.717816 287.063536 
L 301.869488 287.15885 
L 302.02116 286.299958 
L 302.172832 286.462805 
L 302.324504 283.935841 
L 302.476176 284.398073 
L 302.627848 283.444588 
L 302.77952 284.773594 
L 302.931192 283.768271 
L 303.082864 283.870392 
L 303.234536 285.53724 
L 303.53788 285.766461 
L 303.689552 286.560791 
L 304.447912 293.144962 
L 304.751256 294.602306 
L 304.902928 294.06425 
L 305.0546 294.227538 
L 305.509616 290.959112 
L 305.661288 287.850981 
L 305.81296 289.530444 
L 306.267976 286.920161 
L 306.419648 286.601158 
L 306.57132 287.452578 
L 306.722992 284.533573 
L 306.874664 285.003025 
L 307.026336 284.770699 
L 307.633024 286.795954 
L 307.936367 281.80749 
L 308.088039 282.268008 
L 308.239711 281.047882 
L 308.694727 283.200384 
L 308.846399 281.609675 
L 308.998071 282.866578 
L 309.149743 282.431402 
L 309.453087 278.88221 
L 309.908103 280.228466 
L 310.059775 280.1543 
L 310.211447 281.600281 
L 310.363119 280.610053 
L 310.666463 283.12234 
L 310.969807 284.39283 
L 311.121479 283.644602 
L 311.273151 283.993772 
L 311.576495 278.622034 
L 311.728167 278.978223 
L 312.031511 278.335005 
L 312.183183 278.861701 
L 312.486527 275.766908 
L 312.638199 275.653349 
L 312.789871 275.386373 
L 313.396559 272.111836 
L 313.548231 273.073082 
L 313.699903 271.363546 
L 314.003247 270.698811 
L 314.154919 271.672026 
L 314.306591 271.553796 
L 314.458263 273.998299 
L 314.761607 274.665738 
L 315.064951 277.283423 
L 315.216623 277.836991 
L 315.671639 277.235904 
L 315.823311 274.412942 
L 316.126654 273.627968 
L 316.278326 274.421213 
L 316.429998 275.910439 
L 316.733342 274.741941 
L 316.885014 271.197804 
L 317.036686 270.737251 
L 317.34003 269.006893 
L 317.491702 269.401971 
L 317.643374 269.087036 
L 317.795046 268.252732 
L 317.946718 269.078279 
L 318.250062 268.036075 
L 318.401734 266.501463 
L 318.553406 266.578719 
L 318.705078 266.890928 
L 318.85675 266.010604 
L 319.160094 267.550827 
L 319.311766 265.443689 
L 319.463438 266.010371 
L 319.61511 265.065591 
L 319.766782 266.457914 
L 319.918454 265.456641 
L 320.070126 265.349987 
L 320.525142 261.262701 
L 320.676814 260.855137 
L 320.980158 262.948312 
L 321.13183 263.85459 
L 321.283502 263.617263 
L 321.435174 262.600749 
L 321.586846 263.340167 
L 321.738518 263.21839 
L 321.89019 263.773908 
L 322.041862 263.251824 
L 322.193534 263.134378 
L 322.345206 262.223704 
L 322.496878 262.653697 
L 322.64855 262.541863 
L 322.951894 261.937393 
L 323.255238 260.463811 
L 323.40691 259.889349 
L 323.558582 259.875477 
L 323.710254 260.149193 
L 323.861926 261.686659 
L 324.013598 261.577762 
L 324.165269 261.265 
L 325.075301 265.414472 
L 325.226973 264.935096 
L 325.985333 266.951694 
L 326.137005 267.546291 
L 326.288677 267.475542 
L 326.440349 267.925454 
L 326.743693 269.443245 
L 326.895365 267.78512 
L 327.198709 269.150614 
L 327.350381 269.354925 
L 327.502053 269.175861 
L 327.805397 269.177184 
L 327.957069 268.453731 
L 328.108741 268.646906 
L 328.260413 269.401644 
L 328.563757 269.645029 
L 328.715429 270.485783 
L 328.867101 270.157003 
L 329.018773 270.35922 
L 329.170445 271.338507 
L 329.322117 271.131516 
L 329.473789 269.380677 
L 329.625461 269.836684 
L 329.777133 269.030123 
L 329.928805 268.845746 
L 330.080477 267.534425 
L 330.383821 268.396963 
L 330.535493 268.555699 
L 330.838837 267.489334 
L 331.142181 268.377061 
L 331.293853 267.897437 
L 331.445525 268.676966 
L 331.597197 268.299425 
L 331.748869 268.661464 
L 331.900541 268.1993 
L 332.052213 268.332167 
L 332.203885 267.97357 
L 332.355556 268.833118 
L 332.507228 268.430579 
L 332.6589 268.884291 
L 332.810572 268.447824 
L 332.962244 269.02569 
L 333.113916 269.142121 
L 333.265588 269.01082 
L 333.41726 268.197652 
L 333.568932 269.303096 
L 333.872276 267.757316 
L 334.17562 268.663793 
L 334.327292 267.797495 
L 334.478964 268.237991 
L 334.630636 267.995407 
L 334.782308 268.87548 
L 334.93398 268.537254 
L 335.085652 267.455197 
L 335.237324 268.017516 
L 335.388996 267.960721 
L 335.69234 267.393754 
L 335.844012 266.707961 
L 335.995684 266.862184 
L 336.147356 266.632482 
L 336.299028 265.915611 
L 336.4507 263.644071 
L 336.602372 264.236257 
L 336.754044 263.632903 
L 336.905716 264.343348 
L 337.20906 264.161092 
L 337.360732 263.040277 
L 337.512404 262.875459 
L 337.664076 262.193127 
L 337.815748 262.166462 
L 337.96742 262.448652 
L 338.270764 261.975921 
L 338.422436 261.916071 
L 338.574108 260.817043 
L 338.877452 261.505514 
L 339.180796 262.438784 
L 339.332468 262.023671 
L 339.48414 262.360464 
L 340.090828 265.15942 
L 340.2425 265.055539 
L 340.394172 265.563779 
L 340.545843 265.609234 
L 340.697515 265.221458 
L 341.000859 266.420744 
L 341.152531 265.53439 
L 341.455875 267.158773 
L 341.607547 267.253351 
L 341.759219 267.965542 
L 341.910891 267.952543 
L 342.214235 268.74292 
L 342.365907 268.659221 
L 342.517579 269.572553 
L 342.820923 268.545443 
L 342.972595 268.27958 
L 343.124267 268.393805 
L 343.275939 268.2983 
L 343.730955 268.973739 
L 343.882627 268.244902 
L 344.034299 268.504907 
L 344.185971 267.669172 
L 344.337643 267.723056 
L 344.489315 267.302794 
L 344.640987 267.318839 
L 344.792659 267.090187 
L 344.944331 267.596311 
L 345.096003 267.237748 
L 345.247675 267.202796 
L 345.399347 267.772685 
L 345.551019 267.760045 
L 345.854363 266.694021 
L 346.006035 266.838558 
L 346.309379 267.89035 
L 346.461051 267.995745 
L 346.612723 268.2991 
L 346.916067 267.450821 
L 347.067739 268.570294 
L 347.219411 267.821939 
L 347.371083 268.326338 
L 347.522755 267.741749 
L 347.826099 268.813531 
L 347.977771 268.654109 
L 348.432787 267.737967 
L 348.584459 266.661397 
L 348.887802 266.360674 
L 349.039474 266.91858 
L 349.191146 266.320484 
L 349.49449 267.149138 
L 349.797834 266.154451 
L 349.949506 266.081678 
L 350.101178 266.475107 
L 350.25285 265.874938 
L 350.404522 265.814806 
L 350.556194 265.188247 
L 350.707866 265.80916 
L 350.859538 265.822422 
L 351.162882 266.700734 
L 351.314554 266.558194 
L 351.617898 266.025299 
L 351.76957 265.981133 
L 351.921242 265.318343 
L 352.072914 266.663287 
L 352.376258 265.40586 
L 352.52793 265.420404 
L 352.679602 265.859379 
L 352.831274 265.775033 
L 352.982946 265.896061 
L 353.134618 265.528352 
L 353.437962 266.277286 
L 353.741306 265.85545 
L 353.892978 266.084706 
L 354.04465 265.661757 
L 354.196322 265.968603 
L 354.347994 265.668875 
L 354.499666 266.260794 
L 354.651338 266.18032 
L 354.80301 266.347089 
L 354.954682 266.12022 
L 355.106354 266.764905 
L 355.409698 265.718643 
L 355.56137 265.775235 
L 355.713042 265.974765 
L 355.864714 265.6795 
L 356.016386 264.740131 
L 356.168058 264.909642 
L 356.471402 264.392486 
L 356.623074 264.288422 
L 356.774745 264.537804 
L 356.926417 264.515491 
L 357.078089 265.085558 
L 357.229761 265.073469 
L 357.381433 265.460839 
L 357.533105 265.42798 
L 357.684777 265.877787 
L 357.836449 265.314923 
L 358.139793 266.179389 
L 358.594809 266.19868 
L 358.898153 265.555971 
L 359.353169 267.016655 
L 359.504841 266.479922 
L 359.656513 266.854378 
L 359.808185 266.477183 
L 360.111529 267.010674 
L 360.263201 267.775275 
L 360.718217 267.812574 
L 360.869889 267.959778 
L 361.021561 267.556115 
L 361.173233 266.744857 
L 361.324905 266.994344 
L 361.476577 266.673339 
L 361.628249 265.909649 
L 361.931593 266.60864 
L 362.083265 266.652832 
L 362.234937 265.98501 
L 362.386609 266.759466 
L 362.538281 266.456307 
L 362.841625 267.114389 
L 362.993297 267.135481 
L 363.296641 267.346049 
L 363.751657 266.86097 
L 364.206673 266.896287 
L 364.661689 267.674181 
L 364.813361 267.705031 
L 364.965032 267.083643 
L 365.268376 267.395596 
L 365.420048 267.702688 
L 365.57172 267.346263 
L 366.026736 267.8133 
L 366.178408 267.003701 
L 366.33008 267.616868 
L 366.481752 267.513185 
L 366.785096 268.631013 
L 366.936768 268.204579 
L 367.240112 268.527908 
L 367.391784 268.532727 
L 367.695128 267.47841 
L 367.998472 267.832862 
L 368.150144 267.231891 
L 368.301816 267.204181 
L 368.756832 268.102742 
L 368.908504 267.666332 
L 369.515192 268.925383 
L 369.666864 267.853237 
L 369.818536 268.4025 
L 370.12188 267.920094 
L 370.273552 267.669908 
L 370.576896 268.150126 
L 370.728568 268.288693 
L 370.88024 267.447404 
L 371.335256 268.508598 
L 371.6386 268.39796 
L 371.790272 268.080678 
L 371.941944 268.50126 
L 372.093616 268.589946 
L 372.39696 268.14502 
L 372.548632 268.116194 
L 372.700304 268.295595 
L 372.851976 267.747214 
L 373.003648 267.75315 
L 373.306991 267.01075 
L 373.610335 267.524825 
L 373.762007 267.322685 
L 373.913679 267.705364 
L 374.065351 267.726792 
L 374.217023 267.467314 
L 374.368695 266.876038 
L 374.823711 266.817783 
L 374.975383 267.338249 
L 375.278727 266.242413 
L 375.582071 266.261319 
L 375.885415 266.689605 
L 376.188759 265.755986 
L 376.340431 266.339513 
L 376.492103 266.458863 
L 376.947119 265.80734 
L 377.250463 266.337225 
L 377.553807 265.597521 
L 377.857151 264.378855 
L 378.008823 264.643437 
L 378.160495 264.588107 
L 378.615511 265.79627 
L 378.767183 265.236942 
L 379.070527 266.062852 
L 379.373871 266.462679 
L 379.525543 266.174626 
L 379.980559 267.123788 
L 380.283903 266.315559 
L 380.435575 266.027555 
L 380.587247 266.787778 
L 380.738919 266.696184 
L 380.890591 266.872313 
L 381.042263 266.87675 
L 381.345606 265.856538 
L 381.497278 266.393489 
L 381.64895 265.784353 
L 381.800622 265.773824 
L 382.255638 266.255784 
L 382.40731 265.645497 
L 382.558982 265.620351 
L 382.862326 266.467724 
L 383.16567 265.880876 
L 383.317342 266.167478 
L 383.469014 266.01166 
L 383.92403 266.918089 
L 384.075702 266.645376 
L 384.227374 266.67861 
L 384.379046 266.983072 
L 384.68239 266.263338 
L 384.834062 266.442898 
L 384.985734 266.414027 
L 385.289078 265.614768 
L 385.44075 266.274466 
L 385.592422 265.565803 
L 385.895766 265.355283 
L 386.19911 266.248636 
L 386.502454 266.469266 
L 386.654126 266.276693 
L 386.95747 264.36713 
L 387.109142 264.639617 
L 387.260814 263.992904 
L 387.412486 263.92115 
L 387.564158 263.985697 
L 388.019174 262.778841 
L 388.170846 261.828686 
L 388.322518 261.619313 
L 388.47419 260.849217 
L 388.625862 261.004087 
L 388.929206 260.445445 
L 389.080878 260.665828 
L 389.23255 260.66821 
L 389.384222 260.446539 
L 389.535893 260.855826 
L 389.839237 259.881031 
L 389.990909 260.223668 
L 390.142581 259.986491 
L 390.294253 259.482561 
L 390.749269 260.194833 
L 390.900941 260.613324 
L 391.052613 260.470288 
L 391.204285 260.547574 
L 391.507629 260.976379 
L 391.659301 260.955689 
L 393.024349 263.12153 
L 393.176021 262.930834 
L 393.327693 263.698791 
L 393.479365 263.772578 
L 393.631037 263.641154 
L 393.782709 263.672547 
L 393.934381 263.907708 
L 394.086053 263.832198 
L 394.389397 262.778075 
L 394.692741 263.404285 
L 394.844413 263.920662 
L 394.996085 263.978938 
L 395.147757 263.492236 
L 395.602773 264.029739 
L 395.754445 263.833231 
L 396.057789 264.542413 
L 396.512805 263.976545 
L 396.967821 264.4148 
L 397.119493 264.304812 
L 397.271165 264.399736 
L 397.574509 263.836052 
L 397.72618 263.846934 
L 397.877852 264.374738 
L 398.332868 264.581458 
L 398.636212 264.189844 
L 398.939556 264.592356 
L 399.091228 264.515943 
L 399.697916 265.491761 
L 399.849588 265.151532 
L 400.00126 265.244128 
L 400.152932 265.640749 
L 400.304604 265.694889 
L 400.456276 266.365544 
L 400.75962 266.584981 
L 400.911292 266.075086 
L 401.366308 266.688585 
L 401.51798 266.93428 
L 401.821324 266.610944 
L 401.972996 266.301357 
L 402.124668 266.51157 
L 402.428012 265.242383 
L 402.579684 265.142349 
L 402.883028 265.714697 
L 403.0347 265.313826 
L 403.338044 265.892205 
L 403.641388 265.038934 
L 403.79306 264.471269 
L 403.944732 264.600807 
L 404.399748 264.480263 
L 404.854764 265.498287 
L 405.006436 265.378154 
L 405.158108 265.543972 
L 405.30978 265.2293 
L 405.461452 265.205251 
L 405.764796 265.29859 
L 406.371483 264.752226 
L 406.674827 264.226026 
L 406.978171 264.52587 
L 407.281515 264.481226 
L 407.584859 264.494753 
L 407.736531 264.636068 
L 407.888203 264.399607 
L 408.039875 264.813571 
L 408.191547 264.696944 
L 408.343219 264.72123 
L 408.646563 264.002592 
L 408.798235 264.345229 
L 409.101579 263.958996 
L 409.253251 264.074989 
L 409.404923 263.392062 
L 409.859939 262.778696 
L 410.011611 263.070504 
L 410.314955 262.257326 
L 410.466627 262.259865 
L 411.376659 263.650834 
L 411.528331 263.66282 
L 411.680003 263.850137 
L 411.983347 264.445103 
L 412.135019 264.625037 
L 412.286691 264.558837 
L 412.438363 264.360801 
L 412.590035 264.364971 
L 412.741707 264.011878 
L 412.893379 264.216326 
L 413.045051 263.907047 
L 413.196723 263.275302 
L 413.500067 263.784716 
L 414.106754 264.571906 
L 414.56177 264.58302 
L 414.865114 265.257471 
L 415.016786 265.151424 
L 415.32013 264.386314 
L 415.471802 264.283881 
L 415.623474 264.53285 
L 415.775146 264.27314 
L 416.230162 264.767103 
L 416.381834 264.763046 
L 416.533506 264.503385 
L 416.685178 264.79945 
L 416.83685 264.274361 
L 417.140194 264.616624 
L 417.291866 264.022343 
L 417.443538 263.965203 
L 417.59521 264.127412 
L 417.898554 263.477006 
L 418.35357 262.408262 
L 418.505242 262.398373 
L 418.656914 262.765142 
L 418.808586 262.401589 
L 419.11193 263.21201 
L 419.415274 263.384554 
L 419.566946 263.240357 
L 419.718618 263.285887 
L 420.021962 263.070135 
L 420.173634 263.039669 
L 420.325306 263.280087 
L 420.62865 263.082371 
L 420.780322 262.815965 
L 421.083666 263.188979 
L 421.235338 262.844492 
L 421.38701 262.92929 
L 421.538682 262.5499 
L 421.842026 262.539861 
L 421.993698 262.628015 
L 422.14537 261.728943 
L 422.297041 261.984394 
L 422.600385 261.882383 
L 422.752057 261.971539 
L 423.510417 263.245552 
L 423.662089 263.215513 
L 424.117105 263.62087 
L 424.268777 263.22924 
L 424.420449 263.627927 
L 424.723793 263.198208 
L 424.875465 263.366531 
L 425.178809 262.987769 
L 425.785497 260.180503 
L 426.240513 260.000815 
L 426.543857 260.570239 
L 426.695529 260.191405 
L 426.847201 260.208977 
L 427.150545 259.603972 
L 427.302217 259.908166 
L 427.453889 259.915158 
L 427.605561 259.802354 
L 428.212249 260.15494 
L 428.363921 259.649718 
L 428.818937 259.568189 
L 429.122281 258.971739 
L 429.273953 258.76425 
L 429.577297 258.1477 
L 429.728969 258.27849 
L 429.880641 258.237628 
L 430.032313 258.014699 
L 430.183985 257.497255 
L 430.183985 257.497255 
" style="fill:none;stroke:#1f77b4;stroke-linecap:square;stroke-width:1.5;"/>
   </g>
   <g id="patch_13">
    <path d="M 271.08766 317.952 
L 271.08766 188.928 
" style="fill:none;stroke:#000000;stroke-linecap:square;stroke-linejoin:miter;stroke-width:0.8;"/>
   </g>
   <g id="patch_14">
    <path d="M 437.76 317.952 
L 437.76 188.928 
" style="fill:none;stroke:#000000;stroke-linecap:square;stroke-linejoin:miter;stroke-width:0.8;"/>
   </g>
   <g id="patch_15">
    <path d="M 271.08766 317.952 
L 437.76 317.952 
" style="fill:none;stroke:#000000;stroke-linecap:square;stroke-linejoin:miter;stroke-width:0.8;"/>
   </g>
   <g id="patch_16">
    <path d="M 271.08766 188.928 
L 437.76 188.928 
" style="fill:none;stroke:#000000;stroke-linecap:square;stroke-linejoin:miter;stroke-width:0.8;"/>
   </g>
   <g id="text_36">
    <!-- Número promedio de clientes en cola C2 -->
    <g transform="translate(231.777267 182.928)scale(0.12 -0.12)">
     <use xlink:href="#DejaVuSans-78"/>
     <use x="74.804688" xlink:href="#DejaVuSans-250"/>
     <use x="138.183594" xlink:href="#DejaVuSans-109"/>
     <use x="235.595703" xlink:href="#DejaVuSans-101"/>
     <use x="297.119141" xlink:href="#DejaVuSans-114"/>
     <use x="338.201172" xlink:href="#DejaVuSans-111"/>
     <use x="399.382812" xlink:href="#DejaVuSans-32"/>
     <use x="431.169922" xlink:href="#DejaVuSans-112"/>
     <use x="494.646484" xlink:href="#DejaVuSans-114"/>
     <use x="535.728516" xlink:href="#DejaVuSans-111"/>
     <use x="596.910156" xlink:href="#DejaVuSans-109"/>
     <use x="694.322266" xlink:href="#DejaVuSans-101"/>
     <use x="755.845703" xlink:href="#DejaVuSans-100"/>
     <use x="819.322266" xlink:href="#DejaVuSans-105"/>
     <use x="847.105469" xlink:href="#DejaVuSans-111"/>
     <use x="908.287109" xlink:href="#DejaVuSans-32"/>
     <use x="940.074219" xlink:href="#DejaVuSans-100"/>
     <use x="1003.550781" xlink:href="#DejaVuSans-101"/>
     <use x="1065.074219" xlink:href="#DejaVuSans-32"/>
     <use x="1096.861328" xlink:href="#DejaVuSans-99"/>
     <use x="1151.841797" xlink:href="#DejaVuSans-108"/>
     <use x="1179.625" xlink:href="#DejaVuSans-105"/>
     <use x="1207.408203" xlink:href="#DejaVuSans-101"/>
     <use x="1268.931641" xlink:href="#DejaVuSans-110"/>
     <use x="1332.310547" xlink:href="#DejaVuSans-116"/>
     <use x="1371.519531" xlink:href="#DejaVuSans-101"/>
     <use x="1433.042969" xlink:href="#DejaVuSans-115"/>
     <use x="1485.142578" xlink:href="#DejaVuSans-32"/>
     <use x="1516.929688" xlink:href="#DejaVuSans-101"/>
     <use x="1578.453125" xlink:href="#DejaVuSans-110"/>
     <use x="1641.832031" xlink:href="#DejaVuSans-32"/>
     <use x="1673.619141" xlink:href="#DejaVuSans-99"/>
     <use x="1728.599609" xlink:href="#DejaVuSans-111"/>
     <use x="1789.78125" xlink:href="#DejaVuSans-108"/>
     <use x="1817.564453" xlink:href="#DejaVuSans-97"/>
     <use x="1878.84375" xlink:href="#DejaVuSans-32"/>
     <use x="1910.630859" xlink:href="#DejaVuSans-67"/>
     <use x="1980.455078" xlink:href="#DejaVuSans-50"/>
    </g>
   </g>
  </g>
 </g>
 <defs>
  <clipPath id="p893851a201">
   <rect height="129.024" width="391.68" x="46.08" y="27.648"/>
  </clipPath>
  <clipPath id="pd57ba75b90">
   <rect height="129.024" width="166.67234" x="46.08" y="188.928"/>
  </clipPath>
  <clipPath id="p3a6fa8b624">
   <rect height="129.024" width="166.67234" x="271.08766" y="188.928"/>
  </clipPath>
 </defs>
</svg>
