<?xml version="1.0" encoding="utf-8" standalone="no"?>
<!DOCTYPE svg PUBLIC "-//W3C//DTD SVG 1.1//EN"
  "http://www.w3.org/Graphics/SVG/1.1/DTD/svg11.dtd">
<!-- Created with matplotlib (https://matplotlib.org/) -->
<svg height="345.6pt" version="1.1" viewBox="0 0 460.8 345.6" width="460.8pt" xmlns="http://www.w3.org/2000/svg" xmlns:xlink="http://www.w3.org/1999/xlink">
 <defs>
  <style type="text/css">
*{stroke-linecap:butt;stroke-linejoin:round;}
  </style>
 </defs>
 <g id="figure_1">
  <g id="patch_1">
   <path d="M 0 345.6 
L 460.8 345.6 
L 460.8 0 
L 0 0 
z
" style="fill:#ffffff;"/>
  </g>
  <g id="axes_1">
   <g id="patch_2">
    <path d="M 46.08 156.672 
L 437.76 156.672 
L 437.76 27.648 
L 46.08 27.648 
z
" style="fill:#ffffff;"/>
   </g>
   <g id="matplotlib.axis_1">
    <g id="xtick_1">
     <g id="line2d_1">
      <path clip-path="url(#p50c4701cd9)" d="M 63.527207 156.672 
L 63.527207 27.648 
" style="fill:none;stroke:#b0b0b0;stroke-linecap:square;stroke-width:0.8;"/>
     </g>
     <g id="line2d_2">
      <defs>
       <path d="M 0 0 
L 0 3.5 
" id="md3a15076e3" style="stroke:#000000;stroke-width:0.8;"/>
      </defs>
      <g>
       <use style="stroke:#000000;stroke-width:0.8;" x="63.527207" xlink:href="#md3a15076e3" y="156.672"/>
      </g>
     </g>
     <g id="text_1">
      <!-- 0 -->
      <defs>
       <path d="M 31.78125 66.40625 
Q 24.171875 66.40625 20.328125 58.90625 
Q 16.5 51.421875 16.5 36.375 
Q 16.5 21.390625 20.328125 13.890625 
Q 24.171875 6.390625 31.78125 6.390625 
Q 39.453125 6.390625 43.28125 13.890625 
Q 47.125 21.390625 47.125 36.375 
Q 47.125 51.421875 43.28125 58.90625 
Q 39.453125 66.40625 31.78125 66.40625 
z
M 31.78125 74.21875 
Q 44.046875 74.21875 50.515625 64.515625 
Q 56.984375 54.828125 56.984375 36.375 
Q 56.984375 17.96875 50.515625 8.265625 
Q 44.046875 -1.421875 31.78125 -1.421875 
Q 19.53125 -1.421875 13.0625 8.265625 
Q 6.59375 17.96875 6.59375 36.375 
Q 6.59375 54.828125 13.0625 64.515625 
Q 19.53125 74.21875 31.78125 74.21875 
z
" id="DejaVuSans-48"/>
      </defs>
      <g transform="translate(60.345957 171.270437)scale(0.1 -0.1)">
       <use xlink:href="#DejaVuSans-48"/>
      </g>
     </g>
    </g>
    <g id="xtick_2">
     <g id="line2d_3">
      <path clip-path="url(#p50c4701cd9)" d="M 134.813038 156.672 
L 134.813038 27.648 
" style="fill:none;stroke:#b0b0b0;stroke-linecap:square;stroke-width:0.8;"/>
     </g>
     <g id="line2d_4">
      <g>
       <use style="stroke:#000000;stroke-width:0.8;" x="134.813038" xlink:href="#md3a15076e3" y="156.672"/>
      </g>
     </g>
     <g id="text_2">
      <!-- 200 -->
      <defs>
       <path d="M 19.1875 8.296875 
L 53.609375 8.296875 
L 53.609375 0 
L 7.328125 0 
L 7.328125 8.296875 
Q 12.9375 14.109375 22.625 23.890625 
Q 32.328125 33.6875 34.8125 36.53125 
Q 39.546875 41.84375 41.421875 45.53125 
Q 43.3125 49.21875 43.3125 52.78125 
Q 43.3125 58.59375 39.234375 62.25 
Q 35.15625 65.921875 28.609375 65.921875 
Q 23.96875 65.921875 18.8125 64.3125 
Q 13.671875 62.703125 7.8125 59.421875 
L 7.8125 69.390625 
Q 13.765625 71.78125 18.9375 73 
Q 24.125 74.21875 28.421875 74.21875 
Q 39.75 74.21875 46.484375 68.546875 
Q 53.21875 62.890625 53.21875 53.421875 
Q 53.21875 48.921875 51.53125 44.890625 
Q 49.859375 40.875 45.40625 35.40625 
Q 44.1875 33.984375 37.640625 27.21875 
Q 31.109375 20.453125 19.1875 8.296875 
z
" id="DejaVuSans-50"/>
      </defs>
      <g transform="translate(125.269288 171.270437)scale(0.1 -0.1)">
       <use xlink:href="#DejaVuSans-50"/>
       <use x="63.623047" xlink:href="#DejaVuSans-48"/>
       <use x="127.246094" xlink:href="#DejaVuSans-48"/>
      </g>
     </g>
    </g>
    <g id="xtick_3">
     <g id="line2d_5">
      <path clip-path="url(#p50c4701cd9)" d="M 206.09887 156.672 
L 206.09887 27.648 
" style="fill:none;stroke:#b0b0b0;stroke-linecap:square;stroke-width:0.8;"/>
     </g>
     <g id="line2d_6">
      <g>
       <use style="stroke:#000000;stroke-width:0.8;" x="206.09887" xlink:href="#md3a15076e3" y="156.672"/>
      </g>
     </g>
     <g id="text_3">
      <!-- 400 -->
      <defs>
       <path d="M 37.796875 64.3125 
L 12.890625 25.390625 
L 37.796875 25.390625 
z
M 35.203125 72.90625 
L 47.609375 72.90625 
L 47.609375 25.390625 
L 58.015625 25.390625 
L 58.015625 17.1875 
L 47.609375 17.1875 
L 47.609375 0 
L 37.796875 0 
L 37.796875 17.1875 
L 4.890625 17.1875 
L 4.890625 26.703125 
z
" id="DejaVuSans-52"/>
      </defs>
      <g transform="translate(196.55512 171.270437)scale(0.1 -0.1)">
       <use xlink:href="#DejaVuSans-52"/>
       <use x="63.623047" xlink:href="#DejaVuSans-48"/>
       <use x="127.246094" xlink:href="#DejaVuSans-48"/>
      </g>
     </g>
    </g>
    <g id="xtick_4">
     <g id="line2d_7">
      <path clip-path="url(#p50c4701cd9)" d="M 277.384701 156.672 
L 277.384701 27.648 
" style="fill:none;stroke:#b0b0b0;stroke-linecap:square;stroke-width:0.8;"/>
     </g>
     <g id="line2d_8">
      <g>
       <use style="stroke:#000000;stroke-width:0.8;" x="277.384701" xlink:href="#md3a15076e3" y="156.672"/>
      </g>
     </g>
     <g id="text_4">
      <!-- 600 -->
      <defs>
       <path d="M 33.015625 40.375 
Q 26.375 40.375 22.484375 35.828125 
Q 18.609375 31.296875 18.609375 23.390625 
Q 18.609375 15.53125 22.484375 10.953125 
Q 26.375 6.390625 33.015625 6.390625 
Q 39.65625 6.390625 43.53125 10.953125 
Q 47.40625 15.53125 47.40625 23.390625 
Q 47.40625 31.296875 43.53125 35.828125 
Q 39.65625 40.375 33.015625 40.375 
z
M 52.59375 71.296875 
L 52.59375 62.3125 
Q 48.875 64.0625 45.09375 64.984375 
Q 41.3125 65.921875 37.59375 65.921875 
Q 27.828125 65.921875 22.671875 59.328125 
Q 17.53125 52.734375 16.796875 39.40625 
Q 19.671875 43.65625 24.015625 45.921875 
Q 28.375 48.1875 33.59375 48.1875 
Q 44.578125 48.1875 50.953125 41.515625 
Q 57.328125 34.859375 57.328125 23.390625 
Q 57.328125 12.15625 50.6875 5.359375 
Q 44.046875 -1.421875 33.015625 -1.421875 
Q 20.359375 -1.421875 13.671875 8.265625 
Q 6.984375 17.96875 6.984375 36.375 
Q 6.984375 53.65625 15.1875 63.9375 
Q 23.390625 74.21875 37.203125 74.21875 
Q 40.921875 74.21875 44.703125 73.484375 
Q 48.484375 72.75 52.59375 71.296875 
z
" id="DejaVuSans-54"/>
      </defs>
      <g transform="translate(267.840951 171.270437)scale(0.1 -0.1)">
       <use xlink:href="#DejaVuSans-54"/>
       <use x="63.623047" xlink:href="#DejaVuSans-48"/>
       <use x="127.246094" xlink:href="#DejaVuSans-48"/>
      </g>
     </g>
    </g>
    <g id="xtick_5">
     <g id="line2d_9">
      <path clip-path="url(#p50c4701cd9)" d="M 348.670532 156.672 
L 348.670532 27.648 
" style="fill:none;stroke:#b0b0b0;stroke-linecap:square;stroke-width:0.8;"/>
     </g>
     <g id="line2d_10">
      <g>
       <use style="stroke:#000000;stroke-width:0.8;" x="348.670532" xlink:href="#md3a15076e3" y="156.672"/>
      </g>
     </g>
     <g id="text_5">
      <!-- 800 -->
      <defs>
       <path d="M 31.78125 34.625 
Q 24.75 34.625 20.71875 30.859375 
Q 16.703125 27.09375 16.703125 20.515625 
Q 16.703125 13.921875 20.71875 10.15625 
Q 24.75 6.390625 31.78125 6.390625 
Q 38.8125 6.390625 42.859375 10.171875 
Q 46.921875 13.96875 46.921875 20.515625 
Q 46.921875 27.09375 42.890625 30.859375 
Q 38.875 34.625 31.78125 34.625 
z
M 21.921875 38.8125 
Q 15.578125 40.375 12.03125 44.71875 
Q 8.5 49.078125 8.5 55.328125 
Q 8.5 64.0625 14.71875 69.140625 
Q 20.953125 74.21875 31.78125 74.21875 
Q 42.671875 74.21875 48.875 69.140625 
Q 55.078125 64.0625 55.078125 55.328125 
Q 55.078125 49.078125 51.53125 44.71875 
Q 48 40.375 41.703125 38.8125 
Q 48.828125 37.15625 52.796875 32.3125 
Q 56.78125 27.484375 56.78125 20.515625 
Q 56.78125 9.90625 50.3125 4.234375 
Q 43.84375 -1.421875 31.78125 -1.421875 
Q 19.734375 -1.421875 13.25 4.234375 
Q 6.78125 9.90625 6.78125 20.515625 
Q 6.78125 27.484375 10.78125 32.3125 
Q 14.796875 37.15625 21.921875 38.8125 
z
M 18.3125 54.390625 
Q 18.3125 48.734375 21.84375 45.5625 
Q 25.390625 42.390625 31.78125 42.390625 
Q 38.140625 42.390625 41.71875 45.5625 
Q 45.3125 48.734375 45.3125 54.390625 
Q 45.3125 60.0625 41.71875 63.234375 
Q 38.140625 66.40625 31.78125 66.40625 
Q 25.390625 66.40625 21.84375 63.234375 
Q 18.3125 60.0625 18.3125 54.390625 
z
" id="DejaVuSans-56"/>
      </defs>
      <g transform="translate(339.126782 171.270437)scale(0.1 -0.1)">
       <use xlink:href="#DejaVuSans-56"/>
       <use x="63.623047" xlink:href="#DejaVuSans-48"/>
       <use x="127.246094" xlink:href="#DejaVuSans-48"/>
      </g>
     </g>
    </g>
    <g id="xtick_6">
     <g id="line2d_11">
      <path clip-path="url(#p50c4701cd9)" d="M 419.956364 156.672 
L 419.956364 27.648 
" style="fill:none;stroke:#b0b0b0;stroke-linecap:square;stroke-width:0.8;"/>
     </g>
     <g id="line2d_12">
      <g>
       <use style="stroke:#000000;stroke-width:0.8;" x="419.956364" xlink:href="#md3a15076e3" y="156.672"/>
      </g>
     </g>
     <g id="text_6">
      <!-- 1000 -->
      <defs>
       <path d="M 12.40625 8.296875 
L 28.515625 8.296875 
L 28.515625 63.921875 
L 10.984375 60.40625 
L 10.984375 69.390625 
L 28.421875 72.90625 
L 38.28125 72.90625 
L 38.28125 8.296875 
L 54.390625 8.296875 
L 54.390625 0 
L 12.40625 0 
z
" id="DejaVuSans-49"/>
      </defs>
      <g transform="translate(407.231364 171.270437)scale(0.1 -0.1)">
       <use xlink:href="#DejaVuSans-49"/>
       <use x="63.623047" xlink:href="#DejaVuSans-48"/>
       <use x="127.246094" xlink:href="#DejaVuSans-48"/>
       <use x="190.869141" xlink:href="#DejaVuSans-48"/>
      </g>
     </g>
    </g>
    <g id="text_7">
     <!-- Corridas -->
     <defs>
      <path d="M 64.40625 67.28125 
L 64.40625 56.890625 
Q 59.421875 61.53125 53.78125 63.8125 
Q 48.140625 66.109375 41.796875 66.109375 
Q 29.296875 66.109375 22.65625 58.46875 
Q 16.015625 50.828125 16.015625 36.375 
Q 16.015625 21.96875 22.65625 14.328125 
Q 29.296875 6.6875 41.796875 6.6875 
Q 48.140625 6.6875 53.78125 8.984375 
Q 59.421875 11.28125 64.40625 15.921875 
L 64.40625 5.609375 
Q 59.234375 2.09375 53.4375 0.328125 
Q 47.65625 -1.421875 41.21875 -1.421875 
Q 24.65625 -1.421875 15.125 8.703125 
Q 5.609375 18.84375 5.609375 36.375 
Q 5.609375 53.953125 15.125 64.078125 
Q 24.65625 74.21875 41.21875 74.21875 
Q 47.75 74.21875 53.53125 72.484375 
Q 59.328125 70.75 64.40625 67.28125 
z
" id="DejaVuSans-67"/>
      <path d="M 30.609375 48.390625 
Q 23.390625 48.390625 19.1875 42.75 
Q 14.984375 37.109375 14.984375 27.296875 
Q 14.984375 17.484375 19.15625 11.84375 
Q 23.34375 6.203125 30.609375 6.203125 
Q 37.796875 6.203125 41.984375 11.859375 
Q 46.1875 17.53125 46.1875 27.296875 
Q 46.1875 37.015625 41.984375 42.703125 
Q 37.796875 48.390625 30.609375 48.390625 
z
M 30.609375 56 
Q 42.328125 56 49.015625 48.375 
Q 55.71875 40.765625 55.71875 27.296875 
Q 55.71875 13.875 49.015625 6.21875 
Q 42.328125 -1.421875 30.609375 -1.421875 
Q 18.84375 -1.421875 12.171875 6.21875 
Q 5.515625 13.875 5.515625 27.296875 
Q 5.515625 40.765625 12.171875 48.375 
Q 18.84375 56 30.609375 56 
z
" id="DejaVuSans-111"/>
      <path d="M 41.109375 46.296875 
Q 39.59375 47.171875 37.8125 47.578125 
Q 36.03125 48 33.890625 48 
Q 26.265625 48 22.1875 43.046875 
Q 18.109375 38.09375 18.109375 28.8125 
L 18.109375 0 
L 9.078125 0 
L 9.078125 54.6875 
L 18.109375 54.6875 
L 18.109375 46.1875 
Q 20.953125 51.171875 25.484375 53.578125 
Q 30.03125 56 36.53125 56 
Q 37.453125 56 38.578125 55.875 
Q 39.703125 55.765625 41.0625 55.515625 
z
" id="DejaVuSans-114"/>
      <path d="M 9.421875 54.6875 
L 18.40625 54.6875 
L 18.40625 0 
L 9.421875 0 
z
M 9.421875 75.984375 
L 18.40625 75.984375 
L 18.40625 64.59375 
L 9.421875 64.59375 
z
" id="DejaVuSans-105"/>
      <path d="M 45.40625 46.390625 
L 45.40625 75.984375 
L 54.390625 75.984375 
L 54.390625 0 
L 45.40625 0 
L 45.40625 8.203125 
Q 42.578125 3.328125 38.25 0.953125 
Q 33.9375 -1.421875 27.875 -1.421875 
Q 17.96875 -1.421875 11.734375 6.484375 
Q 5.515625 14.40625 5.515625 27.296875 
Q 5.515625 40.1875 11.734375 48.09375 
Q 17.96875 56 27.875 56 
Q 33.9375 56 38.25 53.625 
Q 42.578125 51.265625 45.40625 46.390625 
z
M 14.796875 27.296875 
Q 14.796875 17.390625 18.875 11.75 
Q 22.953125 6.109375 30.078125 6.109375 
Q 37.203125 6.109375 41.296875 11.75 
Q 45.40625 17.390625 45.40625 27.296875 
Q 45.40625 37.203125 41.296875 42.84375 
Q 37.203125 48.484375 30.078125 48.484375 
Q 22.953125 48.484375 18.875 42.84375 
Q 14.796875 37.203125 14.796875 27.296875 
z
" id="DejaVuSans-100"/>
      <path d="M 34.28125 27.484375 
Q 23.390625 27.484375 19.1875 25 
Q 14.984375 22.515625 14.984375 16.5 
Q 14.984375 11.71875 18.140625 8.90625 
Q 21.296875 6.109375 26.703125 6.109375 
Q 34.1875 6.109375 38.703125 11.40625 
Q 43.21875 16.703125 43.21875 25.484375 
L 43.21875 27.484375 
z
M 52.203125 31.203125 
L 52.203125 0 
L 43.21875 0 
L 43.21875 8.296875 
Q 40.140625 3.328125 35.546875 0.953125 
Q 30.953125 -1.421875 24.3125 -1.421875 
Q 15.921875 -1.421875 10.953125 3.296875 
Q 6 8.015625 6 15.921875 
Q 6 25.140625 12.171875 29.828125 
Q 18.359375 34.515625 30.609375 34.515625 
L 43.21875 34.515625 
L 43.21875 35.40625 
Q 43.21875 41.609375 39.140625 45 
Q 35.0625 48.390625 27.6875 48.390625 
Q 23 48.390625 18.546875 47.265625 
Q 14.109375 46.140625 10.015625 43.890625 
L 10.015625 52.203125 
Q 14.9375 54.109375 19.578125 55.046875 
Q 24.21875 56 28.609375 56 
Q 40.484375 56 46.34375 49.84375 
Q 52.203125 43.703125 52.203125 31.203125 
z
" id="DejaVuSans-97"/>
      <path d="M 44.28125 53.078125 
L 44.28125 44.578125 
Q 40.484375 46.53125 36.375 47.5 
Q 32.28125 48.484375 27.875 48.484375 
Q 21.1875 48.484375 17.84375 46.4375 
Q 14.5 44.390625 14.5 40.28125 
Q 14.5 37.15625 16.890625 35.375 
Q 19.28125 33.59375 26.515625 31.984375 
L 29.59375 31.296875 
Q 39.15625 29.25 43.1875 25.515625 
Q 47.21875 21.78125 47.21875 15.09375 
Q 47.21875 7.46875 41.1875 3.015625 
Q 35.15625 -1.421875 24.609375 -1.421875 
Q 20.21875 -1.421875 15.453125 -0.5625 
Q 10.6875 0.296875 5.421875 2 
L 5.421875 11.28125 
Q 10.40625 8.6875 15.234375 7.390625 
Q 20.0625 6.109375 24.8125 6.109375 
Q 31.15625 6.109375 34.5625 8.28125 
Q 37.984375 10.453125 37.984375 14.40625 
Q 37.984375 18.0625 35.515625 20.015625 
Q 33.0625 21.96875 24.703125 23.78125 
L 21.578125 24.515625 
Q 13.234375 26.265625 9.515625 29.90625 
Q 5.8125 33.546875 5.8125 39.890625 
Q 5.8125 47.609375 11.28125 51.796875 
Q 16.75 56 26.8125 56 
Q 31.78125 56 36.171875 55.265625 
Q 40.578125 54.546875 44.28125 53.078125 
z
" id="DejaVuSans-115"/>
     </defs>
     <g transform="translate(221.027031 184.948562)scale(0.1 -0.1)">
      <use xlink:href="#DejaVuSans-67"/>
      <use x="69.824219" xlink:href="#DejaVuSans-111"/>
      <use x="131.005859" xlink:href="#DejaVuSans-114"/>
      <use x="172.103516" xlink:href="#DejaVuSans-114"/>
      <use x="213.216797" xlink:href="#DejaVuSans-105"/>
      <use x="241" xlink:href="#DejaVuSans-100"/>
      <use x="304.476562" xlink:href="#DejaVuSans-97"/>
      <use x="365.755859" xlink:href="#DejaVuSans-115"/>
     </g>
    </g>
   </g>
   <g id="matplotlib.axis_2">
    <g id="ytick_1">
     <g id="line2d_13">
      <path clip-path="url(#p50c4701cd9)" d="M 46.08 138.209844 
L 437.76 138.209844 
" style="fill:none;stroke:#b0b0b0;stroke-linecap:square;stroke-width:0.8;"/>
     </g>
     <g id="line2d_14">
      <defs>
       <path d="M 0 0 
L -3.5 0 
" id="m86ac3f29f0" style="stroke:#000000;stroke-width:0.8;"/>
      </defs>
      <g>
       <use style="stroke:#000000;stroke-width:0.8;" x="46.08" xlink:href="#m86ac3f29f0" y="138.209844"/>
      </g>
     </g>
     <g id="text_8">
      <!-- 0.250 -->
      <defs>
       <path d="M 10.6875 12.40625 
L 21 12.40625 
L 21 0 
L 10.6875 0 
z
" id="DejaVuSans-46"/>
       <path d="M 10.796875 72.90625 
L 49.515625 72.90625 
L 49.515625 64.59375 
L 19.828125 64.59375 
L 19.828125 46.734375 
Q 21.96875 47.46875 24.109375 47.828125 
Q 26.265625 48.1875 28.421875 48.1875 
Q 40.625 48.1875 47.75 41.5 
Q 54.890625 34.8125 54.890625 23.390625 
Q 54.890625 11.625 47.5625 5.09375 
Q 40.234375 -1.421875 26.90625 -1.421875 
Q 22.3125 -1.421875 17.546875 -0.640625 
Q 12.796875 0.140625 7.71875 1.703125 
L 7.71875 11.625 
Q 12.109375 9.234375 16.796875 8.0625 
Q 21.484375 6.890625 26.703125 6.890625 
Q 35.15625 6.890625 40.078125 11.328125 
Q 45.015625 15.765625 45.015625 23.390625 
Q 45.015625 31 40.078125 35.4375 
Q 35.15625 39.890625 26.703125 39.890625 
Q 22.75 39.890625 18.8125 39.015625 
Q 14.890625 38.140625 10.796875 36.28125 
z
" id="DejaVuSans-53"/>
      </defs>
      <g transform="translate(10.451875 142.009063)scale(0.1 -0.1)">
       <use xlink:href="#DejaVuSans-48"/>
       <use x="63.623047" xlink:href="#DejaVuSans-46"/>
       <use x="95.410156" xlink:href="#DejaVuSans-50"/>
       <use x="159.033203" xlink:href="#DejaVuSans-53"/>
       <use x="222.65625" xlink:href="#DejaVuSans-48"/>
      </g>
     </g>
    </g>
    <g id="ytick_2">
     <g id="line2d_15">
      <path clip-path="url(#p50c4701cd9)" d="M 46.08 107.857491 
L 437.76 107.857491 
" style="fill:none;stroke:#b0b0b0;stroke-linecap:square;stroke-width:0.8;"/>
     </g>
     <g id="line2d_16">
      <g>
       <use style="stroke:#000000;stroke-width:0.8;" x="46.08" xlink:href="#m86ac3f29f0" y="107.857491"/>
      </g>
     </g>
     <g id="text_9">
      <!-- 0.252 -->
      <g transform="translate(10.451875 111.65671)scale(0.1 -0.1)">
       <use xlink:href="#DejaVuSans-48"/>
       <use x="63.623047" xlink:href="#DejaVuSans-46"/>
       <use x="95.410156" xlink:href="#DejaVuSans-50"/>
       <use x="159.033203" xlink:href="#DejaVuSans-53"/>
       <use x="222.65625" xlink:href="#DejaVuSans-50"/>
      </g>
     </g>
    </g>
    <g id="ytick_3">
     <g id="line2d_17">
      <path clip-path="url(#p50c4701cd9)" d="M 46.08 77.505138 
L 437.76 77.505138 
" style="fill:none;stroke:#b0b0b0;stroke-linecap:square;stroke-width:0.8;"/>
     </g>
     <g id="line2d_18">
      <g>
       <use style="stroke:#000000;stroke-width:0.8;" x="46.08" xlink:href="#m86ac3f29f0" y="77.505138"/>
      </g>
     </g>
     <g id="text_10">
      <!-- 0.254 -->
      <g transform="translate(10.451875 81.304357)scale(0.1 -0.1)">
       <use xlink:href="#DejaVuSans-48"/>
       <use x="63.623047" xlink:href="#DejaVuSans-46"/>
       <use x="95.410156" xlink:href="#DejaVuSans-50"/>
       <use x="159.033203" xlink:href="#DejaVuSans-53"/>
       <use x="222.65625" xlink:href="#DejaVuSans-52"/>
      </g>
     </g>
    </g>
    <g id="ytick_4">
     <g id="line2d_19">
      <path clip-path="url(#p50c4701cd9)" d="M 46.08 47.152785 
L 437.76 47.152785 
" style="fill:none;stroke:#b0b0b0;stroke-linecap:square;stroke-width:0.8;"/>
     </g>
     <g id="line2d_20">
      <g>
       <use style="stroke:#000000;stroke-width:0.8;" x="46.08" xlink:href="#m86ac3f29f0" y="47.152785"/>
      </g>
     </g>
     <g id="text_11">
      <!-- 0.256 -->
      <g transform="translate(10.451875 50.952004)scale(0.1 -0.1)">
       <use xlink:href="#DejaVuSans-48"/>
       <use x="63.623047" xlink:href="#DejaVuSans-46"/>
       <use x="95.410156" xlink:href="#DejaVuSans-50"/>
       <use x="159.033203" xlink:href="#DejaVuSans-53"/>
       <use x="222.65625" xlink:href="#DejaVuSans-54"/>
      </g>
     </g>
    </g>
    <g id="text_12">
     <!-- Utilización -->
     <defs>
      <path d="M 8.6875 72.90625 
L 18.609375 72.90625 
L 18.609375 28.609375 
Q 18.609375 16.890625 22.84375 11.734375 
Q 27.09375 6.59375 36.625 6.59375 
Q 46.09375 6.59375 50.34375 11.734375 
Q 54.59375 16.890625 54.59375 28.609375 
L 54.59375 72.90625 
L 64.5 72.90625 
L 64.5 27.390625 
Q 64.5 13.140625 57.4375 5.859375 
Q 50.390625 -1.421875 36.625 -1.421875 
Q 22.796875 -1.421875 15.734375 5.859375 
Q 8.6875 13.140625 8.6875 27.390625 
z
" id="DejaVuSans-85"/>
      <path d="M 18.3125 70.21875 
L 18.3125 54.6875 
L 36.8125 54.6875 
L 36.8125 47.703125 
L 18.3125 47.703125 
L 18.3125 18.015625 
Q 18.3125 11.328125 20.140625 9.421875 
Q 21.96875 7.515625 27.59375 7.515625 
L 36.8125 7.515625 
L 36.8125 0 
L 27.59375 0 
Q 17.1875 0 13.234375 3.875 
Q 9.28125 7.765625 9.28125 18.015625 
L 9.28125 47.703125 
L 2.6875 47.703125 
L 2.6875 54.6875 
L 9.28125 54.6875 
L 9.28125 70.21875 
z
" id="DejaVuSans-116"/>
      <path d="M 9.421875 75.984375 
L 18.40625 75.984375 
L 18.40625 0 
L 9.421875 0 
z
" id="DejaVuSans-108"/>
      <path d="M 5.515625 54.6875 
L 48.1875 54.6875 
L 48.1875 46.484375 
L 14.40625 7.171875 
L 48.1875 7.171875 
L 48.1875 0 
L 4.296875 0 
L 4.296875 8.203125 
L 38.09375 47.515625 
L 5.515625 47.515625 
z
" id="DejaVuSans-122"/>
      <path d="M 48.78125 52.59375 
L 48.78125 44.1875 
Q 44.96875 46.296875 41.140625 47.34375 
Q 37.3125 48.390625 33.40625 48.390625 
Q 24.65625 48.390625 19.8125 42.84375 
Q 14.984375 37.3125 14.984375 27.296875 
Q 14.984375 17.28125 19.8125 11.734375 
Q 24.65625 6.203125 33.40625 6.203125 
Q 37.3125 6.203125 41.140625 7.25 
Q 44.96875 8.296875 48.78125 10.40625 
L 48.78125 2.09375 
Q 45.015625 0.34375 40.984375 -0.53125 
Q 36.96875 -1.421875 32.421875 -1.421875 
Q 20.0625 -1.421875 12.78125 6.34375 
Q 5.515625 14.109375 5.515625 27.296875 
Q 5.515625 40.671875 12.859375 48.328125 
Q 20.21875 56 33.015625 56 
Q 37.15625 56 41.109375 55.140625 
Q 45.0625 54.296875 48.78125 52.59375 
z
" id="DejaVuSans-99"/>
      <path d="M 30.609375 48.390625 
Q 23.390625 48.390625 19.1875 42.75 
Q 14.984375 37.109375 14.984375 27.296875 
Q 14.984375 17.484375 19.15625 11.84375 
Q 23.34375 6.203125 30.609375 6.203125 
Q 37.796875 6.203125 41.984375 11.859375 
Q 46.1875 17.53125 46.1875 27.296875 
Q 46.1875 37.015625 41.984375 42.703125 
Q 37.796875 48.390625 30.609375 48.390625 
z
M 30.609375 56 
Q 42.328125 56 49.015625 48.375 
Q 55.71875 40.765625 55.71875 27.296875 
Q 55.71875 13.875 49.015625 6.21875 
Q 42.328125 -1.421875 30.609375 -1.421875 
Q 18.84375 -1.421875 12.171875 6.21875 
Q 5.515625 13.875 5.515625 27.296875 
Q 5.515625 40.765625 12.171875 48.375 
Q 18.84375 56 30.609375 56 
z
M 37.40625 79.984375 
L 47.125 79.984375 
L 31.21875 61.625 
L 23.734375 61.625 
z
" id="DejaVuSans-243"/>
      <path d="M 54.890625 33.015625 
L 54.890625 0 
L 45.90625 0 
L 45.90625 32.71875 
Q 45.90625 40.484375 42.875 44.328125 
Q 39.84375 48.1875 33.796875 48.1875 
Q 26.515625 48.1875 22.3125 43.546875 
Q 18.109375 38.921875 18.109375 30.90625 
L 18.109375 0 
L 9.078125 0 
L 9.078125 54.6875 
L 18.109375 54.6875 
L 18.109375 46.1875 
Q 21.34375 51.125 25.703125 53.5625 
Q 30.078125 56 35.796875 56 
Q 45.21875 56 50.046875 50.171875 
Q 54.890625 44.34375 54.890625 33.015625 
z
" id="DejaVuSans-110"/>
     </defs>
     <g transform="translate(4.372188 118.001406)rotate(-90)scale(0.1 -0.1)">
      <use xlink:href="#DejaVuSans-85"/>
      <use x="73.193359" xlink:href="#DejaVuSans-116"/>
      <use x="112.402344" xlink:href="#DejaVuSans-105"/>
      <use x="140.185547" xlink:href="#DejaVuSans-108"/>
      <use x="167.96875" xlink:href="#DejaVuSans-105"/>
      <use x="195.751953" xlink:href="#DejaVuSans-122"/>
      <use x="248.242188" xlink:href="#DejaVuSans-97"/>
      <use x="309.521484" xlink:href="#DejaVuSans-99"/>
      <use x="364.501953" xlink:href="#DejaVuSans-105"/>
      <use x="392.285156" xlink:href="#DejaVuSans-243"/>
      <use x="453.466797" xlink:href="#DejaVuSans-110"/>
     </g>
    </g>
   </g>
   <g id="line2d_21">
    <path clip-path="url(#p50c4701cd9)" d="M 63.883636 43.765229 
L 64.240066 115.816868 
L 64.596495 106.090452 
L 64.952924 56.645507 
L 65.309353 80.46423 
L 65.665782 33.512727 
L 66.022211 44.534576 
L 66.37864 73.03516 
L 66.73507 72.550201 
L 67.091499 66.124976 
L 67.447928 128.516019 
L 67.804357 144.596076 
L 68.160786 131.987624 
L 68.517215 138.079567 
L 69.230074 98.211215 
L 69.586503 121.214276 
L 69.942932 109.453945 
L 70.299361 112.133006 
L 70.65579 131.36112 
L 71.012219 126.80577 
L 71.725078 146.602451 
L 72.081507 150.807273 
L 72.794365 126.189177 
L 73.507224 137.103283 
L 73.863653 128.40084 
L 74.220082 130.362724 
L 74.576511 136.952701 
L 74.93294 135.570068 
L 75.289369 134.63382 
L 75.645799 134.517733 
L 76.002228 130.042246 
L 76.358657 133.510957 
L 76.715086 124.717872 
L 77.071515 127.045716 
L 77.427944 132.621354 
L 77.784373 134.360959 
L 78.140803 142.388503 
L 78.497232 147.307702 
L 78.853661 141.029632 
L 79.21009 146.971218 
L 79.566519 142.868628 
L 79.922948 135.048848 
L 80.279378 136.506295 
L 80.635807 135.684265 
L 80.992236 135.147434 
L 81.348665 138.66154 
L 81.705094 133.806234 
L 82.417952 134.543214 
L 82.774382 131.352511 
L 83.130811 131.508934 
L 83.48724 130.033324 
L 83.843669 131.703389 
L 84.200098 124.305131 
L 84.556527 121.975363 
L 84.912957 122.019755 
L 85.269386 120.455345 
L 85.625815 121.822699 
L 85.982244 124.77091 
L 86.338673 124.880667 
L 86.695102 126.864589 
L 87.051532 129.623387 
L 87.407961 129.160641 
L 87.76439 130.981457 
L 88.120819 137.206615 
L 88.833677 130.662152 
L 89.190106 129.488762 
L 89.546536 129.879962 
L 90.259394 125.04058 
L 90.615823 126.095341 
L 90.972252 124.92442 
L 91.328681 127.317417 
L 91.685111 124.954695 
L 92.04154 127.463036 
L 92.397969 125.666784 
L 92.754398 124.869279 
L 93.110827 127.757022 
L 93.467256 129.629006 
L 93.823686 126.527784 
L 94.180115 125.702594 
L 94.536544 125.513039 
L 94.892973 126.035719 
L 95.249402 128.619804 
L 95.605831 127.812833 
L 95.96226 129.414127 
L 96.31869 130.161909 
L 96.675119 136.178904 
L 97.031548 131.479647 
L 97.387977 133.222838 
L 97.744406 132.208701 
L 98.100835 132.300711 
L 98.457265 124.429803 
L 99.170123 128.513161 
L 99.526552 129.924176 
L 99.882981 130.437209 
L 100.23941 130.240654 
L 100.595839 130.630568 
L 101.665127 135.9037 
L 102.021556 136.820822 
L 102.377985 134.661014 
L 102.734414 134.011239 
L 103.090844 134.509309 
L 103.447273 135.51643 
L 103.803702 135.382426 
L 104.160131 135.415387 
L 104.51656 138.873423 
L 104.872989 139.880869 
L 105.229419 140.013903 
L 105.585848 139.111386 
L 106.655135 142.820335 
L 107.011564 142.683169 
L 107.367993 140.197503 
L 107.724423 143.102648 
L 108.437281 141.264201 
L 109.150139 135.648077 
L 109.506568 134.594758 
L 109.862998 131.286401 
L 110.219427 135.487878 
L 110.575856 136.951394 
L 110.932285 139.145777 
L 111.288714 139.297388 
L 111.645143 138.876293 
L 112.001572 138.923699 
L 112.358002 139.336023 
L 112.714431 138.720955 
L 113.07086 137.263049 
L 113.427289 139.89839 
L 113.783718 140.461816 
L 114.140147 140.425092 
L 114.496577 141.122138 
L 114.853006 139.687451 
L 115.209435 138.933002 
L 115.565864 138.628371 
L 115.922293 139.295962 
L 116.278722 140.666091 
L 116.635152 140.828583 
L 117.704439 143.18848 
L 118.060868 143.47453 
L 118.417297 143.589172 
L 118.773726 142.375895 
L 119.130156 141.680869 
L 119.486585 143.017869 
L 119.843014 142.239872 
L 120.555872 143.874778 
L 120.912301 142.719891 
L 121.268731 142.674204 
L 121.62516 143.766999 
L 122.338018 142.902209 
L 122.694447 142.140852 
L 123.050876 143.295923 
L 123.407305 142.844448 
L 123.763735 143.048941 
L 124.120164 143.439662 
L 124.476593 143.58126 
L 124.833022 145.235933 
L 125.189451 146.32906 
L 125.54588 146.485648 
L 125.90231 147.943256 
L 126.258739 147.218531 
L 126.615168 148.498696 
L 126.971597 148.614681 
L 127.684455 145.218453 
L 128.397314 143.723117 
L 128.753743 144.302773 
L 129.110172 143.664623 
L 129.466601 142.481089 
L 129.82303 140.37416 
L 130.535889 143.109982 
L 131.248747 142.237129 
L 131.605176 143.429128 
L 132.318034 140.711382 
L 132.674464 141.121242 
L 133.030893 140.607474 
L 133.387322 141.151423 
L 133.743751 140.826514 
L 134.10018 141.067122 
L 134.456609 142.328128 
L 135.169468 143.292938 
L 135.525897 142.999539 
L 135.882326 142.956772 
L 136.238755 143.377395 
L 136.951613 142.479971 
L 137.664472 141.04664 
L 138.020901 141.451208 
L 138.37733 140.514389 
L 138.733759 138.588561 
L 139.090188 139.086359 
L 139.446618 138.095297 
L 139.803047 138.749241 
L 140.159476 138.5777 
L 140.515905 140.050396 
L 140.872334 138.645686 
L 141.228763 137.709432 
L 141.941622 135.312865 
L 142.298051 134.187889 
L 142.65448 135.188034 
L 143.010909 134.221082 
L 143.367338 134.336057 
L 143.723767 134.754764 
L 144.080197 135.661951 
L 144.436626 135.031466 
L 144.793055 134.645496 
L 145.149484 133.83979 
L 145.505913 133.910407 
L 145.862342 135.29209 
L 146.218771 135.483864 
L 146.575201 134.952666 
L 146.93163 135.488503 
L 147.288059 135.38396 
L 147.644488 135.553005 
L 148.000917 137.184155 
L 148.357346 135.667586 
L 148.713776 136.013169 
L 149.070205 135.728402 
L 149.426634 134.828813 
L 149.783063 134.991894 
L 150.139492 134.524951 
L 150.495921 134.690769 
L 150.852351 133.927086 
L 151.20878 132.849079 
L 151.565209 132.465693 
L 151.921638 131.764445 
L 152.278067 132.42671 
L 152.634496 133.488385 
L 153.347355 134.700731 
L 153.703784 133.85696 
L 154.416642 134.363884 
L 155.48593 136.195071 
L 155.842359 136.169788 
L 156.198788 135.911614 
L 156.555217 137.046842 
L 156.911646 137.048198 
L 157.268075 137.392553 
L 157.624505 138.481356 
L 157.980934 138.255186 
L 158.337363 137.095319 
L 158.693792 137.576798 
L 159.050221 137.325651 
L 159.40665 136.90992 
L 159.763079 136.224108 
L 160.119509 134.805779 
L 160.475938 135.065613 
L 160.832367 134.958028 
L 161.188796 135.612752 
L 161.545225 135.430109 
L 161.901654 134.347699 
L 162.258084 134.466836 
L 162.614513 134.094308 
L 162.970942 134.121514 
L 163.327371 134.97114 
L 163.6838 133.745289 
L 164.040229 133.477993 
L 164.396658 133.729319 
L 164.753088 132.814476 
L 165.465946 134.182426 
L 165.822375 133.891161 
L 166.178804 134.076663 
L 166.535233 133.863639 
L 166.891663 135.075058 
L 167.248092 134.418486 
L 167.604521 134.98074 
L 167.96095 134.815396 
L 169.386667 132.118536 
L 169.743096 131.41221 
L 170.099525 131.496596 
L 170.455954 130.411508 
L 170.812383 131.332631 
L 171.168812 130.824513 
L 171.525242 130.540435 
L 172.2381 133.247363 
L 172.594529 133.684757 
L 172.950958 134.655116 
L 173.307387 134.412426 
L 173.663817 134.644698 
L 174.376675 133.18305 
L 174.733104 132.880499 
L 175.089533 133.711418 
L 175.445962 135.545668 
L 175.802391 135.717081 
L 176.158821 135.698098 
L 177.228108 134.151688 
L 177.584537 134.962942 
L 177.940966 135.321443 
L 178.297396 136.026666 
L 178.653825 135.546893 
L 179.366683 135.316142 
L 179.723112 134.321209 
L 180.079541 134.571882 
L 180.435971 135.023577 
L 180.7924 134.58006 
L 181.148829 133.883059 
L 181.505258 133.959368 
L 181.861687 133.548038 
L 182.218116 133.323248 
L 182.574545 133.722658 
L 182.930975 132.79073 
L 183.287404 133.093528 
L 183.643833 134.210774 
L 184.000262 133.59997 
L 184.356691 133.507959 
L 184.71312 133.650826 
L 185.06955 133.235686 
L 185.425979 134.75316 
L 186.138837 134.373026 
L 186.495266 134.939127 
L 186.851695 134.962475 
L 187.208124 134.730014 
L 187.564554 134.702261 
L 188.633841 135.01365 
L 188.99027 134.357685 
L 189.346699 134.121633 
L 190.059558 135.981264 
L 190.415987 135.784202 
L 190.772416 135.830532 
L 191.128845 135.400221 
L 191.485274 134.562188 
L 192.198133 135.36466 
L 192.554562 135.796459 
L 192.910991 136.020962 
L 193.26742 135.459324 
L 193.623849 135.954087 
L 193.980278 136.722307 
L 194.336708 135.942156 
L 194.693137 135.44036 
L 195.049566 135.547963 
L 195.405995 134.824969 
L 195.762424 135.206061 
L 196.118853 135.188159 
L 196.475283 134.718114 
L 196.831712 135.457744 
L 197.54457 136.239395 
L 197.900999 135.650886 
L 198.257428 135.759207 
L 198.613857 135.40369 
L 199.326716 136.315809 
L 199.683145 135.382338 
L 200.039574 135.898731 
L 200.396003 135.226375 
L 200.752432 135.483422 
L 201.108862 135.577387 
L 201.465291 135.085234 
L 201.82172 135.810572 
L 202.178149 136.202417 
L 202.534578 135.8453 
L 202.891007 135.985234 
L 203.247437 135.942382 
L 203.603866 134.856672 
L 203.960295 134.794653 
L 204.316724 135.121257 
L 204.673153 136.293208 
L 205.386011 136.756105 
L 205.742441 137.636881 
L 206.09887 137.625974 
L 206.455299 138.036254 
L 206.811728 138.762523 
L 207.168157 138.560795 
L 207.881016 139.885215 
L 208.237445 138.619316 
L 208.593874 138.775041 
L 209.306732 138.892659 
L 209.663161 138.348123 
L 210.01959 138.679831 
L 210.37602 139.476776 
L 211.088878 138.769772 
L 211.445307 138.520972 
L 211.801736 138.421571 
L 212.158165 138.909293 
L 212.514595 139.066378 
L 212.871024 138.801424 
L 213.583882 138.899739 
L 213.940311 138.905501 
L 214.29674 139.135714 
L 214.65317 138.990667 
L 215.009599 139.286082 
L 215.366028 140.052427 
L 215.722457 140.408084 
L 216.078886 139.923516 
L 216.435315 140.345423 
L 216.791744 139.889218 
L 217.148174 140.219365 
L 217.504603 139.935227 
L 217.861032 139.982959 
L 218.930319 139.128289 
L 219.286749 139.673664 
L 219.643178 139.60233 
L 219.999607 139.155025 
L 220.356036 139.020794 
L 221.068894 140.152604 
L 221.425324 139.714606 
L 221.781753 139.526864 
L 222.138182 139.068989 
L 222.494611 139.437629 
L 222.85104 139.45578 
L 223.207469 139.91839 
L 223.563898 139.640595 
L 224.276757 138.134463 
L 224.633186 139.225457 
L 224.989615 138.79134 
L 225.346044 139.260191 
L 225.702473 138.542891 
L 226.058903 138.718378 
L 226.415332 138.603099 
L 226.771761 138.635814 
L 227.841048 137.185832 
L 228.197477 136.895235 
L 229.266765 139.727229 
L 229.623194 139.655553 
L 229.979623 139.859779 
L 230.336052 140.454529 
L 231.048911 140.267585 
L 231.40534 139.985416 
L 231.761769 139.899706 
L 232.118198 139.199208 
L 232.474627 138.787579 
L 232.831057 138.80342 
L 233.187486 139.186696 
L 233.543915 139.831414 
L 233.900344 139.104494 
L 234.256773 139.464093 
L 234.613202 139.46687 
L 235.326061 140.330066 
L 235.68249 139.885345 
L 236.395348 140.270519 
L 237.108206 140.873588 
L 237.464636 141.265988 
L 238.533923 140.67505 
L 238.890352 140.666572 
L 239.246781 140.895188 
L 239.60321 141.397621 
L 239.95964 141.335039 
L 240.316069 140.962406 
L 240.672498 140.804697 
L 241.028927 140.170186 
L 241.385356 140.94825 
L 241.741785 140.950096 
L 242.098215 142.029216 
L 242.454644 142.057281 
L 243.167502 142.417563 
L 243.523931 142.884971 
L 243.88036 142.617337 
L 244.23679 142.679404 
L 244.949648 142.45983 
L 245.306077 142.189732 
L 246.018935 142.77368 
L 246.375364 142.934059 
L 247.088223 142.572641 
L 247.444652 142.78352 
L 247.801081 142.809028 
L 248.15751 142.956854 
L 248.513939 142.6666 
L 248.870369 142.8348 
L 249.226798 143.283578 
L 249.583227 143.259527 
L 250.296085 143.751 
L 250.652514 143.41645 
L 251.008943 143.446963 
L 251.365373 143.859392 
L 251.721802 143.026604 
L 252.078231 143.148491 
L 252.43466 142.485463 
L 253.503948 143.194236 
L 254.216806 143.195517 
L 254.573235 142.749582 
L 255.286093 143.39882 
L 255.998952 142.455487 
L 256.355381 143.137862 
L 256.71181 143.517342 
L 257.068239 143.667973 
L 257.781097 141.807094 
L 258.137527 142.213911 
L 259.206814 142.492165 
L 259.563243 142.791598 
L 260.276102 142.772089 
L 260.98896 142.135329 
L 261.345389 142.510508 
L 261.701818 142.298904 
L 262.414676 141.140117 
L 262.771106 140.50131 
L 263.127535 140.22084 
L 263.483964 139.663459 
L 263.840393 139.699276 
L 264.196822 139.462122 
L 264.553251 139.397065 
L 264.909681 139.106111 
L 265.622539 139.0608 
L 265.978968 139.483763 
L 266.335397 139.683738 
L 266.691826 139.672213 
L 267.048256 139.542882 
L 267.404685 139.917216 
L 267.761114 140.662345 
L 268.473972 139.975522 
L 269.18683 140.254352 
L 269.54326 139.457794 
L 270.612547 140.802799 
L 270.968976 140.986889 
L 271.325405 140.979558 
L 271.681835 141.270751 
L 272.038264 141.298235 
L 272.394693 141.203156 
L 273.107551 141.697943 
L 273.46398 141.703714 
L 274.176839 140.985871 
L 275.602555 141.191335 
L 275.958984 140.605399 
L 276.671843 141.192349 
L 277.384701 141.81204 
L 277.74113 141.76791 
L 278.097559 141.984125 
L 278.453989 141.830775 
L 278.810418 141.871073 
L 279.166847 142.316844 
L 279.879705 142.626219 
L 280.236134 143.083752 
L 280.592563 142.656206 
L 280.948993 142.411543 
L 281.305422 141.81931 
L 281.661851 141.838257 
L 282.01828 141.600154 
L 282.731138 140.716149 
L 283.087568 140.549724 
L 285.226143 140.934097 
L 285.582572 140.98577 
L 285.939001 141.405443 
L 286.29543 141.016081 
L 287.008288 140.888892 
L 287.721147 139.987006 
L 288.790434 139.233804 
L 289.146863 139.658913 
L 289.503292 139.802238 
L 289.859722 139.667742 
L 290.216151 139.384728 
L 290.929009 139.698374 
L 291.285438 139.236731 
L 291.998296 139.000284 
L 292.354726 138.639296 
L 292.711155 138.605356 
L 293.067584 139.083244 
L 293.424013 139.274604 
L 293.780442 139.124197 
L 294.136871 138.831356 
L 294.493301 139.030963 
L 295.206159 138.767402 
L 295.562588 139.335796 
L 295.919017 139.413236 
L 296.275446 139.236898 
L 296.631876 138.816195 
L 296.988305 139.262288 
L 297.344734 138.915465 
L 297.701163 138.9939 
L 298.057592 138.947137 
L 298.77045 138.626093 
L 299.483309 138.843537 
L 299.839738 139.190022 
L 300.196167 139.845227 
L 300.552596 139.815094 
L 300.909025 139.954574 
L 301.265455 140.326771 
L 301.621884 140.045802 
L 301.978313 139.447213 
L 302.691171 139.549608 
L 303.0476 139.825676 
L 303.404029 139.866341 
L 304.473317 138.736986 
L 305.542604 139.194166 
L 306.255463 138.633857 
L 306.611892 138.789348 
L 307.32475 138.607669 
L 308.037609 139.050733 
L 308.394038 138.688073 
L 308.750467 139.012963 
L 309.106896 139.04071 
L 309.463325 138.746689 
L 309.819754 138.789358 
L 310.532613 138.534393 
L 310.889042 138.859666 
L 311.245471 138.454309 
L 311.6019 138.54398 
L 311.958329 138.226299 
L 312.314758 138.494275 
L 312.671188 138.15874 
L 313.384046 138.067888 
L 313.740475 138.178957 
L 314.096904 137.662551 
L 314.453333 137.482768 
L 314.809762 137.786762 
L 315.522621 137.995793 
L 316.235479 137.760475 
L 316.591908 137.521739 
L 316.948337 138.041207 
L 318.374054 137.246214 
L 318.730483 137.929829 
L 319.799771 137.649877 
L 320.1562 137.820591 
L 320.512629 137.145251 
L 320.869058 137.08211 
L 321.938346 136.635192 
L 322.294775 136.767099 
L 322.651204 136.500563 
L 323.007633 136.434084 
L 323.720491 136.660304 
L 324.43335 136.91384 
L 324.789779 136.61188 
L 325.146208 136.524344 
L 325.502637 136.13923 
L 325.859066 136.103368 
L 326.571925 135.80923 
L 327.997641 135.828759 
L 328.35407 135.897497 
L 328.7105 135.676073 
L 329.066929 135.721888 
L 329.779787 136.283312 
L 330.136216 135.855298 
L 330.849075 136.347758 
L 331.205504 136.218602 
L 331.561933 136.522501 
L 331.918362 136.505056 
L 332.63122 135.856477 
L 333.344079 136.595533 
L 333.700508 136.749616 
L 334.056937 136.530698 
L 335.126224 137.036004 
L 335.839083 137.21641 
L 336.195512 137.502868 
L 336.551941 137.468618 
L 336.90837 138.052179 
L 337.264799 138.016956 
L 337.621229 137.74593 
L 337.977658 137.617646 
L 338.334087 137.905772 
L 338.690516 137.94666 
L 339.046945 137.791967 
L 339.403374 137.853584 
L 339.759803 137.366547 
L 340.116233 137.265692 
L 340.472662 137.560441 
L 340.829091 137.535571 
L 341.18552 137.672392 
L 341.541949 137.462938 
L 341.898378 137.662151 
L 342.254808 138.071899 
L 342.611237 138.237588 
L 343.324095 137.863225 
L 344.036953 138.070539 
L 344.393382 138.048628 
L 344.749812 137.754886 
L 346.175528 137.43065 
L 346.531957 137.642681 
L 346.888387 137.684385 
L 347.244816 137.476525 
L 347.957674 138.129897 
L 349.026962 137.569526 
L 349.383391 137.760515 
L 349.73982 137.496553 
L 350.096249 137.475899 
L 350.452678 137.612906 
L 350.809107 137.534206 
L 351.521966 137.666304 
L 351.878395 138.009958 
L 352.234824 138.671439 
L 353.304111 139.647652 
L 354.01697 139.775701 
L 354.373399 140.004974 
L 354.729828 139.785963 
L 355.086257 140.446287 
L 355.799115 140.437796 
L 356.155545 139.884667 
L 356.511974 139.781984 
L 356.868403 139.909309 
L 357.224832 139.804408 
L 357.581261 139.56856 
L 358.29412 138.843955 
L 358.650549 138.649517 
L 359.006978 138.828945 
L 359.363407 138.849221 
L 359.719836 139.058289 
L 360.076265 139.457844 
L 360.789124 139.628593 
L 361.145553 139.354966 
L 361.501982 138.834138 
L 361.858411 138.614943 
L 362.21484 138.929497 
L 362.571269 138.576929 
L 362.927699 138.39639 
L 363.996986 138.456655 
L 364.709844 138.053159 
L 365.066274 138.302085 
L 365.422703 138.094176 
L 365.779132 138.051271 
L 366.135561 138.184301 
L 366.49199 138.143122 
L 366.848419 137.921508 
L 367.204848 137.839982 
L 367.561278 138.103005 
L 367.917707 138.100361 
L 368.274136 137.756908 
L 368.630565 137.924516 
L 368.986994 137.613906 
L 369.343423 137.614465 
L 369.699853 138.002704 
L 370.056282 138.218075 
L 370.412711 138.060674 
L 370.76914 138.136414 
L 371.125569 138.047921 
L 371.481998 137.689392 
L 371.838428 137.752944 
L 372.194857 137.303857 
L 372.907715 137.290506 
L 373.264144 137.171857 
L 374.333432 137.638401 
L 374.689861 137.60891 
L 375.04629 137.247548 
L 375.759148 137.476954 
L 376.828436 137.570708 
L 377.184865 137.774798 
L 377.541294 137.768964 
L 377.897723 138.311553 
L 378.254152 138.178357 
L 378.610581 138.201627 
L 378.967011 137.960543 
L 379.679869 137.99658 
L 380.036298 137.667435 
L 380.749156 137.645179 
L 381.105586 137.345595 
L 381.818444 137.243059 
L 382.174873 137.008576 
L 382.887731 137.048776 
L 383.244161 136.70142 
L 383.60059 137.225411 
L 385.382735 136.905812 
L 385.739165 136.634956 
L 386.095594 136.216664 
L 386.452023 136.769156 
L 387.164881 136.898706 
L 387.52131 136.744993 
L 388.234169 136.825626 
L 389.303456 136.625715 
L 390.016314 136.880874 
L 390.372744 137.163706 
L 390.729173 137.26818 
L 391.085602 136.727317 
L 391.442031 136.804176 
L 391.79846 136.592626 
L 392.154889 136.567845 
L 392.867748 136.877246 
L 393.224177 136.455814 
L 393.580606 136.399547 
L 393.937035 136.863269 
L 394.293464 136.892427 
L 394.649894 137.150449 
L 395.719181 136.567983 
L 397.501327 137.179286 
L 397.857756 136.949838 
L 400.35276 136.374302 
L 400.709189 136.316863 
L 401.065618 136.435746 
L 401.422048 136.683069 
L 401.778477 136.684627 
L 402.134906 136.867021 
L 402.847764 136.271794 
L 403.204193 136.157041 
L 403.560622 136.314048 
L 403.917052 136.67987 
L 404.273481 136.515765 
L 404.62991 136.128223 
L 404.986339 136.009835 
L 405.342768 136.049698 
L 406.055627 136.742028 
L 406.412056 136.830543 
L 406.768485 136.784158 
L 407.124914 136.594343 
L 407.481343 136.968846 
L 407.837772 136.763212 
L 408.194201 136.807274 
L 408.550631 136.65195 
L 408.90706 136.271627 
L 409.619918 135.191103 
L 409.976347 134.894489 
L 410.332776 134.863785 
L 410.689206 135.085767 
L 411.045635 135.012956 
L 411.402064 135.371751 
L 411.758493 135.094886 
L 412.114922 135.201585 
L 412.471351 135.035782 
L 412.827781 135.475796 
L 413.18421 135.546495 
L 413.540639 135.129508 
L 413.897068 135.440549 
L 414.253497 135.333116 
L 414.609926 134.843715 
L 414.966355 135.015917 
L 415.679214 135.000049 
L 416.392072 135.313656 
L 417.10493 134.779954 
L 417.817789 134.875083 
L 418.887076 134.659406 
L 419.243505 134.850072 
L 419.956364 134.589364 
L 419.956364 134.589364 
" style="fill:none;stroke:#1f77b4;stroke-linecap:square;stroke-width:1.5;"/>
   </g>
   <g id="patch_3">
    <path d="M 46.08 156.672 
L 46.08 27.648 
" style="fill:none;stroke:#000000;stroke-linecap:square;stroke-linejoin:miter;stroke-width:0.8;"/>
   </g>
   <g id="patch_4">
    <path d="M 437.76 156.672 
L 437.76 27.648 
" style="fill:none;stroke:#000000;stroke-linecap:square;stroke-linejoin:miter;stroke-width:0.8;"/>
   </g>
   <g id="patch_5">
    <path d="M 46.08 156.672 
L 437.76 156.672 
" style="fill:none;stroke:#000000;stroke-linecap:square;stroke-linejoin:miter;stroke-width:0.8;"/>
   </g>
   <g id="patch_6">
    <path d="M 46.08 27.648 
L 437.76 27.648 
" style="fill:none;stroke:#000000;stroke-linecap:square;stroke-linejoin:miter;stroke-width:0.8;"/>
   </g>
   <g id="text_13">
    <!-- Utilización promedio servidor D1 -->
    <defs>
     <path id="DejaVuSans-32"/>
     <path d="M 18.109375 8.203125 
L 18.109375 -20.796875 
L 9.078125 -20.796875 
L 9.078125 54.6875 
L 18.109375 54.6875 
L 18.109375 46.390625 
Q 20.953125 51.265625 25.265625 53.625 
Q 29.59375 56 35.59375 56 
Q 45.5625 56 51.78125 48.09375 
Q 58.015625 40.1875 58.015625 27.296875 
Q 58.015625 14.40625 51.78125 6.484375 
Q 45.5625 -1.421875 35.59375 -1.421875 
Q 29.59375 -1.421875 25.265625 0.953125 
Q 20.953125 3.328125 18.109375 8.203125 
z
M 48.6875 27.296875 
Q 48.6875 37.203125 44.609375 42.84375 
Q 40.53125 48.484375 33.40625 48.484375 
Q 26.265625 48.484375 22.1875 42.84375 
Q 18.109375 37.203125 18.109375 27.296875 
Q 18.109375 17.390625 22.1875 11.75 
Q 26.265625 6.109375 33.40625 6.109375 
Q 40.53125 6.109375 44.609375 11.75 
Q 48.6875 17.390625 48.6875 27.296875 
z
" id="DejaVuSans-112"/>
     <path d="M 52 44.1875 
Q 55.375 50.25 60.0625 53.125 
Q 64.75 56 71.09375 56 
Q 79.640625 56 84.28125 50.015625 
Q 88.921875 44.046875 88.921875 33.015625 
L 88.921875 0 
L 79.890625 0 
L 79.890625 32.71875 
Q 79.890625 40.578125 77.09375 44.375 
Q 74.3125 48.1875 68.609375 48.1875 
Q 61.625 48.1875 57.5625 43.546875 
Q 53.515625 38.921875 53.515625 30.90625 
L 53.515625 0 
L 44.484375 0 
L 44.484375 32.71875 
Q 44.484375 40.625 41.703125 44.40625 
Q 38.921875 48.1875 33.109375 48.1875 
Q 26.21875 48.1875 22.15625 43.53125 
Q 18.109375 38.875 18.109375 30.90625 
L 18.109375 0 
L 9.078125 0 
L 9.078125 54.6875 
L 18.109375 54.6875 
L 18.109375 46.1875 
Q 21.1875 51.21875 25.484375 53.609375 
Q 29.78125 56 35.6875 56 
Q 41.65625 56 45.828125 52.96875 
Q 50 49.953125 52 44.1875 
z
" id="DejaVuSans-109"/>
     <path d="M 56.203125 29.59375 
L 56.203125 25.203125 
L 14.890625 25.203125 
Q 15.484375 15.921875 20.484375 11.0625 
Q 25.484375 6.203125 34.421875 6.203125 
Q 39.59375 6.203125 44.453125 7.46875 
Q 49.3125 8.734375 54.109375 11.28125 
L 54.109375 2.78125 
Q 49.265625 0.734375 44.1875 -0.34375 
Q 39.109375 -1.421875 33.890625 -1.421875 
Q 20.796875 -1.421875 13.15625 6.1875 
Q 5.515625 13.8125 5.515625 26.8125 
Q 5.515625 40.234375 12.765625 48.109375 
Q 20.015625 56 32.328125 56 
Q 43.359375 56 49.78125 48.890625 
Q 56.203125 41.796875 56.203125 29.59375 
z
M 47.21875 32.234375 
Q 47.125 39.59375 43.09375 43.984375 
Q 39.0625 48.390625 32.421875 48.390625 
Q 24.90625 48.390625 20.390625 44.140625 
Q 15.875 39.890625 15.1875 32.171875 
z
" id="DejaVuSans-101"/>
     <path d="M 2.984375 54.6875 
L 12.5 54.6875 
L 29.59375 8.796875 
L 46.6875 54.6875 
L 56.203125 54.6875 
L 35.6875 0 
L 23.484375 0 
z
" id="DejaVuSans-118"/>
     <path d="M 19.671875 64.796875 
L 19.671875 8.109375 
L 31.59375 8.109375 
Q 46.6875 8.109375 53.6875 14.9375 
Q 60.6875 21.78125 60.6875 36.53125 
Q 60.6875 51.171875 53.6875 57.984375 
Q 46.6875 64.796875 31.59375 64.796875 
z
M 9.8125 72.90625 
L 30.078125 72.90625 
Q 51.265625 72.90625 61.171875 64.09375 
Q 71.09375 55.28125 71.09375 36.53125 
Q 71.09375 17.671875 61.125 8.828125 
Q 51.171875 0 30.078125 0 
L 9.8125 0 
z
" id="DejaVuSans-68"/>
    </defs>
    <g transform="translate(143.674688 21.648)scale(0.12 -0.12)">
     <use xlink:href="#DejaVuSans-85"/>
     <use x="73.193359" xlink:href="#DejaVuSans-116"/>
     <use x="112.402344" xlink:href="#DejaVuSans-105"/>
     <use x="140.185547" xlink:href="#DejaVuSans-108"/>
     <use x="167.96875" xlink:href="#DejaVuSans-105"/>
     <use x="195.751953" xlink:href="#DejaVuSans-122"/>
     <use x="248.242188" xlink:href="#DejaVuSans-97"/>
     <use x="309.521484" xlink:href="#DejaVuSans-99"/>
     <use x="364.501953" xlink:href="#DejaVuSans-105"/>
     <use x="392.285156" xlink:href="#DejaVuSans-243"/>
     <use x="453.466797" xlink:href="#DejaVuSans-110"/>
     <use x="516.845703" xlink:href="#DejaVuSans-32"/>
     <use x="548.632812" xlink:href="#DejaVuSans-112"/>
     <use x="612.109375" xlink:href="#DejaVuSans-114"/>
     <use x="653.191406" xlink:href="#DejaVuSans-111"/>
     <use x="714.373047" xlink:href="#DejaVuSans-109"/>
     <use x="811.785156" xlink:href="#DejaVuSans-101"/>
     <use x="873.308594" xlink:href="#DejaVuSans-100"/>
     <use x="936.785156" xlink:href="#DejaVuSans-105"/>
     <use x="964.568359" xlink:href="#DejaVuSans-111"/>
     <use x="1025.75" xlink:href="#DejaVuSans-32"/>
     <use x="1057.537109" xlink:href="#DejaVuSans-115"/>
     <use x="1109.636719" xlink:href="#DejaVuSans-101"/>
     <use x="1171.160156" xlink:href="#DejaVuSans-114"/>
     <use x="1212.273438" xlink:href="#DejaVuSans-118"/>
     <use x="1271.453125" xlink:href="#DejaVuSans-105"/>
     <use x="1299.236328" xlink:href="#DejaVuSans-100"/>
     <use x="1362.712891" xlink:href="#DejaVuSans-111"/>
     <use x="1423.894531" xlink:href="#DejaVuSans-114"/>
     <use x="1465.007812" xlink:href="#DejaVuSans-32"/>
     <use x="1496.794922" xlink:href="#DejaVuSans-68"/>
     <use x="1573.796875" xlink:href="#DejaVuSans-49"/>
    </g>
   </g>
  </g>
  <g id="axes_2">
   <g id="patch_7">
    <path d="M 46.08 317.952 
L 437.76 317.952 
L 437.76 188.928 
L 46.08 188.928 
z
" style="fill:#ffffff;"/>
   </g>
   <g id="matplotlib.axis_3">
    <g id="xtick_7">
     <g id="line2d_22">
      <path clip-path="url(#p87aa2ee340)" d="M 63.527207 317.952 
L 63.527207 188.928 
" style="fill:none;stroke:#b0b0b0;stroke-linecap:square;stroke-width:0.8;"/>
     </g>
     <g id="line2d_23">
      <g>
       <use style="stroke:#000000;stroke-width:0.8;" x="63.527207" xlink:href="#md3a15076e3" y="317.952"/>
      </g>
     </g>
     <g id="text_14">
      <!-- 0 -->
      <g transform="translate(60.345957 332.550437)scale(0.1 -0.1)">
       <use xlink:href="#DejaVuSans-48"/>
      </g>
     </g>
    </g>
    <g id="xtick_8">
     <g id="line2d_24">
      <path clip-path="url(#p87aa2ee340)" d="M 134.813038 317.952 
L 134.813038 188.928 
" style="fill:none;stroke:#b0b0b0;stroke-linecap:square;stroke-width:0.8;"/>
     </g>
     <g id="line2d_25">
      <g>
       <use style="stroke:#000000;stroke-width:0.8;" x="134.813038" xlink:href="#md3a15076e3" y="317.952"/>
      </g>
     </g>
     <g id="text_15">
      <!-- 200 -->
      <g transform="translate(125.269288 332.550437)scale(0.1 -0.1)">
       <use xlink:href="#DejaVuSans-50"/>
       <use x="63.623047" xlink:href="#DejaVuSans-48"/>
       <use x="127.246094" xlink:href="#DejaVuSans-48"/>
      </g>
     </g>
    </g>
    <g id="xtick_9">
     <g id="line2d_26">
      <path clip-path="url(#p87aa2ee340)" d="M 206.09887 317.952 
L 206.09887 188.928 
" style="fill:none;stroke:#b0b0b0;stroke-linecap:square;stroke-width:0.8;"/>
     </g>
     <g id="line2d_27">
      <g>
       <use style="stroke:#000000;stroke-width:0.8;" x="206.09887" xlink:href="#md3a15076e3" y="317.952"/>
      </g>
     </g>
     <g id="text_16">
      <!-- 400 -->
      <g transform="translate(196.55512 332.550437)scale(0.1 -0.1)">
       <use xlink:href="#DejaVuSans-52"/>
       <use x="63.623047" xlink:href="#DejaVuSans-48"/>
       <use x="127.246094" xlink:href="#DejaVuSans-48"/>
      </g>
     </g>
    </g>
    <g id="xtick_10">
     <g id="line2d_28">
      <path clip-path="url(#p87aa2ee340)" d="M 277.384701 317.952 
L 277.384701 188.928 
" style="fill:none;stroke:#b0b0b0;stroke-linecap:square;stroke-width:0.8;"/>
     </g>
     <g id="line2d_29">
      <g>
       <use style="stroke:#000000;stroke-width:0.8;" x="277.384701" xlink:href="#md3a15076e3" y="317.952"/>
      </g>
     </g>
     <g id="text_17">
      <!-- 600 -->
      <g transform="translate(267.840951 332.550437)scale(0.1 -0.1)">
       <use xlink:href="#DejaVuSans-54"/>
       <use x="63.623047" xlink:href="#DejaVuSans-48"/>
       <use x="127.246094" xlink:href="#DejaVuSans-48"/>
      </g>
     </g>
    </g>
    <g id="xtick_11">
     <g id="line2d_30">
      <path clip-path="url(#p87aa2ee340)" d="M 348.670532 317.952 
L 348.670532 188.928 
" style="fill:none;stroke:#b0b0b0;stroke-linecap:square;stroke-width:0.8;"/>
     </g>
     <g id="line2d_31">
      <g>
       <use style="stroke:#000000;stroke-width:0.8;" x="348.670532" xlink:href="#md3a15076e3" y="317.952"/>
      </g>
     </g>
     <g id="text_18">
      <!-- 800 -->
      <g transform="translate(339.126782 332.550437)scale(0.1 -0.1)">
       <use xlink:href="#DejaVuSans-56"/>
       <use x="63.623047" xlink:href="#DejaVuSans-48"/>
       <use x="127.246094" xlink:href="#DejaVuSans-48"/>
      </g>
     </g>
    </g>
    <g id="xtick_12">
     <g id="line2d_32">
      <path clip-path="url(#p87aa2ee340)" d="M 419.956364 317.952 
L 419.956364 188.928 
" style="fill:none;stroke:#b0b0b0;stroke-linecap:square;stroke-width:0.8;"/>
     </g>
     <g id="line2d_33">
      <g>
       <use style="stroke:#000000;stroke-width:0.8;" x="419.956364" xlink:href="#md3a15076e3" y="317.952"/>
      </g>
     </g>
     <g id="text_19">
      <!-- 1000 -->
      <g transform="translate(407.231364 332.550437)scale(0.1 -0.1)">
       <use xlink:href="#DejaVuSans-49"/>
       <use x="63.623047" xlink:href="#DejaVuSans-48"/>
       <use x="127.246094" xlink:href="#DejaVuSans-48"/>
       <use x="190.869141" xlink:href="#DejaVuSans-48"/>
      </g>
     </g>
    </g>
    <g id="text_20">
     <!-- Corridas -->
     <g transform="translate(221.027031 346.228563)scale(0.1 -0.1)">
      <use xlink:href="#DejaVuSans-67"/>
      <use x="69.824219" xlink:href="#DejaVuSans-111"/>
      <use x="131.005859" xlink:href="#DejaVuSans-114"/>
      <use x="172.103516" xlink:href="#DejaVuSans-114"/>
      <use x="213.216797" xlink:href="#DejaVuSans-105"/>
      <use x="241" xlink:href="#DejaVuSans-100"/>
      <use x="304.476562" xlink:href="#DejaVuSans-97"/>
      <use x="365.755859" xlink:href="#DejaVuSans-115"/>
     </g>
    </g>
   </g>
   <g id="matplotlib.axis_4">
    <g id="ytick_5">
     <g id="line2d_34">
      <path clip-path="url(#p87aa2ee340)" d="M 46.08 297.727883 
L 437.76 297.727883 
" style="fill:none;stroke:#b0b0b0;stroke-linecap:square;stroke-width:0.8;"/>
     </g>
     <g id="line2d_35">
      <g>
       <use style="stroke:#000000;stroke-width:0.8;" x="46.08" xlink:href="#m86ac3f29f0" y="297.727883"/>
      </g>
     </g>
     <g id="text_21">
      <!-- 0.2450 -->
      <g transform="translate(4.089375 301.527102)scale(0.1 -0.1)">
       <use xlink:href="#DejaVuSans-48"/>
       <use x="63.623047" xlink:href="#DejaVuSans-46"/>
       <use x="95.410156" xlink:href="#DejaVuSans-50"/>
       <use x="159.033203" xlink:href="#DejaVuSans-52"/>
       <use x="222.65625" xlink:href="#DejaVuSans-53"/>
       <use x="286.279297" xlink:href="#DejaVuSans-48"/>
      </g>
     </g>
    </g>
    <g id="ytick_6">
     <g id="line2d_36">
      <path clip-path="url(#p87aa2ee340)" d="M 46.08 273.01432 
L 437.76 273.01432 
" style="fill:none;stroke:#b0b0b0;stroke-linecap:square;stroke-width:0.8;"/>
     </g>
     <g id="line2d_37">
      <g>
       <use style="stroke:#000000;stroke-width:0.8;" x="46.08" xlink:href="#m86ac3f29f0" y="273.01432"/>
      </g>
     </g>
     <g id="text_22">
      <!-- 0.2475 -->
      <defs>
       <path d="M 8.203125 72.90625 
L 55.078125 72.90625 
L 55.078125 68.703125 
L 28.609375 0 
L 18.3125 0 
L 43.21875 64.59375 
L 8.203125 64.59375 
z
" id="DejaVuSans-55"/>
      </defs>
      <g transform="translate(4.089375 276.813539)scale(0.1 -0.1)">
       <use xlink:href="#DejaVuSans-48"/>
       <use x="63.623047" xlink:href="#DejaVuSans-46"/>
       <use x="95.410156" xlink:href="#DejaVuSans-50"/>
       <use x="159.033203" xlink:href="#DejaVuSans-52"/>
       <use x="222.65625" xlink:href="#DejaVuSans-55"/>
       <use x="286.279297" xlink:href="#DejaVuSans-53"/>
      </g>
     </g>
    </g>
    <g id="ytick_7">
     <g id="line2d_38">
      <path clip-path="url(#p87aa2ee340)" d="M 46.08 248.300758 
L 437.76 248.300758 
" style="fill:none;stroke:#b0b0b0;stroke-linecap:square;stroke-width:0.8;"/>
     </g>
     <g id="line2d_39">
      <g>
       <use style="stroke:#000000;stroke-width:0.8;" x="46.08" xlink:href="#m86ac3f29f0" y="248.300758"/>
      </g>
     </g>
     <g id="text_23">
      <!-- 0.2500 -->
      <g transform="translate(4.089375 252.099977)scale(0.1 -0.1)">
       <use xlink:href="#DejaVuSans-48"/>
       <use x="63.623047" xlink:href="#DejaVuSans-46"/>
       <use x="95.410156" xlink:href="#DejaVuSans-50"/>
       <use x="159.033203" xlink:href="#DejaVuSans-53"/>
       <use x="222.65625" xlink:href="#DejaVuSans-48"/>
       <use x="286.279297" xlink:href="#DejaVuSans-48"/>
      </g>
     </g>
    </g>
    <g id="ytick_8">
     <g id="line2d_40">
      <path clip-path="url(#p87aa2ee340)" d="M 46.08 223.587196 
L 437.76 223.587196 
" style="fill:none;stroke:#b0b0b0;stroke-linecap:square;stroke-width:0.8;"/>
     </g>
     <g id="line2d_41">
      <g>
       <use style="stroke:#000000;stroke-width:0.8;" x="46.08" xlink:href="#m86ac3f29f0" y="223.587196"/>
      </g>
     </g>
     <g id="text_24">
      <!-- 0.2525 -->
      <g transform="translate(4.089375 227.386415)scale(0.1 -0.1)">
       <use xlink:href="#DejaVuSans-48"/>
       <use x="63.623047" xlink:href="#DejaVuSans-46"/>
       <use x="95.410156" xlink:href="#DejaVuSans-50"/>
       <use x="159.033203" xlink:href="#DejaVuSans-53"/>
       <use x="222.65625" xlink:href="#DejaVuSans-50"/>
       <use x="286.279297" xlink:href="#DejaVuSans-53"/>
      </g>
     </g>
    </g>
    <g id="ytick_9">
     <g id="line2d_42">
      <path clip-path="url(#p87aa2ee340)" d="M 46.08 198.873634 
L 437.76 198.873634 
" style="fill:none;stroke:#b0b0b0;stroke-linecap:square;stroke-width:0.8;"/>
     </g>
     <g id="line2d_43">
      <g>
       <use style="stroke:#000000;stroke-width:0.8;" x="46.08" xlink:href="#m86ac3f29f0" y="198.873634"/>
      </g>
     </g>
     <g id="text_25">
      <!-- 0.2550 -->
      <g transform="translate(4.089375 202.672852)scale(0.1 -0.1)">
       <use xlink:href="#DejaVuSans-48"/>
       <use x="63.623047" xlink:href="#DejaVuSans-46"/>
       <use x="95.410156" xlink:href="#DejaVuSans-50"/>
       <use x="159.033203" xlink:href="#DejaVuSans-53"/>
       <use x="222.65625" xlink:href="#DejaVuSans-53"/>
       <use x="286.279297" xlink:href="#DejaVuSans-48"/>
      </g>
     </g>
    </g>
    <g id="text_26">
     <!-- Utilización -->
     <g transform="translate(-1.990312 279.281406)rotate(-90)scale(0.1 -0.1)">
      <use xlink:href="#DejaVuSans-85"/>
      <use x="73.193359" xlink:href="#DejaVuSans-116"/>
      <use x="112.402344" xlink:href="#DejaVuSans-105"/>
      <use x="140.185547" xlink:href="#DejaVuSans-108"/>
      <use x="167.96875" xlink:href="#DejaVuSans-105"/>
      <use x="195.751953" xlink:href="#DejaVuSans-122"/>
      <use x="248.242188" xlink:href="#DejaVuSans-97"/>
      <use x="309.521484" xlink:href="#DejaVuSans-99"/>
      <use x="364.501953" xlink:href="#DejaVuSans-105"/>
      <use x="392.285156" xlink:href="#DejaVuSans-243"/>
      <use x="453.466797" xlink:href="#DejaVuSans-110"/>
     </g>
    </g>
   </g>
   <g id="line2d_44">
    <path clip-path="url(#p87aa2ee340)" d="M 63.883636 312.087273 
L 64.596495 213.320754 
L 64.952924 252.165963 
L 65.309353 194.792727 
L 65.665782 206.208854 
L 66.022211 212.446278 
L 66.37864 229.655895 
L 66.73507 255.749179 
L 67.091499 243.606848 
L 67.447928 252.929133 
L 68.160786 234.495596 
L 68.517215 243.601849 
L 68.873645 230.469822 
L 69.230074 223.828293 
L 69.586503 234.854139 
L 69.942932 229.652919 
L 70.65579 236.533474 
L 71.012219 245.980815 
L 71.368649 248.792116 
L 71.725078 257.722483 
L 72.081507 257.87466 
L 72.437936 256.187853 
L 72.794365 249.425715 
L 73.507224 251.541181 
L 73.863653 244.220415 
L 74.220082 248.101437 
L 74.576511 247.025335 
L 74.93294 248.238074 
L 75.289369 250.043084 
L 75.645799 250.335688 
L 76.002228 252.768495 
L 76.358657 246.270745 
L 76.715086 250.434187 
L 77.071515 248.426756 
L 77.427944 252.851186 
L 77.784373 253.170756 
L 78.140803 252.189634 
L 78.497232 250.732603 
L 78.853661 250.782371 
L 79.21009 251.619942 
L 79.566519 257.090005 
L 79.922948 258.904912 
L 80.279378 257.906897 
L 80.635807 254.266192 
L 80.992236 255.222196 
L 81.348665 254.942837 
L 81.705094 257.168128 
L 82.061523 254.997475 
L 82.417952 250.311302 
L 82.774382 248.290928 
L 83.130811 248.691823 
L 83.843669 248.529993 
L 84.200098 251.337458 
L 84.912957 253.442925 
L 85.269386 254.066227 
L 85.625815 253.182552 
L 85.982244 253.776806 
L 86.338673 254.619457 
L 86.695102 254.900459 
L 87.051532 255.861459 
L 87.76439 252.566283 
L 88.120819 251.647337 
L 88.833677 247.076501 
L 89.190106 247.774177 
L 89.546536 244.797668 
L 89.902965 245.89719 
L 90.259394 245.474219 
L 90.615823 245.448273 
L 90.972252 246.278464 
L 91.328681 246.24436 
L 92.04154 243.090847 
L 92.397969 243.480465 
L 92.754398 242.277715 
L 93.110827 243.503247 
L 93.467256 243.664872 
L 93.823686 244.222668 
L 94.180115 244.496293 
L 94.536544 243.343669 
L 94.892973 246.553726 
L 95.249402 247.021225 
L 95.605831 245.979074 
L 95.96226 249.186766 
L 96.31869 246.998207 
L 96.675119 248.025746 
L 97.031548 247.818093 
L 97.387977 249.319044 
L 98.100835 247.186968 
L 98.457265 244.772024 
L 98.813694 249.271258 
L 99.526552 249.48806 
L 99.882981 248.050141 
L 100.23941 249.022938 
L 100.595839 249.159627 
L 100.952269 249.849771 
L 101.308698 251.03552 
L 101.665127 250.822291 
L 102.377985 249.690579 
L 102.734414 248.959872 
L 103.090844 249.212967 
L 103.447273 248.956801 
L 103.803702 248.393447 
L 104.160131 248.369905 
L 104.51656 249.26118 
L 104.872989 249.389321 
L 105.229419 252.274819 
L 105.942277 252.084545 
L 106.298706 251.734386 
L 106.655135 252.648833 
L 107.367993 251.553224 
L 108.080852 253.960921 
L 108.437281 254.231005 
L 108.79371 252.943352 
L 109.150139 253.80245 
L 109.506568 255.025964 
L 109.862998 252.96362 
L 110.219427 254.046418 
L 110.575856 253.635443 
L 110.932285 253.833067 
L 111.288714 254.888038 
L 111.645143 254.909849 
L 112.001572 256.320165 
L 112.358002 255.962062 
L 113.07086 253.784242 
L 113.427289 254.040531 
L 113.783718 253.769524 
L 114.140147 252.181091 
L 114.496577 251.214893 
L 114.853006 249.800957 
L 115.565864 248.354069 
L 116.278722 249.372999 
L 116.991581 249.052816 
L 117.34801 249.558619 
L 117.704439 248.382992 
L 118.060868 248.460424 
L 118.417297 248.191967 
L 119.130156 248.859334 
L 119.486585 250.684393 
L 119.843014 251.23031 
L 120.199443 251.15795 
L 120.555872 250.945579 
L 120.912301 250.05042 
L 121.268731 250.152047 
L 121.62516 250.855107 
L 121.981589 250.667952 
L 122.338018 251.162175 
L 122.694447 251.012768 
L 123.050876 251.168215 
L 123.407305 251.939343 
L 123.763735 252.186411 
L 124.120164 253.608876 
L 124.476593 254.53397 
L 124.833022 254.598513 
L 125.189451 255.019542 
L 125.54588 254.685573 
L 125.90231 254.506306 
L 126.258739 254.035274 
L 127.328026 254.023679 
L 127.684455 254.341694 
L 128.397314 252.738611 
L 128.753743 252.762811 
L 129.110172 251.859694 
L 129.466601 251.869823 
L 129.82303 251.638799 
L 130.179459 252.532728 
L 130.535889 252.916731 
L 130.892318 252.991748 
L 131.248747 252.920499 
L 131.605176 253.219725 
L 131.961605 253.233552 
L 132.318034 252.121304 
L 132.674464 252.936359 
L 133.387322 252.697028 
L 134.456609 254.64143 
L 134.813038 252.895909 
L 135.525897 254.042142 
L 136.238755 253.669711 
L 136.595184 254.138852 
L 136.951613 254.186651 
L 137.308043 253.444494 
L 137.664472 253.484432 
L 138.020901 253.927265 
L 138.37733 253.978095 
L 138.733759 253.84137 
L 139.090188 254.657409 
L 139.446618 254.519168 
L 139.803047 255.040864 
L 140.159476 254.827292 
L 140.872334 255.497793 
L 141.228763 254.892156 
L 141.585192 254.913944 
L 141.941622 254.680476 
L 142.298051 255.045262 
L 143.010909 255.14223 
L 143.367338 254.862232 
L 143.723767 255.28572 
L 144.080197 256.022407 
L 144.436626 255.79404 
L 144.793055 256.257057 
L 145.149484 255.938031 
L 145.505913 255.003333 
L 145.862342 255.348906 
L 146.218771 254.97565 
L 146.575201 255.096986 
L 147.288059 256.4444 
L 147.644488 255.947692 
L 148.000917 257.085818 
L 148.357346 256.403298 
L 148.713776 256.835597 
L 149.426634 258.038547 
L 150.139492 257.616744 
L 150.495921 257.737539 
L 150.852351 257.055355 
L 151.20878 255.290684 
L 151.921638 254.106131 
L 152.990925 255.73886 
L 153.347355 255.989901 
L 154.416642 254.63444 
L 154.773071 254.985999 
L 155.1295 255.005814 
L 155.48593 255.354317 
L 155.842359 254.525539 
L 156.198788 254.011393 
L 156.555217 254.102866 
L 156.911646 253.729234 
L 157.268075 253.863485 
L 157.624505 254.143298 
L 157.980934 254.225584 
L 158.337363 253.466685 
L 158.693792 253.398812 
L 159.050221 253.065026 
L 159.40665 252.314248 
L 159.763079 252.353818 
L 160.119509 252.050193 
L 160.475938 252.637358 
L 160.832367 252.941513 
L 161.188796 252.986492 
L 161.545225 252.535888 
L 161.901654 252.353178 
L 162.258084 252.818256 
L 162.614513 252.734628 
L 162.970942 252.943212 
L 163.6838 253.030148 
L 164.753088 251.71969 
L 165.109517 250.799983 
L 165.465946 250.82183 
L 165.822375 250.281953 
L 166.178804 250.010202 
L 166.535233 249.991228 
L 166.891663 251.000596 
L 167.248092 250.666972 
L 167.604521 251.163144 
L 167.96095 250.473557 
L 168.317379 251.058421 
L 169.030238 251.234214 
L 169.386667 251.026008 
L 169.743096 251.208998 
L 170.099525 251.736429 
L 170.812383 251.825579 
L 171.168812 251.903347 
L 171.525242 251.24208 
L 172.2381 251.904645 
L 172.594529 251.911702 
L 172.950958 252.210705 
L 173.307387 251.918447 
L 173.663817 252.122695 
L 174.376675 251.218894 
L 174.733104 251.129211 
L 175.089533 251.76142 
L 175.445962 251.938701 
L 175.802391 252.256742 
L 176.158821 252.355628 
L 176.51525 252.808128 
L 176.871679 252.161299 
L 177.584537 252.058171 
L 177.940966 252.322796 
L 178.297396 252.269397 
L 179.366683 251.065515 
L 180.079541 250.799646 
L 180.7924 250.838668 
L 181.148829 250.665957 
L 181.505258 251.532329 
L 182.218116 251.397152 
L 182.574545 252.05309 
L 183.287404 251.020387 
L 183.643833 251.493899 
L 184.000262 251.38594 
L 184.356691 250.763253 
L 184.71312 250.483109 
L 185.06955 250.349782 
L 185.425979 251.315468 
L 186.495266 250.744455 
L 186.851695 251.665433 
L 187.208124 251.652048 
L 187.564554 251.523664 
L 188.277412 252.354244 
L 188.633841 252.355926 
L 188.99027 252.042029 
L 189.346699 251.403635 
L 189.703129 251.774385 
L 190.059558 252.370201 
L 190.415987 252.4445 
L 190.772416 252.646677 
L 191.128845 252.476046 
L 191.485274 253.03866 
L 191.841704 252.572012 
L 192.198133 252.355929 
L 192.554562 251.526745 
L 192.910991 251.382689 
L 193.26742 251.058299 
L 193.623849 250.988511 
L 193.980278 251.556922 
L 194.336708 251.474908 
L 194.693137 251.204066 
L 195.049566 251.75365 
L 195.405995 251.426635 
L 195.762424 251.606203 
L 196.118853 251.203255 
L 196.475283 250.970746 
L 196.831712 251.383274 
L 197.188141 251.61221 
L 197.900999 251.200137 
L 198.257428 251.280458 
L 198.970287 251.071661 
L 199.326716 251.715415 
L 199.683145 251.105237 
L 200.039574 251.240635 
L 200.396003 250.779592 
L 201.108862 250.779088 
L 201.82172 250.52883 
L 202.178149 250.446601 
L 202.534578 250.494646 
L 203.603866 249.538938 
L 203.960295 249.338259 
L 204.316724 249.801367 
L 205.029582 249.415437 
L 205.386011 249.330563 
L 205.742441 249.595297 
L 206.09887 250.067343 
L 207.524586 249.855793 
L 207.881016 250.443735 
L 208.593874 249.816625 
L 208.950303 249.716538 
L 209.306732 249.93639 
L 209.663161 249.564409 
L 210.37602 249.802983 
L 211.445307 250.278562 
L 211.801736 250.068393 
L 212.158165 250.145566 
L 212.514595 249.880244 
L 212.871024 250.449965 
L 213.227453 250.533199 
L 213.940311 251.045041 
L 214.29674 251.204694 
L 214.65317 250.909376 
L 215.009599 251.416716 
L 215.366028 251.437133 
L 215.722457 251.721185 
L 216.078886 251.356856 
L 216.435315 251.79157 
L 216.791744 251.210405 
L 217.148174 251.189298 
L 217.504603 251.289196 
L 217.861032 251.089155 
L 218.217461 251.141121 
L 220.356036 250.707102 
L 220.712465 250.298917 
L 221.068894 250.574658 
L 221.425324 250.466336 
L 221.781753 249.809479 
L 222.138182 249.692039 
L 222.494611 250.051499 
L 222.85104 250.234638 
L 223.207469 250.661863 
L 223.563898 250.647997 
L 224.276757 250.291689 
L 224.633186 250.887562 
L 224.989615 250.621091 
L 225.346044 250.729974 
L 225.702473 250.065144 
L 226.058903 250.060026 
L 226.415332 250.232701 
L 226.771761 250.035817 
L 227.12819 249.202747 
L 227.484619 249.037295 
L 227.841048 249.067532 
L 228.197477 248.855088 
L 228.553907 249.776677 
L 228.910336 249.897113 
L 229.266765 250.388043 
L 229.623194 250.236689 
L 229.979623 250.983585 
L 230.336052 251.275819 
L 230.692482 251.387528 
L 231.048911 251.272931 
L 231.40534 250.729863 
L 232.118198 250.649892 
L 232.474627 250.594629 
L 233.543915 251.006591 
L 234.256773 251.16361 
L 234.613202 250.841959 
L 234.969631 250.978552 
L 236.038919 250.963108 
L 236.395348 251.239935 
L 236.751777 251.223621 
L 237.108206 251.55115 
L 238.533923 251.66349 
L 238.890352 251.459498 
L 239.246781 251.548497 
L 239.60321 251.993356 
L 239.95964 251.81225 
L 240.316069 251.471938 
L 240.672498 251.412617 
L 241.028927 251.102075 
L 241.385356 251.434852 
L 242.098215 251.751932 
L 243.523931 252.39435 
L 244.23679 251.692969 
L 244.593219 251.186422 
L 245.306077 251.514064 
L 245.662506 251.129774 
L 246.018935 251.366829 
L 247.088223 250.592502 
L 247.444652 250.868018 
L 248.15751 250.761693 
L 248.513939 250.811288 
L 248.870369 250.509739 
L 249.226798 250.877739 
L 249.583227 251.075325 
L 250.296085 250.824179 
L 250.652514 250.576477 
L 251.008943 250.475854 
L 251.365373 250.178421 
L 252.43466 250.184874 
L 252.791089 250.148224 
L 254.216806 251.629588 
L 254.573235 251.089692 
L 254.929664 250.919034 
L 255.286093 251.49894 
L 255.998952 251.975806 
L 256.71181 252.318544 
L 257.068239 252.165775 
L 257.424668 252.214911 
L 257.781097 251.847103 
L 258.137527 252.062137 
L 258.493956 251.993204 
L 258.850385 252.26995 
L 259.563243 252.540719 
L 260.632531 251.770728 
L 261.701818 252.373665 
L 262.058247 252.003552 
L 262.414676 251.966806 
L 262.771106 251.500286 
L 263.483964 251.315246 
L 263.840393 251.802989 
L 264.553251 251.832448 
L 264.909681 251.479448 
L 266.691826 250.965055 
L 267.048256 251.062969 
L 267.404685 250.901759 
L 267.761114 251.133875 
L 268.473972 250.958436 
L 268.830401 251.053071 
L 269.18683 251.333282 
L 269.54326 250.856876 
L 269.899689 251.519695 
L 270.256118 251.194262 
L 270.612547 251.621948 
L 270.968976 251.79236 
L 271.325405 251.63787 
L 272.038264 251.988746 
L 272.394693 252.154079 
L 273.46398 252.076044 
L 273.82041 251.912376 
L 274.176839 252.062989 
L 274.533268 251.697419 
L 275.246126 251.871181 
L 275.602555 251.91495 
L 275.958984 251.775132 
L 276.315414 251.860092 
L 276.671843 251.717121 
L 277.028272 251.731203 
L 277.384701 251.971493 
L 277.74113 251.989142 
L 278.097559 252.259293 
L 279.166847 252.313613 
L 279.879705 251.730468 
L 280.236134 252.022052 
L 280.948993 251.626367 
L 281.305422 251.410468 
L 282.374709 251.180076 
L 282.731138 250.980497 
L 283.087568 250.927725 
L 283.443997 250.66998 
L 284.513284 250.667284 
L 284.869713 250.450949 
L 285.582572 250.327254 
L 285.939001 250.680729 
L 286.29543 250.430156 
L 286.651859 250.450507 
L 288.077576 250.172914 
L 288.790434 249.421922 
L 289.146863 249.530615 
L 289.503292 249.474534 
L 290.216151 249.812388 
L 290.57258 249.724089 
L 291.285438 249.285318 
L 291.641867 249.145647 
L 291.998296 249.293013 
L 292.354726 249.159012 
L 292.711155 249.268814 
L 293.067584 248.91227 
L 293.424013 249.093096 
L 293.780442 249.448746 
L 294.84973 248.555884 
L 295.562588 248.330547 
L 295.919017 248.040108 
L 296.275446 247.895357 
L 296.631876 247.578 
L 296.988305 247.677839 
L 297.701163 248.188838 
L 298.057592 248.234669 
L 298.414021 247.949445 
L 298.77045 248.070837 
L 299.12688 247.822088 
L 299.483309 248.196379 
L 299.839738 248.335828 
L 300.196167 248.338367 
L 300.552596 248.077735 
L 300.909025 248.091439 
L 301.621884 248.298018 
L 302.334742 248.286831 
L 303.760459 248.175371 
L 304.116888 248.11977 
L 304.473317 248.3011 
L 304.829746 248.098352 
L 306.255463 248.81074 
L 306.611892 249.336447 
L 306.968321 249.376842 
L 307.681179 249.641324 
L 308.037609 249.376023 
L 308.750467 250.196991 
L 309.463325 250.430352 
L 310.176183 250.520198 
L 310.532613 250.41726 
L 311.245471 250.565258 
L 311.6019 250.960357 
L 311.958329 250.896727 
L 312.314758 251.24726 
L 312.671188 251.36134 
L 313.027617 251.227782 
L 313.384046 251.353526 
L 313.740475 250.982791 
L 314.096904 250.860185 
L 314.453333 250.939862 
L 314.809762 251.428285 
L 315.87905 251.457082 
L 316.591908 251.25881 
L 317.661196 251.378873 
L 318.374054 250.681391 
L 318.730483 250.741121 
L 319.086912 250.497206 
L 319.443342 250.588834 
L 319.799771 250.473363 
L 320.1562 250.485907 
L 320.512629 250.324726 
L 321.225487 249.615997 
L 321.938346 249.35833 
L 322.294775 249.583303 
L 323.007633 249.535273 
L 324.789779 249.156292 
L 325.146208 248.790621 
L 325.502637 248.691598 
L 325.859066 248.457421 
L 326.215495 248.613916 
L 326.928354 248.579689 
L 327.284783 248.789244 
L 327.997641 248.401378 
L 329.066929 248.803493 
L 329.423358 248.49061 
L 330.136216 248.380992 
L 330.849075 248.510014 
L 331.205504 248.509158 
L 331.561933 248.738183 
L 331.918362 249.100441 
L 332.63122 249.075974 
L 332.987649 248.844205 
L 333.344079 249.321575 
L 333.700508 249.534838 
L 334.413366 249.437305 
L 335.126224 249.728782 
L 335.482654 249.389902 
L 336.195512 249.31373 
L 336.551941 249.483982 
L 336.90837 249.97526 
L 337.977658 249.667739 
L 338.334087 249.716193 
L 338.690516 249.52455 
L 339.403374 249.814085 
L 340.116233 249.944576 
L 340.472662 250.068474 
L 340.829091 249.73083 
L 341.898378 249.980968 
L 342.254808 250.208101 
L 342.611237 249.965601 
L 342.967666 250.114483 
L 343.324095 250.020154 
L 343.680524 250.299489 
L 344.749812 250.633388 
L 345.46267 250.315173 
L 346.175528 250.46357 
L 346.531957 250.725116 
L 346.888387 250.557401 
L 347.244816 250.623405 
L 347.601245 250.840625 
L 348.314103 250.844582 
L 348.670532 250.48435 
L 349.026962 250.42547 
L 349.383391 250.719199 
L 350.096249 250.547616 
L 350.809107 250.899474 
L 351.521966 250.857046 
L 352.591253 251.170297 
L 352.947682 251.106842 
L 353.304111 251.336405 
L 354.373399 251.099757 
L 354.729828 250.721603 
L 355.086257 251.06297 
L 355.442686 251.205397 
L 356.511974 251.124624 
L 356.868403 251.250668 
L 357.581261 250.799436 
L 357.93769 250.306942 
L 359.006978 250.314548 
L 359.363407 250.158251 
L 359.719836 250.18136 
L 360.076265 250.655371 
L 360.432695 250.830741 
L 361.145553 250.836097 
L 361.858411 250.482852 
L 362.21484 250.61014 
L 362.927699 250.451309 
L 363.284128 250.552465 
L 363.640557 250.52681 
L 364.709844 250.043332 
L 365.066274 249.954758 
L 365.779132 250.054758 
L 367.561278 249.943186 
L 367.917707 250.226853 
L 369.343423 250.055607 
L 369.699853 249.946966 
L 370.056282 250.205878 
L 370.76914 250.310018 
L 371.125569 249.948444 
L 371.481998 249.856734 
L 371.838428 249.953896 
L 372.194857 249.724416 
L 372.551286 249.849864 
L 373.264144 249.594827 
L 373.620573 249.910092 
L 375.04629 250.208113 
L 375.402719 249.961871 
L 376.828436 249.998647 
L 377.184865 249.790262 
L 377.541294 249.89189 
L 377.897723 250.209732 
L 378.254152 250.152095 
L 378.967011 250.270417 
L 380.036298 250.132301 
L 380.392727 250.211298 
L 380.749156 250.143021 
L 381.105586 249.960158 
L 381.462015 250.087197 
L 381.818444 250.091887 
L 382.174873 249.904702 
L 382.887731 250.160612 
L 383.244161 250.102234 
L 383.957019 250.324552 
L 385.026306 249.946087 
L 386.095594 249.561605 
L 386.452023 249.975253 
L 388.234169 250.421836 
L 388.947027 250.203649 
L 389.303456 250.240875 
L 389.659885 250.087567 
L 390.016314 250.132626 
L 390.372744 250.007551 
L 390.729173 250.151044 
L 391.085602 249.846485 
L 392.154889 249.551609 
L 392.511319 249.712894 
L 393.224177 249.463556 
L 393.937035 249.700926 
L 395.719181 249.641528 
L 396.788468 249.932103 
L 397.144898 249.857917 
L 397.501327 250.030669 
L 397.857756 249.799821 
L 399.283473 249.973863 
L 399.996331 250.212142 
L 400.35276 250.269815 
L 402.491335 249.863931 
L 402.847764 249.731943 
L 403.917052 250.248586 
L 405.342768 250.157123 
L 406.055627 250.188983 
L 406.412056 250.084876 
L 406.768485 249.857484 
L 407.837772 249.868502 
L 408.550631 249.461555 
L 408.90706 249.402625 
L 410.332776 248.473093 
L 411.045635 248.443816 
L 411.402064 248.721514 
L 412.114922 248.506457 
L 412.827781 248.607105 
L 413.540639 248.465224 
L 413.897068 248.659848 
L 415.322785 248.736588 
L 415.679214 248.521057 
L 416.035643 248.767749 
L 417.46136 248.562353 
L 418.887076 248.610503 
L 419.243505 248.779447 
L 419.599934 248.703828 
L 419.956364 248.500366 
L 419.956364 248.500366 
" style="fill:none;stroke:#1f77b4;stroke-linecap:square;stroke-width:1.5;"/>
   </g>
   <g id="patch_8">
    <path d="M 46.08 317.952 
L 46.08 188.928 
" style="fill:none;stroke:#000000;stroke-linecap:square;stroke-linejoin:miter;stroke-width:0.8;"/>
   </g>
   <g id="patch_9">
    <path d="M 437.76 317.952 
L 437.76 188.928 
" style="fill:none;stroke:#000000;stroke-linecap:square;stroke-linejoin:miter;stroke-width:0.8;"/>
   </g>
   <g id="patch_10">
    <path d="M 46.08 317.952 
L 437.76 317.952 
" style="fill:none;stroke:#000000;stroke-linecap:square;stroke-linejoin:miter;stroke-width:0.8;"/>
   </g>
   <g id="patch_11">
    <path d="M 46.08 188.928 
L 437.76 188.928 
" style="fill:none;stroke:#000000;stroke-linecap:square;stroke-linejoin:miter;stroke-width:0.8;"/>
   </g>
   <g id="text_27">
    <!-- Utilización promedio servidor D2 -->
    <g transform="translate(143.674688 182.928)scale(0.12 -0.12)">
     <use xlink:href="#DejaVuSans-85"/>
     <use x="73.193359" xlink:href="#DejaVuSans-116"/>
     <use x="112.402344" xlink:href="#DejaVuSans-105"/>
     <use x="140.185547" xlink:href="#DejaVuSans-108"/>
     <use x="167.96875" xlink:href="#DejaVuSans-105"/>
     <use x="195.751953" xlink:href="#DejaVuSans-122"/>
     <use x="248.242188" xlink:href="#DejaVuSans-97"/>
     <use x="309.521484" xlink:href="#DejaVuSans-99"/>
     <use x="364.501953" xlink:href="#DejaVuSans-105"/>
     <use x="392.285156" xlink:href="#DejaVuSans-243"/>
     <use x="453.466797" xlink:href="#DejaVuSans-110"/>
     <use x="516.845703" xlink:href="#DejaVuSans-32"/>
     <use x="548.632812" xlink:href="#DejaVuSans-112"/>
     <use x="612.109375" xlink:href="#DejaVuSans-114"/>
     <use x="653.191406" xlink:href="#DejaVuSans-111"/>
     <use x="714.373047" xlink:href="#DejaVuSans-109"/>
     <use x="811.785156" xlink:href="#DejaVuSans-101"/>
     <use x="873.308594" xlink:href="#DejaVuSans-100"/>
     <use x="936.785156" xlink:href="#DejaVuSans-105"/>
     <use x="964.568359" xlink:href="#DejaVuSans-111"/>
     <use x="1025.75" xlink:href="#DejaVuSans-32"/>
     <use x="1057.537109" xlink:href="#DejaVuSans-115"/>
     <use x="1109.636719" xlink:href="#DejaVuSans-101"/>
     <use x="1171.160156" xlink:href="#DejaVuSans-114"/>
     <use x="1212.273438" xlink:href="#DejaVuSans-118"/>
     <use x="1271.453125" xlink:href="#DejaVuSans-105"/>
     <use x="1299.236328" xlink:href="#DejaVuSans-100"/>
     <use x="1362.712891" xlink:href="#DejaVuSans-111"/>
     <use x="1423.894531" xlink:href="#DejaVuSans-114"/>
     <use x="1465.007812" xlink:href="#DejaVuSans-32"/>
     <use x="1496.794922" xlink:href="#DejaVuSans-68"/>
     <use x="1573.796875" xlink:href="#DejaVuSans-50"/>
    </g>
   </g>
  </g>
 </g>
 <defs>
  <clipPath id="p50c4701cd9">
   <rect height="129.024" width="391.68" x="46.08" y="27.648"/>
  </clipPath>
  <clipPath id="p87aa2ee340">
   <rect height="129.024" width="391.68" x="46.08" y="188.928"/>
  </clipPath>
 </defs>
</svg>
