<?xml version="1.0" encoding="utf-8" standalone="no"?>
<!DOCTYPE svg PUBLIC "-//W3C//DTD SVG 1.1//EN"
  "http://www.w3.org/Graphics/SVG/1.1/DTD/svg11.dtd">
<!-- Created with matplotlib (https://matplotlib.org/) -->
<svg height="345.6pt" version="1.1" viewBox="0 0 460.8 345.6" width="460.8pt" xmlns="http://www.w3.org/2000/svg" xmlns:xlink="http://www.w3.org/1999/xlink">
 <defs>
  <style type="text/css">
*{stroke-linecap:butt;stroke-linejoin:round;}
  </style>
 </defs>
 <g id="figure_1">
  <g id="patch_1">
   <path d="M 0 345.6 
L 460.8 345.6 
L 460.8 0 
L 0 0 
z
" style="fill:#ffffff;"/>
  </g>
  <g id="axes_1">
   <g id="patch_2">
    <path d="M 46.08 156.672 
L 437.76 156.672 
L 437.76 27.648 
L 46.08 27.648 
z
" style="fill:#ffffff;"/>
   </g>
   <g id="matplotlib.axis_1">
    <g id="xtick_1">
     <g id="line2d_1">
      <path clip-path="url(#p96a5ff91a2)" d="M 63.527207 156.672 
L 63.527207 27.648 
" style="fill:none;stroke:#b0b0b0;stroke-linecap:square;stroke-width:0.8;"/>
     </g>
     <g id="line2d_2">
      <defs>
       <path d="M 0 0 
L 0 3.5 
" id="m3bd187917a" style="stroke:#000000;stroke-width:0.8;"/>
      </defs>
      <g>
       <use style="stroke:#000000;stroke-width:0.8;" x="63.527207" xlink:href="#m3bd187917a" y="156.672"/>
      </g>
     </g>
     <g id="text_1">
      <!-- 0 -->
      <defs>
       <path d="M 31.78125 66.40625 
Q 24.171875 66.40625 20.328125 58.90625 
Q 16.5 51.421875 16.5 36.375 
Q 16.5 21.390625 20.328125 13.890625 
Q 24.171875 6.390625 31.78125 6.390625 
Q 39.453125 6.390625 43.28125 13.890625 
Q 47.125 21.390625 47.125 36.375 
Q 47.125 51.421875 43.28125 58.90625 
Q 39.453125 66.40625 31.78125 66.40625 
z
M 31.78125 74.21875 
Q 44.046875 74.21875 50.515625 64.515625 
Q 56.984375 54.828125 56.984375 36.375 
Q 56.984375 17.96875 50.515625 8.265625 
Q 44.046875 -1.421875 31.78125 -1.421875 
Q 19.53125 -1.421875 13.0625 8.265625 
Q 6.59375 17.96875 6.59375 36.375 
Q 6.59375 54.828125 13.0625 64.515625 
Q 19.53125 74.21875 31.78125 74.21875 
z
" id="DejaVuSans-48"/>
      </defs>
      <g transform="translate(60.345957 171.270437)scale(0.1 -0.1)">
       <use xlink:href="#DejaVuSans-48"/>
      </g>
     </g>
    </g>
    <g id="xtick_2">
     <g id="line2d_3">
      <path clip-path="url(#p96a5ff91a2)" d="M 134.813038 156.672 
L 134.813038 27.648 
" style="fill:none;stroke:#b0b0b0;stroke-linecap:square;stroke-width:0.8;"/>
     </g>
     <g id="line2d_4">
      <g>
       <use style="stroke:#000000;stroke-width:0.8;" x="134.813038" xlink:href="#m3bd187917a" y="156.672"/>
      </g>
     </g>
     <g id="text_2">
      <!-- 200 -->
      <defs>
       <path d="M 19.1875 8.296875 
L 53.609375 8.296875 
L 53.609375 0 
L 7.328125 0 
L 7.328125 8.296875 
Q 12.9375 14.109375 22.625 23.890625 
Q 32.328125 33.6875 34.8125 36.53125 
Q 39.546875 41.84375 41.421875 45.53125 
Q 43.3125 49.21875 43.3125 52.78125 
Q 43.3125 58.59375 39.234375 62.25 
Q 35.15625 65.921875 28.609375 65.921875 
Q 23.96875 65.921875 18.8125 64.3125 
Q 13.671875 62.703125 7.8125 59.421875 
L 7.8125 69.390625 
Q 13.765625 71.78125 18.9375 73 
Q 24.125 74.21875 28.421875 74.21875 
Q 39.75 74.21875 46.484375 68.546875 
Q 53.21875 62.890625 53.21875 53.421875 
Q 53.21875 48.921875 51.53125 44.890625 
Q 49.859375 40.875 45.40625 35.40625 
Q 44.1875 33.984375 37.640625 27.21875 
Q 31.109375 20.453125 19.1875 8.296875 
z
" id="DejaVuSans-50"/>
      </defs>
      <g transform="translate(125.269288 171.270437)scale(0.1 -0.1)">
       <use xlink:href="#DejaVuSans-50"/>
       <use x="63.623047" xlink:href="#DejaVuSans-48"/>
       <use x="127.246094" xlink:href="#DejaVuSans-48"/>
      </g>
     </g>
    </g>
    <g id="xtick_3">
     <g id="line2d_5">
      <path clip-path="url(#p96a5ff91a2)" d="M 206.09887 156.672 
L 206.09887 27.648 
" style="fill:none;stroke:#b0b0b0;stroke-linecap:square;stroke-width:0.8;"/>
     </g>
     <g id="line2d_6">
      <g>
       <use style="stroke:#000000;stroke-width:0.8;" x="206.09887" xlink:href="#m3bd187917a" y="156.672"/>
      </g>
     </g>
     <g id="text_3">
      <!-- 400 -->
      <defs>
       <path d="M 37.796875 64.3125 
L 12.890625 25.390625 
L 37.796875 25.390625 
z
M 35.203125 72.90625 
L 47.609375 72.90625 
L 47.609375 25.390625 
L 58.015625 25.390625 
L 58.015625 17.1875 
L 47.609375 17.1875 
L 47.609375 0 
L 37.796875 0 
L 37.796875 17.1875 
L 4.890625 17.1875 
L 4.890625 26.703125 
z
" id="DejaVuSans-52"/>
      </defs>
      <g transform="translate(196.55512 171.270437)scale(0.1 -0.1)">
       <use xlink:href="#DejaVuSans-52"/>
       <use x="63.623047" xlink:href="#DejaVuSans-48"/>
       <use x="127.246094" xlink:href="#DejaVuSans-48"/>
      </g>
     </g>
    </g>
    <g id="xtick_4">
     <g id="line2d_7">
      <path clip-path="url(#p96a5ff91a2)" d="M 277.384701 156.672 
L 277.384701 27.648 
" style="fill:none;stroke:#b0b0b0;stroke-linecap:square;stroke-width:0.8;"/>
     </g>
     <g id="line2d_8">
      <g>
       <use style="stroke:#000000;stroke-width:0.8;" x="277.384701" xlink:href="#m3bd187917a" y="156.672"/>
      </g>
     </g>
     <g id="text_4">
      <!-- 600 -->
      <defs>
       <path d="M 33.015625 40.375 
Q 26.375 40.375 22.484375 35.828125 
Q 18.609375 31.296875 18.609375 23.390625 
Q 18.609375 15.53125 22.484375 10.953125 
Q 26.375 6.390625 33.015625 6.390625 
Q 39.65625 6.390625 43.53125 10.953125 
Q 47.40625 15.53125 47.40625 23.390625 
Q 47.40625 31.296875 43.53125 35.828125 
Q 39.65625 40.375 33.015625 40.375 
z
M 52.59375 71.296875 
L 52.59375 62.3125 
Q 48.875 64.0625 45.09375 64.984375 
Q 41.3125 65.921875 37.59375 65.921875 
Q 27.828125 65.921875 22.671875 59.328125 
Q 17.53125 52.734375 16.796875 39.40625 
Q 19.671875 43.65625 24.015625 45.921875 
Q 28.375 48.1875 33.59375 48.1875 
Q 44.578125 48.1875 50.953125 41.515625 
Q 57.328125 34.859375 57.328125 23.390625 
Q 57.328125 12.15625 50.6875 5.359375 
Q 44.046875 -1.421875 33.015625 -1.421875 
Q 20.359375 -1.421875 13.671875 8.265625 
Q 6.984375 17.96875 6.984375 36.375 
Q 6.984375 53.65625 15.1875 63.9375 
Q 23.390625 74.21875 37.203125 74.21875 
Q 40.921875 74.21875 44.703125 73.484375 
Q 48.484375 72.75 52.59375 71.296875 
z
" id="DejaVuSans-54"/>
      </defs>
      <g transform="translate(267.840951 171.270437)scale(0.1 -0.1)">
       <use xlink:href="#DejaVuSans-54"/>
       <use x="63.623047" xlink:href="#DejaVuSans-48"/>
       <use x="127.246094" xlink:href="#DejaVuSans-48"/>
      </g>
     </g>
    </g>
    <g id="xtick_5">
     <g id="line2d_9">
      <path clip-path="url(#p96a5ff91a2)" d="M 348.670532 156.672 
L 348.670532 27.648 
" style="fill:none;stroke:#b0b0b0;stroke-linecap:square;stroke-width:0.8;"/>
     </g>
     <g id="line2d_10">
      <g>
       <use style="stroke:#000000;stroke-width:0.8;" x="348.670532" xlink:href="#m3bd187917a" y="156.672"/>
      </g>
     </g>
     <g id="text_5">
      <!-- 800 -->
      <defs>
       <path d="M 31.78125 34.625 
Q 24.75 34.625 20.71875 30.859375 
Q 16.703125 27.09375 16.703125 20.515625 
Q 16.703125 13.921875 20.71875 10.15625 
Q 24.75 6.390625 31.78125 6.390625 
Q 38.8125 6.390625 42.859375 10.171875 
Q 46.921875 13.96875 46.921875 20.515625 
Q 46.921875 27.09375 42.890625 30.859375 
Q 38.875 34.625 31.78125 34.625 
z
M 21.921875 38.8125 
Q 15.578125 40.375 12.03125 44.71875 
Q 8.5 49.078125 8.5 55.328125 
Q 8.5 64.0625 14.71875 69.140625 
Q 20.953125 74.21875 31.78125 74.21875 
Q 42.671875 74.21875 48.875 69.140625 
Q 55.078125 64.0625 55.078125 55.328125 
Q 55.078125 49.078125 51.53125 44.71875 
Q 48 40.375 41.703125 38.8125 
Q 48.828125 37.15625 52.796875 32.3125 
Q 56.78125 27.484375 56.78125 20.515625 
Q 56.78125 9.90625 50.3125 4.234375 
Q 43.84375 -1.421875 31.78125 -1.421875 
Q 19.734375 -1.421875 13.25 4.234375 
Q 6.78125 9.90625 6.78125 20.515625 
Q 6.78125 27.484375 10.78125 32.3125 
Q 14.796875 37.15625 21.921875 38.8125 
z
M 18.3125 54.390625 
Q 18.3125 48.734375 21.84375 45.5625 
Q 25.390625 42.390625 31.78125 42.390625 
Q 38.140625 42.390625 41.71875 45.5625 
Q 45.3125 48.734375 45.3125 54.390625 
Q 45.3125 60.0625 41.71875 63.234375 
Q 38.140625 66.40625 31.78125 66.40625 
Q 25.390625 66.40625 21.84375 63.234375 
Q 18.3125 60.0625 18.3125 54.390625 
z
" id="DejaVuSans-56"/>
      </defs>
      <g transform="translate(339.126782 171.270437)scale(0.1 -0.1)">
       <use xlink:href="#DejaVuSans-56"/>
       <use x="63.623047" xlink:href="#DejaVuSans-48"/>
       <use x="127.246094" xlink:href="#DejaVuSans-48"/>
      </g>
     </g>
    </g>
    <g id="xtick_6">
     <g id="line2d_11">
      <path clip-path="url(#p96a5ff91a2)" d="M 419.956364 156.672 
L 419.956364 27.648 
" style="fill:none;stroke:#b0b0b0;stroke-linecap:square;stroke-width:0.8;"/>
     </g>
     <g id="line2d_12">
      <g>
       <use style="stroke:#000000;stroke-width:0.8;" x="419.956364" xlink:href="#m3bd187917a" y="156.672"/>
      </g>
     </g>
     <g id="text_6">
      <!-- 1000 -->
      <defs>
       <path d="M 12.40625 8.296875 
L 28.515625 8.296875 
L 28.515625 63.921875 
L 10.984375 60.40625 
L 10.984375 69.390625 
L 28.421875 72.90625 
L 38.28125 72.90625 
L 38.28125 8.296875 
L 54.390625 8.296875 
L 54.390625 0 
L 12.40625 0 
z
" id="DejaVuSans-49"/>
      </defs>
      <g transform="translate(407.231364 171.270437)scale(0.1 -0.1)">
       <use xlink:href="#DejaVuSans-49"/>
       <use x="63.623047" xlink:href="#DejaVuSans-48"/>
       <use x="127.246094" xlink:href="#DejaVuSans-48"/>
       <use x="190.869141" xlink:href="#DejaVuSans-48"/>
      </g>
     </g>
    </g>
    <g id="text_7">
     <!-- Corridas -->
     <defs>
      <path d="M 64.40625 67.28125 
L 64.40625 56.890625 
Q 59.421875 61.53125 53.78125 63.8125 
Q 48.140625 66.109375 41.796875 66.109375 
Q 29.296875 66.109375 22.65625 58.46875 
Q 16.015625 50.828125 16.015625 36.375 
Q 16.015625 21.96875 22.65625 14.328125 
Q 29.296875 6.6875 41.796875 6.6875 
Q 48.140625 6.6875 53.78125 8.984375 
Q 59.421875 11.28125 64.40625 15.921875 
L 64.40625 5.609375 
Q 59.234375 2.09375 53.4375 0.328125 
Q 47.65625 -1.421875 41.21875 -1.421875 
Q 24.65625 -1.421875 15.125 8.703125 
Q 5.609375 18.84375 5.609375 36.375 
Q 5.609375 53.953125 15.125 64.078125 
Q 24.65625 74.21875 41.21875 74.21875 
Q 47.75 74.21875 53.53125 72.484375 
Q 59.328125 70.75 64.40625 67.28125 
z
" id="DejaVuSans-67"/>
      <path d="M 30.609375 48.390625 
Q 23.390625 48.390625 19.1875 42.75 
Q 14.984375 37.109375 14.984375 27.296875 
Q 14.984375 17.484375 19.15625 11.84375 
Q 23.34375 6.203125 30.609375 6.203125 
Q 37.796875 6.203125 41.984375 11.859375 
Q 46.1875 17.53125 46.1875 27.296875 
Q 46.1875 37.015625 41.984375 42.703125 
Q 37.796875 48.390625 30.609375 48.390625 
z
M 30.609375 56 
Q 42.328125 56 49.015625 48.375 
Q 55.71875 40.765625 55.71875 27.296875 
Q 55.71875 13.875 49.015625 6.21875 
Q 42.328125 -1.421875 30.609375 -1.421875 
Q 18.84375 -1.421875 12.171875 6.21875 
Q 5.515625 13.875 5.515625 27.296875 
Q 5.515625 40.765625 12.171875 48.375 
Q 18.84375 56 30.609375 56 
z
" id="DejaVuSans-111"/>
      <path d="M 41.109375 46.296875 
Q 39.59375 47.171875 37.8125 47.578125 
Q 36.03125 48 33.890625 48 
Q 26.265625 48 22.1875 43.046875 
Q 18.109375 38.09375 18.109375 28.8125 
L 18.109375 0 
L 9.078125 0 
L 9.078125 54.6875 
L 18.109375 54.6875 
L 18.109375 46.1875 
Q 20.953125 51.171875 25.484375 53.578125 
Q 30.03125 56 36.53125 56 
Q 37.453125 56 38.578125 55.875 
Q 39.703125 55.765625 41.0625 55.515625 
z
" id="DejaVuSans-114"/>
      <path d="M 9.421875 54.6875 
L 18.40625 54.6875 
L 18.40625 0 
L 9.421875 0 
z
M 9.421875 75.984375 
L 18.40625 75.984375 
L 18.40625 64.59375 
L 9.421875 64.59375 
z
" id="DejaVuSans-105"/>
      <path d="M 45.40625 46.390625 
L 45.40625 75.984375 
L 54.390625 75.984375 
L 54.390625 0 
L 45.40625 0 
L 45.40625 8.203125 
Q 42.578125 3.328125 38.25 0.953125 
Q 33.9375 -1.421875 27.875 -1.421875 
Q 17.96875 -1.421875 11.734375 6.484375 
Q 5.515625 14.40625 5.515625 27.296875 
Q 5.515625 40.1875 11.734375 48.09375 
Q 17.96875 56 27.875 56 
Q 33.9375 56 38.25 53.625 
Q 42.578125 51.265625 45.40625 46.390625 
z
M 14.796875 27.296875 
Q 14.796875 17.390625 18.875 11.75 
Q 22.953125 6.109375 30.078125 6.109375 
Q 37.203125 6.109375 41.296875 11.75 
Q 45.40625 17.390625 45.40625 27.296875 
Q 45.40625 37.203125 41.296875 42.84375 
Q 37.203125 48.484375 30.078125 48.484375 
Q 22.953125 48.484375 18.875 42.84375 
Q 14.796875 37.203125 14.796875 27.296875 
z
" id="DejaVuSans-100"/>
      <path d="M 34.28125 27.484375 
Q 23.390625 27.484375 19.1875 25 
Q 14.984375 22.515625 14.984375 16.5 
Q 14.984375 11.71875 18.140625 8.90625 
Q 21.296875 6.109375 26.703125 6.109375 
Q 34.1875 6.109375 38.703125 11.40625 
Q 43.21875 16.703125 43.21875 25.484375 
L 43.21875 27.484375 
z
M 52.203125 31.203125 
L 52.203125 0 
L 43.21875 0 
L 43.21875 8.296875 
Q 40.140625 3.328125 35.546875 0.953125 
Q 30.953125 -1.421875 24.3125 -1.421875 
Q 15.921875 -1.421875 10.953125 3.296875 
Q 6 8.015625 6 15.921875 
Q 6 25.140625 12.171875 29.828125 
Q 18.359375 34.515625 30.609375 34.515625 
L 43.21875 34.515625 
L 43.21875 35.40625 
Q 43.21875 41.609375 39.140625 45 
Q 35.0625 48.390625 27.6875 48.390625 
Q 23 48.390625 18.546875 47.265625 
Q 14.109375 46.140625 10.015625 43.890625 
L 10.015625 52.203125 
Q 14.9375 54.109375 19.578125 55.046875 
Q 24.21875 56 28.609375 56 
Q 40.484375 56 46.34375 49.84375 
Q 52.203125 43.703125 52.203125 31.203125 
z
" id="DejaVuSans-97"/>
      <path d="M 44.28125 53.078125 
L 44.28125 44.578125 
Q 40.484375 46.53125 36.375 47.5 
Q 32.28125 48.484375 27.875 48.484375 
Q 21.1875 48.484375 17.84375 46.4375 
Q 14.5 44.390625 14.5 40.28125 
Q 14.5 37.15625 16.890625 35.375 
Q 19.28125 33.59375 26.515625 31.984375 
L 29.59375 31.296875 
Q 39.15625 29.25 43.1875 25.515625 
Q 47.21875 21.78125 47.21875 15.09375 
Q 47.21875 7.46875 41.1875 3.015625 
Q 35.15625 -1.421875 24.609375 -1.421875 
Q 20.21875 -1.421875 15.453125 -0.5625 
Q 10.6875 0.296875 5.421875 2 
L 5.421875 11.28125 
Q 10.40625 8.6875 15.234375 7.390625 
Q 20.0625 6.109375 24.8125 6.109375 
Q 31.15625 6.109375 34.5625 8.28125 
Q 37.984375 10.453125 37.984375 14.40625 
Q 37.984375 18.0625 35.515625 20.015625 
Q 33.0625 21.96875 24.703125 23.78125 
L 21.578125 24.515625 
Q 13.234375 26.265625 9.515625 29.90625 
Q 5.8125 33.546875 5.8125 39.890625 
Q 5.8125 47.609375 11.28125 51.796875 
Q 16.75 56 26.8125 56 
Q 31.78125 56 36.171875 55.265625 
Q 40.578125 54.546875 44.28125 53.078125 
z
" id="DejaVuSans-115"/>
     </defs>
     <g transform="translate(221.027031 184.948562)scale(0.1 -0.1)">
      <use xlink:href="#DejaVuSans-67"/>
      <use x="69.824219" xlink:href="#DejaVuSans-111"/>
      <use x="131.005859" xlink:href="#DejaVuSans-114"/>
      <use x="172.103516" xlink:href="#DejaVuSans-114"/>
      <use x="213.216797" xlink:href="#DejaVuSans-105"/>
      <use x="241" xlink:href="#DejaVuSans-100"/>
      <use x="304.476562" xlink:href="#DejaVuSans-97"/>
      <use x="365.755859" xlink:href="#DejaVuSans-115"/>
     </g>
    </g>
   </g>
   <g id="matplotlib.axis_2">
    <g id="ytick_1">
     <g id="line2d_13">
      <path clip-path="url(#p96a5ff91a2)" d="M 46.08 150.807273 
L 437.76 150.807273 
" style="fill:none;stroke:#b0b0b0;stroke-linecap:square;stroke-width:0.8;"/>
     </g>
     <g id="line2d_14">
      <defs>
       <path d="M 0 0 
L -3.5 0 
" id="mbaced16616" style="stroke:#000000;stroke-width:0.8;"/>
      </defs>
      <g>
       <use style="stroke:#000000;stroke-width:0.8;" x="46.08" xlink:href="#mbaced16616" y="150.807273"/>
      </g>
     </g>
     <g id="text_8">
      <!-- 0.0000000 -->
      <defs>
       <path d="M 10.6875 12.40625 
L 21 12.40625 
L 21 0 
L 10.6875 0 
z
" id="DejaVuSans-46"/>
      </defs>
      <g transform="translate(-14.998125 154.606491)scale(0.1 -0.1)">
       <use xlink:href="#DejaVuSans-48"/>
       <use x="63.623047" xlink:href="#DejaVuSans-46"/>
       <use x="95.410156" xlink:href="#DejaVuSans-48"/>
       <use x="159.033203" xlink:href="#DejaVuSans-48"/>
       <use x="222.65625" xlink:href="#DejaVuSans-48"/>
       <use x="286.279297" xlink:href="#DejaVuSans-48"/>
       <use x="349.902344" xlink:href="#DejaVuSans-48"/>
       <use x="413.525391" xlink:href="#DejaVuSans-48"/>
       <use x="477.148438" xlink:href="#DejaVuSans-48"/>
      </g>
     </g>
    </g>
    <g id="ytick_2">
     <g id="line2d_15">
      <path clip-path="url(#p96a5ff91a2)" d="M 46.08 126.888044 
L 437.76 126.888044 
" style="fill:none;stroke:#b0b0b0;stroke-linecap:square;stroke-width:0.8;"/>
     </g>
     <g id="line2d_16">
      <g>
       <use style="stroke:#000000;stroke-width:0.8;" x="46.08" xlink:href="#mbaced16616" y="126.888044"/>
      </g>
     </g>
     <g id="text_9">
      <!-- 0.0000025 -->
      <defs>
       <path d="M 10.796875 72.90625 
L 49.515625 72.90625 
L 49.515625 64.59375 
L 19.828125 64.59375 
L 19.828125 46.734375 
Q 21.96875 47.46875 24.109375 47.828125 
Q 26.265625 48.1875 28.421875 48.1875 
Q 40.625 48.1875 47.75 41.5 
Q 54.890625 34.8125 54.890625 23.390625 
Q 54.890625 11.625 47.5625 5.09375 
Q 40.234375 -1.421875 26.90625 -1.421875 
Q 22.3125 -1.421875 17.546875 -0.640625 
Q 12.796875 0.140625 7.71875 1.703125 
L 7.71875 11.625 
Q 12.109375 9.234375 16.796875 8.0625 
Q 21.484375 6.890625 26.703125 6.890625 
Q 35.15625 6.890625 40.078125 11.328125 
Q 45.015625 15.765625 45.015625 23.390625 
Q 45.015625 31 40.078125 35.4375 
Q 35.15625 39.890625 26.703125 39.890625 
Q 22.75 39.890625 18.8125 39.015625 
Q 14.890625 38.140625 10.796875 36.28125 
z
" id="DejaVuSans-53"/>
      </defs>
      <g transform="translate(-14.998125 130.687263)scale(0.1 -0.1)">
       <use xlink:href="#DejaVuSans-48"/>
       <use x="63.623047" xlink:href="#DejaVuSans-46"/>
       <use x="95.410156" xlink:href="#DejaVuSans-48"/>
       <use x="159.033203" xlink:href="#DejaVuSans-48"/>
       <use x="222.65625" xlink:href="#DejaVuSans-48"/>
       <use x="286.279297" xlink:href="#DejaVuSans-48"/>
       <use x="349.902344" xlink:href="#DejaVuSans-48"/>
       <use x="413.525391" xlink:href="#DejaVuSans-50"/>
       <use x="477.148438" xlink:href="#DejaVuSans-53"/>
      </g>
     </g>
    </g>
    <g id="ytick_3">
     <g id="line2d_17">
      <path clip-path="url(#p96a5ff91a2)" d="M 46.08 102.968815 
L 437.76 102.968815 
" style="fill:none;stroke:#b0b0b0;stroke-linecap:square;stroke-width:0.8;"/>
     </g>
     <g id="line2d_18">
      <g>
       <use style="stroke:#000000;stroke-width:0.8;" x="46.08" xlink:href="#mbaced16616" y="102.968815"/>
      </g>
     </g>
     <g id="text_10">
      <!-- 0.0000050 -->
      <g transform="translate(-14.998125 106.768034)scale(0.1 -0.1)">
       <use xlink:href="#DejaVuSans-48"/>
       <use x="63.623047" xlink:href="#DejaVuSans-46"/>
       <use x="95.410156" xlink:href="#DejaVuSans-48"/>
       <use x="159.033203" xlink:href="#DejaVuSans-48"/>
       <use x="222.65625" xlink:href="#DejaVuSans-48"/>
       <use x="286.279297" xlink:href="#DejaVuSans-48"/>
       <use x="349.902344" xlink:href="#DejaVuSans-48"/>
       <use x="413.525391" xlink:href="#DejaVuSans-53"/>
       <use x="477.148438" xlink:href="#DejaVuSans-48"/>
      </g>
     </g>
    </g>
    <g id="ytick_4">
     <g id="line2d_19">
      <path clip-path="url(#p96a5ff91a2)" d="M 46.08 79.049586 
L 437.76 79.049586 
" style="fill:none;stroke:#b0b0b0;stroke-linecap:square;stroke-width:0.8;"/>
     </g>
     <g id="line2d_20">
      <g>
       <use style="stroke:#000000;stroke-width:0.8;" x="46.08" xlink:href="#mbaced16616" y="79.049586"/>
      </g>
     </g>
     <g id="text_11">
      <!-- 0.0000075 -->
      <defs>
       <path d="M 8.203125 72.90625 
L 55.078125 72.90625 
L 55.078125 68.703125 
L 28.609375 0 
L 18.3125 0 
L 43.21875 64.59375 
L 8.203125 64.59375 
z
" id="DejaVuSans-55"/>
      </defs>
      <g transform="translate(-14.998125 82.848805)scale(0.1 -0.1)">
       <use xlink:href="#DejaVuSans-48"/>
       <use x="63.623047" xlink:href="#DejaVuSans-46"/>
       <use x="95.410156" xlink:href="#DejaVuSans-48"/>
       <use x="159.033203" xlink:href="#DejaVuSans-48"/>
       <use x="222.65625" xlink:href="#DejaVuSans-48"/>
       <use x="286.279297" xlink:href="#DejaVuSans-48"/>
       <use x="349.902344" xlink:href="#DejaVuSans-48"/>
       <use x="413.525391" xlink:href="#DejaVuSans-55"/>
       <use x="477.148438" xlink:href="#DejaVuSans-53"/>
      </g>
     </g>
    </g>
    <g id="ytick_5">
     <g id="line2d_21">
      <path clip-path="url(#p96a5ff91a2)" d="M 46.08 55.130357 
L 437.76 55.130357 
" style="fill:none;stroke:#b0b0b0;stroke-linecap:square;stroke-width:0.8;"/>
     </g>
     <g id="line2d_22">
      <g>
       <use style="stroke:#000000;stroke-width:0.8;" x="46.08" xlink:href="#mbaced16616" y="55.130357"/>
      </g>
     </g>
     <g id="text_12">
      <!-- 0.0000100 -->
      <g transform="translate(-14.998125 58.929576)scale(0.1 -0.1)">
       <use xlink:href="#DejaVuSans-48"/>
       <use x="63.623047" xlink:href="#DejaVuSans-46"/>
       <use x="95.410156" xlink:href="#DejaVuSans-48"/>
       <use x="159.033203" xlink:href="#DejaVuSans-48"/>
       <use x="222.65625" xlink:href="#DejaVuSans-48"/>
       <use x="286.279297" xlink:href="#DejaVuSans-48"/>
       <use x="349.902344" xlink:href="#DejaVuSans-49"/>
       <use x="413.525391" xlink:href="#DejaVuSans-48"/>
       <use x="477.148438" xlink:href="#DejaVuSans-48"/>
      </g>
     </g>
    </g>
    <g id="ytick_6">
     <g id="line2d_23">
      <path clip-path="url(#p96a5ff91a2)" d="M 46.08 31.211128 
L 437.76 31.211128 
" style="fill:none;stroke:#b0b0b0;stroke-linecap:square;stroke-width:0.8;"/>
     </g>
     <g id="line2d_24">
      <g>
       <use style="stroke:#000000;stroke-width:0.8;" x="46.08" xlink:href="#mbaced16616" y="31.211128"/>
      </g>
     </g>
     <g id="text_13">
      <!-- 0.0000125 -->
      <g transform="translate(-14.998125 35.010347)scale(0.1 -0.1)">
       <use xlink:href="#DejaVuSans-48"/>
       <use x="63.623047" xlink:href="#DejaVuSans-46"/>
       <use x="95.410156" xlink:href="#DejaVuSans-48"/>
       <use x="159.033203" xlink:href="#DejaVuSans-48"/>
       <use x="222.65625" xlink:href="#DejaVuSans-48"/>
       <use x="286.279297" xlink:href="#DejaVuSans-48"/>
       <use x="349.902344" xlink:href="#DejaVuSans-49"/>
       <use x="413.525391" xlink:href="#DejaVuSans-50"/>
       <use x="477.148438" xlink:href="#DejaVuSans-53"/>
      </g>
     </g>
    </g>
    <g id="text_14">
     <!-- Demora -->
     <defs>
      <path d="M 19.671875 64.796875 
L 19.671875 8.109375 
L 31.59375 8.109375 
Q 46.6875 8.109375 53.6875 14.9375 
Q 60.6875 21.78125 60.6875 36.53125 
Q 60.6875 51.171875 53.6875 57.984375 
Q 46.6875 64.796875 31.59375 64.796875 
z
M 9.8125 72.90625 
L 30.078125 72.90625 
Q 51.265625 72.90625 61.171875 64.09375 
Q 71.09375 55.28125 71.09375 36.53125 
Q 71.09375 17.671875 61.125 8.828125 
Q 51.171875 0 30.078125 0 
L 9.8125 0 
z
" id="DejaVuSans-68"/>
      <path d="M 56.203125 29.59375 
L 56.203125 25.203125 
L 14.890625 25.203125 
Q 15.484375 15.921875 20.484375 11.0625 
Q 25.484375 6.203125 34.421875 6.203125 
Q 39.59375 6.203125 44.453125 7.46875 
Q 49.3125 8.734375 54.109375 11.28125 
L 54.109375 2.78125 
Q 49.265625 0.734375 44.1875 -0.34375 
Q 39.109375 -1.421875 33.890625 -1.421875 
Q 20.796875 -1.421875 13.15625 6.1875 
Q 5.515625 13.8125 5.515625 26.8125 
Q 5.515625 40.234375 12.765625 48.109375 
Q 20.015625 56 32.328125 56 
Q 43.359375 56 49.78125 48.890625 
Q 56.203125 41.796875 56.203125 29.59375 
z
M 47.21875 32.234375 
Q 47.125 39.59375 43.09375 43.984375 
Q 39.0625 48.390625 32.421875 48.390625 
Q 24.90625 48.390625 20.390625 44.140625 
Q 15.875 39.890625 15.1875 32.171875 
z
" id="DejaVuSans-101"/>
      <path d="M 52 44.1875 
Q 55.375 50.25 60.0625 53.125 
Q 64.75 56 71.09375 56 
Q 79.640625 56 84.28125 50.015625 
Q 88.921875 44.046875 88.921875 33.015625 
L 88.921875 0 
L 79.890625 0 
L 79.890625 32.71875 
Q 79.890625 40.578125 77.09375 44.375 
Q 74.3125 48.1875 68.609375 48.1875 
Q 61.625 48.1875 57.5625 43.546875 
Q 53.515625 38.921875 53.515625 30.90625 
L 53.515625 0 
L 44.484375 0 
L 44.484375 32.71875 
Q 44.484375 40.625 41.703125 44.40625 
Q 38.921875 48.1875 33.109375 48.1875 
Q 26.21875 48.1875 22.15625 43.53125 
Q 18.109375 38.875 18.109375 30.90625 
L 18.109375 0 
L 9.078125 0 
L 9.078125 54.6875 
L 18.109375 54.6875 
L 18.109375 46.1875 
Q 21.1875 51.21875 25.484375 53.609375 
Q 29.78125 56 35.6875 56 
Q 41.65625 56 45.828125 52.96875 
Q 50 49.953125 52 44.1875 
z
" id="DejaVuSans-109"/>
     </defs>
     <g transform="translate(-21.077812 112.135781)rotate(-90)scale(0.1 -0.1)">
      <use xlink:href="#DejaVuSans-68"/>
      <use x="77.001953" xlink:href="#DejaVuSans-101"/>
      <use x="138.525391" xlink:href="#DejaVuSans-109"/>
      <use x="235.9375" xlink:href="#DejaVuSans-111"/>
      <use x="297.119141" xlink:href="#DejaVuSans-114"/>
      <use x="338.232422" xlink:href="#DejaVuSans-97"/>
     </g>
    </g>
   </g>
   <g id="line2d_25">
    <path clip-path="url(#p96a5ff91a2)" d="M 63.883636 150.807273 
L 66.022211 150.807273 
L 66.37864 33.512727 
L 67.091499 56.971636 
L 67.804357 72.610909 
L 68.160786 36.631499 
L 68.873645 51.854935 
L 69.586503 63.496387 
L 70.65579 76.59302 
L 71.012219 80.127032 
L 71.368649 77.980494 
L 72.437936 86.719707 
L 73.507224 93.586232 
L 74.576511 99.123752 
L 75.645799 103.684063 
L 76.715086 107.504864 
L 79.566519 115.067541 
L 80.635807 117.301274 
L 80.992236 112.375796 
L 82.061523 114.592997 
L 82.417952 77.148745 
L 83.843669 82.317764 
L 85.625815 87.841112 
L 87.407961 92.540079 
L 89.190106 96.586412 
L 90.972252 100.107247 
L 92.04154 102.008498 
L 92.397969 94.888622 
L 93.467256 96.885717 
L 93.823686 90.427553 
L 94.180115 91.129643 
L 94.536544 88.67198 
L 96.675119 92.680709 
L 97.387977 93.904426 
L 97.744406 90.283933 
L 99.882981 93.84413 
L 102.021556 97.008749 
L 103.447273 98.930125 
L 103.803702 89.507455 
L 104.160131 86.984093 
L 104.51656 87.539077 
L 104.872989 82.596959 
L 107.367993 86.478847 
L 108.79371 88.504939 
L 109.150139 88.619533 
L 110.575856 90.50401 
L 110.932285 89.197405 
L 112.714431 91.429647 
L 113.07086 87.265246 
L 115.565864 90.311781 
L 115.922293 88.781603 
L 118.773726 91.982928 
L 120.555872 93.821189 
L 120.912301 81.690354 
L 123.763735 84.962161 
L 126.971597 88.291408 
L 127.328026 88.640659 
L 127.684455 86.444146 
L 129.110172 87.843345 
L 129.466601 86.54733 
L 132.674464 89.528462 
L 136.238755 92.532325 
L 139.803047 95.255453 
L 143.723767 97.97132 
L 147.288059 100.219659 
L 147.644488 98.618964 
L 148.000917 98.839168 
L 148.357346 97.876758 
L 149.070205 98.317846 
L 149.426634 97.265383 
L 150.852351 98.139536 
L 151.20878 97.60982 
L 153.347355 98.876426 
L 153.703784 85.773042 
L 154.773071 86.535162 
L 155.1295 85.02223 
L 157.980934 87.008194 
L 158.337363 85.416482 
L 160.119509 86.622954 
L 160.475938 86.253888 
L 161.188796 86.725081 
L 161.545225 81.488221 
L 165.465946 84.154339 
L 165.822375 83.67632 
L 167.604521 84.715387 
L 170.812383 86.691556 
L 171.525242 81.11227 
L 172.950958 82.020348 
L 173.307387 81.297791 
L 177.940966 84.112816 
L 178.297396 79.887556 
L 183.287404 82.842544 
L 183.643833 77.391519 
L 184.71312 78.039305 
L 185.06955 75.109015 
L 185.425979 75.330355 
L 185.782408 73.737445 
L 186.851695 74.40568 
L 187.208124 74.231937 
L 192.554562 77.404949 
L 194.693137 78.601726 
L 195.049566 77.984396 
L 195.405995 75.990249 
L 197.54457 77.184137 
L 197.900999 77.137989 
L 199.326716 77.91142 
L 199.683145 76.471313 
L 201.465291 77.431726 
L 201.82172 77.145645 
L 202.178149 77.335006 
L 202.534578 75.654946 
L 203.247437 76.038376 
L 203.603866 75.410349 
L 209.306732 78.359862 
L 212.871024 80.088917 
L 213.227453 78.46323 
L 216.791744 80.14565 
L 217.148174 79.84067 
L 217.504603 78.730242 
L 219.643178 79.717599 
L 219.999607 77.631722 
L 223.563898 79.173994 
L 230.336052 82.082183 
L 235.68249 84.216503 
L 236.038919 82.676529 
L 243.523931 85.509689 
L 245.662506 86.276392 
L 246.018935 85.461039 
L 247.801081 86.093014 
L 248.15751 85.609182 
L 251.721802 86.843995 
L 252.078231 85.092013 
L 255.286093 86.191339 
L 255.642523 85.42023 
L 259.206814 86.611251 
L 259.563243 83.566174 
L 261.345389 84.17195 
L 261.701818 84.129848 
L 262.771106 84.487688 
L 263.127535 83.947423 
L 264.553251 84.421607 
L 264.909681 82.92777 
L 268.830401 84.22408 
L 269.18683 82.542062 
L 275.958984 84.718302 
L 276.315414 84.683963 
L 284.156855 87.034065 
L 284.513284 85.291905 
L 289.503292 86.738617 
L 289.859722 86.341412 
L 293.424013 87.340882 
L 293.780442 86.833259 
L 295.919017 87.374899 
L 296.275446 84.069058 
L 299.483309 84.976376 
L 299.839738 82.084335 
L 300.552596 82.29102 
L 300.909025 81.121157 
L 305.186175 82.354539 
L 305.542604 81.72001 
L 309.106896 82.722728 
L 309.463325 81.888118 
L 315.522621 83.545297 
L 315.87905 83.079474 
L 316.948337 83.365245 
L 317.304767 82.21867 
L 317.661196 81.628376 
L 321.938346 82.773406 
L 322.294775 82.157265 
L 328.7105 83.818152 
L 329.066929 82.915344 
L 329.779787 83.097116 
L 330.136216 81.983153 
L 341.18552 84.721982 
L 346.175528 85.794774 
L 347.601245 86.12106 
L 347.957674 85.605163 
L 352.234824 86.57112 
L 352.591253 86.079028 
L 354.729828 86.554388 
L 355.086257 86.136413 
L 359.363407 87.071413 
L 359.719836 86.433202 
L 366.49199 87.872151 
L 366.848419 86.355786 
L 367.917707 86.582196 
L 368.274136 79.297351 
L 375.04629 80.851915 
L 375.402719 80.221013 
L 380.392727 81.332607 
L 380.749156 78.995897 
L 384.669877 79.872617 
L 385.026306 79.822378 
L 387.87774 80.446421 
L 388.234169 79.472162 
L 388.590598 79.55038 
L 388.947027 79.484903 
L 389.659885 79.640798 
L 390.016314 78.56505 
L 391.085602 78.800879 
L 391.442031 78.591038 
L 392.154889 78.74769 
L 392.511319 77.770999 
L 395.362752 78.398594 
L 395.719181 76.347909 
L 396.07561 76.427716 
L 396.432039 75.788561 
L 399.996331 76.58325 
L 400.35276 75.927389 
L 406.412056 77.234215 
L 406.768485 76.903219 
L 411.045635 77.812807 
L 411.402064 77.433971 
L 412.114922 77.584019 
L 412.471351 77.275841 
L 415.322785 77.87184 
L 415.679214 77.524589 
L 416.035643 77.598686 
L 416.392072 77.387957 
L 417.46136 77.609767 
L 417.817789 77.247178 
L 419.956364 77.688538 
L 419.956364 77.688538 
" style="fill:none;stroke:#1f77b4;stroke-linecap:square;stroke-width:1.5;"/>
   </g>
   <g id="patch_3">
    <path d="M 46.08 156.672 
L 46.08 27.648 
" style="fill:none;stroke:#000000;stroke-linecap:square;stroke-linejoin:miter;stroke-width:0.8;"/>
   </g>
   <g id="patch_4">
    <path d="M 437.76 156.672 
L 437.76 27.648 
" style="fill:none;stroke:#000000;stroke-linecap:square;stroke-linejoin:miter;stroke-width:0.8;"/>
   </g>
   <g id="patch_5">
    <path d="M 46.08 156.672 
L 437.76 156.672 
" style="fill:none;stroke:#000000;stroke-linecap:square;stroke-linejoin:miter;stroke-width:0.8;"/>
   </g>
   <g id="patch_6">
    <path d="M 46.08 27.648 
L 437.76 27.648 
" style="fill:none;stroke:#000000;stroke-linecap:square;stroke-linejoin:miter;stroke-width:0.8;"/>
   </g>
   <g id="text_15">
    <!-- Demora promedio en cola A -->
    <defs>
     <path id="DejaVuSans-32"/>
     <path d="M 18.109375 8.203125 
L 18.109375 -20.796875 
L 9.078125 -20.796875 
L 9.078125 54.6875 
L 18.109375 54.6875 
L 18.109375 46.390625 
Q 20.953125 51.265625 25.265625 53.625 
Q 29.59375 56 35.59375 56 
Q 45.5625 56 51.78125 48.09375 
Q 58.015625 40.1875 58.015625 27.296875 
Q 58.015625 14.40625 51.78125 6.484375 
Q 45.5625 -1.421875 35.59375 -1.421875 
Q 29.59375 -1.421875 25.265625 0.953125 
Q 20.953125 3.328125 18.109375 8.203125 
z
M 48.6875 27.296875 
Q 48.6875 37.203125 44.609375 42.84375 
Q 40.53125 48.484375 33.40625 48.484375 
Q 26.265625 48.484375 22.1875 42.84375 
Q 18.109375 37.203125 18.109375 27.296875 
Q 18.109375 17.390625 22.1875 11.75 
Q 26.265625 6.109375 33.40625 6.109375 
Q 40.53125 6.109375 44.609375 11.75 
Q 48.6875 17.390625 48.6875 27.296875 
z
" id="DejaVuSans-112"/>
     <path d="M 54.890625 33.015625 
L 54.890625 0 
L 45.90625 0 
L 45.90625 32.71875 
Q 45.90625 40.484375 42.875 44.328125 
Q 39.84375 48.1875 33.796875 48.1875 
Q 26.515625 48.1875 22.3125 43.546875 
Q 18.109375 38.921875 18.109375 30.90625 
L 18.109375 0 
L 9.078125 0 
L 9.078125 54.6875 
L 18.109375 54.6875 
L 18.109375 46.1875 
Q 21.34375 51.125 25.703125 53.5625 
Q 30.078125 56 35.796875 56 
Q 45.21875 56 50.046875 50.171875 
Q 54.890625 44.34375 54.890625 33.015625 
z
" id="DejaVuSans-110"/>
     <path d="M 48.78125 52.59375 
L 48.78125 44.1875 
Q 44.96875 46.296875 41.140625 47.34375 
Q 37.3125 48.390625 33.40625 48.390625 
Q 24.65625 48.390625 19.8125 42.84375 
Q 14.984375 37.3125 14.984375 27.296875 
Q 14.984375 17.28125 19.8125 11.734375 
Q 24.65625 6.203125 33.40625 6.203125 
Q 37.3125 6.203125 41.140625 7.25 
Q 44.96875 8.296875 48.78125 10.40625 
L 48.78125 2.09375 
Q 45.015625 0.34375 40.984375 -0.53125 
Q 36.96875 -1.421875 32.421875 -1.421875 
Q 20.0625 -1.421875 12.78125 6.34375 
Q 5.515625 14.109375 5.515625 27.296875 
Q 5.515625 40.671875 12.859375 48.328125 
Q 20.21875 56 33.015625 56 
Q 37.15625 56 41.109375 55.140625 
Q 45.0625 54.296875 48.78125 52.59375 
z
" id="DejaVuSans-99"/>
     <path d="M 9.421875 75.984375 
L 18.40625 75.984375 
L 18.40625 0 
L 9.421875 0 
z
" id="DejaVuSans-108"/>
     <path d="M 34.1875 63.1875 
L 20.796875 26.90625 
L 47.609375 26.90625 
z
M 28.609375 72.90625 
L 39.796875 72.90625 
L 67.578125 0 
L 57.328125 0 
L 50.6875 18.703125 
L 17.828125 18.703125 
L 11.1875 0 
L 0.78125 0 
z
" id="DejaVuSans-65"/>
    </defs>
    <g transform="translate(157.780313 21.648)scale(0.12 -0.12)">
     <use xlink:href="#DejaVuSans-68"/>
     <use x="77.001953" xlink:href="#DejaVuSans-101"/>
     <use x="138.525391" xlink:href="#DejaVuSans-109"/>
     <use x="235.9375" xlink:href="#DejaVuSans-111"/>
     <use x="297.119141" xlink:href="#DejaVuSans-114"/>
     <use x="338.232422" xlink:href="#DejaVuSans-97"/>
     <use x="399.511719" xlink:href="#DejaVuSans-32"/>
     <use x="431.298828" xlink:href="#DejaVuSans-112"/>
     <use x="494.775391" xlink:href="#DejaVuSans-114"/>
     <use x="535.857422" xlink:href="#DejaVuSans-111"/>
     <use x="597.039062" xlink:href="#DejaVuSans-109"/>
     <use x="694.451172" xlink:href="#DejaVuSans-101"/>
     <use x="755.974609" xlink:href="#DejaVuSans-100"/>
     <use x="819.451172" xlink:href="#DejaVuSans-105"/>
     <use x="847.234375" xlink:href="#DejaVuSans-111"/>
     <use x="908.416016" xlink:href="#DejaVuSans-32"/>
     <use x="940.203125" xlink:href="#DejaVuSans-101"/>
     <use x="1001.726562" xlink:href="#DejaVuSans-110"/>
     <use x="1065.105469" xlink:href="#DejaVuSans-32"/>
     <use x="1096.892578" xlink:href="#DejaVuSans-99"/>
     <use x="1151.873047" xlink:href="#DejaVuSans-111"/>
     <use x="1213.054688" xlink:href="#DejaVuSans-108"/>
     <use x="1240.837891" xlink:href="#DejaVuSans-97"/>
     <use x="1302.117188" xlink:href="#DejaVuSans-32"/>
     <use x="1333.904297" xlink:href="#DejaVuSans-65"/>
    </g>
   </g>
  </g>
  <g id="axes_2">
   <g id="patch_7">
    <path d="M 46.08 317.952 
L 212.75234 317.952 
L 212.75234 188.928 
L 46.08 188.928 
z
" style="fill:#ffffff;"/>
   </g>
   <g id="matplotlib.axis_3">
    <g id="xtick_7">
     <g id="line2d_26">
      <path clip-path="url(#p2609f13ae5)" d="M 53.504343 317.952 
L 53.504343 188.928 
" style="fill:none;stroke:#b0b0b0;stroke-linecap:square;stroke-width:0.8;"/>
     </g>
     <g id="line2d_27">
      <g>
       <use style="stroke:#000000;stroke-width:0.8;" x="53.504343" xlink:href="#m3bd187917a" y="317.952"/>
      </g>
     </g>
     <g id="text_16">
      <!-- 0 -->
      <g transform="translate(50.323093 332.550437)scale(0.1 -0.1)">
       <use xlink:href="#DejaVuSans-48"/>
      </g>
     </g>
    </g>
    <g id="xtick_8">
     <g id="line2d_28">
      <path clip-path="url(#p2609f13ae5)" d="M 91.422339 317.952 
L 91.422339 188.928 
" style="fill:none;stroke:#b0b0b0;stroke-linecap:square;stroke-width:0.8;"/>
     </g>
     <g id="line2d_29">
      <g>
       <use style="stroke:#000000;stroke-width:0.8;" x="91.422339" xlink:href="#m3bd187917a" y="317.952"/>
      </g>
     </g>
     <g id="text_17">
      <!-- 250 -->
      <g transform="translate(81.878589 332.550437)scale(0.1 -0.1)">
       <use xlink:href="#DejaVuSans-50"/>
       <use x="63.623047" xlink:href="#DejaVuSans-53"/>
       <use x="127.246094" xlink:href="#DejaVuSans-48"/>
      </g>
     </g>
    </g>
    <g id="xtick_9">
     <g id="line2d_30">
      <path clip-path="url(#p2609f13ae5)" d="M 129.340334 317.952 
L 129.340334 188.928 
" style="fill:none;stroke:#b0b0b0;stroke-linecap:square;stroke-width:0.8;"/>
     </g>
     <g id="line2d_31">
      <g>
       <use style="stroke:#000000;stroke-width:0.8;" x="129.340334" xlink:href="#m3bd187917a" y="317.952"/>
      </g>
     </g>
     <g id="text_18">
      <!-- 500 -->
      <g transform="translate(119.796584 332.550437)scale(0.1 -0.1)">
       <use xlink:href="#DejaVuSans-53"/>
       <use x="63.623047" xlink:href="#DejaVuSans-48"/>
       <use x="127.246094" xlink:href="#DejaVuSans-48"/>
      </g>
     </g>
    </g>
    <g id="xtick_10">
     <g id="line2d_32">
      <path clip-path="url(#p2609f13ae5)" d="M 167.25833 317.952 
L 167.25833 188.928 
" style="fill:none;stroke:#b0b0b0;stroke-linecap:square;stroke-width:0.8;"/>
     </g>
     <g id="line2d_33">
      <g>
       <use style="stroke:#000000;stroke-width:0.8;" x="167.25833" xlink:href="#m3bd187917a" y="317.952"/>
      </g>
     </g>
     <g id="text_19">
      <!-- 750 -->
      <g transform="translate(157.71458 332.550437)scale(0.1 -0.1)">
       <use xlink:href="#DejaVuSans-55"/>
       <use x="63.623047" xlink:href="#DejaVuSans-53"/>
       <use x="127.246094" xlink:href="#DejaVuSans-48"/>
      </g>
     </g>
    </g>
    <g id="xtick_11">
     <g id="line2d_34">
      <path clip-path="url(#p2609f13ae5)" d="M 205.176325 317.952 
L 205.176325 188.928 
" style="fill:none;stroke:#b0b0b0;stroke-linecap:square;stroke-width:0.8;"/>
     </g>
     <g id="line2d_35">
      <g>
       <use style="stroke:#000000;stroke-width:0.8;" x="205.176325" xlink:href="#m3bd187917a" y="317.952"/>
      </g>
     </g>
     <g id="text_20">
      <!-- 1000 -->
      <g transform="translate(192.451325 332.550437)scale(0.1 -0.1)">
       <use xlink:href="#DejaVuSans-49"/>
       <use x="63.623047" xlink:href="#DejaVuSans-48"/>
       <use x="127.246094" xlink:href="#DejaVuSans-48"/>
       <use x="190.869141" xlink:href="#DejaVuSans-48"/>
      </g>
     </g>
    </g>
    <g id="text_21">
     <!-- Corridas -->
     <g transform="translate(108.523201 346.228563)scale(0.1 -0.1)">
      <use xlink:href="#DejaVuSans-67"/>
      <use x="69.824219" xlink:href="#DejaVuSans-111"/>
      <use x="131.005859" xlink:href="#DejaVuSans-114"/>
      <use x="172.103516" xlink:href="#DejaVuSans-114"/>
      <use x="213.216797" xlink:href="#DejaVuSans-105"/>
      <use x="241" xlink:href="#DejaVuSans-100"/>
      <use x="304.476562" xlink:href="#DejaVuSans-97"/>
      <use x="365.755859" xlink:href="#DejaVuSans-115"/>
     </g>
    </g>
   </g>
   <g id="matplotlib.axis_4">
    <g id="ytick_7">
     <g id="line2d_36">
      <path clip-path="url(#p2609f13ae5)" d="M 46.08 290.453892 
L 212.75234 290.453892 
" style="fill:none;stroke:#b0b0b0;stroke-linecap:square;stroke-width:0.8;"/>
     </g>
     <g id="line2d_37">
      <g>
       <use style="stroke:#000000;stroke-width:0.8;" x="46.08" xlink:href="#mbaced16616" y="290.453892"/>
      </g>
     </g>
     <g id="text_22">
      <!-- 0.040 -->
      <g transform="translate(10.451875 294.253111)scale(0.1 -0.1)">
       <use xlink:href="#DejaVuSans-48"/>
       <use x="63.623047" xlink:href="#DejaVuSans-46"/>
       <use x="95.410156" xlink:href="#DejaVuSans-48"/>
       <use x="159.033203" xlink:href="#DejaVuSans-52"/>
       <use x="222.65625" xlink:href="#DejaVuSans-48"/>
      </g>
     </g>
    </g>
    <g id="ytick_8">
     <g id="line2d_38">
      <path clip-path="url(#p2609f13ae5)" d="M 46.08 259.745536 
L 212.75234 259.745536 
" style="fill:none;stroke:#b0b0b0;stroke-linecap:square;stroke-width:0.8;"/>
     </g>
     <g id="line2d_39">
      <g>
       <use style="stroke:#000000;stroke-width:0.8;" x="46.08" xlink:href="#mbaced16616" y="259.745536"/>
      </g>
     </g>
     <g id="text_23">
      <!-- 0.045 -->
      <g transform="translate(10.451875 263.544755)scale(0.1 -0.1)">
       <use xlink:href="#DejaVuSans-48"/>
       <use x="63.623047" xlink:href="#DejaVuSans-46"/>
       <use x="95.410156" xlink:href="#DejaVuSans-48"/>
       <use x="159.033203" xlink:href="#DejaVuSans-52"/>
       <use x="222.65625" xlink:href="#DejaVuSans-53"/>
      </g>
     </g>
    </g>
    <g id="ytick_9">
     <g id="line2d_40">
      <path clip-path="url(#p2609f13ae5)" d="M 46.08 229.037181 
L 212.75234 229.037181 
" style="fill:none;stroke:#b0b0b0;stroke-linecap:square;stroke-width:0.8;"/>
     </g>
     <g id="line2d_41">
      <g>
       <use style="stroke:#000000;stroke-width:0.8;" x="46.08" xlink:href="#mbaced16616" y="229.037181"/>
      </g>
     </g>
     <g id="text_24">
      <!-- 0.050 -->
      <g transform="translate(10.451875 232.8364)scale(0.1 -0.1)">
       <use xlink:href="#DejaVuSans-48"/>
       <use x="63.623047" xlink:href="#DejaVuSans-46"/>
       <use x="95.410156" xlink:href="#DejaVuSans-48"/>
       <use x="159.033203" xlink:href="#DejaVuSans-53"/>
       <use x="222.65625" xlink:href="#DejaVuSans-48"/>
      </g>
     </g>
    </g>
    <g id="ytick_10">
     <g id="line2d_42">
      <path clip-path="url(#p2609f13ae5)" d="M 46.08 198.328826 
L 212.75234 198.328826 
" style="fill:none;stroke:#b0b0b0;stroke-linecap:square;stroke-width:0.8;"/>
     </g>
     <g id="line2d_43">
      <g>
       <use style="stroke:#000000;stroke-width:0.8;" x="46.08" xlink:href="#mbaced16616" y="198.328826"/>
      </g>
     </g>
     <g id="text_25">
      <!-- 0.055 -->
      <g transform="translate(10.451875 202.128045)scale(0.1 -0.1)">
       <use xlink:href="#DejaVuSans-48"/>
       <use x="63.623047" xlink:href="#DejaVuSans-46"/>
       <use x="95.410156" xlink:href="#DejaVuSans-48"/>
       <use x="159.033203" xlink:href="#DejaVuSans-53"/>
       <use x="222.65625" xlink:href="#DejaVuSans-53"/>
      </g>
     </g>
    </g>
    <g id="text_26">
     <!-- Demora -->
     <g transform="translate(4.372188 273.415781)rotate(-90)scale(0.1 -0.1)">
      <use xlink:href="#DejaVuSans-68"/>
      <use x="77.001953" xlink:href="#DejaVuSans-101"/>
      <use x="138.525391" xlink:href="#DejaVuSans-109"/>
      <use x="235.9375" xlink:href="#DejaVuSans-111"/>
      <use x="297.119141" xlink:href="#DejaVuSans-114"/>
      <use x="338.232422" xlink:href="#DejaVuSans-97"/>
     </g>
    </g>
   </g>
   <g id="line2d_44">
    <path clip-path="url(#p2609f13ae5)" d="M 53.656015 312.087273 
L 53.807687 250.625778 
L 53.959359 242.246462 
L 54.111031 269.022254 
L 54.414375 238.683537 
L 55.021063 215.378629 
L 55.172735 215.585535 
L 55.324407 201.731964 
L 55.476079 201.908662 
L 55.627751 194.792727 
L 55.779423 202.809473 
L 55.931095 201.55522 
L 56.082767 198.196223 
L 56.386111 204.697553 
L 56.537783 213.764344 
L 56.689455 214.847271 
L 56.841127 212.695938 
L 56.992799 208.907125 
L 57.144471 211.634711 
L 57.296143 217.070441 
L 57.447815 215.96919 
L 57.599487 218.356966 
L 57.902831 213.633255 
L 58.054503 215.004235 
L 58.206175 213.861866 
L 58.357847 211.414893 
L 58.509519 212.04645 
L 58.661191 211.102235 
L 58.964535 208.219936 
L 59.116207 208.487207 
L 59.267879 210.402779 
L 59.419551 209.888164 
L 59.571223 210.343512 
L 59.874567 207.248216 
L 60.177911 208.817584 
L 60.481255 206.435201 
L 60.632927 206.458455 
L 60.784599 207.294766 
L 60.936271 204.400257 
L 61.239615 207.337343 
L 61.391287 206.768732 
L 61.542959 205.30934 
L 61.69463 207.52677 
L 61.846302 207.455203 
L 61.997974 206.343078 
L 62.301318 207.157069 
L 62.45299 207.315017 
L 62.908006 201.691144 
L 63.059678 201.779914 
L 63.363022 203.141176 
L 63.514694 204.582083 
L 63.666366 204.195188 
L 63.96971 205.748147 
L 64.424726 209.290247 
L 64.576398 209.643611 
L 64.879742 208.781172 
L 65.031414 209.784611 
L 65.183086 210.011409 
L 65.48643 211.52351 
L 65.638102 211.702534 
L 65.789774 210.766761 
L 65.941446 210.592148 
L 66.396462 211.809894 
L 66.548134 211.429923 
L 66.699806 212.161809 
L 66.851478 210.602201 
L 67.00315 210.332717 
L 67.154822 208.829663 
L 67.306494 209.267978 
L 67.458166 207.971097 
L 67.609838 208.388385 
L 67.76151 208.306598 
L 67.913182 207.706766 
L 68.064854 207.733197 
L 68.216526 205.787581 
L 68.368198 205.824019 
L 68.51987 205.368283 
L 68.823214 203.792891 
L 68.974886 204.509035 
L 69.126558 203.843013 
L 69.27823 203.697986 
L 70.036589 207.052409 
L 70.491605 206.15263 
L 70.643277 205.238898 
L 70.794949 205.884766 
L 70.946621 205.985621 
L 71.098293 205.829725 
L 71.249965 206.868186 
L 71.401637 207.013166 
L 71.704981 207.032654 
L 72.008325 206.05193 
L 72.159997 206.318919 
L 72.311669 205.528046 
L 72.463341 205.353651 
L 72.615013 205.756998 
L 72.766685 206.535727 
L 73.070029 206.674066 
L 73.221701 206.430858 
L 73.373373 206.749433 
L 73.676717 208.418966 
L 73.828389 208.228344 
L 73.980061 208.261156 
L 74.131733 208.841507 
L 74.283405 208.060089 
L 74.586749 207.578427 
L 74.738421 208.578574 
L 74.890093 208.432807 
L 75.041765 208.49488 
L 75.193437 208.855906 
L 75.496781 210.413778 
L 75.648453 210.090093 
L 75.951797 211.187436 
L 76.861829 206.573435 
L 77.013501 206.673273 
L 77.165173 206.52874 
L 77.468517 206.030342 
L 77.620189 205.790705 
L 77.771861 205.825894 
L 77.923533 206.333025 
L 78.075204 206.21889 
L 78.226876 205.93438 
L 78.681892 207.021663 
L 79.28858 206.643754 
L 79.440252 206.330997 
L 79.591924 206.554613 
L 79.743596 206.548055 
L 80.04694 206.933741 
L 80.198612 207.194198 
L 80.350284 207.16857 
L 80.501956 207.513104 
L 80.653628 207.166372 
L 80.8053 206.355889 
L 80.956972 207.312876 
L 81.260316 205.87336 
L 81.411988 205.518377 
L 81.56366 206.194353 
L 81.715332 206.020226 
L 82.018676 207.544157 
L 82.170348 208.066745 
L 82.32202 208.097278 
L 82.625364 207.90374 
L 82.928708 208.738086 
L 83.08038 208.969544 
L 83.383724 208.380983 
L 83.687068 209.548094 
L 83.83874 209.03555 
L 84.142084 209.243263 
L 84.293756 208.432391 
L 84.445428 208.462168 
L 84.5971 208.210997 
L 84.900444 208.774885 
L 85.052116 208.78379 
L 85.658804 208.177856 
L 85.962148 208.216208 
L 86.11382 208.142515 
L 86.265491 208.299837 
L 86.568835 208.207357 
L 86.720507 208.686367 
L 87.023851 207.079131 
L 87.175523 207.078276 
L 87.478867 207.717837 
L 87.933883 208.695167 
L 88.085555 208.560566 
L 88.388899 208.143287 
L 88.692243 208.808377 
L 88.843915 208.951483 
L 88.995587 209.504745 
L 89.450603 208.802757 
L 89.905619 210.146641 
L 90.208963 209.856383 
L 90.360635 209.837183 
L 90.512307 210.075793 
L 90.663979 209.867509 
L 90.967323 210.470824 
L 91.118995 210.285706 
L 91.422339 210.316022 
L 91.574011 210.14237 
L 91.725683 210.419698 
L 91.877355 210.021383 
L 92.029027 210.221081 
L 92.180699 210.189832 
L 92.332371 210.322048 
L 92.635715 209.877846 
L 92.787387 209.609721 
L 92.939059 209.679327 
L 93.090731 209.296665 
L 93.242403 209.74679 
L 93.545747 209.766818 
L 94.000763 210.093891 
L 94.304107 209.835899 
L 94.455778 209.981978 
L 94.759122 209.778405 
L 94.910794 209.546266 
L 95.062466 209.644564 
L 95.214138 209.364232 
L 95.517482 209.75663 
L 95.820826 209.874192 
L 95.972498 209.521783 
L 96.12417 210.027459 
L 96.275842 209.975582 
L 96.427514 209.459119 
L 96.579186 209.493658 
L 96.730858 209.34778 
L 96.88253 208.906759 
L 97.034202 208.934077 
L 97.337546 208.685229 
L 97.489218 209.014805 
L 97.64089 208.696507 
L 98.39925 209.328916 
L 98.550922 208.521309 
L 98.702594 208.478046 
L 98.854266 208.174772 
L 99.005938 208.244301 
L 99.15761 208.162268 
L 99.309282 208.3547 
L 99.612626 208.927845 
L 99.764298 209.047132 
L 100.067642 209.56936 
L 100.219314 209.441835 
L 100.370986 209.530461 
L 100.522658 209.483201 
L 100.826002 208.679574 
L 100.977674 208.81532 
L 101.129346 209.157302 
L 101.281018 208.974559 
L 101.43269 209.289104 
L 101.736034 209.425586 
L 101.887706 209.71049 
L 102.039378 209.430842 
L 102.19105 209.64433 
L 102.342722 209.142129 
L 102.646065 209.185536 
L 103.252753 208.447578 
L 103.707769 209.029437 
L 103.859441 209.078144 
L 104.314457 208.921278 
L 104.466129 209.21076 
L 104.617801 209.245207 
L 104.769473 209.688749 
L 105.072817 209.534079 
L 105.224489 209.428379 
L 105.679505 209.683193 
L 105.831177 209.654266 
L 105.982849 209.491256 
L 106.134521 208.706121 
L 106.286193 208.786184 
L 106.589537 208.463577 
L 106.892881 209.012181 
L 107.499569 208.162867 
L 107.651241 208.320848 
L 107.802913 207.899218 
L 107.954585 208.00747 
L 108.106257 207.800727 
L 108.409601 207.095811 
L 108.561273 206.785519 
L 108.712945 206.806951 
L 108.864617 206.35595 
L 109.016289 206.563741 
L 109.319633 206.466974 
L 109.471305 206.108413 
L 109.622977 206.365603 
L 109.774649 206.253589 
L 109.926321 206.365146 
L 110.077993 206.33151 
L 110.229665 205.955821 
L 110.684681 206.071561 
L 110.836352 205.766065 
L 110.988024 205.774746 
L 111.139696 205.375268 
L 111.594712 205.332961 
L 112.049728 205.492848 
L 112.2014 205.321141 
L 112.656416 205.536884 
L 112.95976 205.647027 
L 113.111432 205.520087 
L 113.414776 205.744877 
L 113.869792 205.809259 
L 114.021464 205.573712 
L 114.628152 205.61342 
L 115.083168 205.989947 
L 115.23484 205.836755 
L 115.386512 205.992855 
L 115.538184 205.715189 
L 115.689856 205.691488 
L 115.9932 205.951624 
L 116.144872 205.979952 
L 116.296544 205.691888 
L 116.448216 205.711835 
L 116.75156 206.10582 
L 117.054904 206.026834 
L 117.206576 205.784503 
L 117.50992 206.317609 
L 117.661592 206.249949 
L 117.813264 206.442038 
L 118.116608 205.923213 
L 118.419952 206.047447 
L 118.723296 206.378871 
L 119.178311 206.039615 
L 119.329983 206.095077 
L 119.633327 206.478048 
L 119.784999 206.459822 
L 119.936671 206.13634 
L 120.088343 206.115133 
L 120.391687 205.74649 
L 120.543359 205.876383 
L 120.695031 206.159548 
L 120.846703 205.686813 
L 120.998375 205.812443 
L 121.150047 205.469531 
L 121.301719 205.445742 
L 121.605063 205.61984 
L 121.756735 205.698439 
L 121.908407 206.010806 
L 122.060079 205.871183 
L 122.363423 206.234704 
L 122.666767 206.195582 
L 123.273455 205.829373 
L 123.880143 205.693507 
L 124.183487 206.053155 
L 124.335159 206.194408 
L 124.486831 205.613197 
L 124.638503 205.655193 
L 124.790175 205.815861 
L 124.941847 205.46952 
L 125.851879 205.67225 
L 126.155223 205.441172 
L 127.065255 205.822655 
L 127.52027 205.448446 
L 127.975286 206.23705 
L 128.27863 205.925573 
L 128.733646 205.9908 
L 129.188662 206.127282 
L 129.340334 205.816875 
L 129.643678 206.180986 
L 130.098694 206.223004 
L 130.402038 205.948984 
L 130.705382 205.852431 
L 131.31207 205.83335 
L 131.615414 205.832196 
L 131.767086 205.648382 
L 132.373774 205.786936 
L 132.525446 205.968252 
L 132.677118 205.758801 
L 133.283806 205.956422 
L 133.435478 205.954043 
L 133.738822 205.457475 
L 134.193838 205.273325 
L 134.34551 205.520069 
L 134.497182 205.513515 
L 134.648854 205.385769 
L 134.952198 205.470653 
L 135.10387 205.372926 
L 135.255541 205.504361 
L 135.407213 205.371241 
L 135.558885 205.464675 
L 135.710557 205.315424 
L 135.862229 204.963138 
L 136.013901 204.941561 
L 136.317245 204.774093 
L 136.620589 204.905827 
L 136.923933 204.901533 
L 137.530621 205.002966 
L 137.682293 205.091246 
L 137.833965 204.93296 
L 137.985637 205.093208 
L 138.288981 204.81268 
L 138.440653 204.914388 
L 138.592325 204.824884 
L 138.743997 204.869255 
L 139.047341 204.68627 
L 139.199013 204.681957 
L 139.350685 204.86633 
L 139.502357 204.804866 
L 139.654029 205.059408 
L 139.805701 205.067992 
L 139.957373 204.886819 
L 140.109045 204.895848 
L 140.412389 205.162521 
L 140.564061 204.904624 
L 141.777437 205.293726 
L 141.929109 205.021664 
L 142.535797 205.509553 
L 142.687469 205.80496 
L 142.990813 205.5972 
L 143.5975 205.551246 
L 143.900844 205.973253 
L 144.507532 205.997977 
L 144.810876 205.975225 
L 145.265892 206.547386 
L 146.175924 207.216493 
L 146.782612 206.847054 
L 147.085956 206.858417 
L 147.3893 206.700419 
L 147.540972 206.494365 
L 147.692644 206.550702 
L 148.14766 206.003999 
L 149.057692 205.810772 
L 149.209364 205.657093 
L 149.512708 205.832488 
L 149.816052 205.679134 
L 149.967724 205.42822 
L 150.42274 206.060935 
L 151.029428 206.482058 
L 151.1811 206.350742 
L 151.636115 206.565022 
L 151.787787 206.453554 
L 151.939459 206.499526 
L 152.242803 206.263246 
L 152.394475 206.422274 
L 152.697819 205.895109 
L 153.001163 206.270582 
L 153.304507 206.426862 
L 153.607851 206.470769 
L 154.214539 206.044425 
L 154.517883 205.83294 
L 154.669555 205.353432 
L 154.821227 205.334028 
L 155.124571 205.614254 
L 155.276243 205.412687 
L 155.579587 205.406348 
L 155.731259 205.219977 
L 156.641291 205.253324 
L 156.944635 205.472818 
L 157.399651 204.801716 
L 158.309683 204.596281 
L 158.613027 204.260842 
L 158.916371 204.378452 
L 159.068043 204.241698 
L 159.219715 204.308927 
L 159.371387 204.206374 
L 159.978074 204.773893 
L 160.43309 204.600569 
L 160.888106 204.960664 
L 161.19145 204.984698 
L 161.494794 204.759355 
L 162.101482 205.176119 
L 163.314858 205.06357 
L 163.618202 205.237523 
L 164.073218 205.4108 
L 164.22489 205.483262 
L 164.376562 205.306734 
L 164.831578 205.379233 
L 164.98325 205.325024 
L 165.438266 204.866494 
L 165.589938 205.072873 
L 166.044954 205.010551 
L 166.196626 205.092267 
L 166.348298 204.998554 
L 167.410002 205.657241 
L 167.561674 205.249442 
L 167.713346 205.305071 
L 168.016689 205.074308 
L 168.623377 205.16383 
L 168.926721 205.054428 
L 169.078393 205.205567 
L 169.533409 205.096855 
L 169.836753 205.352945 
L 169.988425 205.183906 
L 170.140097 205.342553 
L 170.443441 205.254377 
L 170.898457 205.220153 
L 171.050129 205.083999 
L 171.201801 205.120651 
L 171.505145 204.971824 
L 172.263505 205.680967 
L 172.566849 205.468419 
L 172.718521 205.430797 
L 173.173537 205.731145 
L 173.325209 205.750028 
L 173.628553 205.480771 
L 173.780225 205.503208 
L 174.083569 205.646655 
L 174.235241 205.667864 
L 174.538585 205.545923 
L 175.296945 205.632925 
L 175.751961 205.402546 
L 175.903633 205.451012 
L 176.358648 204.83625 
L 177.117008 204.727135 
L 177.26868 204.645796 
L 177.572024 204.789014 
L 177.875368 204.763151 
L 178.330384 204.684635 
L 178.633728 204.296178 
L 179.240416 204.565877 
L 179.392088 204.575466 
L 179.54376 204.433347 
L 179.695432 204.506097 
L 179.847104 204.398501 
L 180.150448 204.618704 
L 180.453792 204.412193 
L 180.605464 204.481425 
L 180.908808 204.470459 
L 181.212152 204.489359 
L 181.81884 204.539299 
L 182.273856 204.33895 
L 182.728872 204.292803 
L 183.032216 204.480736 
L 183.33556 204.356785 
L 183.638904 204.657049 
L 183.790576 204.611866 
L 183.942248 204.413172 
L 185.307295 204.68584 
L 185.610639 204.55051 
L 186.368999 204.265156 
L 186.520671 204.042332 
L 186.672343 204.034304 
L 186.975687 203.68759 
L 187.279031 203.631975 
L 187.582375 203.311251 
L 187.885719 203.258731 
L 188.795751 203.531733 
L 188.947423 203.29599 
L 189.250767 203.288577 
L 189.402439 203.382428 
L 189.705783 203.326447 
L 190.615815 203.730618 
L 190.919159 203.728897 
L 191.222503 203.936035 
L 191.829191 204.133459 
L 192.132535 203.836814 
L 192.284207 203.969526 
L 192.58755 203.937136 
L 192.890894 203.598922 
L 193.042566 203.601462 
L 193.194238 203.735457 
L 194.255942 203.532546 
L 194.559286 203.580897 
L 195.014302 203.522461 
L 195.165974 203.38429 
L 195.317646 203.411545 
L 195.62099 203.23869 
L 196.227678 203.453933 
L 196.682694 203.477338 
L 196.834366 203.287384 
L 197.289382 203.367361 
L 198.047742 203.828804 
L 198.502758 203.926289 
L 198.806102 203.530147 
L 198.957774 203.545339 
L 199.109446 203.350844 
L 199.41279 203.284987 
L 199.716134 203.110733 
L 199.867806 203.22699 
L 200.019478 203.119292 
L 200.322822 203.232608 
L 200.777837 203.298285 
L 201.081181 203.049375 
L 201.384525 203.075904 
L 201.536197 203.130165 
L 201.991213 203.033542 
L 202.294557 203.102364 
L 202.901245 203.150342 
L 203.507933 203.438734 
L 203.811277 203.042457 
L 203.962949 203.144491 
L 204.872981 202.885807 
L 205.024653 202.878337 
L 205.176325 203.010454 
L 205.176325 203.010454 
" style="fill:none;stroke:#1f77b4;stroke-linecap:square;stroke-width:1.5;"/>
   </g>
   <g id="patch_8">
    <path d="M 46.08 317.952 
L 46.08 188.928 
" style="fill:none;stroke:#000000;stroke-linecap:square;stroke-linejoin:miter;stroke-width:0.8;"/>
   </g>
   <g id="patch_9">
    <path d="M 212.75234 317.952 
L 212.75234 188.928 
" style="fill:none;stroke:#000000;stroke-linecap:square;stroke-linejoin:miter;stroke-width:0.8;"/>
   </g>
   <g id="patch_10">
    <path d="M 46.08 317.952 
L 212.75234 317.952 
" style="fill:none;stroke:#000000;stroke-linecap:square;stroke-linejoin:miter;stroke-width:0.8;"/>
   </g>
   <g id="patch_11">
    <path d="M 46.08 188.928 
L 212.75234 188.928 
" style="fill:none;stroke:#000000;stroke-linecap:square;stroke-linejoin:miter;stroke-width:0.8;"/>
   </g>
   <g id="text_27">
    <!-- Demora promedio en cola C1 -->
    <g transform="translate(41.37367 182.928)scale(0.12 -0.12)">
     <use xlink:href="#DejaVuSans-68"/>
     <use x="77.001953" xlink:href="#DejaVuSans-101"/>
     <use x="138.525391" xlink:href="#DejaVuSans-109"/>
     <use x="235.9375" xlink:href="#DejaVuSans-111"/>
     <use x="297.119141" xlink:href="#DejaVuSans-114"/>
     <use x="338.232422" xlink:href="#DejaVuSans-97"/>
     <use x="399.511719" xlink:href="#DejaVuSans-32"/>
     <use x="431.298828" xlink:href="#DejaVuSans-112"/>
     <use x="494.775391" xlink:href="#DejaVuSans-114"/>
     <use x="535.857422" xlink:href="#DejaVuSans-111"/>
     <use x="597.039062" xlink:href="#DejaVuSans-109"/>
     <use x="694.451172" xlink:href="#DejaVuSans-101"/>
     <use x="755.974609" xlink:href="#DejaVuSans-100"/>
     <use x="819.451172" xlink:href="#DejaVuSans-105"/>
     <use x="847.234375" xlink:href="#DejaVuSans-111"/>
     <use x="908.416016" xlink:href="#DejaVuSans-32"/>
     <use x="940.203125" xlink:href="#DejaVuSans-101"/>
     <use x="1001.726562" xlink:href="#DejaVuSans-110"/>
     <use x="1065.105469" xlink:href="#DejaVuSans-32"/>
     <use x="1096.892578" xlink:href="#DejaVuSans-99"/>
     <use x="1151.873047" xlink:href="#DejaVuSans-111"/>
     <use x="1213.054688" xlink:href="#DejaVuSans-108"/>
     <use x="1240.837891" xlink:href="#DejaVuSans-97"/>
     <use x="1302.117188" xlink:href="#DejaVuSans-32"/>
     <use x="1333.904297" xlink:href="#DejaVuSans-67"/>
     <use x="1403.728516" xlink:href="#DejaVuSans-49"/>
    </g>
   </g>
  </g>
  <g id="axes_3">
   <g id="patch_12">
    <path d="M 271.08766 317.952 
L 437.76 317.952 
L 437.76 188.928 
L 271.08766 188.928 
z
" style="fill:#ffffff;"/>
   </g>
   <g id="matplotlib.axis_5">
    <g id="xtick_12">
     <g id="line2d_45">
      <path clip-path="url(#p23a7f88167)" d="M 278.512003 317.952 
L 278.512003 188.928 
" style="fill:none;stroke:#b0b0b0;stroke-linecap:square;stroke-width:0.8;"/>
     </g>
     <g id="line2d_46">
      <g>
       <use style="stroke:#000000;stroke-width:0.8;" x="278.512003" xlink:href="#m3bd187917a" y="317.952"/>
      </g>
     </g>
     <g id="text_28">
      <!-- 0 -->
      <g transform="translate(275.330753 332.550437)scale(0.1 -0.1)">
       <use xlink:href="#DejaVuSans-48"/>
      </g>
     </g>
    </g>
    <g id="xtick_13">
     <g id="line2d_47">
      <path clip-path="url(#p23a7f88167)" d="M 316.429998 317.952 
L 316.429998 188.928 
" style="fill:none;stroke:#b0b0b0;stroke-linecap:square;stroke-width:0.8;"/>
     </g>
     <g id="line2d_48">
      <g>
       <use style="stroke:#000000;stroke-width:0.8;" x="316.429998" xlink:href="#m3bd187917a" y="317.952"/>
      </g>
     </g>
     <g id="text_29">
      <!-- 250 -->
      <g transform="translate(306.886248 332.550437)scale(0.1 -0.1)">
       <use xlink:href="#DejaVuSans-50"/>
       <use x="63.623047" xlink:href="#DejaVuSans-53"/>
       <use x="127.246094" xlink:href="#DejaVuSans-48"/>
      </g>
     </g>
    </g>
    <g id="xtick_14">
     <g id="line2d_49">
      <path clip-path="url(#p23a7f88167)" d="M 354.347994 317.952 
L 354.347994 188.928 
" style="fill:none;stroke:#b0b0b0;stroke-linecap:square;stroke-width:0.8;"/>
     </g>
     <g id="line2d_50">
      <g>
       <use style="stroke:#000000;stroke-width:0.8;" x="354.347994" xlink:href="#m3bd187917a" y="317.952"/>
      </g>
     </g>
     <g id="text_30">
      <!-- 500 -->
      <g transform="translate(344.804244 332.550437)scale(0.1 -0.1)">
       <use xlink:href="#DejaVuSans-53"/>
       <use x="63.623047" xlink:href="#DejaVuSans-48"/>
       <use x="127.246094" xlink:href="#DejaVuSans-48"/>
      </g>
     </g>
    </g>
    <g id="xtick_15">
     <g id="line2d_51">
      <path clip-path="url(#p23a7f88167)" d="M 392.265989 317.952 
L 392.265989 188.928 
" style="fill:none;stroke:#b0b0b0;stroke-linecap:square;stroke-width:0.8;"/>
     </g>
     <g id="line2d_52">
      <g>
       <use style="stroke:#000000;stroke-width:0.8;" x="392.265989" xlink:href="#m3bd187917a" y="317.952"/>
      </g>
     </g>
     <g id="text_31">
      <!-- 750 -->
      <g transform="translate(382.722239 332.550437)scale(0.1 -0.1)">
       <use xlink:href="#DejaVuSans-55"/>
       <use x="63.623047" xlink:href="#DejaVuSans-53"/>
       <use x="127.246094" xlink:href="#DejaVuSans-48"/>
      </g>
     </g>
    </g>
    <g id="xtick_16">
     <g id="line2d_53">
      <path clip-path="url(#p23a7f88167)" d="M 430.183985 317.952 
L 430.183985 188.928 
" style="fill:none;stroke:#b0b0b0;stroke-linecap:square;stroke-width:0.8;"/>
     </g>
     <g id="line2d_54">
      <g>
       <use style="stroke:#000000;stroke-width:0.8;" x="430.183985" xlink:href="#m3bd187917a" y="317.952"/>
      </g>
     </g>
     <g id="text_32">
      <!-- 1000 -->
      <g transform="translate(417.458985 332.550437)scale(0.1 -0.1)">
       <use xlink:href="#DejaVuSans-49"/>
       <use x="63.623047" xlink:href="#DejaVuSans-48"/>
       <use x="127.246094" xlink:href="#DejaVuSans-48"/>
       <use x="190.869141" xlink:href="#DejaVuSans-48"/>
      </g>
     </g>
    </g>
    <g id="text_33">
     <!-- Corridas -->
     <g transform="translate(333.530861 346.228563)scale(0.1 -0.1)">
      <use xlink:href="#DejaVuSans-67"/>
      <use x="69.824219" xlink:href="#DejaVuSans-111"/>
      <use x="131.005859" xlink:href="#DejaVuSans-114"/>
      <use x="172.103516" xlink:href="#DejaVuSans-114"/>
      <use x="213.216797" xlink:href="#DejaVuSans-105"/>
      <use x="241" xlink:href="#DejaVuSans-100"/>
      <use x="304.476562" xlink:href="#DejaVuSans-97"/>
      <use x="365.755859" xlink:href="#DejaVuSans-115"/>
     </g>
    </g>
   </g>
   <g id="matplotlib.axis_6">
    <g id="ytick_11">
     <g id="line2d_55">
      <path clip-path="url(#p23a7f88167)" d="M 271.08766 297.869838 
L 437.76 297.869838 
" style="fill:none;stroke:#b0b0b0;stroke-linecap:square;stroke-width:0.8;"/>
     </g>
     <g id="line2d_56">
      <g>
       <use style="stroke:#000000;stroke-width:0.8;" x="271.08766" xlink:href="#mbaced16616" y="297.869838"/>
      </g>
     </g>
     <g id="text_34">
      <!-- 0.042 -->
      <g transform="translate(235.459535 301.669057)scale(0.1 -0.1)">
       <use xlink:href="#DejaVuSans-48"/>
       <use x="63.623047" xlink:href="#DejaVuSans-46"/>
       <use x="95.410156" xlink:href="#DejaVuSans-48"/>
       <use x="159.033203" xlink:href="#DejaVuSans-52"/>
       <use x="222.65625" xlink:href="#DejaVuSans-50"/>
      </g>
     </g>
    </g>
    <g id="ytick_12">
     <g id="line2d_57">
      <path clip-path="url(#p23a7f88167)" d="M 271.08766 269.161129 
L 437.76 269.161129 
" style="fill:none;stroke:#b0b0b0;stroke-linecap:square;stroke-width:0.8;"/>
     </g>
     <g id="line2d_58">
      <g>
       <use style="stroke:#000000;stroke-width:0.8;" x="271.08766" xlink:href="#mbaced16616" y="269.161129"/>
      </g>
     </g>
     <g id="text_35">
      <!-- 0.044 -->
      <g transform="translate(235.459535 272.960348)scale(0.1 -0.1)">
       <use xlink:href="#DejaVuSans-48"/>
       <use x="63.623047" xlink:href="#DejaVuSans-46"/>
       <use x="95.410156" xlink:href="#DejaVuSans-48"/>
       <use x="159.033203" xlink:href="#DejaVuSans-52"/>
       <use x="222.65625" xlink:href="#DejaVuSans-52"/>
      </g>
     </g>
    </g>
    <g id="ytick_13">
     <g id="line2d_59">
      <path clip-path="url(#p23a7f88167)" d="M 271.08766 240.452419 
L 437.76 240.452419 
" style="fill:none;stroke:#b0b0b0;stroke-linecap:square;stroke-width:0.8;"/>
     </g>
     <g id="line2d_60">
      <g>
       <use style="stroke:#000000;stroke-width:0.8;" x="271.08766" xlink:href="#mbaced16616" y="240.452419"/>
      </g>
     </g>
     <g id="text_36">
      <!-- 0.046 -->
      <g transform="translate(235.459535 244.251638)scale(0.1 -0.1)">
       <use xlink:href="#DejaVuSans-48"/>
       <use x="63.623047" xlink:href="#DejaVuSans-46"/>
       <use x="95.410156" xlink:href="#DejaVuSans-48"/>
       <use x="159.033203" xlink:href="#DejaVuSans-52"/>
       <use x="222.65625" xlink:href="#DejaVuSans-54"/>
      </g>
     </g>
    </g>
    <g id="ytick_14">
     <g id="line2d_61">
      <path clip-path="url(#p23a7f88167)" d="M 271.08766 211.74371 
L 437.76 211.74371 
" style="fill:none;stroke:#b0b0b0;stroke-linecap:square;stroke-width:0.8;"/>
     </g>
     <g id="line2d_62">
      <g>
       <use style="stroke:#000000;stroke-width:0.8;" x="271.08766" xlink:href="#mbaced16616" y="211.74371"/>
      </g>
     </g>
     <g id="text_37">
      <!-- 0.048 -->
      <g transform="translate(235.459535 215.542929)scale(0.1 -0.1)">
       <use xlink:href="#DejaVuSans-48"/>
       <use x="63.623047" xlink:href="#DejaVuSans-46"/>
       <use x="95.410156" xlink:href="#DejaVuSans-48"/>
       <use x="159.033203" xlink:href="#DejaVuSans-52"/>
       <use x="222.65625" xlink:href="#DejaVuSans-56"/>
      </g>
     </g>
    </g>
    <g id="text_38">
     <!-- Demora -->
     <g transform="translate(229.379847 273.415781)rotate(-90)scale(0.1 -0.1)">
      <use xlink:href="#DejaVuSans-68"/>
      <use x="77.001953" xlink:href="#DejaVuSans-101"/>
      <use x="138.525391" xlink:href="#DejaVuSans-109"/>
      <use x="235.9375" xlink:href="#DejaVuSans-111"/>
      <use x="297.119141" xlink:href="#DejaVuSans-114"/>
      <use x="338.232422" xlink:href="#DejaVuSans-97"/>
     </g>
    </g>
   </g>
   <g id="line2d_63">
    <path clip-path="url(#p23a7f88167)" d="M 278.663675 296.987528 
L 278.815347 208.633377 
L 279.118691 312.087273 
L 279.573707 278.924742 
L 279.725379 289.625953 
L 279.877051 262.240685 
L 280.028723 260.835836 
L 280.180395 263.80275 
L 280.635411 227.322242 
L 280.787083 239.673646 
L 281.090427 228.831313 
L 281.242099 241.703211 
L 281.393771 235.500298 
L 281.545443 242.284331 
L 281.697115 243.560692 
L 281.848787 238.802983 
L 282.000459 215.296249 
L 282.152131 215.945726 
L 282.303803 221.806486 
L 282.758819 208.788948 
L 282.910491 209.722821 
L 283.062163 209.0844 
L 283.213834 199.748312 
L 283.365506 199.199747 
L 283.517178 203.097162 
L 283.820522 198.744239 
L 283.972194 200.552782 
L 284.275538 206.559509 
L 284.42721 199.402011 
L 284.578882 203.246279 
L 284.730554 194.907667 
L 284.882226 195.361171 
L 285.033898 194.792727 
L 285.337242 197.256165 
L 285.488914 195.832796 
L 285.792258 203.263878 
L 285.94393 201.056729 
L 286.095602 206.327694 
L 286.247274 206.123051 
L 286.398946 207.021849 
L 286.70229 210.109201 
L 286.853962 210.710735 
L 287.005634 210.555194 
L 287.157306 214.932809 
L 287.308978 214.134032 
L 287.46065 212.240398 
L 287.763994 212.986094 
L 288.21901 205.125738 
L 288.522354 208.440936 
L 288.674026 207.922008 
L 288.825698 207.883699 
L 288.97737 209.478395 
L 289.129042 212.57305 
L 289.280714 211.454891 
L 289.432386 207.826264 
L 289.73573 208.450161 
L 289.887402 211.329912 
L 290.039074 209.66487 
L 290.190746 211.582699 
L 290.342418 211.912973 
L 290.49409 211.006859 
L 290.645762 209.204739 
L 290.797434 208.916154 
L 291.100778 212.33091 
L 291.555793 214.584763 
L 291.707465 214.68065 
L 292.010809 212.081764 
L 292.162481 211.252894 
L 292.465825 212.431099 
L 292.617497 212.940481 
L 292.769169 214.056795 
L 292.920841 211.890443 
L 293.072513 211.515236 
L 293.224185 210.600272 
L 293.375857 211.378578 
L 293.527529 210.903152 
L 293.679201 208.74335 
L 293.830873 208.837988 
L 293.982545 207.807436 
L 294.134217 208.997545 
L 294.437561 212.121627 
L 294.589233 213.647384 
L 294.740905 213.551672 
L 294.892577 211.878334 
L 295.347593 216.885914 
L 295.499265 216.684898 
L 295.650937 215.910278 
L 296.105953 218.439319 
L 296.257625 220.500585 
L 296.409297 220.330816 
L 296.712641 223.752682 
L 296.864313 224.112702 
L 297.167657 227.776569 
L 297.319329 226.420971 
L 297.471001 227.515896 
L 297.622673 226.932852 
L 298.077689 228.515079 
L 298.229361 227.549162 
L 298.532705 228.011836 
L 298.684377 227.630891 
L 298.836049 227.678799 
L 298.987721 228.518862 
L 299.139393 227.761606 
L 299.291065 226.209886 
L 299.442737 226.78164 
L 299.594408 225.300574 
L 299.74608 226.049577 
L 299.897752 223.608308 
L 300.049424 224.210805 
L 300.201096 222.861633 
L 300.656112 224.512907 
L 300.959456 223.257909 
L 301.414472 219.145578 
L 301.566144 219.239249 
L 301.717816 218.143169 
L 301.869488 214.772225 
L 302.02116 214.6309 
L 302.324504 215.806217 
L 302.476176 215.65875 
L 302.627848 215.256344 
L 302.931192 215.64563 
L 303.082864 214.043458 
L 303.386208 216.141863 
L 303.689552 218.372793 
L 304.144568 216.359208 
L 304.447912 216.787316 
L 304.902928 219.733721 
L 305.0546 219.372396 
L 305.206272 218.480148 
L 305.509616 219.414272 
L 305.661288 220.330361 
L 305.81296 219.869513 
L 305.964632 221.556573 
L 306.116304 221.154148 
L 306.267976 221.805027 
L 306.419648 221.638024 
L 306.722992 223.569767 
L 306.874664 225.177778 
L 307.026336 224.544757 
L 307.178008 225.822633 
L 307.32968 224.458428 
L 307.481352 224.617601 
L 307.784695 223.664715 
L 307.936367 223.767076 
L 308.088039 222.91686 
L 308.239711 222.834973 
L 308.391383 222.191811 
L 308.694727 224.674324 
L 308.998071 224.75856 
L 309.149743 225.339747 
L 309.301415 224.018765 
L 309.604759 223.695119 
L 309.908103 224.157503 
L 310.211447 224.034818 
L 310.363119 222.905622 
L 310.514791 223.455025 
L 310.666463 223.411168 
L 310.818135 222.637143 
L 310.969807 223.476799 
L 311.273151 223.402377 
L 311.728167 224.153078 
L 311.879839 222.514381 
L 312.031511 222.086966 
L 312.183183 222.792939 
L 312.334855 222.524832 
L 312.486527 222.571485 
L 312.789871 222.932605 
L 312.941543 223.628889 
L 313.244887 222.701464 
L 313.548231 223.945919 
L 313.699903 224.090716 
L 313.851575 224.003207 
L 314.154919 224.59388 
L 314.306591 223.525309 
L 314.609935 224.759949 
L 314.913279 226.002968 
L 315.064951 226.066097 
L 315.216623 225.974264 
L 315.368295 226.995142 
L 315.823311 226.613872 
L 316.126654 227.762891 
L 316.429998 227.976044 
L 316.733342 228.727729 
L 316.885014 226.710456 
L 317.036686 226.456401 
L 317.34003 227.050722 
L 317.643374 226.551241 
L 317.795046 227.054883 
L 317.946718 226.526967 
L 318.09839 226.915103 
L 318.250062 227.773185 
L 318.553406 226.994986 
L 318.705078 227.265934 
L 318.85675 227.306474 
L 319.008422 226.587146 
L 319.160094 226.845754 
L 319.463438 225.910459 
L 319.61511 226.111472 
L 319.766782 226.022161 
L 319.918454 226.303132 
L 320.221798 226.198498 
L 320.37347 226.41766 
L 320.525142 225.816261 
L 320.676814 226.200202 
L 320.980158 225.874251 
L 321.13183 225.919868 
L 321.283502 225.737253 
L 321.435174 225.181044 
L 321.586846 225.064705 
L 321.738518 224.746964 
L 322.041862 223.611352 
L 322.193534 224.312816 
L 322.496878 222.989368 
L 322.64855 222.279559 
L 322.800222 222.10556 
L 323.103566 222.281114 
L 323.40691 223.358892 
L 323.558582 222.407025 
L 323.710254 222.646199 
L 323.861926 221.972985 
L 324.013598 221.936082 
L 324.316941 223.297631 
L 324.468613 222.977544 
L 324.771957 224.224191 
L 324.923629 223.926189 
L 325.075301 224.32488 
L 325.681989 222.461478 
L 325.833661 221.805927 
L 326.137005 222.746506 
L 326.288677 222.43931 
L 326.440349 222.988011 
L 326.743693 222.835511 
L 327.047037 223.420942 
L 327.198709 223.653109 
L 327.350381 223.04277 
L 327.653725 224.287788 
L 327.805397 224.332811 
L 327.957069 225.190626 
L 328.108741 224.601364 
L 328.260413 224.484338 
L 328.412085 224.093908 
L 328.563757 224.482282 
L 329.018773 223.37366 
L 329.322117 224.24189 
L 329.473789 224.535042 
L 329.928805 226.058174 
L 330.080477 226.087853 
L 330.232149 225.166053 
L 330.383821 225.067238 
L 330.687165 225.56181 
L 330.990509 225.748112 
L 331.142181 225.610798 
L 331.293853 225.744166 
L 331.445525 225.673869 
L 331.597197 225.300967 
L 331.748869 225.924042 
L 331.900541 226.034179 
L 332.052213 226.002368 
L 332.355556 225.275407 
L 332.507228 225.464226 
L 332.810572 225.167447 
L 332.962244 225.847512 
L 333.113916 225.541105 
L 333.265588 224.870287 
L 333.41726 223.383238 
L 333.568932 223.2802 
L 333.720604 223.556972 
L 333.872276 223.297968 
L 334.023948 224.083414 
L 334.17562 224.116268 
L 334.327292 223.798284 
L 334.630636 223.948126 
L 334.782308 223.816114 
L 334.93398 224.095365 
L 335.237324 223.555554 
L 335.388996 223.468527 
L 335.69234 223.898567 
L 335.844012 222.997885 
L 335.995684 223.169968 
L 336.299028 222.936978 
L 336.602372 224.143507 
L 336.905716 223.799502 
L 337.057388 224.113802 
L 337.20906 223.572036 
L 337.512404 224.098763 
L 337.664076 223.865378 
L 337.815748 224.530355 
L 337.96742 224.625687 
L 338.270764 223.719605 
L 338.422436 224.205581 
L 338.72578 223.566984 
L 338.877452 223.737783 
L 339.180796 222.496996 
L 339.332468 222.421638 
L 339.48414 222.7057 
L 339.635812 222.507953 
L 339.787484 222.689757 
L 339.939156 222.659321 
L 340.090828 222.046451 
L 340.2425 222.203361 
L 340.545843 220.63814 
L 340.697515 220.341235 
L 340.849187 221.032693 
L 341.000859 220.784653 
L 341.152531 221.344043 
L 341.455875 220.916261 
L 341.607547 221.501682 
L 341.759219 221.342845 
L 341.910891 221.954998 
L 342.062563 221.796001 
L 342.365907 222.3669 
L 342.517579 222.679511 
L 342.669251 222.428458 
L 342.972595 222.91157 
L 343.124267 222.612592 
L 343.882627 222.943928 
L 344.034299 222.447093 
L 344.185971 222.646848 
L 344.337643 222.57581 
L 344.489315 223.162579 
L 344.640987 223.220413 
L 344.792659 222.977326 
L 344.944331 222.328263 
L 345.247675 223.125009 
L 345.702691 223.257547 
L 345.854363 223.067733 
L 346.006035 223.093959 
L 346.157707 221.799761 
L 346.309379 222.309301 
L 346.461051 222.282662 
L 346.612723 221.798038 
L 347.067739 223.036824 
L 347.371083 222.426295 
L 347.522755 222.538079 
L 347.674427 222.353877 
L 347.826099 222.590601 
L 347.977771 222.592188 
L 348.129443 222.152043 
L 348.432787 222.507032 
L 348.73613 221.866454 
L 348.887802 221.968749 
L 349.039474 222.584375 
L 349.191146 222.649745 
L 349.342818 222.922557 
L 349.49449 222.642251 
L 349.646162 222.833234 
L 349.797834 223.319823 
L 350.101178 223.020576 
L 350.25285 222.733568 
L 350.404522 222.745547 
L 350.556194 223.487641 
L 350.707866 222.971629 
L 350.859538 223.567173 
L 351.01121 223.149589 
L 351.162882 223.364972 
L 351.314554 223.236505 
L 351.617898 223.599451 
L 351.921242 224.373594 
L 352.224586 224.537322 
L 352.376258 224.960929 
L 352.52793 224.964716 
L 352.679602 225.33094 
L 352.831274 225.17151 
L 352.982946 225.666515 
L 353.134618 225.4092 
L 353.28629 225.514017 
L 353.437962 225.798073 
L 353.741306 225.508869 
L 353.892978 224.741702 
L 354.04465 224.84212 
L 354.196322 225.400465 
L 354.347994 225.491994 
L 354.499666 225.865138 
L 354.651338 225.470655 
L 355.409698 226.058272 
L 355.713042 225.802394 
L 355.864714 226.265173 
L 356.016386 226.179628 
L 356.168058 226.647669 
L 356.31973 226.726769 
L 356.471402 226.657047 
L 356.774745 226.047531 
L 356.926417 226.398411 
L 357.078089 226.248321 
L 357.229761 225.862541 
L 357.381433 226.117626 
L 357.533105 226.763711 
L 357.684777 226.255461 
L 357.988121 226.420528 
L 358.443137 226.62161 
L 358.746481 225.428309 
L 358.898153 225.621935 
L 359.201497 225.304598 
L 359.504841 225.645586 
L 359.656513 225.177385 
L 359.808185 225.520815 
L 359.959857 225.492868 
L 360.111529 225.215939 
L 360.566545 225.794843 
L 360.869889 225.312832 
L 361.021561 225.707086 
L 361.173233 225.424848 
L 361.476577 226.322298 
L 361.628249 226.033707 
L 361.779921 226.01905 
L 361.931593 225.841293 
L 362.083265 226.200977 
L 362.234937 226.210009 
L 362.386609 226.397133 
L 362.689953 226.064121 
L 362.841625 226.091432 
L 362.993297 226.308433 
L 363.144969 226.31231 
L 363.296641 226.456713 
L 363.599985 226.40032 
L 364.358345 226.853507 
L 364.510017 226.425305 
L 364.813361 226.794311 
L 365.116704 226.539804 
L 365.420048 226.927616 
L 365.723392 225.871928 
L 366.026736 225.825654 
L 366.33008 226.582639 
L 366.481752 226.10206 
L 366.633424 226.347011 
L 366.785096 226.230758 
L 366.936768 225.78699 
L 367.240112 226.312047 
L 367.543456 225.972769 
L 367.695128 226.196013 
L 367.8468 226.172077 
L 367.998472 225.940085 
L 368.150144 226.046428 
L 368.301816 226.365864 
L 368.453488 226.236358 
L 368.60516 226.424731 
L 368.756832 226.836757 
L 369.060176 226.83038 
L 369.36352 227.337927 
L 369.666864 227.534626 
L 369.818536 227.34356 
L 370.12188 227.707159 
L 370.425224 227.523726 
L 370.576896 227.517307 
L 370.728568 227.948207 
L 371.183584 227.995235 
L 371.335256 228.375047 
L 371.486928 228.15204 
L 371.6386 228.250657 
L 371.941944 227.695365 
L 372.093616 227.844067 
L 372.245288 227.381317 
L 372.39696 227.385371 
L 372.548632 226.951405 
L 372.700304 227.084297 
L 373.003648 226.996477 
L 373.155319 226.985318 
L 373.458663 226.734902 
L 373.610335 226.605175 
L 373.762007 226.658594 
L 373.913679 226.411271 
L 374.065351 226.376752 
L 374.217023 226.1979 
L 374.520367 226.653049 
L 374.672039 226.529943 
L 374.975383 225.983725 
L 375.278727 226.488381 
L 375.430399 226.617224 
L 375.582071 226.917136 
L 375.733743 226.683509 
L 375.885415 226.767927 
L 376.037087 226.58945 
L 376.340431 226.874508 
L 376.947119 226.872674 
L 377.098791 226.59195 
L 377.402135 227.221642 
L 377.553807 226.794373 
L 377.705479 226.785728 
L 378.008823 227.166041 
L 378.160495 226.423497 
L 378.312167 226.447513 
L 378.463839 226.773298 
L 379.222199 226.234688 
L 379.373871 225.761839 
L 379.525543 225.661334 
L 379.677215 225.021805 
L 379.828887 225.347193 
L 379.980559 225.195962 
L 380.132231 225.494732 
L 380.283903 225.285123 
L 380.587247 225.466693 
L 380.890591 224.948607 
L 381.193935 224.950475 
L 381.345606 225.279894 
L 381.497278 225.202382 
L 381.64895 225.360885 
L 381.800622 225.138371 
L 381.952294 225.143752 
L 382.103966 224.874601 
L 382.255638 224.323394 
L 382.862326 224.011976 
L 383.013998 224.329542 
L 383.16567 224.269255 
L 383.317342 224.411094 
L 383.469014 224.299039 
L 383.772358 224.450717 
L 384.075702 223.709319 
L 384.379046 223.760616 
L 384.530718 224.019201 
L 384.68239 223.946076 
L 384.985734 224.546286 
L 385.137406 224.466755 
L 385.289078 224.548782 
L 385.592422 224.459169 
L 385.744094 224.624617 
L 385.895766 224.270341 
L 386.19911 224.129603 
L 386.502454 223.98868 
L 386.654126 224.201646 
L 386.95747 223.822547 
L 387.109142 224.079629 
L 387.260814 224.019414 
L 387.412486 224.276369 
L 387.564158 224.014168 
L 387.867502 224.217988 
L 388.019174 223.942236 
L 388.170846 224.045264 
L 388.47419 224.560434 
L 388.625862 224.618946 
L 388.777534 224.554641 
L 388.929206 224.281314 
L 389.080878 224.249086 
L 389.23255 224.517205 
L 389.384222 224.09143 
L 389.687565 224.228657 
L 389.839237 224.343341 
L 390.445925 223.576294 
L 390.597597 223.763623 
L 390.749269 223.313682 
L 390.900941 223.343107 
L 391.355957 222.938489 
L 391.659301 223.146876 
L 391.810973 222.964819 
L 392.265989 222.973206 
L 392.569333 222.53188 
L 392.872677 222.91356 
L 393.024349 222.30187 
L 393.176021 222.384173 
L 393.327693 222.277634 
L 393.479365 222.489922 
L 393.631037 222.374734 
L 393.782709 222.545994 
L 393.934381 222.40549 
L 394.086053 222.497202 
L 394.389397 222.220141 
L 394.541069 222.270617 
L 394.844413 222.855343 
L 394.996085 222.540498 
L 395.299429 222.899719 
L 395.451101 223.116217 
L 395.754445 223.044914 
L 395.906117 223.228491 
L 396.057789 223.123659 
L 396.209461 223.373121 
L 396.361133 223.370132 
L 396.664477 223.523233 
L 396.967821 223.76747 
L 397.271165 224.13236 
L 397.422837 224.035824 
L 397.574509 223.782751 
L 397.72618 223.843801 
L 397.877852 224.366744 
L 398.029524 224.346595 
L 398.332868 224.682474 
L 398.48454 224.407143 
L 398.636212 224.434381 
L 398.787884 224.223004 
L 399.2429 224.783178 
L 399.394572 224.893586 
L 399.546244 224.750288 
L 399.849588 225.001238 
L 400.00126 224.627114 
L 400.304604 224.954553 
L 400.456276 224.780113 
L 400.607948 225.021591 
L 400.75962 224.693396 
L 400.911292 224.710789 
L 401.062964 224.594681 
L 401.214636 224.042178 
L 401.366308 223.9785 
L 401.669652 224.11553 
L 401.972996 224.404492 
L 402.124668 224.472589 
L 402.27634 224.329654 
L 402.579684 224.866582 
L 402.883028 224.468326 
L 403.0347 224.46022 
L 403.338044 224.076458 
L 403.641388 223.114204 
L 403.944732 223.350544 
L 404.096404 223.443281 
L 404.248076 223.403604 
L 404.55142 223.05195 
L 404.703092 223.35312 
L 404.854764 223.300433 
L 405.158108 223.45723 
L 405.30978 223.269556 
L 405.461452 222.860776 
L 405.613124 222.953531 
L 405.764796 222.870716 
L 406.068139 222.537242 
L 406.219811 222.658392 
L 406.371483 222.44427 
L 406.523155 222.455956 
L 406.674827 222.343536 
L 406.826499 222.466836 
L 406.978171 222.17159 
L 407.281515 222.731959 
L 407.433187 222.410632 
L 407.584859 222.489782 
L 407.888203 222.089196 
L 408.039875 222.240165 
L 408.343219 221.594989 
L 408.646563 221.919178 
L 408.798235 221.834322 
L 408.949907 221.614369 
L 409.101579 221.719199 
L 409.253251 222.079658 
L 409.708267 222.068996 
L 409.859939 222.32317 
L 410.163283 222.09805 
L 410.314955 221.951872 
L 410.466627 222.112437 
L 410.618299 221.900074 
L 410.769971 221.918814 
L 411.528331 221.136119 
L 411.680003 221.1153 
L 411.983347 220.337029 
L 412.135019 220.538082 
L 412.438363 220.378255 
L 412.590035 220.042306 
L 413.348395 220.597411 
L 413.651739 220.438306 
L 413.803411 220.431935 
L 413.955083 219.934155 
L 414.410098 220.3743 
L 414.713442 219.754166 
L 415.016786 219.883455 
L 415.471802 220.680133 
L 415.623474 220.742204 
L 415.775146 220.4371 
L 416.07849 220.568948 
L 416.230162 220.717246 
L 416.381834 220.663518 
L 416.685178 220.85031 
L 416.988522 220.786123 
L 417.140194 220.476375 
L 417.59521 220.767723 
L 418.050226 220.548596 
L 418.201898 220.687132 
L 418.656914 220.12896 
L 418.960258 220.14747 
L 419.11193 220.411805 
L 419.566946 220.302191 
L 419.87029 220.428908 
L 420.476978 219.698549 
L 420.780322 219.774218 
L 420.931994 219.574422 
L 421.083666 219.914757 
L 421.235338 219.904178 
L 421.38701 219.514323 
L 421.842026 219.33523 
L 421.993698 219.647243 
L 422.14537 219.677554 
L 422.297041 219.469603 
L 422.448713 219.518598 
L 423.055401 220.393108 
L 423.207073 220.503637 
L 423.358745 220.446969 
L 423.510417 220.545551 
L 423.662089 220.438193 
L 423.813761 220.181222 
L 423.965433 220.169837 
L 424.117105 219.938814 
L 424.268777 219.94776 
L 424.420449 219.786017 
L 424.572121 219.366838 
L 424.875465 219.600542 
L 425.027137 219.442886 
L 425.482153 219.909727 
L 425.633825 219.965135 
L 425.937169 219.589791 
L 426.543857 219.455923 
L 426.998873 218.640051 
L 427.302217 218.958639 
L 427.453889 218.70872 
L 427.605561 218.802596 
L 427.757233 218.700845 
L 428.212249 219.155576 
L 428.515593 219.108316 
L 428.667265 218.521147 
L 429.577297 217.945707 
L 430.032313 218.126958 
L 430.183985 218.431574 
L 430.183985 218.431574 
" style="fill:none;stroke:#1f77b4;stroke-linecap:square;stroke-width:1.5;"/>
   </g>
   <g id="patch_13">
    <path d="M 271.08766 317.952 
L 271.08766 188.928 
" style="fill:none;stroke:#000000;stroke-linecap:square;stroke-linejoin:miter;stroke-width:0.8;"/>
   </g>
   <g id="patch_14">
    <path d="M 437.76 317.952 
L 437.76 188.928 
" style="fill:none;stroke:#000000;stroke-linecap:square;stroke-linejoin:miter;stroke-width:0.8;"/>
   </g>
   <g id="patch_15">
    <path d="M 271.08766 317.952 
L 437.76 317.952 
" style="fill:none;stroke:#000000;stroke-linecap:square;stroke-linejoin:miter;stroke-width:0.8;"/>
   </g>
   <g id="patch_16">
    <path d="M 271.08766 188.928 
L 437.76 188.928 
" style="fill:none;stroke:#000000;stroke-linecap:square;stroke-linejoin:miter;stroke-width:0.8;"/>
   </g>
   <g id="text_39">
    <!-- Demora promedio en cola C2 -->
    <g transform="translate(266.38133 182.928)scale(0.12 -0.12)">
     <use xlink:href="#DejaVuSans-68"/>
     <use x="77.001953" xlink:href="#DejaVuSans-101"/>
     <use x="138.525391" xlink:href="#DejaVuSans-109"/>
     <use x="235.9375" xlink:href="#DejaVuSans-111"/>
     <use x="297.119141" xlink:href="#DejaVuSans-114"/>
     <use x="338.232422" xlink:href="#DejaVuSans-97"/>
     <use x="399.511719" xlink:href="#DejaVuSans-32"/>
     <use x="431.298828" xlink:href="#DejaVuSans-112"/>
     <use x="494.775391" xlink:href="#DejaVuSans-114"/>
     <use x="535.857422" xlink:href="#DejaVuSans-111"/>
     <use x="597.039062" xlink:href="#DejaVuSans-109"/>
     <use x="694.451172" xlink:href="#DejaVuSans-101"/>
     <use x="755.974609" xlink:href="#DejaVuSans-100"/>
     <use x="819.451172" xlink:href="#DejaVuSans-105"/>
     <use x="847.234375" xlink:href="#DejaVuSans-111"/>
     <use x="908.416016" xlink:href="#DejaVuSans-32"/>
     <use x="940.203125" xlink:href="#DejaVuSans-101"/>
     <use x="1001.726562" xlink:href="#DejaVuSans-110"/>
     <use x="1065.105469" xlink:href="#DejaVuSans-32"/>
     <use x="1096.892578" xlink:href="#DejaVuSans-99"/>
     <use x="1151.873047" xlink:href="#DejaVuSans-111"/>
     <use x="1213.054688" xlink:href="#DejaVuSans-108"/>
     <use x="1240.837891" xlink:href="#DejaVuSans-97"/>
     <use x="1302.117188" xlink:href="#DejaVuSans-32"/>
     <use x="1333.904297" xlink:href="#DejaVuSans-67"/>
     <use x="1403.728516" xlink:href="#DejaVuSans-50"/>
    </g>
   </g>
  </g>
 </g>
 <defs>
  <clipPath id="p96a5ff91a2">
   <rect height="129.024" width="391.68" x="46.08" y="27.648"/>
  </clipPath>
  <clipPath id="p2609f13ae5">
   <rect height="129.024" width="166.67234" x="46.08" y="188.928"/>
  </clipPath>
  <clipPath id="p23a7f88167">
   <rect height="129.024" width="166.67234" x="271.08766" y="188.928"/>
  </clipPath>
 </defs>
</svg>
