<?xml version="1.0" encoding="utf-8" standalone="no"?>
<!DOCTYPE svg PUBLIC "-//W3C//DTD SVG 1.1//EN"
  "http://www.w3.org/Graphics/SVG/1.1/DTD/svg11.dtd">
<!-- Created with matplotlib (https://matplotlib.org/) -->
<svg height="345.6pt" version="1.1" viewBox="0 0 460.8 345.6" width="460.8pt" xmlns="http://www.w3.org/2000/svg" xmlns:xlink="http://www.w3.org/1999/xlink">
 <defs>
  <style type="text/css">
*{stroke-linecap:butt;stroke-linejoin:round;}
  </style>
 </defs>
 <g id="figure_1">
  <g id="patch_1">
   <path d="M 0 345.6 
L 460.8 345.6 
L 460.8 0 
L 0 0 
z
" style="fill:#ffffff;"/>
  </g>
  <g id="axes_1">
   <g id="patch_2">
    <path d="M 46.08 156.672 
L 437.76 156.672 
L 437.76 27.648 
L 46.08 27.648 
z
" style="fill:#ffffff;"/>
   </g>
   <g id="matplotlib.axis_1">
    <g id="xtick_1">
     <g id="line2d_1">
      <path clip-path="url(#p915b341169)" d="M 63.527207 156.672 
L 63.527207 27.648 
" style="fill:none;stroke:#b0b0b0;stroke-linecap:square;stroke-width:0.8;"/>
     </g>
     <g id="line2d_2">
      <defs>
       <path d="M 0 0 
L 0 3.5 
" id="me59560c0f7" style="stroke:#000000;stroke-width:0.8;"/>
      </defs>
      <g>
       <use style="stroke:#000000;stroke-width:0.8;" x="63.527207" xlink:href="#me59560c0f7" y="156.672"/>
      </g>
     </g>
     <g id="text_1">
      <!-- 0 -->
      <defs>
       <path d="M 31.78125 66.40625 
Q 24.171875 66.40625 20.328125 58.90625 
Q 16.5 51.421875 16.5 36.375 
Q 16.5 21.390625 20.328125 13.890625 
Q 24.171875 6.390625 31.78125 6.390625 
Q 39.453125 6.390625 43.28125 13.890625 
Q 47.125 21.390625 47.125 36.375 
Q 47.125 51.421875 43.28125 58.90625 
Q 39.453125 66.40625 31.78125 66.40625 
z
M 31.78125 74.21875 
Q 44.046875 74.21875 50.515625 64.515625 
Q 56.984375 54.828125 56.984375 36.375 
Q 56.984375 17.96875 50.515625 8.265625 
Q 44.046875 -1.421875 31.78125 -1.421875 
Q 19.53125 -1.421875 13.0625 8.265625 
Q 6.59375 17.96875 6.59375 36.375 
Q 6.59375 54.828125 13.0625 64.515625 
Q 19.53125 74.21875 31.78125 74.21875 
z
" id="DejaVuSans-48"/>
      </defs>
      <g transform="translate(60.345957 171.270437)scale(0.1 -0.1)">
       <use xlink:href="#DejaVuSans-48"/>
      </g>
     </g>
    </g>
    <g id="xtick_2">
     <g id="line2d_3">
      <path clip-path="url(#p915b341169)" d="M 134.813038 156.672 
L 134.813038 27.648 
" style="fill:none;stroke:#b0b0b0;stroke-linecap:square;stroke-width:0.8;"/>
     </g>
     <g id="line2d_4">
      <g>
       <use style="stroke:#000000;stroke-width:0.8;" x="134.813038" xlink:href="#me59560c0f7" y="156.672"/>
      </g>
     </g>
     <g id="text_2">
      <!-- 200 -->
      <defs>
       <path d="M 19.1875 8.296875 
L 53.609375 8.296875 
L 53.609375 0 
L 7.328125 0 
L 7.328125 8.296875 
Q 12.9375 14.109375 22.625 23.890625 
Q 32.328125 33.6875 34.8125 36.53125 
Q 39.546875 41.84375 41.421875 45.53125 
Q 43.3125 49.21875 43.3125 52.78125 
Q 43.3125 58.59375 39.234375 62.25 
Q 35.15625 65.921875 28.609375 65.921875 
Q 23.96875 65.921875 18.8125 64.3125 
Q 13.671875 62.703125 7.8125 59.421875 
L 7.8125 69.390625 
Q 13.765625 71.78125 18.9375 73 
Q 24.125 74.21875 28.421875 74.21875 
Q 39.75 74.21875 46.484375 68.546875 
Q 53.21875 62.890625 53.21875 53.421875 
Q 53.21875 48.921875 51.53125 44.890625 
Q 49.859375 40.875 45.40625 35.40625 
Q 44.1875 33.984375 37.640625 27.21875 
Q 31.109375 20.453125 19.1875 8.296875 
z
" id="DejaVuSans-50"/>
      </defs>
      <g transform="translate(125.269288 171.270437)scale(0.1 -0.1)">
       <use xlink:href="#DejaVuSans-50"/>
       <use x="63.623047" xlink:href="#DejaVuSans-48"/>
       <use x="127.246094" xlink:href="#DejaVuSans-48"/>
      </g>
     </g>
    </g>
    <g id="xtick_3">
     <g id="line2d_5">
      <path clip-path="url(#p915b341169)" d="M 206.09887 156.672 
L 206.09887 27.648 
" style="fill:none;stroke:#b0b0b0;stroke-linecap:square;stroke-width:0.8;"/>
     </g>
     <g id="line2d_6">
      <g>
       <use style="stroke:#000000;stroke-width:0.8;" x="206.09887" xlink:href="#me59560c0f7" y="156.672"/>
      </g>
     </g>
     <g id="text_3">
      <!-- 400 -->
      <defs>
       <path d="M 37.796875 64.3125 
L 12.890625 25.390625 
L 37.796875 25.390625 
z
M 35.203125 72.90625 
L 47.609375 72.90625 
L 47.609375 25.390625 
L 58.015625 25.390625 
L 58.015625 17.1875 
L 47.609375 17.1875 
L 47.609375 0 
L 37.796875 0 
L 37.796875 17.1875 
L 4.890625 17.1875 
L 4.890625 26.703125 
z
" id="DejaVuSans-52"/>
      </defs>
      <g transform="translate(196.55512 171.270437)scale(0.1 -0.1)">
       <use xlink:href="#DejaVuSans-52"/>
       <use x="63.623047" xlink:href="#DejaVuSans-48"/>
       <use x="127.246094" xlink:href="#DejaVuSans-48"/>
      </g>
     </g>
    </g>
    <g id="xtick_4">
     <g id="line2d_7">
      <path clip-path="url(#p915b341169)" d="M 277.384701 156.672 
L 277.384701 27.648 
" style="fill:none;stroke:#b0b0b0;stroke-linecap:square;stroke-width:0.8;"/>
     </g>
     <g id="line2d_8">
      <g>
       <use style="stroke:#000000;stroke-width:0.8;" x="277.384701" xlink:href="#me59560c0f7" y="156.672"/>
      </g>
     </g>
     <g id="text_4">
      <!-- 600 -->
      <defs>
       <path d="M 33.015625 40.375 
Q 26.375 40.375 22.484375 35.828125 
Q 18.609375 31.296875 18.609375 23.390625 
Q 18.609375 15.53125 22.484375 10.953125 
Q 26.375 6.390625 33.015625 6.390625 
Q 39.65625 6.390625 43.53125 10.953125 
Q 47.40625 15.53125 47.40625 23.390625 
Q 47.40625 31.296875 43.53125 35.828125 
Q 39.65625 40.375 33.015625 40.375 
z
M 52.59375 71.296875 
L 52.59375 62.3125 
Q 48.875 64.0625 45.09375 64.984375 
Q 41.3125 65.921875 37.59375 65.921875 
Q 27.828125 65.921875 22.671875 59.328125 
Q 17.53125 52.734375 16.796875 39.40625 
Q 19.671875 43.65625 24.015625 45.921875 
Q 28.375 48.1875 33.59375 48.1875 
Q 44.578125 48.1875 50.953125 41.515625 
Q 57.328125 34.859375 57.328125 23.390625 
Q 57.328125 12.15625 50.6875 5.359375 
Q 44.046875 -1.421875 33.015625 -1.421875 
Q 20.359375 -1.421875 13.671875 8.265625 
Q 6.984375 17.96875 6.984375 36.375 
Q 6.984375 53.65625 15.1875 63.9375 
Q 23.390625 74.21875 37.203125 74.21875 
Q 40.921875 74.21875 44.703125 73.484375 
Q 48.484375 72.75 52.59375 71.296875 
z
" id="DejaVuSans-54"/>
      </defs>
      <g transform="translate(267.840951 171.270437)scale(0.1 -0.1)">
       <use xlink:href="#DejaVuSans-54"/>
       <use x="63.623047" xlink:href="#DejaVuSans-48"/>
       <use x="127.246094" xlink:href="#DejaVuSans-48"/>
      </g>
     </g>
    </g>
    <g id="xtick_5">
     <g id="line2d_9">
      <path clip-path="url(#p915b341169)" d="M 348.670532 156.672 
L 348.670532 27.648 
" style="fill:none;stroke:#b0b0b0;stroke-linecap:square;stroke-width:0.8;"/>
     </g>
     <g id="line2d_10">
      <g>
       <use style="stroke:#000000;stroke-width:0.8;" x="348.670532" xlink:href="#me59560c0f7" y="156.672"/>
      </g>
     </g>
     <g id="text_5">
      <!-- 800 -->
      <defs>
       <path d="M 31.78125 34.625 
Q 24.75 34.625 20.71875 30.859375 
Q 16.703125 27.09375 16.703125 20.515625 
Q 16.703125 13.921875 20.71875 10.15625 
Q 24.75 6.390625 31.78125 6.390625 
Q 38.8125 6.390625 42.859375 10.171875 
Q 46.921875 13.96875 46.921875 20.515625 
Q 46.921875 27.09375 42.890625 30.859375 
Q 38.875 34.625 31.78125 34.625 
z
M 21.921875 38.8125 
Q 15.578125 40.375 12.03125 44.71875 
Q 8.5 49.078125 8.5 55.328125 
Q 8.5 64.0625 14.71875 69.140625 
Q 20.953125 74.21875 31.78125 74.21875 
Q 42.671875 74.21875 48.875 69.140625 
Q 55.078125 64.0625 55.078125 55.328125 
Q 55.078125 49.078125 51.53125 44.71875 
Q 48 40.375 41.703125 38.8125 
Q 48.828125 37.15625 52.796875 32.3125 
Q 56.78125 27.484375 56.78125 20.515625 
Q 56.78125 9.90625 50.3125 4.234375 
Q 43.84375 -1.421875 31.78125 -1.421875 
Q 19.734375 -1.421875 13.25 4.234375 
Q 6.78125 9.90625 6.78125 20.515625 
Q 6.78125 27.484375 10.78125 32.3125 
Q 14.796875 37.15625 21.921875 38.8125 
z
M 18.3125 54.390625 
Q 18.3125 48.734375 21.84375 45.5625 
Q 25.390625 42.390625 31.78125 42.390625 
Q 38.140625 42.390625 41.71875 45.5625 
Q 45.3125 48.734375 45.3125 54.390625 
Q 45.3125 60.0625 41.71875 63.234375 
Q 38.140625 66.40625 31.78125 66.40625 
Q 25.390625 66.40625 21.84375 63.234375 
Q 18.3125 60.0625 18.3125 54.390625 
z
" id="DejaVuSans-56"/>
      </defs>
      <g transform="translate(339.126782 171.270437)scale(0.1 -0.1)">
       <use xlink:href="#DejaVuSans-56"/>
       <use x="63.623047" xlink:href="#DejaVuSans-48"/>
       <use x="127.246094" xlink:href="#DejaVuSans-48"/>
      </g>
     </g>
    </g>
    <g id="xtick_6">
     <g id="line2d_11">
      <path clip-path="url(#p915b341169)" d="M 419.956364 156.672 
L 419.956364 27.648 
" style="fill:none;stroke:#b0b0b0;stroke-linecap:square;stroke-width:0.8;"/>
     </g>
     <g id="line2d_12">
      <g>
       <use style="stroke:#000000;stroke-width:0.8;" x="419.956364" xlink:href="#me59560c0f7" y="156.672"/>
      </g>
     </g>
     <g id="text_6">
      <!-- 1000 -->
      <defs>
       <path d="M 12.40625 8.296875 
L 28.515625 8.296875 
L 28.515625 63.921875 
L 10.984375 60.40625 
L 10.984375 69.390625 
L 28.421875 72.90625 
L 38.28125 72.90625 
L 38.28125 8.296875 
L 54.390625 8.296875 
L 54.390625 0 
L 12.40625 0 
z
" id="DejaVuSans-49"/>
      </defs>
      <g transform="translate(407.231364 171.270437)scale(0.1 -0.1)">
       <use xlink:href="#DejaVuSans-49"/>
       <use x="63.623047" xlink:href="#DejaVuSans-48"/>
       <use x="127.246094" xlink:href="#DejaVuSans-48"/>
       <use x="190.869141" xlink:href="#DejaVuSans-48"/>
      </g>
     </g>
    </g>
    <g id="text_7">
     <!-- Corridas -->
     <defs>
      <path d="M 64.40625 67.28125 
L 64.40625 56.890625 
Q 59.421875 61.53125 53.78125 63.8125 
Q 48.140625 66.109375 41.796875 66.109375 
Q 29.296875 66.109375 22.65625 58.46875 
Q 16.015625 50.828125 16.015625 36.375 
Q 16.015625 21.96875 22.65625 14.328125 
Q 29.296875 6.6875 41.796875 6.6875 
Q 48.140625 6.6875 53.78125 8.984375 
Q 59.421875 11.28125 64.40625 15.921875 
L 64.40625 5.609375 
Q 59.234375 2.09375 53.4375 0.328125 
Q 47.65625 -1.421875 41.21875 -1.421875 
Q 24.65625 -1.421875 15.125 8.703125 
Q 5.609375 18.84375 5.609375 36.375 
Q 5.609375 53.953125 15.125 64.078125 
Q 24.65625 74.21875 41.21875 74.21875 
Q 47.75 74.21875 53.53125 72.484375 
Q 59.328125 70.75 64.40625 67.28125 
z
" id="DejaVuSans-67"/>
      <path d="M 30.609375 48.390625 
Q 23.390625 48.390625 19.1875 42.75 
Q 14.984375 37.109375 14.984375 27.296875 
Q 14.984375 17.484375 19.15625 11.84375 
Q 23.34375 6.203125 30.609375 6.203125 
Q 37.796875 6.203125 41.984375 11.859375 
Q 46.1875 17.53125 46.1875 27.296875 
Q 46.1875 37.015625 41.984375 42.703125 
Q 37.796875 48.390625 30.609375 48.390625 
z
M 30.609375 56 
Q 42.328125 56 49.015625 48.375 
Q 55.71875 40.765625 55.71875 27.296875 
Q 55.71875 13.875 49.015625 6.21875 
Q 42.328125 -1.421875 30.609375 -1.421875 
Q 18.84375 -1.421875 12.171875 6.21875 
Q 5.515625 13.875 5.515625 27.296875 
Q 5.515625 40.765625 12.171875 48.375 
Q 18.84375 56 30.609375 56 
z
" id="DejaVuSans-111"/>
      <path d="M 41.109375 46.296875 
Q 39.59375 47.171875 37.8125 47.578125 
Q 36.03125 48 33.890625 48 
Q 26.265625 48 22.1875 43.046875 
Q 18.109375 38.09375 18.109375 28.8125 
L 18.109375 0 
L 9.078125 0 
L 9.078125 54.6875 
L 18.109375 54.6875 
L 18.109375 46.1875 
Q 20.953125 51.171875 25.484375 53.578125 
Q 30.03125 56 36.53125 56 
Q 37.453125 56 38.578125 55.875 
Q 39.703125 55.765625 41.0625 55.515625 
z
" id="DejaVuSans-114"/>
      <path d="M 9.421875 54.6875 
L 18.40625 54.6875 
L 18.40625 0 
L 9.421875 0 
z
M 9.421875 75.984375 
L 18.40625 75.984375 
L 18.40625 64.59375 
L 9.421875 64.59375 
z
" id="DejaVuSans-105"/>
      <path d="M 45.40625 46.390625 
L 45.40625 75.984375 
L 54.390625 75.984375 
L 54.390625 0 
L 45.40625 0 
L 45.40625 8.203125 
Q 42.578125 3.328125 38.25 0.953125 
Q 33.9375 -1.421875 27.875 -1.421875 
Q 17.96875 -1.421875 11.734375 6.484375 
Q 5.515625 14.40625 5.515625 27.296875 
Q 5.515625 40.1875 11.734375 48.09375 
Q 17.96875 56 27.875 56 
Q 33.9375 56 38.25 53.625 
Q 42.578125 51.265625 45.40625 46.390625 
z
M 14.796875 27.296875 
Q 14.796875 17.390625 18.875 11.75 
Q 22.953125 6.109375 30.078125 6.109375 
Q 37.203125 6.109375 41.296875 11.75 
Q 45.40625 17.390625 45.40625 27.296875 
Q 45.40625 37.203125 41.296875 42.84375 
Q 37.203125 48.484375 30.078125 48.484375 
Q 22.953125 48.484375 18.875 42.84375 
Q 14.796875 37.203125 14.796875 27.296875 
z
" id="DejaVuSans-100"/>
      <path d="M 34.28125 27.484375 
Q 23.390625 27.484375 19.1875 25 
Q 14.984375 22.515625 14.984375 16.5 
Q 14.984375 11.71875 18.140625 8.90625 
Q 21.296875 6.109375 26.703125 6.109375 
Q 34.1875 6.109375 38.703125 11.40625 
Q 43.21875 16.703125 43.21875 25.484375 
L 43.21875 27.484375 
z
M 52.203125 31.203125 
L 52.203125 0 
L 43.21875 0 
L 43.21875 8.296875 
Q 40.140625 3.328125 35.546875 0.953125 
Q 30.953125 -1.421875 24.3125 -1.421875 
Q 15.921875 -1.421875 10.953125 3.296875 
Q 6 8.015625 6 15.921875 
Q 6 25.140625 12.171875 29.828125 
Q 18.359375 34.515625 30.609375 34.515625 
L 43.21875 34.515625 
L 43.21875 35.40625 
Q 43.21875 41.609375 39.140625 45 
Q 35.0625 48.390625 27.6875 48.390625 
Q 23 48.390625 18.546875 47.265625 
Q 14.109375 46.140625 10.015625 43.890625 
L 10.015625 52.203125 
Q 14.9375 54.109375 19.578125 55.046875 
Q 24.21875 56 28.609375 56 
Q 40.484375 56 46.34375 49.84375 
Q 52.203125 43.703125 52.203125 31.203125 
z
" id="DejaVuSans-97"/>
      <path d="M 44.28125 53.078125 
L 44.28125 44.578125 
Q 40.484375 46.53125 36.375 47.5 
Q 32.28125 48.484375 27.875 48.484375 
Q 21.1875 48.484375 17.84375 46.4375 
Q 14.5 44.390625 14.5 40.28125 
Q 14.5 37.15625 16.890625 35.375 
Q 19.28125 33.59375 26.515625 31.984375 
L 29.59375 31.296875 
Q 39.15625 29.25 43.1875 25.515625 
Q 47.21875 21.78125 47.21875 15.09375 
Q 47.21875 7.46875 41.1875 3.015625 
Q 35.15625 -1.421875 24.609375 -1.421875 
Q 20.21875 -1.421875 15.453125 -0.5625 
Q 10.6875 0.296875 5.421875 2 
L 5.421875 11.28125 
Q 10.40625 8.6875 15.234375 7.390625 
Q 20.0625 6.109375 24.8125 6.109375 
Q 31.15625 6.109375 34.5625 8.28125 
Q 37.984375 10.453125 37.984375 14.40625 
Q 37.984375 18.0625 35.515625 20.015625 
Q 33.0625 21.96875 24.703125 23.78125 
L 21.578125 24.515625 
Q 13.234375 26.265625 9.515625 29.90625 
Q 5.8125 33.546875 5.8125 39.890625 
Q 5.8125 47.609375 11.28125 51.796875 
Q 16.75 56 26.8125 56 
Q 31.78125 56 36.171875 55.265625 
Q 40.578125 54.546875 44.28125 53.078125 
z
" id="DejaVuSans-115"/>
     </defs>
     <g transform="translate(221.027031 184.948562)scale(0.1 -0.1)">
      <use xlink:href="#DejaVuSans-67"/>
      <use x="69.824219" xlink:href="#DejaVuSans-111"/>
      <use x="131.005859" xlink:href="#DejaVuSans-114"/>
      <use x="172.103516" xlink:href="#DejaVuSans-114"/>
      <use x="213.216797" xlink:href="#DejaVuSans-105"/>
      <use x="241" xlink:href="#DejaVuSans-100"/>
      <use x="304.476562" xlink:href="#DejaVuSans-97"/>
      <use x="365.755859" xlink:href="#DejaVuSans-115"/>
     </g>
    </g>
   </g>
   <g id="matplotlib.axis_2">
    <g id="ytick_1">
     <g id="line2d_13">
      <path clip-path="url(#p915b341169)" d="M 46.08 150.807273 
L 437.76 150.807273 
" style="fill:none;stroke:#b0b0b0;stroke-linecap:square;stroke-width:0.8;"/>
     </g>
     <g id="line2d_14">
      <defs>
       <path d="M 0 0 
L -3.5 0 
" id="ma956c6e92b" style="stroke:#000000;stroke-width:0.8;"/>
      </defs>
      <g>
       <use style="stroke:#000000;stroke-width:0.8;" x="46.08" xlink:href="#ma956c6e92b" y="150.807273"/>
      </g>
     </g>
     <g id="text_8">
      <!-- 0.0000000 -->
      <defs>
       <path d="M 10.6875 12.40625 
L 21 12.40625 
L 21 0 
L 10.6875 0 
z
" id="DejaVuSans-46"/>
      </defs>
      <g transform="translate(-14.998125 154.606491)scale(0.1 -0.1)">
       <use xlink:href="#DejaVuSans-48"/>
       <use x="63.623047" xlink:href="#DejaVuSans-46"/>
       <use x="95.410156" xlink:href="#DejaVuSans-48"/>
       <use x="159.033203" xlink:href="#DejaVuSans-48"/>
       <use x="222.65625" xlink:href="#DejaVuSans-48"/>
       <use x="286.279297" xlink:href="#DejaVuSans-48"/>
       <use x="349.902344" xlink:href="#DejaVuSans-48"/>
       <use x="413.525391" xlink:href="#DejaVuSans-48"/>
       <use x="477.148438" xlink:href="#DejaVuSans-48"/>
      </g>
     </g>
    </g>
    <g id="ytick_2">
     <g id="line2d_15">
      <path clip-path="url(#p915b341169)" d="M 46.08 126.196538 
L 437.76 126.196538 
" style="fill:none;stroke:#b0b0b0;stroke-linecap:square;stroke-width:0.8;"/>
     </g>
     <g id="line2d_16">
      <g>
       <use style="stroke:#000000;stroke-width:0.8;" x="46.08" xlink:href="#ma956c6e92b" y="126.196538"/>
      </g>
     </g>
     <g id="text_9">
      <!-- 0.0000025 -->
      <defs>
       <path d="M 10.796875 72.90625 
L 49.515625 72.90625 
L 49.515625 64.59375 
L 19.828125 64.59375 
L 19.828125 46.734375 
Q 21.96875 47.46875 24.109375 47.828125 
Q 26.265625 48.1875 28.421875 48.1875 
Q 40.625 48.1875 47.75 41.5 
Q 54.890625 34.8125 54.890625 23.390625 
Q 54.890625 11.625 47.5625 5.09375 
Q 40.234375 -1.421875 26.90625 -1.421875 
Q 22.3125 -1.421875 17.546875 -0.640625 
Q 12.796875 0.140625 7.71875 1.703125 
L 7.71875 11.625 
Q 12.109375 9.234375 16.796875 8.0625 
Q 21.484375 6.890625 26.703125 6.890625 
Q 35.15625 6.890625 40.078125 11.328125 
Q 45.015625 15.765625 45.015625 23.390625 
Q 45.015625 31 40.078125 35.4375 
Q 35.15625 39.890625 26.703125 39.890625 
Q 22.75 39.890625 18.8125 39.015625 
Q 14.890625 38.140625 10.796875 36.28125 
z
" id="DejaVuSans-53"/>
      </defs>
      <g transform="translate(-14.998125 129.995756)scale(0.1 -0.1)">
       <use xlink:href="#DejaVuSans-48"/>
       <use x="63.623047" xlink:href="#DejaVuSans-46"/>
       <use x="95.410156" xlink:href="#DejaVuSans-48"/>
       <use x="159.033203" xlink:href="#DejaVuSans-48"/>
       <use x="222.65625" xlink:href="#DejaVuSans-48"/>
       <use x="286.279297" xlink:href="#DejaVuSans-48"/>
       <use x="349.902344" xlink:href="#DejaVuSans-48"/>
       <use x="413.525391" xlink:href="#DejaVuSans-50"/>
       <use x="477.148438" xlink:href="#DejaVuSans-53"/>
      </g>
     </g>
    </g>
    <g id="ytick_3">
     <g id="line2d_17">
      <path clip-path="url(#p915b341169)" d="M 46.08 101.585802 
L 437.76 101.585802 
" style="fill:none;stroke:#b0b0b0;stroke-linecap:square;stroke-width:0.8;"/>
     </g>
     <g id="line2d_18">
      <g>
       <use style="stroke:#000000;stroke-width:0.8;" x="46.08" xlink:href="#ma956c6e92b" y="101.585802"/>
      </g>
     </g>
     <g id="text_10">
      <!-- 0.0000050 -->
      <g transform="translate(-14.998125 105.385021)scale(0.1 -0.1)">
       <use xlink:href="#DejaVuSans-48"/>
       <use x="63.623047" xlink:href="#DejaVuSans-46"/>
       <use x="95.410156" xlink:href="#DejaVuSans-48"/>
       <use x="159.033203" xlink:href="#DejaVuSans-48"/>
       <use x="222.65625" xlink:href="#DejaVuSans-48"/>
       <use x="286.279297" xlink:href="#DejaVuSans-48"/>
       <use x="349.902344" xlink:href="#DejaVuSans-48"/>
       <use x="413.525391" xlink:href="#DejaVuSans-53"/>
       <use x="477.148438" xlink:href="#DejaVuSans-48"/>
      </g>
     </g>
    </g>
    <g id="ytick_4">
     <g id="line2d_19">
      <path clip-path="url(#p915b341169)" d="M 46.08 76.975067 
L 437.76 76.975067 
" style="fill:none;stroke:#b0b0b0;stroke-linecap:square;stroke-width:0.8;"/>
     </g>
     <g id="line2d_20">
      <g>
       <use style="stroke:#000000;stroke-width:0.8;" x="46.08" xlink:href="#ma956c6e92b" y="76.975067"/>
      </g>
     </g>
     <g id="text_11">
      <!-- 0.0000075 -->
      <defs>
       <path d="M 8.203125 72.90625 
L 55.078125 72.90625 
L 55.078125 68.703125 
L 28.609375 0 
L 18.3125 0 
L 43.21875 64.59375 
L 8.203125 64.59375 
z
" id="DejaVuSans-55"/>
      </defs>
      <g transform="translate(-14.998125 80.774286)scale(0.1 -0.1)">
       <use xlink:href="#DejaVuSans-48"/>
       <use x="63.623047" xlink:href="#DejaVuSans-46"/>
       <use x="95.410156" xlink:href="#DejaVuSans-48"/>
       <use x="159.033203" xlink:href="#DejaVuSans-48"/>
       <use x="222.65625" xlink:href="#DejaVuSans-48"/>
       <use x="286.279297" xlink:href="#DejaVuSans-48"/>
       <use x="349.902344" xlink:href="#DejaVuSans-48"/>
       <use x="413.525391" xlink:href="#DejaVuSans-55"/>
       <use x="477.148438" xlink:href="#DejaVuSans-53"/>
      </g>
     </g>
    </g>
    <g id="ytick_5">
     <g id="line2d_21">
      <path clip-path="url(#p915b341169)" d="M 46.08 52.364332 
L 437.76 52.364332 
" style="fill:none;stroke:#b0b0b0;stroke-linecap:square;stroke-width:0.8;"/>
     </g>
     <g id="line2d_22">
      <g>
       <use style="stroke:#000000;stroke-width:0.8;" x="46.08" xlink:href="#ma956c6e92b" y="52.364332"/>
      </g>
     </g>
     <g id="text_12">
      <!-- 0.0000100 -->
      <g transform="translate(-14.998125 56.163551)scale(0.1 -0.1)">
       <use xlink:href="#DejaVuSans-48"/>
       <use x="63.623047" xlink:href="#DejaVuSans-46"/>
       <use x="95.410156" xlink:href="#DejaVuSans-48"/>
       <use x="159.033203" xlink:href="#DejaVuSans-48"/>
       <use x="222.65625" xlink:href="#DejaVuSans-48"/>
       <use x="286.279297" xlink:href="#DejaVuSans-48"/>
       <use x="349.902344" xlink:href="#DejaVuSans-49"/>
       <use x="413.525391" xlink:href="#DejaVuSans-48"/>
       <use x="477.148438" xlink:href="#DejaVuSans-48"/>
      </g>
     </g>
    </g>
    <g id="ytick_6">
     <g id="line2d_23">
      <path clip-path="url(#p915b341169)" d="M 46.08 27.753597 
L 437.76 27.753597 
" style="fill:none;stroke:#b0b0b0;stroke-linecap:square;stroke-width:0.8;"/>
     </g>
     <g id="line2d_24">
      <g>
       <use style="stroke:#000000;stroke-width:0.8;" x="46.08" xlink:href="#ma956c6e92b" y="27.753597"/>
      </g>
     </g>
     <g id="text_13">
      <!-- 0.0000125 -->
      <g transform="translate(-14.998125 31.552816)scale(0.1 -0.1)">
       <use xlink:href="#DejaVuSans-48"/>
       <use x="63.623047" xlink:href="#DejaVuSans-46"/>
       <use x="95.410156" xlink:href="#DejaVuSans-48"/>
       <use x="159.033203" xlink:href="#DejaVuSans-48"/>
       <use x="222.65625" xlink:href="#DejaVuSans-48"/>
       <use x="286.279297" xlink:href="#DejaVuSans-48"/>
       <use x="349.902344" xlink:href="#DejaVuSans-49"/>
       <use x="413.525391" xlink:href="#DejaVuSans-50"/>
       <use x="477.148438" xlink:href="#DejaVuSans-53"/>
      </g>
     </g>
    </g>
    <g id="text_14">
     <!-- Número -->
     <defs>
      <path d="M 9.8125 72.90625 
L 23.09375 72.90625 
L 55.421875 11.921875 
L 55.421875 72.90625 
L 64.984375 72.90625 
L 64.984375 0 
L 51.703125 0 
L 19.390625 60.984375 
L 19.390625 0 
L 9.8125 0 
z
" id="DejaVuSans-78"/>
      <path d="M 8.5 21.578125 
L 8.5 54.6875 
L 17.484375 54.6875 
L 17.484375 21.921875 
Q 17.484375 14.15625 20.5 10.265625 
Q 23.53125 6.390625 29.59375 6.390625 
Q 36.859375 6.390625 41.078125 11.03125 
Q 45.3125 15.671875 45.3125 23.6875 
L 45.3125 54.6875 
L 54.296875 54.6875 
L 54.296875 0 
L 45.3125 0 
L 45.3125 8.40625 
Q 42.046875 3.421875 37.71875 1 
Q 33.40625 -1.421875 27.6875 -1.421875 
Q 18.265625 -1.421875 13.375 4.4375 
Q 8.5 10.296875 8.5 21.578125 
z
M 31.109375 56 
z
M 37.78125 79.984375 
L 47.5 79.984375 
L 31.59375 61.625 
L 24.109375 61.625 
z
" id="DejaVuSans-250"/>
      <path d="M 52 44.1875 
Q 55.375 50.25 60.0625 53.125 
Q 64.75 56 71.09375 56 
Q 79.640625 56 84.28125 50.015625 
Q 88.921875 44.046875 88.921875 33.015625 
L 88.921875 0 
L 79.890625 0 
L 79.890625 32.71875 
Q 79.890625 40.578125 77.09375 44.375 
Q 74.3125 48.1875 68.609375 48.1875 
Q 61.625 48.1875 57.5625 43.546875 
Q 53.515625 38.921875 53.515625 30.90625 
L 53.515625 0 
L 44.484375 0 
L 44.484375 32.71875 
Q 44.484375 40.625 41.703125 44.40625 
Q 38.921875 48.1875 33.109375 48.1875 
Q 26.21875 48.1875 22.15625 43.53125 
Q 18.109375 38.875 18.109375 30.90625 
L 18.109375 0 
L 9.078125 0 
L 9.078125 54.6875 
L 18.109375 54.6875 
L 18.109375 46.1875 
Q 21.1875 51.21875 25.484375 53.609375 
Q 29.78125 56 35.6875 56 
Q 41.65625 56 45.828125 52.96875 
Q 50 49.953125 52 44.1875 
z
" id="DejaVuSans-109"/>
      <path d="M 56.203125 29.59375 
L 56.203125 25.203125 
L 14.890625 25.203125 
Q 15.484375 15.921875 20.484375 11.0625 
Q 25.484375 6.203125 34.421875 6.203125 
Q 39.59375 6.203125 44.453125 7.46875 
Q 49.3125 8.734375 54.109375 11.28125 
L 54.109375 2.78125 
Q 49.265625 0.734375 44.1875 -0.34375 
Q 39.109375 -1.421875 33.890625 -1.421875 
Q 20.796875 -1.421875 13.15625 6.1875 
Q 5.515625 13.8125 5.515625 26.8125 
Q 5.515625 40.234375 12.765625 48.109375 
Q 20.015625 56 32.328125 56 
Q 43.359375 56 49.78125 48.890625 
Q 56.203125 41.796875 56.203125 29.59375 
z
M 47.21875 32.234375 
Q 47.125 39.59375 43.09375 43.984375 
Q 39.0625 48.390625 32.421875 48.390625 
Q 24.90625 48.390625 20.390625 44.140625 
Q 15.875 39.890625 15.1875 32.171875 
z
" id="DejaVuSans-101"/>
     </defs>
     <g transform="translate(-21.077812 112.129531)rotate(-90)scale(0.1 -0.1)">
      <use xlink:href="#DejaVuSans-78"/>
      <use x="74.804688" xlink:href="#DejaVuSans-250"/>
      <use x="138.183594" xlink:href="#DejaVuSans-109"/>
      <use x="235.595703" xlink:href="#DejaVuSans-101"/>
      <use x="297.119141" xlink:href="#DejaVuSans-114"/>
      <use x="338.201172" xlink:href="#DejaVuSans-111"/>
     </g>
    </g>
   </g>
   <g id="line2d_25">
    <path clip-path="url(#p915b341169)" d="M 63.883636 150.807273 
L 66.022211 150.807273 
L 66.37864 33.512727 
L 67.091499 56.971636 
L 67.804357 72.610909 
L 68.160786 35.727261 
L 68.873645 51.071263 
L 69.586503 62.804911 
L 70.65579 76.005265 
L 71.012219 79.567266 
L 71.368649 77.050452 
L 72.437936 85.901271 
L 73.507224 92.855485 
L 74.576511 98.463723 
L 75.645799 103.082271 
L 76.715086 106.951866 
L 79.566519 114.615782 
L 80.635807 116.87775 
L 80.992236 111.778977 
L 82.061523 114.030609 
L 82.417952 74.357305 
L 83.843669 79.722215 
L 85.625815 85.454881 
L 87.407961 90.331925 
L 89.190106 94.531602 
L 90.972252 98.185866 
L 92.04154 100.159169 
L 92.397969 92.445337 
L 93.467256 94.529692 
L 93.823686 87.960755 
L 94.180115 88.691529 
L 94.536544 86.195386 
L 96.675119 90.363895 
L 97.387977 91.636387 
L 97.744406 87.878212 
L 99.882981 91.579921 
L 102.021556 94.87033 
L 103.447273 96.868078 
L 103.803702 87.049124 
L 104.160131 84.524491 
L 104.51656 85.100863 
L 104.872989 80.184687 
L 107.367993 84.203858 
L 108.79371 86.301604 
L 109.150139 86.407688 
L 110.575856 88.35919 
L 110.932285 87.041756 
L 112.714431 89.352101 
L 113.07086 85.077777 
L 115.565864 88.229191 
L 115.922293 86.518995 
L 118.773726 89.8371 
L 120.555872 91.742418 
L 120.912301 79.551658 
L 123.763735 82.924705 
L 126.971597 86.35697 
L 127.328026 86.717027 
L 127.684455 84.458611 
L 129.110172 85.900974 
L 129.466601 84.658345 
L 132.674464 87.72711 
L 136.238755 90.819275 
L 139.803047 93.622452 
L 143.723767 96.418155 
L 147.288059 98.732585 
L 147.644488 97.064041 
L 148.000917 97.290806 
L 148.357346 96.331254 
L 149.070205 96.785221 
L 149.426634 95.709255 
L 150.852351 96.608814 
L 151.20878 96.094718 
L 153.347355 97.397398 
L 153.703784 83.84495 
L 154.773071 84.629664 
L 155.1295 82.99011 
L 157.980934 85.03742 
L 158.337363 83.330693 
L 160.119509 84.575648 
L 160.475938 84.181814 
L 161.188796 84.668131 
L 161.545225 78.991352 
L 165.465946 81.753503 
L 165.822375 81.273858 
L 167.604521 82.352229 
L 170.812383 84.399057 
L 171.525242 78.675007 
L 172.950958 79.614841 
L 173.307387 78.917444 
L 177.940966 81.82887 
L 178.297396 77.264269 
L 183.287404 80.328561 
L 183.643833 75.146829 
L 184.71312 75.814421 
L 185.06955 72.998114 
L 185.425979 73.225626 
L 185.782408 71.513264 
L 186.851695 72.200784 
L 187.208124 72.029162 
L 192.554562 75.293449 
L 194.693137 76.524652 
L 195.049566 75.872258 
L 195.405995 73.889271 
L 197.54457 75.116686 
L 197.900999 75.065571 
L 199.326716 75.86076 
L 199.683145 74.365492 
L 201.465291 75.353112 
L 201.82172 75.030018 
L 202.178149 75.224818 
L 202.534578 73.492129 
L 203.247437 73.886595 
L 203.603866 73.227828 
L 209.306732 76.262721 
L 212.871024 78.041827 
L 213.227453 76.406879 
L 216.791744 78.13712 
L 217.148174 77.830377 
L 217.504603 76.671705 
L 219.643178 77.687261 
L 219.999607 75.592039 
L 223.207469 77.012336 
L 229.979623 80.014699 
L 235.68249 82.359795 
L 236.038919 80.681626 
L 243.167502 83.46439 
L 245.662506 84.386895 
L 246.018935 83.577594 
L 247.801081 84.227785 
L 248.15751 83.725819 
L 251.721802 84.996301 
L 252.078231 83.145504 
L 255.286093 84.277392 
L 255.642523 83.478152 
L 259.206814 84.704547 
L 259.563243 81.523118 
L 261.345389 82.147299 
L 261.701818 82.096953 
L 262.771106 82.465702 
L 263.127535 81.95874 
L 264.553251 82.447028 
L 264.909681 80.894808 
L 268.830401 82.229942 
L 269.18683 80.562522 
L 275.958984 82.801868 
L 276.315414 82.764008 
L 284.156855 85.182347 
L 284.513284 83.36065 
L 289.503292 84.850007 
L 289.859722 84.433248 
L 293.424013 85.462302 
L 293.780442 84.94606 
L 295.919017 85.50027 
L 296.275446 81.870218 
L 299.483309 82.807429 
L 299.839738 79.803753 
L 300.552596 80.017297 
L 300.909025 78.805708 
L 305.186175 80.080072 
L 305.542604 79.445458 
L 309.106896 80.481188 
L 309.463325 79.628705 
L 315.522621 81.340212 
L 315.87905 80.830893 
L 316.948337 81.126152 
L 317.304767 79.892678 
L 317.661196 79.268573 
L 321.938346 80.452662 
L 322.294775 79.812871 
L 328.7105 81.530477 
L 329.066929 80.6186 
L 329.779787 80.806522 
L 330.136216 79.69803 
L 341.18552 82.527794 
L 345.106241 83.377556 
L 347.601245 83.969787 
L 347.957674 83.41566 
L 352.234824 84.414055 
L 352.591253 83.925769 
L 354.729828 84.416943 
L 355.086257 83.96993 
L 359.363407 84.936253 
L 359.719836 84.243789 
L 366.49199 85.731679 
L 366.848419 84.022704 
L 367.917707 84.25731 
L 368.274136 76.917579 
L 375.04629 78.523877 
L 375.402719 77.878785 
L 380.392727 79.027265 
L 380.749156 76.578231 
L 384.669877 77.484468 
L 385.026306 77.437047 
L 387.87774 78.08206 
L 388.234169 77.07502 
L 388.590598 77.155867 
L 388.947027 77.073031 
L 389.659885 77.234199 
L 390.016314 76.142614 
L 391.085602 76.38635 
L 391.442031 76.186505 
L 392.154889 76.348372 
L 392.511319 75.321439 
L 395.362752 75.970082 
L 395.719181 73.89238 
L 396.07561 73.974818 
L 396.432039 73.327102 
L 399.996331 74.147866 
L 400.35276 73.47344 
L 406.412056 74.823088 
L 406.768485 74.492798 
L 411.045635 75.432053 
L 411.402064 75.0486 
L 412.114922 75.203525 
L 412.471351 74.872633 
L 415.322785 75.488111 
L 415.679214 75.119102 
L 416.035643 75.195632 
L 416.392072 74.966411 
L 417.46136 75.195538 
L 417.817789 74.829107 
L 419.956364 75.284976 
L 419.956364 75.284976 
" style="fill:none;stroke:#1f77b4;stroke-linecap:square;stroke-width:1.5;"/>
   </g>
   <g id="patch_3">
    <path d="M 46.08 156.672 
L 46.08 27.648 
" style="fill:none;stroke:#000000;stroke-linecap:square;stroke-linejoin:miter;stroke-width:0.8;"/>
   </g>
   <g id="patch_4">
    <path d="M 437.76 156.672 
L 437.76 27.648 
" style="fill:none;stroke:#000000;stroke-linecap:square;stroke-linejoin:miter;stroke-width:0.8;"/>
   </g>
   <g id="patch_5">
    <path d="M 46.08 156.672 
L 437.76 156.672 
" style="fill:none;stroke:#000000;stroke-linecap:square;stroke-linejoin:miter;stroke-width:0.8;"/>
   </g>
   <g id="patch_6">
    <path d="M 46.08 27.648 
L 437.76 27.648 
" style="fill:none;stroke:#000000;stroke-linecap:square;stroke-linejoin:miter;stroke-width:0.8;"/>
   </g>
   <g id="text_15">
    <!-- Número promedio de clientes en cola A -->
    <defs>
     <path id="DejaVuSans-32"/>
     <path d="M 18.109375 8.203125 
L 18.109375 -20.796875 
L 9.078125 -20.796875 
L 9.078125 54.6875 
L 18.109375 54.6875 
L 18.109375 46.390625 
Q 20.953125 51.265625 25.265625 53.625 
Q 29.59375 56 35.59375 56 
Q 45.5625 56 51.78125 48.09375 
Q 58.015625 40.1875 58.015625 27.296875 
Q 58.015625 14.40625 51.78125 6.484375 
Q 45.5625 -1.421875 35.59375 -1.421875 
Q 29.59375 -1.421875 25.265625 0.953125 
Q 20.953125 3.328125 18.109375 8.203125 
z
M 48.6875 27.296875 
Q 48.6875 37.203125 44.609375 42.84375 
Q 40.53125 48.484375 33.40625 48.484375 
Q 26.265625 48.484375 22.1875 42.84375 
Q 18.109375 37.203125 18.109375 27.296875 
Q 18.109375 17.390625 22.1875 11.75 
Q 26.265625 6.109375 33.40625 6.109375 
Q 40.53125 6.109375 44.609375 11.75 
Q 48.6875 17.390625 48.6875 27.296875 
z
" id="DejaVuSans-112"/>
     <path d="M 48.78125 52.59375 
L 48.78125 44.1875 
Q 44.96875 46.296875 41.140625 47.34375 
Q 37.3125 48.390625 33.40625 48.390625 
Q 24.65625 48.390625 19.8125 42.84375 
Q 14.984375 37.3125 14.984375 27.296875 
Q 14.984375 17.28125 19.8125 11.734375 
Q 24.65625 6.203125 33.40625 6.203125 
Q 37.3125 6.203125 41.140625 7.25 
Q 44.96875 8.296875 48.78125 10.40625 
L 48.78125 2.09375 
Q 45.015625 0.34375 40.984375 -0.53125 
Q 36.96875 -1.421875 32.421875 -1.421875 
Q 20.0625 -1.421875 12.78125 6.34375 
Q 5.515625 14.109375 5.515625 27.296875 
Q 5.515625 40.671875 12.859375 48.328125 
Q 20.21875 56 33.015625 56 
Q 37.15625 56 41.109375 55.140625 
Q 45.0625 54.296875 48.78125 52.59375 
z
" id="DejaVuSans-99"/>
     <path d="M 9.421875 75.984375 
L 18.40625 75.984375 
L 18.40625 0 
L 9.421875 0 
z
" id="DejaVuSans-108"/>
     <path d="M 54.890625 33.015625 
L 54.890625 0 
L 45.90625 0 
L 45.90625 32.71875 
Q 45.90625 40.484375 42.875 44.328125 
Q 39.84375 48.1875 33.796875 48.1875 
Q 26.515625 48.1875 22.3125 43.546875 
Q 18.109375 38.921875 18.109375 30.90625 
L 18.109375 0 
L 9.078125 0 
L 9.078125 54.6875 
L 18.109375 54.6875 
L 18.109375 46.1875 
Q 21.34375 51.125 25.703125 53.5625 
Q 30.078125 56 35.796875 56 
Q 45.21875 56 50.046875 50.171875 
Q 54.890625 44.34375 54.890625 33.015625 
z
" id="DejaVuSans-110"/>
     <path d="M 18.3125 70.21875 
L 18.3125 54.6875 
L 36.8125 54.6875 
L 36.8125 47.703125 
L 18.3125 47.703125 
L 18.3125 18.015625 
Q 18.3125 11.328125 20.140625 9.421875 
Q 21.96875 7.515625 27.59375 7.515625 
L 36.8125 7.515625 
L 36.8125 0 
L 27.59375 0 
Q 17.1875 0 13.234375 3.875 
Q 9.28125 7.765625 9.28125 18.015625 
L 9.28125 47.703125 
L 2.6875 47.703125 
L 2.6875 54.6875 
L 9.28125 54.6875 
L 9.28125 70.21875 
z
" id="DejaVuSans-116"/>
     <path d="M 34.1875 63.1875 
L 20.796875 26.90625 
L 47.609375 26.90625 
z
M 28.609375 72.90625 
L 39.796875 72.90625 
L 67.578125 0 
L 57.328125 0 
L 50.6875 18.703125 
L 17.828125 18.703125 
L 11.1875 0 
L 0.78125 0 
z
" id="DejaVuSans-65"/>
    </defs>
    <g transform="translate(123.17625 21.648)scale(0.12 -0.12)">
     <use xlink:href="#DejaVuSans-78"/>
     <use x="74.804688" xlink:href="#DejaVuSans-250"/>
     <use x="138.183594" xlink:href="#DejaVuSans-109"/>
     <use x="235.595703" xlink:href="#DejaVuSans-101"/>
     <use x="297.119141" xlink:href="#DejaVuSans-114"/>
     <use x="338.201172" xlink:href="#DejaVuSans-111"/>
     <use x="399.382812" xlink:href="#DejaVuSans-32"/>
     <use x="431.169922" xlink:href="#DejaVuSans-112"/>
     <use x="494.646484" xlink:href="#DejaVuSans-114"/>
     <use x="535.728516" xlink:href="#DejaVuSans-111"/>
     <use x="596.910156" xlink:href="#DejaVuSans-109"/>
     <use x="694.322266" xlink:href="#DejaVuSans-101"/>
     <use x="755.845703" xlink:href="#DejaVuSans-100"/>
     <use x="819.322266" xlink:href="#DejaVuSans-105"/>
     <use x="847.105469" xlink:href="#DejaVuSans-111"/>
     <use x="908.287109" xlink:href="#DejaVuSans-32"/>
     <use x="940.074219" xlink:href="#DejaVuSans-100"/>
     <use x="1003.550781" xlink:href="#DejaVuSans-101"/>
     <use x="1065.074219" xlink:href="#DejaVuSans-32"/>
     <use x="1096.861328" xlink:href="#DejaVuSans-99"/>
     <use x="1151.841797" xlink:href="#DejaVuSans-108"/>
     <use x="1179.625" xlink:href="#DejaVuSans-105"/>
     <use x="1207.408203" xlink:href="#DejaVuSans-101"/>
     <use x="1268.931641" xlink:href="#DejaVuSans-110"/>
     <use x="1332.310547" xlink:href="#DejaVuSans-116"/>
     <use x="1371.519531" xlink:href="#DejaVuSans-101"/>
     <use x="1433.042969" xlink:href="#DejaVuSans-115"/>
     <use x="1485.142578" xlink:href="#DejaVuSans-32"/>
     <use x="1516.929688" xlink:href="#DejaVuSans-101"/>
     <use x="1578.453125" xlink:href="#DejaVuSans-110"/>
     <use x="1641.832031" xlink:href="#DejaVuSans-32"/>
     <use x="1673.619141" xlink:href="#DejaVuSans-99"/>
     <use x="1728.599609" xlink:href="#DejaVuSans-111"/>
     <use x="1789.78125" xlink:href="#DejaVuSans-108"/>
     <use x="1817.564453" xlink:href="#DejaVuSans-97"/>
     <use x="1878.84375" xlink:href="#DejaVuSans-32"/>
     <use x="1910.630859" xlink:href="#DejaVuSans-65"/>
    </g>
   </g>
  </g>
  <g id="axes_2">
   <g id="patch_7">
    <path d="M 46.08 317.952 
L 212.75234 317.952 
L 212.75234 188.928 
L 46.08 188.928 
z
" style="fill:#ffffff;"/>
   </g>
   <g id="matplotlib.axis_3">
    <g id="xtick_7">
     <g id="line2d_26">
      <path clip-path="url(#p2e86fabec7)" d="M 53.504343 317.952 
L 53.504343 188.928 
" style="fill:none;stroke:#b0b0b0;stroke-linecap:square;stroke-width:0.8;"/>
     </g>
     <g id="line2d_27">
      <g>
       <use style="stroke:#000000;stroke-width:0.8;" x="53.504343" xlink:href="#me59560c0f7" y="317.952"/>
      </g>
     </g>
     <g id="text_16">
      <!-- 0 -->
      <g transform="translate(50.323093 332.550437)scale(0.1 -0.1)">
       <use xlink:href="#DejaVuSans-48"/>
      </g>
     </g>
    </g>
    <g id="xtick_8">
     <g id="line2d_28">
      <path clip-path="url(#p2e86fabec7)" d="M 91.422339 317.952 
L 91.422339 188.928 
" style="fill:none;stroke:#b0b0b0;stroke-linecap:square;stroke-width:0.8;"/>
     </g>
     <g id="line2d_29">
      <g>
       <use style="stroke:#000000;stroke-width:0.8;" x="91.422339" xlink:href="#me59560c0f7" y="317.952"/>
      </g>
     </g>
     <g id="text_17">
      <!-- 250 -->
      <g transform="translate(81.878589 332.550437)scale(0.1 -0.1)">
       <use xlink:href="#DejaVuSans-50"/>
       <use x="63.623047" xlink:href="#DejaVuSans-53"/>
       <use x="127.246094" xlink:href="#DejaVuSans-48"/>
      </g>
     </g>
    </g>
    <g id="xtick_9">
     <g id="line2d_30">
      <path clip-path="url(#p2e86fabec7)" d="M 129.340334 317.952 
L 129.340334 188.928 
" style="fill:none;stroke:#b0b0b0;stroke-linecap:square;stroke-width:0.8;"/>
     </g>
     <g id="line2d_31">
      <g>
       <use style="stroke:#000000;stroke-width:0.8;" x="129.340334" xlink:href="#me59560c0f7" y="317.952"/>
      </g>
     </g>
     <g id="text_18">
      <!-- 500 -->
      <g transform="translate(119.796584 332.550437)scale(0.1 -0.1)">
       <use xlink:href="#DejaVuSans-53"/>
       <use x="63.623047" xlink:href="#DejaVuSans-48"/>
       <use x="127.246094" xlink:href="#DejaVuSans-48"/>
      </g>
     </g>
    </g>
    <g id="xtick_10">
     <g id="line2d_32">
      <path clip-path="url(#p2e86fabec7)" d="M 167.25833 317.952 
L 167.25833 188.928 
" style="fill:none;stroke:#b0b0b0;stroke-linecap:square;stroke-width:0.8;"/>
     </g>
     <g id="line2d_33">
      <g>
       <use style="stroke:#000000;stroke-width:0.8;" x="167.25833" xlink:href="#me59560c0f7" y="317.952"/>
      </g>
     </g>
     <g id="text_19">
      <!-- 750 -->
      <g transform="translate(157.71458 332.550437)scale(0.1 -0.1)">
       <use xlink:href="#DejaVuSans-55"/>
       <use x="63.623047" xlink:href="#DejaVuSans-53"/>
       <use x="127.246094" xlink:href="#DejaVuSans-48"/>
      </g>
     </g>
    </g>
    <g id="xtick_11">
     <g id="line2d_34">
      <path clip-path="url(#p2e86fabec7)" d="M 205.176325 317.952 
L 205.176325 188.928 
" style="fill:none;stroke:#b0b0b0;stroke-linecap:square;stroke-width:0.8;"/>
     </g>
     <g id="line2d_35">
      <g>
       <use style="stroke:#000000;stroke-width:0.8;" x="205.176325" xlink:href="#me59560c0f7" y="317.952"/>
      </g>
     </g>
     <g id="text_20">
      <!-- 1000 -->
      <g transform="translate(192.451325 332.550437)scale(0.1 -0.1)">
       <use xlink:href="#DejaVuSans-49"/>
       <use x="63.623047" xlink:href="#DejaVuSans-48"/>
       <use x="127.246094" xlink:href="#DejaVuSans-48"/>
       <use x="190.869141" xlink:href="#DejaVuSans-48"/>
      </g>
     </g>
    </g>
    <g id="text_21">
     <!-- Corridas -->
     <g transform="translate(108.523201 346.228563)scale(0.1 -0.1)">
      <use xlink:href="#DejaVuSans-67"/>
      <use x="69.824219" xlink:href="#DejaVuSans-111"/>
      <use x="131.005859" xlink:href="#DejaVuSans-114"/>
      <use x="172.103516" xlink:href="#DejaVuSans-114"/>
      <use x="213.216797" xlink:href="#DejaVuSans-105"/>
      <use x="241" xlink:href="#DejaVuSans-100"/>
      <use x="304.476562" xlink:href="#DejaVuSans-97"/>
      <use x="365.755859" xlink:href="#DejaVuSans-115"/>
     </g>
    </g>
   </g>
   <g id="matplotlib.axis_4">
    <g id="ytick_7">
     <g id="line2d_36">
      <path clip-path="url(#p2e86fabec7)" d="M 46.08 301.560513 
L 212.75234 301.560513 
" style="fill:none;stroke:#b0b0b0;stroke-linecap:square;stroke-width:0.8;"/>
     </g>
     <g id="line2d_37">
      <g>
       <use style="stroke:#000000;stroke-width:0.8;" x="46.08" xlink:href="#ma956c6e92b" y="301.560513"/>
      </g>
     </g>
     <g id="text_22">
      <!-- 0.013 -->
      <defs>
       <path d="M 40.578125 39.3125 
Q 47.65625 37.796875 51.625 33 
Q 55.609375 28.21875 55.609375 21.1875 
Q 55.609375 10.40625 48.1875 4.484375 
Q 40.765625 -1.421875 27.09375 -1.421875 
Q 22.515625 -1.421875 17.65625 -0.515625 
Q 12.796875 0.390625 7.625 2.203125 
L 7.625 11.71875 
Q 11.71875 9.328125 16.59375 8.109375 
Q 21.484375 6.890625 26.8125 6.890625 
Q 36.078125 6.890625 40.9375 10.546875 
Q 45.796875 14.203125 45.796875 21.1875 
Q 45.796875 27.640625 41.28125 31.265625 
Q 36.765625 34.90625 28.71875 34.90625 
L 20.21875 34.90625 
L 20.21875 43.015625 
L 29.109375 43.015625 
Q 36.375 43.015625 40.234375 45.921875 
Q 44.09375 48.828125 44.09375 54.296875 
Q 44.09375 59.90625 40.109375 62.90625 
Q 36.140625 65.921875 28.71875 65.921875 
Q 24.65625 65.921875 20.015625 65.03125 
Q 15.375 64.15625 9.8125 62.3125 
L 9.8125 71.09375 
Q 15.4375 72.65625 20.34375 73.4375 
Q 25.25 74.21875 29.59375 74.21875 
Q 40.828125 74.21875 47.359375 69.109375 
Q 53.90625 64.015625 53.90625 55.328125 
Q 53.90625 49.265625 50.4375 45.09375 
Q 46.96875 40.921875 40.578125 39.3125 
z
" id="DejaVuSans-51"/>
      </defs>
      <g transform="translate(10.451875 305.359732)scale(0.1 -0.1)">
       <use xlink:href="#DejaVuSans-48"/>
       <use x="63.623047" xlink:href="#DejaVuSans-46"/>
       <use x="95.410156" xlink:href="#DejaVuSans-48"/>
       <use x="159.033203" xlink:href="#DejaVuSans-49"/>
       <use x="222.65625" xlink:href="#DejaVuSans-51"/>
      </g>
     </g>
    </g>
    <g id="ytick_8">
     <g id="line2d_38">
      <path clip-path="url(#p2e86fabec7)" d="M 46.08 262.241438 
L 212.75234 262.241438 
" style="fill:none;stroke:#b0b0b0;stroke-linecap:square;stroke-width:0.8;"/>
     </g>
     <g id="line2d_39">
      <g>
       <use style="stroke:#000000;stroke-width:0.8;" x="46.08" xlink:href="#ma956c6e92b" y="262.241438"/>
      </g>
     </g>
     <g id="text_23">
      <!-- 0.014 -->
      <g transform="translate(10.451875 266.040656)scale(0.1 -0.1)">
       <use xlink:href="#DejaVuSans-48"/>
       <use x="63.623047" xlink:href="#DejaVuSans-46"/>
       <use x="95.410156" xlink:href="#DejaVuSans-48"/>
       <use x="159.033203" xlink:href="#DejaVuSans-49"/>
       <use x="222.65625" xlink:href="#DejaVuSans-52"/>
      </g>
     </g>
    </g>
    <g id="ytick_9">
     <g id="line2d_40">
      <path clip-path="url(#p2e86fabec7)" d="M 46.08 222.922362 
L 212.75234 222.922362 
" style="fill:none;stroke:#b0b0b0;stroke-linecap:square;stroke-width:0.8;"/>
     </g>
     <g id="line2d_41">
      <g>
       <use style="stroke:#000000;stroke-width:0.8;" x="46.08" xlink:href="#ma956c6e92b" y="222.922362"/>
      </g>
     </g>
     <g id="text_24">
      <!-- 0.015 -->
      <g transform="translate(10.451875 226.72158)scale(0.1 -0.1)">
       <use xlink:href="#DejaVuSans-48"/>
       <use x="63.623047" xlink:href="#DejaVuSans-46"/>
       <use x="95.410156" xlink:href="#DejaVuSans-48"/>
       <use x="159.033203" xlink:href="#DejaVuSans-49"/>
       <use x="222.65625" xlink:href="#DejaVuSans-53"/>
      </g>
     </g>
    </g>
    <g id="text_25">
     <!-- Número -->
     <g transform="translate(4.372188 273.409531)rotate(-90)scale(0.1 -0.1)">
      <use xlink:href="#DejaVuSans-78"/>
      <use x="74.804688" xlink:href="#DejaVuSans-250"/>
      <use x="138.183594" xlink:href="#DejaVuSans-109"/>
      <use x="235.595703" xlink:href="#DejaVuSans-101"/>
      <use x="297.119141" xlink:href="#DejaVuSans-114"/>
      <use x="338.201172" xlink:href="#DejaVuSans-111"/>
     </g>
    </g>
   </g>
   <g id="line2d_42">
    <path clip-path="url(#p2e86fabec7)" d="M 53.656015 312.087273 
L 53.807687 230.289698 
L 53.959359 235.76442 
L 54.111031 284.635486 
L 54.414375 237.76151 
L 54.566047 253.883479 
L 54.717719 255.769163 
L 54.869391 243.613619 
L 55.021063 242.508445 
L 55.172735 231.88849 
L 55.324407 204.452538 
L 55.476079 208.778015 
L 55.627751 206.255589 
L 55.779423 218.340389 
L 56.082767 198.577894 
L 56.537783 231.736469 
L 56.689455 233.761856 
L 56.841127 232.210038 
L 56.992799 225.391934 
L 57.144471 227.510709 
L 57.296143 235.049264 
L 57.447815 235.075126 
L 57.599487 238.603273 
L 57.902831 220.704998 
L 58.054503 221.544856 
L 58.357847 212.809523 
L 58.509519 213.564774 
L 58.661191 213.584097 
L 58.812863 212.249442 
L 58.964535 208.943965 
L 59.116207 209.195385 
L 59.267879 212.860059 
L 59.419551 210.552177 
L 59.571223 211.38208 
L 59.722895 207.164648 
L 59.874567 206.779452 
L 60.177911 209.808885 
L 60.329583 204.79973 
L 60.632927 203.819963 
L 60.784599 204.601128 
L 60.936271 203.270916 
L 61.239615 207.010526 
L 61.542959 200.978585 
L 61.846302 205.408463 
L 61.997974 202.810405 
L 62.149646 202.880082 
L 62.45299 205.560313 
L 62.756334 198.141925 
L 62.908006 194.792727 
L 63.059678 194.926838 
L 63.21135 195.871181 
L 63.363022 195.471064 
L 63.514694 199.1072 
L 63.666366 199.104376 
L 63.818038 199.995812 
L 64.121382 205.674987 
L 64.273054 204.73904 
L 64.424726 208.934483 
L 64.72807 210.263494 
L 65.031414 214.884967 
L 65.183086 214.935681 
L 65.334758 213.445698 
L 65.48643 215.623824 
L 65.638102 215.976177 
L 65.941446 214.87573 
L 66.093118 215.324081 
L 66.24479 214.979735 
L 66.396462 215.219247 
L 66.548134 213.361622 
L 66.699806 214.484169 
L 66.851478 212.183656 
L 67.00315 212.230684 
L 67.154822 209.665115 
L 67.306494 210.154927 
L 67.458166 208.517811 
L 67.76151 209.265297 
L 68.064854 208.549398 
L 68.216526 205.341709 
L 68.368198 206.163331 
L 68.671542 204.443049 
L 68.823214 201.72983 
L 68.974886 203.376917 
L 69.27823 201.389317 
L 69.429902 202.778663 
L 69.581574 203.052396 
L 69.733246 204.974414 
L 69.884917 205.382587 
L 70.036589 206.35304 
L 70.339933 205.045703 
L 70.491605 205.76215 
L 70.643277 204.379343 
L 70.946621 205.36722 
L 71.098293 205.428226 
L 71.249965 207.219767 
L 71.401637 206.939209 
L 71.704981 208.608884 
L 71.856653 207.502947 
L 72.008325 207.987855 
L 72.159997 209.194404 
L 72.463341 207.306198 
L 72.615013 208.018952 
L 72.766685 209.533873 
L 72.918357 209.725212 
L 73.221701 208.487837 
L 73.676717 212.845938 
L 74.131733 212.200874 
L 74.435077 210.18644 
L 74.586749 209.826686 
L 74.738421 211.411172 
L 75.041765 210.477384 
L 75.193437 210.91288 
L 75.496781 214.27263 
L 75.648453 213.88703 
L 75.951797 216.110052 
L 76.103469 214.201773 
L 76.255141 213.85452 
L 76.406813 213.138872 
L 76.861829 207.965975 
L 77.013501 208.619704 
L 77.316845 206.308647 
L 77.468517 206.752566 
L 77.620189 206.231464 
L 77.771861 206.278102 
L 77.923533 207.54277 
L 78.226876 206.025611 
L 78.681892 208.742115 
L 78.833564 208.776868 
L 79.136908 207.789917 
L 79.28858 207.769913 
L 79.440252 207.937992 
L 79.591924 208.508628 
L 79.743596 208.646157 
L 79.895268 209.313848 
L 80.04694 209.439564 
L 80.198612 209.358628 
L 80.350284 208.311066 
L 80.501956 209.144687 
L 80.653628 208.962111 
L 80.8053 207.208575 
L 80.956972 208.949932 
L 81.411988 206.381482 
L 81.56366 206.879932 
L 81.715332 206.190642 
L 82.018676 209.284908 
L 82.32202 210.122632 
L 82.473692 210.644641 
L 82.625364 210.396315 
L 82.928708 211.71519 
L 83.08038 211.409238 
L 83.383724 210.401098 
L 83.687068 212.151446 
L 83.83874 211.765728 
L 83.990412 212.024808 
L 84.142084 212.022405 
L 84.5971 210.593726 
L 85.052116 211.863637 
L 85.35546 211.395584 
L 85.658804 211.999591 
L 85.962148 211.3037 
L 86.11382 211.7971 
L 86.265491 211.769802 
L 86.568835 210.763571 
L 86.720507 210.884361 
L 87.023851 210.128089 
L 87.175523 210.763459 
L 87.327195 210.707631 
L 87.478867 210.996808 
L 87.630539 211.814238 
L 87.782211 211.443477 
L 87.933883 211.998376 
L 88.085555 211.556166 
L 88.540571 212.044361 
L 88.995587 214.283131 
L 89.298931 212.771868 
L 89.450603 212.613291 
L 89.905619 214.751537 
L 90.360635 213.888785 
L 90.815651 214.929315 
L 90.967323 215.736798 
L 91.118995 215.194123 
L 91.270667 215.375978 
L 91.422339 215.32947 
L 91.574011 215.086732 
L 91.725683 215.134694 
L 91.877355 213.817297 
L 92.332371 214.644784 
L 92.635715 213.89163 
L 92.787387 214.149132 
L 92.939059 214.153596 
L 93.090731 213.78017 
L 93.242403 214.4303 
L 93.545747 214.332441 
L 93.849091 215.466363 
L 94.152435 214.662731 
L 94.304107 214.778002 
L 94.759122 213.894002 
L 94.910794 213.779471 
L 95.062466 213.912925 
L 95.214138 213.636235 
L 95.517482 214.286104 
L 95.820826 214.97613 
L 95.972498 214.579906 
L 96.12417 215.475701 
L 96.275842 215.527822 
L 96.427514 214.912883 
L 96.579186 214.766205 
L 96.88253 213.19667 
L 97.034202 213.854078 
L 97.337546 212.534095 
L 97.489218 213.481696 
L 97.64089 213.466151 
L 98.39925 214.436269 
L 98.550922 212.96892 
L 98.702594 212.996472 
L 98.854266 212.69211 
L 99.309282 212.914594 
L 99.612626 214.352613 
L 99.764298 214.396193 
L 100.067642 215.369558 
L 100.522658 215.281089 
L 100.826002 213.629455 
L 101.129346 214.300967 
L 101.281018 213.960531 
L 101.43269 214.635715 
L 101.584362 214.289824 
L 101.736034 214.437861 
L 101.887706 214.795689 
L 102.039378 214.755597 
L 102.19105 215.204692 
L 102.342722 214.423578 
L 102.646065 214.967247 
L 102.797737 214.411095 
L 102.949409 214.323894 
L 103.101081 213.988896 
L 103.252753 213.979514 
L 103.404425 214.185769 
L 103.707769 215.338097 
L 103.859441 214.95335 
L 104.162785 215.508738 
L 104.314457 215.42968 
L 104.466129 216.24441 
L 104.617801 216.142019 
L 104.769473 216.866848 
L 104.921145 216.982982 
L 105.224489 216.639822 
L 105.376161 216.700098 
L 105.527833 216.515109 
L 105.831177 216.833979 
L 105.982849 216.280452 
L 106.134521 215.173494 
L 106.437865 214.707716 
L 106.589537 214.164337 
L 106.892881 215.143384 
L 107.196225 214.643292 
L 107.499569 214.508263 
L 107.651241 215.007701 
L 107.802913 214.157522 
L 108.106257 213.84531 
L 108.561273 212.63277 
L 108.712945 212.51781 
L 108.864617 212.035522 
L 109.016289 212.475376 
L 109.167961 212.323733 
L 109.471305 210.890241 
L 109.622977 211.260239 
L 109.774649 210.98229 
L 109.926321 211.242091 
L 110.077993 211.2562 
L 110.229665 210.74771 
L 110.533009 210.826402 
L 110.684681 211.228074 
L 110.836352 210.779142 
L 110.988024 210.879065 
L 111.139696 210.093556 
L 111.594712 210.162766 
L 111.898056 210.83216 
L 112.049728 210.86002 
L 112.353072 210.629392 
L 112.504744 210.679065 
L 112.656416 210.497695 
L 112.95976 211.176464 
L 113.111432 210.985509 
L 113.263104 211.531187 
L 113.414776 211.43533 
L 113.566448 211.08999 
L 113.71812 211.150197 
L 113.869792 211.012245 
L 114.324808 210.235332 
L 114.628152 210.184617 
L 114.931496 210.70404 
L 115.23484 210.25897 
L 115.386512 210.573195 
L 115.538184 210.144326 
L 115.689856 210.246708 
L 115.841528 210.905524 
L 115.9932 210.934346 
L 116.144872 210.716106 
L 116.296544 210.27969 
L 116.448216 210.22874 
L 116.75156 210.830825 
L 116.903232 210.775784 
L 117.206576 210.14602 
L 117.50992 211.329777 
L 117.661592 211.013863 
L 117.813264 211.169239 
L 118.116608 210.373745 
L 118.26828 210.479466 
L 118.723296 211.253858 
L 119.178311 210.387698 
L 119.329983 210.063274 
L 119.633327 210.690441 
L 119.784999 210.577861 
L 119.936671 209.746378 
L 120.088343 209.888996 
L 120.391687 209.307486 
L 120.543359 209.338502 
L 120.695031 209.740995 
L 120.846703 208.608542 
L 120.998375 208.793206 
L 121.150047 208.607903 
L 121.301719 208.60254 
L 121.453391 208.801618 
L 121.756735 208.707499 
L 121.908407 209.249465 
L 122.060079 209.120595 
L 122.363423 209.915644 
L 122.515095 210.08375 
L 122.818439 209.885259 
L 123.121783 209.529376 
L 123.576799 210.425406 
L 123.880143 210.10061 
L 124.183487 210.836225 
L 124.335159 210.917493 
L 124.486831 210.368157 
L 124.638503 210.614014 
L 124.790175 211.147246 
L 125.093519 210.433919 
L 125.245191 210.522608 
L 125.396863 210.787338 
L 126.306895 210.208706 
L 126.458567 209.814084 
L 126.761911 210.994736 
L 126.913583 211.04237 
L 127.065255 211.386909 
L 127.216926 210.736916 
L 127.368598 210.718962 
L 127.52027 210.128007 
L 127.975286 211.387234 
L 128.27863 210.666955 
L 128.430302 210.599552 
L 128.885318 211.190039 
L 129.340334 210.58355 
L 129.643678 211.363552 
L 129.947022 211.263819 
L 130.098694 211.143566 
L 130.250366 210.628911 
L 130.402038 210.67914 
L 130.705382 210.156079 
L 131.008726 209.850506 
L 131.463742 210.214966 
L 131.615414 210.078239 
L 131.767086 209.781437 
L 131.918758 209.734923 
L 132.222102 209.266969 
L 132.525446 209.729637 
L 132.677118 209.062652 
L 133.132134 209.629439 
L 133.435478 209.821895 
L 133.738822 208.879881 
L 134.042166 208.683596 
L 134.193838 208.683962 
L 134.34551 208.945422 
L 134.648854 208.607347 
L 135.10387 209.132427 
L 135.558885 209.501221 
L 135.710557 209.306019 
L 136.013901 208.712673 
L 136.620589 208.724412 
L 137.075605 209.124487 
L 137.227277 208.954188 
L 137.378949 209.212618 
L 137.833965 209.224378 
L 137.985637 209.664865 
L 138.288981 209.241849 
L 138.440653 209.469414 
L 139.199013 209.30364 
L 139.502357 209.503601 
L 139.654029 209.97064 
L 139.805701 209.977747 
L 139.957373 209.384332 
L 140.109045 209.430296 
L 140.412389 210.085724 
L 140.564061 210.011429 
L 140.867405 210.233247 
L 141.170749 209.736597 
L 141.474093 210.173999 
L 141.777437 210.41201 
L 141.929109 210.042559 
L 142.232453 210.170889 
L 142.384125 210.317096 
L 142.687469 211.018655 
L 142.990813 210.973112 
L 143.294157 210.991933 
L 143.445828 210.718075 
L 143.5975 210.704149 
L 143.900844 211.514429 
L 144.052516 211.669051 
L 144.204188 211.517291 
L 144.507532 211.995803 
L 144.810876 212.028279 
L 145.11422 212.9248 
L 145.265892 212.941586 
L 145.87258 213.769866 
L 146.024252 213.535118 
L 146.175924 213.764693 
L 146.327596 213.622969 
L 146.479268 213.719784 
L 146.782612 212.83062 
L 147.3893 213.062269 
L 147.540972 212.879714 
L 147.692644 213.042298 
L 147.995988 212.75501 
L 148.14766 212.180612 
L 148.299332 212.29452 
L 148.602676 211.944473 
L 148.754348 212.044737 
L 149.057692 211.95065 
L 149.209364 211.65245 
L 149.361036 211.821637 
L 149.66438 211.628735 
L 149.816052 211.514851 
L 149.967724 211.023271 
L 150.271068 211.715955 
L 150.42274 211.890746 
L 150.726084 212.474669 
L 150.877756 212.385508 
L 151.029428 212.672585 
L 151.1811 212.473617 
L 151.332772 212.714251 
L 151.484444 212.675198 
L 151.636115 212.7664 
L 151.939459 212.605193 
L 152.091131 212.677457 
L 152.242803 212.501838 
L 152.394475 212.539273 
L 152.546147 211.991309 
L 152.697819 211.868198 
L 152.849491 212.369783 
L 153.001163 212.40073 
L 153.152835 212.307022 
L 153.456179 212.529398 
L 153.607851 212.507452 
L 154.062867 212.215366 
L 154.214539 212.12969 
L 154.366211 211.91417 
L 154.517883 211.922039 
L 154.669555 211.56205 
L 155.124571 211.872481 
L 155.276243 211.398386 
L 155.427915 211.480282 
L 155.579587 211.418083 
L 155.882931 210.905353 
L 156.034603 210.854112 
L 156.186275 210.640932 
L 156.337947 210.737655 
L 156.641291 210.610766 
L 156.792963 211.095215 
L 156.944635 211.132248 
L 157.096307 210.8862 
L 157.247979 210.882455 
L 157.702995 210.580409 
L 158.158011 210.782133 
L 158.309683 210.813383 
L 158.461355 210.371873 
L 158.613027 210.295518 
L 159.219715 210.581021 
L 159.371387 210.455874 
L 159.978074 211.387262 
L 160.129746 211.126453 
L 160.281418 211.240337 
L 160.43309 211.01561 
L 160.888106 211.383842 
L 161.039778 211.507354 
L 161.494794 210.979645 
L 161.798138 211.19096 
L 161.94981 211.189184 
L 162.101482 211.337092 
L 162.404826 211.343168 
L 162.556498 211.434681 
L 163.011514 211.082229 
L 163.769874 211.442353 
L 163.921546 211.44903 
L 164.073218 211.667419 
L 164.376562 211.351436 
L 164.679906 211.472241 
L 164.98325 211.260207 
L 165.286594 210.463613 
L 165.438266 210.464951 
L 165.589938 210.829299 
L 165.74161 210.739653 
L 166.196626 211.033382 
L 166.348298 210.862631 
L 166.49997 210.899555 
L 167.25833 211.902714 
L 167.410002 211.969022 
L 167.561674 211.329266 
L 167.713346 211.511612 
L 168.016689 211.244774 
L 168.320033 211.297746 
L 168.471705 211.567117 
L 168.623377 211.433551 
L 168.775049 210.969696 
L 168.926721 211.050217 
L 169.230065 211.575282 
L 169.533409 211.375379 
L 169.685081 211.865356 
L 169.988425 211.979981 
L 170.140097 212.290677 
L 170.291769 211.974484 
L 170.595113 211.954695 
L 170.898457 211.615082 
L 171.201801 211.583848 
L 171.353473 211.26354 
L 171.505145 211.272931 
L 171.808489 211.854549 
L 172.111833 212.431569 
L 172.263505 212.574684 
L 172.566849 212.233623 
L 172.718521 212.251259 
L 173.021865 212.683621 
L 173.173537 212.763855 
L 173.476881 212.630305 
L 173.931897 212.956364 
L 174.386913 212.550955 
L 174.538585 212.24903 
L 174.841929 212.531917 
L 174.993601 212.287551 
L 175.145273 212.28022 
L 175.296945 212.498151 
L 175.600289 211.874241 
L 175.751961 211.675412 
L 175.903633 211.880514 
L 176.206976 211.110601 
L 176.813664 211.23194 
L 176.965336 211.233863 
L 177.26868 211.116835 
L 177.420352 211.409674 
L 177.572024 211.139396 
L 178.178712 211.348259 
L 178.330384 211.252673 
L 178.482056 210.805744 
L 178.633728 210.817759 
L 179.240416 211.42453 
L 179.392088 211.306809 
L 179.54376 210.916968 
L 179.695432 210.952037 
L 179.847104 210.639338 
L 180.150448 211.013628 
L 180.453792 210.506856 
L 180.605464 210.667923 
L 180.757136 210.382547 
L 180.908808 210.438445 
L 181.212152 210.283442 
L 182.122184 210.065339 
L 182.273856 209.851342 
L 182.425528 209.883646 
L 183.032216 210.512487 
L 183.33556 210.250516 
L 183.638904 210.596409 
L 183.790576 210.427854 
L 184.09392 209.961099 
L 184.397263 210.26827 
L 185.307295 210.57995 
L 185.458967 210.201794 
L 185.762311 210.369706 
L 186.065655 210.143577 
L 186.368999 210.102141 
L 186.824015 209.278431 
L 187.127359 209.075241 
L 187.279031 209.072579 
L 187.734047 208.517401 
L 188.340735 208.661915 
L 188.644079 208.499179 
L 188.795751 208.665242 
L 188.947423 208.276152 
L 190.464143 208.987018 
L 190.615815 209.006407 
L 190.767487 208.779061 
L 190.919159 208.789333 
L 191.374175 209.218609 
L 191.525847 209.04612 
L 191.829191 209.208247 
L 191.980863 208.883913 
L 192.132535 208.832636 
L 192.284207 209.083374 
L 192.58755 209.162551 
L 192.739222 208.853483 
L 192.890894 208.809142 
L 193.34591 208.986846 
L 193.952598 208.736874 
L 194.10427 208.956134 
L 194.255942 208.819972 
L 194.407614 208.99499 
L 194.710958 208.986543 
L 195.014302 209.162626 
L 195.165974 208.901746 
L 195.317646 208.954683 
L 195.469318 208.580031 
L 195.924334 208.581789 
L 196.076006 208.825916 
L 196.37935 208.717369 
L 196.531022 208.606058 
L 196.682694 208.78092 
L 196.834366 208.564983 
L 197.441054 208.643347 
L 198.047742 209.358813 
L 198.351086 209.366622 
L 198.502758 209.298019 
L 198.806102 208.94379 
L 198.957774 209.032856 
L 199.109446 208.67126 
L 199.41279 208.770362 
L 199.716134 208.586627 
L 199.867806 208.885734 
L 200.019478 208.715875 
L 200.322822 209.053424 
L 200.474494 208.996821 
L 200.626166 209.225159 
L 200.777837 209.243462 
L 201.232853 208.975309 
L 201.536197 208.932414 
L 201.839541 208.625814 
L 202.142885 208.943406 
L 202.294557 208.944058 
L 202.597901 209.149893 
L 202.901245 209.167413 
L 203.204589 209.367884 
L 203.356261 209.360503 
L 203.507933 209.524979 
L 203.659605 209.100583 
L 203.811277 209.067512 
L 204.114621 209.318016 
L 204.872981 208.868891 
L 205.024653 208.9955 
L 205.176325 209.287811 
L 205.176325 209.287811 
" style="fill:none;stroke:#1f77b4;stroke-linecap:square;stroke-width:1.5;"/>
   </g>
   <g id="patch_8">
    <path d="M 46.08 317.952 
L 46.08 188.928 
" style="fill:none;stroke:#000000;stroke-linecap:square;stroke-linejoin:miter;stroke-width:0.8;"/>
   </g>
   <g id="patch_9">
    <path d="M 212.75234 317.952 
L 212.75234 188.928 
" style="fill:none;stroke:#000000;stroke-linecap:square;stroke-linejoin:miter;stroke-width:0.8;"/>
   </g>
   <g id="patch_10">
    <path d="M 46.08 317.952 
L 212.75234 317.952 
" style="fill:none;stroke:#000000;stroke-linecap:square;stroke-linejoin:miter;stroke-width:0.8;"/>
   </g>
   <g id="patch_11">
    <path d="M 46.08 188.928 
L 212.75234 188.928 
" style="fill:none;stroke:#000000;stroke-linecap:square;stroke-linejoin:miter;stroke-width:0.8;"/>
   </g>
   <g id="text_26">
    <!-- Número promedio de clientes en cola C1 -->
    <g transform="translate(6.769608 182.928)scale(0.12 -0.12)">
     <use xlink:href="#DejaVuSans-78"/>
     <use x="74.804688" xlink:href="#DejaVuSans-250"/>
     <use x="138.183594" xlink:href="#DejaVuSans-109"/>
     <use x="235.595703" xlink:href="#DejaVuSans-101"/>
     <use x="297.119141" xlink:href="#DejaVuSans-114"/>
     <use x="338.201172" xlink:href="#DejaVuSans-111"/>
     <use x="399.382812" xlink:href="#DejaVuSans-32"/>
     <use x="431.169922" xlink:href="#DejaVuSans-112"/>
     <use x="494.646484" xlink:href="#DejaVuSans-114"/>
     <use x="535.728516" xlink:href="#DejaVuSans-111"/>
     <use x="596.910156" xlink:href="#DejaVuSans-109"/>
     <use x="694.322266" xlink:href="#DejaVuSans-101"/>
     <use x="755.845703" xlink:href="#DejaVuSans-100"/>
     <use x="819.322266" xlink:href="#DejaVuSans-105"/>
     <use x="847.105469" xlink:href="#DejaVuSans-111"/>
     <use x="908.287109" xlink:href="#DejaVuSans-32"/>
     <use x="940.074219" xlink:href="#DejaVuSans-100"/>
     <use x="1003.550781" xlink:href="#DejaVuSans-101"/>
     <use x="1065.074219" xlink:href="#DejaVuSans-32"/>
     <use x="1096.861328" xlink:href="#DejaVuSans-99"/>
     <use x="1151.841797" xlink:href="#DejaVuSans-108"/>
     <use x="1179.625" xlink:href="#DejaVuSans-105"/>
     <use x="1207.408203" xlink:href="#DejaVuSans-101"/>
     <use x="1268.931641" xlink:href="#DejaVuSans-110"/>
     <use x="1332.310547" xlink:href="#DejaVuSans-116"/>
     <use x="1371.519531" xlink:href="#DejaVuSans-101"/>
     <use x="1433.042969" xlink:href="#DejaVuSans-115"/>
     <use x="1485.142578" xlink:href="#DejaVuSans-32"/>
     <use x="1516.929688" xlink:href="#DejaVuSans-101"/>
     <use x="1578.453125" xlink:href="#DejaVuSans-110"/>
     <use x="1641.832031" xlink:href="#DejaVuSans-32"/>
     <use x="1673.619141" xlink:href="#DejaVuSans-99"/>
     <use x="1728.599609" xlink:href="#DejaVuSans-111"/>
     <use x="1789.78125" xlink:href="#DejaVuSans-108"/>
     <use x="1817.564453" xlink:href="#DejaVuSans-97"/>
     <use x="1878.84375" xlink:href="#DejaVuSans-32"/>
     <use x="1910.630859" xlink:href="#DejaVuSans-67"/>
     <use x="1980.455078" xlink:href="#DejaVuSans-49"/>
    </g>
   </g>
  </g>
  <g id="axes_3">
   <g id="patch_12">
    <path d="M 271.08766 317.952 
L 437.76 317.952 
L 437.76 188.928 
L 271.08766 188.928 
z
" style="fill:#ffffff;"/>
   </g>
   <g id="matplotlib.axis_5">
    <g id="xtick_12">
     <g id="line2d_43">
      <path clip-path="url(#p950cc9c575)" d="M 278.512003 317.952 
L 278.512003 188.928 
" style="fill:none;stroke:#b0b0b0;stroke-linecap:square;stroke-width:0.8;"/>
     </g>
     <g id="line2d_44">
      <g>
       <use style="stroke:#000000;stroke-width:0.8;" x="278.512003" xlink:href="#me59560c0f7" y="317.952"/>
      </g>
     </g>
     <g id="text_27">
      <!-- 0 -->
      <g transform="translate(275.330753 332.550437)scale(0.1 -0.1)">
       <use xlink:href="#DejaVuSans-48"/>
      </g>
     </g>
    </g>
    <g id="xtick_13">
     <g id="line2d_45">
      <path clip-path="url(#p950cc9c575)" d="M 316.429998 317.952 
L 316.429998 188.928 
" style="fill:none;stroke:#b0b0b0;stroke-linecap:square;stroke-width:0.8;"/>
     </g>
     <g id="line2d_46">
      <g>
       <use style="stroke:#000000;stroke-width:0.8;" x="316.429998" xlink:href="#me59560c0f7" y="317.952"/>
      </g>
     </g>
     <g id="text_28">
      <!-- 250 -->
      <g transform="translate(306.886248 332.550437)scale(0.1 -0.1)">
       <use xlink:href="#DejaVuSans-50"/>
       <use x="63.623047" xlink:href="#DejaVuSans-53"/>
       <use x="127.246094" xlink:href="#DejaVuSans-48"/>
      </g>
     </g>
    </g>
    <g id="xtick_14">
     <g id="line2d_47">
      <path clip-path="url(#p950cc9c575)" d="M 354.347994 317.952 
L 354.347994 188.928 
" style="fill:none;stroke:#b0b0b0;stroke-linecap:square;stroke-width:0.8;"/>
     </g>
     <g id="line2d_48">
      <g>
       <use style="stroke:#000000;stroke-width:0.8;" x="354.347994" xlink:href="#me59560c0f7" y="317.952"/>
      </g>
     </g>
     <g id="text_29">
      <!-- 500 -->
      <g transform="translate(344.804244 332.550437)scale(0.1 -0.1)">
       <use xlink:href="#DejaVuSans-53"/>
       <use x="63.623047" xlink:href="#DejaVuSans-48"/>
       <use x="127.246094" xlink:href="#DejaVuSans-48"/>
      </g>
     </g>
    </g>
    <g id="xtick_15">
     <g id="line2d_49">
      <path clip-path="url(#p950cc9c575)" d="M 392.265989 317.952 
L 392.265989 188.928 
" style="fill:none;stroke:#b0b0b0;stroke-linecap:square;stroke-width:0.8;"/>
     </g>
     <g id="line2d_50">
      <g>
       <use style="stroke:#000000;stroke-width:0.8;" x="392.265989" xlink:href="#me59560c0f7" y="317.952"/>
      </g>
     </g>
     <g id="text_30">
      <!-- 750 -->
      <g transform="translate(382.722239 332.550437)scale(0.1 -0.1)">
       <use xlink:href="#DejaVuSans-55"/>
       <use x="63.623047" xlink:href="#DejaVuSans-53"/>
       <use x="127.246094" xlink:href="#DejaVuSans-48"/>
      </g>
     </g>
    </g>
    <g id="xtick_16">
     <g id="line2d_51">
      <path clip-path="url(#p950cc9c575)" d="M 430.183985 317.952 
L 430.183985 188.928 
" style="fill:none;stroke:#b0b0b0;stroke-linecap:square;stroke-width:0.8;"/>
     </g>
     <g id="line2d_52">
      <g>
       <use style="stroke:#000000;stroke-width:0.8;" x="430.183985" xlink:href="#me59560c0f7" y="317.952"/>
      </g>
     </g>
     <g id="text_31">
      <!-- 1000 -->
      <g transform="translate(417.458985 332.550437)scale(0.1 -0.1)">
       <use xlink:href="#DejaVuSans-49"/>
       <use x="63.623047" xlink:href="#DejaVuSans-48"/>
       <use x="127.246094" xlink:href="#DejaVuSans-48"/>
       <use x="190.869141" xlink:href="#DejaVuSans-48"/>
      </g>
     </g>
    </g>
    <g id="text_32">
     <!-- Corridas -->
     <g transform="translate(333.530861 346.228563)scale(0.1 -0.1)">
      <use xlink:href="#DejaVuSans-67"/>
      <use x="69.824219" xlink:href="#DejaVuSans-111"/>
      <use x="131.005859" xlink:href="#DejaVuSans-114"/>
      <use x="172.103516" xlink:href="#DejaVuSans-114"/>
      <use x="213.216797" xlink:href="#DejaVuSans-105"/>
      <use x="241" xlink:href="#DejaVuSans-100"/>
      <use x="304.476562" xlink:href="#DejaVuSans-97"/>
      <use x="365.755859" xlink:href="#DejaVuSans-115"/>
     </g>
    </g>
   </g>
   <g id="matplotlib.axis_6">
    <g id="ytick_10">
     <g id="line2d_53">
      <path clip-path="url(#p950cc9c575)" d="M 271.08766 300.625841 
L 437.76 300.625841 
" style="fill:none;stroke:#b0b0b0;stroke-linecap:square;stroke-width:0.8;"/>
     </g>
     <g id="line2d_54">
      <g>
       <use style="stroke:#000000;stroke-width:0.8;" x="271.08766" xlink:href="#ma956c6e92b" y="300.625841"/>
      </g>
     </g>
     <g id="text_33">
      <!-- 0.012 -->
      <g transform="translate(235.459535 304.42506)scale(0.1 -0.1)">
       <use xlink:href="#DejaVuSans-48"/>
       <use x="63.623047" xlink:href="#DejaVuSans-46"/>
       <use x="95.410156" xlink:href="#DejaVuSans-48"/>
       <use x="159.033203" xlink:href="#DejaVuSans-49"/>
       <use x="222.65625" xlink:href="#DejaVuSans-50"/>
      </g>
     </g>
    </g>
    <g id="ytick_11">
     <g id="line2d_55">
      <path clip-path="url(#p950cc9c575)" d="M 271.08766 272.387608 
L 437.76 272.387608 
" style="fill:none;stroke:#b0b0b0;stroke-linecap:square;stroke-width:0.8;"/>
     </g>
     <g id="line2d_56">
      <g>
       <use style="stroke:#000000;stroke-width:0.8;" x="271.08766" xlink:href="#ma956c6e92b" y="272.387608"/>
      </g>
     </g>
     <g id="text_34">
      <!-- 0.013 -->
      <g transform="translate(235.459535 276.186826)scale(0.1 -0.1)">
       <use xlink:href="#DejaVuSans-48"/>
       <use x="63.623047" xlink:href="#DejaVuSans-46"/>
       <use x="95.410156" xlink:href="#DejaVuSans-48"/>
       <use x="159.033203" xlink:href="#DejaVuSans-49"/>
       <use x="222.65625" xlink:href="#DejaVuSans-51"/>
      </g>
     </g>
    </g>
    <g id="ytick_12">
     <g id="line2d_57">
      <path clip-path="url(#p950cc9c575)" d="M 271.08766 244.149374 
L 437.76 244.149374 
" style="fill:none;stroke:#b0b0b0;stroke-linecap:square;stroke-width:0.8;"/>
     </g>
     <g id="line2d_58">
      <g>
       <use style="stroke:#000000;stroke-width:0.8;" x="271.08766" xlink:href="#ma956c6e92b" y="244.149374"/>
      </g>
     </g>
     <g id="text_35">
      <!-- 0.014 -->
      <g transform="translate(235.459535 247.948593)scale(0.1 -0.1)">
       <use xlink:href="#DejaVuSans-48"/>
       <use x="63.623047" xlink:href="#DejaVuSans-46"/>
       <use x="95.410156" xlink:href="#DejaVuSans-48"/>
       <use x="159.033203" xlink:href="#DejaVuSans-49"/>
       <use x="222.65625" xlink:href="#DejaVuSans-52"/>
      </g>
     </g>
    </g>
    <g id="ytick_13">
     <g id="line2d_59">
      <path clip-path="url(#p950cc9c575)" d="M 271.08766 215.91114 
L 437.76 215.91114 
" style="fill:none;stroke:#b0b0b0;stroke-linecap:square;stroke-width:0.8;"/>
     </g>
     <g id="line2d_60">
      <g>
       <use style="stroke:#000000;stroke-width:0.8;" x="271.08766" xlink:href="#ma956c6e92b" y="215.91114"/>
      </g>
     </g>
     <g id="text_36">
      <!-- 0.015 -->
      <g transform="translate(235.459535 219.710359)scale(0.1 -0.1)">
       <use xlink:href="#DejaVuSans-48"/>
       <use x="63.623047" xlink:href="#DejaVuSans-46"/>
       <use x="95.410156" xlink:href="#DejaVuSans-48"/>
       <use x="159.033203" xlink:href="#DejaVuSans-49"/>
       <use x="222.65625" xlink:href="#DejaVuSans-53"/>
      </g>
     </g>
    </g>
    <g id="text_37">
     <!-- Número -->
     <g transform="translate(229.379847 273.409531)rotate(-90)scale(0.1 -0.1)">
      <use xlink:href="#DejaVuSans-78"/>
      <use x="74.804688" xlink:href="#DejaVuSans-250"/>
      <use x="138.183594" xlink:href="#DejaVuSans-109"/>
      <use x="235.595703" xlink:href="#DejaVuSans-101"/>
      <use x="297.119141" xlink:href="#DejaVuSans-114"/>
      <use x="338.201172" xlink:href="#DejaVuSans-111"/>
     </g>
    </g>
   </g>
   <g id="line2d_61">
    <path clip-path="url(#p950cc9c575)" d="M 278.663675 237.683301 
L 278.815347 194.792727 
L 279.118691 312.087273 
L 279.270363 301.307317 
L 279.422035 309.685701 
L 279.573707 297.064174 
L 279.725379 307.711091 
L 280.180395 304.435598 
L 280.332067 293.641891 
L 280.483739 294.389633 
L 280.635411 293.810302 
L 280.787083 297.573048 
L 280.938755 290.649254 
L 281.090427 290.010375 
L 281.242099 297.427065 
L 281.393771 295.082809 
L 281.545443 295.132489 
L 281.697115 295.299727 
L 281.848787 291.911532 
L 282.000459 285.005101 
L 282.152131 287.262924 
L 282.303803 287.138692 
L 282.607147 285.434049 
L 282.758819 285.267639 
L 283.062163 281.816104 
L 283.365506 278.708232 
L 283.517178 280.761279 
L 283.820522 277.935834 
L 283.972194 277.533711 
L 284.123866 278.084032 
L 284.275538 279.224498 
L 284.42721 276.826564 
L 284.578882 279.493555 
L 284.730554 273.347946 
L 285.033898 272.564352 
L 285.18557 274.249925 
L 285.337242 273.64109 
L 285.488914 274.364796 
L 285.640586 276.876894 
L 285.792258 277.148429 
L 285.94393 275.523551 
L 286.095602 277.06982 
L 286.398946 276.898096 
L 286.550618 277.46331 
L 286.70229 277.448206 
L 287.005634 275.951511 
L 287.157306 278.74212 
L 287.46065 278.063519 
L 287.763994 279.75556 
L 287.915666 279.741462 
L 288.21901 276.783778 
L 288.370682 277.650054 
L 288.522354 277.254583 
L 288.674026 277.635114 
L 288.825698 277.538464 
L 288.97737 277.292456 
L 289.129042 278.017688 
L 289.280714 277.353423 
L 289.432386 274.264883 
L 289.73573 273.269955 
L 289.887402 274.894075 
L 290.039074 273.258631 
L 290.342418 273.616166 
L 290.49409 274.422513 
L 290.645762 273.513774 
L 290.797434 273.438098 
L 290.949106 273.658182 
L 291.100778 273.670696 
L 291.25245 273.868822 
L 291.404121 273.218108 
L 291.707465 274.935321 
L 292.010809 272.965378 
L 292.162481 273.331835 
L 292.314153 273.120694 
L 292.465825 273.336964 
L 292.769169 272.484563 
L 292.920841 271.954112 
L 293.375857 273.545706 
L 293.982545 270.453981 
L 294.134217 270.894185 
L 294.285889 271.958656 
L 294.437561 271.511843 
L 294.589233 271.799968 
L 294.740905 271.619807 
L 294.892577 270.556633 
L 295.195921 271.244249 
L 295.347593 271.68081 
L 295.499265 271.514461 
L 295.650937 270.40554 
L 295.802609 271.188673 
L 295.954281 270.965098 
L 296.257625 273.288394 
L 296.409297 273.246106 
L 296.712641 275.507385 
L 296.864313 275.241545 
L 297.015985 275.830753 
L 297.167657 276.917492 
L 297.319329 276.4901 
L 297.471001 276.762749 
L 297.774345 275.951 
L 297.926017 275.770321 
L 298.077689 276.092127 
L 298.229361 275.669581 
L 298.381033 274.803009 
L 298.836049 276.049446 
L 298.987721 275.995849 
L 299.594408 273.795395 
L 299.74608 273.903702 
L 299.897752 272.697602 
L 300.201096 273.176392 
L 300.352768 273.716978 
L 300.807784 273.497124 
L 300.959456 272.650822 
L 301.111128 272.732577 
L 301.2628 272.346627 
L 301.414472 272.827737 
L 301.566144 272.831402 
L 302.02116 271.426552 
L 302.172832 271.86219 
L 302.476176 272.045162 
L 302.627848 271.118442 
L 302.931192 271.127073 
L 303.082864 270.768105 
L 303.386208 271.525434 
L 303.53788 271.943607 
L 303.689552 272.699172 
L 303.841224 272.534729 
L 303.992896 272.648496 
L 304.144568 271.918576 
L 304.29624 272.001288 
L 304.599584 272.362327 
L 304.902928 273.645126 
L 305.206272 272.825343 
L 305.357944 272.923661 
L 305.509616 272.883273 
L 305.964632 274.461635 
L 306.116304 273.961279 
L 306.267976 274.13085 
L 306.419648 273.944062 
L 306.57132 274.563591 
L 306.722992 274.673212 
L 306.874664 275.656382 
L 307.026336 274.852869 
L 307.178008 275.355286 
L 307.32968 274.280077 
L 307.481352 274.562847 
L 307.784695 273.864794 
L 308.088039 273.585085 
L 308.694727 275.189413 
L 308.846399 275.000441 
L 308.998071 275.042654 
L 309.149743 275.287927 
L 309.453087 274.246288 
L 309.604759 274.627501 
L 309.756431 274.259048 
L 309.908103 274.342522 
L 310.059775 273.959033 
L 310.211447 274.130979 
L 310.363119 273.298864 
L 310.666463 274.02703 
L 310.818135 273.892349 
L 311.273151 274.801823 
L 311.424823 274.738655 
L 311.576495 275.092453 
L 311.728167 275.07185 
L 311.879839 274.388563 
L 312.031511 274.338178 
L 312.183183 274.678219 
L 312.789871 273.8272 
L 312.941543 274.355025 
L 313.093215 274.235572 
L 313.244887 274.273928 
L 313.396559 274.482327 
L 313.548231 274.48941 
L 313.699903 274.36176 
L 313.851575 274.057394 
L 314.003247 274.514027 
L 314.154919 274.502813 
L 314.306591 273.931157 
L 314.458263 273.950382 
L 314.609935 274.235429 
L 314.761607 274.773462 
L 315.064951 274.961762 
L 315.216623 274.622546 
L 315.519967 274.924094 
L 315.671639 274.371118 
L 315.823311 274.423669 
L 316.278326 275.298521 
L 316.429998 275.343375 
L 316.733342 275.817386 
L 317.036686 275.057506 
L 317.188358 275.394039 
L 317.491702 275.489198 
L 317.643374 275.107352 
L 318.09839 275.450023 
L 318.250062 275.815356 
L 318.401734 275.514138 
L 318.705078 275.832241 
L 318.85675 275.690382 
L 319.160094 275.84554 
L 319.311766 275.328372 
L 319.463438 275.464224 
L 319.61511 275.772921 
L 319.766782 275.501338 
L 320.221798 275.746511 
L 320.37347 275.627676 
L 320.525142 275.202339 
L 320.676814 275.481095 
L 320.980158 275.448405 
L 321.283502 275.606653 
L 321.435174 275.092484 
L 321.738518 275.079969 
L 322.041862 274.129057 
L 322.193534 274.365023 
L 322.345206 274.318065 
L 322.496878 273.919529 
L 322.800222 273.666506 
L 323.103566 273.452068 
L 323.40691 273.823163 
L 323.861926 272.633169 
L 324.013598 272.532195 
L 324.316941 273.064733 
L 324.468613 272.805982 
L 324.620285 273.12474 
L 324.771957 273.121708 
L 324.923629 272.596424 
L 325.075301 272.516363 
L 325.226973 272.219846 
L 325.378645 272.388873 
L 325.530317 272.333007 
L 326.137005 272.853921 
L 326.288677 272.948317 
L 326.592021 273.423896 
L 326.743693 273.445683 
L 326.895365 273.689864 
L 327.198709 273.70593 
L 327.350381 273.539632 
L 327.653725 273.967043 
L 327.805397 273.979941 
L 327.957069 274.499503 
L 328.260413 274.147577 
L 328.412085 274.01237 
L 328.563757 274.228642 
L 328.867101 273.353071 
L 329.018773 273.172549 
L 329.625461 274.112123 
L 329.777133 274.57309 
L 329.928805 274.672529 
L 330.080477 275.09337 
L 330.232149 274.950547 
L 330.383821 274.528851 
L 330.535493 274.850792 
L 330.990509 274.826951 
L 331.142181 274.711263 
L 331.445525 274.944068 
L 331.597197 274.605819 
L 332.052213 275.001932 
L 332.355556 274.769108 
L 332.507228 274.814023 
L 332.810572 274.364069 
L 333.113916 274.573926 
L 333.568932 273.363973 
L 333.720604 273.688805 
L 333.872276 273.573009 
L 334.023948 273.841877 
L 334.17562 273.882414 
L 334.478964 273.424198 
L 334.630636 273.539794 
L 335.237324 273.205989 
L 335.69234 273.535806 
L 335.844012 273.270044 
L 335.995684 273.304046 
L 336.299028 272.841653 
L 336.602372 273.303301 
L 336.905716 273.209381 
L 337.057388 273.491059 
L 337.664076 273.463267 
L 337.815748 273.836968 
L 338.270764 273.839064 
L 338.422436 274.060944 
L 338.72578 273.737691 
L 338.877452 273.766248 
L 339.029124 273.448813 
L 339.48414 273.330844 
L 339.787484 273.508874 
L 340.090828 272.937137 
L 340.2425 273.005244 
L 340.697515 271.914255 
L 341.000859 272.313175 
L 341.304203 272.738324 
L 341.455875 272.614832 
L 341.607547 272.731873 
L 341.759219 272.621609 
L 341.910891 272.979543 
L 342.062563 272.883045 
L 342.365907 273.113505 
L 342.669251 273.064274 
L 342.820923 273.210444 
L 343.427611 272.457673 
L 343.579283 272.58536 
L 343.730955 272.500002 
L 343.882627 272.552576 
L 344.034299 272.294175 
L 344.185971 272.360618 
L 344.337643 272.238934 
L 344.489315 272.506795 
L 344.640987 272.404934 
L 344.792659 272.460938 
L 344.944331 272.267767 
L 345.247675 272.698039 
L 345.399347 272.805235 
L 345.551019 272.76864 
L 346.006035 273.147318 
L 346.157707 272.268996 
L 346.461051 272.470294 
L 346.764395 272.428006 
L 347.067739 272.819929 
L 347.371083 272.393967 
L 347.826099 272.430625 
L 347.977771 272.481171 
L 348.129443 272.162485 
L 348.281115 272.230372 
L 348.887802 271.76669 
L 349.342818 272.411384 
L 349.646162 272.309536 
L 349.949506 272.650562 
L 350.25285 272.500821 
L 350.404522 272.400219 
L 350.556194 272.81304 
L 350.707866 272.514297 
L 350.859538 272.841423 
L 351.01121 272.63236 
L 351.617898 273.178017 
L 351.76957 273.488122 
L 351.921242 273.383592 
L 352.376258 273.660357 
L 352.52793 273.621602 
L 352.982946 274.272381 
L 353.28629 274.127602 
L 353.437962 274.303151 
L 353.741306 274.000328 
L 353.892978 273.463531 
L 354.04465 273.384789 
L 354.347994 273.618631 
L 354.499666 273.764649 
L 354.651338 273.297053 
L 355.106354 273.466799 
L 355.409698 273.637406 
L 355.713042 273.26747 
L 355.864714 273.477593 
L 356.016386 273.360423 
L 356.168058 273.662779 
L 356.31973 273.692292 
L 356.774745 273.43643 
L 357.078089 273.75718 
L 357.229761 273.560951 
L 357.381433 273.601939 
L 357.533105 273.862351 
L 357.684777 273.664798 
L 357.836449 273.787461 
L 358.139793 273.489183 
L 358.291465 273.516861 
L 358.443137 273.364975 
L 358.594809 273.373434 
L 358.746481 273.095935 
L 358.898153 273.203599 
L 359.353169 273.019691 
L 359.504841 273.1535 
L 359.656513 273.046858 
L 359.808185 273.165471 
L 360.414873 272.849131 
L 360.566545 272.938321 
L 360.869889 272.842953 
L 361.021561 273.064401 
L 361.173233 272.753694 
L 361.324905 272.822714 
L 361.476577 273.089076 
L 361.931593 272.892047 
L 362.083265 273.128775 
L 362.993297 272.814291 
L 363.296641 273.183649 
L 364.358345 273.654242 
L 364.813361 273.534685 
L 364.965032 273.557623 
L 365.116704 273.293397 
L 365.268376 273.436913 
L 365.875064 272.914024 
L 366.33008 273.480319 
L 366.481752 273.236769 
L 366.633424 273.381482 
L 367.08844 272.888192 
L 367.543456 273.119873 
L 367.8468 273.035556 
L 367.998472 272.929709 
L 368.301816 273.23256 
L 368.453488 273.148904 
L 368.60516 273.247462 
L 368.908504 273.567709 
L 369.060176 273.406619 
L 369.211848 273.524157 
L 369.36352 273.408487 
L 369.515192 273.578238 
L 369.818536 273.615156 
L 370.12188 273.779039 
L 370.576896 273.544493 
L 370.88024 273.70046 
L 371.183584 273.725525 
L 371.335256 274.01694 
L 371.6386 273.959561 
L 371.790272 274.094751 
L 371.941944 273.81252 
L 372.245288 273.756365 
L 372.548632 273.5329 
L 372.700304 273.650141 
L 373.306991 273.481463 
L 373.458663 273.576248 
L 373.762007 273.450008 
L 374.065351 273.421295 
L 374.217023 273.360639 
L 374.672039 273.835639 
L 374.975383 273.695098 
L 375.278727 273.900463 
L 375.885415 273.880155 
L 376.037087 273.75652 
L 376.188759 273.86241 
L 376.643775 273.752015 
L 376.795447 273.574921 
L 376.947119 273.727263 
L 377.098791 273.546307 
L 377.402135 273.905179 
L 377.553807 273.803316 
L 378.008823 274.06053 
L 378.160495 273.807043 
L 378.312167 273.785832 
L 378.615511 273.981781 
L 379.222199 273.982558 
L 379.677215 273.434555 
L 379.828887 273.588763 
L 379.980559 273.441626 
L 380.132231 273.609223 
L 380.435575 273.575435 
L 380.587247 273.574147 
L 380.890591 273.374386 
L 381.193935 273.284643 
L 381.345606 273.41909 
L 381.497278 273.382085 
L 381.64895 273.493538 
L 381.952294 273.474233 
L 382.103966 273.432265 
L 382.255638 273.011108 
L 382.40731 273.074622 
L 382.862326 272.936318 
L 383.317342 273.450443 
L 383.620686 273.434296 
L 383.772358 273.507222 
L 384.075702 273.18207 
L 384.530718 273.382933 
L 385.895766 273.97068 
L 386.502454 273.432045 
L 386.654126 273.56987 
L 386.805798 273.447016 
L 387.412486 273.744517 
L 387.564158 273.504742 
L 388.019174 273.650072 
L 388.170846 273.563088 
L 388.47419 273.810319 
L 389.080878 273.673265 
L 389.23255 273.927257 
L 389.384222 273.715634 
L 390.142581 273.693316 
L 390.445925 273.485427 
L 390.597597 273.480242 
L 390.900941 273.281768 
L 391.204285 273.193659 
L 391.507629 273.136503 
L 391.659301 273.192703 
L 392.721005 272.771775 
L 392.872677 272.828964 
L 393.327693 272.501667 
L 393.479365 272.543915 
L 393.631037 272.435614 
L 393.782709 272.504365 
L 394.086053 272.252746 
L 394.389397 272.119843 
L 394.692741 272.18029 
L 394.844413 272.375878 
L 394.996085 272.207303 
L 395.451101 272.612353 
L 395.754445 272.44289 
L 396.209461 272.516484 
L 396.361133 272.430841 
L 396.816149 272.636528 
L 397.422837 272.673956 
L 397.72618 272.719553 
L 398.029524 273.008899 
L 398.332868 273.112261 
L 398.48454 272.896895 
L 398.636212 272.937611 
L 398.787884 272.740685 
L 399.394572 273.01579 
L 399.697916 272.855867 
L 400.304604 272.771457 
L 400.607948 272.838419 
L 400.911292 272.67734 
L 401.062964 272.740166 
L 401.366308 272.522258 
L 402.124668 272.773956 
L 402.27634 272.675577 
L 402.579684 272.734999 
L 403.338044 272.275938 
L 403.641388 271.943927 
L 403.944732 271.900753 
L 404.096404 271.957737 
L 404.55142 271.784344 
L 405.006436 272.037511 
L 405.158108 272.082327 
L 405.613124 271.902246 
L 406.068139 271.956175 
L 406.371483 272.011944 
L 406.826499 272.150487 
L 406.978171 271.944815 
L 407.281515 272.195347 
L 408.039875 271.873935 
L 408.191547 271.880337 
L 408.343219 271.713433 
L 408.646563 271.852898 
L 408.949907 271.447074 
L 409.404923 271.676057 
L 409.708267 271.805286 
L 410.011611 271.786893 
L 410.163283 271.729777 
L 410.314955 271.464324 
L 410.466627 271.546432 
L 410.769971 271.495317 
L 411.073315 271.325909 
L 411.831675 270.598237 
L 411.983347 270.256137 
L 412.286691 270.435851 
L 412.741707 270.377644 
L 413.045051 270.48089 
L 413.196723 270.63098 
L 413.803411 270.49453 
L 413.955083 270.238607 
L 414.258426 270.369909 
L 414.410098 270.406089 
L 414.713442 270.048329 
L 415.016786 270.1345 
L 415.32013 270.411546 
L 415.623474 270.667822 
L 415.775146 270.496558 
L 416.381834 270.580581 
L 416.83685 270.473156 
L 417.140194 270.328762 
L 417.291866 270.291419 
L 417.59521 270.483093 
L 417.746882 270.497798 
L 418.050226 270.322931 
L 418.201898 270.409621 
L 418.505242 270.137581 
L 419.263602 270.247525 
L 419.87029 270.187963 
L 420.173634 270.045566 
L 420.476978 269.924658 
L 420.780322 269.816519 
L 420.931994 269.813848 
L 421.083666 269.955402 
L 421.235338 269.914662 
L 421.38701 269.617111 
L 421.993698 269.758898 
L 422.14537 269.857539 
L 422.448713 269.708437 
L 423.207073 270.319706 
L 423.510417 270.346919 
L 423.662089 270.414462 
L 424.117105 270.18684 
L 424.420449 270.263223 
L 424.572121 270.092968 
L 424.875465 270.166369 
L 425.027137 270.039375 
L 425.330481 270.318847 
L 425.633825 270.375626 
L 426.240513 270.183285 
L 426.998873 269.797873 
L 427.302217 269.965412 
L 427.605561 269.860928 
L 427.908905 269.963845 
L 428.515593 270.048289 
L 428.818937 269.917769 
L 428.970609 270.043281 
L 429.273953 269.800037 
L 430.032313 269.603508 
L 430.183985 269.68251 
L 430.183985 269.68251 
" style="fill:none;stroke:#1f77b4;stroke-linecap:square;stroke-width:1.5;"/>
   </g>
   <g id="patch_13">
    <path d="M 271.08766 317.952 
L 271.08766 188.928 
" style="fill:none;stroke:#000000;stroke-linecap:square;stroke-linejoin:miter;stroke-width:0.8;"/>
   </g>
   <g id="patch_14">
    <path d="M 437.76 317.952 
L 437.76 188.928 
" style="fill:none;stroke:#000000;stroke-linecap:square;stroke-linejoin:miter;stroke-width:0.8;"/>
   </g>
   <g id="patch_15">
    <path d="M 271.08766 317.952 
L 437.76 317.952 
" style="fill:none;stroke:#000000;stroke-linecap:square;stroke-linejoin:miter;stroke-width:0.8;"/>
   </g>
   <g id="patch_16">
    <path d="M 271.08766 188.928 
L 437.76 188.928 
" style="fill:none;stroke:#000000;stroke-linecap:square;stroke-linejoin:miter;stroke-width:0.8;"/>
   </g>
   <g id="text_38">
    <!-- Número promedio de clientes en cola C2 -->
    <g transform="translate(231.777267 182.928)scale(0.12 -0.12)">
     <use xlink:href="#DejaVuSans-78"/>
     <use x="74.804688" xlink:href="#DejaVuSans-250"/>
     <use x="138.183594" xlink:href="#DejaVuSans-109"/>
     <use x="235.595703" xlink:href="#DejaVuSans-101"/>
     <use x="297.119141" xlink:href="#DejaVuSans-114"/>
     <use x="338.201172" xlink:href="#DejaVuSans-111"/>
     <use x="399.382812" xlink:href="#DejaVuSans-32"/>
     <use x="431.169922" xlink:href="#DejaVuSans-112"/>
     <use x="494.646484" xlink:href="#DejaVuSans-114"/>
     <use x="535.728516" xlink:href="#DejaVuSans-111"/>
     <use x="596.910156" xlink:href="#DejaVuSans-109"/>
     <use x="694.322266" xlink:href="#DejaVuSans-101"/>
     <use x="755.845703" xlink:href="#DejaVuSans-100"/>
     <use x="819.322266" xlink:href="#DejaVuSans-105"/>
     <use x="847.105469" xlink:href="#DejaVuSans-111"/>
     <use x="908.287109" xlink:href="#DejaVuSans-32"/>
     <use x="940.074219" xlink:href="#DejaVuSans-100"/>
     <use x="1003.550781" xlink:href="#DejaVuSans-101"/>
     <use x="1065.074219" xlink:href="#DejaVuSans-32"/>
     <use x="1096.861328" xlink:href="#DejaVuSans-99"/>
     <use x="1151.841797" xlink:href="#DejaVuSans-108"/>
     <use x="1179.625" xlink:href="#DejaVuSans-105"/>
     <use x="1207.408203" xlink:href="#DejaVuSans-101"/>
     <use x="1268.931641" xlink:href="#DejaVuSans-110"/>
     <use x="1332.310547" xlink:href="#DejaVuSans-116"/>
     <use x="1371.519531" xlink:href="#DejaVuSans-101"/>
     <use x="1433.042969" xlink:href="#DejaVuSans-115"/>
     <use x="1485.142578" xlink:href="#DejaVuSans-32"/>
     <use x="1516.929688" xlink:href="#DejaVuSans-101"/>
     <use x="1578.453125" xlink:href="#DejaVuSans-110"/>
     <use x="1641.832031" xlink:href="#DejaVuSans-32"/>
     <use x="1673.619141" xlink:href="#DejaVuSans-99"/>
     <use x="1728.599609" xlink:href="#DejaVuSans-111"/>
     <use x="1789.78125" xlink:href="#DejaVuSans-108"/>
     <use x="1817.564453" xlink:href="#DejaVuSans-97"/>
     <use x="1878.84375" xlink:href="#DejaVuSans-32"/>
     <use x="1910.630859" xlink:href="#DejaVuSans-67"/>
     <use x="1980.455078" xlink:href="#DejaVuSans-50"/>
    </g>
   </g>
  </g>
 </g>
 <defs>
  <clipPath id="p915b341169">
   <rect height="129.024" width="391.68" x="46.08" y="27.648"/>
  </clipPath>
  <clipPath id="p2e86fabec7">
   <rect height="129.024" width="166.67234" x="46.08" y="188.928"/>
  </clipPath>
  <clipPath id="p950cc9c575">
   <rect height="129.024" width="166.67234" x="271.08766" y="188.928"/>
  </clipPath>
 </defs>
</svg>
