<?xml version="1.0" encoding="utf-8" standalone="no"?>
<!DOCTYPE svg PUBLIC "-//W3C//DTD SVG 1.1//EN"
  "http://www.w3.org/Graphics/SVG/1.1/DTD/svg11.dtd">
<!-- Created with matplotlib (https://matplotlib.org/) -->
<svg height="345.6pt" version="1.1" viewBox="0 0 460.8 345.6" width="460.8pt" xmlns="http://www.w3.org/2000/svg" xmlns:xlink="http://www.w3.org/1999/xlink">
 <defs>
  <style type="text/css">
*{stroke-linecap:butt;stroke-linejoin:round;}
  </style>
 </defs>
 <g id="figure_1">
  <g id="patch_1">
   <path d="M 0 345.6 
L 460.8 345.6 
L 460.8 0 
L 0 0 
z
" style="fill:#ffffff;"/>
  </g>
  <g id="axes_1">
   <g id="patch_2">
    <path d="M 46.08 156.672 
L 437.76 156.672 
L 437.76 27.648 
L 46.08 27.648 
z
" style="fill:#ffffff;"/>
   </g>
   <g id="matplotlib.axis_1">
    <g id="xtick_1">
     <g id="line2d_1">
      <path clip-path="url(#p31decb6a64)" d="M 63.527207 156.672 
L 63.527207 27.648 
" style="fill:none;stroke:#b0b0b0;stroke-linecap:square;stroke-width:0.8;"/>
     </g>
     <g id="line2d_2">
      <defs>
       <path d="M 0 0 
L 0 3.5 
" id="m578ec028f2" style="stroke:#000000;stroke-width:0.8;"/>
      </defs>
      <g>
       <use style="stroke:#000000;stroke-width:0.8;" x="63.527207" xlink:href="#m578ec028f2" y="156.672"/>
      </g>
     </g>
     <g id="text_1">
      <!-- 0 -->
      <defs>
       <path d="M 31.78125 66.40625 
Q 24.171875 66.40625 20.328125 58.90625 
Q 16.5 51.421875 16.5 36.375 
Q 16.5 21.390625 20.328125 13.890625 
Q 24.171875 6.390625 31.78125 6.390625 
Q 39.453125 6.390625 43.28125 13.890625 
Q 47.125 21.390625 47.125 36.375 
Q 47.125 51.421875 43.28125 58.90625 
Q 39.453125 66.40625 31.78125 66.40625 
z
M 31.78125 74.21875 
Q 44.046875 74.21875 50.515625 64.515625 
Q 56.984375 54.828125 56.984375 36.375 
Q 56.984375 17.96875 50.515625 8.265625 
Q 44.046875 -1.421875 31.78125 -1.421875 
Q 19.53125 -1.421875 13.0625 8.265625 
Q 6.59375 17.96875 6.59375 36.375 
Q 6.59375 54.828125 13.0625 64.515625 
Q 19.53125 74.21875 31.78125 74.21875 
z
" id="DejaVuSans-48"/>
      </defs>
      <g transform="translate(60.345957 171.270437)scale(0.1 -0.1)">
       <use xlink:href="#DejaVuSans-48"/>
      </g>
     </g>
    </g>
    <g id="xtick_2">
     <g id="line2d_3">
      <path clip-path="url(#p31decb6a64)" d="M 134.813038 156.672 
L 134.813038 27.648 
" style="fill:none;stroke:#b0b0b0;stroke-linecap:square;stroke-width:0.8;"/>
     </g>
     <g id="line2d_4">
      <g>
       <use style="stroke:#000000;stroke-width:0.8;" x="134.813038" xlink:href="#m578ec028f2" y="156.672"/>
      </g>
     </g>
     <g id="text_2">
      <!-- 200 -->
      <defs>
       <path d="M 19.1875 8.296875 
L 53.609375 8.296875 
L 53.609375 0 
L 7.328125 0 
L 7.328125 8.296875 
Q 12.9375 14.109375 22.625 23.890625 
Q 32.328125 33.6875 34.8125 36.53125 
Q 39.546875 41.84375 41.421875 45.53125 
Q 43.3125 49.21875 43.3125 52.78125 
Q 43.3125 58.59375 39.234375 62.25 
Q 35.15625 65.921875 28.609375 65.921875 
Q 23.96875 65.921875 18.8125 64.3125 
Q 13.671875 62.703125 7.8125 59.421875 
L 7.8125 69.390625 
Q 13.765625 71.78125 18.9375 73 
Q 24.125 74.21875 28.421875 74.21875 
Q 39.75 74.21875 46.484375 68.546875 
Q 53.21875 62.890625 53.21875 53.421875 
Q 53.21875 48.921875 51.53125 44.890625 
Q 49.859375 40.875 45.40625 35.40625 
Q 44.1875 33.984375 37.640625 27.21875 
Q 31.109375 20.453125 19.1875 8.296875 
z
" id="DejaVuSans-50"/>
      </defs>
      <g transform="translate(125.269288 171.270437)scale(0.1 -0.1)">
       <use xlink:href="#DejaVuSans-50"/>
       <use x="63.623047" xlink:href="#DejaVuSans-48"/>
       <use x="127.246094" xlink:href="#DejaVuSans-48"/>
      </g>
     </g>
    </g>
    <g id="xtick_3">
     <g id="line2d_5">
      <path clip-path="url(#p31decb6a64)" d="M 206.09887 156.672 
L 206.09887 27.648 
" style="fill:none;stroke:#b0b0b0;stroke-linecap:square;stroke-width:0.8;"/>
     </g>
     <g id="line2d_6">
      <g>
       <use style="stroke:#000000;stroke-width:0.8;" x="206.09887" xlink:href="#m578ec028f2" y="156.672"/>
      </g>
     </g>
     <g id="text_3">
      <!-- 400 -->
      <defs>
       <path d="M 37.796875 64.3125 
L 12.890625 25.390625 
L 37.796875 25.390625 
z
M 35.203125 72.90625 
L 47.609375 72.90625 
L 47.609375 25.390625 
L 58.015625 25.390625 
L 58.015625 17.1875 
L 47.609375 17.1875 
L 47.609375 0 
L 37.796875 0 
L 37.796875 17.1875 
L 4.890625 17.1875 
L 4.890625 26.703125 
z
" id="DejaVuSans-52"/>
      </defs>
      <g transform="translate(196.55512 171.270437)scale(0.1 -0.1)">
       <use xlink:href="#DejaVuSans-52"/>
       <use x="63.623047" xlink:href="#DejaVuSans-48"/>
       <use x="127.246094" xlink:href="#DejaVuSans-48"/>
      </g>
     </g>
    </g>
    <g id="xtick_4">
     <g id="line2d_7">
      <path clip-path="url(#p31decb6a64)" d="M 277.384701 156.672 
L 277.384701 27.648 
" style="fill:none;stroke:#b0b0b0;stroke-linecap:square;stroke-width:0.8;"/>
     </g>
     <g id="line2d_8">
      <g>
       <use style="stroke:#000000;stroke-width:0.8;" x="277.384701" xlink:href="#m578ec028f2" y="156.672"/>
      </g>
     </g>
     <g id="text_4">
      <!-- 600 -->
      <defs>
       <path d="M 33.015625 40.375 
Q 26.375 40.375 22.484375 35.828125 
Q 18.609375 31.296875 18.609375 23.390625 
Q 18.609375 15.53125 22.484375 10.953125 
Q 26.375 6.390625 33.015625 6.390625 
Q 39.65625 6.390625 43.53125 10.953125 
Q 47.40625 15.53125 47.40625 23.390625 
Q 47.40625 31.296875 43.53125 35.828125 
Q 39.65625 40.375 33.015625 40.375 
z
M 52.59375 71.296875 
L 52.59375 62.3125 
Q 48.875 64.0625 45.09375 64.984375 
Q 41.3125 65.921875 37.59375 65.921875 
Q 27.828125 65.921875 22.671875 59.328125 
Q 17.53125 52.734375 16.796875 39.40625 
Q 19.671875 43.65625 24.015625 45.921875 
Q 28.375 48.1875 33.59375 48.1875 
Q 44.578125 48.1875 50.953125 41.515625 
Q 57.328125 34.859375 57.328125 23.390625 
Q 57.328125 12.15625 50.6875 5.359375 
Q 44.046875 -1.421875 33.015625 -1.421875 
Q 20.359375 -1.421875 13.671875 8.265625 
Q 6.984375 17.96875 6.984375 36.375 
Q 6.984375 53.65625 15.1875 63.9375 
Q 23.390625 74.21875 37.203125 74.21875 
Q 40.921875 74.21875 44.703125 73.484375 
Q 48.484375 72.75 52.59375 71.296875 
z
" id="DejaVuSans-54"/>
      </defs>
      <g transform="translate(267.840951 171.270437)scale(0.1 -0.1)">
       <use xlink:href="#DejaVuSans-54"/>
       <use x="63.623047" xlink:href="#DejaVuSans-48"/>
       <use x="127.246094" xlink:href="#DejaVuSans-48"/>
      </g>
     </g>
    </g>
    <g id="xtick_5">
     <g id="line2d_9">
      <path clip-path="url(#p31decb6a64)" d="M 348.670532 156.672 
L 348.670532 27.648 
" style="fill:none;stroke:#b0b0b0;stroke-linecap:square;stroke-width:0.8;"/>
     </g>
     <g id="line2d_10">
      <g>
       <use style="stroke:#000000;stroke-width:0.8;" x="348.670532" xlink:href="#m578ec028f2" y="156.672"/>
      </g>
     </g>
     <g id="text_5">
      <!-- 800 -->
      <defs>
       <path d="M 31.78125 34.625 
Q 24.75 34.625 20.71875 30.859375 
Q 16.703125 27.09375 16.703125 20.515625 
Q 16.703125 13.921875 20.71875 10.15625 
Q 24.75 6.390625 31.78125 6.390625 
Q 38.8125 6.390625 42.859375 10.171875 
Q 46.921875 13.96875 46.921875 20.515625 
Q 46.921875 27.09375 42.890625 30.859375 
Q 38.875 34.625 31.78125 34.625 
z
M 21.921875 38.8125 
Q 15.578125 40.375 12.03125 44.71875 
Q 8.5 49.078125 8.5 55.328125 
Q 8.5 64.0625 14.71875 69.140625 
Q 20.953125 74.21875 31.78125 74.21875 
Q 42.671875 74.21875 48.875 69.140625 
Q 55.078125 64.0625 55.078125 55.328125 
Q 55.078125 49.078125 51.53125 44.71875 
Q 48 40.375 41.703125 38.8125 
Q 48.828125 37.15625 52.796875 32.3125 
Q 56.78125 27.484375 56.78125 20.515625 
Q 56.78125 9.90625 50.3125 4.234375 
Q 43.84375 -1.421875 31.78125 -1.421875 
Q 19.734375 -1.421875 13.25 4.234375 
Q 6.78125 9.90625 6.78125 20.515625 
Q 6.78125 27.484375 10.78125 32.3125 
Q 14.796875 37.15625 21.921875 38.8125 
z
M 18.3125 54.390625 
Q 18.3125 48.734375 21.84375 45.5625 
Q 25.390625 42.390625 31.78125 42.390625 
Q 38.140625 42.390625 41.71875 45.5625 
Q 45.3125 48.734375 45.3125 54.390625 
Q 45.3125 60.0625 41.71875 63.234375 
Q 38.140625 66.40625 31.78125 66.40625 
Q 25.390625 66.40625 21.84375 63.234375 
Q 18.3125 60.0625 18.3125 54.390625 
z
" id="DejaVuSans-56"/>
      </defs>
      <g transform="translate(339.126782 171.270437)scale(0.1 -0.1)">
       <use xlink:href="#DejaVuSans-56"/>
       <use x="63.623047" xlink:href="#DejaVuSans-48"/>
       <use x="127.246094" xlink:href="#DejaVuSans-48"/>
      </g>
     </g>
    </g>
    <g id="xtick_6">
     <g id="line2d_11">
      <path clip-path="url(#p31decb6a64)" d="M 419.956364 156.672 
L 419.956364 27.648 
" style="fill:none;stroke:#b0b0b0;stroke-linecap:square;stroke-width:0.8;"/>
     </g>
     <g id="line2d_12">
      <g>
       <use style="stroke:#000000;stroke-width:0.8;" x="419.956364" xlink:href="#m578ec028f2" y="156.672"/>
      </g>
     </g>
     <g id="text_6">
      <!-- 1000 -->
      <defs>
       <path d="M 12.40625 8.296875 
L 28.515625 8.296875 
L 28.515625 63.921875 
L 10.984375 60.40625 
L 10.984375 69.390625 
L 28.421875 72.90625 
L 38.28125 72.90625 
L 38.28125 8.296875 
L 54.390625 8.296875 
L 54.390625 0 
L 12.40625 0 
z
" id="DejaVuSans-49"/>
      </defs>
      <g transform="translate(407.231364 171.270437)scale(0.1 -0.1)">
       <use xlink:href="#DejaVuSans-49"/>
       <use x="63.623047" xlink:href="#DejaVuSans-48"/>
       <use x="127.246094" xlink:href="#DejaVuSans-48"/>
       <use x="190.869141" xlink:href="#DejaVuSans-48"/>
      </g>
     </g>
    </g>
    <g id="text_7">
     <!-- Corridas -->
     <defs>
      <path d="M 64.40625 67.28125 
L 64.40625 56.890625 
Q 59.421875 61.53125 53.78125 63.8125 
Q 48.140625 66.109375 41.796875 66.109375 
Q 29.296875 66.109375 22.65625 58.46875 
Q 16.015625 50.828125 16.015625 36.375 
Q 16.015625 21.96875 22.65625 14.328125 
Q 29.296875 6.6875 41.796875 6.6875 
Q 48.140625 6.6875 53.78125 8.984375 
Q 59.421875 11.28125 64.40625 15.921875 
L 64.40625 5.609375 
Q 59.234375 2.09375 53.4375 0.328125 
Q 47.65625 -1.421875 41.21875 -1.421875 
Q 24.65625 -1.421875 15.125 8.703125 
Q 5.609375 18.84375 5.609375 36.375 
Q 5.609375 53.953125 15.125 64.078125 
Q 24.65625 74.21875 41.21875 74.21875 
Q 47.75 74.21875 53.53125 72.484375 
Q 59.328125 70.75 64.40625 67.28125 
z
" id="DejaVuSans-67"/>
      <path d="M 30.609375 48.390625 
Q 23.390625 48.390625 19.1875 42.75 
Q 14.984375 37.109375 14.984375 27.296875 
Q 14.984375 17.484375 19.15625 11.84375 
Q 23.34375 6.203125 30.609375 6.203125 
Q 37.796875 6.203125 41.984375 11.859375 
Q 46.1875 17.53125 46.1875 27.296875 
Q 46.1875 37.015625 41.984375 42.703125 
Q 37.796875 48.390625 30.609375 48.390625 
z
M 30.609375 56 
Q 42.328125 56 49.015625 48.375 
Q 55.71875 40.765625 55.71875 27.296875 
Q 55.71875 13.875 49.015625 6.21875 
Q 42.328125 -1.421875 30.609375 -1.421875 
Q 18.84375 -1.421875 12.171875 6.21875 
Q 5.515625 13.875 5.515625 27.296875 
Q 5.515625 40.765625 12.171875 48.375 
Q 18.84375 56 30.609375 56 
z
" id="DejaVuSans-111"/>
      <path d="M 41.109375 46.296875 
Q 39.59375 47.171875 37.8125 47.578125 
Q 36.03125 48 33.890625 48 
Q 26.265625 48 22.1875 43.046875 
Q 18.109375 38.09375 18.109375 28.8125 
L 18.109375 0 
L 9.078125 0 
L 9.078125 54.6875 
L 18.109375 54.6875 
L 18.109375 46.1875 
Q 20.953125 51.171875 25.484375 53.578125 
Q 30.03125 56 36.53125 56 
Q 37.453125 56 38.578125 55.875 
Q 39.703125 55.765625 41.0625 55.515625 
z
" id="DejaVuSans-114"/>
      <path d="M 9.421875 54.6875 
L 18.40625 54.6875 
L 18.40625 0 
L 9.421875 0 
z
M 9.421875 75.984375 
L 18.40625 75.984375 
L 18.40625 64.59375 
L 9.421875 64.59375 
z
" id="DejaVuSans-105"/>
      <path d="M 45.40625 46.390625 
L 45.40625 75.984375 
L 54.390625 75.984375 
L 54.390625 0 
L 45.40625 0 
L 45.40625 8.203125 
Q 42.578125 3.328125 38.25 0.953125 
Q 33.9375 -1.421875 27.875 -1.421875 
Q 17.96875 -1.421875 11.734375 6.484375 
Q 5.515625 14.40625 5.515625 27.296875 
Q 5.515625 40.1875 11.734375 48.09375 
Q 17.96875 56 27.875 56 
Q 33.9375 56 38.25 53.625 
Q 42.578125 51.265625 45.40625 46.390625 
z
M 14.796875 27.296875 
Q 14.796875 17.390625 18.875 11.75 
Q 22.953125 6.109375 30.078125 6.109375 
Q 37.203125 6.109375 41.296875 11.75 
Q 45.40625 17.390625 45.40625 27.296875 
Q 45.40625 37.203125 41.296875 42.84375 
Q 37.203125 48.484375 30.078125 48.484375 
Q 22.953125 48.484375 18.875 42.84375 
Q 14.796875 37.203125 14.796875 27.296875 
z
" id="DejaVuSans-100"/>
      <path d="M 34.28125 27.484375 
Q 23.390625 27.484375 19.1875 25 
Q 14.984375 22.515625 14.984375 16.5 
Q 14.984375 11.71875 18.140625 8.90625 
Q 21.296875 6.109375 26.703125 6.109375 
Q 34.1875 6.109375 38.703125 11.40625 
Q 43.21875 16.703125 43.21875 25.484375 
L 43.21875 27.484375 
z
M 52.203125 31.203125 
L 52.203125 0 
L 43.21875 0 
L 43.21875 8.296875 
Q 40.140625 3.328125 35.546875 0.953125 
Q 30.953125 -1.421875 24.3125 -1.421875 
Q 15.921875 -1.421875 10.953125 3.296875 
Q 6 8.015625 6 15.921875 
Q 6 25.140625 12.171875 29.828125 
Q 18.359375 34.515625 30.609375 34.515625 
L 43.21875 34.515625 
L 43.21875 35.40625 
Q 43.21875 41.609375 39.140625 45 
Q 35.0625 48.390625 27.6875 48.390625 
Q 23 48.390625 18.546875 47.265625 
Q 14.109375 46.140625 10.015625 43.890625 
L 10.015625 52.203125 
Q 14.9375 54.109375 19.578125 55.046875 
Q 24.21875 56 28.609375 56 
Q 40.484375 56 46.34375 49.84375 
Q 52.203125 43.703125 52.203125 31.203125 
z
" id="DejaVuSans-97"/>
      <path d="M 44.28125 53.078125 
L 44.28125 44.578125 
Q 40.484375 46.53125 36.375 47.5 
Q 32.28125 48.484375 27.875 48.484375 
Q 21.1875 48.484375 17.84375 46.4375 
Q 14.5 44.390625 14.5 40.28125 
Q 14.5 37.15625 16.890625 35.375 
Q 19.28125 33.59375 26.515625 31.984375 
L 29.59375 31.296875 
Q 39.15625 29.25 43.1875 25.515625 
Q 47.21875 21.78125 47.21875 15.09375 
Q 47.21875 7.46875 41.1875 3.015625 
Q 35.15625 -1.421875 24.609375 -1.421875 
Q 20.21875 -1.421875 15.453125 -0.5625 
Q 10.6875 0.296875 5.421875 2 
L 5.421875 11.28125 
Q 10.40625 8.6875 15.234375 7.390625 
Q 20.0625 6.109375 24.8125 6.109375 
Q 31.15625 6.109375 34.5625 8.28125 
Q 37.984375 10.453125 37.984375 14.40625 
Q 37.984375 18.0625 35.515625 20.015625 
Q 33.0625 21.96875 24.703125 23.78125 
L 21.578125 24.515625 
Q 13.234375 26.265625 9.515625 29.90625 
Q 5.8125 33.546875 5.8125 39.890625 
Q 5.8125 47.609375 11.28125 51.796875 
Q 16.75 56 26.8125 56 
Q 31.78125 56 36.171875 55.265625 
Q 40.578125 54.546875 44.28125 53.078125 
z
" id="DejaVuSans-115"/>
     </defs>
     <g transform="translate(221.027031 184.948562)scale(0.1 -0.1)">
      <use xlink:href="#DejaVuSans-67"/>
      <use x="69.824219" xlink:href="#DejaVuSans-111"/>
      <use x="131.005859" xlink:href="#DejaVuSans-114"/>
      <use x="172.103516" xlink:href="#DejaVuSans-114"/>
      <use x="213.216797" xlink:href="#DejaVuSans-105"/>
      <use x="241" xlink:href="#DejaVuSans-100"/>
      <use x="304.476562" xlink:href="#DejaVuSans-97"/>
      <use x="365.755859" xlink:href="#DejaVuSans-115"/>
     </g>
    </g>
   </g>
   <g id="matplotlib.axis_2">
    <g id="ytick_1">
     <g id="line2d_13">
      <path clip-path="url(#p31decb6a64)" d="M 46.08 134.64464 
L 437.76 134.64464 
" style="fill:none;stroke:#b0b0b0;stroke-linecap:square;stroke-width:0.8;"/>
     </g>
     <g id="line2d_14">
      <defs>
       <path d="M 0 0 
L -3.5 0 
" id="mdd916a774d" style="stroke:#000000;stroke-width:0.8;"/>
      </defs>
      <g>
       <use style="stroke:#000000;stroke-width:0.8;" x="46.08" xlink:href="#mdd916a774d" y="134.64464"/>
      </g>
     </g>
     <g id="text_8">
      <!-- 0.250 -->
      <defs>
       <path d="M 10.6875 12.40625 
L 21 12.40625 
L 21 0 
L 10.6875 0 
z
" id="DejaVuSans-46"/>
       <path d="M 10.796875 72.90625 
L 49.515625 72.90625 
L 49.515625 64.59375 
L 19.828125 64.59375 
L 19.828125 46.734375 
Q 21.96875 47.46875 24.109375 47.828125 
Q 26.265625 48.1875 28.421875 48.1875 
Q 40.625 48.1875 47.75 41.5 
Q 54.890625 34.8125 54.890625 23.390625 
Q 54.890625 11.625 47.5625 5.09375 
Q 40.234375 -1.421875 26.90625 -1.421875 
Q 22.3125 -1.421875 17.546875 -0.640625 
Q 12.796875 0.140625 7.71875 1.703125 
L 7.71875 11.625 
Q 12.109375 9.234375 16.796875 8.0625 
Q 21.484375 6.890625 26.703125 6.890625 
Q 35.15625 6.890625 40.078125 11.328125 
Q 45.015625 15.765625 45.015625 23.390625 
Q 45.015625 31 40.078125 35.4375 
Q 35.15625 39.890625 26.703125 39.890625 
Q 22.75 39.890625 18.8125 39.015625 
Q 14.890625 38.140625 10.796875 36.28125 
z
" id="DejaVuSans-53"/>
      </defs>
      <g transform="translate(10.451875 138.443859)scale(0.1 -0.1)">
       <use xlink:href="#DejaVuSans-48"/>
       <use x="63.623047" xlink:href="#DejaVuSans-46"/>
       <use x="95.410156" xlink:href="#DejaVuSans-50"/>
       <use x="159.033203" xlink:href="#DejaVuSans-53"/>
       <use x="222.65625" xlink:href="#DejaVuSans-48"/>
      </g>
     </g>
    </g>
    <g id="ytick_2">
     <g id="line2d_15">
      <path clip-path="url(#p31decb6a64)" d="M 46.08 101.791704 
L 437.76 101.791704 
" style="fill:none;stroke:#b0b0b0;stroke-linecap:square;stroke-width:0.8;"/>
     </g>
     <g id="line2d_16">
      <g>
       <use style="stroke:#000000;stroke-width:0.8;" x="46.08" xlink:href="#mdd916a774d" y="101.791704"/>
      </g>
     </g>
     <g id="text_9">
      <!-- 0.255 -->
      <g transform="translate(10.451875 105.590923)scale(0.1 -0.1)">
       <use xlink:href="#DejaVuSans-48"/>
       <use x="63.623047" xlink:href="#DejaVuSans-46"/>
       <use x="95.410156" xlink:href="#DejaVuSans-50"/>
       <use x="159.033203" xlink:href="#DejaVuSans-53"/>
       <use x="222.65625" xlink:href="#DejaVuSans-53"/>
      </g>
     </g>
    </g>
    <g id="ytick_3">
     <g id="line2d_17">
      <path clip-path="url(#p31decb6a64)" d="M 46.08 68.938767 
L 437.76 68.938767 
" style="fill:none;stroke:#b0b0b0;stroke-linecap:square;stroke-width:0.8;"/>
     </g>
     <g id="line2d_18">
      <g>
       <use style="stroke:#000000;stroke-width:0.8;" x="46.08" xlink:href="#mdd916a774d" y="68.938767"/>
      </g>
     </g>
     <g id="text_10">
      <!-- 0.260 -->
      <g transform="translate(10.451875 72.737986)scale(0.1 -0.1)">
       <use xlink:href="#DejaVuSans-48"/>
       <use x="63.623047" xlink:href="#DejaVuSans-46"/>
       <use x="95.410156" xlink:href="#DejaVuSans-50"/>
       <use x="159.033203" xlink:href="#DejaVuSans-54"/>
       <use x="222.65625" xlink:href="#DejaVuSans-48"/>
      </g>
     </g>
    </g>
    <g id="ytick_4">
     <g id="line2d_19">
      <path clip-path="url(#p31decb6a64)" d="M 46.08 36.085831 
L 437.76 36.085831 
" style="fill:none;stroke:#b0b0b0;stroke-linecap:square;stroke-width:0.8;"/>
     </g>
     <g id="line2d_20">
      <g>
       <use style="stroke:#000000;stroke-width:0.8;" x="46.08" xlink:href="#mdd916a774d" y="36.085831"/>
      </g>
     </g>
     <g id="text_11">
      <!-- 0.265 -->
      <g transform="translate(10.451875 39.88505)scale(0.1 -0.1)">
       <use xlink:href="#DejaVuSans-48"/>
       <use x="63.623047" xlink:href="#DejaVuSans-46"/>
       <use x="95.410156" xlink:href="#DejaVuSans-50"/>
       <use x="159.033203" xlink:href="#DejaVuSans-54"/>
       <use x="222.65625" xlink:href="#DejaVuSans-53"/>
      </g>
     </g>
    </g>
    <g id="text_12">
     <!-- Utilización -->
     <defs>
      <path d="M 8.6875 72.90625 
L 18.609375 72.90625 
L 18.609375 28.609375 
Q 18.609375 16.890625 22.84375 11.734375 
Q 27.09375 6.59375 36.625 6.59375 
Q 46.09375 6.59375 50.34375 11.734375 
Q 54.59375 16.890625 54.59375 28.609375 
L 54.59375 72.90625 
L 64.5 72.90625 
L 64.5 27.390625 
Q 64.5 13.140625 57.4375 5.859375 
Q 50.390625 -1.421875 36.625 -1.421875 
Q 22.796875 -1.421875 15.734375 5.859375 
Q 8.6875 13.140625 8.6875 27.390625 
z
" id="DejaVuSans-85"/>
      <path d="M 18.3125 70.21875 
L 18.3125 54.6875 
L 36.8125 54.6875 
L 36.8125 47.703125 
L 18.3125 47.703125 
L 18.3125 18.015625 
Q 18.3125 11.328125 20.140625 9.421875 
Q 21.96875 7.515625 27.59375 7.515625 
L 36.8125 7.515625 
L 36.8125 0 
L 27.59375 0 
Q 17.1875 0 13.234375 3.875 
Q 9.28125 7.765625 9.28125 18.015625 
L 9.28125 47.703125 
L 2.6875 47.703125 
L 2.6875 54.6875 
L 9.28125 54.6875 
L 9.28125 70.21875 
z
" id="DejaVuSans-116"/>
      <path d="M 9.421875 75.984375 
L 18.40625 75.984375 
L 18.40625 0 
L 9.421875 0 
z
" id="DejaVuSans-108"/>
      <path d="M 5.515625 54.6875 
L 48.1875 54.6875 
L 48.1875 46.484375 
L 14.40625 7.171875 
L 48.1875 7.171875 
L 48.1875 0 
L 4.296875 0 
L 4.296875 8.203125 
L 38.09375 47.515625 
L 5.515625 47.515625 
z
" id="DejaVuSans-122"/>
      <path d="M 48.78125 52.59375 
L 48.78125 44.1875 
Q 44.96875 46.296875 41.140625 47.34375 
Q 37.3125 48.390625 33.40625 48.390625 
Q 24.65625 48.390625 19.8125 42.84375 
Q 14.984375 37.3125 14.984375 27.296875 
Q 14.984375 17.28125 19.8125 11.734375 
Q 24.65625 6.203125 33.40625 6.203125 
Q 37.3125 6.203125 41.140625 7.25 
Q 44.96875 8.296875 48.78125 10.40625 
L 48.78125 2.09375 
Q 45.015625 0.34375 40.984375 -0.53125 
Q 36.96875 -1.421875 32.421875 -1.421875 
Q 20.0625 -1.421875 12.78125 6.34375 
Q 5.515625 14.109375 5.515625 27.296875 
Q 5.515625 40.671875 12.859375 48.328125 
Q 20.21875 56 33.015625 56 
Q 37.15625 56 41.109375 55.140625 
Q 45.0625 54.296875 48.78125 52.59375 
z
" id="DejaVuSans-99"/>
      <path d="M 30.609375 48.390625 
Q 23.390625 48.390625 19.1875 42.75 
Q 14.984375 37.109375 14.984375 27.296875 
Q 14.984375 17.484375 19.15625 11.84375 
Q 23.34375 6.203125 30.609375 6.203125 
Q 37.796875 6.203125 41.984375 11.859375 
Q 46.1875 17.53125 46.1875 27.296875 
Q 46.1875 37.015625 41.984375 42.703125 
Q 37.796875 48.390625 30.609375 48.390625 
z
M 30.609375 56 
Q 42.328125 56 49.015625 48.375 
Q 55.71875 40.765625 55.71875 27.296875 
Q 55.71875 13.875 49.015625 6.21875 
Q 42.328125 -1.421875 30.609375 -1.421875 
Q 18.84375 -1.421875 12.171875 6.21875 
Q 5.515625 13.875 5.515625 27.296875 
Q 5.515625 40.765625 12.171875 48.375 
Q 18.84375 56 30.609375 56 
z
M 37.40625 79.984375 
L 47.125 79.984375 
L 31.21875 61.625 
L 23.734375 61.625 
z
" id="DejaVuSans-243"/>
      <path d="M 54.890625 33.015625 
L 54.890625 0 
L 45.90625 0 
L 45.90625 32.71875 
Q 45.90625 40.484375 42.875 44.328125 
Q 39.84375 48.1875 33.796875 48.1875 
Q 26.515625 48.1875 22.3125 43.546875 
Q 18.109375 38.921875 18.109375 30.90625 
L 18.109375 0 
L 9.078125 0 
L 9.078125 54.6875 
L 18.109375 54.6875 
L 18.109375 46.1875 
Q 21.34375 51.125 25.703125 53.5625 
Q 30.078125 56 35.796875 56 
Q 45.21875 56 50.046875 50.171875 
Q 54.890625 44.34375 54.890625 33.015625 
z
" id="DejaVuSans-110"/>
     </defs>
     <g transform="translate(4.372188 118.001406)rotate(-90)scale(0.1 -0.1)">
      <use xlink:href="#DejaVuSans-85"/>
      <use x="73.193359" xlink:href="#DejaVuSans-116"/>
      <use x="112.402344" xlink:href="#DejaVuSans-105"/>
      <use x="140.185547" xlink:href="#DejaVuSans-108"/>
      <use x="167.96875" xlink:href="#DejaVuSans-105"/>
      <use x="195.751953" xlink:href="#DejaVuSans-122"/>
      <use x="248.242188" xlink:href="#DejaVuSans-97"/>
      <use x="309.521484" xlink:href="#DejaVuSans-99"/>
      <use x="364.501953" xlink:href="#DejaVuSans-105"/>
      <use x="392.285156" xlink:href="#DejaVuSans-243"/>
      <use x="453.466797" xlink:href="#DejaVuSans-110"/>
     </g>
    </g>
   </g>
   <g id="line2d_21">
    <path clip-path="url(#p31decb6a64)" d="M 63.883636 43.590359 
L 64.240066 33.512727 
L 64.596495 115.229328 
L 64.952924 131.353253 
L 65.309353 100.481264 
L 65.665782 105.718269 
L 66.022211 113.267131 
L 66.37864 131.402901 
L 66.73507 134.451414 
L 67.091499 143.63072 
L 67.804357 135.344023 
L 68.160786 140.399424 
L 68.517215 139.022608 
L 68.873645 134.188012 
L 69.230074 122.825294 
L 69.586503 123.213949 
L 70.299361 134.508293 
L 70.65579 140.702131 
L 71.012219 143.978694 
L 71.725078 137.591568 
L 72.081507 141.462635 
L 72.437936 148.358702 
L 73.150794 150.807273 
L 73.507224 149.560215 
L 73.863653 148.799659 
L 74.576511 140.217583 
L 74.93294 137.115246 
L 75.289369 135.098944 
L 75.645799 134.112863 
L 76.002228 133.910743 
L 76.358657 130.081068 
L 76.715086 134.262311 
L 77.071515 135.84305 
L 77.427944 135.401271 
L 77.784373 135.383584 
L 78.140803 133.816454 
L 78.497232 134.758289 
L 78.853661 134.131331 
L 79.21009 134.573109 
L 79.566519 133.358312 
L 79.922948 132.685254 
L 80.279378 130.788282 
L 80.635807 130.271673 
L 80.992236 130.80137 
L 81.348665 134.335271 
L 81.705094 133.355081 
L 82.417952 128.176146 
L 82.774382 128.978626 
L 83.130811 128.97069 
L 83.48724 125.705482 
L 84.200098 130.982667 
L 84.556527 129.710124 
L 84.912957 129.479937 
L 85.269386 131.73235 
L 85.625815 129.748565 
L 85.982244 129.408364 
L 86.338673 128.009339 
L 86.695102 128.647305 
L 87.051532 131.961486 
L 87.76439 129.369235 
L 88.120819 130.856828 
L 88.477248 133.058907 
L 88.833677 133.505655 
L 89.190106 135.37184 
L 89.902965 134.46981 
L 90.259394 135.64024 
L 90.972252 136.155829 
L 91.685111 139.160652 
L 92.04154 139.594799 
L 92.754398 138.452959 
L 93.467256 136.472297 
L 94.180115 135.754873 
L 94.536544 137.429148 
L 94.892973 136.528866 
L 95.249402 134.107976 
L 95.605831 132.471621 
L 95.96226 133.642572 
L 96.31869 133.413494 
L 96.675119 135.370481 
L 97.031548 134.626016 
L 97.387977 134.880865 
L 97.744406 135.663332 
L 98.100835 134.32978 
L 98.457265 133.6813 
L 98.813694 132.285653 
L 99.170123 132.215677 
L 99.526552 130.541373 
L 99.882981 131.637491 
L 100.23941 131.484917 
L 100.595839 130.724693 
L 100.952269 132.291594 
L 101.308698 132.300962 
L 101.665127 132.625112 
L 102.021556 132.161428 
L 102.377985 133.995802 
L 103.090844 135.747631 
L 103.447273 135.344114 
L 103.803702 134.759299 
L 104.160131 136.121407 
L 104.51656 135.564295 
L 104.872989 136.470279 
L 105.229419 137.799639 
L 105.585848 137.66197 
L 105.942277 137.309036 
L 106.298706 137.486401 
L 106.655135 136.358619 
L 107.011564 137.499735 
L 107.367993 137.447109 
L 107.724423 136.715204 
L 108.080852 136.745393 
L 108.437281 137.920186 
L 108.79371 138.402782 
L 109.150139 137.779066 
L 109.506568 138.589526 
L 109.862998 137.867401 
L 110.219427 137.563451 
L 110.575856 136.86058 
L 110.932285 138.38242 
L 112.358002 136.17591 
L 113.07086 136.028535 
L 113.427289 136.918557 
L 113.783718 136.394409 
L 114.140147 135.562967 
L 114.496577 135.028497 
L 114.853006 135.74701 
L 115.209435 135.871224 
L 115.565864 135.273464 
L 115.922293 134.384259 
L 116.991581 132.964803 
L 117.34801 133.681854 
L 117.704439 132.789453 
L 118.417297 130.212942 
L 118.773726 130.675204 
L 119.130156 129.900045 
L 119.843014 130.417546 
L 120.199443 128.892334 
L 120.555872 128.909399 
L 121.268731 129.404794 
L 121.62516 128.515468 
L 121.981589 128.960785 
L 123.050876 128.703501 
L 123.763735 127.708756 
L 124.120164 126.471802 
L 124.476593 126.974929 
L 124.833022 127.281551 
L 125.189451 127.375963 
L 125.54588 127.865864 
L 125.90231 127.894034 
L 126.258739 128.043494 
L 126.615168 128.756606 
L 126.971597 128.425373 
L 127.684455 128.833866 
L 128.397314 130.475166 
L 128.753743 130.022653 
L 129.110172 130.232362 
L 129.466601 131.564438 
L 130.535889 131.033201 
L 130.892318 131.562016 
L 131.248747 131.502391 
L 131.605176 131.711076 
L 131.961605 131.219852 
L 132.318034 130.96323 
L 132.674464 130.965626 
L 133.030893 130.8339 
L 133.387322 129.275878 
L 134.456609 131.409443 
L 134.813038 130.940789 
L 135.169468 131.730369 
L 135.525897 131.68086 
L 136.238755 131.736381 
L 136.595184 131.747424 
L 136.951613 131.993575 
L 137.308043 131.964612 
L 137.664472 132.240902 
L 138.020901 132.103632 
L 138.37733 131.416605 
L 138.733759 131.937838 
L 139.090188 131.663242 
L 139.803047 132.095097 
L 140.159476 132.578609 
L 140.515905 131.990876 
L 140.872334 131.905485 
L 141.228763 132.083851 
L 141.585192 132.135995 
L 141.941622 131.938605 
L 142.298051 131.340163 
L 142.65448 131.838696 
L 143.367338 132.316704 
L 144.436626 130.932793 
L 145.149484 130.611181 
L 145.505913 131.432442 
L 145.862342 131.557827 
L 146.218771 132.361912 
L 146.575201 132.812814 
L 146.93163 132.467947 
L 147.288059 132.283821 
L 147.644488 132.279693 
L 148.000917 131.952611 
L 148.357346 132.433062 
L 148.713776 132.543761 
L 149.070205 133.165477 
L 149.426634 133.346419 
L 149.783063 132.971117 
L 150.139492 132.972732 
L 150.495921 133.694278 
L 150.852351 133.374918 
L 151.20878 133.373713 
L 151.565209 132.550485 
L 151.921638 132.627477 
L 152.634496 132.341847 
L 152.990925 132.586055 
L 153.703784 132.426099 
L 154.060213 132.130734 
L 154.773071 133.462596 
L 155.48593 132.184101 
L 155.842359 131.998835 
L 156.198788 132.123115 
L 156.555217 131.757086 
L 156.911646 131.765651 
L 157.624505 131.007653 
L 157.980934 131.136538 
L 158.337363 131.113484 
L 159.050221 130.534391 
L 159.763079 130.295503 
L 160.475938 129.886059 
L 161.188796 130.167339 
L 161.901654 130.026069 
L 162.258084 130.078777 
L 162.970942 130.912359 
L 163.327371 130.641728 
L 164.040229 130.637291 
L 164.753088 130.119654 
L 165.109517 129.746868 
L 165.465946 128.92289 
L 165.822375 129.464942 
L 166.178804 129.315876 
L 166.535233 128.981327 
L 166.891663 129.179589 
L 167.248092 128.521721 
L 167.604521 128.835007 
L 167.96095 128.7426 
L 168.317379 128.772533 
L 169.030238 129.2186 
L 169.386667 128.803132 
L 169.743096 129.121133 
L 170.099525 128.881363 
L 170.455954 129.201457 
L 170.812383 129.275 
L 171.168812 129.113353 
L 171.525242 129.847325 
L 172.2381 130.062112 
L 172.594529 129.946691 
L 172.950958 130.15791 
L 173.307387 129.778239 
L 174.376675 129.455441 
L 174.733104 129.059455 
L 175.445962 129.533991 
L 175.802391 129.468376 
L 176.158821 129.86406 
L 176.51525 129.958136 
L 176.871679 129.589889 
L 177.228108 129.99961 
L 177.584537 129.569679 
L 177.940966 129.753328 
L 178.297396 129.211006 
L 178.653825 129.410226 
L 179.010254 129.470687 
L 179.366683 129.707871 
L 180.079541 129.202837 
L 180.435971 129.856288 
L 180.7924 129.862699 
L 181.148829 130.17409 
L 181.505258 130.162315 
L 181.861687 129.946969 
L 182.218116 130.163853 
L 182.574545 130.520396 
L 182.930975 130.371992 
L 183.287404 130.863915 
L 183.643833 131.006989 
L 184.000262 131.406347 
L 184.356691 131.371266 
L 185.06955 131.818438 
L 185.425979 131.358163 
L 185.782408 131.086858 
L 186.138837 131.360859 
L 186.495266 131.410134 
L 187.208124 131.243251 
L 187.564554 130.888301 
L 187.920983 131.087644 
L 188.277412 130.662115 
L 188.633841 131.015909 
L 189.346699 131.0557 
L 189.703129 130.761344 
L 190.415987 130.991079 
L 191.128845 130.299895 
L 191.485274 130.384865 
L 191.841704 129.880842 
L 192.198133 130.14307 
L 192.554562 129.60981 
L 192.910991 129.43751 
L 193.26742 129.411139 
L 193.623849 129.074507 
L 193.980278 129.122629 
L 194.336708 128.978988 
L 194.693137 128.69249 
L 195.049566 128.90283 
L 195.405995 129.242459 
L 196.118853 128.845361 
L 196.475283 128.394886 
L 196.831712 128.272695 
L 197.188141 128.426633 
L 197.54457 128.388661 
L 197.900999 128.469292 
L 199.326716 127.760596 
L 199.683145 127.78251 
L 200.752432 128.180816 
L 201.108862 128.055653 
L 201.465291 128.204804 
L 203.603866 127.754267 
L 203.960295 128.079846 
L 204.673153 128.109456 
L 205.029582 128.356342 
L 205.386011 128.189371 
L 206.09887 128.14179 
L 206.455299 127.944762 
L 206.811728 128.309672 
L 207.168157 128.270495 
L 207.524586 128.471926 
L 208.237445 128.279591 
L 209.306732 127.572638 
L 210.01959 127.862578 
L 210.37602 127.838674 
L 210.732449 127.9468 
L 211.088878 127.800667 
L 211.445307 127.934273 
L 211.801736 127.647946 
L 212.514595 128.287544 
L 212.871024 128.108868 
L 214.29674 128.544057 
L 214.65317 128.300839 
L 215.366028 127.469133 
L 215.722457 127.516361 
L 216.435315 127.867577 
L 217.504603 128.116948 
L 217.861032 128.043427 
L 218.217461 127.75433 
L 219.286749 128.10966 
L 219.643178 127.97264 
L 220.356036 127.955149 
L 220.712465 127.807163 
L 221.425324 128.022594 
L 221.781753 127.955935 
L 222.138182 127.677741 
L 222.494611 128.035186 
L 222.85104 128.044515 
L 223.207469 128.298385 
L 223.563898 128.405726 
L 223.920328 128.176664 
L 224.276757 128.304299 
L 224.989615 128.20975 
L 225.702473 128.890731 
L 226.058903 129.027202 
L 226.771761 128.95532 
L 227.12819 128.84678 
L 227.484619 128.907614 
L 227.841048 128.782155 
L 229.979623 128.847943 
L 230.336052 128.69116 
L 230.692482 128.791733 
L 231.048911 129.066444 
L 231.40534 128.712003 
L 231.761769 128.802775 
L 232.118198 128.628138 
L 232.474627 128.795256 
L 233.187486 128.224016 
L 233.543915 128.133948 
L 233.900344 128.198823 
L 234.256773 127.894725 
L 234.969631 127.689525 
L 235.326061 128.049916 
L 235.68249 128.213658 
L 236.038919 128.129261 
L 236.395348 128.24244 
L 237.108206 128.148435 
L 237.464636 128.223861 
L 237.821065 128.598919 
L 238.533923 128.573033 
L 239.60321 128.124402 
L 239.95964 128.175239 
L 240.316069 128.112047 
L 240.672498 127.784856 
L 243.88036 128.093751 
L 244.593219 128.366311 
L 244.949648 128.457135 
L 245.662506 128.382083 
L 246.731794 128.792627 
L 247.088223 128.517104 
L 247.444652 128.648384 
L 247.801081 128.640892 
L 248.15751 128.393983 
L 248.870369 128.536029 
L 249.226798 128.754283 
L 249.583227 128.461261 
L 250.296085 128.715433 
L 251.008943 129.058561 
L 251.365373 128.751648 
L 251.721802 128.912702 
L 252.078231 128.769527 
L 252.43466 128.968259 
L 252.791089 128.925713 
L 253.147518 129.001206 
L 253.503948 128.805032 
L 253.860377 128.885188 
L 254.216806 128.80369 
L 254.929664 129.030894 
L 255.286093 129.451961 
L 255.998952 129.359074 
L 256.355381 129.495562 
L 257.068239 129.15903 
L 257.424668 128.945901 
L 257.781097 129.025455 
L 258.137527 129.388613 
L 258.493956 129.39644 
L 259.563243 129.734878 
L 259.919672 129.619699 
L 260.276102 129.938043 
L 260.632531 130.002184 
L 260.98896 129.937316 
L 261.345389 130.044148 
L 261.701818 129.894752 
L 262.058247 129.952837 
L 262.414676 129.715131 
L 263.127535 130.210335 
L 263.483964 130.580553 
L 263.840393 130.365663 
L 266.691826 130.511923 
L 267.048256 130.360381 
L 268.117543 130.790411 
L 269.18683 130.576978 
L 269.899689 130.949153 
L 270.256118 130.743283 
L 270.612547 130.900692 
L 270.968976 130.645849 
L 271.325405 130.804371 
L 272.038264 130.715536 
L 272.751122 130.603292 
L 273.107551 130.835803 
L 273.82041 130.693845 
L 274.176839 130.707773 
L 274.533268 130.604449 
L 274.889697 130.670141 
L 275.246126 130.601656 
L 275.958984 130.869358 
L 276.671843 130.783021 
L 277.384701 130.852694 
L 277.74113 131.127006 
L 278.097559 130.956777 
L 278.453989 131.330914 
L 279.523276 131.646538 
L 280.236134 131.395108 
L 280.948993 131.677676 
L 281.305422 131.395044 
L 282.374709 131.381929 
L 284.156855 131.292644 
L 284.513284 131.122381 
L 284.869713 131.082757 
L 285.582572 131.42709 
L 285.939001 131.022729 
L 287.008288 131.004796 
L 287.364717 130.884723 
L 287.721147 131.083375 
L 288.077576 130.78215 
L 288.434005 130.682956 
L 289.146863 131.002066 
L 290.216151 130.849035 
L 290.929009 131.210023 
L 291.285438 131.268215 
L 291.641867 131.587774 
L 293.424013 131.202544 
L 293.780442 131.027228 
L 295.562588 131.065729 
L 296.275446 130.688533 
L 296.988305 130.880391 
L 297.344734 130.918463 
L 298.057592 130.867641 
L 299.12688 131.107925 
L 299.839738 131.08369 
L 300.196167 131.182955 
L 301.265455 130.960279 
L 301.978313 130.91404 
L 303.0476 130.536339 
L 303.404029 130.58569 
L 303.760459 130.234553 
L 304.116888 130.367897 
L 304.473317 130.107513 
L 305.899034 130.576366 
L 306.255463 130.937234 
L 306.611892 131.010281 
L 308.037609 130.707716 
L 308.394038 130.916189 
L 308.750467 130.73987 
L 309.463325 130.968257 
L 309.819754 130.9291 
L 310.176183 130.772355 
L 310.532613 130.883018 
L 311.958329 130.648905 
L 312.314758 130.504126 
L 313.740475 131.162924 
L 314.453333 131.122632 
L 314.809762 131.246993 
L 315.166192 131.511819 
L 315.522621 131.629851 
L 315.87905 131.401121 
L 316.235479 131.366925 
L 316.591908 131.461583 
L 316.948337 131.419123 
L 317.661196 131.106686 
L 318.017625 131.242573 
L 319.443342 131.148253 
L 320.869058 130.6468 
L 321.938346 130.879232 
L 323.364062 130.871195 
L 323.720491 131.058825 
L 326.571925 130.603992 
L 326.928354 130.716137 
L 327.284783 130.680513 
L 327.641212 130.765973 
L 328.35407 131.237352 
L 328.7105 131.087387 
L 329.066929 131.201747 
L 329.423358 131.196589 
L 329.779787 130.97796 
L 330.492645 131.146551 
L 330.849075 131.178292 
L 331.918362 130.911785 
L 332.274791 131.075278 
L 333.344079 131.00654 
L 333.700508 131.055053 
L 334.413366 130.767111 
L 334.769795 130.655546 
L 335.126224 130.691452 
L 335.482654 131.018168 
L 335.839083 130.738249 
L 336.195512 130.703004 
L 336.551941 130.898018 
L 337.264799 130.978193 
L 337.621229 131.106233 
L 339.046945 130.709275 
L 339.759803 130.763187 
L 340.116233 130.865717 
L 340.472662 130.678014 
L 341.18552 130.651398 
L 342.611237 131.194837 
L 343.324095 130.924282 
L 343.680524 130.964195 
L 344.749812 131.394827 
L 345.46267 131.34904 
L 346.888387 131.368546 
L 348.314103 130.913508 
L 348.670532 131.01601 
L 349.026962 130.99095 
L 349.73982 131.209287 
L 350.809107 131.2072 
L 351.521966 131.194051 
L 352.234824 130.87697 
L 354.01697 131.679717 
L 354.373399 131.670541 
L 354.729828 131.80849 
L 355.086257 131.786449 
L 355.442686 131.64033 
L 355.799115 131.776575 
L 357.224832 131.534015 
L 357.93769 131.594766 
L 358.29412 131.330916 
L 358.650549 131.580595 
L 359.363407 131.662222 
L 359.719836 131.56342 
L 360.076265 131.711185 
L 360.432695 131.556602 
L 362.21484 131.488461 
L 362.571269 131.160245 
L 362.927699 131.236669 
L 363.284128 131.067149 
L 363.996986 131.22543 
L 364.353415 131.133751 
L 364.709844 131.158736 
L 365.066274 131.3483 
L 365.422703 131.176612 
L 365.779132 131.283558 
L 366.848419 130.977862 
L 367.561278 131.111402 
L 367.917707 131.165994 
L 369.343423 131.008185 
L 370.056282 130.95294 
L 370.76914 131.14441 
L 371.125569 130.984074 
L 373.264144 131.173741 
L 373.620573 131.039912 
L 375.402719 131.061925 
L 376.115577 130.850258 
L 376.472007 130.810421 
L 377.184865 130.529765 
L 377.897723 130.469837 
L 378.610581 130.183326 
L 378.967011 130.301011 
L 380.392727 130.105444 
L 381.818444 130.401572 
L 382.887731 130.352202 
L 383.957019 130.277809 
L 385.026306 130.703949 
L 385.382735 130.605738 
L 385.739165 130.68115 
L 386.452023 130.686481 
L 387.164881 131.020345 
L 387.87774 130.93703 
L 388.590598 130.915363 
L 388.947027 130.716954 
L 389.303456 130.669487 
L 390.372744 130.968566 
L 390.729173 130.943049 
L 391.085602 130.772556 
L 391.442031 130.868283 
L 392.867748 130.809194 
L 394.293464 130.760608 
L 395.719181 130.526656 
L 396.07561 130.626286 
L 396.432039 130.533165 
L 396.788468 130.617417 
L 397.144898 130.488423 
L 397.501327 130.65776 
L 398.214185 130.610834 
L 398.570614 130.798689 
L 398.927043 130.859085 
L 399.283473 130.687993 
L 399.996331 130.746772 
L 401.422048 130.728701 
L 402.134906 130.819575 
L 403.204193 130.925785 
L 403.917052 130.920467 
L 404.273481 130.863268 
L 404.986339 130.620448 
L 405.699197 130.664573 
L 406.055627 130.774175 
L 407.837772 130.669867 
L 408.90706 131.010764 
L 409.619918 131.025786 
L 410.332776 130.817415 
L 412.114922 130.683542 
L 413.540639 130.908129 
L 414.253497 130.765684 
L 414.966355 131.063438 
L 415.679214 131.075093 
L 416.035643 131.098945 
L 416.748501 130.863487 
L 417.10493 130.990445 
L 417.817789 130.843928 
L 418.530647 130.586776 
L 418.887076 130.613814 
L 419.243505 130.487804 
L 419.956364 130.656757 
L 419.956364 130.656757 
" style="fill:none;stroke:#1f77b4;stroke-linecap:square;stroke-width:1.5;"/>
   </g>
   <g id="patch_3">
    <path d="M 46.08 156.672 
L 46.08 27.648 
" style="fill:none;stroke:#000000;stroke-linecap:square;stroke-linejoin:miter;stroke-width:0.8;"/>
   </g>
   <g id="patch_4">
    <path d="M 437.76 156.672 
L 437.76 27.648 
" style="fill:none;stroke:#000000;stroke-linecap:square;stroke-linejoin:miter;stroke-width:0.8;"/>
   </g>
   <g id="patch_5">
    <path d="M 46.08 156.672 
L 437.76 156.672 
" style="fill:none;stroke:#000000;stroke-linecap:square;stroke-linejoin:miter;stroke-width:0.8;"/>
   </g>
   <g id="patch_6">
    <path d="M 46.08 27.648 
L 437.76 27.648 
" style="fill:none;stroke:#000000;stroke-linecap:square;stroke-linejoin:miter;stroke-width:0.8;"/>
   </g>
   <g id="text_13">
    <!-- Utilización promedio servidor D1 -->
    <defs>
     <path id="DejaVuSans-32"/>
     <path d="M 18.109375 8.203125 
L 18.109375 -20.796875 
L 9.078125 -20.796875 
L 9.078125 54.6875 
L 18.109375 54.6875 
L 18.109375 46.390625 
Q 20.953125 51.265625 25.265625 53.625 
Q 29.59375 56 35.59375 56 
Q 45.5625 56 51.78125 48.09375 
Q 58.015625 40.1875 58.015625 27.296875 
Q 58.015625 14.40625 51.78125 6.484375 
Q 45.5625 -1.421875 35.59375 -1.421875 
Q 29.59375 -1.421875 25.265625 0.953125 
Q 20.953125 3.328125 18.109375 8.203125 
z
M 48.6875 27.296875 
Q 48.6875 37.203125 44.609375 42.84375 
Q 40.53125 48.484375 33.40625 48.484375 
Q 26.265625 48.484375 22.1875 42.84375 
Q 18.109375 37.203125 18.109375 27.296875 
Q 18.109375 17.390625 22.1875 11.75 
Q 26.265625 6.109375 33.40625 6.109375 
Q 40.53125 6.109375 44.609375 11.75 
Q 48.6875 17.390625 48.6875 27.296875 
z
" id="DejaVuSans-112"/>
     <path d="M 52 44.1875 
Q 55.375 50.25 60.0625 53.125 
Q 64.75 56 71.09375 56 
Q 79.640625 56 84.28125 50.015625 
Q 88.921875 44.046875 88.921875 33.015625 
L 88.921875 0 
L 79.890625 0 
L 79.890625 32.71875 
Q 79.890625 40.578125 77.09375 44.375 
Q 74.3125 48.1875 68.609375 48.1875 
Q 61.625 48.1875 57.5625 43.546875 
Q 53.515625 38.921875 53.515625 30.90625 
L 53.515625 0 
L 44.484375 0 
L 44.484375 32.71875 
Q 44.484375 40.625 41.703125 44.40625 
Q 38.921875 48.1875 33.109375 48.1875 
Q 26.21875 48.1875 22.15625 43.53125 
Q 18.109375 38.875 18.109375 30.90625 
L 18.109375 0 
L 9.078125 0 
L 9.078125 54.6875 
L 18.109375 54.6875 
L 18.109375 46.1875 
Q 21.1875 51.21875 25.484375 53.609375 
Q 29.78125 56 35.6875 56 
Q 41.65625 56 45.828125 52.96875 
Q 50 49.953125 52 44.1875 
z
" id="DejaVuSans-109"/>
     <path d="M 56.203125 29.59375 
L 56.203125 25.203125 
L 14.890625 25.203125 
Q 15.484375 15.921875 20.484375 11.0625 
Q 25.484375 6.203125 34.421875 6.203125 
Q 39.59375 6.203125 44.453125 7.46875 
Q 49.3125 8.734375 54.109375 11.28125 
L 54.109375 2.78125 
Q 49.265625 0.734375 44.1875 -0.34375 
Q 39.109375 -1.421875 33.890625 -1.421875 
Q 20.796875 -1.421875 13.15625 6.1875 
Q 5.515625 13.8125 5.515625 26.8125 
Q 5.515625 40.234375 12.765625 48.109375 
Q 20.015625 56 32.328125 56 
Q 43.359375 56 49.78125 48.890625 
Q 56.203125 41.796875 56.203125 29.59375 
z
M 47.21875 32.234375 
Q 47.125 39.59375 43.09375 43.984375 
Q 39.0625 48.390625 32.421875 48.390625 
Q 24.90625 48.390625 20.390625 44.140625 
Q 15.875 39.890625 15.1875 32.171875 
z
" id="DejaVuSans-101"/>
     <path d="M 2.984375 54.6875 
L 12.5 54.6875 
L 29.59375 8.796875 
L 46.6875 54.6875 
L 56.203125 54.6875 
L 35.6875 0 
L 23.484375 0 
z
" id="DejaVuSans-118"/>
     <path d="M 19.671875 64.796875 
L 19.671875 8.109375 
L 31.59375 8.109375 
Q 46.6875 8.109375 53.6875 14.9375 
Q 60.6875 21.78125 60.6875 36.53125 
Q 60.6875 51.171875 53.6875 57.984375 
Q 46.6875 64.796875 31.59375 64.796875 
z
M 9.8125 72.90625 
L 30.078125 72.90625 
Q 51.265625 72.90625 61.171875 64.09375 
Q 71.09375 55.28125 71.09375 36.53125 
Q 71.09375 17.671875 61.125 8.828125 
Q 51.171875 0 30.078125 0 
L 9.8125 0 
z
" id="DejaVuSans-68"/>
    </defs>
    <g transform="translate(143.674688 21.648)scale(0.12 -0.12)">
     <use xlink:href="#DejaVuSans-85"/>
     <use x="73.193359" xlink:href="#DejaVuSans-116"/>
     <use x="112.402344" xlink:href="#DejaVuSans-105"/>
     <use x="140.185547" xlink:href="#DejaVuSans-108"/>
     <use x="167.96875" xlink:href="#DejaVuSans-105"/>
     <use x="195.751953" xlink:href="#DejaVuSans-122"/>
     <use x="248.242188" xlink:href="#DejaVuSans-97"/>
     <use x="309.521484" xlink:href="#DejaVuSans-99"/>
     <use x="364.501953" xlink:href="#DejaVuSans-105"/>
     <use x="392.285156" xlink:href="#DejaVuSans-243"/>
     <use x="453.466797" xlink:href="#DejaVuSans-110"/>
     <use x="516.845703" xlink:href="#DejaVuSans-32"/>
     <use x="548.632812" xlink:href="#DejaVuSans-112"/>
     <use x="612.109375" xlink:href="#DejaVuSans-114"/>
     <use x="653.191406" xlink:href="#DejaVuSans-111"/>
     <use x="714.373047" xlink:href="#DejaVuSans-109"/>
     <use x="811.785156" xlink:href="#DejaVuSans-101"/>
     <use x="873.308594" xlink:href="#DejaVuSans-100"/>
     <use x="936.785156" xlink:href="#DejaVuSans-105"/>
     <use x="964.568359" xlink:href="#DejaVuSans-111"/>
     <use x="1025.75" xlink:href="#DejaVuSans-32"/>
     <use x="1057.537109" xlink:href="#DejaVuSans-115"/>
     <use x="1109.636719" xlink:href="#DejaVuSans-101"/>
     <use x="1171.160156" xlink:href="#DejaVuSans-114"/>
     <use x="1212.273438" xlink:href="#DejaVuSans-118"/>
     <use x="1271.453125" xlink:href="#DejaVuSans-105"/>
     <use x="1299.236328" xlink:href="#DejaVuSans-100"/>
     <use x="1362.712891" xlink:href="#DejaVuSans-111"/>
     <use x="1423.894531" xlink:href="#DejaVuSans-114"/>
     <use x="1465.007812" xlink:href="#DejaVuSans-32"/>
     <use x="1496.794922" xlink:href="#DejaVuSans-68"/>
     <use x="1573.796875" xlink:href="#DejaVuSans-49"/>
    </g>
   </g>
  </g>
  <g id="axes_2">
   <g id="patch_7">
    <path d="M 46.08 317.952 
L 437.76 317.952 
L 437.76 188.928 
L 46.08 188.928 
z
" style="fill:#ffffff;"/>
   </g>
   <g id="matplotlib.axis_3">
    <g id="xtick_7">
     <g id="line2d_22">
      <path clip-path="url(#p68bf91c3bd)" d="M 63.527207 317.952 
L 63.527207 188.928 
" style="fill:none;stroke:#b0b0b0;stroke-linecap:square;stroke-width:0.8;"/>
     </g>
     <g id="line2d_23">
      <g>
       <use style="stroke:#000000;stroke-width:0.8;" x="63.527207" xlink:href="#m578ec028f2" y="317.952"/>
      </g>
     </g>
     <g id="text_14">
      <!-- 0 -->
      <g transform="translate(60.345957 332.550437)scale(0.1 -0.1)">
       <use xlink:href="#DejaVuSans-48"/>
      </g>
     </g>
    </g>
    <g id="xtick_8">
     <g id="line2d_24">
      <path clip-path="url(#p68bf91c3bd)" d="M 134.813038 317.952 
L 134.813038 188.928 
" style="fill:none;stroke:#b0b0b0;stroke-linecap:square;stroke-width:0.8;"/>
     </g>
     <g id="line2d_25">
      <g>
       <use style="stroke:#000000;stroke-width:0.8;" x="134.813038" xlink:href="#m578ec028f2" y="317.952"/>
      </g>
     </g>
     <g id="text_15">
      <!-- 200 -->
      <g transform="translate(125.269288 332.550437)scale(0.1 -0.1)">
       <use xlink:href="#DejaVuSans-50"/>
       <use x="63.623047" xlink:href="#DejaVuSans-48"/>
       <use x="127.246094" xlink:href="#DejaVuSans-48"/>
      </g>
     </g>
    </g>
    <g id="xtick_9">
     <g id="line2d_26">
      <path clip-path="url(#p68bf91c3bd)" d="M 206.09887 317.952 
L 206.09887 188.928 
" style="fill:none;stroke:#b0b0b0;stroke-linecap:square;stroke-width:0.8;"/>
     </g>
     <g id="line2d_27">
      <g>
       <use style="stroke:#000000;stroke-width:0.8;" x="206.09887" xlink:href="#m578ec028f2" y="317.952"/>
      </g>
     </g>
     <g id="text_16">
      <!-- 400 -->
      <g transform="translate(196.55512 332.550437)scale(0.1 -0.1)">
       <use xlink:href="#DejaVuSans-52"/>
       <use x="63.623047" xlink:href="#DejaVuSans-48"/>
       <use x="127.246094" xlink:href="#DejaVuSans-48"/>
      </g>
     </g>
    </g>
    <g id="xtick_10">
     <g id="line2d_28">
      <path clip-path="url(#p68bf91c3bd)" d="M 277.384701 317.952 
L 277.384701 188.928 
" style="fill:none;stroke:#b0b0b0;stroke-linecap:square;stroke-width:0.8;"/>
     </g>
     <g id="line2d_29">
      <g>
       <use style="stroke:#000000;stroke-width:0.8;" x="277.384701" xlink:href="#m578ec028f2" y="317.952"/>
      </g>
     </g>
     <g id="text_17">
      <!-- 600 -->
      <g transform="translate(267.840951 332.550437)scale(0.1 -0.1)">
       <use xlink:href="#DejaVuSans-54"/>
       <use x="63.623047" xlink:href="#DejaVuSans-48"/>
       <use x="127.246094" xlink:href="#DejaVuSans-48"/>
      </g>
     </g>
    </g>
    <g id="xtick_11">
     <g id="line2d_30">
      <path clip-path="url(#p68bf91c3bd)" d="M 348.670532 317.952 
L 348.670532 188.928 
" style="fill:none;stroke:#b0b0b0;stroke-linecap:square;stroke-width:0.8;"/>
     </g>
     <g id="line2d_31">
      <g>
       <use style="stroke:#000000;stroke-width:0.8;" x="348.670532" xlink:href="#m578ec028f2" y="317.952"/>
      </g>
     </g>
     <g id="text_18">
      <!-- 800 -->
      <g transform="translate(339.126782 332.550437)scale(0.1 -0.1)">
       <use xlink:href="#DejaVuSans-56"/>
       <use x="63.623047" xlink:href="#DejaVuSans-48"/>
       <use x="127.246094" xlink:href="#DejaVuSans-48"/>
      </g>
     </g>
    </g>
    <g id="xtick_12">
     <g id="line2d_32">
      <path clip-path="url(#p68bf91c3bd)" d="M 419.956364 317.952 
L 419.956364 188.928 
" style="fill:none;stroke:#b0b0b0;stroke-linecap:square;stroke-width:0.8;"/>
     </g>
     <g id="line2d_33">
      <g>
       <use style="stroke:#000000;stroke-width:0.8;" x="419.956364" xlink:href="#m578ec028f2" y="317.952"/>
      </g>
     </g>
     <g id="text_19">
      <!-- 1000 -->
      <g transform="translate(407.231364 332.550437)scale(0.1 -0.1)">
       <use xlink:href="#DejaVuSans-49"/>
       <use x="63.623047" xlink:href="#DejaVuSans-48"/>
       <use x="127.246094" xlink:href="#DejaVuSans-48"/>
       <use x="190.869141" xlink:href="#DejaVuSans-48"/>
      </g>
     </g>
    </g>
    <g id="text_20">
     <!-- Corridas -->
     <g transform="translate(221.027031 346.228563)scale(0.1 -0.1)">
      <use xlink:href="#DejaVuSans-67"/>
      <use x="69.824219" xlink:href="#DejaVuSans-111"/>
      <use x="131.005859" xlink:href="#DejaVuSans-114"/>
      <use x="172.103516" xlink:href="#DejaVuSans-114"/>
      <use x="213.216797" xlink:href="#DejaVuSans-105"/>
      <use x="241" xlink:href="#DejaVuSans-100"/>
      <use x="304.476562" xlink:href="#DejaVuSans-97"/>
      <use x="365.755859" xlink:href="#DejaVuSans-115"/>
     </g>
    </g>
   </g>
   <g id="matplotlib.axis_4">
    <g id="ytick_5">
     <g id="line2d_34">
      <path clip-path="url(#p68bf91c3bd)" d="M 46.08 297.187394 
L 437.76 297.187394 
" style="fill:none;stroke:#b0b0b0;stroke-linecap:square;stroke-width:0.8;"/>
     </g>
     <g id="line2d_35">
      <g>
       <use style="stroke:#000000;stroke-width:0.8;" x="46.08" xlink:href="#mdd916a774d" y="297.187394"/>
      </g>
     </g>
     <g id="text_21">
      <!-- 0.250 -->
      <g transform="translate(10.451875 300.986613)scale(0.1 -0.1)">
       <use xlink:href="#DejaVuSans-48"/>
       <use x="63.623047" xlink:href="#DejaVuSans-46"/>
       <use x="95.410156" xlink:href="#DejaVuSans-50"/>
       <use x="159.033203" xlink:href="#DejaVuSans-53"/>
       <use x="222.65625" xlink:href="#DejaVuSans-48"/>
      </g>
     </g>
    </g>
    <g id="ytick_6">
     <g id="line2d_36">
      <path clip-path="url(#p68bf91c3bd)" d="M 46.08 271.278199 
L 437.76 271.278199 
" style="fill:none;stroke:#b0b0b0;stroke-linecap:square;stroke-width:0.8;"/>
     </g>
     <g id="line2d_37">
      <g>
       <use style="stroke:#000000;stroke-width:0.8;" x="46.08" xlink:href="#mdd916a774d" y="271.278199"/>
      </g>
     </g>
     <g id="text_22">
      <!-- 0.255 -->
      <g transform="translate(10.451875 275.077418)scale(0.1 -0.1)">
       <use xlink:href="#DejaVuSans-48"/>
       <use x="63.623047" xlink:href="#DejaVuSans-46"/>
       <use x="95.410156" xlink:href="#DejaVuSans-50"/>
       <use x="159.033203" xlink:href="#DejaVuSans-53"/>
       <use x="222.65625" xlink:href="#DejaVuSans-53"/>
      </g>
     </g>
    </g>
    <g id="ytick_7">
     <g id="line2d_38">
      <path clip-path="url(#p68bf91c3bd)" d="M 46.08 245.369004 
L 437.76 245.369004 
" style="fill:none;stroke:#b0b0b0;stroke-linecap:square;stroke-width:0.8;"/>
     </g>
     <g id="line2d_39">
      <g>
       <use style="stroke:#000000;stroke-width:0.8;" x="46.08" xlink:href="#mdd916a774d" y="245.369004"/>
      </g>
     </g>
     <g id="text_23">
      <!-- 0.260 -->
      <g transform="translate(10.451875 249.168223)scale(0.1 -0.1)">
       <use xlink:href="#DejaVuSans-48"/>
       <use x="63.623047" xlink:href="#DejaVuSans-46"/>
       <use x="95.410156" xlink:href="#DejaVuSans-50"/>
       <use x="159.033203" xlink:href="#DejaVuSans-54"/>
       <use x="222.65625" xlink:href="#DejaVuSans-48"/>
      </g>
     </g>
    </g>
    <g id="ytick_8">
     <g id="line2d_40">
      <path clip-path="url(#p68bf91c3bd)" d="M 46.08 219.459809 
L 437.76 219.459809 
" style="fill:none;stroke:#b0b0b0;stroke-linecap:square;stroke-width:0.8;"/>
     </g>
     <g id="line2d_41">
      <g>
       <use style="stroke:#000000;stroke-width:0.8;" x="46.08" xlink:href="#mdd916a774d" y="219.459809"/>
      </g>
     </g>
     <g id="text_24">
      <!-- 0.265 -->
      <g transform="translate(10.451875 223.259028)scale(0.1 -0.1)">
       <use xlink:href="#DejaVuSans-48"/>
       <use x="63.623047" xlink:href="#DejaVuSans-46"/>
       <use x="95.410156" xlink:href="#DejaVuSans-50"/>
       <use x="159.033203" xlink:href="#DejaVuSans-54"/>
       <use x="222.65625" xlink:href="#DejaVuSans-53"/>
      </g>
     </g>
    </g>
    <g id="ytick_9">
     <g id="line2d_42">
      <path clip-path="url(#p68bf91c3bd)" d="M 46.08 193.550614 
L 437.76 193.550614 
" style="fill:none;stroke:#b0b0b0;stroke-linecap:square;stroke-width:0.8;"/>
     </g>
     <g id="line2d_43">
      <g>
       <use style="stroke:#000000;stroke-width:0.8;" x="46.08" xlink:href="#mdd916a774d" y="193.550614"/>
      </g>
     </g>
     <g id="text_25">
      <!-- 0.270 -->
      <defs>
       <path d="M 8.203125 72.90625 
L 55.078125 72.90625 
L 55.078125 68.703125 
L 28.609375 0 
L 18.3125 0 
L 43.21875 64.59375 
L 8.203125 64.59375 
z
" id="DejaVuSans-55"/>
      </defs>
      <g transform="translate(10.451875 197.349833)scale(0.1 -0.1)">
       <use xlink:href="#DejaVuSans-48"/>
       <use x="63.623047" xlink:href="#DejaVuSans-46"/>
       <use x="95.410156" xlink:href="#DejaVuSans-50"/>
       <use x="159.033203" xlink:href="#DejaVuSans-55"/>
       <use x="222.65625" xlink:href="#DejaVuSans-48"/>
      </g>
     </g>
    </g>
    <g id="text_26">
     <!-- Utilización -->
     <g transform="translate(4.372188 279.281406)rotate(-90)scale(0.1 -0.1)">
      <use xlink:href="#DejaVuSans-85"/>
      <use x="73.193359" xlink:href="#DejaVuSans-116"/>
      <use x="112.402344" xlink:href="#DejaVuSans-105"/>
      <use x="140.185547" xlink:href="#DejaVuSans-108"/>
      <use x="167.96875" xlink:href="#DejaVuSans-105"/>
      <use x="195.751953" xlink:href="#DejaVuSans-122"/>
      <use x="248.242188" xlink:href="#DejaVuSans-97"/>
      <use x="309.521484" xlink:href="#DejaVuSans-99"/>
      <use x="364.501953" xlink:href="#DejaVuSans-105"/>
      <use x="392.285156" xlink:href="#DejaVuSans-243"/>
      <use x="453.466797" xlink:href="#DejaVuSans-110"/>
     </g>
    </g>
   </g>
   <g id="line2d_44">
    <path clip-path="url(#p68bf91c3bd)" d="M 63.883636 250.901986 
L 64.240066 194.792727 
L 64.596495 254.459125 
L 64.952924 291.794997 
L 65.309353 299.938304 
L 65.665782 296.323159 
L 66.022211 295.887071 
L 66.37864 294.938917 
L 66.73507 305.883076 
L 67.091499 312.087273 
L 67.447928 311.795115 
L 67.804357 304.51786 
L 68.160786 304.82731 
L 68.517215 306.209201 
L 69.230074 303.200563 
L 69.586503 303.785855 
L 69.942932 305.968552 
L 70.299361 304.382154 
L 70.65579 306.928309 
L 71.368649 299.804873 
L 71.725078 293.390119 
L 72.081507 296.970689 
L 72.437936 295.597711 
L 72.794365 293.572114 
L 73.150794 297.141178 
L 73.507224 297.293834 
L 73.863653 297.929063 
L 74.220082 298.302458 
L 74.576511 296.700271 
L 74.93294 297.666578 
L 75.289369 297.596255 
L 75.645799 296.882988 
L 76.358657 290.636384 
L 76.715086 296.064671 
L 77.071515 298.759398 
L 77.427944 295.58013 
L 77.784373 298.455064 
L 78.140803 295.271826 
L 78.497232 296.807617 
L 78.853661 297.250964 
L 79.21009 298.727632 
L 79.566519 298.299249 
L 79.922948 299.890946 
L 80.279378 299.158139 
L 80.635807 301.735654 
L 80.992236 300.939882 
L 81.348665 302.582335 
L 81.705094 302.868323 
L 82.061523 301.712907 
L 82.417952 299.696411 
L 82.774382 300.282707 
L 83.130811 301.34787 
L 83.48724 298.812231 
L 83.843669 298.910948 
L 84.200098 297.774114 
L 84.556527 298.096616 
L 84.912957 299.656543 
L 85.269386 299.312106 
L 85.982244 299.057632 
L 86.338673 296.374999 
L 86.695102 297.08722 
L 87.407961 297.467973 
L 87.76439 297.632801 
L 88.477248 299.66592 
L 88.833677 299.898869 
L 89.190106 299.680945 
L 89.546536 298.266312 
L 89.902965 297.768416 
L 90.259394 298.978689 
L 90.615823 298.387081 
L 91.328681 300.272433 
L 91.685111 300.31862 
L 92.397969 298.355049 
L 92.754398 298.758976 
L 93.110827 298.712378 
L 93.467256 297.86957 
L 93.823686 297.964992 
L 94.180115 297.80612 
L 94.536544 298.593216 
L 95.249402 295.926003 
L 95.605831 295.647094 
L 95.96226 295.97987 
L 96.31869 295.077347 
L 96.675119 295.322424 
L 97.031548 295.340436 
L 97.387977 295.702984 
L 97.744406 294.623583 
L 98.100835 295.151631 
L 98.457265 295.99822 
L 98.813694 296.060943 
L 99.526552 294.919439 
L 99.882981 294.494176 
L 100.23941 294.884817 
L 100.595839 294.05094 
L 100.952269 293.744767 
L 101.665127 295.441722 
L 102.021556 295.43789 
L 102.377985 296.110885 
L 102.734414 296.323057 
L 103.090844 296.274508 
L 103.447273 296.890595 
L 103.803702 296.718435 
L 104.160131 296.219957 
L 104.872989 297.402944 
L 105.229419 298.139683 
L 105.942277 297.243067 
L 106.298706 298.809724 
L 106.655135 299.052507 
L 107.011564 299.720334 
L 107.367993 300.107055 
L 107.724423 298.591918 
L 108.080852 298.906707 
L 108.437281 299.032412 
L 108.79371 298.977208 
L 109.150139 298.65168 
L 109.862998 297.210638 
L 110.219427 297.744285 
L 110.575856 297.385531 
L 110.932285 297.854165 
L 111.288714 298.13581 
L 111.645143 298.196405 
L 112.001572 297.383531 
L 112.358002 297.299292 
L 112.714431 296.915315 
L 113.07086 296.727197 
L 113.427289 297.546966 
L 113.783718 297.001352 
L 114.496577 295.370875 
L 114.853006 295.479635 
L 115.209435 295.159621 
L 115.565864 295.372313 
L 115.922293 295.28942 
L 116.278722 295.391195 
L 116.635152 295.785304 
L 116.991581 295.131472 
L 117.34801 295.147533 
L 117.704439 294.694686 
L 118.060868 293.954791 
L 118.417297 293.495743 
L 118.773726 293.691226 
L 119.130156 294.71055 
L 120.199443 294.861518 
L 120.555872 294.735928 
L 120.912301 294.402716 
L 121.268731 294.587805 
L 121.62516 294.594649 
L 122.338018 295.649727 
L 122.694447 295.836966 
L 123.050876 295.407034 
L 123.407305 295.247974 
L 123.763735 294.459268 
L 124.120164 294.061564 
L 124.833022 294.859604 
L 125.54588 296.298675 
L 125.90231 296.25539 
L 126.258739 296.940969 
L 126.615168 297.329769 
L 126.971597 298.040015 
L 127.328026 298.451072 
L 127.684455 298.050601 
L 128.397314 298.581715 
L 128.753743 297.972909 
L 129.110172 297.805971 
L 129.466601 298.246769 
L 129.82303 298.231952 
L 130.179459 298.794004 
L 130.535889 298.673169 
L 131.605176 299.103822 
L 131.961605 298.134265 
L 133.030893 298.649764 
L 133.387322 298.059533 
L 134.10018 298.409047 
L 134.456609 298.848487 
L 134.813038 298.855106 
L 135.169468 298.720343 
L 135.525897 299.097225 
L 135.882326 298.94982 
L 136.238755 298.082403 
L 136.595184 298.248732 
L 137.308043 297.744245 
L 138.020901 298.250502 
L 138.37733 297.673122 
L 138.733759 297.716057 
L 139.090188 297.212089 
L 139.803047 297.414212 
L 140.515905 297.907067 
L 140.872334 297.731493 
L 141.228763 298.118108 
L 141.941622 298.02987 
L 142.298051 297.752844 
L 142.65448 298.271993 
L 143.367338 297.965357 
L 143.723767 297.599765 
L 144.080197 297.44363 
L 144.436626 298.187642 
L 144.793055 297.853098 
L 145.149484 297.757298 
L 145.505913 297.404668 
L 145.862342 297.346214 
L 146.218771 298.099655 
L 146.575201 298.152582 
L 147.288059 298.430894 
L 147.644488 297.827146 
L 148.000917 297.450311 
L 148.713776 297.611994 
L 149.070205 298.193508 
L 149.783063 297.927395 
L 150.139492 298.082165 
L 150.495921 297.952506 
L 150.852351 297.506141 
L 151.20878 297.656383 
L 151.565209 298.09944 
L 152.278067 298.125835 
L 152.634496 298.172832 
L 152.990925 298.366582 
L 154.060213 297.75182 
L 154.416642 297.855165 
L 154.773071 297.822893 
L 155.1295 297.951673 
L 155.48593 297.454038 
L 155.842359 297.451995 
L 156.198788 297.754969 
L 156.555217 297.253027 
L 157.624505 296.948185 
L 157.980934 297.101138 
L 158.337363 296.650369 
L 158.693792 296.418998 
L 159.050221 296.605812 
L 159.40665 296.228488 
L 160.119509 296.455866 
L 161.545225 296.468728 
L 161.901654 296.353635 
L 162.258084 296.072036 
L 162.614513 296.147363 
L 162.970942 296.486334 
L 163.327371 296.26256 
L 163.6838 296.410876 
L 164.396658 296.356319 
L 164.753088 296.54379 
L 165.465946 295.70456 
L 166.891663 296.406471 
L 168.673808 296.41749 
L 169.030238 296.548817 
L 169.743096 296.336907 
L 170.455954 297.055309 
L 171.525242 296.743023 
L 172.2381 296.993888 
L 172.594529 296.907115 
L 172.950958 296.668951 
L 173.663817 296.8484 
L 174.020246 296.977463 
L 174.376675 296.919501 
L 174.733104 296.695964 
L 175.089533 296.854563 
L 176.158821 296.812035 
L 176.871679 296.647409 
L 178.297396 296.294877 
L 179.010254 296.494389 
L 179.366683 296.519688 
L 179.723112 296.781107 
L 180.7924 296.948351 
L 181.148829 297.20905 
L 181.505258 297.178883 
L 182.218116 296.305865 
L 182.574545 296.872174 
L 182.930975 296.701737 
L 183.643833 297.253594 
L 185.06955 297.65631 
L 185.782408 297.530352 
L 186.138837 297.673333 
L 186.495266 297.677335 
L 186.851695 297.4001 
L 187.208124 297.491743 
L 187.564554 297.313986 
L 187.920983 297.301364 
L 188.277412 297.029252 
L 188.633841 297.205186 
L 189.346699 297.871209 
L 189.703129 297.741745 
L 190.059558 297.764717 
L 190.415987 298.004902 
L 190.772416 298.097109 
L 191.128845 297.747481 
L 192.198133 297.93209 
L 193.26742 297.184739 
L 193.623849 297.189057 
L 194.336708 297.559331 
L 195.049566 297.174609 
L 195.405995 297.499589 
L 195.762424 297.331869 
L 196.475283 297.323121 
L 197.188141 297.15644 
L 197.54457 297.227895 
L 197.900999 297.133146 
L 198.257428 297.209539 
L 198.970287 296.859337 
L 199.326716 296.51862 
L 199.683145 296.573644 
L 200.039574 296.820009 
L 200.752432 296.797031 
L 201.465291 297.243576 
L 202.178149 297.152494 
L 202.534578 297.188972 
L 203.247437 297.819269 
L 203.603866 297.4755 
L 203.960295 297.478484 
L 204.316724 297.668405 
L 204.673153 297.478912 
L 205.029582 297.909633 
L 205.386011 297.743579 
L 205.742441 297.80387 
L 206.09887 297.692672 
L 206.455299 297.432845 
L 207.168157 297.515241 
L 207.881016 297.221214 
L 208.237445 296.727463 
L 209.663161 296.877413 
L 210.01959 297.226373 
L 210.732449 297.583873 
L 211.445307 297.501949 
L 212.514595 297.826667 
L 213.227453 297.599402 
L 213.583882 297.713524 
L 214.29674 297.64303 
L 215.009599 297.471785 
L 215.366028 297.03422 
L 215.722457 297.015313 
L 216.078886 297.133163 
L 216.791744 296.592701 
L 217.504603 296.677528 
L 217.861032 296.494028 
L 219.286749 296.619485 
L 219.643178 296.223834 
L 219.999607 296.604042 
L 220.356036 296.500897 
L 221.425324 296.513613 
L 222.494611 296.44271 
L 222.85104 296.596659 
L 223.207469 296.539033 
L 223.563898 296.657985 
L 223.920328 296.642337 
L 224.276757 296.798539 
L 224.633186 296.600083 
L 224.989615 296.563864 
L 225.346044 296.774009 
L 225.702473 296.593896 
L 226.415332 296.910317 
L 227.484619 297.1192 
L 227.841048 297.056587 
L 228.553907 297.159349 
L 229.266765 297.14515 
L 229.979623 297.312774 
L 230.336052 297.180511 
L 231.761769 297.325823 
L 232.118198 297.102766 
L 232.831057 297.089033 
L 233.187486 296.674712 
L 233.543915 296.681854 
L 233.900344 296.503068 
L 234.613202 296.49408 
L 234.969631 296.563878 
L 235.326061 296.770343 
L 236.038919 296.577252 
L 236.751777 296.63722 
L 237.108206 296.579048 
L 237.821065 296.866986 
L 238.177494 296.79379 
L 238.533923 296.844916 
L 238.890352 296.511989 
L 239.246781 296.375585 
L 240.316069 296.376046 
L 240.672498 296.169446 
L 241.741785 296.41533 
L 242.098215 296.490808 
L 244.949648 296.136314 
L 246.018935 296.782055 
L 246.375364 296.761768 
L 246.731794 296.926629 
L 247.444652 296.837313 
L 248.870369 297.03847 
L 249.226798 297.184684 
L 251.008943 296.99809 
L 251.365373 296.695832 
L 252.078231 296.679268 
L 253.147518 297.009326 
L 253.503948 296.741683 
L 253.860377 296.775391 
L 254.216806 296.496616 
L 254.573235 296.573269 
L 254.929664 296.416841 
L 255.642523 296.728229 
L 256.355381 296.823404 
L 256.71181 296.834523 
L 257.424668 296.477312 
L 259.206814 297.038535 
L 259.563243 296.885786 
L 259.919672 296.943057 
L 260.276102 297.187368 
L 261.345389 296.963846 
L 262.058247 296.702111 
L 262.771106 296.831205 
L 263.840393 297.44904 
L 264.553251 297.273267 
L 265.26611 297.39486 
L 265.622539 297.245171 
L 265.978968 297.394915 
L 266.335397 297.355627 
L 266.691826 297.063901 
L 267.404685 297.052804 
L 268.117543 297.208716 
L 268.830401 297.170309 
L 270.612547 297.82355 
L 271.325405 297.40572 
L 271.681835 297.397572 
L 272.394693 297.602988 
L 273.107551 297.577803 
L 273.82041 297.446377 
L 274.533268 297.657177 
L 274.889697 297.531477 
L 275.958984 298.111831 
L 276.671843 298.243945 
L 277.028272 298.093349 
L 277.74113 298.178208 
L 278.097559 297.94813 
L 278.810418 298.292809 
L 279.166847 298.191114 
L 279.523276 298.275956 
L 279.879705 298.085386 
L 280.592563 298.350094 
L 280.948993 298.414908 
L 281.661851 298.273302 
L 282.01828 298.233621 
L 283.087568 297.749017 
L 283.800426 297.984019 
L 284.869713 298.078807 
L 285.939001 298.396196 
L 286.651859 298.424989 
L 288.077576 298.471975 
L 288.434005 298.415055 
L 289.503292 298.680398 
L 290.216151 298.453915 
L 290.929009 298.419452 
L 291.285438 298.293311 
L 291.641867 298.369427 
L 291.998296 298.256004 
L 292.354726 298.27561 
L 293.424013 298.072145 
L 293.780442 298.087892 
L 294.136871 298.267843 
L 294.493301 298.31117 
L 294.84973 298.180974 
L 295.562588 298.326192 
L 295.919017 298.23644 
L 296.275446 297.935239 
L 296.988305 298.310535 
L 297.701163 298.363679 
L 298.057592 298.390495 
L 298.414021 298.249119 
L 299.483309 298.235028 
L 299.839738 298.114603 
L 300.196167 298.122817 
L 300.909025 297.959728 
L 301.621884 298.102908 
L 302.334742 298.106077 
L 302.691171 297.885514 
L 303.0476 297.914735 
L 304.473317 297.475903 
L 304.829746 297.475715 
L 305.542604 297.645575 
L 306.968321 297.752399 
L 307.32475 297.504385 
L 307.681179 297.501706 
L 308.037609 297.308322 
L 308.394038 297.495049 
L 308.750467 297.386793 
L 310.532613 297.735833 
L 311.245471 297.591538 
L 311.6019 297.483036 
L 311.958329 297.575777 
L 312.314758 297.434855 
L 313.027617 297.435798 
L 313.384046 297.647368 
L 314.453333 297.757555 
L 314.809762 297.685179 
L 315.166192 297.772773 
L 316.235479 297.601035 
L 316.591908 297.707896 
L 318.730483 297.629631 
L 319.086912 297.712194 
L 320.1562 297.425421 
L 320.512629 297.507791 
L 320.869058 297.414683 
L 322.294775 297.55232 
L 323.007633 297.406085 
L 324.076921 297.430126 
L 324.789779 297.351844 
L 325.502637 297.488043 
L 326.215495 297.326892 
L 327.641212 297.213102 
L 327.997641 297.188679 
L 328.35407 297.356788 
L 328.7105 297.34242 
L 329.066929 297.469602 
L 330.136216 297.284504 
L 331.205504 297.265951 
L 332.274791 297.197141 
L 332.63122 296.957575 
L 333.344079 296.943858 
L 333.700508 297.017958 
L 334.769795 296.859286 
L 335.482654 296.974848 
L 336.551941 296.803279 
L 337.621229 296.972232 
L 337.977658 296.878312 
L 338.690516 297.067216 
L 339.046945 296.996733 
L 340.116233 297.139645 
L 340.829091 297.062896 
L 342.967666 297.342353 
L 343.324095 297.258193 
L 345.819099 297.70656 
L 346.175528 297.60147 
L 346.531957 297.704039 
L 347.244816 297.584596 
L 347.601245 297.658112 
L 347.957674 297.389551 
L 348.314103 297.406149 
L 348.670532 297.288428 
L 349.383391 297.276162 
L 349.73982 297.282386 
L 350.096249 297.116874 
L 350.452678 297.260843 
L 351.165536 297.216563 
L 352.234824 297.047633 
L 352.591253 297.147634 
L 352.947682 297.020919 
L 353.660541 297.111956 
L 354.373399 297.127236 
L 355.086257 297.238521 
L 355.442686 297.056172 
L 355.799115 297.124407 
L 356.868403 296.913736 
L 357.581261 296.724693 
L 357.93769 296.790145 
L 358.29412 296.712816 
L 358.650549 296.910582 
L 359.006978 296.800803 
L 359.363407 296.933258 
L 359.719836 296.79809 
L 360.432695 296.812331 
L 360.789124 297.019767 
L 361.145553 296.889019 
L 365.066274 297.160005 
L 365.422703 297.005525 
L 365.779132 297.168994 
L 367.204848 296.976569 
L 367.917707 297.021427 
L 369.699853 296.901367 
L 370.056282 296.845513 
L 370.76914 297.032205 
L 371.481998 297.026893 
L 372.907715 296.973968 
L 375.04629 296.521352 
L 375.402719 296.570506 
L 375.759148 296.369772 
L 378.967011 296.301789 
L 379.32344 296.356811 
L 379.679869 296.227768 
L 380.392727 296.298638 
L 381.105586 296.217501 
L 381.462015 296.405776 
L 382.174873 296.437086 
L 382.887731 296.429345 
L 383.60059 296.283531 
L 386.095594 296.588688 
L 386.452023 296.605303 
L 387.164881 296.824736 
L 387.52131 296.739693 
L 388.234169 296.822293 
L 389.303456 296.494525 
L 390.372744 296.613868 
L 390.729173 296.693044 
L 391.085602 296.61626 
L 391.79846 296.758652 
L 392.867748 296.689526 
L 393.580606 296.653981 
L 401.778477 296.491082 
L 402.491335 296.69401 
L 402.847764 296.848468 
L 403.560622 296.841988 
L 405.342768 296.982386 
L 406.055627 296.939491 
L 409.619918 297.299339 
L 410.332776 297.14581 
L 411.045635 297.111066 
L 412.114922 297.128719 
L 412.471351 297.045091 
L 412.827781 297.150709 
L 414.253497 297.012882 
L 414.966355 297.039931 
L 418.887076 296.978818 
L 419.243505 296.862085 
L 419.956364 297.036351 
L 419.956364 297.036351 
" style="fill:none;stroke:#1f77b4;stroke-linecap:square;stroke-width:1.5;"/>
   </g>
   <g id="patch_8">
    <path d="M 46.08 317.952 
L 46.08 188.928 
" style="fill:none;stroke:#000000;stroke-linecap:square;stroke-linejoin:miter;stroke-width:0.8;"/>
   </g>
   <g id="patch_9">
    <path d="M 437.76 317.952 
L 437.76 188.928 
" style="fill:none;stroke:#000000;stroke-linecap:square;stroke-linejoin:miter;stroke-width:0.8;"/>
   </g>
   <g id="patch_10">
    <path d="M 46.08 317.952 
L 437.76 317.952 
" style="fill:none;stroke:#000000;stroke-linecap:square;stroke-linejoin:miter;stroke-width:0.8;"/>
   </g>
   <g id="patch_11">
    <path d="M 46.08 188.928 
L 437.76 188.928 
" style="fill:none;stroke:#000000;stroke-linecap:square;stroke-linejoin:miter;stroke-width:0.8;"/>
   </g>
   <g id="text_27">
    <!-- Utilización promedio servidor D2 -->
    <g transform="translate(143.674688 182.928)scale(0.12 -0.12)">
     <use xlink:href="#DejaVuSans-85"/>
     <use x="73.193359" xlink:href="#DejaVuSans-116"/>
     <use x="112.402344" xlink:href="#DejaVuSans-105"/>
     <use x="140.185547" xlink:href="#DejaVuSans-108"/>
     <use x="167.96875" xlink:href="#DejaVuSans-105"/>
     <use x="195.751953" xlink:href="#DejaVuSans-122"/>
     <use x="248.242188" xlink:href="#DejaVuSans-97"/>
     <use x="309.521484" xlink:href="#DejaVuSans-99"/>
     <use x="364.501953" xlink:href="#DejaVuSans-105"/>
     <use x="392.285156" xlink:href="#DejaVuSans-243"/>
     <use x="453.466797" xlink:href="#DejaVuSans-110"/>
     <use x="516.845703" xlink:href="#DejaVuSans-32"/>
     <use x="548.632812" xlink:href="#DejaVuSans-112"/>
     <use x="612.109375" xlink:href="#DejaVuSans-114"/>
     <use x="653.191406" xlink:href="#DejaVuSans-111"/>
     <use x="714.373047" xlink:href="#DejaVuSans-109"/>
     <use x="811.785156" xlink:href="#DejaVuSans-101"/>
     <use x="873.308594" xlink:href="#DejaVuSans-100"/>
     <use x="936.785156" xlink:href="#DejaVuSans-105"/>
     <use x="964.568359" xlink:href="#DejaVuSans-111"/>
     <use x="1025.75" xlink:href="#DejaVuSans-32"/>
     <use x="1057.537109" xlink:href="#DejaVuSans-115"/>
     <use x="1109.636719" xlink:href="#DejaVuSans-101"/>
     <use x="1171.160156" xlink:href="#DejaVuSans-114"/>
     <use x="1212.273438" xlink:href="#DejaVuSans-118"/>
     <use x="1271.453125" xlink:href="#DejaVuSans-105"/>
     <use x="1299.236328" xlink:href="#DejaVuSans-100"/>
     <use x="1362.712891" xlink:href="#DejaVuSans-111"/>
     <use x="1423.894531" xlink:href="#DejaVuSans-114"/>
     <use x="1465.007812" xlink:href="#DejaVuSans-32"/>
     <use x="1496.794922" xlink:href="#DejaVuSans-68"/>
     <use x="1573.796875" xlink:href="#DejaVuSans-50"/>
    </g>
   </g>
  </g>
 </g>
 <defs>
  <clipPath id="p31decb6a64">
   <rect height="129.024" width="391.68" x="46.08" y="27.648"/>
  </clipPath>
  <clipPath id="p68bf91c3bd">
   <rect height="129.024" width="391.68" x="46.08" y="188.928"/>
  </clipPath>
 </defs>
</svg>
