<?xml version="1.0" encoding="utf-8" standalone="no"?>
<!DOCTYPE svg PUBLIC "-//W3C//DTD SVG 1.1//EN"
  "http://www.w3.org/Graphics/SVG/1.1/DTD/svg11.dtd">
<!-- Created with matplotlib (https://matplotlib.org/) -->
<svg height="345.6pt" version="1.1" viewBox="0 0 460.8 345.6" width="460.8pt" xmlns="http://www.w3.org/2000/svg" xmlns:xlink="http://www.w3.org/1999/xlink">
 <defs>
  <style type="text/css">
*{stroke-linecap:butt;stroke-linejoin:round;}
  </style>
 </defs>
 <g id="figure_1">
  <g id="patch_1">
   <path d="M 0 345.6 
L 460.8 345.6 
L 460.8 0 
L 0 0 
z
" style="fill:#ffffff;"/>
  </g>
  <g id="axes_1">
   <g id="patch_2">
    <path d="M 46.08 156.672 
L 437.76 156.672 
L 437.76 27.648 
L 46.08 27.648 
z
" style="fill:#ffffff;"/>
   </g>
   <g id="matplotlib.axis_1">
    <g id="xtick_1">
     <g id="line2d_1">
      <path clip-path="url(#p96c20dbfb9)" d="M 63.527207 156.672 
L 63.527207 27.648 
" style="fill:none;stroke:#b0b0b0;stroke-linecap:square;stroke-width:0.8;"/>
     </g>
     <g id="line2d_2">
      <defs>
       <path d="M 0 0 
L 0 3.5 
" id="m322ee2dad1" style="stroke:#000000;stroke-width:0.8;"/>
      </defs>
      <g>
       <use style="stroke:#000000;stroke-width:0.8;" x="63.527207" xlink:href="#m322ee2dad1" y="156.672"/>
      </g>
     </g>
     <g id="text_1">
      <!-- 0 -->
      <defs>
       <path d="M 31.78125 66.40625 
Q 24.171875 66.40625 20.328125 58.90625 
Q 16.5 51.421875 16.5 36.375 
Q 16.5 21.390625 20.328125 13.890625 
Q 24.171875 6.390625 31.78125 6.390625 
Q 39.453125 6.390625 43.28125 13.890625 
Q 47.125 21.390625 47.125 36.375 
Q 47.125 51.421875 43.28125 58.90625 
Q 39.453125 66.40625 31.78125 66.40625 
z
M 31.78125 74.21875 
Q 44.046875 74.21875 50.515625 64.515625 
Q 56.984375 54.828125 56.984375 36.375 
Q 56.984375 17.96875 50.515625 8.265625 
Q 44.046875 -1.421875 31.78125 -1.421875 
Q 19.53125 -1.421875 13.0625 8.265625 
Q 6.59375 17.96875 6.59375 36.375 
Q 6.59375 54.828125 13.0625 64.515625 
Q 19.53125 74.21875 31.78125 74.21875 
z
" id="DejaVuSans-48"/>
      </defs>
      <g transform="translate(60.345957 171.270437)scale(0.1 -0.1)">
       <use xlink:href="#DejaVuSans-48"/>
      </g>
     </g>
    </g>
    <g id="xtick_2">
     <g id="line2d_3">
      <path clip-path="url(#p96c20dbfb9)" d="M 134.813038 156.672 
L 134.813038 27.648 
" style="fill:none;stroke:#b0b0b0;stroke-linecap:square;stroke-width:0.8;"/>
     </g>
     <g id="line2d_4">
      <g>
       <use style="stroke:#000000;stroke-width:0.8;" x="134.813038" xlink:href="#m322ee2dad1" y="156.672"/>
      </g>
     </g>
     <g id="text_2">
      <!-- 200 -->
      <defs>
       <path d="M 19.1875 8.296875 
L 53.609375 8.296875 
L 53.609375 0 
L 7.328125 0 
L 7.328125 8.296875 
Q 12.9375 14.109375 22.625 23.890625 
Q 32.328125 33.6875 34.8125 36.53125 
Q 39.546875 41.84375 41.421875 45.53125 
Q 43.3125 49.21875 43.3125 52.78125 
Q 43.3125 58.59375 39.234375 62.25 
Q 35.15625 65.921875 28.609375 65.921875 
Q 23.96875 65.921875 18.8125 64.3125 
Q 13.671875 62.703125 7.8125 59.421875 
L 7.8125 69.390625 
Q 13.765625 71.78125 18.9375 73 
Q 24.125 74.21875 28.421875 74.21875 
Q 39.75 74.21875 46.484375 68.546875 
Q 53.21875 62.890625 53.21875 53.421875 
Q 53.21875 48.921875 51.53125 44.890625 
Q 49.859375 40.875 45.40625 35.40625 
Q 44.1875 33.984375 37.640625 27.21875 
Q 31.109375 20.453125 19.1875 8.296875 
z
" id="DejaVuSans-50"/>
      </defs>
      <g transform="translate(125.269288 171.270437)scale(0.1 -0.1)">
       <use xlink:href="#DejaVuSans-50"/>
       <use x="63.623047" xlink:href="#DejaVuSans-48"/>
       <use x="127.246094" xlink:href="#DejaVuSans-48"/>
      </g>
     </g>
    </g>
    <g id="xtick_3">
     <g id="line2d_5">
      <path clip-path="url(#p96c20dbfb9)" d="M 206.09887 156.672 
L 206.09887 27.648 
" style="fill:none;stroke:#b0b0b0;stroke-linecap:square;stroke-width:0.8;"/>
     </g>
     <g id="line2d_6">
      <g>
       <use style="stroke:#000000;stroke-width:0.8;" x="206.09887" xlink:href="#m322ee2dad1" y="156.672"/>
      </g>
     </g>
     <g id="text_3">
      <!-- 400 -->
      <defs>
       <path d="M 37.796875 64.3125 
L 12.890625 25.390625 
L 37.796875 25.390625 
z
M 35.203125 72.90625 
L 47.609375 72.90625 
L 47.609375 25.390625 
L 58.015625 25.390625 
L 58.015625 17.1875 
L 47.609375 17.1875 
L 47.609375 0 
L 37.796875 0 
L 37.796875 17.1875 
L 4.890625 17.1875 
L 4.890625 26.703125 
z
" id="DejaVuSans-52"/>
      </defs>
      <g transform="translate(196.55512 171.270437)scale(0.1 -0.1)">
       <use xlink:href="#DejaVuSans-52"/>
       <use x="63.623047" xlink:href="#DejaVuSans-48"/>
       <use x="127.246094" xlink:href="#DejaVuSans-48"/>
      </g>
     </g>
    </g>
    <g id="xtick_4">
     <g id="line2d_7">
      <path clip-path="url(#p96c20dbfb9)" d="M 277.384701 156.672 
L 277.384701 27.648 
" style="fill:none;stroke:#b0b0b0;stroke-linecap:square;stroke-width:0.8;"/>
     </g>
     <g id="line2d_8">
      <g>
       <use style="stroke:#000000;stroke-width:0.8;" x="277.384701" xlink:href="#m322ee2dad1" y="156.672"/>
      </g>
     </g>
     <g id="text_4">
      <!-- 600 -->
      <defs>
       <path d="M 33.015625 40.375 
Q 26.375 40.375 22.484375 35.828125 
Q 18.609375 31.296875 18.609375 23.390625 
Q 18.609375 15.53125 22.484375 10.953125 
Q 26.375 6.390625 33.015625 6.390625 
Q 39.65625 6.390625 43.53125 10.953125 
Q 47.40625 15.53125 47.40625 23.390625 
Q 47.40625 31.296875 43.53125 35.828125 
Q 39.65625 40.375 33.015625 40.375 
z
M 52.59375 71.296875 
L 52.59375 62.3125 
Q 48.875 64.0625 45.09375 64.984375 
Q 41.3125 65.921875 37.59375 65.921875 
Q 27.828125 65.921875 22.671875 59.328125 
Q 17.53125 52.734375 16.796875 39.40625 
Q 19.671875 43.65625 24.015625 45.921875 
Q 28.375 48.1875 33.59375 48.1875 
Q 44.578125 48.1875 50.953125 41.515625 
Q 57.328125 34.859375 57.328125 23.390625 
Q 57.328125 12.15625 50.6875 5.359375 
Q 44.046875 -1.421875 33.015625 -1.421875 
Q 20.359375 -1.421875 13.671875 8.265625 
Q 6.984375 17.96875 6.984375 36.375 
Q 6.984375 53.65625 15.1875 63.9375 
Q 23.390625 74.21875 37.203125 74.21875 
Q 40.921875 74.21875 44.703125 73.484375 
Q 48.484375 72.75 52.59375 71.296875 
z
" id="DejaVuSans-54"/>
      </defs>
      <g transform="translate(267.840951 171.270437)scale(0.1 -0.1)">
       <use xlink:href="#DejaVuSans-54"/>
       <use x="63.623047" xlink:href="#DejaVuSans-48"/>
       <use x="127.246094" xlink:href="#DejaVuSans-48"/>
      </g>
     </g>
    </g>
    <g id="xtick_5">
     <g id="line2d_9">
      <path clip-path="url(#p96c20dbfb9)" d="M 348.670532 156.672 
L 348.670532 27.648 
" style="fill:none;stroke:#b0b0b0;stroke-linecap:square;stroke-width:0.8;"/>
     </g>
     <g id="line2d_10">
      <g>
       <use style="stroke:#000000;stroke-width:0.8;" x="348.670532" xlink:href="#m322ee2dad1" y="156.672"/>
      </g>
     </g>
     <g id="text_5">
      <!-- 800 -->
      <defs>
       <path d="M 31.78125 34.625 
Q 24.75 34.625 20.71875 30.859375 
Q 16.703125 27.09375 16.703125 20.515625 
Q 16.703125 13.921875 20.71875 10.15625 
Q 24.75 6.390625 31.78125 6.390625 
Q 38.8125 6.390625 42.859375 10.171875 
Q 46.921875 13.96875 46.921875 20.515625 
Q 46.921875 27.09375 42.890625 30.859375 
Q 38.875 34.625 31.78125 34.625 
z
M 21.921875 38.8125 
Q 15.578125 40.375 12.03125 44.71875 
Q 8.5 49.078125 8.5 55.328125 
Q 8.5 64.0625 14.71875 69.140625 
Q 20.953125 74.21875 31.78125 74.21875 
Q 42.671875 74.21875 48.875 69.140625 
Q 55.078125 64.0625 55.078125 55.328125 
Q 55.078125 49.078125 51.53125 44.71875 
Q 48 40.375 41.703125 38.8125 
Q 48.828125 37.15625 52.796875 32.3125 
Q 56.78125 27.484375 56.78125 20.515625 
Q 56.78125 9.90625 50.3125 4.234375 
Q 43.84375 -1.421875 31.78125 -1.421875 
Q 19.734375 -1.421875 13.25 4.234375 
Q 6.78125 9.90625 6.78125 20.515625 
Q 6.78125 27.484375 10.78125 32.3125 
Q 14.796875 37.15625 21.921875 38.8125 
z
M 18.3125 54.390625 
Q 18.3125 48.734375 21.84375 45.5625 
Q 25.390625 42.390625 31.78125 42.390625 
Q 38.140625 42.390625 41.71875 45.5625 
Q 45.3125 48.734375 45.3125 54.390625 
Q 45.3125 60.0625 41.71875 63.234375 
Q 38.140625 66.40625 31.78125 66.40625 
Q 25.390625 66.40625 21.84375 63.234375 
Q 18.3125 60.0625 18.3125 54.390625 
z
" id="DejaVuSans-56"/>
      </defs>
      <g transform="translate(339.126782 171.270437)scale(0.1 -0.1)">
       <use xlink:href="#DejaVuSans-56"/>
       <use x="63.623047" xlink:href="#DejaVuSans-48"/>
       <use x="127.246094" xlink:href="#DejaVuSans-48"/>
      </g>
     </g>
    </g>
    <g id="xtick_6">
     <g id="line2d_11">
      <path clip-path="url(#p96c20dbfb9)" d="M 419.956364 156.672 
L 419.956364 27.648 
" style="fill:none;stroke:#b0b0b0;stroke-linecap:square;stroke-width:0.8;"/>
     </g>
     <g id="line2d_12">
      <g>
       <use style="stroke:#000000;stroke-width:0.8;" x="419.956364" xlink:href="#m322ee2dad1" y="156.672"/>
      </g>
     </g>
     <g id="text_6">
      <!-- 1000 -->
      <defs>
       <path d="M 12.40625 8.296875 
L 28.515625 8.296875 
L 28.515625 63.921875 
L 10.984375 60.40625 
L 10.984375 69.390625 
L 28.421875 72.90625 
L 38.28125 72.90625 
L 38.28125 8.296875 
L 54.390625 8.296875 
L 54.390625 0 
L 12.40625 0 
z
" id="DejaVuSans-49"/>
      </defs>
      <g transform="translate(407.231364 171.270437)scale(0.1 -0.1)">
       <use xlink:href="#DejaVuSans-49"/>
       <use x="63.623047" xlink:href="#DejaVuSans-48"/>
       <use x="127.246094" xlink:href="#DejaVuSans-48"/>
       <use x="190.869141" xlink:href="#DejaVuSans-48"/>
      </g>
     </g>
    </g>
    <g id="text_7">
     <!-- Corridas -->
     <defs>
      <path d="M 64.40625 67.28125 
L 64.40625 56.890625 
Q 59.421875 61.53125 53.78125 63.8125 
Q 48.140625 66.109375 41.796875 66.109375 
Q 29.296875 66.109375 22.65625 58.46875 
Q 16.015625 50.828125 16.015625 36.375 
Q 16.015625 21.96875 22.65625 14.328125 
Q 29.296875 6.6875 41.796875 6.6875 
Q 48.140625 6.6875 53.78125 8.984375 
Q 59.421875 11.28125 64.40625 15.921875 
L 64.40625 5.609375 
Q 59.234375 2.09375 53.4375 0.328125 
Q 47.65625 -1.421875 41.21875 -1.421875 
Q 24.65625 -1.421875 15.125 8.703125 
Q 5.609375 18.84375 5.609375 36.375 
Q 5.609375 53.953125 15.125 64.078125 
Q 24.65625 74.21875 41.21875 74.21875 
Q 47.75 74.21875 53.53125 72.484375 
Q 59.328125 70.75 64.40625 67.28125 
z
" id="DejaVuSans-67"/>
      <path d="M 30.609375 48.390625 
Q 23.390625 48.390625 19.1875 42.75 
Q 14.984375 37.109375 14.984375 27.296875 
Q 14.984375 17.484375 19.15625 11.84375 
Q 23.34375 6.203125 30.609375 6.203125 
Q 37.796875 6.203125 41.984375 11.859375 
Q 46.1875 17.53125 46.1875 27.296875 
Q 46.1875 37.015625 41.984375 42.703125 
Q 37.796875 48.390625 30.609375 48.390625 
z
M 30.609375 56 
Q 42.328125 56 49.015625 48.375 
Q 55.71875 40.765625 55.71875 27.296875 
Q 55.71875 13.875 49.015625 6.21875 
Q 42.328125 -1.421875 30.609375 -1.421875 
Q 18.84375 -1.421875 12.171875 6.21875 
Q 5.515625 13.875 5.515625 27.296875 
Q 5.515625 40.765625 12.171875 48.375 
Q 18.84375 56 30.609375 56 
z
" id="DejaVuSans-111"/>
      <path d="M 41.109375 46.296875 
Q 39.59375 47.171875 37.8125 47.578125 
Q 36.03125 48 33.890625 48 
Q 26.265625 48 22.1875 43.046875 
Q 18.109375 38.09375 18.109375 28.8125 
L 18.109375 0 
L 9.078125 0 
L 9.078125 54.6875 
L 18.109375 54.6875 
L 18.109375 46.1875 
Q 20.953125 51.171875 25.484375 53.578125 
Q 30.03125 56 36.53125 56 
Q 37.453125 56 38.578125 55.875 
Q 39.703125 55.765625 41.0625 55.515625 
z
" id="DejaVuSans-114"/>
      <path d="M 9.421875 54.6875 
L 18.40625 54.6875 
L 18.40625 0 
L 9.421875 0 
z
M 9.421875 75.984375 
L 18.40625 75.984375 
L 18.40625 64.59375 
L 9.421875 64.59375 
z
" id="DejaVuSans-105"/>
      <path d="M 45.40625 46.390625 
L 45.40625 75.984375 
L 54.390625 75.984375 
L 54.390625 0 
L 45.40625 0 
L 45.40625 8.203125 
Q 42.578125 3.328125 38.25 0.953125 
Q 33.9375 -1.421875 27.875 -1.421875 
Q 17.96875 -1.421875 11.734375 6.484375 
Q 5.515625 14.40625 5.515625 27.296875 
Q 5.515625 40.1875 11.734375 48.09375 
Q 17.96875 56 27.875 56 
Q 33.9375 56 38.25 53.625 
Q 42.578125 51.265625 45.40625 46.390625 
z
M 14.796875 27.296875 
Q 14.796875 17.390625 18.875 11.75 
Q 22.953125 6.109375 30.078125 6.109375 
Q 37.203125 6.109375 41.296875 11.75 
Q 45.40625 17.390625 45.40625 27.296875 
Q 45.40625 37.203125 41.296875 42.84375 
Q 37.203125 48.484375 30.078125 48.484375 
Q 22.953125 48.484375 18.875 42.84375 
Q 14.796875 37.203125 14.796875 27.296875 
z
" id="DejaVuSans-100"/>
      <path d="M 34.28125 27.484375 
Q 23.390625 27.484375 19.1875 25 
Q 14.984375 22.515625 14.984375 16.5 
Q 14.984375 11.71875 18.140625 8.90625 
Q 21.296875 6.109375 26.703125 6.109375 
Q 34.1875 6.109375 38.703125 11.40625 
Q 43.21875 16.703125 43.21875 25.484375 
L 43.21875 27.484375 
z
M 52.203125 31.203125 
L 52.203125 0 
L 43.21875 0 
L 43.21875 8.296875 
Q 40.140625 3.328125 35.546875 0.953125 
Q 30.953125 -1.421875 24.3125 -1.421875 
Q 15.921875 -1.421875 10.953125 3.296875 
Q 6 8.015625 6 15.921875 
Q 6 25.140625 12.171875 29.828125 
Q 18.359375 34.515625 30.609375 34.515625 
L 43.21875 34.515625 
L 43.21875 35.40625 
Q 43.21875 41.609375 39.140625 45 
Q 35.0625 48.390625 27.6875 48.390625 
Q 23 48.390625 18.546875 47.265625 
Q 14.109375 46.140625 10.015625 43.890625 
L 10.015625 52.203125 
Q 14.9375 54.109375 19.578125 55.046875 
Q 24.21875 56 28.609375 56 
Q 40.484375 56 46.34375 49.84375 
Q 52.203125 43.703125 52.203125 31.203125 
z
" id="DejaVuSans-97"/>
      <path d="M 44.28125 53.078125 
L 44.28125 44.578125 
Q 40.484375 46.53125 36.375 47.5 
Q 32.28125 48.484375 27.875 48.484375 
Q 21.1875 48.484375 17.84375 46.4375 
Q 14.5 44.390625 14.5 40.28125 
Q 14.5 37.15625 16.890625 35.375 
Q 19.28125 33.59375 26.515625 31.984375 
L 29.59375 31.296875 
Q 39.15625 29.25 43.1875 25.515625 
Q 47.21875 21.78125 47.21875 15.09375 
Q 47.21875 7.46875 41.1875 3.015625 
Q 35.15625 -1.421875 24.609375 -1.421875 
Q 20.21875 -1.421875 15.453125 -0.5625 
Q 10.6875 0.296875 5.421875 2 
L 5.421875 11.28125 
Q 10.40625 8.6875 15.234375 7.390625 
Q 20.0625 6.109375 24.8125 6.109375 
Q 31.15625 6.109375 34.5625 8.28125 
Q 37.984375 10.453125 37.984375 14.40625 
Q 37.984375 18.0625 35.515625 20.015625 
Q 33.0625 21.96875 24.703125 23.78125 
L 21.578125 24.515625 
Q 13.234375 26.265625 9.515625 29.90625 
Q 5.8125 33.546875 5.8125 39.890625 
Q 5.8125 47.609375 11.28125 51.796875 
Q 16.75 56 26.8125 56 
Q 31.78125 56 36.171875 55.265625 
Q 40.578125 54.546875 44.28125 53.078125 
z
" id="DejaVuSans-115"/>
     </defs>
     <g transform="translate(221.027031 184.948562)scale(0.1 -0.1)">
      <use xlink:href="#DejaVuSans-67"/>
      <use x="69.824219" xlink:href="#DejaVuSans-111"/>
      <use x="131.005859" xlink:href="#DejaVuSans-114"/>
      <use x="172.103516" xlink:href="#DejaVuSans-114"/>
      <use x="213.216797" xlink:href="#DejaVuSans-105"/>
      <use x="241" xlink:href="#DejaVuSans-100"/>
      <use x="304.476562" xlink:href="#DejaVuSans-97"/>
      <use x="365.755859" xlink:href="#DejaVuSans-115"/>
     </g>
    </g>
   </g>
   <g id="matplotlib.axis_2">
    <g id="ytick_1">
     <g id="line2d_13">
      <path clip-path="url(#p96c20dbfb9)" d="M 46.08 150.807273 
L 437.76 150.807273 
" style="fill:none;stroke:#b0b0b0;stroke-linecap:square;stroke-width:0.8;"/>
     </g>
     <g id="line2d_14">
      <defs>
       <path d="M 0 0 
L -3.5 0 
" id="md7b5dfccff" style="stroke:#000000;stroke-width:0.8;"/>
      </defs>
      <g>
       <use style="stroke:#000000;stroke-width:0.8;" x="46.08" xlink:href="#md7b5dfccff" y="150.807273"/>
      </g>
     </g>
     <g id="text_8">
      <!-- 0.00000 -->
      <defs>
       <path d="M 10.6875 12.40625 
L 21 12.40625 
L 21 0 
L 10.6875 0 
z
" id="DejaVuSans-46"/>
      </defs>
      <g transform="translate(-2.273125 154.606491)scale(0.1 -0.1)">
       <use xlink:href="#DejaVuSans-48"/>
       <use x="63.623047" xlink:href="#DejaVuSans-46"/>
       <use x="95.410156" xlink:href="#DejaVuSans-48"/>
       <use x="159.033203" xlink:href="#DejaVuSans-48"/>
       <use x="222.65625" xlink:href="#DejaVuSans-48"/>
       <use x="286.279297" xlink:href="#DejaVuSans-48"/>
       <use x="349.902344" xlink:href="#DejaVuSans-48"/>
      </g>
     </g>
    </g>
    <g id="ytick_2">
     <g id="line2d_15">
      <path clip-path="url(#p96c20dbfb9)" d="M 46.08 119.321496 
L 437.76 119.321496 
" style="fill:none;stroke:#b0b0b0;stroke-linecap:square;stroke-width:0.8;"/>
     </g>
     <g id="line2d_16">
      <g>
       <use style="stroke:#000000;stroke-width:0.8;" x="46.08" xlink:href="#md7b5dfccff" y="119.321496"/>
      </g>
     </g>
     <g id="text_9">
      <!-- 0.00001 -->
      <g transform="translate(-2.273125 123.120715)scale(0.1 -0.1)">
       <use xlink:href="#DejaVuSans-48"/>
       <use x="63.623047" xlink:href="#DejaVuSans-46"/>
       <use x="95.410156" xlink:href="#DejaVuSans-48"/>
       <use x="159.033203" xlink:href="#DejaVuSans-48"/>
       <use x="222.65625" xlink:href="#DejaVuSans-48"/>
       <use x="286.279297" xlink:href="#DejaVuSans-48"/>
       <use x="349.902344" xlink:href="#DejaVuSans-49"/>
      </g>
     </g>
    </g>
    <g id="ytick_3">
     <g id="line2d_17">
      <path clip-path="url(#p96c20dbfb9)" d="M 46.08 87.83572 
L 437.76 87.83572 
" style="fill:none;stroke:#b0b0b0;stroke-linecap:square;stroke-width:0.8;"/>
     </g>
     <g id="line2d_18">
      <g>
       <use style="stroke:#000000;stroke-width:0.8;" x="46.08" xlink:href="#md7b5dfccff" y="87.83572"/>
      </g>
     </g>
     <g id="text_10">
      <!-- 0.00002 -->
      <g transform="translate(-2.273125 91.634938)scale(0.1 -0.1)">
       <use xlink:href="#DejaVuSans-48"/>
       <use x="63.623047" xlink:href="#DejaVuSans-46"/>
       <use x="95.410156" xlink:href="#DejaVuSans-48"/>
       <use x="159.033203" xlink:href="#DejaVuSans-48"/>
       <use x="222.65625" xlink:href="#DejaVuSans-48"/>
       <use x="286.279297" xlink:href="#DejaVuSans-48"/>
       <use x="349.902344" xlink:href="#DejaVuSans-50"/>
      </g>
     </g>
    </g>
    <g id="ytick_4">
     <g id="line2d_19">
      <path clip-path="url(#p96c20dbfb9)" d="M 46.08 56.349943 
L 437.76 56.349943 
" style="fill:none;stroke:#b0b0b0;stroke-linecap:square;stroke-width:0.8;"/>
     </g>
     <g id="line2d_20">
      <g>
       <use style="stroke:#000000;stroke-width:0.8;" x="46.08" xlink:href="#md7b5dfccff" y="56.349943"/>
      </g>
     </g>
     <g id="text_11">
      <!-- 0.00003 -->
      <defs>
       <path d="M 40.578125 39.3125 
Q 47.65625 37.796875 51.625 33 
Q 55.609375 28.21875 55.609375 21.1875 
Q 55.609375 10.40625 48.1875 4.484375 
Q 40.765625 -1.421875 27.09375 -1.421875 
Q 22.515625 -1.421875 17.65625 -0.515625 
Q 12.796875 0.390625 7.625 2.203125 
L 7.625 11.71875 
Q 11.71875 9.328125 16.59375 8.109375 
Q 21.484375 6.890625 26.8125 6.890625 
Q 36.078125 6.890625 40.9375 10.546875 
Q 45.796875 14.203125 45.796875 21.1875 
Q 45.796875 27.640625 41.28125 31.265625 
Q 36.765625 34.90625 28.71875 34.90625 
L 20.21875 34.90625 
L 20.21875 43.015625 
L 29.109375 43.015625 
Q 36.375 43.015625 40.234375 45.921875 
Q 44.09375 48.828125 44.09375 54.296875 
Q 44.09375 59.90625 40.109375 62.90625 
Q 36.140625 65.921875 28.71875 65.921875 
Q 24.65625 65.921875 20.015625 65.03125 
Q 15.375 64.15625 9.8125 62.3125 
L 9.8125 71.09375 
Q 15.4375 72.65625 20.34375 73.4375 
Q 25.25 74.21875 29.59375 74.21875 
Q 40.828125 74.21875 47.359375 69.109375 
Q 53.90625 64.015625 53.90625 55.328125 
Q 53.90625 49.265625 50.4375 45.09375 
Q 46.96875 40.921875 40.578125 39.3125 
z
" id="DejaVuSans-51"/>
      </defs>
      <g transform="translate(-2.273125 60.149162)scale(0.1 -0.1)">
       <use xlink:href="#DejaVuSans-48"/>
       <use x="63.623047" xlink:href="#DejaVuSans-46"/>
       <use x="95.410156" xlink:href="#DejaVuSans-48"/>
       <use x="159.033203" xlink:href="#DejaVuSans-48"/>
       <use x="222.65625" xlink:href="#DejaVuSans-48"/>
       <use x="286.279297" xlink:href="#DejaVuSans-48"/>
       <use x="349.902344" xlink:href="#DejaVuSans-51"/>
      </g>
     </g>
    </g>
    <g id="text_12">
     <!-- Demora -->
     <defs>
      <path d="M 19.671875 64.796875 
L 19.671875 8.109375 
L 31.59375 8.109375 
Q 46.6875 8.109375 53.6875 14.9375 
Q 60.6875 21.78125 60.6875 36.53125 
Q 60.6875 51.171875 53.6875 57.984375 
Q 46.6875 64.796875 31.59375 64.796875 
z
M 9.8125 72.90625 
L 30.078125 72.90625 
Q 51.265625 72.90625 61.171875 64.09375 
Q 71.09375 55.28125 71.09375 36.53125 
Q 71.09375 17.671875 61.125 8.828125 
Q 51.171875 0 30.078125 0 
L 9.8125 0 
z
" id="DejaVuSans-68"/>
      <path d="M 56.203125 29.59375 
L 56.203125 25.203125 
L 14.890625 25.203125 
Q 15.484375 15.921875 20.484375 11.0625 
Q 25.484375 6.203125 34.421875 6.203125 
Q 39.59375 6.203125 44.453125 7.46875 
Q 49.3125 8.734375 54.109375 11.28125 
L 54.109375 2.78125 
Q 49.265625 0.734375 44.1875 -0.34375 
Q 39.109375 -1.421875 33.890625 -1.421875 
Q 20.796875 -1.421875 13.15625 6.1875 
Q 5.515625 13.8125 5.515625 26.8125 
Q 5.515625 40.234375 12.765625 48.109375 
Q 20.015625 56 32.328125 56 
Q 43.359375 56 49.78125 48.890625 
Q 56.203125 41.796875 56.203125 29.59375 
z
M 47.21875 32.234375 
Q 47.125 39.59375 43.09375 43.984375 
Q 39.0625 48.390625 32.421875 48.390625 
Q 24.90625 48.390625 20.390625 44.140625 
Q 15.875 39.890625 15.1875 32.171875 
z
" id="DejaVuSans-101"/>
      <path d="M 52 44.1875 
Q 55.375 50.25 60.0625 53.125 
Q 64.75 56 71.09375 56 
Q 79.640625 56 84.28125 50.015625 
Q 88.921875 44.046875 88.921875 33.015625 
L 88.921875 0 
L 79.890625 0 
L 79.890625 32.71875 
Q 79.890625 40.578125 77.09375 44.375 
Q 74.3125 48.1875 68.609375 48.1875 
Q 61.625 48.1875 57.5625 43.546875 
Q 53.515625 38.921875 53.515625 30.90625 
L 53.515625 0 
L 44.484375 0 
L 44.484375 32.71875 
Q 44.484375 40.625 41.703125 44.40625 
Q 38.921875 48.1875 33.109375 48.1875 
Q 26.21875 48.1875 22.15625 43.53125 
Q 18.109375 38.875 18.109375 30.90625 
L 18.109375 0 
L 9.078125 0 
L 9.078125 54.6875 
L 18.109375 54.6875 
L 18.109375 46.1875 
Q 21.1875 51.21875 25.484375 53.609375 
Q 29.78125 56 35.6875 56 
Q 41.65625 56 45.828125 52.96875 
Q 50 49.953125 52 44.1875 
z
" id="DejaVuSans-109"/>
     </defs>
     <g transform="translate(-8.352813 112.135781)rotate(-90)scale(0.1 -0.1)">
      <use xlink:href="#DejaVuSans-68"/>
      <use x="77.001953" xlink:href="#DejaVuSans-101"/>
      <use x="138.525391" xlink:href="#DejaVuSans-109"/>
      <use x="235.9375" xlink:href="#DejaVuSans-111"/>
      <use x="297.119141" xlink:href="#DejaVuSans-114"/>
      <use x="338.232422" xlink:href="#DejaVuSans-97"/>
     </g>
    </g>
   </g>
   <g id="line2d_21">
    <path clip-path="url(#p96c20dbfb9)" d="M 63.883636 150.807273 
L 64.596495 150.807273 
L 64.952924 111.313212 
L 65.309353 119.212024 
L 66.022211 128.239238 
L 66.37864 131.060242 
L 66.73507 56.43665 
L 67.447928 73.594945 
L 68.160786 85.473765 
L 68.873645 94.184899 
L 69.586503 100.846355 
L 69.942932 38.312936 
L 70.299361 44.23369 
L 70.65579 33.512727 
L 71.725078 48.812016 
L 72.437936 56.971636 
L 72.794365 54.318475 
L 73.863653 64.300075 
L 74.220082 67.183648 
L 74.576511 68.249593 
L 75.645799 75.534094 
L 77.071515 83.457587 
L 78.497232 89.871843 
L 78.853661 91.288946 
L 79.21009 90.699289 
L 80.635807 95.708288 
L 82.061523 99.946671 
L 83.48724 103.579571 
L 85.269386 107.450694 
L 85.625815 107.781622 
L 87.051532 110.389237 
L 87.407961 110.76435 
L 89.190106 113.545109 
L 90.972252 115.96473 
L 93.110827 118.483468 
L 95.249402 120.662601 
L 96.31869 121.645579 
L 96.675119 121.381161 
L 99.170123 123.440988 
L 101.665127 125.231306 
L 103.803702 126.589322 
L 104.160131 125.910458 
L 105.229419 126.548838 
L 105.585848 126.519028 
L 107.724423 127.694265 
L 108.080852 124.574353 
L 111.288714 126.336266 
L 112.358002 126.872127 
L 112.714431 125.066123 
L 115.922293 126.642112 
L 116.278722 109.799853 
L 116.635152 107.631209 
L 119.843014 110.090605 
L 120.199443 109.487542 
L 123.407305 111.701099 
L 124.833022 112.610545 
L 125.189451 109.423902 
L 128.753743 111.685288 
L 132.674464 113.903545 
L 133.030893 114.092795 
L 133.387322 111.78891 
L 134.10018 112.183035 
L 134.456609 110.759892 
L 138.733759 113.037468 
L 139.446618 113.392114 
L 139.803047 111.461312 
L 144.080197 113.550478 
L 144.436626 113.714605 
L 144.793055 113.473185 
L 149.426634 115.487057 
L 154.773071 117.556601 
L 156.198788 118.06815 
L 156.555217 117.842443 
L 157.268075 118.093126 
L 157.624505 117.786722 
L 163.327371 119.673611 
L 164.753088 120.112113 
L 165.109517 119.927701 
L 166.178804 120.249364 
L 166.535233 120.180201 
L 169.386667 120.931858 
L 169.743096 119.233543 
L 171.881671 119.856709 
L 172.2381 119.766133 
L 175.802391 120.669063 
L 176.51525 120.85921 
L 176.871679 119.628831 
L 177.584537 119.823696 
L 177.940966 118.064115 
L 185.06955 119.984535 
L 187.920983 120.691073 
L 188.277412 120.551109 
L 193.26742 121.714808 
L 193.623849 121.681211 
L 198.257428 122.682901 
L 198.613857 119.785844 
L 199.683145 119.771734 
L 202.534578 120.408361 
L 202.891007 120.068641 
L 208.237445 121.131215 
L 208.950303 121.276686 
L 209.306732 120.568092 
L 210.37602 120.745113 
L 215.722457 121.727438 
L 218.930319 122.32771 
L 219.286749 122.273609 
L 219.643178 122.008422 
L 221.781753 122.397596 
L 222.138182 121.760896 
L 226.415332 122.523602 
L 226.771761 122.13776 
L 230.336052 122.750356 
L 230.692482 121.933871 
L 241.385356 123.669747 
L 244.949648 124.202901 
L 245.306077 123.234241 
L 254.573235 124.571739 
L 254.929664 123.922417 
L 258.137527 124.303534 
L 258.493956 123.692378 
L 258.850385 123.741858 
L 259.206814 123.565591 
L 260.276102 123.713644 
L 260.632531 123.223063 
L 262.414676 123.470234 
L 262.771106 121.971954 
L 264.196822 122.150314 
L 264.553251 122.040628 
L 270.256118 122.824166 
L 270.612547 122.624627 
L 275.246126 123.241419 
L 275.602555 123.105399 
L 276.315414 123.198203 
L 276.671843 122.161025 
L 281.305422 122.762231 
L 281.661851 122.43444 
L 282.01828 122.480725 
L 282.374709 122.212278 
L 286.651859 122.760425 
L 287.008288 122.668267 
L 287.364717 122.713074 
L 287.721147 122.330073 
L 288.077576 122.245399 
L 290.216151 122.514851 
L 290.57258 122.404483 
L 294.136871 122.843475 
L 294.493301 122.599479 
L 299.12688 123.129764 
L 299.483309 122.782316 
L 300.196167 122.866728 
L 300.552596 122.02254 
L 300.909025 122.06576 
L 301.265455 121.143284 
L 303.760459 121.359058 
L 304.116888 120.894755 
L 306.611892 121.181248 
L 306.968321 120.538666 
L 307.32475 117.66608 
L 316.948337 118.924607 
L 317.304767 118.196728 
L 318.017625 118.176908 
L 324.43335 118.85561 
L 328.35407 119.32865 
L 328.7105 119.019537 
L 329.066929 117.529806 
L 330.136216 117.663272 
L 330.492645 117.446912 
L 331.205504 117.535754 
L 331.561933 117.440771 
L 335.126224 117.878652 
L 335.482654 116.422745 
L 336.195512 116.512639 
L 336.90837 116.274201 
L 342.254808 116.837959 
L 346.175528 117.30916 
L 346.531957 117.096644 
L 347.601245 117.181792 
L 347.957674 117.097158 
L 355.442686 117.961519 
L 355.799115 117.863884 
L 359.719836 118.299958 
L 360.076265 118.216874 
L 362.571269 118.488785 
L 362.927699 118.042961 
L 364.709844 118.236833 
L 365.066274 118.114574 
L 367.204848 118.322744 
L 367.561278 118.360827 
L 367.917707 118.282403 
L 371.125569 118.621596 
L 371.481998 118.47945 
L 372.551286 118.591311 
L 372.907715 118.340713 
L 373.977002 118.452538 
L 374.689861 117.913789 
L 377.184865 118.080502 
L 377.541294 117.886854 
L 377.897723 117.924179 
L 378.254152 117.844493 
L 380.392727 118.066964 
L 380.749156 117.823686 
L 381.105586 117.860704 
L 381.462015 117.662251 
L 385.026306 118.029713 
L 385.382735 117.381213 
L 387.87774 117.638336 
L 388.234169 117.548877 
L 392.867748 118.016798 
L 393.224177 117.379885 
L 396.432039 117.680823 
L 396.788468 117.529473 
L 408.194201 118.607524 
L 408.550631 118.296279 
L 414.966355 118.797705 
L 415.322785 117.594384 
L 419.956364 118.026151 
L 419.956364 118.026151 
" style="fill:none;stroke:#1f77b4;stroke-linecap:square;stroke-width:1.5;"/>
   </g>
   <g id="patch_3">
    <path d="M 46.08 156.672 
L 46.08 27.648 
" style="fill:none;stroke:#000000;stroke-linecap:square;stroke-linejoin:miter;stroke-width:0.8;"/>
   </g>
   <g id="patch_4">
    <path d="M 437.76 156.672 
L 437.76 27.648 
" style="fill:none;stroke:#000000;stroke-linecap:square;stroke-linejoin:miter;stroke-width:0.8;"/>
   </g>
   <g id="patch_5">
    <path d="M 46.08 156.672 
L 437.76 156.672 
" style="fill:none;stroke:#000000;stroke-linecap:square;stroke-linejoin:miter;stroke-width:0.8;"/>
   </g>
   <g id="patch_6">
    <path d="M 46.08 27.648 
L 437.76 27.648 
" style="fill:none;stroke:#000000;stroke-linecap:square;stroke-linejoin:miter;stroke-width:0.8;"/>
   </g>
   <g id="text_13">
    <!-- Demora promedio en cola A -->
    <defs>
     <path id="DejaVuSans-32"/>
     <path d="M 18.109375 8.203125 
L 18.109375 -20.796875 
L 9.078125 -20.796875 
L 9.078125 54.6875 
L 18.109375 54.6875 
L 18.109375 46.390625 
Q 20.953125 51.265625 25.265625 53.625 
Q 29.59375 56 35.59375 56 
Q 45.5625 56 51.78125 48.09375 
Q 58.015625 40.1875 58.015625 27.296875 
Q 58.015625 14.40625 51.78125 6.484375 
Q 45.5625 -1.421875 35.59375 -1.421875 
Q 29.59375 -1.421875 25.265625 0.953125 
Q 20.953125 3.328125 18.109375 8.203125 
z
M 48.6875 27.296875 
Q 48.6875 37.203125 44.609375 42.84375 
Q 40.53125 48.484375 33.40625 48.484375 
Q 26.265625 48.484375 22.1875 42.84375 
Q 18.109375 37.203125 18.109375 27.296875 
Q 18.109375 17.390625 22.1875 11.75 
Q 26.265625 6.109375 33.40625 6.109375 
Q 40.53125 6.109375 44.609375 11.75 
Q 48.6875 17.390625 48.6875 27.296875 
z
" id="DejaVuSans-112"/>
     <path d="M 54.890625 33.015625 
L 54.890625 0 
L 45.90625 0 
L 45.90625 32.71875 
Q 45.90625 40.484375 42.875 44.328125 
Q 39.84375 48.1875 33.796875 48.1875 
Q 26.515625 48.1875 22.3125 43.546875 
Q 18.109375 38.921875 18.109375 30.90625 
L 18.109375 0 
L 9.078125 0 
L 9.078125 54.6875 
L 18.109375 54.6875 
L 18.109375 46.1875 
Q 21.34375 51.125 25.703125 53.5625 
Q 30.078125 56 35.796875 56 
Q 45.21875 56 50.046875 50.171875 
Q 54.890625 44.34375 54.890625 33.015625 
z
" id="DejaVuSans-110"/>
     <path d="M 48.78125 52.59375 
L 48.78125 44.1875 
Q 44.96875 46.296875 41.140625 47.34375 
Q 37.3125 48.390625 33.40625 48.390625 
Q 24.65625 48.390625 19.8125 42.84375 
Q 14.984375 37.3125 14.984375 27.296875 
Q 14.984375 17.28125 19.8125 11.734375 
Q 24.65625 6.203125 33.40625 6.203125 
Q 37.3125 6.203125 41.140625 7.25 
Q 44.96875 8.296875 48.78125 10.40625 
L 48.78125 2.09375 
Q 45.015625 0.34375 40.984375 -0.53125 
Q 36.96875 -1.421875 32.421875 -1.421875 
Q 20.0625 -1.421875 12.78125 6.34375 
Q 5.515625 14.109375 5.515625 27.296875 
Q 5.515625 40.671875 12.859375 48.328125 
Q 20.21875 56 33.015625 56 
Q 37.15625 56 41.109375 55.140625 
Q 45.0625 54.296875 48.78125 52.59375 
z
" id="DejaVuSans-99"/>
     <path d="M 9.421875 75.984375 
L 18.40625 75.984375 
L 18.40625 0 
L 9.421875 0 
z
" id="DejaVuSans-108"/>
     <path d="M 34.1875 63.1875 
L 20.796875 26.90625 
L 47.609375 26.90625 
z
M 28.609375 72.90625 
L 39.796875 72.90625 
L 67.578125 0 
L 57.328125 0 
L 50.6875 18.703125 
L 17.828125 18.703125 
L 11.1875 0 
L 0.78125 0 
z
" id="DejaVuSans-65"/>
    </defs>
    <g transform="translate(157.780313 21.648)scale(0.12 -0.12)">
     <use xlink:href="#DejaVuSans-68"/>
     <use x="77.001953" xlink:href="#DejaVuSans-101"/>
     <use x="138.525391" xlink:href="#DejaVuSans-109"/>
     <use x="235.9375" xlink:href="#DejaVuSans-111"/>
     <use x="297.119141" xlink:href="#DejaVuSans-114"/>
     <use x="338.232422" xlink:href="#DejaVuSans-97"/>
     <use x="399.511719" xlink:href="#DejaVuSans-32"/>
     <use x="431.298828" xlink:href="#DejaVuSans-112"/>
     <use x="494.775391" xlink:href="#DejaVuSans-114"/>
     <use x="535.857422" xlink:href="#DejaVuSans-111"/>
     <use x="597.039062" xlink:href="#DejaVuSans-109"/>
     <use x="694.451172" xlink:href="#DejaVuSans-101"/>
     <use x="755.974609" xlink:href="#DejaVuSans-100"/>
     <use x="819.451172" xlink:href="#DejaVuSans-105"/>
     <use x="847.234375" xlink:href="#DejaVuSans-111"/>
     <use x="908.416016" xlink:href="#DejaVuSans-32"/>
     <use x="940.203125" xlink:href="#DejaVuSans-101"/>
     <use x="1001.726562" xlink:href="#DejaVuSans-110"/>
     <use x="1065.105469" xlink:href="#DejaVuSans-32"/>
     <use x="1096.892578" xlink:href="#DejaVuSans-99"/>
     <use x="1151.873047" xlink:href="#DejaVuSans-111"/>
     <use x="1213.054688" xlink:href="#DejaVuSans-108"/>
     <use x="1240.837891" xlink:href="#DejaVuSans-97"/>
     <use x="1302.117188" xlink:href="#DejaVuSans-32"/>
     <use x="1333.904297" xlink:href="#DejaVuSans-65"/>
    </g>
   </g>
  </g>
  <g id="axes_2">
   <g id="patch_7">
    <path d="M 46.08 317.952 
L 437.76 317.952 
L 437.76 188.928 
L 46.08 188.928 
z
" style="fill:#ffffff;"/>
   </g>
   <g id="matplotlib.axis_3">
    <g id="xtick_7">
     <g id="line2d_22">
      <path clip-path="url(#p38df32dac5)" d="M 63.527207 317.952 
L 63.527207 188.928 
" style="fill:none;stroke:#b0b0b0;stroke-linecap:square;stroke-width:0.8;"/>
     </g>
     <g id="line2d_23">
      <g>
       <use style="stroke:#000000;stroke-width:0.8;" x="63.527207" xlink:href="#m322ee2dad1" y="317.952"/>
      </g>
     </g>
     <g id="text_14">
      <!-- 0 -->
      <g transform="translate(60.345957 332.550437)scale(0.1 -0.1)">
       <use xlink:href="#DejaVuSans-48"/>
      </g>
     </g>
    </g>
    <g id="xtick_8">
     <g id="line2d_24">
      <path clip-path="url(#p38df32dac5)" d="M 134.813038 317.952 
L 134.813038 188.928 
" style="fill:none;stroke:#b0b0b0;stroke-linecap:square;stroke-width:0.8;"/>
     </g>
     <g id="line2d_25">
      <g>
       <use style="stroke:#000000;stroke-width:0.8;" x="134.813038" xlink:href="#m322ee2dad1" y="317.952"/>
      </g>
     </g>
     <g id="text_15">
      <!-- 200 -->
      <g transform="translate(125.269288 332.550437)scale(0.1 -0.1)">
       <use xlink:href="#DejaVuSans-50"/>
       <use x="63.623047" xlink:href="#DejaVuSans-48"/>
       <use x="127.246094" xlink:href="#DejaVuSans-48"/>
      </g>
     </g>
    </g>
    <g id="xtick_9">
     <g id="line2d_26">
      <path clip-path="url(#p38df32dac5)" d="M 206.09887 317.952 
L 206.09887 188.928 
" style="fill:none;stroke:#b0b0b0;stroke-linecap:square;stroke-width:0.8;"/>
     </g>
     <g id="line2d_27">
      <g>
       <use style="stroke:#000000;stroke-width:0.8;" x="206.09887" xlink:href="#m322ee2dad1" y="317.952"/>
      </g>
     </g>
     <g id="text_16">
      <!-- 400 -->
      <g transform="translate(196.55512 332.550437)scale(0.1 -0.1)">
       <use xlink:href="#DejaVuSans-52"/>
       <use x="63.623047" xlink:href="#DejaVuSans-48"/>
       <use x="127.246094" xlink:href="#DejaVuSans-48"/>
      </g>
     </g>
    </g>
    <g id="xtick_10">
     <g id="line2d_28">
      <path clip-path="url(#p38df32dac5)" d="M 277.384701 317.952 
L 277.384701 188.928 
" style="fill:none;stroke:#b0b0b0;stroke-linecap:square;stroke-width:0.8;"/>
     </g>
     <g id="line2d_29">
      <g>
       <use style="stroke:#000000;stroke-width:0.8;" x="277.384701" xlink:href="#m322ee2dad1" y="317.952"/>
      </g>
     </g>
     <g id="text_17">
      <!-- 600 -->
      <g transform="translate(267.840951 332.550437)scale(0.1 -0.1)">
       <use xlink:href="#DejaVuSans-54"/>
       <use x="63.623047" xlink:href="#DejaVuSans-48"/>
       <use x="127.246094" xlink:href="#DejaVuSans-48"/>
      </g>
     </g>
    </g>
    <g id="xtick_11">
     <g id="line2d_30">
      <path clip-path="url(#p38df32dac5)" d="M 348.670532 317.952 
L 348.670532 188.928 
" style="fill:none;stroke:#b0b0b0;stroke-linecap:square;stroke-width:0.8;"/>
     </g>
     <g id="line2d_31">
      <g>
       <use style="stroke:#000000;stroke-width:0.8;" x="348.670532" xlink:href="#m322ee2dad1" y="317.952"/>
      </g>
     </g>
     <g id="text_18">
      <!-- 800 -->
      <g transform="translate(339.126782 332.550437)scale(0.1 -0.1)">
       <use xlink:href="#DejaVuSans-56"/>
       <use x="63.623047" xlink:href="#DejaVuSans-48"/>
       <use x="127.246094" xlink:href="#DejaVuSans-48"/>
      </g>
     </g>
    </g>
    <g id="xtick_12">
     <g id="line2d_32">
      <path clip-path="url(#p38df32dac5)" d="M 419.956364 317.952 
L 419.956364 188.928 
" style="fill:none;stroke:#b0b0b0;stroke-linecap:square;stroke-width:0.8;"/>
     </g>
     <g id="line2d_33">
      <g>
       <use style="stroke:#000000;stroke-width:0.8;" x="419.956364" xlink:href="#m322ee2dad1" y="317.952"/>
      </g>
     </g>
     <g id="text_19">
      <!-- 1000 -->
      <g transform="translate(407.231364 332.550437)scale(0.1 -0.1)">
       <use xlink:href="#DejaVuSans-49"/>
       <use x="63.623047" xlink:href="#DejaVuSans-48"/>
       <use x="127.246094" xlink:href="#DejaVuSans-48"/>
       <use x="190.869141" xlink:href="#DejaVuSans-48"/>
      </g>
     </g>
    </g>
    <g id="text_20">
     <!-- Corridas -->
     <g transform="translate(221.027031 346.228563)scale(0.1 -0.1)">
      <use xlink:href="#DejaVuSans-67"/>
      <use x="69.824219" xlink:href="#DejaVuSans-111"/>
      <use x="131.005859" xlink:href="#DejaVuSans-114"/>
      <use x="172.103516" xlink:href="#DejaVuSans-114"/>
      <use x="213.216797" xlink:href="#DejaVuSans-105"/>
      <use x="241" xlink:href="#DejaVuSans-100"/>
      <use x="304.476562" xlink:href="#DejaVuSans-97"/>
      <use x="365.755859" xlink:href="#DejaVuSans-115"/>
     </g>
    </g>
   </g>
   <g id="matplotlib.axis_4">
    <g id="ytick_5">
     <g id="line2d_34">
      <path clip-path="url(#p38df32dac5)" d="M 46.08 309.880481 
L 437.76 309.880481 
" style="fill:none;stroke:#b0b0b0;stroke-linecap:square;stroke-width:0.8;"/>
     </g>
     <g id="line2d_35">
      <g>
       <use style="stroke:#000000;stroke-width:0.8;" x="46.08" xlink:href="#md7b5dfccff" y="309.880481"/>
      </g>
     </g>
     <g id="text_21">
      <!-- 0.0225 -->
      <defs>
       <path d="M 10.796875 72.90625 
L 49.515625 72.90625 
L 49.515625 64.59375 
L 19.828125 64.59375 
L 19.828125 46.734375 
Q 21.96875 47.46875 24.109375 47.828125 
Q 26.265625 48.1875 28.421875 48.1875 
Q 40.625 48.1875 47.75 41.5 
Q 54.890625 34.8125 54.890625 23.390625 
Q 54.890625 11.625 47.5625 5.09375 
Q 40.234375 -1.421875 26.90625 -1.421875 
Q 22.3125 -1.421875 17.546875 -0.640625 
Q 12.796875 0.140625 7.71875 1.703125 
L 7.71875 11.625 
Q 12.109375 9.234375 16.796875 8.0625 
Q 21.484375 6.890625 26.703125 6.890625 
Q 35.15625 6.890625 40.078125 11.328125 
Q 45.015625 15.765625 45.015625 23.390625 
Q 45.015625 31 40.078125 35.4375 
Q 35.15625 39.890625 26.703125 39.890625 
Q 22.75 39.890625 18.8125 39.015625 
Q 14.890625 38.140625 10.796875 36.28125 
z
" id="DejaVuSans-53"/>
      </defs>
      <g transform="translate(4.089375 313.679699)scale(0.1 -0.1)">
       <use xlink:href="#DejaVuSans-48"/>
       <use x="63.623047" xlink:href="#DejaVuSans-46"/>
       <use x="95.410156" xlink:href="#DejaVuSans-48"/>
       <use x="159.033203" xlink:href="#DejaVuSans-50"/>
       <use x="222.65625" xlink:href="#DejaVuSans-50"/>
       <use x="286.279297" xlink:href="#DejaVuSans-53"/>
      </g>
     </g>
    </g>
    <g id="ytick_6">
     <g id="line2d_36">
      <path clip-path="url(#p38df32dac5)" d="M 46.08 285.840583 
L 437.76 285.840583 
" style="fill:none;stroke:#b0b0b0;stroke-linecap:square;stroke-width:0.8;"/>
     </g>
     <g id="line2d_37">
      <g>
       <use style="stroke:#000000;stroke-width:0.8;" x="46.08" xlink:href="#md7b5dfccff" y="285.840583"/>
      </g>
     </g>
     <g id="text_22">
      <!-- 0.0250 -->
      <g transform="translate(4.089375 289.639802)scale(0.1 -0.1)">
       <use xlink:href="#DejaVuSans-48"/>
       <use x="63.623047" xlink:href="#DejaVuSans-46"/>
       <use x="95.410156" xlink:href="#DejaVuSans-48"/>
       <use x="159.033203" xlink:href="#DejaVuSans-50"/>
       <use x="222.65625" xlink:href="#DejaVuSans-53"/>
       <use x="286.279297" xlink:href="#DejaVuSans-48"/>
      </g>
     </g>
    </g>
    <g id="ytick_7">
     <g id="line2d_38">
      <path clip-path="url(#p38df32dac5)" d="M 46.08 261.800686 
L 437.76 261.800686 
" style="fill:none;stroke:#b0b0b0;stroke-linecap:square;stroke-width:0.8;"/>
     </g>
     <g id="line2d_39">
      <g>
       <use style="stroke:#000000;stroke-width:0.8;" x="46.08" xlink:href="#md7b5dfccff" y="261.800686"/>
      </g>
     </g>
     <g id="text_23">
      <!-- 0.0275 -->
      <defs>
       <path d="M 8.203125 72.90625 
L 55.078125 72.90625 
L 55.078125 68.703125 
L 28.609375 0 
L 18.3125 0 
L 43.21875 64.59375 
L 8.203125 64.59375 
z
" id="DejaVuSans-55"/>
      </defs>
      <g transform="translate(4.089375 265.599905)scale(0.1 -0.1)">
       <use xlink:href="#DejaVuSans-48"/>
       <use x="63.623047" xlink:href="#DejaVuSans-46"/>
       <use x="95.410156" xlink:href="#DejaVuSans-48"/>
       <use x="159.033203" xlink:href="#DejaVuSans-50"/>
       <use x="222.65625" xlink:href="#DejaVuSans-55"/>
       <use x="286.279297" xlink:href="#DejaVuSans-53"/>
      </g>
     </g>
    </g>
    <g id="ytick_8">
     <g id="line2d_40">
      <path clip-path="url(#p38df32dac5)" d="M 46.08 237.760789 
L 437.76 237.760789 
" style="fill:none;stroke:#b0b0b0;stroke-linecap:square;stroke-width:0.8;"/>
     </g>
     <g id="line2d_41">
      <g>
       <use style="stroke:#000000;stroke-width:0.8;" x="46.08" xlink:href="#md7b5dfccff" y="237.760789"/>
      </g>
     </g>
     <g id="text_24">
      <!-- 0.0300 -->
      <g transform="translate(4.089375 241.560008)scale(0.1 -0.1)">
       <use xlink:href="#DejaVuSans-48"/>
       <use x="63.623047" xlink:href="#DejaVuSans-46"/>
       <use x="95.410156" xlink:href="#DejaVuSans-48"/>
       <use x="159.033203" xlink:href="#DejaVuSans-51"/>
       <use x="222.65625" xlink:href="#DejaVuSans-48"/>
       <use x="286.279297" xlink:href="#DejaVuSans-48"/>
      </g>
     </g>
    </g>
    <g id="ytick_9">
     <g id="line2d_42">
      <path clip-path="url(#p38df32dac5)" d="M 46.08 213.720892 
L 437.76 213.720892 
" style="fill:none;stroke:#b0b0b0;stroke-linecap:square;stroke-width:0.8;"/>
     </g>
     <g id="line2d_43">
      <g>
       <use style="stroke:#000000;stroke-width:0.8;" x="46.08" xlink:href="#md7b5dfccff" y="213.720892"/>
      </g>
     </g>
     <g id="text_25">
      <!-- 0.0325 -->
      <g transform="translate(4.089375 217.520111)scale(0.1 -0.1)">
       <use xlink:href="#DejaVuSans-48"/>
       <use x="63.623047" xlink:href="#DejaVuSans-46"/>
       <use x="95.410156" xlink:href="#DejaVuSans-48"/>
       <use x="159.033203" xlink:href="#DejaVuSans-51"/>
       <use x="222.65625" xlink:href="#DejaVuSans-50"/>
       <use x="286.279297" xlink:href="#DejaVuSans-53"/>
      </g>
     </g>
    </g>
    <g id="ytick_10">
     <g id="line2d_44">
      <path clip-path="url(#p38df32dac5)" d="M 46.08 189.680995 
L 437.76 189.680995 
" style="fill:none;stroke:#b0b0b0;stroke-linecap:square;stroke-width:0.8;"/>
     </g>
     <g id="line2d_45">
      <g>
       <use style="stroke:#000000;stroke-width:0.8;" x="46.08" xlink:href="#md7b5dfccff" y="189.680995"/>
      </g>
     </g>
     <g id="text_26">
      <!-- 0.0350 -->
      <g transform="translate(4.089375 193.480213)scale(0.1 -0.1)">
       <use xlink:href="#DejaVuSans-48"/>
       <use x="63.623047" xlink:href="#DejaVuSans-46"/>
       <use x="95.410156" xlink:href="#DejaVuSans-48"/>
       <use x="159.033203" xlink:href="#DejaVuSans-51"/>
       <use x="222.65625" xlink:href="#DejaVuSans-53"/>
       <use x="286.279297" xlink:href="#DejaVuSans-48"/>
      </g>
     </g>
    </g>
    <g id="text_27">
     <!-- Demora -->
     <g transform="translate(-1.990312 273.415781)rotate(-90)scale(0.1 -0.1)">
      <use xlink:href="#DejaVuSans-68"/>
      <use x="77.001953" xlink:href="#DejaVuSans-101"/>
      <use x="138.525391" xlink:href="#DejaVuSans-109"/>
      <use x="235.9375" xlink:href="#DejaVuSans-111"/>
      <use x="297.119141" xlink:href="#DejaVuSans-114"/>
      <use x="338.232422" xlink:href="#DejaVuSans-97"/>
     </g>
    </g>
   </g>
   <g id="line2d_46">
    <path clip-path="url(#p38df32dac5)" d="M 63.883636 312.087273 
L 64.240066 287.830708 
L 64.596495 246.999855 
L 64.952924 260.700845 
L 65.309353 251.268227 
L 65.665782 220.246607 
L 66.022211 228.807159 
L 66.37864 204.520882 
L 66.73507 203.919574 
L 67.091499 201.773748 
L 67.447928 194.792727 
L 67.804357 195.685122 
L 68.160786 204.322591 
L 68.517215 207.231139 
L 68.873645 206.574218 
L 69.230074 205.328636 
L 69.942932 210.914615 
L 70.65579 219.444011 
L 71.012219 217.769965 
L 71.368649 218.402535 
L 71.725078 223.091955 
L 72.081507 224.435524 
L 72.437936 224.017583 
L 72.794365 221.861942 
L 73.150794 221.082796 
L 73.507224 217.670705 
L 73.863653 219.553873 
L 74.576511 216.49822 
L 74.93294 217.337619 
L 75.289369 214.27061 
L 76.002228 212.96869 
L 76.358657 213.769888 
L 76.715086 217.211626 
L 77.071515 217.147361 
L 77.427944 215.9609 
L 77.784373 217.908641 
L 78.140803 218.227894 
L 78.497232 218.280327 
L 78.853661 217.414772 
L 79.566519 218.768769 
L 79.922948 218.944656 
L 80.279378 218.308033 
L 80.635807 219.737308 
L 80.992236 219.022877 
L 81.348665 219.658764 
L 81.705094 220.615604 
L 82.061523 222.699008 
L 82.417952 221.895562 
L 82.774382 222.026035 
L 83.130811 221.991665 
L 83.48724 221.640691 
L 83.843669 219.507053 
L 84.200098 219.080711 
L 84.556527 219.383783 
L 84.912957 218.019267 
L 85.269386 218.462117 
L 85.625815 217.675096 
L 85.982244 216.172015 
L 86.338673 216.061565 
L 86.695102 217.260115 
L 87.051532 215.377258 
L 87.407961 215.625762 
L 88.120819 213.549226 
L 88.477248 214.069006 
L 88.833677 213.394724 
L 89.190106 214.190636 
L 89.546536 213.610045 
L 89.902965 213.558555 
L 90.259394 213.720042 
L 90.615823 214.223206 
L 90.972252 215.320581 
L 91.328681 213.917469 
L 91.685111 213.398271 
L 92.04154 213.490108 
L 92.397969 213.304666 
L 92.754398 213.61297 
L 93.110827 214.339241 
L 93.467256 214.20592 
L 93.823686 213.725762 
L 94.180115 213.783371 
L 94.536544 213.288307 
L 94.892973 213.064486 
L 95.249402 213.305797 
L 95.605831 213.909387 
L 95.96226 214.848321 
L 96.675119 215.230117 
L 97.031548 215.794613 
L 97.744406 215.594361 
L 98.457265 214.625421 
L 98.813694 213.865307 
L 99.170123 212.69178 
L 99.526552 211.920459 
L 99.882981 212.227657 
L 100.595839 212.546308 
L 100.952269 212.818464 
L 101.308698 212.285934 
L 101.665127 212.411996 
L 102.021556 213.175641 
L 102.377985 213.109817 
L 103.447273 214.668719 
L 103.803702 214.140376 
L 104.160131 213.947172 
L 104.51656 213.257812 
L 104.872989 213.124677 
L 105.229419 213.351563 
L 105.585848 212.986538 
L 105.942277 212.954191 
L 106.298706 213.230063 
L 106.655135 212.319694 
L 107.011564 212.038305 
L 108.080852 212.474682 
L 108.437281 213.289048 
L 108.79371 212.714375 
L 109.150139 213.918165 
L 109.862998 213.314802 
L 110.219427 214.179182 
L 110.932285 214.91268 
L 111.288714 214.944879 
L 111.645143 214.524727 
L 112.001572 214.520374 
L 112.358002 214.819123 
L 112.714431 213.436079 
L 113.07086 213.433354 
L 113.783718 212.128659 
L 114.140147 212.180598 
L 114.496577 212.519005 
L 114.853006 212.452195 
L 115.209435 211.874382 
L 115.565864 211.72066 
L 115.922293 211.225482 
L 116.278722 211.050297 
L 116.991581 210.310148 
L 117.34801 211.104962 
L 118.060868 211.609272 
L 118.417297 211.651314 
L 118.773726 210.793716 
L 119.130156 211.713518 
L 119.486585 211.750224 
L 119.843014 211.057682 
L 120.199443 210.616839 
L 120.555872 211.088928 
L 120.912301 210.762875 
L 121.268731 208.917958 
L 121.62516 209.161519 
L 121.981589 208.722342 
L 122.338018 208.86716 
L 122.694447 209.225124 
L 123.050876 209.111393 
L 123.407305 209.885759 
L 123.763735 208.880465 
L 124.120164 209.499778 
L 124.476593 209.150506 
L 124.833022 209.528352 
L 125.189451 209.435546 
L 125.54588 209.670272 
L 126.258739 209.011231 
L 126.615168 209.488545 
L 126.971597 209.448525 
L 127.328026 209.926522 
L 127.684455 209.679184 
L 128.040885 210.281417 
L 128.397314 210.017148 
L 129.110172 208.682892 
L 129.466601 208.522986 
L 129.82303 209.099491 
L 130.535889 209.156077 
L 130.892318 209.403881 
L 131.605176 210.334659 
L 131.961605 210.485366 
L 132.674464 210.363659 
L 133.387322 210.569918 
L 133.743751 210.192741 
L 134.10018 210.564857 
L 134.456609 210.684124 
L 134.813038 211.025307 
L 135.169468 210.910499 
L 135.525897 210.327797 
L 135.882326 209.23728 
L 136.238755 209.085609 
L 136.595184 208.646475 
L 136.951613 209.283096 
L 138.020901 208.800635 
L 138.733759 209.247315 
L 139.090188 209.201615 
L 139.446618 209.338236 
L 139.803047 208.036579 
L 140.159476 208.335623 
L 140.872334 208.308746 
L 141.228763 208.37443 
L 141.585192 208.198287 
L 142.65448 209.420063 
L 143.010909 209.248192 
L 143.367338 208.733368 
L 143.723767 208.739123 
L 144.080197 208.959519 
L 144.436626 208.543039 
L 144.793055 208.353185 
L 145.149484 208.328746 
L 145.505913 208.753978 
L 145.862342 208.722151 
L 146.218771 209.351203 
L 146.575201 209.461316 
L 146.93163 209.423848 
L 147.288059 209.763678 
L 147.644488 209.796736 
L 148.000917 210.086038 
L 148.357346 209.727383 
L 148.713776 208.977626 
L 149.070205 209.082555 
L 149.426634 208.415068 
L 149.783063 208.331712 
L 150.139492 208.637344 
L 150.495921 208.673262 
L 150.852351 209.281547 
L 151.20878 209.475642 
L 151.921638 209.537282 
L 152.278067 209.125766 
L 152.634496 209.350519 
L 152.990925 209.976068 
L 153.347355 210.220786 
L 154.060213 210.243945 
L 154.416642 210.184514 
L 155.1295 210.760787 
L 155.48593 209.999845 
L 155.842359 210.222697 
L 156.198788 209.811805 
L 156.555217 209.600138 
L 157.268075 209.018146 
L 157.624505 209.022804 
L 157.980934 208.759541 
L 158.337363 208.815148 
L 158.693792 208.684621 
L 159.050221 209.000191 
L 159.40665 209.028078 
L 159.763079 209.205651 
L 160.119509 208.887903 
L 160.475938 209.077975 
L 161.188796 208.805644 
L 161.901654 209.615038 
L 162.970942 210.241004 
L 163.327371 210.547483 
L 163.6838 210.669987 
L 164.040229 211.068851 
L 164.396658 211.006454 
L 165.109517 211.789718 
L 165.465946 212.179122 
L 166.535233 210.572046 
L 166.891663 210.762806 
L 167.248092 210.464015 
L 169.030238 211.29469 
L 170.099525 212.011747 
L 170.455954 211.64433 
L 171.168812 211.772568 
L 171.525242 211.70606 
L 171.881671 211.068361 
L 172.2381 211.044253 
L 172.594529 211.474187 
L 172.950958 211.196719 
L 173.307387 211.383804 
L 174.020246 210.172441 
L 174.376675 210.036244 
L 175.802391 210.356677 
L 176.158821 210.135978 
L 176.51525 210.291727 
L 176.871679 209.802546 
L 178.297396 210.325053 
L 178.653825 210.086608 
L 179.723112 210.572952 
L 180.079541 210.425408 
L 180.435971 210.48213 
L 181.148829 211.288728 
L 181.505258 211.455703 
L 182.218116 211.078018 
L 182.574545 211.116825 
L 182.930975 211.019683 
L 184.000262 211.307346 
L 184.71312 211.684876 
L 185.06955 211.896427 
L 185.425979 211.86077 
L 185.782408 211.57684 
L 186.138837 211.472778 
L 187.564554 211.709311 
L 187.920983 211.575131 
L 188.277412 211.629384 
L 189.346699 212.261668 
L 189.703129 212.371656 
L 190.059558 212.031091 
L 190.415987 212.15543 
L 190.772416 212.100158 
L 191.485274 212.413617 
L 191.841704 212.459506 
L 192.198133 212.742052 
L 192.554562 212.763988 
L 192.910991 212.661193 
L 193.26742 212.789996 
L 193.623849 212.511269 
L 193.980278 212.519107 
L 194.336708 212.347369 
L 195.049566 212.460989 
L 195.405995 212.143545 
L 196.118853 212.446292 
L 196.831712 211.889817 
L 197.188141 211.786068 
L 197.900999 211.755578 
L 198.613857 211.639686 
L 198.970287 211.494406 
L 199.326716 211.653362 
L 200.752432 211.77196 
L 201.465291 212.180537 
L 201.82172 211.984345 
L 202.534578 212.226508 
L 202.891007 212.021047 
L 203.603866 212.401052 
L 204.316724 212.156012 
L 204.673153 211.8505 
L 205.029582 211.85286 
L 205.386011 211.726445 
L 205.742441 211.803446 
L 206.09887 212.085185 
L 206.811728 211.926563 
L 207.168157 211.692259 
L 207.524586 211.686877 
L 207.881016 211.463931 
L 208.237445 211.531921 
L 208.593874 211.396459 
L 209.663161 211.291625 
L 210.37602 211.168544 
L 211.088878 211.542039 
L 211.445307 211.750872 
L 212.158165 211.620546 
L 212.514595 211.771326 
L 213.583882 212.596605 
L 213.940311 212.479286 
L 214.29674 212.593974 
L 214.65317 212.131493 
L 215.722457 212.119594 
L 216.078886 211.741599 
L 216.435315 211.642929 
L 216.791744 211.786392 
L 217.148174 211.667352 
L 218.217461 211.691365 
L 218.930319 211.626349 
L 219.999607 211.689891 
L 220.356036 211.51789 
L 220.712465 211.724182 
L 221.068894 211.621467 
L 221.425324 211.88489 
L 222.138182 211.751332 
L 223.207469 211.771317 
L 223.563898 211.927901 
L 224.276757 211.940325 
L 224.633186 212.117736 
L 224.989615 211.950503 
L 226.415332 212.011869 
L 226.771761 211.653555 
L 227.12819 211.941932 
L 227.841048 211.70984 
L 228.197477 211.664935 
L 228.553907 211.882031 
L 228.910336 211.642347 
L 229.979623 211.906323 
L 230.692482 211.552203 
L 231.048911 211.777752 
L 231.761769 212.042077 
L 232.474627 212.30825 
L 232.831057 212.353234 
L 233.543915 212.628561 
L 234.256773 212.695264 
L 234.613202 212.247591 
L 235.68249 212.866624 
L 236.038919 212.584416 
L 236.395348 212.526133 
L 236.751777 212.341672 
L 237.464636 211.607327 
L 238.890352 211.587515 
L 239.60321 211.240493 
L 240.316069 211.721264 
L 240.672498 211.733611 
L 241.028927 211.618789 
L 241.385356 211.70078 
L 242.098215 211.527731 
L 242.454644 211.687156 
L 242.811073 211.545198 
L 243.523931 211.553136 
L 243.88036 211.832649 
L 244.593219 211.713149 
L 244.949648 211.138586 
L 245.662506 210.932323 
L 246.018935 210.996111 
L 246.375364 210.86722 
L 247.444652 211.282543 
L 248.513939 210.860663 
L 248.870369 210.565843 
L 249.226798 210.675838 
L 249.583227 210.565458 
L 249.939656 210.627064 
L 250.296085 210.420106 
L 250.652514 210.599908 
L 251.721802 210.363122 
L 252.078231 209.875392 
L 252.43466 209.687381 
L 252.791089 209.903659 
L 253.147518 209.664263 
L 253.860377 209.495037 
L 254.216806 209.717441 
L 254.929664 209.529175 
L 255.642523 209.789855 
L 255.998952 209.553177 
L 256.355381 209.637563 
L 256.71181 209.466527 
L 258.137527 209.820282 
L 258.493956 209.727318 
L 258.850385 210.018095 
L 259.563243 210.290071 
L 260.276102 210.42169 
L 260.632531 210.171838 
L 261.345389 210.089181 
L 261.701818 209.487641 
L 262.771106 209.081163 
L 263.127535 209.297832 
L 263.483964 209.069169 
L 263.840393 209.263628 
L 265.26611 209.085743 
L 265.622539 209.17091 
L 265.978968 208.955551 
L 266.335397 209.022536 
L 266.691826 208.862777 
L 267.404685 208.913177 
L 269.18683 208.975688 
L 269.899689 208.802819 
L 270.256118 208.986335 
L 270.612547 208.851629 
L 270.968976 208.882399 
L 271.681835 208.601538 
L 273.107551 208.947306 
L 273.46398 208.715152 
L 274.176839 208.95049 
L 274.889697 208.859997 
L 275.246126 208.697669 
L 277.028272 208.978141 
L 277.384701 209.173067 
L 277.74113 208.990582 
L 278.097559 208.937588 
L 278.453989 209.082902 
L 278.810418 209.003355 
L 279.166847 209.105839 
L 279.523276 209.034699 
L 279.879705 209.173287 
L 280.592563 209.22031 
L 280.948993 208.706888 
L 282.374709 208.826059 
L 282.731138 208.81679 
L 283.087568 208.975846 
L 283.443997 208.947525 
L 284.156855 209.058779 
L 286.29543 209.359132 
L 286.651859 209.119044 
L 287.721147 209.00023 
L 288.434005 208.670165 
L 288.790434 208.344273 
L 289.146863 208.268444 
L 289.503292 208.32933 
L 290.216151 207.800808 
L 290.929009 207.841802 
L 292.354726 207.830084 
L 292.711155 207.793248 
L 293.067584 207.639301 
L 294.136871 207.673551 
L 294.493301 207.490615 
L 294.84973 207.684986 
L 295.919017 207.818517 
L 296.275446 207.971925 
L 296.631876 207.684402 
L 297.344734 207.971678 
L 297.701163 208.160389 
L 298.414021 208.177585 
L 299.12688 208.534591 
L 299.483309 208.509989 
L 300.196167 208.316969 
L 300.552596 208.477021 
L 301.265455 208.434486 
L 302.334742 208.000671 
L 304.116888 208.058988 
L 304.473317 208.219869 
L 304.829746 208.182366 
L 305.186175 208.306075 
L 305.899034 208.334101 
L 307.32475 208.574568 
L 307.681179 208.603112 
L 308.037609 208.401879 
L 308.394038 208.523602 
L 309.463325 208.258645 
L 310.889042 208.054557 
L 311.245471 207.829098 
L 311.958329 207.889151 
L 312.671188 207.877924 
L 313.027617 207.928322 
L 315.166192 207.420747 
L 316.235479 207.775485 
L 317.304767 207.746875 
L 317.661196 207.881934 
L 318.374054 207.956149 
L 319.086912 207.980984 
L 319.799771 207.971571 
L 320.1562 207.710051 
L 321.225487 207.99833 
L 321.581916 208.029756 
L 322.651204 207.790273 
L 323.364062 207.887658 
L 323.720491 207.76239 
L 325.146208 208.399798 
L 325.859066 208.418288 
L 326.215495 208.486046 
L 326.571925 208.078511 
L 327.284783 208.136401 
L 327.641212 208.085141 
L 327.997641 208.238895 
L 328.35407 208.254375 
L 328.7105 208.127603 
L 329.066929 208.182236 
L 329.779787 208.580207 
L 330.492645 208.15362 
L 330.849075 208.240003 
L 331.205504 208.186911 
L 331.561933 208.001329 
L 332.274791 208.23498 
L 332.63122 208.136084 
L 332.987649 208.210904 
L 333.344079 208.434677 
L 334.413366 208.447569 
L 334.769795 208.433972 
L 335.126224 208.654561 
L 336.90837 208.469435 
L 337.977658 208.597171 
L 338.690516 208.669148 
L 339.046945 208.697554 
L 339.403374 208.574887 
L 339.759803 208.585649 
L 340.116233 208.239769 
L 340.472662 208.307273 
L 341.18552 208.211998 
L 341.541949 208.321722 
L 341.898378 208.257785 
L 343.324095 208.368734 
L 344.036953 208.147937 
L 345.46267 208.33723 
L 347.957674 208.160801 
L 348.314103 208.246957 
L 350.096249 208.117898 
L 350.809107 208.212075 
L 351.521966 208.351033 
L 352.591253 208.252979 
L 352.947682 208.14344 
L 357.581261 208.375911 
L 359.719836 208.323688 
L 360.432695 208.39558 
L 363.284128 208.470635 
L 363.996986 208.289575 
L 365.779132 208.356614 
L 366.135561 208.296891 
L 366.848419 208.377392 
L 367.561278 208.340944 
L 367.917707 208.324337 
L 368.630565 208.437895 
L 368.986994 208.322032 
L 369.699853 208.492857 
L 370.056282 208.401261 
L 370.412711 208.429155 
L 371.125569 208.167427 
L 371.481998 207.849053 
L 371.838428 207.783372 
L 372.551286 207.982469 
L 372.907715 207.838498 
L 374.689861 207.94311 
L 375.04629 207.615234 
L 375.402719 207.547539 
L 375.759148 207.711483 
L 378.610581 207.893889 
L 379.32344 207.68742 
L 380.392727 207.622899 
L 380.749156 207.457797 
L 381.818444 207.302967 
L 382.531302 207.440733 
L 383.60059 207.580861 
L 383.957019 207.306616 
L 384.313448 207.189237 
L 385.026306 207.360376 
L 385.739165 207.326311 
L 386.095594 207.407874 
L 386.808452 207.247539 
L 387.52131 207.139837 
L 388.234169 207.014234 
L 388.590598 206.712651 
L 390.016314 206.999315 
L 390.372744 206.874482 
L 392.154889 207.038112 
L 392.511319 207.127755 
L 393.224177 207.084047 
L 393.937035 207.16302 
L 396.07561 207.554862 
L 396.432039 207.482405 
L 398.214185 207.700316 
L 398.927043 207.718177 
L 399.283473 207.794738 
L 399.996331 207.71577 
L 400.709189 207.683471 
L 401.065618 207.633378 
L 402.134906 207.811166 
L 402.491335 207.543945 
L 402.847764 207.695622 
L 403.204193 207.570713 
L 405.342768 207.795851 
L 405.699197 207.623271 
L 406.055627 207.685389 
L 406.412056 207.44436 
L 407.481343 207.601285 
L 407.837772 207.47409 
L 408.550631 207.516536 
L 408.90706 207.463 
L 409.619918 207.643405 
L 410.689206 207.823233 
L 414.253497 207.919863 
L 414.609926 207.690863 
L 415.322785 207.859676 
L 415.679214 207.761164 
L 416.035643 207.503363 
L 416.748501 207.708687 
L 417.817789 207.803698 
L 418.174218 207.909228 
L 418.887076 207.730498 
L 419.956364 207.706019 
L 419.956364 207.706019 
" style="fill:none;stroke:#1f77b4;stroke-linecap:square;stroke-width:1.5;"/>
   </g>
   <g id="patch_8">
    <path d="M 46.08 317.952 
L 46.08 188.928 
" style="fill:none;stroke:#000000;stroke-linecap:square;stroke-linejoin:miter;stroke-width:0.8;"/>
   </g>
   <g id="patch_9">
    <path d="M 437.76 317.952 
L 437.76 188.928 
" style="fill:none;stroke:#000000;stroke-linecap:square;stroke-linejoin:miter;stroke-width:0.8;"/>
   </g>
   <g id="patch_10">
    <path d="M 46.08 317.952 
L 437.76 317.952 
" style="fill:none;stroke:#000000;stroke-linecap:square;stroke-linejoin:miter;stroke-width:0.8;"/>
   </g>
   <g id="patch_11">
    <path d="M 46.08 188.928 
L 437.76 188.928 
" style="fill:none;stroke:#000000;stroke-linecap:square;stroke-linejoin:miter;stroke-width:0.8;"/>
   </g>
   <g id="text_28">
    <!-- Demora promedio en cola C -->
    <g transform="translate(157.695 182.928)scale(0.12 -0.12)">
     <use xlink:href="#DejaVuSans-68"/>
     <use x="77.001953" xlink:href="#DejaVuSans-101"/>
     <use x="138.525391" xlink:href="#DejaVuSans-109"/>
     <use x="235.9375" xlink:href="#DejaVuSans-111"/>
     <use x="297.119141" xlink:href="#DejaVuSans-114"/>
     <use x="338.232422" xlink:href="#DejaVuSans-97"/>
     <use x="399.511719" xlink:href="#DejaVuSans-32"/>
     <use x="431.298828" xlink:href="#DejaVuSans-112"/>
     <use x="494.775391" xlink:href="#DejaVuSans-114"/>
     <use x="535.857422" xlink:href="#DejaVuSans-111"/>
     <use x="597.039062" xlink:href="#DejaVuSans-109"/>
     <use x="694.451172" xlink:href="#DejaVuSans-101"/>
     <use x="755.974609" xlink:href="#DejaVuSans-100"/>
     <use x="819.451172" xlink:href="#DejaVuSans-105"/>
     <use x="847.234375" xlink:href="#DejaVuSans-111"/>
     <use x="908.416016" xlink:href="#DejaVuSans-32"/>
     <use x="940.203125" xlink:href="#DejaVuSans-101"/>
     <use x="1001.726562" xlink:href="#DejaVuSans-110"/>
     <use x="1065.105469" xlink:href="#DejaVuSans-32"/>
     <use x="1096.892578" xlink:href="#DejaVuSans-99"/>
     <use x="1151.873047" xlink:href="#DejaVuSans-111"/>
     <use x="1213.054688" xlink:href="#DejaVuSans-108"/>
     <use x="1240.837891" xlink:href="#DejaVuSans-97"/>
     <use x="1302.117188" xlink:href="#DejaVuSans-32"/>
     <use x="1333.904297" xlink:href="#DejaVuSans-67"/>
    </g>
   </g>
  </g>
 </g>
 <defs>
  <clipPath id="p96c20dbfb9">
   <rect height="129.024" width="391.68" x="46.08" y="27.648"/>
  </clipPath>
  <clipPath id="p38df32dac5">
   <rect height="129.024" width="391.68" x="46.08" y="188.928"/>
  </clipPath>
 </defs>
</svg>
