<?xml version="1.0" encoding="utf-8" standalone="no"?>
<!DOCTYPE svg PUBLIC "-//W3C//DTD SVG 1.1//EN"
  "http://www.w3.org/Graphics/SVG/1.1/DTD/svg11.dtd">
<!-- Created with matplotlib (https://matplotlib.org/) -->
<svg height="345.6pt" version="1.1" viewBox="0 0 460.8 345.6" width="460.8pt" xmlns="http://www.w3.org/2000/svg" xmlns:xlink="http://www.w3.org/1999/xlink">
 <defs>
  <style type="text/css">
*{stroke-linecap:butt;stroke-linejoin:round;}
  </style>
 </defs>
 <g id="figure_1">
  <g id="patch_1">
   <path d="M 0 345.6 
L 460.8 345.6 
L 460.8 0 
L 0 0 
z
" style="fill:#ffffff;"/>
  </g>
  <g id="axes_1">
   <g id="patch_2">
    <path d="M 46.08 156.672 
L 437.76 156.672 
L 437.76 27.648 
L 46.08 27.648 
z
" style="fill:#ffffff;"/>
   </g>
   <g id="matplotlib.axis_1">
    <g id="xtick_1">
     <g id="line2d_1">
      <path clip-path="url(#p33278d9868)" d="M 63.527207 156.672 
L 63.527207 27.648 
" style="fill:none;stroke:#b0b0b0;stroke-linecap:square;stroke-width:0.8;"/>
     </g>
     <g id="line2d_2">
      <defs>
       <path d="M 0 0 
L 0 3.5 
" id="m9c3ad27af2" style="stroke:#000000;stroke-width:0.8;"/>
      </defs>
      <g>
       <use style="stroke:#000000;stroke-width:0.8;" x="63.527207" xlink:href="#m9c3ad27af2" y="156.672"/>
      </g>
     </g>
     <g id="text_1">
      <!-- 0 -->
      <defs>
       <path d="M 31.78125 66.40625 
Q 24.171875 66.40625 20.328125 58.90625 
Q 16.5 51.421875 16.5 36.375 
Q 16.5 21.390625 20.328125 13.890625 
Q 24.171875 6.390625 31.78125 6.390625 
Q 39.453125 6.390625 43.28125 13.890625 
Q 47.125 21.390625 47.125 36.375 
Q 47.125 51.421875 43.28125 58.90625 
Q 39.453125 66.40625 31.78125 66.40625 
z
M 31.78125 74.21875 
Q 44.046875 74.21875 50.515625 64.515625 
Q 56.984375 54.828125 56.984375 36.375 
Q 56.984375 17.96875 50.515625 8.265625 
Q 44.046875 -1.421875 31.78125 -1.421875 
Q 19.53125 -1.421875 13.0625 8.265625 
Q 6.59375 17.96875 6.59375 36.375 
Q 6.59375 54.828125 13.0625 64.515625 
Q 19.53125 74.21875 31.78125 74.21875 
z
" id="DejaVuSans-48"/>
      </defs>
      <g transform="translate(60.345957 171.270437)scale(0.1 -0.1)">
       <use xlink:href="#DejaVuSans-48"/>
      </g>
     </g>
    </g>
    <g id="xtick_2">
     <g id="line2d_3">
      <path clip-path="url(#p33278d9868)" d="M 134.813038 156.672 
L 134.813038 27.648 
" style="fill:none;stroke:#b0b0b0;stroke-linecap:square;stroke-width:0.8;"/>
     </g>
     <g id="line2d_4">
      <g>
       <use style="stroke:#000000;stroke-width:0.8;" x="134.813038" xlink:href="#m9c3ad27af2" y="156.672"/>
      </g>
     </g>
     <g id="text_2">
      <!-- 200 -->
      <defs>
       <path d="M 19.1875 8.296875 
L 53.609375 8.296875 
L 53.609375 0 
L 7.328125 0 
L 7.328125 8.296875 
Q 12.9375 14.109375 22.625 23.890625 
Q 32.328125 33.6875 34.8125 36.53125 
Q 39.546875 41.84375 41.421875 45.53125 
Q 43.3125 49.21875 43.3125 52.78125 
Q 43.3125 58.59375 39.234375 62.25 
Q 35.15625 65.921875 28.609375 65.921875 
Q 23.96875 65.921875 18.8125 64.3125 
Q 13.671875 62.703125 7.8125 59.421875 
L 7.8125 69.390625 
Q 13.765625 71.78125 18.9375 73 
Q 24.125 74.21875 28.421875 74.21875 
Q 39.75 74.21875 46.484375 68.546875 
Q 53.21875 62.890625 53.21875 53.421875 
Q 53.21875 48.921875 51.53125 44.890625 
Q 49.859375 40.875 45.40625 35.40625 
Q 44.1875 33.984375 37.640625 27.21875 
Q 31.109375 20.453125 19.1875 8.296875 
z
" id="DejaVuSans-50"/>
      </defs>
      <g transform="translate(125.269288 171.270437)scale(0.1 -0.1)">
       <use xlink:href="#DejaVuSans-50"/>
       <use x="63.623047" xlink:href="#DejaVuSans-48"/>
       <use x="127.246094" xlink:href="#DejaVuSans-48"/>
      </g>
     </g>
    </g>
    <g id="xtick_3">
     <g id="line2d_5">
      <path clip-path="url(#p33278d9868)" d="M 206.09887 156.672 
L 206.09887 27.648 
" style="fill:none;stroke:#b0b0b0;stroke-linecap:square;stroke-width:0.8;"/>
     </g>
     <g id="line2d_6">
      <g>
       <use style="stroke:#000000;stroke-width:0.8;" x="206.09887" xlink:href="#m9c3ad27af2" y="156.672"/>
      </g>
     </g>
     <g id="text_3">
      <!-- 400 -->
      <defs>
       <path d="M 37.796875 64.3125 
L 12.890625 25.390625 
L 37.796875 25.390625 
z
M 35.203125 72.90625 
L 47.609375 72.90625 
L 47.609375 25.390625 
L 58.015625 25.390625 
L 58.015625 17.1875 
L 47.609375 17.1875 
L 47.609375 0 
L 37.796875 0 
L 37.796875 17.1875 
L 4.890625 17.1875 
L 4.890625 26.703125 
z
" id="DejaVuSans-52"/>
      </defs>
      <g transform="translate(196.55512 171.270437)scale(0.1 -0.1)">
       <use xlink:href="#DejaVuSans-52"/>
       <use x="63.623047" xlink:href="#DejaVuSans-48"/>
       <use x="127.246094" xlink:href="#DejaVuSans-48"/>
      </g>
     </g>
    </g>
    <g id="xtick_4">
     <g id="line2d_7">
      <path clip-path="url(#p33278d9868)" d="M 277.384701 156.672 
L 277.384701 27.648 
" style="fill:none;stroke:#b0b0b0;stroke-linecap:square;stroke-width:0.8;"/>
     </g>
     <g id="line2d_8">
      <g>
       <use style="stroke:#000000;stroke-width:0.8;" x="277.384701" xlink:href="#m9c3ad27af2" y="156.672"/>
      </g>
     </g>
     <g id="text_4">
      <!-- 600 -->
      <defs>
       <path d="M 33.015625 40.375 
Q 26.375 40.375 22.484375 35.828125 
Q 18.609375 31.296875 18.609375 23.390625 
Q 18.609375 15.53125 22.484375 10.953125 
Q 26.375 6.390625 33.015625 6.390625 
Q 39.65625 6.390625 43.53125 10.953125 
Q 47.40625 15.53125 47.40625 23.390625 
Q 47.40625 31.296875 43.53125 35.828125 
Q 39.65625 40.375 33.015625 40.375 
z
M 52.59375 71.296875 
L 52.59375 62.3125 
Q 48.875 64.0625 45.09375 64.984375 
Q 41.3125 65.921875 37.59375 65.921875 
Q 27.828125 65.921875 22.671875 59.328125 
Q 17.53125 52.734375 16.796875 39.40625 
Q 19.671875 43.65625 24.015625 45.921875 
Q 28.375 48.1875 33.59375 48.1875 
Q 44.578125 48.1875 50.953125 41.515625 
Q 57.328125 34.859375 57.328125 23.390625 
Q 57.328125 12.15625 50.6875 5.359375 
Q 44.046875 -1.421875 33.015625 -1.421875 
Q 20.359375 -1.421875 13.671875 8.265625 
Q 6.984375 17.96875 6.984375 36.375 
Q 6.984375 53.65625 15.1875 63.9375 
Q 23.390625 74.21875 37.203125 74.21875 
Q 40.921875 74.21875 44.703125 73.484375 
Q 48.484375 72.75 52.59375 71.296875 
z
" id="DejaVuSans-54"/>
      </defs>
      <g transform="translate(267.840951 171.270437)scale(0.1 -0.1)">
       <use xlink:href="#DejaVuSans-54"/>
       <use x="63.623047" xlink:href="#DejaVuSans-48"/>
       <use x="127.246094" xlink:href="#DejaVuSans-48"/>
      </g>
     </g>
    </g>
    <g id="xtick_5">
     <g id="line2d_9">
      <path clip-path="url(#p33278d9868)" d="M 348.670532 156.672 
L 348.670532 27.648 
" style="fill:none;stroke:#b0b0b0;stroke-linecap:square;stroke-width:0.8;"/>
     </g>
     <g id="line2d_10">
      <g>
       <use style="stroke:#000000;stroke-width:0.8;" x="348.670532" xlink:href="#m9c3ad27af2" y="156.672"/>
      </g>
     </g>
     <g id="text_5">
      <!-- 800 -->
      <defs>
       <path d="M 31.78125 34.625 
Q 24.75 34.625 20.71875 30.859375 
Q 16.703125 27.09375 16.703125 20.515625 
Q 16.703125 13.921875 20.71875 10.15625 
Q 24.75 6.390625 31.78125 6.390625 
Q 38.8125 6.390625 42.859375 10.171875 
Q 46.921875 13.96875 46.921875 20.515625 
Q 46.921875 27.09375 42.890625 30.859375 
Q 38.875 34.625 31.78125 34.625 
z
M 21.921875 38.8125 
Q 15.578125 40.375 12.03125 44.71875 
Q 8.5 49.078125 8.5 55.328125 
Q 8.5 64.0625 14.71875 69.140625 
Q 20.953125 74.21875 31.78125 74.21875 
Q 42.671875 74.21875 48.875 69.140625 
Q 55.078125 64.0625 55.078125 55.328125 
Q 55.078125 49.078125 51.53125 44.71875 
Q 48 40.375 41.703125 38.8125 
Q 48.828125 37.15625 52.796875 32.3125 
Q 56.78125 27.484375 56.78125 20.515625 
Q 56.78125 9.90625 50.3125 4.234375 
Q 43.84375 -1.421875 31.78125 -1.421875 
Q 19.734375 -1.421875 13.25 4.234375 
Q 6.78125 9.90625 6.78125 20.515625 
Q 6.78125 27.484375 10.78125 32.3125 
Q 14.796875 37.15625 21.921875 38.8125 
z
M 18.3125 54.390625 
Q 18.3125 48.734375 21.84375 45.5625 
Q 25.390625 42.390625 31.78125 42.390625 
Q 38.140625 42.390625 41.71875 45.5625 
Q 45.3125 48.734375 45.3125 54.390625 
Q 45.3125 60.0625 41.71875 63.234375 
Q 38.140625 66.40625 31.78125 66.40625 
Q 25.390625 66.40625 21.84375 63.234375 
Q 18.3125 60.0625 18.3125 54.390625 
z
" id="DejaVuSans-56"/>
      </defs>
      <g transform="translate(339.126782 171.270437)scale(0.1 -0.1)">
       <use xlink:href="#DejaVuSans-56"/>
       <use x="63.623047" xlink:href="#DejaVuSans-48"/>
       <use x="127.246094" xlink:href="#DejaVuSans-48"/>
      </g>
     </g>
    </g>
    <g id="xtick_6">
     <g id="line2d_11">
      <path clip-path="url(#p33278d9868)" d="M 419.956364 156.672 
L 419.956364 27.648 
" style="fill:none;stroke:#b0b0b0;stroke-linecap:square;stroke-width:0.8;"/>
     </g>
     <g id="line2d_12">
      <g>
       <use style="stroke:#000000;stroke-width:0.8;" x="419.956364" xlink:href="#m9c3ad27af2" y="156.672"/>
      </g>
     </g>
     <g id="text_6">
      <!-- 1000 -->
      <defs>
       <path d="M 12.40625 8.296875 
L 28.515625 8.296875 
L 28.515625 63.921875 
L 10.984375 60.40625 
L 10.984375 69.390625 
L 28.421875 72.90625 
L 38.28125 72.90625 
L 38.28125 8.296875 
L 54.390625 8.296875 
L 54.390625 0 
L 12.40625 0 
z
" id="DejaVuSans-49"/>
      </defs>
      <g transform="translate(407.231364 171.270437)scale(0.1 -0.1)">
       <use xlink:href="#DejaVuSans-49"/>
       <use x="63.623047" xlink:href="#DejaVuSans-48"/>
       <use x="127.246094" xlink:href="#DejaVuSans-48"/>
       <use x="190.869141" xlink:href="#DejaVuSans-48"/>
      </g>
     </g>
    </g>
    <g id="text_7">
     <!-- Corridas -->
     <defs>
      <path d="M 64.40625 67.28125 
L 64.40625 56.890625 
Q 59.421875 61.53125 53.78125 63.8125 
Q 48.140625 66.109375 41.796875 66.109375 
Q 29.296875 66.109375 22.65625 58.46875 
Q 16.015625 50.828125 16.015625 36.375 
Q 16.015625 21.96875 22.65625 14.328125 
Q 29.296875 6.6875 41.796875 6.6875 
Q 48.140625 6.6875 53.78125 8.984375 
Q 59.421875 11.28125 64.40625 15.921875 
L 64.40625 5.609375 
Q 59.234375 2.09375 53.4375 0.328125 
Q 47.65625 -1.421875 41.21875 -1.421875 
Q 24.65625 -1.421875 15.125 8.703125 
Q 5.609375 18.84375 5.609375 36.375 
Q 5.609375 53.953125 15.125 64.078125 
Q 24.65625 74.21875 41.21875 74.21875 
Q 47.75 74.21875 53.53125 72.484375 
Q 59.328125 70.75 64.40625 67.28125 
z
" id="DejaVuSans-67"/>
      <path d="M 30.609375 48.390625 
Q 23.390625 48.390625 19.1875 42.75 
Q 14.984375 37.109375 14.984375 27.296875 
Q 14.984375 17.484375 19.15625 11.84375 
Q 23.34375 6.203125 30.609375 6.203125 
Q 37.796875 6.203125 41.984375 11.859375 
Q 46.1875 17.53125 46.1875 27.296875 
Q 46.1875 37.015625 41.984375 42.703125 
Q 37.796875 48.390625 30.609375 48.390625 
z
M 30.609375 56 
Q 42.328125 56 49.015625 48.375 
Q 55.71875 40.765625 55.71875 27.296875 
Q 55.71875 13.875 49.015625 6.21875 
Q 42.328125 -1.421875 30.609375 -1.421875 
Q 18.84375 -1.421875 12.171875 6.21875 
Q 5.515625 13.875 5.515625 27.296875 
Q 5.515625 40.765625 12.171875 48.375 
Q 18.84375 56 30.609375 56 
z
" id="DejaVuSans-111"/>
      <path d="M 41.109375 46.296875 
Q 39.59375 47.171875 37.8125 47.578125 
Q 36.03125 48 33.890625 48 
Q 26.265625 48 22.1875 43.046875 
Q 18.109375 38.09375 18.109375 28.8125 
L 18.109375 0 
L 9.078125 0 
L 9.078125 54.6875 
L 18.109375 54.6875 
L 18.109375 46.1875 
Q 20.953125 51.171875 25.484375 53.578125 
Q 30.03125 56 36.53125 56 
Q 37.453125 56 38.578125 55.875 
Q 39.703125 55.765625 41.0625 55.515625 
z
" id="DejaVuSans-114"/>
      <path d="M 9.421875 54.6875 
L 18.40625 54.6875 
L 18.40625 0 
L 9.421875 0 
z
M 9.421875 75.984375 
L 18.40625 75.984375 
L 18.40625 64.59375 
L 9.421875 64.59375 
z
" id="DejaVuSans-105"/>
      <path d="M 45.40625 46.390625 
L 45.40625 75.984375 
L 54.390625 75.984375 
L 54.390625 0 
L 45.40625 0 
L 45.40625 8.203125 
Q 42.578125 3.328125 38.25 0.953125 
Q 33.9375 -1.421875 27.875 -1.421875 
Q 17.96875 -1.421875 11.734375 6.484375 
Q 5.515625 14.40625 5.515625 27.296875 
Q 5.515625 40.1875 11.734375 48.09375 
Q 17.96875 56 27.875 56 
Q 33.9375 56 38.25 53.625 
Q 42.578125 51.265625 45.40625 46.390625 
z
M 14.796875 27.296875 
Q 14.796875 17.390625 18.875 11.75 
Q 22.953125 6.109375 30.078125 6.109375 
Q 37.203125 6.109375 41.296875 11.75 
Q 45.40625 17.390625 45.40625 27.296875 
Q 45.40625 37.203125 41.296875 42.84375 
Q 37.203125 48.484375 30.078125 48.484375 
Q 22.953125 48.484375 18.875 42.84375 
Q 14.796875 37.203125 14.796875 27.296875 
z
" id="DejaVuSans-100"/>
      <path d="M 34.28125 27.484375 
Q 23.390625 27.484375 19.1875 25 
Q 14.984375 22.515625 14.984375 16.5 
Q 14.984375 11.71875 18.140625 8.90625 
Q 21.296875 6.109375 26.703125 6.109375 
Q 34.1875 6.109375 38.703125 11.40625 
Q 43.21875 16.703125 43.21875 25.484375 
L 43.21875 27.484375 
z
M 52.203125 31.203125 
L 52.203125 0 
L 43.21875 0 
L 43.21875 8.296875 
Q 40.140625 3.328125 35.546875 0.953125 
Q 30.953125 -1.421875 24.3125 -1.421875 
Q 15.921875 -1.421875 10.953125 3.296875 
Q 6 8.015625 6 15.921875 
Q 6 25.140625 12.171875 29.828125 
Q 18.359375 34.515625 30.609375 34.515625 
L 43.21875 34.515625 
L 43.21875 35.40625 
Q 43.21875 41.609375 39.140625 45 
Q 35.0625 48.390625 27.6875 48.390625 
Q 23 48.390625 18.546875 47.265625 
Q 14.109375 46.140625 10.015625 43.890625 
L 10.015625 52.203125 
Q 14.9375 54.109375 19.578125 55.046875 
Q 24.21875 56 28.609375 56 
Q 40.484375 56 46.34375 49.84375 
Q 52.203125 43.703125 52.203125 31.203125 
z
" id="DejaVuSans-97"/>
      <path d="M 44.28125 53.078125 
L 44.28125 44.578125 
Q 40.484375 46.53125 36.375 47.5 
Q 32.28125 48.484375 27.875 48.484375 
Q 21.1875 48.484375 17.84375 46.4375 
Q 14.5 44.390625 14.5 40.28125 
Q 14.5 37.15625 16.890625 35.375 
Q 19.28125 33.59375 26.515625 31.984375 
L 29.59375 31.296875 
Q 39.15625 29.25 43.1875 25.515625 
Q 47.21875 21.78125 47.21875 15.09375 
Q 47.21875 7.46875 41.1875 3.015625 
Q 35.15625 -1.421875 24.609375 -1.421875 
Q 20.21875 -1.421875 15.453125 -0.5625 
Q 10.6875 0.296875 5.421875 2 
L 5.421875 11.28125 
Q 10.40625 8.6875 15.234375 7.390625 
Q 20.0625 6.109375 24.8125 6.109375 
Q 31.15625 6.109375 34.5625 8.28125 
Q 37.984375 10.453125 37.984375 14.40625 
Q 37.984375 18.0625 35.515625 20.015625 
Q 33.0625 21.96875 24.703125 23.78125 
L 21.578125 24.515625 
Q 13.234375 26.265625 9.515625 29.90625 
Q 5.8125 33.546875 5.8125 39.890625 
Q 5.8125 47.609375 11.28125 51.796875 
Q 16.75 56 26.8125 56 
Q 31.78125 56 36.171875 55.265625 
Q 40.578125 54.546875 44.28125 53.078125 
z
" id="DejaVuSans-115"/>
     </defs>
     <g transform="translate(221.027031 184.948562)scale(0.1 -0.1)">
      <use xlink:href="#DejaVuSans-67"/>
      <use x="69.824219" xlink:href="#DejaVuSans-111"/>
      <use x="131.005859" xlink:href="#DejaVuSans-114"/>
      <use x="172.103516" xlink:href="#DejaVuSans-114"/>
      <use x="213.216797" xlink:href="#DejaVuSans-105"/>
      <use x="241" xlink:href="#DejaVuSans-100"/>
      <use x="304.476562" xlink:href="#DejaVuSans-97"/>
      <use x="365.755859" xlink:href="#DejaVuSans-115"/>
     </g>
    </g>
   </g>
   <g id="matplotlib.axis_2">
    <g id="ytick_1">
     <g id="line2d_13">
      <path clip-path="url(#p33278d9868)" d="M 46.08 150.807273 
L 437.76 150.807273 
" style="fill:none;stroke:#b0b0b0;stroke-linecap:square;stroke-width:0.8;"/>
     </g>
     <g id="line2d_14">
      <defs>
       <path d="M 0 0 
L -3.5 0 
" id="m39f8c44bf6" style="stroke:#000000;stroke-width:0.8;"/>
      </defs>
      <g>
       <use style="stroke:#000000;stroke-width:0.8;" x="46.08" xlink:href="#m39f8c44bf6" y="150.807273"/>
      </g>
     </g>
     <g id="text_8">
      <!-- 0.00000 -->
      <defs>
       <path d="M 10.6875 12.40625 
L 21 12.40625 
L 21 0 
L 10.6875 0 
z
" id="DejaVuSans-46"/>
      </defs>
      <g transform="translate(-2.273125 154.606491)scale(0.1 -0.1)">
       <use xlink:href="#DejaVuSans-48"/>
       <use x="63.623047" xlink:href="#DejaVuSans-46"/>
       <use x="95.410156" xlink:href="#DejaVuSans-48"/>
       <use x="159.033203" xlink:href="#DejaVuSans-48"/>
       <use x="222.65625" xlink:href="#DejaVuSans-48"/>
       <use x="286.279297" xlink:href="#DejaVuSans-48"/>
       <use x="349.902344" xlink:href="#DejaVuSans-48"/>
      </g>
     </g>
    </g>
    <g id="ytick_2">
     <g id="line2d_15">
      <path clip-path="url(#p33278d9868)" d="M 46.08 119.446437 
L 437.76 119.446437 
" style="fill:none;stroke:#b0b0b0;stroke-linecap:square;stroke-width:0.8;"/>
     </g>
     <g id="line2d_16">
      <g>
       <use style="stroke:#000000;stroke-width:0.8;" x="46.08" xlink:href="#m39f8c44bf6" y="119.446437"/>
      </g>
     </g>
     <g id="text_9">
      <!-- 0.00001 -->
      <g transform="translate(-2.273125 123.245655)scale(0.1 -0.1)">
       <use xlink:href="#DejaVuSans-48"/>
       <use x="63.623047" xlink:href="#DejaVuSans-46"/>
       <use x="95.410156" xlink:href="#DejaVuSans-48"/>
       <use x="159.033203" xlink:href="#DejaVuSans-48"/>
       <use x="222.65625" xlink:href="#DejaVuSans-48"/>
       <use x="286.279297" xlink:href="#DejaVuSans-48"/>
       <use x="349.902344" xlink:href="#DejaVuSans-49"/>
      </g>
     </g>
    </g>
    <g id="ytick_3">
     <g id="line2d_17">
      <path clip-path="url(#p33278d9868)" d="M 46.08 88.085601 
L 437.76 88.085601 
" style="fill:none;stroke:#b0b0b0;stroke-linecap:square;stroke-width:0.8;"/>
     </g>
     <g id="line2d_18">
      <g>
       <use style="stroke:#000000;stroke-width:0.8;" x="46.08" xlink:href="#m39f8c44bf6" y="88.085601"/>
      </g>
     </g>
     <g id="text_10">
      <!-- 0.00002 -->
      <g transform="translate(-2.273125 91.884819)scale(0.1 -0.1)">
       <use xlink:href="#DejaVuSans-48"/>
       <use x="63.623047" xlink:href="#DejaVuSans-46"/>
       <use x="95.410156" xlink:href="#DejaVuSans-48"/>
       <use x="159.033203" xlink:href="#DejaVuSans-48"/>
       <use x="222.65625" xlink:href="#DejaVuSans-48"/>
       <use x="286.279297" xlink:href="#DejaVuSans-48"/>
       <use x="349.902344" xlink:href="#DejaVuSans-50"/>
      </g>
     </g>
    </g>
    <g id="ytick_4">
     <g id="line2d_19">
      <path clip-path="url(#p33278d9868)" d="M 46.08 56.724765 
L 437.76 56.724765 
" style="fill:none;stroke:#b0b0b0;stroke-linecap:square;stroke-width:0.8;"/>
     </g>
     <g id="line2d_20">
      <g>
       <use style="stroke:#000000;stroke-width:0.8;" x="46.08" xlink:href="#m39f8c44bf6" y="56.724765"/>
      </g>
     </g>
     <g id="text_11">
      <!-- 0.00003 -->
      <defs>
       <path d="M 40.578125 39.3125 
Q 47.65625 37.796875 51.625 33 
Q 55.609375 28.21875 55.609375 21.1875 
Q 55.609375 10.40625 48.1875 4.484375 
Q 40.765625 -1.421875 27.09375 -1.421875 
Q 22.515625 -1.421875 17.65625 -0.515625 
Q 12.796875 0.390625 7.625 2.203125 
L 7.625 11.71875 
Q 11.71875 9.328125 16.59375 8.109375 
Q 21.484375 6.890625 26.8125 6.890625 
Q 36.078125 6.890625 40.9375 10.546875 
Q 45.796875 14.203125 45.796875 21.1875 
Q 45.796875 27.640625 41.28125 31.265625 
Q 36.765625 34.90625 28.71875 34.90625 
L 20.21875 34.90625 
L 20.21875 43.015625 
L 29.109375 43.015625 
Q 36.375 43.015625 40.234375 45.921875 
Q 44.09375 48.828125 44.09375 54.296875 
Q 44.09375 59.90625 40.109375 62.90625 
Q 36.140625 65.921875 28.71875 65.921875 
Q 24.65625 65.921875 20.015625 65.03125 
Q 15.375 64.15625 9.8125 62.3125 
L 9.8125 71.09375 
Q 15.4375 72.65625 20.34375 73.4375 
Q 25.25 74.21875 29.59375 74.21875 
Q 40.828125 74.21875 47.359375 69.109375 
Q 53.90625 64.015625 53.90625 55.328125 
Q 53.90625 49.265625 50.4375 45.09375 
Q 46.96875 40.921875 40.578125 39.3125 
z
" id="DejaVuSans-51"/>
      </defs>
      <g transform="translate(-2.273125 60.523983)scale(0.1 -0.1)">
       <use xlink:href="#DejaVuSans-48"/>
       <use x="63.623047" xlink:href="#DejaVuSans-46"/>
       <use x="95.410156" xlink:href="#DejaVuSans-48"/>
       <use x="159.033203" xlink:href="#DejaVuSans-48"/>
       <use x="222.65625" xlink:href="#DejaVuSans-48"/>
       <use x="286.279297" xlink:href="#DejaVuSans-48"/>
       <use x="349.902344" xlink:href="#DejaVuSans-51"/>
      </g>
     </g>
    </g>
    <g id="text_12">
     <!-- Número -->
     <defs>
      <path d="M 9.8125 72.90625 
L 23.09375 72.90625 
L 55.421875 11.921875 
L 55.421875 72.90625 
L 64.984375 72.90625 
L 64.984375 0 
L 51.703125 0 
L 19.390625 60.984375 
L 19.390625 0 
L 9.8125 0 
z
" id="DejaVuSans-78"/>
      <path d="M 8.5 21.578125 
L 8.5 54.6875 
L 17.484375 54.6875 
L 17.484375 21.921875 
Q 17.484375 14.15625 20.5 10.265625 
Q 23.53125 6.390625 29.59375 6.390625 
Q 36.859375 6.390625 41.078125 11.03125 
Q 45.3125 15.671875 45.3125 23.6875 
L 45.3125 54.6875 
L 54.296875 54.6875 
L 54.296875 0 
L 45.3125 0 
L 45.3125 8.40625 
Q 42.046875 3.421875 37.71875 1 
Q 33.40625 -1.421875 27.6875 -1.421875 
Q 18.265625 -1.421875 13.375 4.4375 
Q 8.5 10.296875 8.5 21.578125 
z
M 31.109375 56 
z
M 37.78125 79.984375 
L 47.5 79.984375 
L 31.59375 61.625 
L 24.109375 61.625 
z
" id="DejaVuSans-250"/>
      <path d="M 52 44.1875 
Q 55.375 50.25 60.0625 53.125 
Q 64.75 56 71.09375 56 
Q 79.640625 56 84.28125 50.015625 
Q 88.921875 44.046875 88.921875 33.015625 
L 88.921875 0 
L 79.890625 0 
L 79.890625 32.71875 
Q 79.890625 40.578125 77.09375 44.375 
Q 74.3125 48.1875 68.609375 48.1875 
Q 61.625 48.1875 57.5625 43.546875 
Q 53.515625 38.921875 53.515625 30.90625 
L 53.515625 0 
L 44.484375 0 
L 44.484375 32.71875 
Q 44.484375 40.625 41.703125 44.40625 
Q 38.921875 48.1875 33.109375 48.1875 
Q 26.21875 48.1875 22.15625 43.53125 
Q 18.109375 38.875 18.109375 30.90625 
L 18.109375 0 
L 9.078125 0 
L 9.078125 54.6875 
L 18.109375 54.6875 
L 18.109375 46.1875 
Q 21.1875 51.21875 25.484375 53.609375 
Q 29.78125 56 35.6875 56 
Q 41.65625 56 45.828125 52.96875 
Q 50 49.953125 52 44.1875 
z
" id="DejaVuSans-109"/>
      <path d="M 56.203125 29.59375 
L 56.203125 25.203125 
L 14.890625 25.203125 
Q 15.484375 15.921875 20.484375 11.0625 
Q 25.484375 6.203125 34.421875 6.203125 
Q 39.59375 6.203125 44.453125 7.46875 
Q 49.3125 8.734375 54.109375 11.28125 
L 54.109375 2.78125 
Q 49.265625 0.734375 44.1875 -0.34375 
Q 39.109375 -1.421875 33.890625 -1.421875 
Q 20.796875 -1.421875 13.15625 6.1875 
Q 5.515625 13.8125 5.515625 26.8125 
Q 5.515625 40.234375 12.765625 48.109375 
Q 20.015625 56 32.328125 56 
Q 43.359375 56 49.78125 48.890625 
Q 56.203125 41.796875 56.203125 29.59375 
z
M 47.21875 32.234375 
Q 47.125 39.59375 43.09375 43.984375 
Q 39.0625 48.390625 32.421875 48.390625 
Q 24.90625 48.390625 20.390625 44.140625 
Q 15.875 39.890625 15.1875 32.171875 
z
" id="DejaVuSans-101"/>
     </defs>
     <g transform="translate(-8.352813 112.129531)rotate(-90)scale(0.1 -0.1)">
      <use xlink:href="#DejaVuSans-78"/>
      <use x="74.804688" xlink:href="#DejaVuSans-250"/>
      <use x="138.183594" xlink:href="#DejaVuSans-109"/>
      <use x="235.595703" xlink:href="#DejaVuSans-101"/>
      <use x="297.119141" xlink:href="#DejaVuSans-114"/>
      <use x="338.201172" xlink:href="#DejaVuSans-111"/>
     </g>
    </g>
   </g>
   <g id="line2d_21">
    <path clip-path="url(#p33278d9868)" d="M 63.883636 150.807273 
L 64.596495 150.807273 
L 64.952924 112.371785 
L 65.309353 120.058883 
L 66.022211 128.844137 
L 66.37864 131.589529 
L 66.73507 52.304121 
L 67.447928 70.213785 
L 68.160786 82.612783 
L 68.873645 91.705382 
L 69.586503 98.658546 
L 69.942932 37.301373 
L 70.299361 43.275368 
L 70.65579 33.512727 
L 71.725078 48.812016 
L 72.437936 56.971636 
L 72.794365 54.50833 
L 73.863653 64.47029 
L 74.220082 67.348189 
L 74.576511 68.49823 
L 75.645799 75.760792 
L 77.071515 83.660422 
L 78.497232 90.05536 
L 78.853661 91.468195 
L 79.21009 90.878273 
L 80.635807 95.872357 
L 82.061523 100.098119 
L 83.48724 103.720202 
L 85.269386 107.579798 
L 85.625815 107.909012 
L 87.051532 110.508906 
L 87.407961 110.877562 
L 89.190106 113.650458 
L 90.972252 116.063238 
L 93.110827 118.574855 
L 95.249402 120.747827 
L 96.31869 121.728027 
L 96.675119 121.494754 
L 99.170123 123.54663 
L 101.665127 125.330037 
L 103.803702 126.68281 
L 104.160131 126.010625 
L 105.229419 126.646437 
L 105.585848 126.607907 
L 107.724423 127.778844 
L 108.080852 124.704647 
L 111.288714 126.457808 
L 112.358002 126.991008 
L 112.714431 125.116994 
L 115.922293 126.689868 
L 116.278722 109.595037 
L 116.635152 107.436814 
L 119.843014 109.907283 
L 120.199443 109.259913 
L 123.407305 111.485665 
L 124.833022 112.400121 
L 125.189451 109.21294 
L 128.753743 111.485854 
L 132.674464 113.715419 
L 133.030893 113.905634 
L 133.387322 111.598549 
L 134.10018 111.994597 
L 134.456609 110.580283 
L 138.733759 112.868074 
L 139.446618 113.22431 
L 139.803047 111.254614 
L 144.080197 113.354755 
L 144.436626 113.519744 
L 144.793055 113.265526 
L 149.426634 115.2906 
L 154.416642 117.240535 
L 156.198788 117.886049 
L 156.555217 117.683144 
L 157.268075 117.935039 
L 157.624505 117.625223 
L 163.327371 119.52134 
L 164.753088 119.961987 
L 165.109517 119.781422 
L 166.178804 120.104608 
L 166.535233 120.030824 
L 169.386667 120.786955 
L 169.743096 119.163432 
L 171.881671 119.787981 
L 172.2381 119.700128 
L 175.802391 120.604985 
L 176.51525 120.795536 
L 176.871679 119.583243 
L 177.584537 119.778393 
L 177.940966 118.090466 
L 185.06955 120.00934 
L 187.920983 120.71531 
L 188.277412 120.56951 
L 193.26742 121.732501 
L 193.623849 121.70009 
L 198.257428 122.701131 
L 198.613857 119.818701 
L 199.683145 119.810038 
L 202.534578 120.445878 
L 202.891007 120.094423 
L 208.237445 121.160261 
L 208.950303 121.305589 
L 209.306732 120.607849 
L 210.37602 120.786245 
L 216.078886 121.840745 
L 218.930319 122.372241 
L 219.286749 122.31849 
L 219.643178 122.055071 
L 221.781753 122.443614 
L 222.138182 121.821113 
L 226.415332 122.582237 
L 226.771761 122.175313 
L 230.336052 122.787107 
L 230.692482 121.948658 
L 241.385356 123.683645 
L 244.949648 124.216526 
L 245.306077 123.239656 
L 254.573235 124.576891 
L 254.929664 123.874582 
L 258.137527 124.254981 
L 258.493956 123.630187 
L 258.850385 123.67978 
L 259.206814 123.506842 
L 260.276102 123.655214 
L 260.632531 123.159382 
L 262.414676 123.407123 
L 262.771106 121.910845 
L 264.196822 122.089819 
L 264.553251 121.976214 
L 270.256118 122.761444 
L 270.612547 122.555438 
L 275.246126 123.173744 
L 275.602555 123.046253 
L 276.315414 123.139255 
L 276.671843 122.07056 
L 281.305422 122.673491 
L 281.661851 122.348378 
L 282.01828 122.394803 
L 282.374709 122.122919 
L 286.651859 122.672779 
L 287.008288 122.578326 
L 287.364717 122.623277 
L 287.721147 122.253598 
L 288.077576 122.16775 
L 290.216151 122.437935 
L 290.57258 122.33139 
L 294.136871 122.771512 
L 294.493301 122.519302 
L 299.12688 123.05199 
L 299.483309 122.689515 
L 300.196167 122.774207 
L 300.552596 121.937187 
L 300.909025 121.980535 
L 301.265455 121.009069 
L 303.760459 121.22867 
L 304.116888 120.776223 
L 306.611892 121.064023 
L 306.968321 120.423571 
L 307.32475 117.655214 
L 316.948337 118.914153 
L 317.304767 118.20243 
L 318.017625 118.179777 
L 324.789779 118.903246 
L 328.35407 119.332641 
L 328.7105 119.022621 
L 329.066929 117.597341 
L 330.136216 117.730536 
L 330.492645 117.511692 
L 331.205504 117.600362 
L 331.561933 117.501995 
L 335.126224 117.939072 
L 335.482654 116.533936 
L 336.195512 116.62354 
L 336.90837 116.374213 
L 342.967666 117.025401 
L 346.175528 117.408801 
L 346.531957 117.194117 
L 347.601245 117.278235 
L 347.957674 117.191054 
L 355.442686 118.053009 
L 355.799115 117.958014 
L 359.719836 118.392842 
L 360.076265 118.309173 
L 362.571269 118.580313 
L 362.927699 118.136495 
L 364.709844 118.329813 
L 365.066274 118.21352 
L 367.204848 118.421021 
L 367.561278 118.458989 
L 367.917707 118.37858 
L 371.125569 118.71677 
L 371.481998 118.567541 
L 372.551286 118.679097 
L 372.907715 118.424594 
L 373.977002 118.53613 
L 374.689861 117.975594 
L 377.184865 118.137814 
L 377.541294 117.932624 
L 377.897723 117.969897 
L 378.254152 117.892168 
L 380.392727 118.114317 
L 380.749156 117.850369 
L 381.105586 117.887358 
L 381.462015 117.671746 
L 385.026306 118.039102 
L 385.382735 117.374447 
L 387.87774 117.631622 
L 388.234169 117.530387 
L 392.867748 117.998568 
L 393.224177 117.387969 
L 396.432039 117.690345 
L 396.788468 117.541439 
L 408.194201 118.619625 
L 408.550631 118.313977 
L 414.966355 118.816727 
L 415.322785 117.569269 
L 419.956364 118.001363 
L 419.956364 118.001363 
" style="fill:none;stroke:#1f77b4;stroke-linecap:square;stroke-width:1.5;"/>
   </g>
   <g id="patch_3">
    <path d="M 46.08 156.672 
L 46.08 27.648 
" style="fill:none;stroke:#000000;stroke-linecap:square;stroke-linejoin:miter;stroke-width:0.8;"/>
   </g>
   <g id="patch_4">
    <path d="M 437.76 156.672 
L 437.76 27.648 
" style="fill:none;stroke:#000000;stroke-linecap:square;stroke-linejoin:miter;stroke-width:0.8;"/>
   </g>
   <g id="patch_5">
    <path d="M 46.08 156.672 
L 437.76 156.672 
" style="fill:none;stroke:#000000;stroke-linecap:square;stroke-linejoin:miter;stroke-width:0.8;"/>
   </g>
   <g id="patch_6">
    <path d="M 46.08 27.648 
L 437.76 27.648 
" style="fill:none;stroke:#000000;stroke-linecap:square;stroke-linejoin:miter;stroke-width:0.8;"/>
   </g>
   <g id="text_13">
    <!-- Número promedio de clientes en cola A -->
    <defs>
     <path id="DejaVuSans-32"/>
     <path d="M 18.109375 8.203125 
L 18.109375 -20.796875 
L 9.078125 -20.796875 
L 9.078125 54.6875 
L 18.109375 54.6875 
L 18.109375 46.390625 
Q 20.953125 51.265625 25.265625 53.625 
Q 29.59375 56 35.59375 56 
Q 45.5625 56 51.78125 48.09375 
Q 58.015625 40.1875 58.015625 27.296875 
Q 58.015625 14.40625 51.78125 6.484375 
Q 45.5625 -1.421875 35.59375 -1.421875 
Q 29.59375 -1.421875 25.265625 0.953125 
Q 20.953125 3.328125 18.109375 8.203125 
z
M 48.6875 27.296875 
Q 48.6875 37.203125 44.609375 42.84375 
Q 40.53125 48.484375 33.40625 48.484375 
Q 26.265625 48.484375 22.1875 42.84375 
Q 18.109375 37.203125 18.109375 27.296875 
Q 18.109375 17.390625 22.1875 11.75 
Q 26.265625 6.109375 33.40625 6.109375 
Q 40.53125 6.109375 44.609375 11.75 
Q 48.6875 17.390625 48.6875 27.296875 
z
" id="DejaVuSans-112"/>
     <path d="M 48.78125 52.59375 
L 48.78125 44.1875 
Q 44.96875 46.296875 41.140625 47.34375 
Q 37.3125 48.390625 33.40625 48.390625 
Q 24.65625 48.390625 19.8125 42.84375 
Q 14.984375 37.3125 14.984375 27.296875 
Q 14.984375 17.28125 19.8125 11.734375 
Q 24.65625 6.203125 33.40625 6.203125 
Q 37.3125 6.203125 41.140625 7.25 
Q 44.96875 8.296875 48.78125 10.40625 
L 48.78125 2.09375 
Q 45.015625 0.34375 40.984375 -0.53125 
Q 36.96875 -1.421875 32.421875 -1.421875 
Q 20.0625 -1.421875 12.78125 6.34375 
Q 5.515625 14.109375 5.515625 27.296875 
Q 5.515625 40.671875 12.859375 48.328125 
Q 20.21875 56 33.015625 56 
Q 37.15625 56 41.109375 55.140625 
Q 45.0625 54.296875 48.78125 52.59375 
z
" id="DejaVuSans-99"/>
     <path d="M 9.421875 75.984375 
L 18.40625 75.984375 
L 18.40625 0 
L 9.421875 0 
z
" id="DejaVuSans-108"/>
     <path d="M 54.890625 33.015625 
L 54.890625 0 
L 45.90625 0 
L 45.90625 32.71875 
Q 45.90625 40.484375 42.875 44.328125 
Q 39.84375 48.1875 33.796875 48.1875 
Q 26.515625 48.1875 22.3125 43.546875 
Q 18.109375 38.921875 18.109375 30.90625 
L 18.109375 0 
L 9.078125 0 
L 9.078125 54.6875 
L 18.109375 54.6875 
L 18.109375 46.1875 
Q 21.34375 51.125 25.703125 53.5625 
Q 30.078125 56 35.796875 56 
Q 45.21875 56 50.046875 50.171875 
Q 54.890625 44.34375 54.890625 33.015625 
z
" id="DejaVuSans-110"/>
     <path d="M 18.3125 70.21875 
L 18.3125 54.6875 
L 36.8125 54.6875 
L 36.8125 47.703125 
L 18.3125 47.703125 
L 18.3125 18.015625 
Q 18.3125 11.328125 20.140625 9.421875 
Q 21.96875 7.515625 27.59375 7.515625 
L 36.8125 7.515625 
L 36.8125 0 
L 27.59375 0 
Q 17.1875 0 13.234375 3.875 
Q 9.28125 7.765625 9.28125 18.015625 
L 9.28125 47.703125 
L 2.6875 47.703125 
L 2.6875 54.6875 
L 9.28125 54.6875 
L 9.28125 70.21875 
z
" id="DejaVuSans-116"/>
     <path d="M 34.1875 63.1875 
L 20.796875 26.90625 
L 47.609375 26.90625 
z
M 28.609375 72.90625 
L 39.796875 72.90625 
L 67.578125 0 
L 57.328125 0 
L 50.6875 18.703125 
L 17.828125 18.703125 
L 11.1875 0 
L 0.78125 0 
z
" id="DejaVuSans-65"/>
    </defs>
    <g transform="translate(123.17625 21.648)scale(0.12 -0.12)">
     <use xlink:href="#DejaVuSans-78"/>
     <use x="74.804688" xlink:href="#DejaVuSans-250"/>
     <use x="138.183594" xlink:href="#DejaVuSans-109"/>
     <use x="235.595703" xlink:href="#DejaVuSans-101"/>
     <use x="297.119141" xlink:href="#DejaVuSans-114"/>
     <use x="338.201172" xlink:href="#DejaVuSans-111"/>
     <use x="399.382812" xlink:href="#DejaVuSans-32"/>
     <use x="431.169922" xlink:href="#DejaVuSans-112"/>
     <use x="494.646484" xlink:href="#DejaVuSans-114"/>
     <use x="535.728516" xlink:href="#DejaVuSans-111"/>
     <use x="596.910156" xlink:href="#DejaVuSans-109"/>
     <use x="694.322266" xlink:href="#DejaVuSans-101"/>
     <use x="755.845703" xlink:href="#DejaVuSans-100"/>
     <use x="819.322266" xlink:href="#DejaVuSans-105"/>
     <use x="847.105469" xlink:href="#DejaVuSans-111"/>
     <use x="908.287109" xlink:href="#DejaVuSans-32"/>
     <use x="940.074219" xlink:href="#DejaVuSans-100"/>
     <use x="1003.550781" xlink:href="#DejaVuSans-101"/>
     <use x="1065.074219" xlink:href="#DejaVuSans-32"/>
     <use x="1096.861328" xlink:href="#DejaVuSans-99"/>
     <use x="1151.841797" xlink:href="#DejaVuSans-108"/>
     <use x="1179.625" xlink:href="#DejaVuSans-105"/>
     <use x="1207.408203" xlink:href="#DejaVuSans-101"/>
     <use x="1268.931641" xlink:href="#DejaVuSans-110"/>
     <use x="1332.310547" xlink:href="#DejaVuSans-116"/>
     <use x="1371.519531" xlink:href="#DejaVuSans-101"/>
     <use x="1433.042969" xlink:href="#DejaVuSans-115"/>
     <use x="1485.142578" xlink:href="#DejaVuSans-32"/>
     <use x="1516.929688" xlink:href="#DejaVuSans-101"/>
     <use x="1578.453125" xlink:href="#DejaVuSans-110"/>
     <use x="1641.832031" xlink:href="#DejaVuSans-32"/>
     <use x="1673.619141" xlink:href="#DejaVuSans-99"/>
     <use x="1728.599609" xlink:href="#DejaVuSans-111"/>
     <use x="1789.78125" xlink:href="#DejaVuSans-108"/>
     <use x="1817.564453" xlink:href="#DejaVuSans-97"/>
     <use x="1878.84375" xlink:href="#DejaVuSans-32"/>
     <use x="1910.630859" xlink:href="#DejaVuSans-65"/>
    </g>
   </g>
  </g>
  <g id="axes_2">
   <g id="patch_7">
    <path d="M 46.08 317.952 
L 437.76 317.952 
L 437.76 188.928 
L 46.08 188.928 
z
" style="fill:#ffffff;"/>
   </g>
   <g id="matplotlib.axis_3">
    <g id="xtick_7">
     <g id="line2d_22">
      <path clip-path="url(#p199f122503)" d="M 63.527207 317.952 
L 63.527207 188.928 
" style="fill:none;stroke:#b0b0b0;stroke-linecap:square;stroke-width:0.8;"/>
     </g>
     <g id="line2d_23">
      <g>
       <use style="stroke:#000000;stroke-width:0.8;" x="63.527207" xlink:href="#m9c3ad27af2" y="317.952"/>
      </g>
     </g>
     <g id="text_14">
      <!-- 0 -->
      <g transform="translate(60.345957 332.550437)scale(0.1 -0.1)">
       <use xlink:href="#DejaVuSans-48"/>
      </g>
     </g>
    </g>
    <g id="xtick_8">
     <g id="line2d_24">
      <path clip-path="url(#p199f122503)" d="M 134.813038 317.952 
L 134.813038 188.928 
" style="fill:none;stroke:#b0b0b0;stroke-linecap:square;stroke-width:0.8;"/>
     </g>
     <g id="line2d_25">
      <g>
       <use style="stroke:#000000;stroke-width:0.8;" x="134.813038" xlink:href="#m9c3ad27af2" y="317.952"/>
      </g>
     </g>
     <g id="text_15">
      <!-- 200 -->
      <g transform="translate(125.269288 332.550437)scale(0.1 -0.1)">
       <use xlink:href="#DejaVuSans-50"/>
       <use x="63.623047" xlink:href="#DejaVuSans-48"/>
       <use x="127.246094" xlink:href="#DejaVuSans-48"/>
      </g>
     </g>
    </g>
    <g id="xtick_9">
     <g id="line2d_26">
      <path clip-path="url(#p199f122503)" d="M 206.09887 317.952 
L 206.09887 188.928 
" style="fill:none;stroke:#b0b0b0;stroke-linecap:square;stroke-width:0.8;"/>
     </g>
     <g id="line2d_27">
      <g>
       <use style="stroke:#000000;stroke-width:0.8;" x="206.09887" xlink:href="#m9c3ad27af2" y="317.952"/>
      </g>
     </g>
     <g id="text_16">
      <!-- 400 -->
      <g transform="translate(196.55512 332.550437)scale(0.1 -0.1)">
       <use xlink:href="#DejaVuSans-52"/>
       <use x="63.623047" xlink:href="#DejaVuSans-48"/>
       <use x="127.246094" xlink:href="#DejaVuSans-48"/>
      </g>
     </g>
    </g>
    <g id="xtick_10">
     <g id="line2d_28">
      <path clip-path="url(#p199f122503)" d="M 277.384701 317.952 
L 277.384701 188.928 
" style="fill:none;stroke:#b0b0b0;stroke-linecap:square;stroke-width:0.8;"/>
     </g>
     <g id="line2d_29">
      <g>
       <use style="stroke:#000000;stroke-width:0.8;" x="277.384701" xlink:href="#m9c3ad27af2" y="317.952"/>
      </g>
     </g>
     <g id="text_17">
      <!-- 600 -->
      <g transform="translate(267.840951 332.550437)scale(0.1 -0.1)">
       <use xlink:href="#DejaVuSans-54"/>
       <use x="63.623047" xlink:href="#DejaVuSans-48"/>
       <use x="127.246094" xlink:href="#DejaVuSans-48"/>
      </g>
     </g>
    </g>
    <g id="xtick_11">
     <g id="line2d_30">
      <path clip-path="url(#p199f122503)" d="M 348.670532 317.952 
L 348.670532 188.928 
" style="fill:none;stroke:#b0b0b0;stroke-linecap:square;stroke-width:0.8;"/>
     </g>
     <g id="line2d_31">
      <g>
       <use style="stroke:#000000;stroke-width:0.8;" x="348.670532" xlink:href="#m9c3ad27af2" y="317.952"/>
      </g>
     </g>
     <g id="text_18">
      <!-- 800 -->
      <g transform="translate(339.126782 332.550437)scale(0.1 -0.1)">
       <use xlink:href="#DejaVuSans-56"/>
       <use x="63.623047" xlink:href="#DejaVuSans-48"/>
       <use x="127.246094" xlink:href="#DejaVuSans-48"/>
      </g>
     </g>
    </g>
    <g id="xtick_12">
     <g id="line2d_32">
      <path clip-path="url(#p199f122503)" d="M 419.956364 317.952 
L 419.956364 188.928 
" style="fill:none;stroke:#b0b0b0;stroke-linecap:square;stroke-width:0.8;"/>
     </g>
     <g id="line2d_33">
      <g>
       <use style="stroke:#000000;stroke-width:0.8;" x="419.956364" xlink:href="#m9c3ad27af2" y="317.952"/>
      </g>
     </g>
     <g id="text_19">
      <!-- 1000 -->
      <g transform="translate(407.231364 332.550437)scale(0.1 -0.1)">
       <use xlink:href="#DejaVuSans-49"/>
       <use x="63.623047" xlink:href="#DejaVuSans-48"/>
       <use x="127.246094" xlink:href="#DejaVuSans-48"/>
       <use x="190.869141" xlink:href="#DejaVuSans-48"/>
      </g>
     </g>
    </g>
    <g id="text_20">
     <!-- Corridas -->
     <g transform="translate(221.027031 346.228563)scale(0.1 -0.1)">
      <use xlink:href="#DejaVuSans-67"/>
      <use x="69.824219" xlink:href="#DejaVuSans-111"/>
      <use x="131.005859" xlink:href="#DejaVuSans-114"/>
      <use x="172.103516" xlink:href="#DejaVuSans-114"/>
      <use x="213.216797" xlink:href="#DejaVuSans-105"/>
      <use x="241" xlink:href="#DejaVuSans-100"/>
      <use x="304.476562" xlink:href="#DejaVuSans-97"/>
      <use x="365.755859" xlink:href="#DejaVuSans-115"/>
     </g>
    </g>
   </g>
   <g id="matplotlib.axis_4">
    <g id="ytick_5">
     <g id="line2d_34">
      <path clip-path="url(#p199f122503)" d="M 46.08 296.76417 
L 437.76 296.76417 
" style="fill:none;stroke:#b0b0b0;stroke-linecap:square;stroke-width:0.8;"/>
     </g>
     <g id="line2d_35">
      <g>
       <use style="stroke:#000000;stroke-width:0.8;" x="46.08" xlink:href="#m39f8c44bf6" y="296.76417"/>
      </g>
     </g>
     <g id="text_21">
      <!-- 0.0400 -->
      <g transform="translate(4.089375 300.563388)scale(0.1 -0.1)">
       <use xlink:href="#DejaVuSans-48"/>
       <use x="63.623047" xlink:href="#DejaVuSans-46"/>
       <use x="95.410156" xlink:href="#DejaVuSans-48"/>
       <use x="159.033203" xlink:href="#DejaVuSans-52"/>
       <use x="222.65625" xlink:href="#DejaVuSans-48"/>
       <use x="286.279297" xlink:href="#DejaVuSans-48"/>
      </g>
     </g>
    </g>
    <g id="ytick_6">
     <g id="line2d_36">
      <path clip-path="url(#p199f122503)" d="M 46.08 274.870795 
L 437.76 274.870795 
" style="fill:none;stroke:#b0b0b0;stroke-linecap:square;stroke-width:0.8;"/>
     </g>
     <g id="line2d_37">
      <g>
       <use style="stroke:#000000;stroke-width:0.8;" x="46.08" xlink:href="#m39f8c44bf6" y="274.870795"/>
      </g>
     </g>
     <g id="text_22">
      <!-- 0.0425 -->
      <defs>
       <path d="M 10.796875 72.90625 
L 49.515625 72.90625 
L 49.515625 64.59375 
L 19.828125 64.59375 
L 19.828125 46.734375 
Q 21.96875 47.46875 24.109375 47.828125 
Q 26.265625 48.1875 28.421875 48.1875 
Q 40.625 48.1875 47.75 41.5 
Q 54.890625 34.8125 54.890625 23.390625 
Q 54.890625 11.625 47.5625 5.09375 
Q 40.234375 -1.421875 26.90625 -1.421875 
Q 22.3125 -1.421875 17.546875 -0.640625 
Q 12.796875 0.140625 7.71875 1.703125 
L 7.71875 11.625 
Q 12.109375 9.234375 16.796875 8.0625 
Q 21.484375 6.890625 26.703125 6.890625 
Q 35.15625 6.890625 40.078125 11.328125 
Q 45.015625 15.765625 45.015625 23.390625 
Q 45.015625 31 40.078125 35.4375 
Q 35.15625 39.890625 26.703125 39.890625 
Q 22.75 39.890625 18.8125 39.015625 
Q 14.890625 38.140625 10.796875 36.28125 
z
" id="DejaVuSans-53"/>
      </defs>
      <g transform="translate(4.089375 278.670014)scale(0.1 -0.1)">
       <use xlink:href="#DejaVuSans-48"/>
       <use x="63.623047" xlink:href="#DejaVuSans-46"/>
       <use x="95.410156" xlink:href="#DejaVuSans-48"/>
       <use x="159.033203" xlink:href="#DejaVuSans-52"/>
       <use x="222.65625" xlink:href="#DejaVuSans-50"/>
       <use x="286.279297" xlink:href="#DejaVuSans-53"/>
      </g>
     </g>
    </g>
    <g id="ytick_7">
     <g id="line2d_38">
      <path clip-path="url(#p199f122503)" d="M 46.08 252.97742 
L 437.76 252.97742 
" style="fill:none;stroke:#b0b0b0;stroke-linecap:square;stroke-width:0.8;"/>
     </g>
     <g id="line2d_39">
      <g>
       <use style="stroke:#000000;stroke-width:0.8;" x="46.08" xlink:href="#m39f8c44bf6" y="252.97742"/>
      </g>
     </g>
     <g id="text_23">
      <!-- 0.0450 -->
      <g transform="translate(4.089375 256.776639)scale(0.1 -0.1)">
       <use xlink:href="#DejaVuSans-48"/>
       <use x="63.623047" xlink:href="#DejaVuSans-46"/>
       <use x="95.410156" xlink:href="#DejaVuSans-48"/>
       <use x="159.033203" xlink:href="#DejaVuSans-52"/>
       <use x="222.65625" xlink:href="#DejaVuSans-53"/>
       <use x="286.279297" xlink:href="#DejaVuSans-48"/>
      </g>
     </g>
    </g>
    <g id="ytick_8">
     <g id="line2d_40">
      <path clip-path="url(#p199f122503)" d="M 46.08 231.084045 
L 437.76 231.084045 
" style="fill:none;stroke:#b0b0b0;stroke-linecap:square;stroke-width:0.8;"/>
     </g>
     <g id="line2d_41">
      <g>
       <use style="stroke:#000000;stroke-width:0.8;" x="46.08" xlink:href="#m39f8c44bf6" y="231.084045"/>
      </g>
     </g>
     <g id="text_24">
      <!-- 0.0475 -->
      <defs>
       <path d="M 8.203125 72.90625 
L 55.078125 72.90625 
L 55.078125 68.703125 
L 28.609375 0 
L 18.3125 0 
L 43.21875 64.59375 
L 8.203125 64.59375 
z
" id="DejaVuSans-55"/>
      </defs>
      <g transform="translate(4.089375 234.883264)scale(0.1 -0.1)">
       <use xlink:href="#DejaVuSans-48"/>
       <use x="63.623047" xlink:href="#DejaVuSans-46"/>
       <use x="95.410156" xlink:href="#DejaVuSans-48"/>
       <use x="159.033203" xlink:href="#DejaVuSans-52"/>
       <use x="222.65625" xlink:href="#DejaVuSans-55"/>
       <use x="286.279297" xlink:href="#DejaVuSans-53"/>
      </g>
     </g>
    </g>
    <g id="ytick_9">
     <g id="line2d_42">
      <path clip-path="url(#p199f122503)" d="M 46.08 209.19067 
L 437.76 209.19067 
" style="fill:none;stroke:#b0b0b0;stroke-linecap:square;stroke-width:0.8;"/>
     </g>
     <g id="line2d_43">
      <g>
       <use style="stroke:#000000;stroke-width:0.8;" x="46.08" xlink:href="#m39f8c44bf6" y="209.19067"/>
      </g>
     </g>
     <g id="text_25">
      <!-- 0.0500 -->
      <g transform="translate(4.089375 212.989889)scale(0.1 -0.1)">
       <use xlink:href="#DejaVuSans-48"/>
       <use x="63.623047" xlink:href="#DejaVuSans-46"/>
       <use x="95.410156" xlink:href="#DejaVuSans-48"/>
       <use x="159.033203" xlink:href="#DejaVuSans-53"/>
       <use x="222.65625" xlink:href="#DejaVuSans-48"/>
       <use x="286.279297" xlink:href="#DejaVuSans-48"/>
      </g>
     </g>
    </g>
    <g id="text_26">
     <!-- Número -->
     <g transform="translate(-1.990312 273.409531)rotate(-90)scale(0.1 -0.1)">
      <use xlink:href="#DejaVuSans-78"/>
      <use x="74.804688" xlink:href="#DejaVuSans-250"/>
      <use x="138.183594" xlink:href="#DejaVuSans-109"/>
      <use x="235.595703" xlink:href="#DejaVuSans-101"/>
      <use x="297.119141" xlink:href="#DejaVuSans-114"/>
      <use x="338.201172" xlink:href="#DejaVuSans-111"/>
     </g>
    </g>
   </g>
   <g id="line2d_44">
    <path clip-path="url(#p199f122503)" d="M 63.883636 312.087273 
L 64.240066 285.107447 
L 64.596495 277.943346 
L 64.952924 287.130131 
L 65.309353 264.912433 
L 65.665782 230.048341 
L 66.022211 238.79518 
L 66.37864 204.131148 
L 66.73507 202.797521 
L 67.091499 198.023657 
L 67.447928 194.792727 
L 67.804357 197.382087 
L 68.160786 209.947007 
L 68.517215 211.221282 
L 68.873645 206.185065 
L 69.230074 204.129807 
L 69.586503 207.384712 
L 69.942932 212.486354 
L 70.65579 219.386176 
L 71.012219 219.090558 
L 71.368649 219.136171 
L 71.725078 224.134328 
L 72.081507 223.082627 
L 72.437936 222.646967 
L 72.794365 221.368941 
L 73.150794 219.603501 
L 73.507224 216.371198 
L 73.863653 219.294442 
L 74.220082 215.505646 
L 74.93294 214.147146 
L 75.289369 209.149049 
L 75.645799 207.335311 
L 76.002228 209.268247 
L 76.715086 215.747389 
L 77.071515 213.633726 
L 77.427944 214.966412 
L 77.784373 217.385981 
L 78.497232 218.794335 
L 78.853661 217.576908 
L 79.566519 218.868914 
L 79.922948 218.811011 
L 80.279378 218.155767 
L 80.635807 219.317879 
L 80.992236 217.887295 
L 81.348665 220.017964 
L 81.705094 219.888217 
L 82.061523 222.152569 
L 82.417952 218.584676 
L 82.774382 217.359747 
L 83.130811 216.901667 
L 83.843669 215.44384 
L 84.200098 215.292746 
L 84.556527 215.593803 
L 84.912957 215.400922 
L 85.269386 217.204049 
L 85.625815 216.010122 
L 85.982244 212.710744 
L 86.338673 211.733541 
L 86.695102 213.065923 
L 87.051532 210.424461 
L 87.407961 210.795057 
L 87.76439 207.953281 
L 88.120819 207.041225 
L 88.477248 208.422165 
L 88.833677 207.769989 
L 89.190106 208.481271 
L 89.546536 208.51629 
L 89.902965 208.326546 
L 90.259394 207.803625 
L 90.972252 210.999107 
L 91.328681 209.468119 
L 92.04154 208.999152 
L 92.754398 208.504295 
L 93.110827 209.589806 
L 93.467256 209.719976 
L 93.823686 209.552819 
L 94.180115 209.947246 
L 94.536544 208.836129 
L 94.892973 208.43525 
L 95.249402 208.481029 
L 95.605831 208.791455 
L 95.96226 209.469846 
L 96.31869 209.720138 
L 97.031548 210.81785 
L 97.387977 210.704288 
L 97.744406 209.915395 
L 98.457265 209.620308 
L 98.813694 208.734818 
L 99.170123 207.054581 
L 99.526552 206.29704 
L 99.882981 207.17762 
L 100.23941 207.266985 
L 100.595839 207.515264 
L 100.952269 208.408224 
L 101.308698 208.068626 
L 101.665127 208.227161 
L 102.021556 209.100488 
L 102.377985 208.681612 
L 102.734414 208.988388 
L 103.090844 209.925955 
L 103.447273 210.348581 
L 103.803702 209.983929 
L 104.160131 209.958682 
L 104.51656 208.587527 
L 104.872989 208.501244 
L 105.229419 208.660231 
L 105.585848 208.008465 
L 105.942277 208.285838 
L 106.298706 208.894611 
L 106.655135 207.526222 
L 107.011564 207.302426 
L 107.724423 207.927389 
L 108.080852 207.964648 
L 108.437281 208.959166 
L 108.79371 208.55794 
L 109.150139 210.04338 
L 109.506568 209.103455 
L 109.862998 208.801657 
L 110.219427 209.742703 
L 110.932285 210.815846 
L 111.288714 210.494796 
L 111.645143 209.922629 
L 112.001572 209.731872 
L 112.358002 210.067668 
L 112.714431 208.542985 
L 113.07086 208.515494 
L 113.783718 206.984447 
L 114.496577 207.289227 
L 115.209435 207.19727 
L 115.565864 206.563511 
L 115.922293 206.302098 
L 116.635152 205.295561 
L 116.991581 205.106586 
L 117.34801 205.844362 
L 118.417297 206.484964 
L 118.773726 205.086575 
L 119.130156 206.366146 
L 119.486585 206.187063 
L 119.843014 205.205599 
L 120.199443 204.80054 
L 120.555872 205.190959 
L 120.912301 204.713046 
L 121.268731 202.652252 
L 121.62516 203.189931 
L 121.981589 202.971182 
L 122.338018 202.955344 
L 122.694447 203.173815 
L 123.050876 203.072358 
L 123.407305 203.938777 
L 123.763735 202.744628 
L 124.120164 203.374016 
L 124.476593 203.246554 
L 124.833022 203.560149 
L 125.189451 203.163844 
L 125.54588 203.285737 
L 126.258739 202.561559 
L 126.615168 202.941884 
L 126.971597 203.145358 
L 127.328026 203.775859 
L 127.684455 203.369492 
L 128.040885 204.422939 
L 128.397314 204.32852 
L 129.110172 202.705155 
L 129.466601 202.347583 
L 129.82303 202.959515 
L 130.179459 202.86721 
L 130.535889 202.658322 
L 130.892318 202.891181 
L 131.961605 204.219208 
L 132.318034 204.050449 
L 132.674464 204.041238 
L 133.030893 204.281937 
L 133.743751 203.831879 
L 134.10018 204.155984 
L 134.456609 204.185239 
L 134.813038 204.693924 
L 135.169468 204.78707 
L 135.525897 204.123971 
L 135.882326 203.12229 
L 136.238755 203.106462 
L 136.595184 202.326725 
L 136.951613 203.154333 
L 137.664472 203.409616 
L 138.020901 203.249259 
L 139.090188 203.812411 
L 139.446618 203.718575 
L 139.803047 202.359615 
L 140.159476 202.893014 
L 140.872334 203.242456 
L 141.228763 203.2665 
L 141.585192 203.152262 
L 142.65448 204.740608 
L 143.010909 204.627016 
L 143.367338 204.009757 
L 144.080197 204.31421 
L 144.436626 203.64908 
L 144.793055 203.461528 
L 145.149484 203.110711 
L 145.505913 203.691992 
L 145.862342 203.838702 
L 146.218771 204.40257 
L 146.575201 204.395777 
L 146.93163 204.635249 
L 147.288059 205.17801 
L 147.644488 205.177315 
L 148.000917 205.527069 
L 148.713776 204.226718 
L 149.070205 204.45864 
L 149.426634 203.442026 
L 149.783063 203.228976 
L 150.495921 203.91367 
L 150.852351 204.678284 
L 151.20878 204.948176 
L 151.921638 204.989239 
L 152.278067 204.549955 
L 152.634496 204.618566 
L 152.990925 205.252746 
L 153.347355 205.363562 
L 153.703784 205.761536 
L 154.416642 205.694441 
L 155.1295 206.495542 
L 155.48593 205.82782 
L 155.842359 206.188355 
L 156.198788 205.749586 
L 156.911646 205.470832 
L 157.268075 204.894833 
L 157.624505 204.966633 
L 158.337363 204.222925 
L 158.693792 203.836824 
L 159.050221 204.22685 
L 159.40665 204.054107 
L 159.763079 204.208001 
L 160.119509 203.867834 
L 160.475938 203.97755 
L 160.832367 203.631878 
L 161.188796 203.649541 
L 161.901654 204.596353 
L 162.970942 205.27955 
L 163.327371 205.670082 
L 163.6838 205.409998 
L 164.040229 205.748401 
L 164.396658 205.49671 
L 165.465946 206.807525 
L 165.822375 205.842786 
L 166.178804 205.504483 
L 166.535233 204.831824 
L 166.891663 205.128307 
L 167.248092 204.712216 
L 167.96095 205.099539 
L 168.317379 205.059296 
L 170.099525 206.383744 
L 170.455954 206.118903 
L 170.812383 206.437274 
L 171.525242 206.317907 
L 171.881671 205.896068 
L 172.2381 205.895347 
L 172.594529 206.215124 
L 172.950958 205.970879 
L 173.307387 206.056802 
L 174.376675 204.743106 
L 174.733104 204.735835 
L 175.089533 204.582683 
L 176.158821 205.019035 
L 176.51525 205.332906 
L 176.871679 204.805795 
L 178.297396 205.660949 
L 178.653825 205.452788 
L 179.010254 205.545265 
L 179.723112 206.070184 
L 180.079541 205.812253 
L 180.435971 205.868503 
L 180.7924 206.467674 
L 181.148829 206.760815 
L 181.505258 206.856911 
L 181.861687 206.345597 
L 182.218116 206.374877 
L 182.930975 206.177327 
L 183.643833 206.369776 
L 184.356691 206.602769 
L 185.425979 206.776228 
L 185.782408 206.402637 
L 186.495266 206.269645 
L 186.851695 206.364009 
L 187.208124 206.719136 
L 187.920983 206.460763 
L 188.277412 206.321521 
L 188.633841 206.631298 
L 189.703129 206.901313 
L 190.059558 206.2895 
L 190.415987 206.479854 
L 190.772416 206.106188 
L 191.128845 206.316703 
L 192.198133 206.572779 
L 193.26742 206.806585 
L 193.623849 206.536353 
L 194.336708 206.780073 
L 195.049566 206.733913 
L 195.405995 206.287122 
L 196.118853 206.742888 
L 196.475283 206.505815 
L 197.188141 206.487841 
L 197.54457 206.772129 
L 198.613857 206.535597 
L 198.970287 206.443613 
L 199.326716 206.576692 
L 199.683145 206.584719 
L 200.039574 206.396493 
L 201.108862 206.702484 
L 201.465291 206.943367 
L 201.82172 206.617727 
L 202.534578 206.858731 
L 202.891007 206.591436 
L 203.603866 207.098588 
L 204.316724 206.984722 
L 204.673153 206.638313 
L 205.742441 206.982136 
L 206.09887 207.228236 
L 206.811728 207.102671 
L 207.524586 206.7184 
L 207.881016 206.626878 
L 208.237445 206.801785 
L 208.593874 206.533657 
L 210.37602 206.18142 
L 211.088878 206.482864 
L 211.445307 206.72079 
L 211.801736 206.56434 
L 212.514595 206.66441 
L 213.583882 207.652531 
L 213.940311 207.411311 
L 214.29674 207.575125 
L 214.65317 207.005848 
L 215.009599 206.796247 
L 215.722457 206.676278 
L 216.078886 206.482516 
L 216.435315 206.418772 
L 216.791744 206.557821 
L 217.504603 206.374403 
L 219.643178 206.435235 
L 219.999607 206.475125 
L 220.356036 206.294686 
L 220.712465 206.512944 
L 221.068894 206.294036 
L 221.425324 206.643604 
L 222.138182 206.318227 
L 223.920328 206.319875 
L 224.276757 206.238344 
L 224.633186 206.385332 
L 224.989615 206.161333 
L 225.702473 206.233474 
L 226.415332 206.032391 
L 226.771761 205.696101 
L 227.12819 206.026676 
L 227.484619 205.826768 
L 228.553907 206.033112 
L 228.910336 205.707524 
L 229.623194 206.176056 
L 229.979623 206.135969 
L 230.692482 205.815927 
L 231.048911 206.053982 
L 231.761769 206.227401 
L 232.118198 206.374835 
L 232.831057 206.472791 
L 233.543915 206.936854 
L 234.256773 206.943373 
L 234.613202 206.524942 
L 235.68249 207.227871 
L 236.038919 206.905108 
L 236.395348 206.807293 
L 237.108206 206.142745 
L 237.464636 205.700329 
L 238.533923 205.770994 
L 239.246781 205.770467 
L 239.60321 205.758631 
L 240.316069 206.369856 
L 240.672498 206.452752 
L 241.028927 206.240801 
L 241.385356 206.28738 
L 241.741785 206.098622 
L 242.098215 206.153793 
L 242.454644 206.330647 
L 243.523931 206.064832 
L 243.88036 206.367042 
L 244.593219 206.03391 
L 244.949648 205.271492 
L 245.306077 205.246203 
L 245.662506 205.000962 
L 246.018935 205.191758 
L 246.375364 205.004342 
L 247.088223 205.205357 
L 247.444652 205.467262 
L 248.15751 205.174252 
L 248.513939 205.070872 
L 248.870369 204.798602 
L 249.226798 204.863775 
L 249.583227 204.616459 
L 249.939656 204.720442 
L 250.296085 204.411209 
L 250.652514 204.655302 
L 251.365373 204.312764 
L 251.721802 204.353434 
L 252.078231 203.88681 
L 252.43466 203.754951 
L 252.791089 203.92887 
L 253.860377 203.498178 
L 254.216806 203.842069 
L 254.929664 203.633053 
L 255.642523 203.982838 
L 255.998952 203.599708 
L 257.068239 203.524327 
L 258.137527 203.590847 
L 258.493956 203.426688 
L 258.850385 203.789708 
L 259.919672 204.154508 
L 260.276102 204.209159 
L 260.632531 203.883491 
L 261.345389 203.768446 
L 261.701818 203.046482 
L 262.414676 202.950682 
L 262.771106 202.641588 
L 263.127535 202.867629 
L 263.483964 202.693037 
L 263.840393 202.981465 
L 266.691826 202.166441 
L 267.404685 202.184337 
L 267.761114 202.060668 
L 269.54326 202.159018 
L 269.899689 202.091134 
L 270.256118 202.206203 
L 270.612547 202.063202 
L 270.968976 202.056821 
L 271.325405 201.736151 
L 271.681835 201.659844 
L 273.107551 201.903418 
L 273.46398 201.579309 
L 274.176839 201.743468 
L 274.533268 201.777233 
L 274.889697 201.691039 
L 275.246126 201.454991 
L 275.602555 201.582101 
L 275.958984 201.517869 
L 277.384701 201.982452 
L 278.097559 201.509831 
L 278.453989 201.691493 
L 278.810418 201.547179 
L 280.592563 202.030841 
L 280.948993 201.646423 
L 281.661851 201.746893 
L 282.731138 201.553902 
L 283.087568 201.728972 
L 283.800426 201.752883 
L 286.29543 202.138304 
L 286.651859 201.735754 
L 287.008288 201.762567 
L 288.077576 201.394243 
L 289.146863 200.663028 
L 289.503292 200.78354 
L 289.859722 200.287847 
L 290.216151 200.155214 
L 290.929009 200.279696 
L 291.641867 200.213224 
L 291.998296 200.15803 
L 292.354726 200.274897 
L 293.780442 199.902208 
L 294.136871 199.981659 
L 294.493301 199.680419 
L 295.206159 200.005729 
L 295.562588 199.947324 
L 296.275446 200.246914 
L 296.631876 200.015963 
L 297.344734 200.324495 
L 297.701163 200.496329 
L 298.414021 200.56995 
L 299.12688 201.050532 
L 299.483309 201.069717 
L 299.839738 200.869232 
L 300.196167 200.853553 
L 300.552596 201.06733 
L 300.909025 200.968743 
L 301.265455 201.010723 
L 302.334742 200.562761 
L 303.760459 200.555859 
L 305.186175 201.031271 
L 305.542604 200.97122 
L 306.255463 201.056966 
L 306.968321 201.408576 
L 308.037609 201.347103 
L 308.394038 201.52912 
L 309.106896 201.255661 
L 310.176183 201.106988 
L 310.889042 201.027917 
L 311.245471 200.815111 
L 311.958329 200.860405 
L 313.027617 200.969357 
L 313.384046 200.854089 
L 313.740475 200.617442 
L 314.453333 200.502838 
L 315.522621 200.292528 
L 315.87905 200.508195 
L 316.948337 200.550228 
L 317.304767 200.468505 
L 317.661196 200.601445 
L 318.017625 200.560753 
L 318.730483 200.81196 
L 319.086912 200.686327 
L 319.799771 200.701942 
L 320.1562 200.356634 
L 321.581916 200.835146 
L 322.651204 200.513828 
L 323.007633 200.606894 
L 323.364062 200.576276 
L 323.720491 200.424936 
L 325.146208 201.137163 
L 325.859066 201.135571 
L 326.215495 201.198975 
L 326.571925 200.779058 
L 328.35407 201.225935 
L 328.7105 201.051167 
L 329.066929 201.136247 
L 329.779787 201.572451 
L 330.492645 201.151736 
L 330.849075 201.221431 
L 331.561933 201.020974 
L 331.918362 201.20205 
L 332.274791 201.24806 
L 332.63122 201.130108 
L 332.987649 201.24788 
L 333.344079 201.550363 
L 334.056937 201.599764 
L 334.769795 201.495072 
L 335.126224 201.705563 
L 336.90837 201.373069 
L 337.621229 201.475962 
L 339.046945 201.410189 
L 339.759803 201.370458 
L 340.116233 201.064203 
L 341.18552 201.05211 
L 341.541949 201.171548 
L 341.898378 201.137018 
L 342.254808 201.235119 
L 342.611237 201.158208 
L 342.967666 201.348089 
L 344.036953 200.884959 
L 345.106241 201.034637 
L 346.175528 200.868916 
L 346.531957 200.955767 
L 346.888387 200.830472 
L 347.244816 200.558276 
L 348.314103 200.807214 
L 349.383391 200.702012 
L 349.73982 200.581827 
L 351.878395 200.785514 
L 352.234824 200.622152 
L 353.304111 200.660545 
L 354.01697 200.796542 
L 355.086257 200.600597 
L 355.442686 200.650918 
L 355.799115 200.868905 
L 356.155545 200.830521 
L 356.868403 200.925419 
L 357.581261 200.86258 
L 358.29412 200.909436 
L 360.789124 201.217472 
L 361.145553 201.169454 
L 361.858411 201.239019 
L 362.927699 201.303601 
L 363.640557 201.019102 
L 364.353415 200.961456 
L 365.422703 200.985223 
L 367.917707 200.952624 
L 368.630565 201.083639 
L 368.986994 200.808606 
L 369.343423 200.980597 
L 370.412711 201.056925 
L 370.76914 201.002347 
L 371.125569 200.811795 
L 371.481998 200.439487 
L 371.838428 200.266237 
L 372.194857 200.436094 
L 373.620573 200.270355 
L 374.333432 200.302257 
L 374.689861 200.230514 
L 375.04629 199.902536 
L 375.402719 199.833786 
L 375.759148 200.005034 
L 376.115577 199.946287 
L 376.472007 200.082176 
L 376.828436 199.951376 
L 378.254152 199.991555 
L 378.610581 200.140697 
L 378.967011 200.074787 
L 379.32344 199.828339 
L 380.392727 199.845709 
L 380.749156 199.61939 
L 382.531302 199.549774 
L 382.887731 199.556181 
L 383.244161 199.681299 
L 383.60059 199.624216 
L 383.957019 199.247891 
L 384.313448 199.103633 
L 386.095594 199.390461 
L 386.452023 199.218315 
L 387.164881 199.233852 
L 388.234169 199.035055 
L 388.590598 198.635059 
L 389.303456 198.883113 
L 391.79846 198.869144 
L 393.580606 199.055076 
L 394.293464 199.217395 
L 394.649894 199.173522 
L 396.07561 199.685453 
L 396.788468 199.666067 
L 397.501327 199.828793 
L 398.214185 199.886029 
L 398.927043 199.90406 
L 399.996331 199.927206 
L 400.709189 199.813833 
L 401.065618 199.731672 
L 401.422048 199.880281 
L 401.778477 199.891703 
L 402.134906 200.058168 
L 402.491335 199.892512 
L 402.847764 200.067206 
L 403.204193 199.933608 
L 405.342768 200.233225 
L 405.699197 199.980931 
L 406.055627 199.993312 
L 406.412056 199.701203 
L 407.481343 199.869789 
L 407.837772 199.776925 
L 409.619918 200.043063 
L 410.332776 200.232063 
L 410.689206 200.22756 
L 411.402064 200.38883 
L 412.827781 200.171673 
L 414.253497 200.107493 
L 414.609926 199.826205 
L 415.322785 200.010998 
L 415.679214 199.871533 
L 416.035643 199.570573 
L 417.10493 199.830988 
L 417.46136 199.802274 
L 418.174218 199.977057 
L 418.887076 199.678792 
L 419.599934 199.756647 
L 419.956364 199.624358 
L 419.956364 199.624358 
" style="fill:none;stroke:#1f77b4;stroke-linecap:square;stroke-width:1.5;"/>
   </g>
   <g id="patch_8">
    <path d="M 46.08 317.952 
L 46.08 188.928 
" style="fill:none;stroke:#000000;stroke-linecap:square;stroke-linejoin:miter;stroke-width:0.8;"/>
   </g>
   <g id="patch_9">
    <path d="M 437.76 317.952 
L 437.76 188.928 
" style="fill:none;stroke:#000000;stroke-linecap:square;stroke-linejoin:miter;stroke-width:0.8;"/>
   </g>
   <g id="patch_10">
    <path d="M 46.08 317.952 
L 437.76 317.952 
" style="fill:none;stroke:#000000;stroke-linecap:square;stroke-linejoin:miter;stroke-width:0.8;"/>
   </g>
   <g id="patch_11">
    <path d="M 46.08 188.928 
L 437.76 188.928 
" style="fill:none;stroke:#000000;stroke-linecap:square;stroke-linejoin:miter;stroke-width:0.8;"/>
   </g>
   <g id="text_27">
    <!-- Número promedio de clientes en cola C -->
    <g transform="translate(123.090938 182.928)scale(0.12 -0.12)">
     <use xlink:href="#DejaVuSans-78"/>
     <use x="74.804688" xlink:href="#DejaVuSans-250"/>
     <use x="138.183594" xlink:href="#DejaVuSans-109"/>
     <use x="235.595703" xlink:href="#DejaVuSans-101"/>
     <use x="297.119141" xlink:href="#DejaVuSans-114"/>
     <use x="338.201172" xlink:href="#DejaVuSans-111"/>
     <use x="399.382812" xlink:href="#DejaVuSans-32"/>
     <use x="431.169922" xlink:href="#DejaVuSans-112"/>
     <use x="494.646484" xlink:href="#DejaVuSans-114"/>
     <use x="535.728516" xlink:href="#DejaVuSans-111"/>
     <use x="596.910156" xlink:href="#DejaVuSans-109"/>
     <use x="694.322266" xlink:href="#DejaVuSans-101"/>
     <use x="755.845703" xlink:href="#DejaVuSans-100"/>
     <use x="819.322266" xlink:href="#DejaVuSans-105"/>
     <use x="847.105469" xlink:href="#DejaVuSans-111"/>
     <use x="908.287109" xlink:href="#DejaVuSans-32"/>
     <use x="940.074219" xlink:href="#DejaVuSans-100"/>
     <use x="1003.550781" xlink:href="#DejaVuSans-101"/>
     <use x="1065.074219" xlink:href="#DejaVuSans-32"/>
     <use x="1096.861328" xlink:href="#DejaVuSans-99"/>
     <use x="1151.841797" xlink:href="#DejaVuSans-108"/>
     <use x="1179.625" xlink:href="#DejaVuSans-105"/>
     <use x="1207.408203" xlink:href="#DejaVuSans-101"/>
     <use x="1268.931641" xlink:href="#DejaVuSans-110"/>
     <use x="1332.310547" xlink:href="#DejaVuSans-116"/>
     <use x="1371.519531" xlink:href="#DejaVuSans-101"/>
     <use x="1433.042969" xlink:href="#DejaVuSans-115"/>
     <use x="1485.142578" xlink:href="#DejaVuSans-32"/>
     <use x="1516.929688" xlink:href="#DejaVuSans-101"/>
     <use x="1578.453125" xlink:href="#DejaVuSans-110"/>
     <use x="1641.832031" xlink:href="#DejaVuSans-32"/>
     <use x="1673.619141" xlink:href="#DejaVuSans-99"/>
     <use x="1728.599609" xlink:href="#DejaVuSans-111"/>
     <use x="1789.78125" xlink:href="#DejaVuSans-108"/>
     <use x="1817.564453" xlink:href="#DejaVuSans-97"/>
     <use x="1878.84375" xlink:href="#DejaVuSans-32"/>
     <use x="1910.630859" xlink:href="#DejaVuSans-67"/>
    </g>
   </g>
  </g>
 </g>
 <defs>
  <clipPath id="p33278d9868">
   <rect height="129.024" width="391.68" x="46.08" y="27.648"/>
  </clipPath>
  <clipPath id="p199f122503">
   <rect height="129.024" width="391.68" x="46.08" y="188.928"/>
  </clipPath>
 </defs>
</svg>
