<?xml version="1.0" encoding="utf-8" standalone="no"?>
<!DOCTYPE svg PUBLIC "-//W3C//DTD SVG 1.1//EN"
  "http://www.w3.org/Graphics/SVG/1.1/DTD/svg11.dtd">
<!-- Created with matplotlib (https://matplotlib.org/) -->
<svg height="345.6pt" version="1.1" viewBox="0 0 460.8 345.6" width="460.8pt" xmlns="http://www.w3.org/2000/svg" xmlns:xlink="http://www.w3.org/1999/xlink">
 <defs>
  <style type="text/css">
*{stroke-linecap:butt;stroke-linejoin:round;}
  </style>
 </defs>
 <g id="figure_1">
  <g id="patch_1">
   <path d="M 0 345.6 
L 460.8 345.6 
L 460.8 0 
L 0 0 
z
" style="fill:#ffffff;"/>
  </g>
  <g id="axes_1">
   <g id="patch_2">
    <path d="M 46.08 156.672 
L 437.76 156.672 
L 437.76 27.648 
L 46.08 27.648 
z
" style="fill:#ffffff;"/>
   </g>
   <g id="matplotlib.axis_1">
    <g id="xtick_1">
     <g id="line2d_1">
      <path clip-path="url(#p11439e2ba2)" d="M 63.527207 156.672 
L 63.527207 27.648 
" style="fill:none;stroke:#b0b0b0;stroke-linecap:square;stroke-width:0.8;"/>
     </g>
     <g id="line2d_2">
      <defs>
       <path d="M 0 0 
L 0 3.5 
" id="m6d1b27545f" style="stroke:#000000;stroke-width:0.8;"/>
      </defs>
      <g>
       <use style="stroke:#000000;stroke-width:0.8;" x="63.527207" xlink:href="#m6d1b27545f" y="156.672"/>
      </g>
     </g>
     <g id="text_1">
      <!-- 0 -->
      <defs>
       <path d="M 31.78125 66.40625 
Q 24.171875 66.40625 20.328125 58.90625 
Q 16.5 51.421875 16.5 36.375 
Q 16.5 21.390625 20.328125 13.890625 
Q 24.171875 6.390625 31.78125 6.390625 
Q 39.453125 6.390625 43.28125 13.890625 
Q 47.125 21.390625 47.125 36.375 
Q 47.125 51.421875 43.28125 58.90625 
Q 39.453125 66.40625 31.78125 66.40625 
z
M 31.78125 74.21875 
Q 44.046875 74.21875 50.515625 64.515625 
Q 56.984375 54.828125 56.984375 36.375 
Q 56.984375 17.96875 50.515625 8.265625 
Q 44.046875 -1.421875 31.78125 -1.421875 
Q 19.53125 -1.421875 13.0625 8.265625 
Q 6.59375 17.96875 6.59375 36.375 
Q 6.59375 54.828125 13.0625 64.515625 
Q 19.53125 74.21875 31.78125 74.21875 
z
" id="DejaVuSans-48"/>
      </defs>
      <g transform="translate(60.345957 171.270437)scale(0.1 -0.1)">
       <use xlink:href="#DejaVuSans-48"/>
      </g>
     </g>
    </g>
    <g id="xtick_2">
     <g id="line2d_3">
      <path clip-path="url(#p11439e2ba2)" d="M 134.813038 156.672 
L 134.813038 27.648 
" style="fill:none;stroke:#b0b0b0;stroke-linecap:square;stroke-width:0.8;"/>
     </g>
     <g id="line2d_4">
      <g>
       <use style="stroke:#000000;stroke-width:0.8;" x="134.813038" xlink:href="#m6d1b27545f" y="156.672"/>
      </g>
     </g>
     <g id="text_2">
      <!-- 200 -->
      <defs>
       <path d="M 19.1875 8.296875 
L 53.609375 8.296875 
L 53.609375 0 
L 7.328125 0 
L 7.328125 8.296875 
Q 12.9375 14.109375 22.625 23.890625 
Q 32.328125 33.6875 34.8125 36.53125 
Q 39.546875 41.84375 41.421875 45.53125 
Q 43.3125 49.21875 43.3125 52.78125 
Q 43.3125 58.59375 39.234375 62.25 
Q 35.15625 65.921875 28.609375 65.921875 
Q 23.96875 65.921875 18.8125 64.3125 
Q 13.671875 62.703125 7.8125 59.421875 
L 7.8125 69.390625 
Q 13.765625 71.78125 18.9375 73 
Q 24.125 74.21875 28.421875 74.21875 
Q 39.75 74.21875 46.484375 68.546875 
Q 53.21875 62.890625 53.21875 53.421875 
Q 53.21875 48.921875 51.53125 44.890625 
Q 49.859375 40.875 45.40625 35.40625 
Q 44.1875 33.984375 37.640625 27.21875 
Q 31.109375 20.453125 19.1875 8.296875 
z
" id="DejaVuSans-50"/>
      </defs>
      <g transform="translate(125.269288 171.270437)scale(0.1 -0.1)">
       <use xlink:href="#DejaVuSans-50"/>
       <use x="63.623047" xlink:href="#DejaVuSans-48"/>
       <use x="127.246094" xlink:href="#DejaVuSans-48"/>
      </g>
     </g>
    </g>
    <g id="xtick_3">
     <g id="line2d_5">
      <path clip-path="url(#p11439e2ba2)" d="M 206.09887 156.672 
L 206.09887 27.648 
" style="fill:none;stroke:#b0b0b0;stroke-linecap:square;stroke-width:0.8;"/>
     </g>
     <g id="line2d_6">
      <g>
       <use style="stroke:#000000;stroke-width:0.8;" x="206.09887" xlink:href="#m6d1b27545f" y="156.672"/>
      </g>
     </g>
     <g id="text_3">
      <!-- 400 -->
      <defs>
       <path d="M 37.796875 64.3125 
L 12.890625 25.390625 
L 37.796875 25.390625 
z
M 35.203125 72.90625 
L 47.609375 72.90625 
L 47.609375 25.390625 
L 58.015625 25.390625 
L 58.015625 17.1875 
L 47.609375 17.1875 
L 47.609375 0 
L 37.796875 0 
L 37.796875 17.1875 
L 4.890625 17.1875 
L 4.890625 26.703125 
z
" id="DejaVuSans-52"/>
      </defs>
      <g transform="translate(196.55512 171.270437)scale(0.1 -0.1)">
       <use xlink:href="#DejaVuSans-52"/>
       <use x="63.623047" xlink:href="#DejaVuSans-48"/>
       <use x="127.246094" xlink:href="#DejaVuSans-48"/>
      </g>
     </g>
    </g>
    <g id="xtick_4">
     <g id="line2d_7">
      <path clip-path="url(#p11439e2ba2)" d="M 277.384701 156.672 
L 277.384701 27.648 
" style="fill:none;stroke:#b0b0b0;stroke-linecap:square;stroke-width:0.8;"/>
     </g>
     <g id="line2d_8">
      <g>
       <use style="stroke:#000000;stroke-width:0.8;" x="277.384701" xlink:href="#m6d1b27545f" y="156.672"/>
      </g>
     </g>
     <g id="text_4">
      <!-- 600 -->
      <defs>
       <path d="M 33.015625 40.375 
Q 26.375 40.375 22.484375 35.828125 
Q 18.609375 31.296875 18.609375 23.390625 
Q 18.609375 15.53125 22.484375 10.953125 
Q 26.375 6.390625 33.015625 6.390625 
Q 39.65625 6.390625 43.53125 10.953125 
Q 47.40625 15.53125 47.40625 23.390625 
Q 47.40625 31.296875 43.53125 35.828125 
Q 39.65625 40.375 33.015625 40.375 
z
M 52.59375 71.296875 
L 52.59375 62.3125 
Q 48.875 64.0625 45.09375 64.984375 
Q 41.3125 65.921875 37.59375 65.921875 
Q 27.828125 65.921875 22.671875 59.328125 
Q 17.53125 52.734375 16.796875 39.40625 
Q 19.671875 43.65625 24.015625 45.921875 
Q 28.375 48.1875 33.59375 48.1875 
Q 44.578125 48.1875 50.953125 41.515625 
Q 57.328125 34.859375 57.328125 23.390625 
Q 57.328125 12.15625 50.6875 5.359375 
Q 44.046875 -1.421875 33.015625 -1.421875 
Q 20.359375 -1.421875 13.671875 8.265625 
Q 6.984375 17.96875 6.984375 36.375 
Q 6.984375 53.65625 15.1875 63.9375 
Q 23.390625 74.21875 37.203125 74.21875 
Q 40.921875 74.21875 44.703125 73.484375 
Q 48.484375 72.75 52.59375 71.296875 
z
" id="DejaVuSans-54"/>
      </defs>
      <g transform="translate(267.840951 171.270437)scale(0.1 -0.1)">
       <use xlink:href="#DejaVuSans-54"/>
       <use x="63.623047" xlink:href="#DejaVuSans-48"/>
       <use x="127.246094" xlink:href="#DejaVuSans-48"/>
      </g>
     </g>
    </g>
    <g id="xtick_5">
     <g id="line2d_9">
      <path clip-path="url(#p11439e2ba2)" d="M 348.670532 156.672 
L 348.670532 27.648 
" style="fill:none;stroke:#b0b0b0;stroke-linecap:square;stroke-width:0.8;"/>
     </g>
     <g id="line2d_10">
      <g>
       <use style="stroke:#000000;stroke-width:0.8;" x="348.670532" xlink:href="#m6d1b27545f" y="156.672"/>
      </g>
     </g>
     <g id="text_5">
      <!-- 800 -->
      <defs>
       <path d="M 31.78125 34.625 
Q 24.75 34.625 20.71875 30.859375 
Q 16.703125 27.09375 16.703125 20.515625 
Q 16.703125 13.921875 20.71875 10.15625 
Q 24.75 6.390625 31.78125 6.390625 
Q 38.8125 6.390625 42.859375 10.171875 
Q 46.921875 13.96875 46.921875 20.515625 
Q 46.921875 27.09375 42.890625 30.859375 
Q 38.875 34.625 31.78125 34.625 
z
M 21.921875 38.8125 
Q 15.578125 40.375 12.03125 44.71875 
Q 8.5 49.078125 8.5 55.328125 
Q 8.5 64.0625 14.71875 69.140625 
Q 20.953125 74.21875 31.78125 74.21875 
Q 42.671875 74.21875 48.875 69.140625 
Q 55.078125 64.0625 55.078125 55.328125 
Q 55.078125 49.078125 51.53125 44.71875 
Q 48 40.375 41.703125 38.8125 
Q 48.828125 37.15625 52.796875 32.3125 
Q 56.78125 27.484375 56.78125 20.515625 
Q 56.78125 9.90625 50.3125 4.234375 
Q 43.84375 -1.421875 31.78125 -1.421875 
Q 19.734375 -1.421875 13.25 4.234375 
Q 6.78125 9.90625 6.78125 20.515625 
Q 6.78125 27.484375 10.78125 32.3125 
Q 14.796875 37.15625 21.921875 38.8125 
z
M 18.3125 54.390625 
Q 18.3125 48.734375 21.84375 45.5625 
Q 25.390625 42.390625 31.78125 42.390625 
Q 38.140625 42.390625 41.71875 45.5625 
Q 45.3125 48.734375 45.3125 54.390625 
Q 45.3125 60.0625 41.71875 63.234375 
Q 38.140625 66.40625 31.78125 66.40625 
Q 25.390625 66.40625 21.84375 63.234375 
Q 18.3125 60.0625 18.3125 54.390625 
z
" id="DejaVuSans-56"/>
      </defs>
      <g transform="translate(339.126782 171.270437)scale(0.1 -0.1)">
       <use xlink:href="#DejaVuSans-56"/>
       <use x="63.623047" xlink:href="#DejaVuSans-48"/>
       <use x="127.246094" xlink:href="#DejaVuSans-48"/>
      </g>
     </g>
    </g>
    <g id="xtick_6">
     <g id="line2d_11">
      <path clip-path="url(#p11439e2ba2)" d="M 419.956364 156.672 
L 419.956364 27.648 
" style="fill:none;stroke:#b0b0b0;stroke-linecap:square;stroke-width:0.8;"/>
     </g>
     <g id="line2d_12">
      <g>
       <use style="stroke:#000000;stroke-width:0.8;" x="419.956364" xlink:href="#m6d1b27545f" y="156.672"/>
      </g>
     </g>
     <g id="text_6">
      <!-- 1000 -->
      <defs>
       <path d="M 12.40625 8.296875 
L 28.515625 8.296875 
L 28.515625 63.921875 
L 10.984375 60.40625 
L 10.984375 69.390625 
L 28.421875 72.90625 
L 38.28125 72.90625 
L 38.28125 8.296875 
L 54.390625 8.296875 
L 54.390625 0 
L 12.40625 0 
z
" id="DejaVuSans-49"/>
      </defs>
      <g transform="translate(407.231364 171.270437)scale(0.1 -0.1)">
       <use xlink:href="#DejaVuSans-49"/>
       <use x="63.623047" xlink:href="#DejaVuSans-48"/>
       <use x="127.246094" xlink:href="#DejaVuSans-48"/>
       <use x="190.869141" xlink:href="#DejaVuSans-48"/>
      </g>
     </g>
    </g>
    <g id="text_7">
     <!-- Corridas -->
     <defs>
      <path d="M 64.40625 67.28125 
L 64.40625 56.890625 
Q 59.421875 61.53125 53.78125 63.8125 
Q 48.140625 66.109375 41.796875 66.109375 
Q 29.296875 66.109375 22.65625 58.46875 
Q 16.015625 50.828125 16.015625 36.375 
Q 16.015625 21.96875 22.65625 14.328125 
Q 29.296875 6.6875 41.796875 6.6875 
Q 48.140625 6.6875 53.78125 8.984375 
Q 59.421875 11.28125 64.40625 15.921875 
L 64.40625 5.609375 
Q 59.234375 2.09375 53.4375 0.328125 
Q 47.65625 -1.421875 41.21875 -1.421875 
Q 24.65625 -1.421875 15.125 8.703125 
Q 5.609375 18.84375 5.609375 36.375 
Q 5.609375 53.953125 15.125 64.078125 
Q 24.65625 74.21875 41.21875 74.21875 
Q 47.75 74.21875 53.53125 72.484375 
Q 59.328125 70.75 64.40625 67.28125 
z
" id="DejaVuSans-67"/>
      <path d="M 30.609375 48.390625 
Q 23.390625 48.390625 19.1875 42.75 
Q 14.984375 37.109375 14.984375 27.296875 
Q 14.984375 17.484375 19.15625 11.84375 
Q 23.34375 6.203125 30.609375 6.203125 
Q 37.796875 6.203125 41.984375 11.859375 
Q 46.1875 17.53125 46.1875 27.296875 
Q 46.1875 37.015625 41.984375 42.703125 
Q 37.796875 48.390625 30.609375 48.390625 
z
M 30.609375 56 
Q 42.328125 56 49.015625 48.375 
Q 55.71875 40.765625 55.71875 27.296875 
Q 55.71875 13.875 49.015625 6.21875 
Q 42.328125 -1.421875 30.609375 -1.421875 
Q 18.84375 -1.421875 12.171875 6.21875 
Q 5.515625 13.875 5.515625 27.296875 
Q 5.515625 40.765625 12.171875 48.375 
Q 18.84375 56 30.609375 56 
z
" id="DejaVuSans-111"/>
      <path d="M 41.109375 46.296875 
Q 39.59375 47.171875 37.8125 47.578125 
Q 36.03125 48 33.890625 48 
Q 26.265625 48 22.1875 43.046875 
Q 18.109375 38.09375 18.109375 28.8125 
L 18.109375 0 
L 9.078125 0 
L 9.078125 54.6875 
L 18.109375 54.6875 
L 18.109375 46.1875 
Q 20.953125 51.171875 25.484375 53.578125 
Q 30.03125 56 36.53125 56 
Q 37.453125 56 38.578125 55.875 
Q 39.703125 55.765625 41.0625 55.515625 
z
" id="DejaVuSans-114"/>
      <path d="M 9.421875 54.6875 
L 18.40625 54.6875 
L 18.40625 0 
L 9.421875 0 
z
M 9.421875 75.984375 
L 18.40625 75.984375 
L 18.40625 64.59375 
L 9.421875 64.59375 
z
" id="DejaVuSans-105"/>
      <path d="M 45.40625 46.390625 
L 45.40625 75.984375 
L 54.390625 75.984375 
L 54.390625 0 
L 45.40625 0 
L 45.40625 8.203125 
Q 42.578125 3.328125 38.25 0.953125 
Q 33.9375 -1.421875 27.875 -1.421875 
Q 17.96875 -1.421875 11.734375 6.484375 
Q 5.515625 14.40625 5.515625 27.296875 
Q 5.515625 40.1875 11.734375 48.09375 
Q 17.96875 56 27.875 56 
Q 33.9375 56 38.25 53.625 
Q 42.578125 51.265625 45.40625 46.390625 
z
M 14.796875 27.296875 
Q 14.796875 17.390625 18.875 11.75 
Q 22.953125 6.109375 30.078125 6.109375 
Q 37.203125 6.109375 41.296875 11.75 
Q 45.40625 17.390625 45.40625 27.296875 
Q 45.40625 37.203125 41.296875 42.84375 
Q 37.203125 48.484375 30.078125 48.484375 
Q 22.953125 48.484375 18.875 42.84375 
Q 14.796875 37.203125 14.796875 27.296875 
z
" id="DejaVuSans-100"/>
      <path d="M 34.28125 27.484375 
Q 23.390625 27.484375 19.1875 25 
Q 14.984375 22.515625 14.984375 16.5 
Q 14.984375 11.71875 18.140625 8.90625 
Q 21.296875 6.109375 26.703125 6.109375 
Q 34.1875 6.109375 38.703125 11.40625 
Q 43.21875 16.703125 43.21875 25.484375 
L 43.21875 27.484375 
z
M 52.203125 31.203125 
L 52.203125 0 
L 43.21875 0 
L 43.21875 8.296875 
Q 40.140625 3.328125 35.546875 0.953125 
Q 30.953125 -1.421875 24.3125 -1.421875 
Q 15.921875 -1.421875 10.953125 3.296875 
Q 6 8.015625 6 15.921875 
Q 6 25.140625 12.171875 29.828125 
Q 18.359375 34.515625 30.609375 34.515625 
L 43.21875 34.515625 
L 43.21875 35.40625 
Q 43.21875 41.609375 39.140625 45 
Q 35.0625 48.390625 27.6875 48.390625 
Q 23 48.390625 18.546875 47.265625 
Q 14.109375 46.140625 10.015625 43.890625 
L 10.015625 52.203125 
Q 14.9375 54.109375 19.578125 55.046875 
Q 24.21875 56 28.609375 56 
Q 40.484375 56 46.34375 49.84375 
Q 52.203125 43.703125 52.203125 31.203125 
z
" id="DejaVuSans-97"/>
      <path d="M 44.28125 53.078125 
L 44.28125 44.578125 
Q 40.484375 46.53125 36.375 47.5 
Q 32.28125 48.484375 27.875 48.484375 
Q 21.1875 48.484375 17.84375 46.4375 
Q 14.5 44.390625 14.5 40.28125 
Q 14.5 37.15625 16.890625 35.375 
Q 19.28125 33.59375 26.515625 31.984375 
L 29.59375 31.296875 
Q 39.15625 29.25 43.1875 25.515625 
Q 47.21875 21.78125 47.21875 15.09375 
Q 47.21875 7.46875 41.1875 3.015625 
Q 35.15625 -1.421875 24.609375 -1.421875 
Q 20.21875 -1.421875 15.453125 -0.5625 
Q 10.6875 0.296875 5.421875 2 
L 5.421875 11.28125 
Q 10.40625 8.6875 15.234375 7.390625 
Q 20.0625 6.109375 24.8125 6.109375 
Q 31.15625 6.109375 34.5625 8.28125 
Q 37.984375 10.453125 37.984375 14.40625 
Q 37.984375 18.0625 35.515625 20.015625 
Q 33.0625 21.96875 24.703125 23.78125 
L 21.578125 24.515625 
Q 13.234375 26.265625 9.515625 29.90625 
Q 5.8125 33.546875 5.8125 39.890625 
Q 5.8125 47.609375 11.28125 51.796875 
Q 16.75 56 26.8125 56 
Q 31.78125 56 36.171875 55.265625 
Q 40.578125 54.546875 44.28125 53.078125 
z
" id="DejaVuSans-115"/>
     </defs>
     <g transform="translate(221.027031 184.948562)scale(0.1 -0.1)">
      <use xlink:href="#DejaVuSans-67"/>
      <use x="69.824219" xlink:href="#DejaVuSans-111"/>
      <use x="131.005859" xlink:href="#DejaVuSans-114"/>
      <use x="172.103516" xlink:href="#DejaVuSans-114"/>
      <use x="213.216797" xlink:href="#DejaVuSans-105"/>
      <use x="241" xlink:href="#DejaVuSans-100"/>
      <use x="304.476562" xlink:href="#DejaVuSans-97"/>
      <use x="365.755859" xlink:href="#DejaVuSans-115"/>
     </g>
    </g>
   </g>
   <g id="matplotlib.axis_2">
    <g id="ytick_1">
     <g id="line2d_13">
      <path clip-path="url(#p11439e2ba2)" d="M 46.08 131.724523 
L 437.76 131.724523 
" style="fill:none;stroke:#b0b0b0;stroke-linecap:square;stroke-width:0.8;"/>
     </g>
     <g id="line2d_14">
      <defs>
       <path d="M 0 0 
L -3.5 0 
" id="m34837e2179" style="stroke:#000000;stroke-width:0.8;"/>
      </defs>
      <g>
       <use style="stroke:#000000;stroke-width:0.8;" x="46.08" xlink:href="#m34837e2179" y="131.724523"/>
      </g>
     </g>
     <g id="text_8">
      <!-- 0.246 -->
      <defs>
       <path d="M 10.6875 12.40625 
L 21 12.40625 
L 21 0 
L 10.6875 0 
z
" id="DejaVuSans-46"/>
      </defs>
      <g transform="translate(10.451875 135.523742)scale(0.1 -0.1)">
       <use xlink:href="#DejaVuSans-48"/>
       <use x="63.623047" xlink:href="#DejaVuSans-46"/>
       <use x="95.410156" xlink:href="#DejaVuSans-50"/>
       <use x="159.033203" xlink:href="#DejaVuSans-52"/>
       <use x="222.65625" xlink:href="#DejaVuSans-54"/>
      </g>
     </g>
    </g>
    <g id="ytick_2">
     <g id="line2d_15">
      <path clip-path="url(#p11439e2ba2)" d="M 46.08 105.738522 
L 437.76 105.738522 
" style="fill:none;stroke:#b0b0b0;stroke-linecap:square;stroke-width:0.8;"/>
     </g>
     <g id="line2d_16">
      <g>
       <use style="stroke:#000000;stroke-width:0.8;" x="46.08" xlink:href="#m34837e2179" y="105.738522"/>
      </g>
     </g>
     <g id="text_9">
      <!-- 0.248 -->
      <g transform="translate(10.451875 109.537741)scale(0.1 -0.1)">
       <use xlink:href="#DejaVuSans-48"/>
       <use x="63.623047" xlink:href="#DejaVuSans-46"/>
       <use x="95.410156" xlink:href="#DejaVuSans-50"/>
       <use x="159.033203" xlink:href="#DejaVuSans-52"/>
       <use x="222.65625" xlink:href="#DejaVuSans-56"/>
      </g>
     </g>
    </g>
    <g id="ytick_3">
     <g id="line2d_17">
      <path clip-path="url(#p11439e2ba2)" d="M 46.08 79.75252 
L 437.76 79.75252 
" style="fill:none;stroke:#b0b0b0;stroke-linecap:square;stroke-width:0.8;"/>
     </g>
     <g id="line2d_18">
      <g>
       <use style="stroke:#000000;stroke-width:0.8;" x="46.08" xlink:href="#m34837e2179" y="79.75252"/>
      </g>
     </g>
     <g id="text_10">
      <!-- 0.250 -->
      <defs>
       <path d="M 10.796875 72.90625 
L 49.515625 72.90625 
L 49.515625 64.59375 
L 19.828125 64.59375 
L 19.828125 46.734375 
Q 21.96875 47.46875 24.109375 47.828125 
Q 26.265625 48.1875 28.421875 48.1875 
Q 40.625 48.1875 47.75 41.5 
Q 54.890625 34.8125 54.890625 23.390625 
Q 54.890625 11.625 47.5625 5.09375 
Q 40.234375 -1.421875 26.90625 -1.421875 
Q 22.3125 -1.421875 17.546875 -0.640625 
Q 12.796875 0.140625 7.71875 1.703125 
L 7.71875 11.625 
Q 12.109375 9.234375 16.796875 8.0625 
Q 21.484375 6.890625 26.703125 6.890625 
Q 35.15625 6.890625 40.078125 11.328125 
Q 45.015625 15.765625 45.015625 23.390625 
Q 45.015625 31 40.078125 35.4375 
Q 35.15625 39.890625 26.703125 39.890625 
Q 22.75 39.890625 18.8125 39.015625 
Q 14.890625 38.140625 10.796875 36.28125 
z
" id="DejaVuSans-53"/>
      </defs>
      <g transform="translate(10.451875 83.551739)scale(0.1 -0.1)">
       <use xlink:href="#DejaVuSans-48"/>
       <use x="63.623047" xlink:href="#DejaVuSans-46"/>
       <use x="95.410156" xlink:href="#DejaVuSans-50"/>
       <use x="159.033203" xlink:href="#DejaVuSans-53"/>
       <use x="222.65625" xlink:href="#DejaVuSans-48"/>
      </g>
     </g>
    </g>
    <g id="ytick_4">
     <g id="line2d_19">
      <path clip-path="url(#p11439e2ba2)" d="M 46.08 53.766519 
L 437.76 53.766519 
" style="fill:none;stroke:#b0b0b0;stroke-linecap:square;stroke-width:0.8;"/>
     </g>
     <g id="line2d_20">
      <g>
       <use style="stroke:#000000;stroke-width:0.8;" x="46.08" xlink:href="#m34837e2179" y="53.766519"/>
      </g>
     </g>
     <g id="text_11">
      <!-- 0.252 -->
      <g transform="translate(10.451875 57.565738)scale(0.1 -0.1)">
       <use xlink:href="#DejaVuSans-48"/>
       <use x="63.623047" xlink:href="#DejaVuSans-46"/>
       <use x="95.410156" xlink:href="#DejaVuSans-50"/>
       <use x="159.033203" xlink:href="#DejaVuSans-53"/>
       <use x="222.65625" xlink:href="#DejaVuSans-50"/>
      </g>
     </g>
    </g>
    <g id="ytick_5">
     <g id="line2d_21">
      <path clip-path="url(#p11439e2ba2)" d="M 46.08 27.780517 
L 437.76 27.780517 
" style="fill:none;stroke:#b0b0b0;stroke-linecap:square;stroke-width:0.8;"/>
     </g>
     <g id="line2d_22">
      <g>
       <use style="stroke:#000000;stroke-width:0.8;" x="46.08" xlink:href="#m34837e2179" y="27.780517"/>
      </g>
     </g>
     <g id="text_12">
      <!-- 0.254 -->
      <g transform="translate(10.451875 31.579736)scale(0.1 -0.1)">
       <use xlink:href="#DejaVuSans-48"/>
       <use x="63.623047" xlink:href="#DejaVuSans-46"/>
       <use x="95.410156" xlink:href="#DejaVuSans-50"/>
       <use x="159.033203" xlink:href="#DejaVuSans-53"/>
       <use x="222.65625" xlink:href="#DejaVuSans-52"/>
      </g>
     </g>
    </g>
    <g id="text_13">
     <!-- Utilización -->
     <defs>
      <path d="M 8.6875 72.90625 
L 18.609375 72.90625 
L 18.609375 28.609375 
Q 18.609375 16.890625 22.84375 11.734375 
Q 27.09375 6.59375 36.625 6.59375 
Q 46.09375 6.59375 50.34375 11.734375 
Q 54.59375 16.890625 54.59375 28.609375 
L 54.59375 72.90625 
L 64.5 72.90625 
L 64.5 27.390625 
Q 64.5 13.140625 57.4375 5.859375 
Q 50.390625 -1.421875 36.625 -1.421875 
Q 22.796875 -1.421875 15.734375 5.859375 
Q 8.6875 13.140625 8.6875 27.390625 
z
" id="DejaVuSans-85"/>
      <path d="M 18.3125 70.21875 
L 18.3125 54.6875 
L 36.8125 54.6875 
L 36.8125 47.703125 
L 18.3125 47.703125 
L 18.3125 18.015625 
Q 18.3125 11.328125 20.140625 9.421875 
Q 21.96875 7.515625 27.59375 7.515625 
L 36.8125 7.515625 
L 36.8125 0 
L 27.59375 0 
Q 17.1875 0 13.234375 3.875 
Q 9.28125 7.765625 9.28125 18.015625 
L 9.28125 47.703125 
L 2.6875 47.703125 
L 2.6875 54.6875 
L 9.28125 54.6875 
L 9.28125 70.21875 
z
" id="DejaVuSans-116"/>
      <path d="M 9.421875 75.984375 
L 18.40625 75.984375 
L 18.40625 0 
L 9.421875 0 
z
" id="DejaVuSans-108"/>
      <path d="M 5.515625 54.6875 
L 48.1875 54.6875 
L 48.1875 46.484375 
L 14.40625 7.171875 
L 48.1875 7.171875 
L 48.1875 0 
L 4.296875 0 
L 4.296875 8.203125 
L 38.09375 47.515625 
L 5.515625 47.515625 
z
" id="DejaVuSans-122"/>
      <path d="M 48.78125 52.59375 
L 48.78125 44.1875 
Q 44.96875 46.296875 41.140625 47.34375 
Q 37.3125 48.390625 33.40625 48.390625 
Q 24.65625 48.390625 19.8125 42.84375 
Q 14.984375 37.3125 14.984375 27.296875 
Q 14.984375 17.28125 19.8125 11.734375 
Q 24.65625 6.203125 33.40625 6.203125 
Q 37.3125 6.203125 41.140625 7.25 
Q 44.96875 8.296875 48.78125 10.40625 
L 48.78125 2.09375 
Q 45.015625 0.34375 40.984375 -0.53125 
Q 36.96875 -1.421875 32.421875 -1.421875 
Q 20.0625 -1.421875 12.78125 6.34375 
Q 5.515625 14.109375 5.515625 27.296875 
Q 5.515625 40.671875 12.859375 48.328125 
Q 20.21875 56 33.015625 56 
Q 37.15625 56 41.109375 55.140625 
Q 45.0625 54.296875 48.78125 52.59375 
z
" id="DejaVuSans-99"/>
      <path d="M 30.609375 48.390625 
Q 23.390625 48.390625 19.1875 42.75 
Q 14.984375 37.109375 14.984375 27.296875 
Q 14.984375 17.484375 19.15625 11.84375 
Q 23.34375 6.203125 30.609375 6.203125 
Q 37.796875 6.203125 41.984375 11.859375 
Q 46.1875 17.53125 46.1875 27.296875 
Q 46.1875 37.015625 41.984375 42.703125 
Q 37.796875 48.390625 30.609375 48.390625 
z
M 30.609375 56 
Q 42.328125 56 49.015625 48.375 
Q 55.71875 40.765625 55.71875 27.296875 
Q 55.71875 13.875 49.015625 6.21875 
Q 42.328125 -1.421875 30.609375 -1.421875 
Q 18.84375 -1.421875 12.171875 6.21875 
Q 5.515625 13.875 5.515625 27.296875 
Q 5.515625 40.765625 12.171875 48.375 
Q 18.84375 56 30.609375 56 
z
M 37.40625 79.984375 
L 47.125 79.984375 
L 31.21875 61.625 
L 23.734375 61.625 
z
" id="DejaVuSans-243"/>
      <path d="M 54.890625 33.015625 
L 54.890625 0 
L 45.90625 0 
L 45.90625 32.71875 
Q 45.90625 40.484375 42.875 44.328125 
Q 39.84375 48.1875 33.796875 48.1875 
Q 26.515625 48.1875 22.3125 43.546875 
Q 18.109375 38.921875 18.109375 30.90625 
L 18.109375 0 
L 9.078125 0 
L 9.078125 54.6875 
L 18.109375 54.6875 
L 18.109375 46.1875 
Q 21.34375 51.125 25.703125 53.5625 
Q 30.078125 56 35.796875 56 
Q 45.21875 56 50.046875 50.171875 
Q 54.890625 44.34375 54.890625 33.015625 
z
" id="DejaVuSans-110"/>
     </defs>
     <g transform="translate(4.372188 118.001406)rotate(-90)scale(0.1 -0.1)">
      <use xlink:href="#DejaVuSans-85"/>
      <use x="73.193359" xlink:href="#DejaVuSans-116"/>
      <use x="112.402344" xlink:href="#DejaVuSans-105"/>
      <use x="140.185547" xlink:href="#DejaVuSans-108"/>
      <use x="167.96875" xlink:href="#DejaVuSans-105"/>
      <use x="195.751953" xlink:href="#DejaVuSans-122"/>
      <use x="248.242188" xlink:href="#DejaVuSans-97"/>
      <use x="309.521484" xlink:href="#DejaVuSans-99"/>
      <use x="364.501953" xlink:href="#DejaVuSans-105"/>
      <use x="392.285156" xlink:href="#DejaVuSans-243"/>
      <use x="453.466797" xlink:href="#DejaVuSans-110"/>
     </g>
    </g>
   </g>
   <g id="line2d_23">
    <path clip-path="url(#p11439e2ba2)" d="M 63.883636 150.807273 
L 64.240066 47.086078 
L 64.596495 52.373636 
L 64.952924 93.816162 
L 65.309353 115.76846 
L 65.665782 94.431626 
L 66.022211 102.720796 
L 66.37864 76.017663 
L 66.73507 61.265762 
L 67.091499 56.341088 
L 67.447928 33.512727 
L 67.804357 38.787899 
L 68.160786 64.043585 
L 68.517215 65.046609 
L 68.873645 41.561096 
L 69.230074 43.952908 
L 69.586503 44.975878 
L 69.942932 49.408293 
L 70.65579 62.049603 
L 71.012219 75.175191 
L 71.368649 65.911394 
L 71.725078 79.907067 
L 72.081507 67.842117 
L 72.437936 67.551077 
L 73.150794 74.136597 
L 73.863653 82.447105 
L 74.220082 77.541153 
L 74.576511 80.622337 
L 74.93294 78.999894 
L 75.289369 76.104449 
L 75.645799 76.062139 
L 76.002228 82.870245 
L 76.358657 84.10148 
L 76.715086 90.991341 
L 77.071515 92.277151 
L 77.427944 98.901969 
L 77.784373 99.524498 
L 78.140803 104.144374 
L 78.497232 101.332731 
L 78.853661 100.942166 
L 79.566519 116.369057 
L 79.922948 116.739035 
L 80.279378 115.808477 
L 80.992236 121.277634 
L 81.348665 125.766213 
L 81.705094 119.812199 
L 82.061523 120.217485 
L 82.417952 113.91279 
L 82.774382 110.970809 
L 83.130811 110.837404 
L 83.48724 108.768558 
L 83.843669 108.939322 
L 84.200098 106.57201 
L 84.556527 107.740901 
L 84.912957 109.504004 
L 85.269386 113.792929 
L 85.625815 110.259794 
L 85.982244 102.655738 
L 86.338673 97.51926 
L 86.695102 97.027178 
L 87.051532 94.213152 
L 87.407961 94.773813 
L 87.76439 92.97155 
L 88.120819 93.293121 
L 88.477248 97.635653 
L 88.833677 95.65771 
L 89.190106 95.422513 
L 89.546536 95.003477 
L 89.902965 95.257327 
L 90.259394 94.265251 
L 90.615823 97.589564 
L 90.972252 99.542998 
L 91.328681 98.967444 
L 91.685111 99.896292 
L 92.04154 97.989139 
L 92.397969 100.94425 
L 92.754398 98.110303 
L 93.823686 102.146946 
L 94.180115 100.942585 
L 94.536544 101.137238 
L 94.892973 102.012739 
L 95.249402 102.256871 
L 95.605831 100.362835 
L 95.96226 100.12893 
L 96.31869 100.32102 
L 96.675119 103.49392 
L 97.031548 103.849627 
L 97.744406 100.97806 
L 98.100835 100.757783 
L 98.457265 101.104259 
L 98.813694 100.400895 
L 99.170123 101.465855 
L 99.526552 100.299009 
L 99.882981 100.880081 
L 100.23941 98.834698 
L 100.595839 99.115002 
L 100.952269 100.395245 
L 101.308698 100.301854 
L 101.665127 101.742054 
L 102.021556 101.46951 
L 102.377985 100.935224 
L 102.734414 101.574541 
L 103.090844 100.260405 
L 103.447273 102.545955 
L 103.803702 101.863426 
L 104.51656 100.034724 
L 104.872989 100.314653 
L 105.229419 101.865315 
L 105.585848 101.434358 
L 106.298706 105.204553 
L 106.655135 105.2174 
L 107.011564 106.088882 
L 107.367993 106.163814 
L 107.724423 105.409135 
L 108.79371 107.416282 
L 109.150139 107.757913 
L 109.506568 105.390558 
L 109.862998 105.254131 
L 110.219427 105.571269 
L 110.575856 108.483655 
L 110.932285 109.060827 
L 111.288714 107.42502 
L 111.645143 104.961633 
L 112.358002 104.590121 
L 112.714431 103.974565 
L 113.07086 102.498775 
L 113.427289 99.400612 
L 113.783718 98.532174 
L 114.140147 98.46275 
L 114.496577 97.766736 
L 114.853006 97.901278 
L 115.565864 94.541611 
L 115.922293 94.373306 
L 116.278722 94.644757 
L 116.635152 95.831315 
L 116.991581 94.91522 
L 117.34801 95.514591 
L 117.704439 95.088771 
L 118.060868 95.066032 
L 118.417297 96.333791 
L 118.773726 94.610659 
L 119.130156 96.857208 
L 119.486585 96.180751 
L 120.199443 90.860019 
L 120.555872 93.17516 
L 121.268731 90.255034 
L 121.981589 92.374878 
L 122.338018 90.833911 
L 122.694447 91.031332 
L 123.050876 92.419625 
L 123.407305 94.315356 
L 123.763735 94.229854 
L 124.120164 95.042328 
L 124.833022 93.977455 
L 125.189451 94.502323 
L 125.90231 93.483229 
L 126.258739 93.439555 
L 126.615168 93.587927 
L 126.971597 93.992473 
L 128.040885 99.60605 
L 128.397314 98.805914 
L 128.753743 98.298993 
L 129.110172 98.512846 
L 129.466601 98.979686 
L 129.82303 99.136038 
L 130.179459 98.853159 
L 131.248747 96.599585 
L 131.605176 97.307858 
L 131.961605 95.66673 
L 132.318034 96.128586 
L 132.674464 96.120747 
L 133.030893 95.388328 
L 133.387322 95.403392 
L 134.10018 96.977292 
L 134.456609 96.846963 
L 135.169468 97.471583 
L 135.882326 96.08868 
L 136.238755 95.903642 
L 136.595184 94.442315 
L 136.951613 95.599844 
L 137.308043 95.710584 
L 137.664472 95.197469 
L 138.020901 96.018525 
L 138.37733 96.2409 
L 138.733759 96.013551 
L 139.090188 96.844856 
L 139.446618 96.978553 
L 139.803047 96.429285 
L 140.159476 97.469263 
L 140.515905 97.775687 
L 140.872334 99.233745 
L 141.585192 99.723674 
L 141.941622 99.002933 
L 142.298051 99.515706 
L 142.65448 99.255323 
L 143.367338 97.355752 
L 143.723767 97.510399 
L 144.080197 97.466237 
L 144.436626 96.878593 
L 144.793055 96.640004 
L 145.149484 96.934073 
L 145.505913 97.879027 
L 145.862342 97.613995 
L 146.218771 98.046616 
L 146.575201 97.254743 
L 147.288059 97.824553 
L 147.644488 97.764733 
L 148.357346 96.574922 
L 148.713776 96.381136 
L 149.070205 97.015978 
L 149.426634 96.966215 
L 149.783063 95.931487 
L 150.139492 95.846302 
L 150.495921 96.052118 
L 150.852351 97.150351 
L 151.565209 98.437911 
L 151.921638 97.966199 
L 152.278067 97.895313 
L 152.634496 97.310488 
L 152.990925 97.63969 
L 153.347355 97.632149 
L 153.703784 97.926449 
L 154.060213 97.319236 
L 154.416642 97.922933 
L 154.773071 97.405827 
L 155.1295 97.457283 
L 155.48593 96.446186 
L 155.842359 96.294477 
L 156.198788 96.008214 
L 156.555217 96.97744 
L 156.911646 96.498757 
L 157.268075 96.378516 
L 157.624505 95.685399 
L 157.980934 95.542416 
L 158.337363 95.795998 
L 158.693792 96.850343 
L 159.050221 97.540874 
L 159.763079 96.639724 
L 160.119509 96.582543 
L 160.475938 96.309752 
L 161.188796 97.418496 
L 161.545225 97.98029 
L 161.901654 97.594087 
L 162.258084 98.353715 
L 162.970942 98.460211 
L 163.6838 97.85758 
L 164.040229 98.587613 
L 164.396658 97.725718 
L 165.109517 99.216554 
L 165.465946 100.582307 
L 165.822375 99.021595 
L 166.178804 98.628792 
L 166.535233 97.700026 
L 166.891663 97.370098 
L 167.248092 96.450462 
L 167.96095 97.517287 
L 168.673808 97.730365 
L 169.030238 97.288114 
L 169.386667 97.721607 
L 170.455954 96.909451 
L 170.812383 96.320541 
L 171.168812 96.876777 
L 171.525242 95.916998 
L 171.881671 95.809683 
L 172.2381 95.956776 
L 172.594529 96.917543 
L 172.950958 96.821019 
L 173.307387 96.294249 
L 173.663817 94.930412 
L 174.020246 94.448845 
L 174.733104 94.273195 
L 175.089533 93.147017 
L 175.445962 92.500293 
L 175.802391 92.945453 
L 176.51525 94.100182 
L 176.871679 93.710298 
L 177.940966 94.225219 
L 178.297396 94.688744 
L 178.653825 94.331109 
L 179.010254 94.953713 
L 179.366683 94.811452 
L 179.723112 95.90161 
L 180.079541 96.300988 
L 180.435971 95.571736 
L 180.7924 96.363663 
L 181.148829 95.663342 
L 181.861687 95.664712 
L 182.218116 96.166964 
L 182.574545 95.726893 
L 182.930975 95.584126 
L 183.643833 95.697376 
L 184.000262 96.262957 
L 184.356691 96.311919 
L 185.06955 96.774935 
L 185.782408 96.144528 
L 186.138837 96.321643 
L 186.851695 95.76305 
L 187.208124 95.322399 
L 187.564554 95.082478 
L 187.920983 95.305954 
L 188.277412 94.687594 
L 188.633841 95.557332 
L 188.99027 95.560204 
L 189.346699 95.948143 
L 189.703129 95.341664 
L 190.059558 95.06219 
L 190.415987 95.03484 
L 190.772416 94.74833 
L 191.128845 94.973637 
L 191.485274 94.928684 
L 191.841704 95.502292 
L 192.198133 95.622565 
L 192.554562 95.56428 
L 193.26742 95.986743 
L 193.980278 95.558284 
L 194.336708 96.507663 
L 194.693137 96.297871 
L 195.049566 95.909044 
L 195.405995 95.897655 
L 195.762424 96.661461 
L 196.118853 96.79951 
L 196.475283 95.981742 
L 196.831712 95.625534 
L 197.188141 95.461785 
L 197.900999 96.930895 
L 198.257428 97.308511 
L 198.613857 97.328743 
L 198.970287 97.512943 
L 199.326716 97.241074 
L 199.683145 97.293131 
L 200.039574 97.540535 
L 200.396003 98.042657 
L 200.752432 98.016965 
L 201.108862 98.104024 
L 201.465291 98.039301 
L 202.178149 97.26131 
L 202.534578 97.530963 
L 202.891007 96.642292 
L 203.247437 96.271489 
L 203.603866 96.267763 
L 203.960295 96.455581 
L 204.316724 97.262686 
L 204.673153 97.226648 
L 205.029582 96.856708 
L 205.386011 96.68514 
L 205.742441 96.932634 
L 206.09887 96.906263 
L 206.455299 97.026954 
L 206.811728 96.587174 
L 207.881016 96.029221 
L 208.237445 96.615334 
L 208.593874 95.721859 
L 208.950303 95.538419 
L 209.663161 95.998802 
L 210.01959 95.931495 
L 210.732449 96.449411 
L 211.088878 95.844021 
L 211.445307 95.602725 
L 211.801736 95.614983 
L 212.158165 95.914397 
L 212.871024 95.985713 
L 213.227453 96.441079 
L 213.940311 96.224497 
L 214.29674 96.729332 
L 214.65317 96.180922 
L 215.009599 96.086636 
L 215.722457 95.451161 
L 216.078886 95.657602 
L 216.435315 95.05904 
L 217.148174 94.681155 
L 217.504603 94.708618 
L 217.861032 95.254271 
L 218.57389 94.822086 
L 218.930319 94.899711 
L 219.643178 94.728812 
L 219.999607 94.560921 
L 220.712465 94.948899 
L 221.068894 94.998968 
L 221.425324 94.919319 
L 222.138182 94.512835 
L 222.85104 94.915964 
L 223.563898 94.566639 
L 223.920328 94.307767 
L 224.276757 94.256608 
L 224.633186 94.428665 
L 225.346044 94.082504 
L 225.702473 93.907826 
L 226.058903 93.507732 
L 226.771761 92.19774 
L 227.12819 92.48944 
L 227.484619 92.077493 
L 227.841048 91.895272 
L 228.197477 92.095684 
L 228.553907 91.960569 
L 228.910336 91.565712 
L 229.623194 92.610125 
L 230.336052 92.100645 
L 231.40534 92.374408 
L 231.761769 92.336608 
L 232.118198 92.608087 
L 232.474627 91.411804 
L 232.831057 91.284368 
L 233.187486 92.154034 
L 233.900344 92.704284 
L 234.613202 92.474502 
L 234.969631 92.75274 
L 235.326061 93.210075 
L 235.68249 93.454012 
L 236.038919 93.236982 
L 236.751777 92.136945 
L 237.108206 91.892046 
L 237.464636 91.48006 
L 238.177494 91.464192 
L 238.533923 91.203685 
L 238.890352 90.680352 
L 239.246781 90.622615 
L 239.60321 90.770712 
L 239.95964 91.304404 
L 240.316069 91.503429 
L 240.672498 91.426655 
L 241.028927 91.622927 
L 241.385356 91.399014 
L 242.811073 92.484998 
L 243.167502 92.646182 
L 243.523931 92.125502 
L 243.88036 92.599074 
L 244.23679 92.433307 
L 244.593219 92.40414 
L 244.949648 91.605299 
L 245.306077 91.957863 
L 245.662506 91.388099 
L 246.375364 91.773097 
L 246.731794 91.856717 
L 247.088223 92.515621 
L 247.444652 92.92301 
L 247.801081 92.764153 
L 248.15751 92.39619 
L 249.226798 91.919444 
L 249.583227 91.537296 
L 249.939656 91.454436 
L 250.296085 91.255708 
L 250.652514 91.250849 
L 251.365373 90.64894 
L 252.078231 90.873864 
L 252.43466 90.958531 
L 253.147518 90.909808 
L 253.860377 90.476777 
L 254.216806 90.829773 
L 254.573235 90.881193 
L 254.929664 90.585143 
L 256.355381 90.441111 
L 256.71181 90.162433 
L 257.068239 90.109352 
L 257.424668 90.372369 
L 258.137527 90.09055 
L 258.493956 89.582164 
L 259.206814 90.410299 
L 259.563243 90.497962 
L 259.919672 89.898108 
L 260.276102 90.219943 
L 260.632531 89.83977 
L 261.345389 90.094344 
L 261.701818 89.279076 
L 262.058247 89.512492 
L 262.414676 89.571239 
L 262.771106 89.263002 
L 263.127535 89.444479 
L 263.483964 89.16185 
L 263.840393 89.819553 
L 264.196822 89.471845 
L 264.909681 89.42768 
L 265.26611 89.527654 
L 265.622539 89.383116 
L 265.978968 88.794335 
L 266.335397 88.910439 
L 267.048256 88.837709 
L 267.404685 88.711042 
L 267.761114 88.25495 
L 268.473972 87.962076 
L 268.830401 87.54258 
L 269.18683 87.75586 
L 269.54326 88.184131 
L 269.899689 88.079071 
L 270.256118 88.228276 
L 270.968976 88.121718 
L 271.325405 87.568635 
L 272.038264 87.914783 
L 272.751122 87.968951 
L 273.107551 88.618908 
L 273.46398 88.453762 
L 273.82041 88.058234 
L 274.176839 88.099935 
L 274.533268 88.305184 
L 275.246126 87.48298 
L 275.602555 87.796053 
L 275.958984 86.970618 
L 276.315414 87.07907 
L 276.671843 86.963929 
L 277.384701 87.499736 
L 277.74113 87.485948 
L 278.097559 86.864077 
L 278.453989 86.773833 
L 278.810418 86.042559 
L 279.166847 86.232714 
L 279.523276 86.072954 
L 279.879705 86.435499 
L 280.236134 86.588101 
L 280.592563 86.596732 
L 280.948993 86.205293 
L 281.661851 86.305517 
L 282.01828 86.017605 
L 282.374709 85.878697 
L 282.731138 85.447767 
L 283.087568 85.319259 
L 283.443997 85.617408 
L 283.800426 85.344552 
L 284.156855 85.600987 
L 284.869713 85.560476 
L 285.226143 85.857694 
L 285.582572 85.403667 
L 285.939001 85.353276 
L 286.29543 85.610642 
L 287.008288 85.65912 
L 287.364717 85.913425 
L 287.721147 85.900836 
L 288.790434 85.22729 
L 289.146863 84.694438 
L 289.503292 84.735072 
L 289.859722 84.982652 
L 290.216151 84.622642 
L 291.285438 84.27318 
L 291.998296 84.976708 
L 292.354726 85.381951 
L 292.711155 85.405872 
L 293.067584 85.263878 
L 293.424013 85.279633 
L 293.780442 85.062262 
L 294.136871 85.436367 
L 294.493301 85.116534 
L 294.84973 85.051395 
L 295.206159 85.181286 
L 295.562588 85.055786 
L 295.919017 85.501642 
L 296.275446 85.544654 
L 296.631876 85.808027 
L 297.701163 86.052584 
L 298.057592 86.272488 
L 298.77045 85.973491 
L 299.12688 86.102198 
L 299.483309 85.884843 
L 299.839738 85.893757 
L 300.196167 85.759829 
L 300.909025 85.823552 
L 301.621884 85.285258 
L 301.978313 85.246618 
L 302.334742 85.437714 
L 303.0476 84.550693 
L 303.760459 85.3173 
L 304.116888 85.388137 
L 304.473317 85.688051 
L 304.829746 85.25893 
L 305.186175 85.69018 
L 305.542604 85.697315 
L 306.255463 85.400926 
L 306.611892 85.725929 
L 307.681179 85.796053 
L 308.037609 85.837575 
L 308.394038 85.552559 
L 309.106896 85.687612 
L 309.463325 85.497908 
L 309.819754 85.744784 
L 310.176183 85.595832 
L 310.532613 85.57817 
L 310.889042 85.157338 
L 311.245471 85.112874 
L 311.6019 85.363937 
L 311.958329 85.27962 
L 312.671188 85.45224 
L 313.027617 85.4731 
L 314.453333 85.025624 
L 314.809762 85.048891 
L 315.166192 84.68617 
L 315.87905 85.425092 
L 316.235479 85.346377 
L 316.591908 85.59547 
L 317.661196 85.610127 
L 318.017625 85.363984 
L 318.730483 85.946986 
L 319.086912 85.473357 
L 319.799771 85.457341 
L 320.512629 84.931496 
L 321.225487 85.319077 
L 321.938346 85.396023 
L 322.294775 85.339288 
L 322.651204 85.511143 
L 323.007633 85.845918 
L 323.364062 85.455915 
L 323.720491 85.287719 
L 324.076921 85.381266 
L 324.43335 85.323198 
L 325.502637 85.582832 
L 326.215495 85.959983 
L 326.571925 85.677971 
L 326.928354 85.794739 
L 327.284783 86.208834 
L 327.641212 86.174047 
L 327.997641 86.333573 
L 328.35407 85.958392 
L 329.423358 85.629438 
L 329.779787 85.822938 
L 330.492645 84.908727 
L 330.849075 85.15197 
L 331.918362 85.099784 
L 332.63122 84.664603 
L 332.987649 85.03073 
L 333.344079 85.58352 
L 333.700508 85.562461 
L 334.056937 85.811201 
L 334.413366 85.664317 
L 334.769795 85.637806 
L 335.839083 86.327307 
L 336.195512 86.140926 
L 336.551941 86.232752 
L 336.90837 85.936915 
L 337.977658 87.044513 
L 338.334087 86.901323 
L 338.690516 86.922624 
L 339.046945 86.607111 
L 339.403374 86.560002 
L 339.759803 86.151789 
L 340.116233 86.324072 
L 340.829091 85.981208 
L 341.541949 86.38981 
L 342.611237 86.022752 
L 342.967666 86.222863 
L 343.324095 85.849701 
L 344.393382 85.864576 
L 344.749812 85.751554 
L 345.106241 86.059035 
L 345.46267 85.937142 
L 345.819099 86.00832 
L 346.175528 85.740636 
L 346.531957 85.855528 
L 346.888387 85.555199 
L 347.244816 85.423206 
L 347.601245 85.884124 
L 347.957674 85.715159 
L 348.670532 86.266775 
L 349.026962 86.322923 
L 349.383391 85.954377 
L 349.73982 85.832634 
L 350.452678 85.891101 
L 350.809107 85.737959 
L 351.521966 86.26091 
L 352.591253 85.874691 
L 352.947682 86.082269 
L 353.304111 86.430123 
L 353.660541 86.407666 
L 354.01697 86.652652 
L 354.729828 86.293872 
L 355.086257 86.137266 
L 355.442686 86.227128 
L 355.799115 86.457199 
L 356.155545 86.226833 
L 356.511974 86.192282 
L 356.868403 86.317887 
L 357.224832 85.863474 
L 357.581261 85.779736 
L 357.93769 85.914498 
L 358.650549 85.774827 
L 359.363407 85.983234 
L 360.076265 85.369678 
L 360.432695 85.595739 
L 360.789124 85.448066 
L 361.145553 85.422812 
L 361.501982 85.730976 
L 362.927699 86.015923 
L 363.640557 85.981852 
L 365.066274 86.803711 
L 365.422703 86.310429 
L 365.779132 86.104713 
L 366.135561 86.15743 
L 366.848419 86.82849 
L 367.204848 86.422068 
L 367.561278 86.653949 
L 368.630565 86.996352 
L 369.343423 86.697674 
L 369.699853 86.830062 
L 370.056282 86.78863 
L 370.412711 86.972316 
L 370.76914 87.023125 
L 371.125569 86.789896 
L 371.481998 86.276217 
L 371.838428 86.080801 
L 372.194857 86.56852 
L 372.551286 86.205096 
L 372.907715 86.188992 
L 373.264144 86.308311 
L 373.977002 87.01631 
L 374.689861 86.77398 
L 375.04629 86.468951 
L 375.402719 86.544417 
L 375.759148 86.830151 
L 376.115577 86.300106 
L 376.472007 86.315753 
L 376.828436 86.00227 
L 377.184865 85.917328 
L 377.541294 85.711838 
L 377.897723 85.666077 
L 378.610581 86.165037 
L 378.967011 85.988082 
L 379.679869 85.895793 
L 380.392727 86.179652 
L 380.749156 85.903926 
L 381.105586 85.960099 
L 381.818444 85.50956 
L 382.531302 85.788847 
L 382.887731 85.493985 
L 383.60059 85.347156 
L 384.313448 84.859846 
L 385.739165 85.255416 
L 387.87774 85.109769 
L 388.590598 84.552448 
L 388.947027 84.603184 
L 389.303456 84.860533 
L 389.659885 84.6656 
L 390.016314 84.662501 
L 390.372744 84.38048 
L 390.729173 84.458192 
L 391.085602 84.371733 
L 391.79846 84.498481 
L 392.154889 84.495367 
L 392.511319 84.907522 
L 392.867748 84.797704 
L 393.580606 85.07774 
L 394.293464 85.739184 
L 395.719181 86.169207 
L 396.07561 86.492434 
L 396.432039 86.648634 
L 396.788468 86.505355 
L 397.144898 86.95606 
L 397.501327 86.923132 
L 397.857756 86.7186 
L 398.214185 86.81302 
L 398.570614 86.749319 
L 398.927043 86.969067 
L 399.639902 86.723675 
L 399.996331 86.871853 
L 400.709189 86.615783 
L 401.065618 86.118353 
L 401.422048 86.120352 
L 401.778477 85.778997 
L 402.847764 85.833718 
L 403.204193 85.348545 
L 403.560622 85.288584 
L 403.917052 85.681755 
L 404.273481 85.655908 
L 404.62991 85.448126 
L 404.986339 85.677665 
L 405.342768 85.727519 
L 405.699197 85.517779 
L 406.055627 85.5876 
L 406.768485 85.385323 
L 407.481343 85.708328 
L 407.837772 85.470831 
L 408.550631 85.464821 
L 408.90706 85.4495 
L 409.263489 85.739927 
L 409.619918 85.747597 
L 410.332776 86.192118 
L 410.689206 86.145877 
L 411.045635 86.258477 
L 411.402064 86.159642 
L 411.758493 85.855242 
L 412.471351 85.925418 
L 412.827781 85.846906 
L 413.540639 85.952809 
L 414.609926 85.755998 
L 414.966355 85.885114 
L 415.322785 85.895385 
L 416.035643 85.43081 
L 416.748501 85.869219 
L 417.10493 85.953956 
L 417.817789 85.669496 
L 418.174218 85.617413 
L 418.530647 85.059255 
L 419.243505 85.104204 
L 419.956364 85.355456 
L 419.956364 85.355456 
" style="fill:none;stroke:#1f77b4;stroke-linecap:square;stroke-width:1.5;"/>
   </g>
   <g id="patch_3">
    <path d="M 46.08 156.672 
L 46.08 27.648 
" style="fill:none;stroke:#000000;stroke-linecap:square;stroke-linejoin:miter;stroke-width:0.8;"/>
   </g>
   <g id="patch_4">
    <path d="M 437.76 156.672 
L 437.76 27.648 
" style="fill:none;stroke:#000000;stroke-linecap:square;stroke-linejoin:miter;stroke-width:0.8;"/>
   </g>
   <g id="patch_5">
    <path d="M 46.08 156.672 
L 437.76 156.672 
" style="fill:none;stroke:#000000;stroke-linecap:square;stroke-linejoin:miter;stroke-width:0.8;"/>
   </g>
   <g id="patch_6">
    <path d="M 46.08 27.648 
L 437.76 27.648 
" style="fill:none;stroke:#000000;stroke-linecap:square;stroke-linejoin:miter;stroke-width:0.8;"/>
   </g>
   <g id="text_14">
    <!-- Utilización promedio servidor D1 -->
    <defs>
     <path id="DejaVuSans-32"/>
     <path d="M 18.109375 8.203125 
L 18.109375 -20.796875 
L 9.078125 -20.796875 
L 9.078125 54.6875 
L 18.109375 54.6875 
L 18.109375 46.390625 
Q 20.953125 51.265625 25.265625 53.625 
Q 29.59375 56 35.59375 56 
Q 45.5625 56 51.78125 48.09375 
Q 58.015625 40.1875 58.015625 27.296875 
Q 58.015625 14.40625 51.78125 6.484375 
Q 45.5625 -1.421875 35.59375 -1.421875 
Q 29.59375 -1.421875 25.265625 0.953125 
Q 20.953125 3.328125 18.109375 8.203125 
z
M 48.6875 27.296875 
Q 48.6875 37.203125 44.609375 42.84375 
Q 40.53125 48.484375 33.40625 48.484375 
Q 26.265625 48.484375 22.1875 42.84375 
Q 18.109375 37.203125 18.109375 27.296875 
Q 18.109375 17.390625 22.1875 11.75 
Q 26.265625 6.109375 33.40625 6.109375 
Q 40.53125 6.109375 44.609375 11.75 
Q 48.6875 17.390625 48.6875 27.296875 
z
" id="DejaVuSans-112"/>
     <path d="M 52 44.1875 
Q 55.375 50.25 60.0625 53.125 
Q 64.75 56 71.09375 56 
Q 79.640625 56 84.28125 50.015625 
Q 88.921875 44.046875 88.921875 33.015625 
L 88.921875 0 
L 79.890625 0 
L 79.890625 32.71875 
Q 79.890625 40.578125 77.09375 44.375 
Q 74.3125 48.1875 68.609375 48.1875 
Q 61.625 48.1875 57.5625 43.546875 
Q 53.515625 38.921875 53.515625 30.90625 
L 53.515625 0 
L 44.484375 0 
L 44.484375 32.71875 
Q 44.484375 40.625 41.703125 44.40625 
Q 38.921875 48.1875 33.109375 48.1875 
Q 26.21875 48.1875 22.15625 43.53125 
Q 18.109375 38.875 18.109375 30.90625 
L 18.109375 0 
L 9.078125 0 
L 9.078125 54.6875 
L 18.109375 54.6875 
L 18.109375 46.1875 
Q 21.1875 51.21875 25.484375 53.609375 
Q 29.78125 56 35.6875 56 
Q 41.65625 56 45.828125 52.96875 
Q 50 49.953125 52 44.1875 
z
" id="DejaVuSans-109"/>
     <path d="M 56.203125 29.59375 
L 56.203125 25.203125 
L 14.890625 25.203125 
Q 15.484375 15.921875 20.484375 11.0625 
Q 25.484375 6.203125 34.421875 6.203125 
Q 39.59375 6.203125 44.453125 7.46875 
Q 49.3125 8.734375 54.109375 11.28125 
L 54.109375 2.78125 
Q 49.265625 0.734375 44.1875 -0.34375 
Q 39.109375 -1.421875 33.890625 -1.421875 
Q 20.796875 -1.421875 13.15625 6.1875 
Q 5.515625 13.8125 5.515625 26.8125 
Q 5.515625 40.234375 12.765625 48.109375 
Q 20.015625 56 32.328125 56 
Q 43.359375 56 49.78125 48.890625 
Q 56.203125 41.796875 56.203125 29.59375 
z
M 47.21875 32.234375 
Q 47.125 39.59375 43.09375 43.984375 
Q 39.0625 48.390625 32.421875 48.390625 
Q 24.90625 48.390625 20.390625 44.140625 
Q 15.875 39.890625 15.1875 32.171875 
z
" id="DejaVuSans-101"/>
     <path d="M 2.984375 54.6875 
L 12.5 54.6875 
L 29.59375 8.796875 
L 46.6875 54.6875 
L 56.203125 54.6875 
L 35.6875 0 
L 23.484375 0 
z
" id="DejaVuSans-118"/>
     <path d="M 19.671875 64.796875 
L 19.671875 8.109375 
L 31.59375 8.109375 
Q 46.6875 8.109375 53.6875 14.9375 
Q 60.6875 21.78125 60.6875 36.53125 
Q 60.6875 51.171875 53.6875 57.984375 
Q 46.6875 64.796875 31.59375 64.796875 
z
M 9.8125 72.90625 
L 30.078125 72.90625 
Q 51.265625 72.90625 61.171875 64.09375 
Q 71.09375 55.28125 71.09375 36.53125 
Q 71.09375 17.671875 61.125 8.828125 
Q 51.171875 0 30.078125 0 
L 9.8125 0 
z
" id="DejaVuSans-68"/>
    </defs>
    <g transform="translate(143.674688 21.648)scale(0.12 -0.12)">
     <use xlink:href="#DejaVuSans-85"/>
     <use x="73.193359" xlink:href="#DejaVuSans-116"/>
     <use x="112.402344" xlink:href="#DejaVuSans-105"/>
     <use x="140.185547" xlink:href="#DejaVuSans-108"/>
     <use x="167.96875" xlink:href="#DejaVuSans-105"/>
     <use x="195.751953" xlink:href="#DejaVuSans-122"/>
     <use x="248.242188" xlink:href="#DejaVuSans-97"/>
     <use x="309.521484" xlink:href="#DejaVuSans-99"/>
     <use x="364.501953" xlink:href="#DejaVuSans-105"/>
     <use x="392.285156" xlink:href="#DejaVuSans-243"/>
     <use x="453.466797" xlink:href="#DejaVuSans-110"/>
     <use x="516.845703" xlink:href="#DejaVuSans-32"/>
     <use x="548.632812" xlink:href="#DejaVuSans-112"/>
     <use x="612.109375" xlink:href="#DejaVuSans-114"/>
     <use x="653.191406" xlink:href="#DejaVuSans-111"/>
     <use x="714.373047" xlink:href="#DejaVuSans-109"/>
     <use x="811.785156" xlink:href="#DejaVuSans-101"/>
     <use x="873.308594" xlink:href="#DejaVuSans-100"/>
     <use x="936.785156" xlink:href="#DejaVuSans-105"/>
     <use x="964.568359" xlink:href="#DejaVuSans-111"/>
     <use x="1025.75" xlink:href="#DejaVuSans-32"/>
     <use x="1057.537109" xlink:href="#DejaVuSans-115"/>
     <use x="1109.636719" xlink:href="#DejaVuSans-101"/>
     <use x="1171.160156" xlink:href="#DejaVuSans-114"/>
     <use x="1212.273438" xlink:href="#DejaVuSans-118"/>
     <use x="1271.453125" xlink:href="#DejaVuSans-105"/>
     <use x="1299.236328" xlink:href="#DejaVuSans-100"/>
     <use x="1362.712891" xlink:href="#DejaVuSans-111"/>
     <use x="1423.894531" xlink:href="#DejaVuSans-114"/>
     <use x="1465.007812" xlink:href="#DejaVuSans-32"/>
     <use x="1496.794922" xlink:href="#DejaVuSans-68"/>
     <use x="1573.796875" xlink:href="#DejaVuSans-49"/>
    </g>
   </g>
  </g>
  <g id="axes_2">
   <g id="patch_7">
    <path d="M 46.08 317.952 
L 437.76 317.952 
L 437.76 188.928 
L 46.08 188.928 
z
" style="fill:#ffffff;"/>
   </g>
   <g id="matplotlib.axis_3">
    <g id="xtick_7">
     <g id="line2d_24">
      <path clip-path="url(#p91b4a74289)" d="M 63.527207 317.952 
L 63.527207 188.928 
" style="fill:none;stroke:#b0b0b0;stroke-linecap:square;stroke-width:0.8;"/>
     </g>
     <g id="line2d_25">
      <g>
       <use style="stroke:#000000;stroke-width:0.8;" x="63.527207" xlink:href="#m6d1b27545f" y="317.952"/>
      </g>
     </g>
     <g id="text_15">
      <!-- 0 -->
      <g transform="translate(60.345957 332.550437)scale(0.1 -0.1)">
       <use xlink:href="#DejaVuSans-48"/>
      </g>
     </g>
    </g>
    <g id="xtick_8">
     <g id="line2d_26">
      <path clip-path="url(#p91b4a74289)" d="M 134.813038 317.952 
L 134.813038 188.928 
" style="fill:none;stroke:#b0b0b0;stroke-linecap:square;stroke-width:0.8;"/>
     </g>
     <g id="line2d_27">
      <g>
       <use style="stroke:#000000;stroke-width:0.8;" x="134.813038" xlink:href="#m6d1b27545f" y="317.952"/>
      </g>
     </g>
     <g id="text_16">
      <!-- 200 -->
      <g transform="translate(125.269288 332.550437)scale(0.1 -0.1)">
       <use xlink:href="#DejaVuSans-50"/>
       <use x="63.623047" xlink:href="#DejaVuSans-48"/>
       <use x="127.246094" xlink:href="#DejaVuSans-48"/>
      </g>
     </g>
    </g>
    <g id="xtick_9">
     <g id="line2d_28">
      <path clip-path="url(#p91b4a74289)" d="M 206.09887 317.952 
L 206.09887 188.928 
" style="fill:none;stroke:#b0b0b0;stroke-linecap:square;stroke-width:0.8;"/>
     </g>
     <g id="line2d_29">
      <g>
       <use style="stroke:#000000;stroke-width:0.8;" x="206.09887" xlink:href="#m6d1b27545f" y="317.952"/>
      </g>
     </g>
     <g id="text_17">
      <!-- 400 -->
      <g transform="translate(196.55512 332.550437)scale(0.1 -0.1)">
       <use xlink:href="#DejaVuSans-52"/>
       <use x="63.623047" xlink:href="#DejaVuSans-48"/>
       <use x="127.246094" xlink:href="#DejaVuSans-48"/>
      </g>
     </g>
    </g>
    <g id="xtick_10">
     <g id="line2d_30">
      <path clip-path="url(#p91b4a74289)" d="M 277.384701 317.952 
L 277.384701 188.928 
" style="fill:none;stroke:#b0b0b0;stroke-linecap:square;stroke-width:0.8;"/>
     </g>
     <g id="line2d_31">
      <g>
       <use style="stroke:#000000;stroke-width:0.8;" x="277.384701" xlink:href="#m6d1b27545f" y="317.952"/>
      </g>
     </g>
     <g id="text_18">
      <!-- 600 -->
      <g transform="translate(267.840951 332.550437)scale(0.1 -0.1)">
       <use xlink:href="#DejaVuSans-54"/>
       <use x="63.623047" xlink:href="#DejaVuSans-48"/>
       <use x="127.246094" xlink:href="#DejaVuSans-48"/>
      </g>
     </g>
    </g>
    <g id="xtick_11">
     <g id="line2d_32">
      <path clip-path="url(#p91b4a74289)" d="M 348.670532 317.952 
L 348.670532 188.928 
" style="fill:none;stroke:#b0b0b0;stroke-linecap:square;stroke-width:0.8;"/>
     </g>
     <g id="line2d_33">
      <g>
       <use style="stroke:#000000;stroke-width:0.8;" x="348.670532" xlink:href="#m6d1b27545f" y="317.952"/>
      </g>
     </g>
     <g id="text_19">
      <!-- 800 -->
      <g transform="translate(339.126782 332.550437)scale(0.1 -0.1)">
       <use xlink:href="#DejaVuSans-56"/>
       <use x="63.623047" xlink:href="#DejaVuSans-48"/>
       <use x="127.246094" xlink:href="#DejaVuSans-48"/>
      </g>
     </g>
    </g>
    <g id="xtick_12">
     <g id="line2d_34">
      <path clip-path="url(#p91b4a74289)" d="M 419.956364 317.952 
L 419.956364 188.928 
" style="fill:none;stroke:#b0b0b0;stroke-linecap:square;stroke-width:0.8;"/>
     </g>
     <g id="line2d_35">
      <g>
       <use style="stroke:#000000;stroke-width:0.8;" x="419.956364" xlink:href="#m6d1b27545f" y="317.952"/>
      </g>
     </g>
     <g id="text_20">
      <!-- 1000 -->
      <g transform="translate(407.231364 332.550437)scale(0.1 -0.1)">
       <use xlink:href="#DejaVuSans-49"/>
       <use x="63.623047" xlink:href="#DejaVuSans-48"/>
       <use x="127.246094" xlink:href="#DejaVuSans-48"/>
       <use x="190.869141" xlink:href="#DejaVuSans-48"/>
      </g>
     </g>
    </g>
    <g id="text_21">
     <!-- Corridas -->
     <g transform="translate(221.027031 346.228563)scale(0.1 -0.1)">
      <use xlink:href="#DejaVuSans-67"/>
      <use x="69.824219" xlink:href="#DejaVuSans-111"/>
      <use x="131.005859" xlink:href="#DejaVuSans-114"/>
      <use x="172.103516" xlink:href="#DejaVuSans-114"/>
      <use x="213.216797" xlink:href="#DejaVuSans-105"/>
      <use x="241" xlink:href="#DejaVuSans-100"/>
      <use x="304.476562" xlink:href="#DejaVuSans-97"/>
      <use x="365.755859" xlink:href="#DejaVuSans-115"/>
     </g>
    </g>
   </g>
   <g id="matplotlib.axis_4">
    <g id="ytick_6">
     <g id="line2d_36">
      <path clip-path="url(#p91b4a74289)" d="M 46.08 306.924252 
L 437.76 306.924252 
" style="fill:none;stroke:#b0b0b0;stroke-linecap:square;stroke-width:0.8;"/>
     </g>
     <g id="line2d_37">
      <g>
       <use style="stroke:#000000;stroke-width:0.8;" x="46.08" xlink:href="#m34837e2179" y="306.924252"/>
      </g>
     </g>
     <g id="text_22">
      <!-- 0.2375 -->
      <defs>
       <path d="M 40.578125 39.3125 
Q 47.65625 37.796875 51.625 33 
Q 55.609375 28.21875 55.609375 21.1875 
Q 55.609375 10.40625 48.1875 4.484375 
Q 40.765625 -1.421875 27.09375 -1.421875 
Q 22.515625 -1.421875 17.65625 -0.515625 
Q 12.796875 0.390625 7.625 2.203125 
L 7.625 11.71875 
Q 11.71875 9.328125 16.59375 8.109375 
Q 21.484375 6.890625 26.8125 6.890625 
Q 36.078125 6.890625 40.9375 10.546875 
Q 45.796875 14.203125 45.796875 21.1875 
Q 45.796875 27.640625 41.28125 31.265625 
Q 36.765625 34.90625 28.71875 34.90625 
L 20.21875 34.90625 
L 20.21875 43.015625 
L 29.109375 43.015625 
Q 36.375 43.015625 40.234375 45.921875 
Q 44.09375 48.828125 44.09375 54.296875 
Q 44.09375 59.90625 40.109375 62.90625 
Q 36.140625 65.921875 28.71875 65.921875 
Q 24.65625 65.921875 20.015625 65.03125 
Q 15.375 64.15625 9.8125 62.3125 
L 9.8125 71.09375 
Q 15.4375 72.65625 20.34375 73.4375 
Q 25.25 74.21875 29.59375 74.21875 
Q 40.828125 74.21875 47.359375 69.109375 
Q 53.90625 64.015625 53.90625 55.328125 
Q 53.90625 49.265625 50.4375 45.09375 
Q 46.96875 40.921875 40.578125 39.3125 
z
" id="DejaVuSans-51"/>
       <path d="M 8.203125 72.90625 
L 55.078125 72.90625 
L 55.078125 68.703125 
L 28.609375 0 
L 18.3125 0 
L 43.21875 64.59375 
L 8.203125 64.59375 
z
" id="DejaVuSans-55"/>
      </defs>
      <g transform="translate(4.089375 310.723471)scale(0.1 -0.1)">
       <use xlink:href="#DejaVuSans-48"/>
       <use x="63.623047" xlink:href="#DejaVuSans-46"/>
       <use x="95.410156" xlink:href="#DejaVuSans-50"/>
       <use x="159.033203" xlink:href="#DejaVuSans-51"/>
       <use x="222.65625" xlink:href="#DejaVuSans-55"/>
       <use x="286.279297" xlink:href="#DejaVuSans-53"/>
      </g>
     </g>
    </g>
    <g id="ytick_7">
     <g id="line2d_38">
      <path clip-path="url(#p91b4a74289)" d="M 46.08 284.672333 
L 437.76 284.672333 
" style="fill:none;stroke:#b0b0b0;stroke-linecap:square;stroke-width:0.8;"/>
     </g>
     <g id="line2d_39">
      <g>
       <use style="stroke:#000000;stroke-width:0.8;" x="46.08" xlink:href="#m34837e2179" y="284.672333"/>
      </g>
     </g>
     <g id="text_23">
      <!-- 0.2400 -->
      <g transform="translate(4.089375 288.471552)scale(0.1 -0.1)">
       <use xlink:href="#DejaVuSans-48"/>
       <use x="63.623047" xlink:href="#DejaVuSans-46"/>
       <use x="95.410156" xlink:href="#DejaVuSans-50"/>
       <use x="159.033203" xlink:href="#DejaVuSans-52"/>
       <use x="222.65625" xlink:href="#DejaVuSans-48"/>
       <use x="286.279297" xlink:href="#DejaVuSans-48"/>
      </g>
     </g>
    </g>
    <g id="ytick_8">
     <g id="line2d_40">
      <path clip-path="url(#p91b4a74289)" d="M 46.08 262.420414 
L 437.76 262.420414 
" style="fill:none;stroke:#b0b0b0;stroke-linecap:square;stroke-width:0.8;"/>
     </g>
     <g id="line2d_41">
      <g>
       <use style="stroke:#000000;stroke-width:0.8;" x="46.08" xlink:href="#m34837e2179" y="262.420414"/>
      </g>
     </g>
     <g id="text_24">
      <!-- 0.2425 -->
      <g transform="translate(4.089375 266.219633)scale(0.1 -0.1)">
       <use xlink:href="#DejaVuSans-48"/>
       <use x="63.623047" xlink:href="#DejaVuSans-46"/>
       <use x="95.410156" xlink:href="#DejaVuSans-50"/>
       <use x="159.033203" xlink:href="#DejaVuSans-52"/>
       <use x="222.65625" xlink:href="#DejaVuSans-50"/>
       <use x="286.279297" xlink:href="#DejaVuSans-53"/>
      </g>
     </g>
    </g>
    <g id="ytick_9">
     <g id="line2d_42">
      <path clip-path="url(#p91b4a74289)" d="M 46.08 240.168496 
L 437.76 240.168496 
" style="fill:none;stroke:#b0b0b0;stroke-linecap:square;stroke-width:0.8;"/>
     </g>
     <g id="line2d_43">
      <g>
       <use style="stroke:#000000;stroke-width:0.8;" x="46.08" xlink:href="#m34837e2179" y="240.168496"/>
      </g>
     </g>
     <g id="text_25">
      <!-- 0.2450 -->
      <g transform="translate(4.089375 243.967714)scale(0.1 -0.1)">
       <use xlink:href="#DejaVuSans-48"/>
       <use x="63.623047" xlink:href="#DejaVuSans-46"/>
       <use x="95.410156" xlink:href="#DejaVuSans-50"/>
       <use x="159.033203" xlink:href="#DejaVuSans-52"/>
       <use x="222.65625" xlink:href="#DejaVuSans-53"/>
       <use x="286.279297" xlink:href="#DejaVuSans-48"/>
      </g>
     </g>
    </g>
    <g id="ytick_10">
     <g id="line2d_44">
      <path clip-path="url(#p91b4a74289)" d="M 46.08 217.916577 
L 437.76 217.916577 
" style="fill:none;stroke:#b0b0b0;stroke-linecap:square;stroke-width:0.8;"/>
     </g>
     <g id="line2d_45">
      <g>
       <use style="stroke:#000000;stroke-width:0.8;" x="46.08" xlink:href="#m34837e2179" y="217.916577"/>
      </g>
     </g>
     <g id="text_26">
      <!-- 0.2475 -->
      <g transform="translate(4.089375 221.715795)scale(0.1 -0.1)">
       <use xlink:href="#DejaVuSans-48"/>
       <use x="63.623047" xlink:href="#DejaVuSans-46"/>
       <use x="95.410156" xlink:href="#DejaVuSans-50"/>
       <use x="159.033203" xlink:href="#DejaVuSans-52"/>
       <use x="222.65625" xlink:href="#DejaVuSans-55"/>
       <use x="286.279297" xlink:href="#DejaVuSans-53"/>
      </g>
     </g>
    </g>
    <g id="ytick_11">
     <g id="line2d_46">
      <path clip-path="url(#p91b4a74289)" d="M 46.08 195.664658 
L 437.76 195.664658 
" style="fill:none;stroke:#b0b0b0;stroke-linecap:square;stroke-width:0.8;"/>
     </g>
     <g id="line2d_47">
      <g>
       <use style="stroke:#000000;stroke-width:0.8;" x="46.08" xlink:href="#m34837e2179" y="195.664658"/>
      </g>
     </g>
     <g id="text_27">
      <!-- 0.2500 -->
      <g transform="translate(4.089375 199.463876)scale(0.1 -0.1)">
       <use xlink:href="#DejaVuSans-48"/>
       <use x="63.623047" xlink:href="#DejaVuSans-46"/>
       <use x="95.410156" xlink:href="#DejaVuSans-50"/>
       <use x="159.033203" xlink:href="#DejaVuSans-53"/>
       <use x="222.65625" xlink:href="#DejaVuSans-48"/>
       <use x="286.279297" xlink:href="#DejaVuSans-48"/>
      </g>
     </g>
    </g>
    <g id="text_28">
     <!-- Utilización -->
     <g transform="translate(-1.990312 279.281406)rotate(-90)scale(0.1 -0.1)">
      <use xlink:href="#DejaVuSans-85"/>
      <use x="73.193359" xlink:href="#DejaVuSans-116"/>
      <use x="112.402344" xlink:href="#DejaVuSans-105"/>
      <use x="140.185547" xlink:href="#DejaVuSans-108"/>
      <use x="167.96875" xlink:href="#DejaVuSans-105"/>
      <use x="195.751953" xlink:href="#DejaVuSans-122"/>
      <use x="248.242188" xlink:href="#DejaVuSans-97"/>
      <use x="309.521484" xlink:href="#DejaVuSans-99"/>
      <use x="364.501953" xlink:href="#DejaVuSans-105"/>
      <use x="392.285156" xlink:href="#DejaVuSans-243"/>
      <use x="453.466797" xlink:href="#DejaVuSans-110"/>
     </g>
    </g>
   </g>
   <g id="line2d_48">
    <path clip-path="url(#p91b4a74289)" d="M 63.883636 233.08653 
L 64.240066 298.57511 
L 64.596495 285.207714 
L 64.952924 312.087273 
L 65.309353 294.371615 
L 65.665782 295.420674 
L 66.022211 290.183613 
L 66.73507 254.587197 
L 67.091499 258.661246 
L 67.447928 243.362082 
L 67.804357 244.603373 
L 68.160786 249.589231 
L 68.517215 238.521657 
L 68.873645 234.091244 
L 69.230074 228.174525 
L 69.586503 227.801672 
L 70.299361 231.018234 
L 70.65579 243.524058 
L 71.012219 238.564306 
L 71.368649 236.385452 
L 71.725078 244.123588 
L 72.081507 240.36926 
L 72.437936 238.030433 
L 72.794365 238.423515 
L 73.150794 239.226948 
L 73.507224 238.790753 
L 73.863653 237.819179 
L 74.220082 230.944597 
L 74.576511 228.626656 
L 74.93294 221.781066 
L 75.645799 214.381339 
L 76.002228 213.231283 
L 76.358657 210.917873 
L 76.715086 213.152576 
L 77.071515 208.448715 
L 77.427944 209.567858 
L 77.784373 211.67014 
L 78.140803 211.913516 
L 78.853661 213.352721 
L 79.21009 210.310667 
L 79.566519 215.166081 
L 79.922948 214.343725 
L 80.279378 215.266433 
L 80.635807 212.165404 
L 81.348665 212.54992 
L 81.705094 211.70844 
L 82.061523 215.403539 
L 82.417952 209.495249 
L 82.774382 207.93637 
L 83.130811 205.059147 
L 83.48724 205.856996 
L 83.843669 205.274298 
L 84.200098 204.183318 
L 84.556527 203.580131 
L 85.269386 210.031948 
L 85.625815 208.776187 
L 85.982244 208.113022 
L 86.338673 206.778866 
L 86.695102 206.130899 
L 87.051532 203.268 
L 87.407961 201.500824 
L 87.76439 200.338169 
L 88.120819 200.883443 
L 88.477248 204.252312 
L 88.833677 203.149551 
L 89.190106 202.710005 
L 89.546536 204.025951 
L 90.259394 199.928113 
L 90.615823 199.769563 
L 90.972252 200.283122 
L 92.04154 197.51364 
L 92.397969 195.879247 
L 92.754398 194.792727 
L 93.110827 195.191238 
L 93.823686 196.418107 
L 94.180115 196.21437 
L 94.536544 195.475722 
L 94.892973 198.315449 
L 95.249402 198.131815 
L 95.605831 198.930427 
L 95.96226 199.397036 
L 96.675119 202.866763 
L 97.031548 202.398552 
L 97.387977 200.523513 
L 97.744406 200.333832 
L 98.100835 199.977811 
L 98.457265 200.393666 
L 98.813694 198.01238 
L 99.170123 199.459619 
L 99.526552 198.820766 
L 99.882981 198.614609 
L 100.23941 199.674907 
L 100.595839 199.168359 
L 100.952269 200.447388 
L 101.665127 198.906989 
L 102.021556 199.835693 
L 102.377985 199.892696 
L 102.734414 200.267515 
L 103.090844 200.308099 
L 103.447273 200.652676 
L 104.160131 202.39436 
L 104.51656 201.528809 
L 104.872989 199.948651 
L 105.585848 199.826552 
L 105.942277 198.749992 
L 106.298706 200.065229 
L 106.655135 198.907952 
L 107.011564 198.458691 
L 107.367993 200.373143 
L 107.724423 201.016978 
L 108.080852 200.979337 
L 108.79371 200.748094 
L 109.150139 201.640055 
L 109.506568 199.510656 
L 109.862998 199.101022 
L 110.219427 200.176979 
L 110.575856 201.655283 
L 110.932285 202.386937 
L 111.288714 202.419371 
L 111.645143 201.073142 
L 112.001572 201.630477 
L 112.358002 201.711495 
L 112.714431 201.349221 
L 113.07086 200.21073 
L 113.427289 199.867613 
L 113.783718 199.318062 
L 114.140147 200.569607 
L 114.496577 200.959231 
L 114.853006 201.550915 
L 115.565864 200.480825 
L 115.922293 199.65375 
L 116.635152 198.823026 
L 116.991581 198.969752 
L 117.34801 200.03727 
L 117.704439 200.365205 
L 118.060868 198.623685 
L 118.417297 198.638408 
L 118.773726 198.016485 
L 119.486585 198.707663 
L 120.199443 197.163908 
L 120.555872 197.782628 
L 120.912301 197.660724 
L 121.268731 196.716167 
L 121.62516 198.090825 
L 121.981589 198.560956 
L 122.338018 197.852946 
L 122.694447 198.009984 
L 123.050876 197.41422 
L 123.407305 198.84835 
L 123.763735 198.600035 
L 124.120164 198.598279 
L 124.833022 199.442537 
L 125.189451 198.92709 
L 125.54588 198.899135 
L 125.90231 199.210801 
L 126.615168 199.444979 
L 126.971597 198.987763 
L 127.328026 199.130743 
L 127.684455 198.386591 
L 128.040885 200.212791 
L 128.397314 199.42545 
L 128.753743 198.292566 
L 129.110172 198.575487 
L 129.466601 198.301922 
L 129.82303 198.804924 
L 130.179459 198.773688 
L 130.535889 198.153446 
L 130.892318 197.866097 
L 131.248747 198.557386 
L 131.605176 198.887801 
L 131.961605 197.830391 
L 132.318034 197.529934 
L 132.674464 197.948007 
L 133.030893 198.751819 
L 133.387322 198.704409 
L 133.743751 198.206883 
L 134.813038 200.71 
L 135.169468 200.330171 
L 135.525897 201.081472 
L 135.882326 200.661112 
L 136.238755 200.741327 
L 136.595184 198.994563 
L 136.951613 199.249125 
L 137.308043 198.682368 
L 137.664472 198.612299 
L 138.020901 198.825361 
L 138.37733 199.849275 
L 138.733759 199.171095 
L 139.090188 198.88416 
L 139.446618 198.01784 
L 139.803047 197.993063 
L 140.515905 198.380651 
L 140.872334 198.749016 
L 141.228763 198.847845 
L 141.585192 199.243876 
L 141.941622 199.275921 
L 142.298051 199.191955 
L 142.65448 198.557198 
L 143.010909 198.348184 
L 143.367338 197.637083 
L 143.723767 198.2668 
L 144.080197 198.336798 
L 144.436626 199.315444 
L 145.149484 198.217688 
L 145.505913 199.091312 
L 145.862342 198.504229 
L 146.218771 199.352839 
L 146.575201 199.686448 
L 146.93163 200.379688 
L 147.288059 201.461017 
L 147.644488 201.38123 
L 148.000917 201.457571 
L 148.713776 200.39509 
L 149.070205 199.533488 
L 149.783063 199.064311 
L 150.139492 200.043041 
L 150.495921 200.674153 
L 151.20878 200.026732 
L 151.565209 200.333993 
L 152.278067 199.628051 
L 152.634496 200.098722 
L 152.990925 200.369478 
L 153.347355 200.287402 
L 153.703784 200.55972 
L 154.060213 200.115779 
L 154.773071 201.30668 
L 155.48593 200.912026 
L 155.842359 201.237821 
L 156.198788 200.969717 
L 156.555217 201.097703 
L 156.911646 200.760616 
L 157.624505 201.420029 
L 157.980934 201.361092 
L 158.337363 200.872268 
L 158.693792 200.881804 
L 159.050221 201.038384 
L 159.40665 200.507915 
L 159.763079 200.366745 
L 160.832367 198.66816 
L 161.545225 199.35582 
L 161.901654 199.262903 
L 162.258084 199.533947 
L 162.970942 200.209669 
L 163.327371 200.124625 
L 163.6838 199.778029 
L 164.040229 199.71637 
L 164.753088 199.079482 
L 165.109517 199.376465 
L 165.465946 200.014537 
L 165.822375 198.748957 
L 166.535233 198.133888 
L 166.891663 198.367757 
L 167.248092 198.277931 
L 167.604521 199.013951 
L 167.96095 199.338923 
L 168.317379 199.33077 
L 168.673808 199.147135 
L 169.030238 199.093253 
L 169.386667 198.646299 
L 169.743096 198.902399 
L 170.099525 198.65019 
L 170.455954 199.003147 
L 170.812383 198.48784 
L 171.881671 198.623012 
L 172.2381 198.217699 
L 172.594529 198.796927 
L 172.950958 198.915118 
L 173.307387 198.711731 
L 173.663817 198.707299 
L 174.020246 198.369816 
L 174.376675 198.550827 
L 174.733104 198.961562 
L 175.445962 198.668492 
L 175.802391 198.928701 
L 176.51525 199.14446 
L 176.871679 199.052501 
L 177.228108 199.589363 
L 177.584537 199.328056 
L 177.940966 200.017975 
L 178.297396 199.770283 
L 178.653825 199.382791 
L 179.010254 199.595943 
L 179.366683 199.218515 
L 179.723112 199.174274 
L 180.079541 198.951698 
L 180.435971 198.467723 
L 181.148829 198.926246 
L 181.505258 198.644654 
L 181.861687 198.218555 
L 182.218116 198.30364 
L 182.574545 197.769727 
L 183.287404 197.734087 
L 183.643833 197.612358 
L 184.356691 198.859937 
L 184.71312 198.782059 
L 185.425979 199.102712 
L 185.782408 198.864501 
L 186.138837 198.296396 
L 186.495266 198.088389 
L 186.851695 198.055179 
L 187.208124 198.457449 
L 187.920983 198.690238 
L 188.277412 198.400895 
L 188.633841 199.278206 
L 188.99027 199.272497 
L 189.346699 199.086717 
L 189.703129 199.45755 
L 190.059558 199.37041 
L 190.415987 199.492272 
L 190.772416 199.194352 
L 191.128845 199.418831 
L 191.485274 199.188779 
L 191.841704 199.14879 
L 192.198133 199.404524 
L 192.554562 199.394532 
L 192.910991 199.51144 
L 193.26742 199.289249 
L 193.623849 198.682434 
L 193.980278 198.442019 
L 194.336708 198.830866 
L 194.693137 198.902204 
L 195.049566 199.545454 
L 195.405995 198.783194 
L 195.762424 199.212194 
L 196.118853 199.339883 
L 196.475283 199.203869 
L 197.54457 199.509267 
L 197.900999 199.13455 
L 198.257428 198.391454 
L 198.970287 198.943948 
L 199.326716 199.004452 
L 199.683145 199.538586 
L 200.039574 199.398895 
L 200.396003 199.388841 
L 201.465291 200.976201 
L 201.82172 200.653948 
L 202.178149 200.599931 
L 202.534578 200.699809 
L 202.891007 200.603087 
L 203.603866 201.361679 
L 204.316724 201.261033 
L 204.673153 200.52667 
L 205.029582 200.599694 
L 205.742441 200.453664 
L 206.09887 200.655221 
L 206.455299 200.102565 
L 206.811728 200.184203 
L 207.168157 200.457964 
L 207.524586 200.348812 
L 208.593874 200.69378 
L 208.950303 200.970054 
L 209.306732 201.094012 
L 210.37602 200.437741 
L 210.732449 200.329066 
L 211.445307 200.513724 
L 211.801736 200.68963 
L 212.158165 200.427693 
L 212.514595 200.558872 
L 212.871024 200.471116 
L 213.227453 201.011661 
L 213.583882 201.285011 
L 213.940311 201.126014 
L 214.29674 201.666372 
L 214.65317 201.734532 
L 215.366028 201.083126 
L 215.722457 200.624185 
L 216.078886 201.077768 
L 216.435315 201.016796 
L 216.791744 201.172348 
L 217.148174 200.743813 
L 217.861032 201.19944 
L 218.217461 200.768864 
L 218.57389 201.001357 
L 219.286749 200.742388 
L 219.643178 200.798201 
L 220.356036 200.320788 
L 220.712465 200.708419 
L 221.425324 200.783027 
L 221.781753 200.477893 
L 222.138182 200.919012 
L 222.494611 200.410809 
L 222.85104 200.736056 
L 223.207469 200.518336 
L 223.563898 200.782351 
L 223.920328 200.545607 
L 224.276757 200.503308 
L 224.989615 200.647878 
L 225.702473 200.508167 
L 226.058903 200.064601 
L 226.415332 200.336415 
L 227.12819 199.348546 
L 228.197477 199.011872 
L 228.553907 199.206155 
L 228.910336 198.743195 
L 229.623194 199.448649 
L 230.336052 198.870036 
L 230.692482 198.752182 
L 231.048911 199.362274 
L 231.40534 199.267151 
L 231.761769 199.596291 
L 232.118198 199.561247 
L 232.474627 199.969277 
L 232.831057 199.659206 
L 233.187486 199.931204 
L 233.543915 199.83236 
L 233.900344 199.521044 
L 234.256773 199.527156 
L 234.613202 199.280921 
L 234.969631 199.280473 
L 235.68249 199.004069 
L 236.038919 199.113939 
L 237.108206 198.00594 
L 237.464636 198.174401 
L 237.821065 198.512731 
L 238.177494 198.535966 
L 238.533923 198.285227 
L 239.246781 198.174035 
L 239.60321 197.89942 
L 240.672498 198.497924 
L 242.098215 198.139897 
L 242.811073 198.300924 
L 243.523931 197.772233 
L 243.88036 197.912724 
L 244.23679 198.299188 
L 244.949648 197.968675 
L 245.306077 198.082765 
L 245.662506 197.742216 
L 246.018935 197.873546 
L 246.731794 197.199469 
L 247.088223 197.369157 
L 247.444652 197.724089 
L 247.801081 197.567504 
L 248.15751 197.701301 
L 248.513939 198.012927 
L 248.870369 197.673571 
L 249.939656 197.864805 
L 250.296085 197.838477 
L 250.652514 197.954849 
L 251.721802 197.098782 
L 252.078231 196.901999 
L 253.860377 196.688811 
L 254.216806 196.914606 
L 254.573235 196.96318 
L 254.929664 196.819746 
L 255.642523 197.453647 
L 256.355381 197.170256 
L 257.068239 196.906501 
L 257.424668 196.933919 
L 258.137527 196.467353 
L 258.493956 196.331174 
L 258.850385 196.843901 
L 259.563243 197.244887 
L 259.919672 197.054845 
L 260.276102 197.363092 
L 260.632531 196.947893 
L 260.98896 196.8295 
L 261.345389 196.998584 
L 261.701818 196.659402 
L 262.414676 196.945404 
L 263.127535 196.896099 
L 263.483964 196.800485 
L 263.840393 197.018883 
L 264.553251 197.086462 
L 264.909681 196.92112 
L 265.622539 196.935631 
L 265.978968 196.535926 
L 267.404685 196.848201 
L 267.761114 196.844405 
L 268.117543 197.050056 
L 269.899689 197.319351 
L 270.256118 197.612236 
L 271.325405 197.54222 
L 272.038264 197.452629 
L 272.394693 197.404583 
L 272.751122 197.156791 
L 273.107551 197.201919 
L 273.46398 197.076467 
L 274.176839 197.144524 
L 274.889697 197.206171 
L 275.246126 196.922541 
L 275.602555 196.925403 
L 275.958984 196.743924 
L 276.315414 197.044752 
L 276.671843 196.786969 
L 277.028272 196.71255 
L 277.384701 196.991032 
L 277.74113 196.792958 
L 278.097559 196.429933 
L 278.453989 196.441758 
L 278.810418 196.076114 
L 279.523276 196.564643 
L 280.592563 196.877939 
L 280.948993 196.786092 
L 281.661851 197.01391 
L 282.01828 196.605808 
L 282.731138 196.243819 
L 283.087568 196.635752 
L 283.443997 196.707194 
L 283.800426 196.642961 
L 284.156855 196.71649 
L 284.513284 196.651718 
L 284.869713 196.418843 
L 285.582572 196.478169 
L 285.939001 196.812324 
L 286.29543 196.872818 
L 286.651859 196.658647 
L 287.364717 196.860428 
L 287.721147 196.874206 
L 288.077576 197.132985 
L 288.434005 197.199857 
L 288.790434 196.920044 
L 290.216151 196.735155 
L 290.57258 196.928183 
L 291.998296 196.828952 
L 292.711155 196.768368 
L 293.067584 196.594126 
L 293.424013 196.276053 
L 293.780442 196.652138 
L 295.562588 196.35893 
L 295.919017 196.477221 
L 296.631876 196.465592 
L 298.057592 196.906908 
L 298.414021 197.316203 
L 298.77045 197.447559 
L 299.483309 197.162686 
L 300.196167 197.15141 
L 300.552596 197.121866 
L 300.909025 196.926824 
L 301.621884 196.941241 
L 301.978313 196.675892 
L 302.334742 196.79711 
L 302.691171 196.618068 
L 303.0476 196.21575 
L 304.473317 196.936874 
L 304.829746 197.042974 
L 305.186175 197.315754 
L 305.542604 197.269665 
L 305.899034 197.084189 
L 306.255463 197.056448 
L 306.968321 197.390855 
L 307.32475 197.489189 
L 308.750467 197.197254 
L 309.106896 196.947215 
L 310.176183 197.048992 
L 310.889042 196.744426 
L 311.245471 196.487915 
L 311.6019 196.479395 
L 311.958329 196.610383 
L 312.671188 196.544384 
L 313.740475 196.673815 
L 314.096904 196.521167 
L 314.453333 196.22576 
L 315.166192 196.027158 
L 315.522621 196.355236 
L 316.235479 196.558683 
L 316.591908 196.603572 
L 317.304767 196.883361 
L 318.017625 196.904809 
L 318.374054 197.040328 
L 318.730483 197.048538 
L 319.086912 196.698983 
L 319.443342 196.665525 
L 319.799771 196.518273 
L 320.1562 196.234103 
L 320.869058 196.279059 
L 321.225487 196.140956 
L 321.581916 196.373618 
L 321.938346 196.147393 
L 322.294775 196.176379 
L 322.651204 196.005677 
L 323.007633 196.064978 
L 323.364062 195.873187 
L 323.720491 195.872308 
L 324.076921 195.726374 
L 325.146208 195.969649 
L 325.502637 196.171646 
L 325.859066 196.086499 
L 326.215495 196.345172 
L 326.571925 195.987891 
L 326.928354 195.950832 
L 327.284783 196.297131 
L 327.641212 196.179214 
L 327.997641 196.37618 
L 329.066929 196.30374 
L 329.779787 196.766412 
L 330.492645 196.499959 
L 330.849075 196.50509 
L 331.205504 196.34298 
L 331.918362 196.656636 
L 332.63122 196.60533 
L 332.987649 196.797796 
L 333.344079 197.142963 
L 334.413366 197.057302 
L 334.769795 196.858905 
L 335.126224 197.088519 
L 335.482654 197.13523 
L 337.264799 196.771217 
L 337.621229 196.858412 
L 338.690516 196.475625 
L 340.116233 195.978566 
L 340.472662 196.1952 
L 341.541949 196.288114 
L 341.898378 196.123841 
L 342.254808 196.21793 
L 343.680524 195.979063 
L 344.036953 195.944525 
L 344.749812 196.14666 
L 345.46267 195.94153 
L 345.819099 195.796483 
L 346.175528 195.898487 
L 347.957674 195.834384 
L 348.314103 196.123605 
L 349.73982 195.793146 
L 351.165536 196.009367 
L 351.878395 196.318229 
L 352.947682 195.976446 
L 353.304111 196.196669 
L 353.660541 196.151942 
L 354.01697 196.33542 
L 354.373399 196.380686 
L 355.086257 196.024569 
L 355.442686 196.137771 
L 355.799115 196.377641 
L 356.155545 196.1929 
L 356.868403 196.280016 
L 357.224832 196.373908 
L 357.581261 196.176459 
L 358.29412 196.428073 
L 358.650549 196.393526 
L 359.363407 196.694438 
L 360.076265 196.278484 
L 360.432695 196.236809 
L 361.145553 196.015146 
L 362.927699 196.230398 
L 363.284128 196.072508 
L 364.353415 196.213773 
L 364.709844 196.293667 
L 365.066274 196.539226 
L 366.135561 196.200179 
L 366.49199 196.442242 
L 366.848419 196.185395 
L 367.561278 196.227989 
L 367.917707 196.229485 
L 368.274136 196.494681 
L 369.343423 196.640385 
L 369.699853 196.74378 
L 370.056282 196.581687 
L 371.125569 196.598618 
L 371.838428 196.271108 
L 372.551286 196.384336 
L 372.907715 196.327982 
L 374.333432 196.771429 
L 375.04629 196.437997 
L 375.759148 196.775652 
L 376.115577 196.480644 
L 376.472007 196.502571 
L 377.184865 196.055226 
L 377.897723 196.242427 
L 378.254152 196.480151 
L 378.610581 196.571098 
L 378.967011 196.499594 
L 379.679869 196.054622 
L 380.036298 196.334589 
L 380.749156 196.394357 
L 381.818444 196.37602 
L 383.60059 196.720531 
L 384.313448 196.374946 
L 385.026306 196.577491 
L 385.382735 196.482835 
L 386.095594 196.576164 
L 386.452023 196.51156 
L 386.808452 196.591656 
L 388.234169 195.969652 
L 389.303456 196.198527 
L 390.372744 195.718755 
L 390.729173 195.899809 
L 391.442031 195.754929 
L 391.79846 195.560943 
L 392.511319 195.686349 
L 392.867748 195.438274 
L 393.224177 195.687377 
L 393.580606 195.516172 
L 395.006323 195.880285 
L 395.719181 195.773379 
L 396.07561 196.106192 
L 397.144898 196.337876 
L 398.214185 196.526592 
L 398.927043 196.340202 
L 399.283473 196.539078 
L 400.35276 196.756735 
L 400.709189 196.578467 
L 401.065618 196.250525 
L 402.134906 196.64788 
L 403.204193 196.551747 
L 403.560622 196.567931 
L 403.917052 196.722197 
L 404.273481 196.652542 
L 404.62991 196.429837 
L 404.986339 196.828059 
L 405.342768 197.000177 
L 406.412056 196.537665 
L 407.124914 196.730359 
L 407.837772 196.861009 
L 408.194201 196.94807 
L 408.90706 196.760292 
L 410.689206 197.107665 
L 411.045635 197.06324 
L 411.402064 197.177778 
L 413.897068 196.95152 
L 414.253497 197.064799 
L 414.609926 196.911659 
L 414.966355 197.143147 
L 415.679214 196.948833 
L 416.035643 196.837147 
L 416.392072 196.84192 
L 416.748501 197.107884 
L 417.46136 197.038234 
L 418.174218 197.074572 
L 418.887076 196.830627 
L 419.243505 196.985123 
L 419.599934 196.896022 
L 419.956364 197.167987 
L 419.956364 197.167987 
" style="fill:none;stroke:#1f77b4;stroke-linecap:square;stroke-width:1.5;"/>
   </g>
   <g id="patch_8">
    <path d="M 46.08 317.952 
L 46.08 188.928 
" style="fill:none;stroke:#000000;stroke-linecap:square;stroke-linejoin:miter;stroke-width:0.8;"/>
   </g>
   <g id="patch_9">
    <path d="M 437.76 317.952 
L 437.76 188.928 
" style="fill:none;stroke:#000000;stroke-linecap:square;stroke-linejoin:miter;stroke-width:0.8;"/>
   </g>
   <g id="patch_10">
    <path d="M 46.08 317.952 
L 437.76 317.952 
" style="fill:none;stroke:#000000;stroke-linecap:square;stroke-linejoin:miter;stroke-width:0.8;"/>
   </g>
   <g id="patch_11">
    <path d="M 46.08 188.928 
L 437.76 188.928 
" style="fill:none;stroke:#000000;stroke-linecap:square;stroke-linejoin:miter;stroke-width:0.8;"/>
   </g>
   <g id="text_29">
    <!-- Utilización promedio servidor D2 -->
    <g transform="translate(143.674688 182.928)scale(0.12 -0.12)">
     <use xlink:href="#DejaVuSans-85"/>
     <use x="73.193359" xlink:href="#DejaVuSans-116"/>
     <use x="112.402344" xlink:href="#DejaVuSans-105"/>
     <use x="140.185547" xlink:href="#DejaVuSans-108"/>
     <use x="167.96875" xlink:href="#DejaVuSans-105"/>
     <use x="195.751953" xlink:href="#DejaVuSans-122"/>
     <use x="248.242188" xlink:href="#DejaVuSans-97"/>
     <use x="309.521484" xlink:href="#DejaVuSans-99"/>
     <use x="364.501953" xlink:href="#DejaVuSans-105"/>
     <use x="392.285156" xlink:href="#DejaVuSans-243"/>
     <use x="453.466797" xlink:href="#DejaVuSans-110"/>
     <use x="516.845703" xlink:href="#DejaVuSans-32"/>
     <use x="548.632812" xlink:href="#DejaVuSans-112"/>
     <use x="612.109375" xlink:href="#DejaVuSans-114"/>
     <use x="653.191406" xlink:href="#DejaVuSans-111"/>
     <use x="714.373047" xlink:href="#DejaVuSans-109"/>
     <use x="811.785156" xlink:href="#DejaVuSans-101"/>
     <use x="873.308594" xlink:href="#DejaVuSans-100"/>
     <use x="936.785156" xlink:href="#DejaVuSans-105"/>
     <use x="964.568359" xlink:href="#DejaVuSans-111"/>
     <use x="1025.75" xlink:href="#DejaVuSans-32"/>
     <use x="1057.537109" xlink:href="#DejaVuSans-115"/>
     <use x="1109.636719" xlink:href="#DejaVuSans-101"/>
     <use x="1171.160156" xlink:href="#DejaVuSans-114"/>
     <use x="1212.273438" xlink:href="#DejaVuSans-118"/>
     <use x="1271.453125" xlink:href="#DejaVuSans-105"/>
     <use x="1299.236328" xlink:href="#DejaVuSans-100"/>
     <use x="1362.712891" xlink:href="#DejaVuSans-111"/>
     <use x="1423.894531" xlink:href="#DejaVuSans-114"/>
     <use x="1465.007812" xlink:href="#DejaVuSans-32"/>
     <use x="1496.794922" xlink:href="#DejaVuSans-68"/>
     <use x="1573.796875" xlink:href="#DejaVuSans-50"/>
    </g>
   </g>
  </g>
 </g>
 <defs>
  <clipPath id="p11439e2ba2">
   <rect height="129.024" width="391.68" x="46.08" y="27.648"/>
  </clipPath>
  <clipPath id="p91b4a74289">
   <rect height="129.024" width="391.68" x="46.08" y="188.928"/>
  </clipPath>
 </defs>
</svg>
