<?xml version="1.0" encoding="utf-8" standalone="no"?>
<!DOCTYPE svg PUBLIC "-//W3C//DTD SVG 1.1//EN"
  "http://www.w3.org/Graphics/SVG/1.1/DTD/svg11.dtd">
<!-- Created with matplotlib (https://matplotlib.org/) -->
<svg height="345.6pt" version="1.1" viewBox="0 0 460.8 345.6" width="460.8pt" xmlns="http://www.w3.org/2000/svg" xmlns:xlink="http://www.w3.org/1999/xlink">
 <defs>
  <style type="text/css">
*{stroke-linecap:butt;stroke-linejoin:round;}
  </style>
 </defs>
 <g id="figure_1">
  <g id="patch_1">
   <path d="M 0 345.6 
L 460.8 345.6 
L 460.8 0 
L 0 0 
z
" style="fill:#ffffff;"/>
  </g>
  <g id="axes_1">
   <g id="patch_2">
    <path d="M 46.08 156.672 
L 437.76 156.672 
L 437.76 27.648 
L 46.08 27.648 
z
" style="fill:#ffffff;"/>
   </g>
   <g id="matplotlib.axis_1">
    <g id="xtick_1">
     <g id="line2d_1">
      <path clip-path="url(#p599185d264)" d="M 63.527207 156.672 
L 63.527207 27.648 
" style="fill:none;stroke:#b0b0b0;stroke-linecap:square;stroke-width:0.8;"/>
     </g>
     <g id="line2d_2">
      <defs>
       <path d="M 0 0 
L 0 3.5 
" id="ma249b6af58" style="stroke:#000000;stroke-width:0.8;"/>
      </defs>
      <g>
       <use style="stroke:#000000;stroke-width:0.8;" x="63.527207" xlink:href="#ma249b6af58" y="156.672"/>
      </g>
     </g>
     <g id="text_1">
      <!-- 0 -->
      <defs>
       <path d="M 31.78125 66.40625 
Q 24.171875 66.40625 20.328125 58.90625 
Q 16.5 51.421875 16.5 36.375 
Q 16.5 21.390625 20.328125 13.890625 
Q 24.171875 6.390625 31.78125 6.390625 
Q 39.453125 6.390625 43.28125 13.890625 
Q 47.125 21.390625 47.125 36.375 
Q 47.125 51.421875 43.28125 58.90625 
Q 39.453125 66.40625 31.78125 66.40625 
z
M 31.78125 74.21875 
Q 44.046875 74.21875 50.515625 64.515625 
Q 56.984375 54.828125 56.984375 36.375 
Q 56.984375 17.96875 50.515625 8.265625 
Q 44.046875 -1.421875 31.78125 -1.421875 
Q 19.53125 -1.421875 13.0625 8.265625 
Q 6.59375 17.96875 6.59375 36.375 
Q 6.59375 54.828125 13.0625 64.515625 
Q 19.53125 74.21875 31.78125 74.21875 
z
" id="DejaVuSans-48"/>
      </defs>
      <g transform="translate(60.345957 171.270437)scale(0.1 -0.1)">
       <use xlink:href="#DejaVuSans-48"/>
      </g>
     </g>
    </g>
    <g id="xtick_2">
     <g id="line2d_3">
      <path clip-path="url(#p599185d264)" d="M 134.813038 156.672 
L 134.813038 27.648 
" style="fill:none;stroke:#b0b0b0;stroke-linecap:square;stroke-width:0.8;"/>
     </g>
     <g id="line2d_4">
      <g>
       <use style="stroke:#000000;stroke-width:0.8;" x="134.813038" xlink:href="#ma249b6af58" y="156.672"/>
      </g>
     </g>
     <g id="text_2">
      <!-- 200 -->
      <defs>
       <path d="M 19.1875 8.296875 
L 53.609375 8.296875 
L 53.609375 0 
L 7.328125 0 
L 7.328125 8.296875 
Q 12.9375 14.109375 22.625 23.890625 
Q 32.328125 33.6875 34.8125 36.53125 
Q 39.546875 41.84375 41.421875 45.53125 
Q 43.3125 49.21875 43.3125 52.78125 
Q 43.3125 58.59375 39.234375 62.25 
Q 35.15625 65.921875 28.609375 65.921875 
Q 23.96875 65.921875 18.8125 64.3125 
Q 13.671875 62.703125 7.8125 59.421875 
L 7.8125 69.390625 
Q 13.765625 71.78125 18.9375 73 
Q 24.125 74.21875 28.421875 74.21875 
Q 39.75 74.21875 46.484375 68.546875 
Q 53.21875 62.890625 53.21875 53.421875 
Q 53.21875 48.921875 51.53125 44.890625 
Q 49.859375 40.875 45.40625 35.40625 
Q 44.1875 33.984375 37.640625 27.21875 
Q 31.109375 20.453125 19.1875 8.296875 
z
" id="DejaVuSans-50"/>
      </defs>
      <g transform="translate(125.269288 171.270437)scale(0.1 -0.1)">
       <use xlink:href="#DejaVuSans-50"/>
       <use x="63.623047" xlink:href="#DejaVuSans-48"/>
       <use x="127.246094" xlink:href="#DejaVuSans-48"/>
      </g>
     </g>
    </g>
    <g id="xtick_3">
     <g id="line2d_5">
      <path clip-path="url(#p599185d264)" d="M 206.09887 156.672 
L 206.09887 27.648 
" style="fill:none;stroke:#b0b0b0;stroke-linecap:square;stroke-width:0.8;"/>
     </g>
     <g id="line2d_6">
      <g>
       <use style="stroke:#000000;stroke-width:0.8;" x="206.09887" xlink:href="#ma249b6af58" y="156.672"/>
      </g>
     </g>
     <g id="text_3">
      <!-- 400 -->
      <defs>
       <path d="M 37.796875 64.3125 
L 12.890625 25.390625 
L 37.796875 25.390625 
z
M 35.203125 72.90625 
L 47.609375 72.90625 
L 47.609375 25.390625 
L 58.015625 25.390625 
L 58.015625 17.1875 
L 47.609375 17.1875 
L 47.609375 0 
L 37.796875 0 
L 37.796875 17.1875 
L 4.890625 17.1875 
L 4.890625 26.703125 
z
" id="DejaVuSans-52"/>
      </defs>
      <g transform="translate(196.55512 171.270437)scale(0.1 -0.1)">
       <use xlink:href="#DejaVuSans-52"/>
       <use x="63.623047" xlink:href="#DejaVuSans-48"/>
       <use x="127.246094" xlink:href="#DejaVuSans-48"/>
      </g>
     </g>
    </g>
    <g id="xtick_4">
     <g id="line2d_7">
      <path clip-path="url(#p599185d264)" d="M 277.384701 156.672 
L 277.384701 27.648 
" style="fill:none;stroke:#b0b0b0;stroke-linecap:square;stroke-width:0.8;"/>
     </g>
     <g id="line2d_8">
      <g>
       <use style="stroke:#000000;stroke-width:0.8;" x="277.384701" xlink:href="#ma249b6af58" y="156.672"/>
      </g>
     </g>
     <g id="text_4">
      <!-- 600 -->
      <defs>
       <path d="M 33.015625 40.375 
Q 26.375 40.375 22.484375 35.828125 
Q 18.609375 31.296875 18.609375 23.390625 
Q 18.609375 15.53125 22.484375 10.953125 
Q 26.375 6.390625 33.015625 6.390625 
Q 39.65625 6.390625 43.53125 10.953125 
Q 47.40625 15.53125 47.40625 23.390625 
Q 47.40625 31.296875 43.53125 35.828125 
Q 39.65625 40.375 33.015625 40.375 
z
M 52.59375 71.296875 
L 52.59375 62.3125 
Q 48.875 64.0625 45.09375 64.984375 
Q 41.3125 65.921875 37.59375 65.921875 
Q 27.828125 65.921875 22.671875 59.328125 
Q 17.53125 52.734375 16.796875 39.40625 
Q 19.671875 43.65625 24.015625 45.921875 
Q 28.375 48.1875 33.59375 48.1875 
Q 44.578125 48.1875 50.953125 41.515625 
Q 57.328125 34.859375 57.328125 23.390625 
Q 57.328125 12.15625 50.6875 5.359375 
Q 44.046875 -1.421875 33.015625 -1.421875 
Q 20.359375 -1.421875 13.671875 8.265625 
Q 6.984375 17.96875 6.984375 36.375 
Q 6.984375 53.65625 15.1875 63.9375 
Q 23.390625 74.21875 37.203125 74.21875 
Q 40.921875 74.21875 44.703125 73.484375 
Q 48.484375 72.75 52.59375 71.296875 
z
" id="DejaVuSans-54"/>
      </defs>
      <g transform="translate(267.840951 171.270437)scale(0.1 -0.1)">
       <use xlink:href="#DejaVuSans-54"/>
       <use x="63.623047" xlink:href="#DejaVuSans-48"/>
       <use x="127.246094" xlink:href="#DejaVuSans-48"/>
      </g>
     </g>
    </g>
    <g id="xtick_5">
     <g id="line2d_9">
      <path clip-path="url(#p599185d264)" d="M 348.670532 156.672 
L 348.670532 27.648 
" style="fill:none;stroke:#b0b0b0;stroke-linecap:square;stroke-width:0.8;"/>
     </g>
     <g id="line2d_10">
      <g>
       <use style="stroke:#000000;stroke-width:0.8;" x="348.670532" xlink:href="#ma249b6af58" y="156.672"/>
      </g>
     </g>
     <g id="text_5">
      <!-- 800 -->
      <defs>
       <path d="M 31.78125 34.625 
Q 24.75 34.625 20.71875 30.859375 
Q 16.703125 27.09375 16.703125 20.515625 
Q 16.703125 13.921875 20.71875 10.15625 
Q 24.75 6.390625 31.78125 6.390625 
Q 38.8125 6.390625 42.859375 10.171875 
Q 46.921875 13.96875 46.921875 20.515625 
Q 46.921875 27.09375 42.890625 30.859375 
Q 38.875 34.625 31.78125 34.625 
z
M 21.921875 38.8125 
Q 15.578125 40.375 12.03125 44.71875 
Q 8.5 49.078125 8.5 55.328125 
Q 8.5 64.0625 14.71875 69.140625 
Q 20.953125 74.21875 31.78125 74.21875 
Q 42.671875 74.21875 48.875 69.140625 
Q 55.078125 64.0625 55.078125 55.328125 
Q 55.078125 49.078125 51.53125 44.71875 
Q 48 40.375 41.703125 38.8125 
Q 48.828125 37.15625 52.796875 32.3125 
Q 56.78125 27.484375 56.78125 20.515625 
Q 56.78125 9.90625 50.3125 4.234375 
Q 43.84375 -1.421875 31.78125 -1.421875 
Q 19.734375 -1.421875 13.25 4.234375 
Q 6.78125 9.90625 6.78125 20.515625 
Q 6.78125 27.484375 10.78125 32.3125 
Q 14.796875 37.15625 21.921875 38.8125 
z
M 18.3125 54.390625 
Q 18.3125 48.734375 21.84375 45.5625 
Q 25.390625 42.390625 31.78125 42.390625 
Q 38.140625 42.390625 41.71875 45.5625 
Q 45.3125 48.734375 45.3125 54.390625 
Q 45.3125 60.0625 41.71875 63.234375 
Q 38.140625 66.40625 31.78125 66.40625 
Q 25.390625 66.40625 21.84375 63.234375 
Q 18.3125 60.0625 18.3125 54.390625 
z
" id="DejaVuSans-56"/>
      </defs>
      <g transform="translate(339.126782 171.270437)scale(0.1 -0.1)">
       <use xlink:href="#DejaVuSans-56"/>
       <use x="63.623047" xlink:href="#DejaVuSans-48"/>
       <use x="127.246094" xlink:href="#DejaVuSans-48"/>
      </g>
     </g>
    </g>
    <g id="xtick_6">
     <g id="line2d_11">
      <path clip-path="url(#p599185d264)" d="M 419.956364 156.672 
L 419.956364 27.648 
" style="fill:none;stroke:#b0b0b0;stroke-linecap:square;stroke-width:0.8;"/>
     </g>
     <g id="line2d_12">
      <g>
       <use style="stroke:#000000;stroke-width:0.8;" x="419.956364" xlink:href="#ma249b6af58" y="156.672"/>
      </g>
     </g>
     <g id="text_6">
      <!-- 1000 -->
      <defs>
       <path d="M 12.40625 8.296875 
L 28.515625 8.296875 
L 28.515625 63.921875 
L 10.984375 60.40625 
L 10.984375 69.390625 
L 28.421875 72.90625 
L 38.28125 72.90625 
L 38.28125 8.296875 
L 54.390625 8.296875 
L 54.390625 0 
L 12.40625 0 
z
" id="DejaVuSans-49"/>
      </defs>
      <g transform="translate(407.231364 171.270437)scale(0.1 -0.1)">
       <use xlink:href="#DejaVuSans-49"/>
       <use x="63.623047" xlink:href="#DejaVuSans-48"/>
       <use x="127.246094" xlink:href="#DejaVuSans-48"/>
       <use x="190.869141" xlink:href="#DejaVuSans-48"/>
      </g>
     </g>
    </g>
    <g id="text_7">
     <!-- Corridas -->
     <defs>
      <path d="M 64.40625 67.28125 
L 64.40625 56.890625 
Q 59.421875 61.53125 53.78125 63.8125 
Q 48.140625 66.109375 41.796875 66.109375 
Q 29.296875 66.109375 22.65625 58.46875 
Q 16.015625 50.828125 16.015625 36.375 
Q 16.015625 21.96875 22.65625 14.328125 
Q 29.296875 6.6875 41.796875 6.6875 
Q 48.140625 6.6875 53.78125 8.984375 
Q 59.421875 11.28125 64.40625 15.921875 
L 64.40625 5.609375 
Q 59.234375 2.09375 53.4375 0.328125 
Q 47.65625 -1.421875 41.21875 -1.421875 
Q 24.65625 -1.421875 15.125 8.703125 
Q 5.609375 18.84375 5.609375 36.375 
Q 5.609375 53.953125 15.125 64.078125 
Q 24.65625 74.21875 41.21875 74.21875 
Q 47.75 74.21875 53.53125 72.484375 
Q 59.328125 70.75 64.40625 67.28125 
z
" id="DejaVuSans-67"/>
      <path d="M 30.609375 48.390625 
Q 23.390625 48.390625 19.1875 42.75 
Q 14.984375 37.109375 14.984375 27.296875 
Q 14.984375 17.484375 19.15625 11.84375 
Q 23.34375 6.203125 30.609375 6.203125 
Q 37.796875 6.203125 41.984375 11.859375 
Q 46.1875 17.53125 46.1875 27.296875 
Q 46.1875 37.015625 41.984375 42.703125 
Q 37.796875 48.390625 30.609375 48.390625 
z
M 30.609375 56 
Q 42.328125 56 49.015625 48.375 
Q 55.71875 40.765625 55.71875 27.296875 
Q 55.71875 13.875 49.015625 6.21875 
Q 42.328125 -1.421875 30.609375 -1.421875 
Q 18.84375 -1.421875 12.171875 6.21875 
Q 5.515625 13.875 5.515625 27.296875 
Q 5.515625 40.765625 12.171875 48.375 
Q 18.84375 56 30.609375 56 
z
" id="DejaVuSans-111"/>
      <path d="M 41.109375 46.296875 
Q 39.59375 47.171875 37.8125 47.578125 
Q 36.03125 48 33.890625 48 
Q 26.265625 48 22.1875 43.046875 
Q 18.109375 38.09375 18.109375 28.8125 
L 18.109375 0 
L 9.078125 0 
L 9.078125 54.6875 
L 18.109375 54.6875 
L 18.109375 46.1875 
Q 20.953125 51.171875 25.484375 53.578125 
Q 30.03125 56 36.53125 56 
Q 37.453125 56 38.578125 55.875 
Q 39.703125 55.765625 41.0625 55.515625 
z
" id="DejaVuSans-114"/>
      <path d="M 9.421875 54.6875 
L 18.40625 54.6875 
L 18.40625 0 
L 9.421875 0 
z
M 9.421875 75.984375 
L 18.40625 75.984375 
L 18.40625 64.59375 
L 9.421875 64.59375 
z
" id="DejaVuSans-105"/>
      <path d="M 45.40625 46.390625 
L 45.40625 75.984375 
L 54.390625 75.984375 
L 54.390625 0 
L 45.40625 0 
L 45.40625 8.203125 
Q 42.578125 3.328125 38.25 0.953125 
Q 33.9375 -1.421875 27.875 -1.421875 
Q 17.96875 -1.421875 11.734375 6.484375 
Q 5.515625 14.40625 5.515625 27.296875 
Q 5.515625 40.1875 11.734375 48.09375 
Q 17.96875 56 27.875 56 
Q 33.9375 56 38.25 53.625 
Q 42.578125 51.265625 45.40625 46.390625 
z
M 14.796875 27.296875 
Q 14.796875 17.390625 18.875 11.75 
Q 22.953125 6.109375 30.078125 6.109375 
Q 37.203125 6.109375 41.296875 11.75 
Q 45.40625 17.390625 45.40625 27.296875 
Q 45.40625 37.203125 41.296875 42.84375 
Q 37.203125 48.484375 30.078125 48.484375 
Q 22.953125 48.484375 18.875 42.84375 
Q 14.796875 37.203125 14.796875 27.296875 
z
" id="DejaVuSans-100"/>
      <path d="M 34.28125 27.484375 
Q 23.390625 27.484375 19.1875 25 
Q 14.984375 22.515625 14.984375 16.5 
Q 14.984375 11.71875 18.140625 8.90625 
Q 21.296875 6.109375 26.703125 6.109375 
Q 34.1875 6.109375 38.703125 11.40625 
Q 43.21875 16.703125 43.21875 25.484375 
L 43.21875 27.484375 
z
M 52.203125 31.203125 
L 52.203125 0 
L 43.21875 0 
L 43.21875 8.296875 
Q 40.140625 3.328125 35.546875 0.953125 
Q 30.953125 -1.421875 24.3125 -1.421875 
Q 15.921875 -1.421875 10.953125 3.296875 
Q 6 8.015625 6 15.921875 
Q 6 25.140625 12.171875 29.828125 
Q 18.359375 34.515625 30.609375 34.515625 
L 43.21875 34.515625 
L 43.21875 35.40625 
Q 43.21875 41.609375 39.140625 45 
Q 35.0625 48.390625 27.6875 48.390625 
Q 23 48.390625 18.546875 47.265625 
Q 14.109375 46.140625 10.015625 43.890625 
L 10.015625 52.203125 
Q 14.9375 54.109375 19.578125 55.046875 
Q 24.21875 56 28.609375 56 
Q 40.484375 56 46.34375 49.84375 
Q 52.203125 43.703125 52.203125 31.203125 
z
" id="DejaVuSans-97"/>
      <path d="M 44.28125 53.078125 
L 44.28125 44.578125 
Q 40.484375 46.53125 36.375 47.5 
Q 32.28125 48.484375 27.875 48.484375 
Q 21.1875 48.484375 17.84375 46.4375 
Q 14.5 44.390625 14.5 40.28125 
Q 14.5 37.15625 16.890625 35.375 
Q 19.28125 33.59375 26.515625 31.984375 
L 29.59375 31.296875 
Q 39.15625 29.25 43.1875 25.515625 
Q 47.21875 21.78125 47.21875 15.09375 
Q 47.21875 7.46875 41.1875 3.015625 
Q 35.15625 -1.421875 24.609375 -1.421875 
Q 20.21875 -1.421875 15.453125 -0.5625 
Q 10.6875 0.296875 5.421875 2 
L 5.421875 11.28125 
Q 10.40625 8.6875 15.234375 7.390625 
Q 20.0625 6.109375 24.8125 6.109375 
Q 31.15625 6.109375 34.5625 8.28125 
Q 37.984375 10.453125 37.984375 14.40625 
Q 37.984375 18.0625 35.515625 20.015625 
Q 33.0625 21.96875 24.703125 23.78125 
L 21.578125 24.515625 
Q 13.234375 26.265625 9.515625 29.90625 
Q 5.8125 33.546875 5.8125 39.890625 
Q 5.8125 47.609375 11.28125 51.796875 
Q 16.75 56 26.8125 56 
Q 31.78125 56 36.171875 55.265625 
Q 40.578125 54.546875 44.28125 53.078125 
z
" id="DejaVuSans-115"/>
     </defs>
     <g transform="translate(221.027031 184.948562)scale(0.1 -0.1)">
      <use xlink:href="#DejaVuSans-67"/>
      <use x="69.824219" xlink:href="#DejaVuSans-111"/>
      <use x="131.005859" xlink:href="#DejaVuSans-114"/>
      <use x="172.103516" xlink:href="#DejaVuSans-114"/>
      <use x="213.216797" xlink:href="#DejaVuSans-105"/>
      <use x="241" xlink:href="#DejaVuSans-100"/>
      <use x="304.476562" xlink:href="#DejaVuSans-97"/>
      <use x="365.755859" xlink:href="#DejaVuSans-115"/>
     </g>
    </g>
   </g>
   <g id="matplotlib.axis_2">
    <g id="ytick_1">
     <g id="line2d_13">
      <path clip-path="url(#p599185d264)" d="M 46.08 139.063405 
L 437.76 139.063405 
" style="fill:none;stroke:#b0b0b0;stroke-linecap:square;stroke-width:0.8;"/>
     </g>
     <g id="line2d_14">
      <defs>
       <path d="M 0 0 
L -3.5 0 
" id="m31066c7284" style="stroke:#000000;stroke-width:0.8;"/>
      </defs>
      <g>
       <use style="stroke:#000000;stroke-width:0.8;" x="46.08" xlink:href="#m31066c7284" y="139.063405"/>
      </g>
     </g>
     <g id="text_8">
      <!-- 0.070 -->
      <defs>
       <path d="M 10.6875 12.40625 
L 21 12.40625 
L 21 0 
L 10.6875 0 
z
" id="DejaVuSans-46"/>
       <path d="M 8.203125 72.90625 
L 55.078125 72.90625 
L 55.078125 68.703125 
L 28.609375 0 
L 18.3125 0 
L 43.21875 64.59375 
L 8.203125 64.59375 
z
" id="DejaVuSans-55"/>
      </defs>
      <g transform="translate(10.451875 142.862623)scale(0.1 -0.1)">
       <use xlink:href="#DejaVuSans-48"/>
       <use x="63.623047" xlink:href="#DejaVuSans-46"/>
       <use x="95.410156" xlink:href="#DejaVuSans-48"/>
       <use x="159.033203" xlink:href="#DejaVuSans-55"/>
       <use x="222.65625" xlink:href="#DejaVuSans-48"/>
      </g>
     </g>
    </g>
    <g id="ytick_2">
     <g id="line2d_15">
      <path clip-path="url(#p599185d264)" d="M 46.08 105.076367 
L 437.76 105.076367 
" style="fill:none;stroke:#b0b0b0;stroke-linecap:square;stroke-width:0.8;"/>
     </g>
     <g id="line2d_16">
      <g>
       <use style="stroke:#000000;stroke-width:0.8;" x="46.08" xlink:href="#m31066c7284" y="105.076367"/>
      </g>
     </g>
     <g id="text_9">
      <!-- 0.075 -->
      <defs>
       <path d="M 10.796875 72.90625 
L 49.515625 72.90625 
L 49.515625 64.59375 
L 19.828125 64.59375 
L 19.828125 46.734375 
Q 21.96875 47.46875 24.109375 47.828125 
Q 26.265625 48.1875 28.421875 48.1875 
Q 40.625 48.1875 47.75 41.5 
Q 54.890625 34.8125 54.890625 23.390625 
Q 54.890625 11.625 47.5625 5.09375 
Q 40.234375 -1.421875 26.90625 -1.421875 
Q 22.3125 -1.421875 17.546875 -0.640625 
Q 12.796875 0.140625 7.71875 1.703125 
L 7.71875 11.625 
Q 12.109375 9.234375 16.796875 8.0625 
Q 21.484375 6.890625 26.703125 6.890625 
Q 35.15625 6.890625 40.078125 11.328125 
Q 45.015625 15.765625 45.015625 23.390625 
Q 45.015625 31 40.078125 35.4375 
Q 35.15625 39.890625 26.703125 39.890625 
Q 22.75 39.890625 18.8125 39.015625 
Q 14.890625 38.140625 10.796875 36.28125 
z
" id="DejaVuSans-53"/>
      </defs>
      <g transform="translate(10.451875 108.875586)scale(0.1 -0.1)">
       <use xlink:href="#DejaVuSans-48"/>
       <use x="63.623047" xlink:href="#DejaVuSans-46"/>
       <use x="95.410156" xlink:href="#DejaVuSans-48"/>
       <use x="159.033203" xlink:href="#DejaVuSans-55"/>
       <use x="222.65625" xlink:href="#DejaVuSans-53"/>
      </g>
     </g>
    </g>
    <g id="ytick_3">
     <g id="line2d_17">
      <path clip-path="url(#p599185d264)" d="M 46.08 71.08933 
L 437.76 71.08933 
" style="fill:none;stroke:#b0b0b0;stroke-linecap:square;stroke-width:0.8;"/>
     </g>
     <g id="line2d_18">
      <g>
       <use style="stroke:#000000;stroke-width:0.8;" x="46.08" xlink:href="#m31066c7284" y="71.08933"/>
      </g>
     </g>
     <g id="text_10">
      <!-- 0.080 -->
      <g transform="translate(10.451875 74.888549)scale(0.1 -0.1)">
       <use xlink:href="#DejaVuSans-48"/>
       <use x="63.623047" xlink:href="#DejaVuSans-46"/>
       <use x="95.410156" xlink:href="#DejaVuSans-48"/>
       <use x="159.033203" xlink:href="#DejaVuSans-56"/>
       <use x="222.65625" xlink:href="#DejaVuSans-48"/>
      </g>
     </g>
    </g>
    <g id="ytick_4">
     <g id="line2d_19">
      <path clip-path="url(#p599185d264)" d="M 46.08 37.102293 
L 437.76 37.102293 
" style="fill:none;stroke:#b0b0b0;stroke-linecap:square;stroke-width:0.8;"/>
     </g>
     <g id="line2d_20">
      <g>
       <use style="stroke:#000000;stroke-width:0.8;" x="46.08" xlink:href="#m31066c7284" y="37.102293"/>
      </g>
     </g>
     <g id="text_11">
      <!-- 0.085 -->
      <g transform="translate(10.451875 40.901512)scale(0.1 -0.1)">
       <use xlink:href="#DejaVuSans-48"/>
       <use x="63.623047" xlink:href="#DejaVuSans-46"/>
       <use x="95.410156" xlink:href="#DejaVuSans-48"/>
       <use x="159.033203" xlink:href="#DejaVuSans-56"/>
       <use x="222.65625" xlink:href="#DejaVuSans-53"/>
      </g>
     </g>
    </g>
    <g id="text_12">
     <!-- Demora -->
     <defs>
      <path d="M 19.671875 64.796875 
L 19.671875 8.109375 
L 31.59375 8.109375 
Q 46.6875 8.109375 53.6875 14.9375 
Q 60.6875 21.78125 60.6875 36.53125 
Q 60.6875 51.171875 53.6875 57.984375 
Q 46.6875 64.796875 31.59375 64.796875 
z
M 9.8125 72.90625 
L 30.078125 72.90625 
Q 51.265625 72.90625 61.171875 64.09375 
Q 71.09375 55.28125 71.09375 36.53125 
Q 71.09375 17.671875 61.125 8.828125 
Q 51.171875 0 30.078125 0 
L 9.8125 0 
z
" id="DejaVuSans-68"/>
      <path d="M 56.203125 29.59375 
L 56.203125 25.203125 
L 14.890625 25.203125 
Q 15.484375 15.921875 20.484375 11.0625 
Q 25.484375 6.203125 34.421875 6.203125 
Q 39.59375 6.203125 44.453125 7.46875 
Q 49.3125 8.734375 54.109375 11.28125 
L 54.109375 2.78125 
Q 49.265625 0.734375 44.1875 -0.34375 
Q 39.109375 -1.421875 33.890625 -1.421875 
Q 20.796875 -1.421875 13.15625 6.1875 
Q 5.515625 13.8125 5.515625 26.8125 
Q 5.515625 40.234375 12.765625 48.109375 
Q 20.015625 56 32.328125 56 
Q 43.359375 56 49.78125 48.890625 
Q 56.203125 41.796875 56.203125 29.59375 
z
M 47.21875 32.234375 
Q 47.125 39.59375 43.09375 43.984375 
Q 39.0625 48.390625 32.421875 48.390625 
Q 24.90625 48.390625 20.390625 44.140625 
Q 15.875 39.890625 15.1875 32.171875 
z
" id="DejaVuSans-101"/>
      <path d="M 52 44.1875 
Q 55.375 50.25 60.0625 53.125 
Q 64.75 56 71.09375 56 
Q 79.640625 56 84.28125 50.015625 
Q 88.921875 44.046875 88.921875 33.015625 
L 88.921875 0 
L 79.890625 0 
L 79.890625 32.71875 
Q 79.890625 40.578125 77.09375 44.375 
Q 74.3125 48.1875 68.609375 48.1875 
Q 61.625 48.1875 57.5625 43.546875 
Q 53.515625 38.921875 53.515625 30.90625 
L 53.515625 0 
L 44.484375 0 
L 44.484375 32.71875 
Q 44.484375 40.625 41.703125 44.40625 
Q 38.921875 48.1875 33.109375 48.1875 
Q 26.21875 48.1875 22.15625 43.53125 
Q 18.109375 38.875 18.109375 30.90625 
L 18.109375 0 
L 9.078125 0 
L 9.078125 54.6875 
L 18.109375 54.6875 
L 18.109375 46.1875 
Q 21.1875 51.21875 25.484375 53.609375 
Q 29.78125 56 35.6875 56 
Q 41.65625 56 45.828125 52.96875 
Q 50 49.953125 52 44.1875 
z
" id="DejaVuSans-109"/>
     </defs>
     <g transform="translate(4.372188 112.135781)rotate(-90)scale(0.1 -0.1)">
      <use xlink:href="#DejaVuSans-68"/>
      <use x="77.001953" xlink:href="#DejaVuSans-101"/>
      <use x="138.525391" xlink:href="#DejaVuSans-109"/>
      <use x="235.9375" xlink:href="#DejaVuSans-111"/>
      <use x="297.119141" xlink:href="#DejaVuSans-114"/>
      <use x="338.232422" xlink:href="#DejaVuSans-97"/>
     </g>
    </g>
   </g>
   <g id="line2d_21">
    <path clip-path="url(#p599185d264)" d="M 63.883636 100.795166 
L 64.240066 150.807273 
L 64.596495 83.42517 
L 65.665782 33.512727 
L 66.022211 45.904335 
L 66.37864 51.980203 
L 67.091499 79.093528 
L 67.447928 74.136795 
L 67.804357 81.15519 
L 68.160786 82.403862 
L 68.517215 88.551847 
L 68.873645 88.193749 
L 69.230074 87.040807 
L 69.586503 87.230028 
L 69.942932 82.937641 
L 70.65579 66.754845 
L 71.012219 65.777572 
L 71.368649 65.65748 
L 71.725078 71.193278 
L 72.081507 72.220721 
L 72.437936 72.697831 
L 72.794365 66.473944 
L 73.150794 63.584004 
L 73.507224 67.844575 
L 73.863653 65.760849 
L 74.220082 62.850416 
L 74.576511 64.01379 
L 74.93294 64.728778 
L 75.289369 67.22789 
L 75.645799 67.65 
L 76.002228 65.261905 
L 76.358657 63.669051 
L 76.715086 59.138098 
L 77.071515 59.497714 
L 77.427944 55.247405 
L 77.784373 54.145583 
L 78.140803 54.451043 
L 78.853661 51.99759 
L 79.21009 52.901856 
L 79.566519 52.843755 
L 79.922948 53.88783 
L 80.279378 53.757416 
L 80.992236 55.613344 
L 81.348665 55.306674 
L 81.705094 55.673669 
L 82.061523 56.27335 
L 82.417952 55.849415 
L 82.774382 55.976899 
L 83.130811 58.221731 
L 83.48724 56.669426 
L 83.843669 53.80734 
L 84.200098 53.297237 
L 84.556527 54.208336 
L 84.912957 55.693664 
L 85.269386 51.221401 
L 85.625815 50.691726 
L 85.982244 51.340129 
L 86.338673 52.408957 
L 86.695102 52.487285 
L 87.051532 52.903201 
L 87.407961 53.57137 
L 87.76439 53.527346 
L 88.120819 54.247747 
L 88.477248 52.688914 
L 88.833677 52.513019 
L 89.190106 53.923836 
L 89.546536 51.591462 
L 89.902965 50.147229 
L 90.259394 50.014156 
L 90.615823 50.871443 
L 90.972252 49.330368 
L 91.328681 49.289647 
L 91.685111 45.6647 
L 92.04154 45.184231 
L 92.397969 47.08889 
L 93.467256 47.633234 
L 93.823686 48.500069 
L 94.180115 48.24507 
L 94.892973 51.437329 
L 95.249402 51.931352 
L 95.605831 51.295574 
L 95.96226 51.19873 
L 96.31869 49.380326 
L 96.675119 49.866228 
L 97.031548 49.73899 
L 97.387977 50.622503 
L 97.744406 49.884474 
L 98.100835 50.959299 
L 98.457265 50.607406 
L 98.813694 49.825834 
L 99.170123 49.64375 
L 99.526552 51.010166 
L 99.882981 50.789713 
L 100.23941 50.849077 
L 100.952269 51.339229 
L 101.308698 50.823044 
L 102.021556 52.365178 
L 102.377985 52.448937 
L 102.734414 51.138033 
L 103.090844 52.140859 
L 103.447273 51.793534 
L 103.803702 52.109729 
L 104.160131 50.726497 
L 104.51656 50.527836 
L 104.872989 49.446226 
L 105.229419 49.035365 
L 105.585848 49.442764 
L 105.942277 47.680177 
L 106.298706 48.137243 
L 106.655135 48.354755 
L 107.011564 48.938562 
L 107.367993 49.28848 
L 107.724423 49.854342 
L 108.080852 49.753381 
L 108.437281 50.295007 
L 108.79371 48.308944 
L 109.150139 47.998106 
L 109.862998 47.733478 
L 110.219427 48.312881 
L 110.575856 49.472307 
L 110.932285 49.93941 
L 111.288714 49.047944 
L 111.645143 48.759016 
L 112.001572 50.066029 
L 112.358002 50.678546 
L 112.714431 50.704982 
L 113.07086 50.588819 
L 113.427289 49.710512 
L 113.783718 49.637003 
L 114.496577 50.769947 
L 114.853006 51.37585 
L 115.209435 51.349427 
L 115.565864 51.046668 
L 115.922293 50.447571 
L 116.278722 50.379483 
L 116.635152 49.790583 
L 116.991581 49.447612 
L 117.34801 48.822757 
L 117.704439 49.170098 
L 118.060868 49.361592 
L 118.417297 50.109672 
L 118.773726 48.396336 
L 119.130156 48.569488 
L 119.486585 49.350427 
L 119.843014 47.96732 
L 120.199443 48.221199 
L 120.555872 48.336433 
L 120.912301 48.249792 
L 121.268731 48.836647 
L 121.62516 48.963873 
L 121.981589 49.383487 
L 122.338018 48.966685 
L 122.694447 49.027766 
L 123.407305 47.879108 
L 123.763735 48.042044 
L 124.120164 47.42063 
L 124.476593 47.439163 
L 124.833022 47.024866 
L 125.189451 47.422302 
L 125.54588 47.999393 
L 125.90231 47.020112 
L 126.258739 46.618456 
L 126.615168 46.802803 
L 126.971597 46.510518 
L 127.328026 45.865272 
L 127.684455 46.396926 
L 128.040885 46.476148 
L 128.753743 47.752569 
L 129.110172 47.670495 
L 129.466601 47.148474 
L 129.82303 47.621813 
L 130.179459 47.592543 
L 130.535889 47.712219 
L 130.892318 47.517499 
L 131.248747 47.656918 
L 131.605176 47.673254 
L 131.961605 48.120402 
L 133.387322 48.560049 
L 133.743751 48.107011 
L 134.10018 48.069141 
L 134.456609 47.501628 
L 135.169468 47.340556 
L 135.525897 47.31463 
L 135.882326 47.432205 
L 136.238755 47.376797 
L 136.595184 47.540849 
L 136.951613 47.24087 
L 137.308043 47.103502 
L 137.664472 47.431015 
L 138.020901 46.898032 
L 138.37733 46.804432 
L 138.733759 47.061788 
L 139.446618 47.027993 
L 139.803047 47.484503 
L 140.159476 47.440322 
L 140.872334 47.748045 
L 141.585192 47.802721 
L 141.941622 48.155259 
L 142.298051 48.226906 
L 142.65448 48.515242 
L 143.010909 47.952711 
L 143.723767 48.327816 
L 144.080197 48.199648 
L 144.436626 48.41029 
L 144.793055 48.214696 
L 145.505913 48.136498 
L 145.862342 48.500601 
L 146.218771 48.299549 
L 146.575201 48.362914 
L 146.93163 48.022499 
L 147.288059 48.543408 
L 148.357346 48.370058 
L 148.713776 47.90114 
L 149.070205 47.01051 
L 149.426634 47.100125 
L 149.783063 46.758471 
L 150.139492 47.215498 
L 150.495921 47.086362 
L 150.852351 47.452871 
L 151.20878 47.363159 
L 151.565209 47.469765 
L 152.278067 46.639134 
L 152.634496 46.546378 
L 153.347355 46.610655 
L 153.703784 46.414182 
L 154.060213 46.433367 
L 154.416642 46.624153 
L 155.1295 46.453301 
L 155.48593 46.874834 
L 155.842359 47.106737 
L 156.198788 46.941138 
L 156.555217 47.046282 
L 156.911646 47.021002 
L 157.268075 47.36768 
L 157.980934 47.152216 
L 158.693792 48.012207 
L 159.763079 48.644894 
L 160.832367 49.206818 
L 161.188796 48.830029 
L 161.545225 49.092145 
L 161.901654 48.668794 
L 162.258084 48.941099 
L 162.614513 48.696695 
L 162.970942 48.706119 
L 163.327371 48.315666 
L 163.6838 48.305875 
L 164.040229 48.43831 
L 164.396658 48.693278 
L 164.753088 48.791824 
L 165.109517 48.194792 
L 165.465946 48.273899 
L 166.178804 47.537811 
L 166.535233 47.308057 
L 166.891663 47.26468 
L 167.248092 46.887388 
L 168.317379 46.757801 
L 168.673808 46.968134 
L 169.743096 46.186418 
L 170.455954 46.853235 
L 171.168812 46.76936 
L 171.881671 46.576113 
L 172.2381 46.135533 
L 172.594529 46.007519 
L 172.950958 45.669521 
L 173.307387 45.613005 
L 173.663817 45.391441 
L 174.020246 45.382037 
L 174.376675 45.092536 
L 174.733104 45.192345 
L 175.089533 45.430802 
L 175.445962 45.289983 
L 175.802391 45.319699 
L 176.158821 44.523035 
L 177.228108 44.896797 
L 177.940966 45.07743 
L 178.297396 45.148244 
L 178.653825 44.99846 
L 179.010254 45.013862 
L 179.366683 45.380203 
L 179.723112 45.42114 
L 180.079541 45.271295 
L 181.505258 46.187803 
L 181.861687 45.951073 
L 182.218116 46.205703 
L 182.930975 45.549714 
L 183.287404 45.484522 
L 183.643833 45.788293 
L 184.000262 45.826948 
L 184.356691 45.215448 
L 185.06955 45.166805 
L 185.425979 45.35148 
L 186.138837 44.98866 
L 186.495266 45.057879 
L 186.851695 45.375232 
L 187.208124 44.981598 
L 188.633841 44.538434 
L 189.346699 43.51559 
L 189.703129 43.895417 
L 190.415987 43.958789 
L 190.772416 43.931494 
L 191.128845 44.16971 
L 191.485274 44.161102 
L 191.841704 43.961543 
L 192.554562 44.430078 
L 192.910991 44.172937 
L 193.26742 44.115003 
L 194.336708 44.75605 
L 194.693137 44.845462 
L 195.049566 44.693173 
L 195.405995 45.164448 
L 195.762424 44.961345 
L 196.475283 45.068239 
L 196.831712 44.795565 
L 197.188141 44.350075 
L 198.257428 44.733239 
L 198.613857 44.633888 
L 199.326716 45.015199 
L 199.683145 44.647593 
L 200.752432 44.674494 
L 201.82172 44.538138 
L 202.178149 44.660087 
L 202.534578 44.0527 
L 202.891007 43.88245 
L 203.247437 44.088338 
L 203.603866 44.678185 
L 203.960295 44.590686 
L 204.673153 45.308639 
L 205.029582 45.384739 
L 205.386011 45.809911 
L 205.742441 45.819934 
L 206.09887 45.970431 
L 206.455299 45.998912 
L 206.811728 45.894626 
L 207.524586 45.895213 
L 207.881016 45.836489 
L 208.237445 45.932936 
L 208.593874 45.818298 
L 208.950303 46.011 
L 209.306732 45.851391 
L 210.01959 46.151258 
L 210.732449 46.521709 
L 211.088878 46.988101 
L 211.445307 46.832115 
L 211.801736 46.914763 
L 212.158165 47.268616 
L 213.583882 46.697075 
L 213.940311 46.246261 
L 214.65317 46.112167 
L 215.009599 46.346009 
L 215.722457 46.615064 
L 216.435315 46.979941 
L 217.148174 47.206294 
L 217.861032 47.036081 
L 218.217461 47.405063 
L 218.930319 47.695336 
L 219.286749 47.622907 
L 219.643178 47.377575 
L 219.999607 47.59602 
L 220.712465 47.463752 
L 221.068894 47.170533 
L 221.425324 47.30857 
L 221.781753 47.084609 
L 222.85104 47.095008 
L 223.207469 46.795021 
L 224.276757 47.171426 
L 224.633186 46.816473 
L 224.989615 46.75406 
L 225.346044 46.901033 
L 225.702473 46.782537 
L 226.058903 46.869851 
L 226.771761 47.39395 
L 227.12819 47.300033 
L 227.484619 47.376178 
L 227.841048 47.153675 
L 228.197477 47.105999 
L 229.266765 47.282101 
L 229.623194 47.118155 
L 229.979623 47.14448 
L 230.336052 47.447816 
L 230.692482 47.229241 
L 231.048911 47.347557 
L 231.761769 47.288788 
L 232.118198 47.055737 
L 232.474627 46.976878 
L 232.831057 46.776607 
L 234.256773 46.840071 
L 234.613202 47.045643 
L 234.969631 46.949125 
L 236.751777 47.599056 
L 237.108206 47.588281 
L 237.464636 47.397613 
L 238.177494 47.604926 
L 238.890352 47.717513 
L 239.60321 48.005948 
L 239.95964 48.083193 
L 240.316069 47.849235 
L 240.672498 47.199054 
L 241.028927 47.367734 
L 242.098215 47.312533 
L 242.454644 47.43354 
L 242.811073 47.734345 
L 244.23679 47.358829 
L 244.949648 47.590042 
L 245.662506 47.657887 
L 246.018935 47.456837 
L 247.088223 47.462063 
L 247.801081 47.429228 
L 249.583227 47.984772 
L 249.939656 47.769505 
L 250.652514 48.056703 
L 251.008943 48.047712 
L 251.365373 48.418955 
L 252.078231 48.568397 
L 252.791089 48.802755 
L 253.147518 48.655668 
L 253.503948 48.750066 
L 254.216806 48.609232 
L 254.929664 48.758513 
L 255.286093 48.542453 
L 256.71181 48.655604 
L 257.424668 49.008704 
L 257.781097 49.070012 
L 258.137527 48.814557 
L 258.493956 49.053863 
L 259.206814 48.927585 
L 259.919672 49.02473 
L 260.98896 49.158172 
L 261.345389 49.148045 
L 261.701818 49.311405 
L 262.058247 49.242802 
L 262.414676 49.58265 
L 262.771106 49.565393 
L 263.127535 49.286315 
L 263.483964 49.414288 
L 263.840393 49.119054 
L 264.196822 49.312905 
L 264.553251 49.362478 
L 264.909681 49.241745 
L 265.26611 48.981748 
L 265.622539 48.966722 
L 266.335397 48.617411 
L 266.691826 48.516496 
L 267.048256 48.602331 
L 267.761114 48.510401 
L 268.117543 48.709563 
L 268.473972 48.654602 
L 268.830401 48.370543 
L 269.18683 48.258157 
L 269.54326 47.853298 
L 269.899689 48.136368 
L 270.256118 48.107695 
L 271.681835 47.462935 
L 272.038264 47.664582 
L 273.46398 47.866827 
L 275.246126 47.596079 
L 275.602555 47.444348 
L 275.958984 47.518903 
L 276.315414 47.379137 
L 277.028272 47.477488 
L 278.097559 46.893415 
L 278.810418 47.143843 
L 279.166847 46.925346 
L 279.879705 47.091647 
L 280.236134 47.330241 
L 280.592563 46.981732 
L 281.305422 47.076899 
L 281.661851 47.263386 
L 282.01828 47.042313 
L 282.374709 47.092153 
L 282.731138 46.848597 
L 283.087568 46.905326 
L 283.443997 46.151418 
L 284.156855 46.508146 
L 284.869713 46.074208 
L 285.226143 46.122443 
L 285.939001 45.711872 
L 287.721147 45.001607 
L 288.790434 44.875021 
L 289.503292 44.689616 
L 290.57258 44.796244 
L 290.929009 44.990028 
L 291.641867 45.004443 
L 291.998296 44.804846 
L 292.354726 44.867865 
L 292.711155 44.62588 
L 294.493301 44.893093 
L 295.206159 45.077013 
L 296.275446 45.167588 
L 296.988305 45.60555 
L 297.344734 45.653997 
L 297.701163 45.876037 
L 298.057592 45.966938 
L 298.414021 45.930334 
L 299.12688 46.005131 
L 299.483309 45.933323 
L 300.196167 46.123197 
L 300.552596 46.385587 
L 301.265455 46.203155 
L 301.621884 46.240337 
L 301.978313 46.133772 
L 302.691171 46.310055 
L 303.0476 46.200076 
L 304.473317 46.609184 
L 305.186175 46.587718 
L 306.968321 47.209639 
L 307.32475 47.397887 
L 308.037609 47.181332 
L 309.819754 47.374688 
L 310.176183 47.205347 
L 312.671188 47.595082 
L 313.027617 47.81461 
L 313.384046 47.66393 
L 313.740475 47.767111 
L 315.166192 47.55137 
L 316.235479 48.089173 
L 316.591908 47.891577 
L 318.017625 47.923544 
L 318.374054 47.751184 
L 318.730483 47.807506 
L 319.086912 47.582985 
L 320.1562 47.378494 
L 320.512629 47.600167 
L 322.294775 47.696626 
L 322.651204 47.541465 
L 323.364062 47.74879 
L 323.720491 47.938611 
L 324.43335 48.122287 
L 325.146208 48.287332 
L 325.859066 48.313791 
L 326.215495 48.460872 
L 326.928354 48.121933 
L 327.284783 48.311078 
L 327.641212 48.12945 
L 328.35407 48.207956 
L 328.7105 47.861916 
L 329.423358 47.913081 
L 329.779787 47.73595 
L 330.492645 47.864398 
L 331.918362 47.44561 
L 332.274791 47.257741 
L 332.987649 47.450752 
L 333.344079 47.359011 
L 333.700508 47.389813 
L 334.413366 47.213252 
L 334.769795 47.142871 
L 335.126224 46.932436 
L 335.482654 47.024544 
L 335.839083 46.906731 
L 336.195512 46.649972 
L 336.90837 46.840851 
L 337.264799 46.514639 
L 338.334087 46.498615 
L 338.690516 46.730194 
L 339.403374 46.649904 
L 339.759803 46.497122 
L 341.18552 46.398486 
L 341.898378 46.569233 
L 342.611237 46.525599 
L 346.175528 46.924972 
L 346.531957 46.912693 
L 346.888387 47.086157 
L 347.601245 46.934491 
L 347.957674 47.004745 
L 348.670532 47.28575 
L 349.73982 47.057346 
L 351.165536 47.293569 
L 351.521966 47.454904 
L 352.234824 47.45187 
L 353.304111 47.626176 
L 353.660541 47.425891 
L 354.01697 47.419192 
L 354.373399 47.232845 
L 354.729828 47.394232 
L 355.086257 47.347442 
L 356.155545 47.638946 
L 357.224832 47.305283 
L 357.93769 47.121838 
L 359.006978 47.171935 
L 359.363407 46.974368 
L 360.076265 47.200995 
L 361.501982 46.800178 
L 362.927699 46.855859 
L 363.640557 46.793644 
L 365.422703 46.95891 
L 365.779132 46.803067 
L 366.49199 46.825264 
L 367.204848 47.121772 
L 367.917707 47.273749 
L 369.343423 47.163921 
L 370.056282 47.035043 
L 371.125569 47.191592 
L 374.333432 46.964168 
L 374.689861 46.803542 
L 376.115577 47.023457 
L 376.828436 46.857566 
L 377.541294 46.710422 
L 378.254152 46.917317 
L 380.036298 46.85842 
L 380.749156 46.684074 
L 381.105586 46.809283 
L 382.531302 46.72892 
L 383.244161 46.455611 
L 384.313448 46.492005 
L 384.669877 46.165839 
L 385.739165 46.234791 
L 386.452023 46.547004 
L 387.164881 46.646715 
L 387.52131 46.816888 
L 388.590598 46.79233 
L 388.947027 46.963808 
L 390.372744 46.984733 
L 391.085602 47.048056 
L 392.154889 47.18431 
L 392.867748 47.337561 
L 393.224177 47.036697 
L 393.937035 47.200779 
L 394.293464 47.086276 
L 395.006323 47.258728 
L 395.362752 47.239454 
L 395.719181 47.048577 
L 396.07561 47.003303 
L 397.144898 47.111605 
L 397.857756 47.160738 
L 398.927043 46.905472 
L 399.639902 46.968972 
L 399.996331 46.741385 
L 401.065618 46.866613 
L 402.847764 46.831857 
L 403.560622 46.864355 
L 403.917052 47.024447 
L 404.273481 46.935213 
L 404.62991 46.977614 
L 404.986339 46.887863 
L 405.699197 47.062315 
L 409.619918 47.415168 
L 409.976347 47.348822 
L 411.045635 47.467582 
L 411.402064 47.206157 
L 412.114922 47.438949 
L 412.471351 47.33108 
L 413.18421 47.301674 
L 414.253497 47.231863 
L 414.609926 47.308982 
L 414.966355 47.250776 
L 416.035643 47.454477 
L 417.10493 47.259065 
L 417.46136 47.357503 
L 418.174218 47.18719 
L 418.530647 47.153965 
L 418.887076 47.259861 
L 419.599934 47.178755 
L 419.956364 47.298309 
L 419.956364 47.298309 
" style="fill:none;stroke:#1f77b4;stroke-linecap:square;stroke-width:1.5;"/>
   </g>
   <g id="patch_3">
    <path d="M 46.08 156.672 
L 46.08 27.648 
" style="fill:none;stroke:#000000;stroke-linecap:square;stroke-linejoin:miter;stroke-width:0.8;"/>
   </g>
   <g id="patch_4">
    <path d="M 437.76 156.672 
L 437.76 27.648 
" style="fill:none;stroke:#000000;stroke-linecap:square;stroke-linejoin:miter;stroke-width:0.8;"/>
   </g>
   <g id="patch_5">
    <path d="M 46.08 156.672 
L 437.76 156.672 
" style="fill:none;stroke:#000000;stroke-linecap:square;stroke-linejoin:miter;stroke-width:0.8;"/>
   </g>
   <g id="patch_6">
    <path d="M 46.08 27.648 
L 437.76 27.648 
" style="fill:none;stroke:#000000;stroke-linecap:square;stroke-linejoin:miter;stroke-width:0.8;"/>
   </g>
   <g id="text_13">
    <!-- Demora promedio en cola A -->
    <defs>
     <path id="DejaVuSans-32"/>
     <path d="M 18.109375 8.203125 
L 18.109375 -20.796875 
L 9.078125 -20.796875 
L 9.078125 54.6875 
L 18.109375 54.6875 
L 18.109375 46.390625 
Q 20.953125 51.265625 25.265625 53.625 
Q 29.59375 56 35.59375 56 
Q 45.5625 56 51.78125 48.09375 
Q 58.015625 40.1875 58.015625 27.296875 
Q 58.015625 14.40625 51.78125 6.484375 
Q 45.5625 -1.421875 35.59375 -1.421875 
Q 29.59375 -1.421875 25.265625 0.953125 
Q 20.953125 3.328125 18.109375 8.203125 
z
M 48.6875 27.296875 
Q 48.6875 37.203125 44.609375 42.84375 
Q 40.53125 48.484375 33.40625 48.484375 
Q 26.265625 48.484375 22.1875 42.84375 
Q 18.109375 37.203125 18.109375 27.296875 
Q 18.109375 17.390625 22.1875 11.75 
Q 26.265625 6.109375 33.40625 6.109375 
Q 40.53125 6.109375 44.609375 11.75 
Q 48.6875 17.390625 48.6875 27.296875 
z
" id="DejaVuSans-112"/>
     <path d="M 54.890625 33.015625 
L 54.890625 0 
L 45.90625 0 
L 45.90625 32.71875 
Q 45.90625 40.484375 42.875 44.328125 
Q 39.84375 48.1875 33.796875 48.1875 
Q 26.515625 48.1875 22.3125 43.546875 
Q 18.109375 38.921875 18.109375 30.90625 
L 18.109375 0 
L 9.078125 0 
L 9.078125 54.6875 
L 18.109375 54.6875 
L 18.109375 46.1875 
Q 21.34375 51.125 25.703125 53.5625 
Q 30.078125 56 35.796875 56 
Q 45.21875 56 50.046875 50.171875 
Q 54.890625 44.34375 54.890625 33.015625 
z
" id="DejaVuSans-110"/>
     <path d="M 48.78125 52.59375 
L 48.78125 44.1875 
Q 44.96875 46.296875 41.140625 47.34375 
Q 37.3125 48.390625 33.40625 48.390625 
Q 24.65625 48.390625 19.8125 42.84375 
Q 14.984375 37.3125 14.984375 27.296875 
Q 14.984375 17.28125 19.8125 11.734375 
Q 24.65625 6.203125 33.40625 6.203125 
Q 37.3125 6.203125 41.140625 7.25 
Q 44.96875 8.296875 48.78125 10.40625 
L 48.78125 2.09375 
Q 45.015625 0.34375 40.984375 -0.53125 
Q 36.96875 -1.421875 32.421875 -1.421875 
Q 20.0625 -1.421875 12.78125 6.34375 
Q 5.515625 14.109375 5.515625 27.296875 
Q 5.515625 40.671875 12.859375 48.328125 
Q 20.21875 56 33.015625 56 
Q 37.15625 56 41.109375 55.140625 
Q 45.0625 54.296875 48.78125 52.59375 
z
" id="DejaVuSans-99"/>
     <path d="M 9.421875 75.984375 
L 18.40625 75.984375 
L 18.40625 0 
L 9.421875 0 
z
" id="DejaVuSans-108"/>
     <path d="M 34.1875 63.1875 
L 20.796875 26.90625 
L 47.609375 26.90625 
z
M 28.609375 72.90625 
L 39.796875 72.90625 
L 67.578125 0 
L 57.328125 0 
L 50.6875 18.703125 
L 17.828125 18.703125 
L 11.1875 0 
L 0.78125 0 
z
" id="DejaVuSans-65"/>
    </defs>
    <g transform="translate(157.780313 21.648)scale(0.12 -0.12)">
     <use xlink:href="#DejaVuSans-68"/>
     <use x="77.001953" xlink:href="#DejaVuSans-101"/>
     <use x="138.525391" xlink:href="#DejaVuSans-109"/>
     <use x="235.9375" xlink:href="#DejaVuSans-111"/>
     <use x="297.119141" xlink:href="#DejaVuSans-114"/>
     <use x="338.232422" xlink:href="#DejaVuSans-97"/>
     <use x="399.511719" xlink:href="#DejaVuSans-32"/>
     <use x="431.298828" xlink:href="#DejaVuSans-112"/>
     <use x="494.775391" xlink:href="#DejaVuSans-114"/>
     <use x="535.857422" xlink:href="#DejaVuSans-111"/>
     <use x="597.039062" xlink:href="#DejaVuSans-109"/>
     <use x="694.451172" xlink:href="#DejaVuSans-101"/>
     <use x="755.974609" xlink:href="#DejaVuSans-100"/>
     <use x="819.451172" xlink:href="#DejaVuSans-105"/>
     <use x="847.234375" xlink:href="#DejaVuSans-111"/>
     <use x="908.416016" xlink:href="#DejaVuSans-32"/>
     <use x="940.203125" xlink:href="#DejaVuSans-101"/>
     <use x="1001.726562" xlink:href="#DejaVuSans-110"/>
     <use x="1065.105469" xlink:href="#DejaVuSans-32"/>
     <use x="1096.892578" xlink:href="#DejaVuSans-99"/>
     <use x="1151.873047" xlink:href="#DejaVuSans-111"/>
     <use x="1213.054688" xlink:href="#DejaVuSans-108"/>
     <use x="1240.837891" xlink:href="#DejaVuSans-97"/>
     <use x="1302.117188" xlink:href="#DejaVuSans-32"/>
     <use x="1333.904297" xlink:href="#DejaVuSans-65"/>
    </g>
   </g>
  </g>
  <g id="axes_2">
   <g id="patch_7">
    <path d="M 46.08 317.952 
L 212.75234 317.952 
L 212.75234 188.928 
L 46.08 188.928 
z
" style="fill:#ffffff;"/>
   </g>
   <g id="matplotlib.axis_3">
    <g id="xtick_7">
     <g id="line2d_22">
      <path clip-path="url(#p4eddd08610)" d="M 53.504343 317.952 
L 53.504343 188.928 
" style="fill:none;stroke:#b0b0b0;stroke-linecap:square;stroke-width:0.8;"/>
     </g>
     <g id="line2d_23">
      <g>
       <use style="stroke:#000000;stroke-width:0.8;" x="53.504343" xlink:href="#ma249b6af58" y="317.952"/>
      </g>
     </g>
     <g id="text_14">
      <!-- 0 -->
      <g transform="translate(50.323093 332.550437)scale(0.1 -0.1)">
       <use xlink:href="#DejaVuSans-48"/>
      </g>
     </g>
    </g>
    <g id="xtick_8">
     <g id="line2d_24">
      <path clip-path="url(#p4eddd08610)" d="M 91.422339 317.952 
L 91.422339 188.928 
" style="fill:none;stroke:#b0b0b0;stroke-linecap:square;stroke-width:0.8;"/>
     </g>
     <g id="line2d_25">
      <g>
       <use style="stroke:#000000;stroke-width:0.8;" x="91.422339" xlink:href="#ma249b6af58" y="317.952"/>
      </g>
     </g>
     <g id="text_15">
      <!-- 250 -->
      <g transform="translate(81.878589 332.550437)scale(0.1 -0.1)">
       <use xlink:href="#DejaVuSans-50"/>
       <use x="63.623047" xlink:href="#DejaVuSans-53"/>
       <use x="127.246094" xlink:href="#DejaVuSans-48"/>
      </g>
     </g>
    </g>
    <g id="xtick_9">
     <g id="line2d_26">
      <path clip-path="url(#p4eddd08610)" d="M 129.340334 317.952 
L 129.340334 188.928 
" style="fill:none;stroke:#b0b0b0;stroke-linecap:square;stroke-width:0.8;"/>
     </g>
     <g id="line2d_27">
      <g>
       <use style="stroke:#000000;stroke-width:0.8;" x="129.340334" xlink:href="#ma249b6af58" y="317.952"/>
      </g>
     </g>
     <g id="text_16">
      <!-- 500 -->
      <g transform="translate(119.796584 332.550437)scale(0.1 -0.1)">
       <use xlink:href="#DejaVuSans-53"/>
       <use x="63.623047" xlink:href="#DejaVuSans-48"/>
       <use x="127.246094" xlink:href="#DejaVuSans-48"/>
      </g>
     </g>
    </g>
    <g id="xtick_10">
     <g id="line2d_28">
      <path clip-path="url(#p4eddd08610)" d="M 167.25833 317.952 
L 167.25833 188.928 
" style="fill:none;stroke:#b0b0b0;stroke-linecap:square;stroke-width:0.8;"/>
     </g>
     <g id="line2d_29">
      <g>
       <use style="stroke:#000000;stroke-width:0.8;" x="167.25833" xlink:href="#ma249b6af58" y="317.952"/>
      </g>
     </g>
     <g id="text_17">
      <!-- 750 -->
      <g transform="translate(157.71458 332.550437)scale(0.1 -0.1)">
       <use xlink:href="#DejaVuSans-55"/>
       <use x="63.623047" xlink:href="#DejaVuSans-53"/>
       <use x="127.246094" xlink:href="#DejaVuSans-48"/>
      </g>
     </g>
    </g>
    <g id="xtick_11">
     <g id="line2d_30">
      <path clip-path="url(#p4eddd08610)" d="M 205.176325 317.952 
L 205.176325 188.928 
" style="fill:none;stroke:#b0b0b0;stroke-linecap:square;stroke-width:0.8;"/>
     </g>
     <g id="line2d_31">
      <g>
       <use style="stroke:#000000;stroke-width:0.8;" x="205.176325" xlink:href="#ma249b6af58" y="317.952"/>
      </g>
     </g>
     <g id="text_18">
      <!-- 1000 -->
      <g transform="translate(192.451325 332.550437)scale(0.1 -0.1)">
       <use xlink:href="#DejaVuSans-49"/>
       <use x="63.623047" xlink:href="#DejaVuSans-48"/>
       <use x="127.246094" xlink:href="#DejaVuSans-48"/>
       <use x="190.869141" xlink:href="#DejaVuSans-48"/>
      </g>
     </g>
    </g>
    <g id="text_19">
     <!-- Corridas -->
     <g transform="translate(108.523201 346.228563)scale(0.1 -0.1)">
      <use xlink:href="#DejaVuSans-67"/>
      <use x="69.824219" xlink:href="#DejaVuSans-111"/>
      <use x="131.005859" xlink:href="#DejaVuSans-114"/>
      <use x="172.103516" xlink:href="#DejaVuSans-114"/>
      <use x="213.216797" xlink:href="#DejaVuSans-105"/>
      <use x="241" xlink:href="#DejaVuSans-100"/>
      <use x="304.476562" xlink:href="#DejaVuSans-97"/>
      <use x="365.755859" xlink:href="#DejaVuSans-115"/>
     </g>
    </g>
   </g>
   <g id="matplotlib.axis_4">
    <g id="ytick_5">
     <g id="line2d_32">
      <path clip-path="url(#p4eddd08610)" d="M 46.08 303.419472 
L 212.75234 303.419472 
" style="fill:none;stroke:#b0b0b0;stroke-linecap:square;stroke-width:0.8;"/>
     </g>
     <g id="line2d_33">
      <g>
       <use style="stroke:#000000;stroke-width:0.8;" x="46.08" xlink:href="#m31066c7284" y="303.419472"/>
      </g>
     </g>
     <g id="text_20">
      <!-- 0.045 -->
      <g transform="translate(10.451875 307.218691)scale(0.1 -0.1)">
       <use xlink:href="#DejaVuSans-48"/>
       <use x="63.623047" xlink:href="#DejaVuSans-46"/>
       <use x="95.410156" xlink:href="#DejaVuSans-48"/>
       <use x="159.033203" xlink:href="#DejaVuSans-52"/>
       <use x="222.65625" xlink:href="#DejaVuSans-53"/>
      </g>
     </g>
    </g>
    <g id="ytick_6">
     <g id="line2d_34">
      <path clip-path="url(#p4eddd08610)" d="M 46.08 281.503162 
L 212.75234 281.503162 
" style="fill:none;stroke:#b0b0b0;stroke-linecap:square;stroke-width:0.8;"/>
     </g>
     <g id="line2d_35">
      <g>
       <use style="stroke:#000000;stroke-width:0.8;" x="46.08" xlink:href="#m31066c7284" y="281.503162"/>
      </g>
     </g>
     <g id="text_21">
      <!-- 0.050 -->
      <g transform="translate(10.451875 285.302381)scale(0.1 -0.1)">
       <use xlink:href="#DejaVuSans-48"/>
       <use x="63.623047" xlink:href="#DejaVuSans-46"/>
       <use x="95.410156" xlink:href="#DejaVuSans-48"/>
       <use x="159.033203" xlink:href="#DejaVuSans-53"/>
       <use x="222.65625" xlink:href="#DejaVuSans-48"/>
      </g>
     </g>
    </g>
    <g id="ytick_7">
     <g id="line2d_36">
      <path clip-path="url(#p4eddd08610)" d="M 46.08 259.586851 
L 212.75234 259.586851 
" style="fill:none;stroke:#b0b0b0;stroke-linecap:square;stroke-width:0.8;"/>
     </g>
     <g id="line2d_37">
      <g>
       <use style="stroke:#000000;stroke-width:0.8;" x="46.08" xlink:href="#m31066c7284" y="259.586851"/>
      </g>
     </g>
     <g id="text_22">
      <!-- 0.055 -->
      <g transform="translate(10.451875 263.38607)scale(0.1 -0.1)">
       <use xlink:href="#DejaVuSans-48"/>
       <use x="63.623047" xlink:href="#DejaVuSans-46"/>
       <use x="95.410156" xlink:href="#DejaVuSans-48"/>
       <use x="159.033203" xlink:href="#DejaVuSans-53"/>
       <use x="222.65625" xlink:href="#DejaVuSans-53"/>
      </g>
     </g>
    </g>
    <g id="ytick_8">
     <g id="line2d_38">
      <path clip-path="url(#p4eddd08610)" d="M 46.08 237.670541 
L 212.75234 237.670541 
" style="fill:none;stroke:#b0b0b0;stroke-linecap:square;stroke-width:0.8;"/>
     </g>
     <g id="line2d_39">
      <g>
       <use style="stroke:#000000;stroke-width:0.8;" x="46.08" xlink:href="#m31066c7284" y="237.670541"/>
      </g>
     </g>
     <g id="text_23">
      <!-- 0.060 -->
      <g transform="translate(10.451875 241.46976)scale(0.1 -0.1)">
       <use xlink:href="#DejaVuSans-48"/>
       <use x="63.623047" xlink:href="#DejaVuSans-46"/>
       <use x="95.410156" xlink:href="#DejaVuSans-48"/>
       <use x="159.033203" xlink:href="#DejaVuSans-54"/>
       <use x="222.65625" xlink:href="#DejaVuSans-48"/>
      </g>
     </g>
    </g>
    <g id="ytick_9">
     <g id="line2d_40">
      <path clip-path="url(#p4eddd08610)" d="M 46.08 215.754231 
L 212.75234 215.754231 
" style="fill:none;stroke:#b0b0b0;stroke-linecap:square;stroke-width:0.8;"/>
     </g>
     <g id="line2d_41">
      <g>
       <use style="stroke:#000000;stroke-width:0.8;" x="46.08" xlink:href="#m31066c7284" y="215.754231"/>
      </g>
     </g>
     <g id="text_24">
      <!-- 0.065 -->
      <g transform="translate(10.451875 219.553449)scale(0.1 -0.1)">
       <use xlink:href="#DejaVuSans-48"/>
       <use x="63.623047" xlink:href="#DejaVuSans-46"/>
       <use x="95.410156" xlink:href="#DejaVuSans-48"/>
       <use x="159.033203" xlink:href="#DejaVuSans-54"/>
       <use x="222.65625" xlink:href="#DejaVuSans-53"/>
      </g>
     </g>
    </g>
    <g id="ytick_10">
     <g id="line2d_42">
      <path clip-path="url(#p4eddd08610)" d="M 46.08 193.83792 
L 212.75234 193.83792 
" style="fill:none;stroke:#b0b0b0;stroke-linecap:square;stroke-width:0.8;"/>
     </g>
     <g id="line2d_43">
      <g>
       <use style="stroke:#000000;stroke-width:0.8;" x="46.08" xlink:href="#m31066c7284" y="193.83792"/>
      </g>
     </g>
     <g id="text_25">
      <!-- 0.070 -->
      <g transform="translate(10.451875 197.637139)scale(0.1 -0.1)">
       <use xlink:href="#DejaVuSans-48"/>
       <use x="63.623047" xlink:href="#DejaVuSans-46"/>
       <use x="95.410156" xlink:href="#DejaVuSans-48"/>
       <use x="159.033203" xlink:href="#DejaVuSans-55"/>
       <use x="222.65625" xlink:href="#DejaVuSans-48"/>
      </g>
     </g>
    </g>
    <g id="text_26">
     <!-- Demora -->
     <g transform="translate(4.372188 273.415781)rotate(-90)scale(0.1 -0.1)">
      <use xlink:href="#DejaVuSans-68"/>
      <use x="77.001953" xlink:href="#DejaVuSans-101"/>
      <use x="138.525391" xlink:href="#DejaVuSans-109"/>
      <use x="235.9375" xlink:href="#DejaVuSans-111"/>
      <use x="297.119141" xlink:href="#DejaVuSans-114"/>
      <use x="338.232422" xlink:href="#DejaVuSans-97"/>
     </g>
    </g>
   </g>
   <g id="line2d_44">
    <path clip-path="url(#p4eddd08610)" d="M 53.656015 194.792727 
L 53.959359 297.474466 
L 54.111031 295.116777 
L 54.414375 312.087273 
L 54.566047 294.410884 
L 54.717719 296.650734 
L 54.869391 303.374033 
L 55.021063 294.098738 
L 55.172735 293.250149 
L 55.324407 296.461734 
L 55.476079 289.732706 
L 55.627751 290.438655 
L 55.779423 289.583129 
L 56.537783 277.376152 
L 56.689455 268.471482 
L 56.992799 272.179029 
L 57.144471 271.123742 
L 57.296143 272.333305 
L 57.751159 269.746937 
L 58.054503 269.73556 
L 58.206175 268.165892 
L 58.357847 270.259738 
L 58.509519 269.955953 
L 58.661191 271.351447 
L 58.812863 269.74102 
L 58.964535 266.871594 
L 59.267879 268.963578 
L 59.419551 268.333988 
L 59.571223 269.348902 
L 59.874567 265.686316 
L 60.177911 265.956204 
L 60.632927 262.826734 
L 60.784599 262.88367 
L 61.087943 260.614882 
L 61.391287 263.224063 
L 61.542959 261.409451 
L 61.69463 262.331684 
L 61.846302 262.136278 
L 61.997974 259.612987 
L 62.301318 260.544106 
L 62.45299 260.047565 
L 62.604662 260.078287 
L 62.756334 261.352671 
L 62.908006 260.753629 
L 63.059678 259.305814 
L 63.21135 259.754279 
L 63.363022 259.694217 
L 63.514694 259.204161 
L 63.818038 260.360131 
L 63.96971 260.173413 
L 64.121382 260.536194 
L 64.273054 261.316798 
L 64.424726 260.549094 
L 64.72807 260.272926 
L 64.879742 259.69589 
L 65.031414 261.010807 
L 65.183086 260.284548 
L 65.334758 260.864204 
L 65.638102 262.420742 
L 65.789774 261.475004 
L 65.941446 261.921946 
L 66.093118 261.940541 
L 66.396462 262.600806 
L 66.699806 261.817448 
L 66.851478 261.848371 
L 67.154822 261.706136 
L 67.306494 262.051767 
L 67.458166 261.027746 
L 67.609838 261.559051 
L 67.76151 261.298652 
L 67.913182 262.238277 
L 68.216526 259.946912 
L 68.368198 259.845505 
L 68.823214 261.577073 
L 68.974886 261.351149 
L 69.27823 262.12538 
L 69.429902 262.669066 
L 69.581574 262.588045 
L 69.733246 262.100479 
L 69.884917 262.424644 
L 70.036589 261.969653 
L 70.188261 262.184242 
L 70.339933 262.941492 
L 70.491605 262.835566 
L 70.794949 263.286615 
L 70.946621 263.007593 
L 71.098293 263.538604 
L 71.249965 263.156385 
L 71.401637 263.127093 
L 71.553309 262.850294 
L 71.704981 263.357792 
L 71.856653 263.319771 
L 72.159997 263.468842 
L 72.615013 262.853713 
L 72.918357 262.784278 
L 73.676717 264.610255 
L 73.828389 264.300682 
L 74.131733 264.729628 
L 74.283405 264.829138 
L 74.435077 264.349153 
L 74.586749 264.257771 
L 74.738421 264.298612 
L 74.890093 264.217776 
L 75.041765 264.968494 
L 75.193437 264.691781 
L 75.345109 265.086135 
L 75.496781 264.958806 
L 75.648453 265.11583 
L 75.951797 264.385347 
L 76.103469 264.657637 
L 76.406813 264.070304 
L 76.558485 264.571921 
L 76.710157 264.402766 
L 77.013501 263.27968 
L 77.316845 263.50194 
L 77.468517 263.321444 
L 77.620189 263.493459 
L 77.771861 264.353123 
L 77.923533 264.274618 
L 78.226876 264.670962 
L 78.53022 265.139705 
L 78.833564 265.458932 
L 78.985236 265.345592 
L 79.28858 264.102736 
L 79.440252 264.424859 
L 79.591924 264.346949 
L 79.743596 264.55809 
L 80.04694 263.611987 
L 80.198612 262.914937 
L 80.653628 262.952817 
L 80.8053 263.225362 
L 81.108644 263.160898 
L 81.260316 262.778104 
L 81.56366 262.651827 
L 81.715332 262.439543 
L 81.867004 262.67645 
L 82.170348 262.751185 
L 82.32202 262.838601 
L 82.473692 262.378782 
L 82.625364 262.447614 
L 82.777036 262.300077 
L 82.928708 262.543801 
L 83.08038 261.948045 
L 83.232052 262.528623 
L 83.383724 261.95229 
L 83.687068 262.718544 
L 83.83874 262.59843 
L 83.990412 262.669476 
L 84.445428 263.141872 
L 84.5971 262.705887 
L 84.748772 262.82273 
L 85.052116 263.460468 
L 85.203788 263.306525 
L 85.507132 262.662781 
L 85.658804 262.785659 
L 85.810476 262.447473 
L 85.962148 263.001708 
L 86.265491 262.599559 
L 86.720507 262.949173 
L 86.872179 262.652719 
L 87.478867 262.814304 
L 87.630539 263.038121 
L 87.782211 263.034246 
L 88.085555 263.431072 
L 88.237227 263.374295 
L 88.540571 263.430487 
L 88.692243 262.80417 
L 88.843915 262.813232 
L 89.147259 263.363148 
L 89.450603 262.924397 
L 89.602275 263.087898 
L 90.208963 261.232238 
L 90.663979 262.411627 
L 90.815651 262.337571 
L 91.118995 263.056204 
L 91.270667 262.782729 
L 91.574011 263.241497 
L 91.725683 263.03682 
L 91.877355 263.395396 
L 92.029027 263.081657 
L 92.180699 263.074748 
L 92.635715 263.595023 
L 92.787387 263.635654 
L 93.242403 264.285857 
L 93.394075 263.956224 
L 93.697419 264.233488 
L 93.849091 263.98256 
L 94.000763 263.966958 
L 94.304107 264.125942 
L 94.455778 263.904616 
L 94.60745 263.892478 
L 94.759122 263.642269 
L 95.214138 263.978568 
L 95.517482 263.758541 
L 95.669154 263.093949 
L 95.820826 263.297937 
L 95.972498 263.10822 
L 96.12417 263.136081 
L 96.275842 262.91016 
L 96.579186 263.3981 
L 96.730858 263.265444 
L 97.185874 263.906299 
L 97.337546 263.9159 
L 97.489218 263.441263 
L 97.64089 263.478228 
L 97.792562 263.135381 
L 97.944234 263.456133 
L 98.095906 263.360002 
L 98.247578 263.54874 
L 98.39925 263.204372 
L 98.550922 263.386926 
L 98.702594 263.318924 
L 98.854266 263.082266 
L 99.005938 263.390508 
L 99.460954 263.323277 
L 99.612626 263.429686 
L 99.764298 263.145229 
L 99.91597 263.29584 
L 100.067642 263.181457 
L 100.219314 263.45523 
L 100.370986 263.071081 
L 100.522658 263.298576 
L 100.67433 263.034479 
L 100.826002 263.161229 
L 100.977674 263.536421 
L 101.43269 263.28248 
L 101.584362 263.490905 
L 101.887706 263.252323 
L 102.19105 263.408778 
L 102.342722 263.430797 
L 102.797737 263.076554 
L 103.101081 263.251185 
L 103.252753 263.546134 
L 103.556097 263.072589 
L 104.011113 263.368538 
L 104.162785 263.328095 
L 104.466129 263.571169 
L 105.072817 262.751885 
L 105.224489 262.747087 
L 105.527833 262.961382 
L 105.679505 262.803172 
L 105.831177 262.474903 
L 106.134521 262.783813 
L 106.286193 262.408712 
L 106.437865 262.36982 
L 106.741209 262.551818 
L 107.044553 262.938869 
L 107.196225 262.752725 
L 107.499569 263.041932 
L 107.651241 262.953274 
L 107.954585 263.122594 
L 108.106257 263.081913 
L 108.409601 263.486149 
L 108.561273 263.677299 
L 108.864617 263.629611 
L 109.016289 263.457185 
L 109.319633 263.701914 
L 109.622977 263.486088 
L 109.926321 263.435217 
L 110.229665 263.597161 
L 110.533009 263.737304 
L 110.684681 263.806055 
L 110.988024 263.581461 
L 111.44304 263.731709 
L 111.594712 263.429598 
L 111.898056 263.331639 
L 112.2014 263.615092 
L 112.353072 263.670664 
L 112.656416 263.433652 
L 112.95976 263.594775 
L 113.111432 263.847836 
L 113.263104 263.6622 
L 113.566448 263.684865 
L 113.71812 263.362816 
L 113.869792 263.55737 
L 114.173136 263.660456 
L 114.324808 263.756042 
L 114.931496 263.578852 
L 115.386512 263.996074 
L 115.689856 263.683106 
L 115.841528 263.823591 
L 116.144872 263.811408 
L 116.296544 263.848584 
L 116.599888 264.02714 
L 116.75156 263.978048 
L 116.903232 263.770496 
L 117.054904 263.864655 
L 117.358248 263.563165 
L 117.661592 263.817727 
L 118.116608 263.680641 
L 118.874968 264.095216 
L 119.329983 263.656191 
L 119.481655 263.540328 
L 119.633327 263.638719 
L 119.936671 263.129085 
L 120.088343 262.986763 
L 120.695031 263.326063 
L 120.998375 263.189828 
L 121.150047 263.255244 
L 121.301719 263.169401 
L 121.605063 263.201146 
L 121.908407 262.628879 
L 122.818439 263.173542 
L 123.121783 262.746371 
L 123.425127 262.990745 
L 123.576799 263.101171 
L 123.728471 262.972703 
L 123.880143 263.15233 
L 124.031815 263.082503 
L 124.183487 262.853117 
L 124.486831 262.842082 
L 124.790175 262.720274 
L 125.548535 263.416784 
L 125.851879 263.14281 
L 126.155223 263.372082 
L 126.761911 263.444356 
L 126.913583 262.993527 
L 127.368598 263.228091 
L 127.52027 263.243562 
L 127.671942 263.120968 
L 128.126958 263.414911 
L 128.430302 263.600365 
L 128.885318 263.287619 
L 129.188662 263.597168 
L 129.340334 263.370067 
L 129.492006 263.401171 
L 129.79535 263.833131 
L 129.947022 263.882772 
L 130.402038 263.667602 
L 130.55371 263.779291 
L 130.857054 263.77816 
L 131.008726 263.498717 
L 131.160398 263.613442 
L 131.463742 263.534058 
L 131.615414 263.570569 
L 131.767086 263.487835 
L 132.222102 263.740876 
L 132.82879 264.296089 
L 132.980462 264.271389 
L 133.132134 264.038031 
L 133.435478 264.341363 
L 133.58715 264.130275 
L 134.042166 264.076606 
L 134.34551 263.739945 
L 135.10387 264.476921 
L 135.407213 264.655388 
L 135.862229 264.847895 
L 136.013901 264.709433 
L 136.468917 264.752576 
L 136.923933 264.763616 
L 137.378949 264.949019 
L 137.985637 264.896796 
L 138.288981 264.929513 
L 138.440653 264.871601 
L 138.592325 264.939539 
L 138.895669 264.720379 
L 139.350685 264.526376 
L 139.805701 264.72813 
L 140.109045 264.409682 
L 140.260717 264.539899 
L 140.412389 264.43187 
L 140.867405 264.697291 
L 141.474093 264.554129 
L 141.625765 264.703361 
L 142.080781 264.614551 
L 143.749172 265.144433 
L 144.204188 265.231639 
L 144.35586 265.274854 
L 144.507532 265.143234 
L 144.659204 265.318684 
L 144.810876 265.245658 
L 144.962548 265.339348 
L 145.417564 265.167512 
L 146.175924 265.399517 
L 146.327596 265.345648 
L 146.63094 265.135395 
L 146.934284 265.091231 
L 147.085956 264.9711 
L 147.237628 265.084566 
L 147.3893 265.01625 
L 147.692644 264.535254 
L 148.14766 264.727216 
L 148.451004 264.573053 
L 148.754348 264.604997 
L 149.057692 264.642084 
L 149.361036 264.660889 
L 149.816052 264.58712 
L 150.42274 264.768971 
L 150.574412 264.640247 
L 150.877756 264.803604 
L 151.332772 264.45352 
L 151.787787 264.44782 
L 151.939459 264.430292 
L 152.242803 264.566803 
L 153.001163 264.506213 
L 153.152835 264.667754 
L 153.456179 264.497138 
L 153.607851 264.622343 
L 153.911195 264.550696 
L 154.214539 264.639956 
L 154.517883 264.426342 
L 155.124571 264.735947 
L 155.276243 264.570429 
L 155.731259 264.933252 
L 157.247979 264.926085 
L 157.399651 264.790147 
L 157.854667 264.865876 
L 158.309683 265.027918 
L 158.613027 265.130293 
L 158.764699 265.101771 
L 158.916371 264.897276 
L 159.068043 264.912875 
L 159.371387 264.842459 
L 160.281418 264.894812 
L 161.343122 265.114735 
L 161.646466 264.913295 
L 161.798138 264.964439 
L 161.94981 264.847844 
L 162.101482 264.957892 
L 162.253154 264.763928 
L 163.011514 264.79122 
L 163.163186 264.867264 
L 163.314858 264.750314 
L 163.618202 264.861077 
L 164.073218 264.676509 
L 164.22489 264.765271 
L 164.376562 264.670446 
L 164.679906 264.717419 
L 164.98325 264.691223 
L 166.196626 264.857326 
L 166.348298 264.61032 
L 167.106658 264.412535 
L 167.410002 264.327524 
L 167.561674 263.9661 
L 168.016689 264.033044 
L 168.168361 264.179384 
L 168.471705 264.234745 
L 168.775049 264.415918 
L 169.381737 264.364441 
L 169.685081 264.0701 
L 170.291769 264.14987 
L 170.595113 264.223716 
L 170.898457 264.035303 
L 171.201801 264.107144 
L 171.505145 264.347777 
L 172.111833 264.255528 
L 172.415177 264.244853 
L 172.566849 264.355229 
L 173.173537 264.226323 
L 173.325209 264.274085 
L 173.476881 264.134417 
L 174.386913 264.41513 
L 174.841929 264.59042 
L 175.145273 264.548595 
L 176.813664 264.554727 
L 177.117008 264.665742 
L 177.420352 264.763231 
L 177.875368 264.902804 
L 178.02704 264.914414 
L 178.330384 264.788724 
L 178.482056 264.783267 
L 178.7854 264.929053 
L 180.30212 265.03193 
L 180.605464 265.084614 
L 181.06048 265.138805 
L 182.122184 265.046702 
L 182.425528 265.166811 
L 183.487232 265.70204 
L 184.09392 265.483074 
L 184.548935 265.516089 
L 185.307295 265.377426 
L 185.610639 265.538816 
L 186.975687 265.3064 
L 187.127359 265.238649 
L 187.582375 265.371304 
L 188.037391 265.270028 
L 189.099095 265.389697 
L 189.857455 265.284892 
L 190.009127 265.404855 
L 190.312471 265.405141 
L 190.919159 265.523906 
L 191.222503 265.559773 
L 191.374175 265.534392 
L 191.677519 265.351526 
L 192.435879 264.952645 
L 192.890894 265.064005 
L 193.34591 264.973862 
L 193.649254 264.955476 
L 195.165974 265.102281 
L 195.62099 264.851535 
L 196.531022 264.80662 
L 196.682694 264.743086 
L 196.834366 264.895957 
L 196.986038 264.853292 
L 197.289382 264.936838 
L 197.744398 264.869947 
L 199.716134 265.054796 
L 200.17115 265.211425 
L 200.322822 265.184238 
L 200.626166 265.247496 
L 200.777837 265.187411 
L 201.384525 265.469437 
L 201.687869 265.350659 
L 201.839541 265.418618 
L 201.991213 265.363164 
L 202.446229 265.590488 
L 203.204589 265.655657 
L 203.507933 265.699344 
L 204.417965 265.629544 
L 204.721309 265.605858 
L 205.176325 265.623361 
L 205.176325 265.623361 
" style="fill:none;stroke:#1f77b4;stroke-linecap:square;stroke-width:1.5;"/>
   </g>
   <g id="patch_8">
    <path d="M 46.08 317.952 
L 46.08 188.928 
" style="fill:none;stroke:#000000;stroke-linecap:square;stroke-linejoin:miter;stroke-width:0.8;"/>
   </g>
   <g id="patch_9">
    <path d="M 212.75234 317.952 
L 212.75234 188.928 
" style="fill:none;stroke:#000000;stroke-linecap:square;stroke-linejoin:miter;stroke-width:0.8;"/>
   </g>
   <g id="patch_10">
    <path d="M 46.08 317.952 
L 212.75234 317.952 
" style="fill:none;stroke:#000000;stroke-linecap:square;stroke-linejoin:miter;stroke-width:0.8;"/>
   </g>
   <g id="patch_11">
    <path d="M 46.08 188.928 
L 212.75234 188.928 
" style="fill:none;stroke:#000000;stroke-linecap:square;stroke-linejoin:miter;stroke-width:0.8;"/>
   </g>
   <g id="text_27">
    <!-- Demora promedio en cola C1 -->
    <g transform="translate(41.37367 182.928)scale(0.12 -0.12)">
     <use xlink:href="#DejaVuSans-68"/>
     <use x="77.001953" xlink:href="#DejaVuSans-101"/>
     <use x="138.525391" xlink:href="#DejaVuSans-109"/>
     <use x="235.9375" xlink:href="#DejaVuSans-111"/>
     <use x="297.119141" xlink:href="#DejaVuSans-114"/>
     <use x="338.232422" xlink:href="#DejaVuSans-97"/>
     <use x="399.511719" xlink:href="#DejaVuSans-32"/>
     <use x="431.298828" xlink:href="#DejaVuSans-112"/>
     <use x="494.775391" xlink:href="#DejaVuSans-114"/>
     <use x="535.857422" xlink:href="#DejaVuSans-111"/>
     <use x="597.039062" xlink:href="#DejaVuSans-109"/>
     <use x="694.451172" xlink:href="#DejaVuSans-101"/>
     <use x="755.974609" xlink:href="#DejaVuSans-100"/>
     <use x="819.451172" xlink:href="#DejaVuSans-105"/>
     <use x="847.234375" xlink:href="#DejaVuSans-111"/>
     <use x="908.416016" xlink:href="#DejaVuSans-32"/>
     <use x="940.203125" xlink:href="#DejaVuSans-101"/>
     <use x="1001.726562" xlink:href="#DejaVuSans-110"/>
     <use x="1065.105469" xlink:href="#DejaVuSans-32"/>
     <use x="1096.892578" xlink:href="#DejaVuSans-99"/>
     <use x="1151.873047" xlink:href="#DejaVuSans-111"/>
     <use x="1213.054688" xlink:href="#DejaVuSans-108"/>
     <use x="1240.837891" xlink:href="#DejaVuSans-97"/>
     <use x="1302.117188" xlink:href="#DejaVuSans-32"/>
     <use x="1333.904297" xlink:href="#DejaVuSans-67"/>
     <use x="1403.728516" xlink:href="#DejaVuSans-49"/>
    </g>
   </g>
  </g>
  <g id="axes_3">
   <g id="patch_12">
    <path d="M 271.08766 317.952 
L 437.76 317.952 
L 437.76 188.928 
L 271.08766 188.928 
z
" style="fill:#ffffff;"/>
   </g>
   <g id="matplotlib.axis_5">
    <g id="xtick_12">
     <g id="line2d_45">
      <path clip-path="url(#p9f0fa94ecf)" d="M 278.512003 317.952 
L 278.512003 188.928 
" style="fill:none;stroke:#b0b0b0;stroke-linecap:square;stroke-width:0.8;"/>
     </g>
     <g id="line2d_46">
      <g>
       <use style="stroke:#000000;stroke-width:0.8;" x="278.512003" xlink:href="#ma249b6af58" y="317.952"/>
      </g>
     </g>
     <g id="text_28">
      <!-- 0 -->
      <g transform="translate(275.330753 332.550437)scale(0.1 -0.1)">
       <use xlink:href="#DejaVuSans-48"/>
      </g>
     </g>
    </g>
    <g id="xtick_13">
     <g id="line2d_47">
      <path clip-path="url(#p9f0fa94ecf)" d="M 316.429998 317.952 
L 316.429998 188.928 
" style="fill:none;stroke:#b0b0b0;stroke-linecap:square;stroke-width:0.8;"/>
     </g>
     <g id="line2d_48">
      <g>
       <use style="stroke:#000000;stroke-width:0.8;" x="316.429998" xlink:href="#ma249b6af58" y="317.952"/>
      </g>
     </g>
     <g id="text_29">
      <!-- 250 -->
      <g transform="translate(306.886248 332.550437)scale(0.1 -0.1)">
       <use xlink:href="#DejaVuSans-50"/>
       <use x="63.623047" xlink:href="#DejaVuSans-53"/>
       <use x="127.246094" xlink:href="#DejaVuSans-48"/>
      </g>
     </g>
    </g>
    <g id="xtick_14">
     <g id="line2d_49">
      <path clip-path="url(#p9f0fa94ecf)" d="M 354.347994 317.952 
L 354.347994 188.928 
" style="fill:none;stroke:#b0b0b0;stroke-linecap:square;stroke-width:0.8;"/>
     </g>
     <g id="line2d_50">
      <g>
       <use style="stroke:#000000;stroke-width:0.8;" x="354.347994" xlink:href="#ma249b6af58" y="317.952"/>
      </g>
     </g>
     <g id="text_30">
      <!-- 500 -->
      <g transform="translate(344.804244 332.550437)scale(0.1 -0.1)">
       <use xlink:href="#DejaVuSans-53"/>
       <use x="63.623047" xlink:href="#DejaVuSans-48"/>
       <use x="127.246094" xlink:href="#DejaVuSans-48"/>
      </g>
     </g>
    </g>
    <g id="xtick_15">
     <g id="line2d_51">
      <path clip-path="url(#p9f0fa94ecf)" d="M 392.265989 317.952 
L 392.265989 188.928 
" style="fill:none;stroke:#b0b0b0;stroke-linecap:square;stroke-width:0.8;"/>
     </g>
     <g id="line2d_52">
      <g>
       <use style="stroke:#000000;stroke-width:0.8;" x="392.265989" xlink:href="#ma249b6af58" y="317.952"/>
      </g>
     </g>
     <g id="text_31">
      <!-- 750 -->
      <g transform="translate(382.722239 332.550437)scale(0.1 -0.1)">
       <use xlink:href="#DejaVuSans-55"/>
       <use x="63.623047" xlink:href="#DejaVuSans-53"/>
       <use x="127.246094" xlink:href="#DejaVuSans-48"/>
      </g>
     </g>
    </g>
    <g id="xtick_16">
     <g id="line2d_53">
      <path clip-path="url(#p9f0fa94ecf)" d="M 430.183985 317.952 
L 430.183985 188.928 
" style="fill:none;stroke:#b0b0b0;stroke-linecap:square;stroke-width:0.8;"/>
     </g>
     <g id="line2d_54">
      <g>
       <use style="stroke:#000000;stroke-width:0.8;" x="430.183985" xlink:href="#ma249b6af58" y="317.952"/>
      </g>
     </g>
     <g id="text_32">
      <!-- 1000 -->
      <g transform="translate(417.458985 332.550437)scale(0.1 -0.1)">
       <use xlink:href="#DejaVuSans-49"/>
       <use x="63.623047" xlink:href="#DejaVuSans-48"/>
       <use x="127.246094" xlink:href="#DejaVuSans-48"/>
       <use x="190.869141" xlink:href="#DejaVuSans-48"/>
      </g>
     </g>
    </g>
    <g id="text_33">
     <!-- Corridas -->
     <g transform="translate(333.530861 346.228563)scale(0.1 -0.1)">
      <use xlink:href="#DejaVuSans-67"/>
      <use x="69.824219" xlink:href="#DejaVuSans-111"/>
      <use x="131.005859" xlink:href="#DejaVuSans-114"/>
      <use x="172.103516" xlink:href="#DejaVuSans-114"/>
      <use x="213.216797" xlink:href="#DejaVuSans-105"/>
      <use x="241" xlink:href="#DejaVuSans-100"/>
      <use x="304.476562" xlink:href="#DejaVuSans-97"/>
      <use x="365.755859" xlink:href="#DejaVuSans-115"/>
     </g>
    </g>
   </g>
   <g id="matplotlib.axis_6">
    <g id="ytick_11">
     <g id="line2d_55">
      <path clip-path="url(#p9f0fa94ecf)" d="M 271.08766 302.741422 
L 437.76 302.741422 
" style="fill:none;stroke:#b0b0b0;stroke-linecap:square;stroke-width:0.8;"/>
     </g>
     <g id="line2d_56">
      <g>
       <use style="stroke:#000000;stroke-width:0.8;" x="271.08766" xlink:href="#m31066c7284" y="302.741422"/>
      </g>
     </g>
     <g id="text_34">
      <!-- 0.0400 -->
      <g transform="translate(229.097035 306.540641)scale(0.1 -0.1)">
       <use xlink:href="#DejaVuSans-48"/>
       <use x="63.623047" xlink:href="#DejaVuSans-46"/>
       <use x="95.410156" xlink:href="#DejaVuSans-48"/>
       <use x="159.033203" xlink:href="#DejaVuSans-52"/>
       <use x="222.65625" xlink:href="#DejaVuSans-48"/>
       <use x="286.279297" xlink:href="#DejaVuSans-48"/>
      </g>
     </g>
    </g>
    <g id="ytick_12">
     <g id="line2d_57">
      <path clip-path="url(#p9f0fa94ecf)" d="M 271.08766 280.371505 
L 437.76 280.371505 
" style="fill:none;stroke:#b0b0b0;stroke-linecap:square;stroke-width:0.8;"/>
     </g>
     <g id="line2d_58">
      <g>
       <use style="stroke:#000000;stroke-width:0.8;" x="271.08766" xlink:href="#m31066c7284" y="280.371505"/>
      </g>
     </g>
     <g id="text_35">
      <!-- 0.0425 -->
      <g transform="translate(229.097035 284.170724)scale(0.1 -0.1)">
       <use xlink:href="#DejaVuSans-48"/>
       <use x="63.623047" xlink:href="#DejaVuSans-46"/>
       <use x="95.410156" xlink:href="#DejaVuSans-48"/>
       <use x="159.033203" xlink:href="#DejaVuSans-52"/>
       <use x="222.65625" xlink:href="#DejaVuSans-50"/>
       <use x="286.279297" xlink:href="#DejaVuSans-53"/>
      </g>
     </g>
    </g>
    <g id="ytick_13">
     <g id="line2d_59">
      <path clip-path="url(#p9f0fa94ecf)" d="M 271.08766 258.001589 
L 437.76 258.001589 
" style="fill:none;stroke:#b0b0b0;stroke-linecap:square;stroke-width:0.8;"/>
     </g>
     <g id="line2d_60">
      <g>
       <use style="stroke:#000000;stroke-width:0.8;" x="271.08766" xlink:href="#m31066c7284" y="258.001589"/>
      </g>
     </g>
     <g id="text_36">
      <!-- 0.0450 -->
      <g transform="translate(229.097035 261.800808)scale(0.1 -0.1)">
       <use xlink:href="#DejaVuSans-48"/>
       <use x="63.623047" xlink:href="#DejaVuSans-46"/>
       <use x="95.410156" xlink:href="#DejaVuSans-48"/>
       <use x="159.033203" xlink:href="#DejaVuSans-52"/>
       <use x="222.65625" xlink:href="#DejaVuSans-53"/>
       <use x="286.279297" xlink:href="#DejaVuSans-48"/>
      </g>
     </g>
    </g>
    <g id="ytick_14">
     <g id="line2d_61">
      <path clip-path="url(#p9f0fa94ecf)" d="M 271.08766 235.631672 
L 437.76 235.631672 
" style="fill:none;stroke:#b0b0b0;stroke-linecap:square;stroke-width:0.8;"/>
     </g>
     <g id="line2d_62">
      <g>
       <use style="stroke:#000000;stroke-width:0.8;" x="271.08766" xlink:href="#m31066c7284" y="235.631672"/>
      </g>
     </g>
     <g id="text_37">
      <!-- 0.0475 -->
      <g transform="translate(229.097035 239.430891)scale(0.1 -0.1)">
       <use xlink:href="#DejaVuSans-48"/>
       <use x="63.623047" xlink:href="#DejaVuSans-46"/>
       <use x="95.410156" xlink:href="#DejaVuSans-48"/>
       <use x="159.033203" xlink:href="#DejaVuSans-52"/>
       <use x="222.65625" xlink:href="#DejaVuSans-55"/>
       <use x="286.279297" xlink:href="#DejaVuSans-53"/>
      </g>
     </g>
    </g>
    <g id="ytick_15">
     <g id="line2d_63">
      <path clip-path="url(#p9f0fa94ecf)" d="M 271.08766 213.261756 
L 437.76 213.261756 
" style="fill:none;stroke:#b0b0b0;stroke-linecap:square;stroke-width:0.8;"/>
     </g>
     <g id="line2d_64">
      <g>
       <use style="stroke:#000000;stroke-width:0.8;" x="271.08766" xlink:href="#m31066c7284" y="213.261756"/>
      </g>
     </g>
     <g id="text_38">
      <!-- 0.0500 -->
      <g transform="translate(229.097035 217.060975)scale(0.1 -0.1)">
       <use xlink:href="#DejaVuSans-48"/>
       <use x="63.623047" xlink:href="#DejaVuSans-46"/>
       <use x="95.410156" xlink:href="#DejaVuSans-48"/>
       <use x="159.033203" xlink:href="#DejaVuSans-53"/>
       <use x="222.65625" xlink:href="#DejaVuSans-48"/>
       <use x="286.279297" xlink:href="#DejaVuSans-48"/>
      </g>
     </g>
    </g>
    <g id="ytick_16">
     <g id="line2d_65">
      <path clip-path="url(#p9f0fa94ecf)" d="M 271.08766 190.891839 
L 437.76 190.891839 
" style="fill:none;stroke:#b0b0b0;stroke-linecap:square;stroke-width:0.8;"/>
     </g>
     <g id="line2d_66">
      <g>
       <use style="stroke:#000000;stroke-width:0.8;" x="271.08766" xlink:href="#m31066c7284" y="190.891839"/>
      </g>
     </g>
     <g id="text_39">
      <!-- 0.0525 -->
      <g transform="translate(229.097035 194.691058)scale(0.1 -0.1)">
       <use xlink:href="#DejaVuSans-48"/>
       <use x="63.623047" xlink:href="#DejaVuSans-46"/>
       <use x="95.410156" xlink:href="#DejaVuSans-48"/>
       <use x="159.033203" xlink:href="#DejaVuSans-53"/>
       <use x="222.65625" xlink:href="#DejaVuSans-50"/>
       <use x="286.279297" xlink:href="#DejaVuSans-53"/>
      </g>
     </g>
    </g>
    <g id="text_40">
     <!-- Demora -->
     <g transform="translate(223.017347 273.415781)rotate(-90)scale(0.1 -0.1)">
      <use xlink:href="#DejaVuSans-68"/>
      <use x="77.001953" xlink:href="#DejaVuSans-101"/>
      <use x="138.525391" xlink:href="#DejaVuSans-109"/>
      <use x="235.9375" xlink:href="#DejaVuSans-111"/>
      <use x="297.119141" xlink:href="#DejaVuSans-114"/>
      <use x="338.232422" xlink:href="#DejaVuSans-97"/>
     </g>
    </g>
   </g>
   <g id="line2d_67">
    <path clip-path="url(#p9f0fa94ecf)" d="M 278.663675 194.792727 
L 278.967019 312.087273 
L 279.118691 259.675162 
L 279.270363 273.165316 
L 279.422035 303.02007 
L 279.725379 290.628876 
L 279.877051 298.796593 
L 280.028723 292.409886 
L 280.180395 297.268325 
L 280.332067 294.660021 
L 280.483739 284.450594 
L 280.635411 282.312258 
L 280.787083 283.848415 
L 281.090427 271.386856 
L 281.242099 270.993544 
L 281.393771 265.594397 
L 281.848787 262.049552 
L 282.000459 264.517008 
L 282.455475 252.33549 
L 282.607147 253.112989 
L 282.910491 260.29223 
L 283.062163 257.758739 
L 283.213834 252.556544 
L 283.365506 253.941345 
L 283.517178 251.153093 
L 283.66885 252.184403 
L 283.972194 243.592949 
L 284.275538 248.277335 
L 284.578882 246.435921 
L 284.882226 236.855255 
L 285.033898 240.083333 
L 285.18557 236.443432 
L 285.337242 236.113553 
L 285.640586 232.97147 
L 285.94393 229.265486 
L 286.247274 230.309662 
L 286.550618 227.717363 
L 286.853962 230.348026 
L 287.005634 229.702923 
L 287.157306 229.858478 
L 287.308978 228.839095 
L 287.612322 230.535803 
L 287.763994 230.646834 
L 287.915666 232.241843 
L 288.370682 230.596268 
L 288.522354 231.631646 
L 288.674026 231.176244 
L 288.97737 236.792751 
L 289.129042 233.546258 
L 289.280714 236.421487 
L 289.584058 231.250554 
L 289.73573 229.655234 
L 289.887402 230.232245 
L 290.039074 231.606336 
L 290.190746 230.171545 
L 290.342418 230.216978 
L 290.49409 229.29791 
L 290.645762 230.919176 
L 290.797434 231.08435 
L 291.100778 234.222088 
L 291.404121 236.919318 
L 291.859137 236.077566 
L 292.162481 232.124418 
L 292.314153 232.871614 
L 292.465825 232.506826 
L 292.769169 235.134835 
L 292.920841 235.907046 
L 293.224185 234.50493 
L 293.375857 234.186927 
L 293.679201 235.764001 
L 293.830873 236.508936 
L 293.982545 238.002628 
L 294.134217 235.615473 
L 294.285889 235.190434 
L 294.437561 236.219479 
L 294.740905 234.39082 
L 295.044249 235.438246 
L 295.195921 235.243652 
L 295.347593 235.680282 
L 295.802609 233.013671 
L 295.954281 232.380948 
L 296.105953 232.54503 
L 296.257625 231.377116 
L 296.409297 231.464841 
L 296.560969 230.752 
L 296.712641 231.504988 
L 296.864313 231.466538 
L 297.319329 233.771911 
L 297.471001 234.006955 
L 297.622673 235.185497 
L 297.774345 234.801181 
L 298.077689 235.109929 
L 298.684377 237.226524 
L 298.836049 237.517935 
L 299.139393 235.315717 
L 299.442737 236.065666 
L 299.594408 235.81161 
L 299.897752 234.795966 
L 300.049424 235.781576 
L 300.201096 235.737 
L 300.352768 236.594856 
L 300.50444 236.518883 
L 300.807784 237.287031 
L 300.959456 236.556211 
L 301.111128 236.810844 
L 301.2628 236.545211 
L 301.414472 237.008548 
L 301.566144 237.053732 
L 301.717816 237.281559 
L 302.02116 235.116151 
L 302.172832 235.6326 
L 302.324504 236.747574 
L 302.627848 235.313144 
L 302.77952 235.964483 
L 302.931192 235.82947 
L 303.234536 237.109188 
L 303.386208 238.55298 
L 303.53788 238.865679 
L 303.689552 239.631795 
L 303.992896 239.54252 
L 304.144568 238.495108 
L 304.29624 238.638586 
L 304.447912 237.854925 
L 304.902928 239.127368 
L 305.206272 237.979786 
L 305.509616 238.157501 
L 305.661288 238.059675 
L 305.964632 238.837149 
L 306.116304 238.65096 
L 306.419648 238.072451 
L 306.57132 238.363494 
L 306.722992 237.970052 
L 307.026336 238.66533 
L 307.481352 237.8778 
L 307.633024 237.032923 
L 307.784695 237.416644 
L 307.936367 237.19275 
L 308.088039 236.017778 
L 308.239711 236.481162 
L 308.391383 235.858375 
L 308.694727 237.139192 
L 308.846399 237.387725 
L 308.998071 237.093069 
L 309.149743 237.526245 
L 309.301415 237.623093 
L 309.453087 238.173532 
L 309.604759 238.146916 
L 309.756431 238.234588 
L 310.059775 240.409685 
L 310.211447 240.746621 
L 310.363119 240.40317 
L 310.666463 240.810773 
L 310.818135 240.423157 
L 310.969807 241.155634 
L 311.424823 240.043108 
L 311.879839 240.737031 
L 312.334855 240.458316 
L 312.638199 241.364713 
L 312.789871 241.282688 
L 312.941543 242.155638 
L 313.093215 242.274807 
L 313.244887 241.714542 
L 313.396559 241.623093 
L 313.699903 240.218221 
L 313.851575 240.917723 
L 314.003247 240.821106 
L 314.154919 241.136037 
L 314.306591 241.056526 
L 314.458263 240.618531 
L 314.609935 240.934432 
L 315.064951 240.980882 
L 315.216623 240.526508 
L 315.519967 241.361685 
L 315.671639 241.638586 
L 315.823311 241.397895 
L 316.126654 242.414888 
L 316.278326 241.585158 
L 316.429998 241.495056 
L 316.58167 241.6704 
L 316.885014 241.474648 
L 317.036686 241.316438 
L 317.491702 241.567193 
L 317.643374 242.237052 
L 317.795046 241.581345 
L 318.09839 241.562703 
L 318.250062 241.263843 
L 318.553406 240.013169 
L 318.705078 239.695725 
L 318.85675 239.656974 
L 319.61511 240.675785 
L 319.766782 240.646221 
L 319.918454 240.89873 
L 320.070126 240.479057 
L 320.676814 240.376859 
L 320.980158 240.88775 
L 321.13183 239.92277 
L 321.435174 240.339836 
L 321.738518 240.915047 
L 321.89019 241.291649 
L 322.041862 241.300131 
L 322.345206 242.066276 
L 322.496878 241.663499 
L 322.64855 241.867952 
L 322.800222 241.698196 
L 322.951894 241.758099 
L 323.103566 241.143335 
L 323.255238 241.569155 
L 323.710254 240.662093 
L 324.013598 240.97419 
L 324.165269 240.793341 
L 324.316941 241.06144 
L 324.620285 240.761494 
L 325.075301 240.124722 
L 325.226973 240.421401 
L 325.378645 240.111436 
L 325.530317 240.53656 
L 325.833661 240.328424 
L 325.985333 240.507125 
L 326.137005 240.335724 
L 326.288677 240.546169 
L 326.440349 240.232523 
L 327.047037 241.243085 
L 327.198709 240.685516 
L 327.502053 241.159274 
L 327.653725 241.085686 
L 327.805397 241.353072 
L 328.108741 241.127704 
L 328.260413 241.601688 
L 328.563757 241.097453 
L 328.715429 241.51694 
L 328.867101 241.392784 
L 329.018773 241.600441 
L 329.170445 241.438797 
L 329.473789 241.898885 
L 329.625461 241.763072 
L 329.777133 242.014322 
L 330.232149 241.007007 
L 330.383821 241.107593 
L 330.838837 240.452857 
L 331.142181 240.477231 
L 331.445525 239.169482 
L 331.597197 239.081262 
L 332.052213 239.483719 
L 332.203885 239.954561 
L 332.355556 239.919276 
L 332.6589 240.103085 
L 332.962244 240.103947 
L 333.113916 240.448423 
L 333.265588 240.203588 
L 333.41726 240.242902 
L 333.568932 240.580143 
L 333.720604 240.415763 
L 334.023948 239.92477 
L 334.327292 240.520566 
L 334.630636 240.295359 
L 334.782308 240.378773 
L 334.93398 240.320821 
L 335.085652 240.631053 
L 335.237324 240.200053 
L 335.540668 240.50001 
L 335.844012 240.279731 
L 335.995684 239.870291 
L 336.299028 239.944395 
L 336.4507 239.998056 
L 336.905716 239.073502 
L 337.20906 239.666058 
L 337.512404 238.947841 
L 337.664076 238.686598 
L 337.96742 239.017836 
L 338.119092 239.32617 
L 338.270764 239.266263 
L 338.574108 239.915369 
L 338.72578 239.419718 
L 339.029124 239.647066 
L 339.180796 239.53049 
L 339.332468 239.704948 
L 339.48414 239.610617 
L 339.635812 239.922182 
L 339.939156 239.625097 
L 340.090828 239.763401 
L 340.2425 239.604961 
L 340.394172 239.69666 
L 340.697515 239.235523 
L 341.455875 240.026666 
L 341.607547 239.807013 
L 341.759219 240.199239 
L 342.062563 240.144195 
L 342.214235 240.067582 
L 342.365907 239.841714 
L 342.517579 239.968154 
L 342.669251 240.240925 
L 342.972595 239.714916 
L 343.275939 239.73742 
L 343.427611 240.059375 
L 343.579283 240.105354 
L 343.730955 239.945908 
L 343.882627 239.997998 
L 344.185971 239.600448 
L 344.489315 240.203275 
L 344.640987 240.227941 
L 344.792659 239.870584 
L 344.944331 239.901699 
L 345.247675 240.111201 
L 345.399347 239.95039 
L 345.551019 240.005233 
L 345.702691 240.24603 
L 345.854363 240.137282 
L 346.157707 240.292873 
L 346.461051 240.504898 
L 346.612723 240.333941 
L 346.916067 239.687905 
L 347.371083 239.939364 
L 347.826099 239.811854 
L 347.977771 239.807256 
L 348.129443 239.65695 
L 348.432787 240.061717 
L 348.73613 240.634652 
L 349.039474 241.053961 
L 349.797834 240.72163 
L 350.101178 241.066178 
L 350.404522 241.620076 
L 350.556194 241.626524 
L 350.859538 241.193712 
L 351.162882 241.557158 
L 351.466226 241.336726 
L 351.76957 241.463439 
L 351.921242 240.754705 
L 352.224586 241.178514 
L 352.376258 241.135283 
L 352.679602 241.283331 
L 352.831274 241.250445 
L 353.134618 241.42609 
L 353.28629 241.358908 
L 353.437962 241.56466 
L 353.589634 241.377477 
L 353.741306 240.973994 
L 353.892978 240.927021 
L 354.196322 241.494927 
L 354.347994 241.144109 
L 354.954682 241.543801 
L 355.106354 241.334945 
L 355.409698 240.633909 
L 355.56137 240.573209 
L 355.713042 240.66628 
L 355.864714 240.355646 
L 356.016386 240.318729 
L 356.168058 240.475824 
L 356.31973 240.114156 
L 356.471402 240.0775 
L 356.926417 240.458202 
L 357.229761 240.524966 
L 357.381433 240.669088 
L 357.684777 241.169048 
L 357.836449 241.228775 
L 358.139793 241.062427 
L 358.443137 241.277366 
L 358.594809 241.0372 
L 358.746481 241.064673 
L 359.504841 240.604178 
L 359.808185 240.81512 
L 360.414873 241.475763 
L 360.718217 241.776151 
L 361.021561 241.606199 
L 361.173233 241.729371 
L 361.324905 241.428406 
L 361.476577 241.564486 
L 361.779921 241.265068 
L 361.931593 241.211051 
L 362.538281 241.554979 
L 362.689953 241.582488 
L 362.841625 241.496946 
L 362.993297 241.803139 
L 363.599985 241.91883 
L 364.055001 241.70281 
L 364.358345 241.608447 
L 364.510017 241.791774 
L 364.661689 241.782037 
L 364.965032 241.609657 
L 365.116704 241.675866 
L 365.268376 241.880109 
L 365.420048 241.767989 
L 365.723392 241.9745 
L 365.875064 241.644267 
L 366.026736 241.65162 
L 366.178408 241.444509 
L 366.33008 241.563717 
L 366.481752 241.320537 
L 366.633424 241.43096 
L 366.785096 241.016856 
L 367.08844 240.883444 
L 367.240112 240.757065 
L 367.543456 240.948356 
L 367.8468 240.542601 
L 367.998472 240.732049 
L 368.60516 239.931801 
L 368.756832 240.147351 
L 368.908504 239.93016 
L 369.060176 239.913998 
L 369.211848 240.195784 
L 369.515192 240.125618 
L 369.666864 240.394254 
L 370.12188 240.261488 
L 370.273552 240.13095 
L 370.576896 240.447929 
L 370.728568 240.487096 
L 370.88024 240.32061 
L 371.335256 240.748094 
L 371.6386 240.437441 
L 371.790272 240.539417 
L 372.093616 240.382642 
L 372.245288 240.575913 
L 372.39696 240.554817 
L 372.700304 239.860731 
L 373.003648 240.023965 
L 373.155319 240.087701 
L 373.610335 239.605385 
L 373.762007 239.687211 
L 373.913679 239.492448 
L 374.368695 239.699492 
L 374.672039 239.629261 
L 374.975383 239.60514 
L 375.430399 239.840818 
L 375.733743 239.495137 
L 375.885415 239.614031 
L 376.188759 239.247922 
L 376.643775 239.38285 
L 376.795447 239.22198 
L 376.947119 239.255016 
L 377.098791 239.548178 
L 377.250463 239.49887 
L 377.402135 239.747665 
L 377.553807 239.778177 
L 377.705479 239.968776 
L 377.857151 239.892147 
L 378.312167 240.092524 
L 378.463839 239.872116 
L 378.615511 239.910658 
L 378.767183 239.694217 
L 378.918855 239.738623 
L 379.070527 239.899571 
L 379.525543 239.82681 
L 379.828887 240.014373 
L 379.980559 239.966976 
L 380.132231 240.09761 
L 380.283903 239.665346 
L 380.435575 239.891379 
L 380.587247 239.859842 
L 381.042263 240.412147 
L 381.193935 240.21874 
L 381.64895 240.325719 
L 381.800622 240.365214 
L 382.103966 240.183696 
L 382.255638 240.278919 
L 382.40731 240.078559 
L 382.558982 240.141149 
L 382.710654 240.341374 
L 383.013998 240.357601 
L 383.317342 240.385107 
L 383.469014 240.738107 
L 383.772358 240.326371 
L 384.379046 240.281793 
L 384.68239 240.525179 
L 385.289078 240.552563 
L 386.047438 241.062501 
L 386.350782 241.06581 
L 386.805798 240.876926 
L 386.95747 240.601579 
L 387.109142 240.630595 
L 387.260814 240.419464 
L 387.564158 240.555489 
L 387.71583 240.556622 
L 388.170846 240.850106 
L 388.322518 240.708408 
L 388.47419 240.917651 
L 388.929206 240.669974 
L 389.080878 240.640616 
L 389.23255 240.744444 
L 389.384222 240.646294 
L 389.535893 240.751548 
L 389.687565 240.638362 
L 389.990909 240.640535 
L 390.294253 240.588466 
L 391.204285 240.973922 
L 391.355957 240.443611 
L 391.507629 240.547996 
L 391.810973 240.482134 
L 392.114317 240.522961 
L 392.265989 240.467459 
L 392.417661 240.555943 
L 392.569333 240.199402 
L 392.721005 240.317996 
L 393.024349 240.195758 
L 393.479365 240.528317 
L 393.934381 240.673376 
L 394.541069 240.415598 
L 394.692741 240.274688 
L 394.844413 240.378158 
L 394.996085 240.266696 
L 395.602773 240.473585 
L 395.906117 240.251361 
L 396.209461 240.436544 
L 396.512805 240.723475 
L 396.967821 240.68891 
L 397.271165 240.714965 
L 397.574509 240.76555 
L 397.72618 240.573484 
L 397.877852 240.637097 
L 398.029524 240.853302 
L 398.181196 240.715035 
L 398.332868 240.785622 
L 398.48454 240.466115 
L 399.546244 241.034125 
L 399.849588 241.352223 
L 400.304604 241.139823 
L 400.607948 241.051128 
L 401.062964 240.585811 
L 401.366308 240.824306 
L 401.51798 240.637201 
L 401.821324 240.701636 
L 401.972996 240.711418 
L 402.27634 240.488137 
L 402.579684 240.803775 
L 403.0347 240.876769 
L 403.186372 240.671232 
L 403.338044 240.776053 
L 403.79306 240.516187 
L 404.096404 240.525173 
L 404.399748 240.126836 
L 404.55142 240.245428 
L 405.006436 240.035801 
L 405.158108 240.247757 
L 405.30978 240.183976 
L 405.764796 240.481456 
L 406.068139 240.266244 
L 407.584859 240.155792 
L 408.039875 240.45843 
L 408.191547 240.449771 
L 408.494891 240.701453 
L 408.949907 240.636351 
L 409.101579 240.456188 
L 409.708267 240.887016 
L 410.011611 240.82758 
L 411.073315 240.283036 
L 411.224987 240.481914 
L 411.376659 240.425902 
L 411.528331 240.604158 
L 411.680003 240.526526 
L 411.983347 240.533737 
L 412.135019 240.474894 
L 412.286691 240.569318 
L 412.438363 240.499886 
L 412.590035 240.604304 
L 412.893379 240.457085 
L 413.045051 240.440634 
L 413.348395 240.6525 
L 413.651739 240.703645 
L 413.803411 240.553875 
L 414.410098 240.669549 
L 414.713442 240.297275 
L 415.168458 240.457385 
L 415.623474 240.395799 
L 416.07849 240.812424 
L 416.685178 240.350762 
L 416.988522 240.271322 
L 417.59521 239.983909 
L 417.898554 240.160747 
L 418.050226 239.910599 
L 418.35357 240.015697 
L 418.808586 239.870864 
L 419.11193 239.986234 
L 419.263602 240.005202 
L 419.718618 240.3383 
L 419.87029 240.247236 
L 420.021962 240.294656 
L 420.173634 240.183609 
L 420.325306 240.257268 
L 420.62865 239.939694 
L 420.931994 239.848938 
L 421.083666 239.9403 
L 421.538682 239.821123 
L 421.842026 239.951736 
L 422.14537 240.011971 
L 422.752057 239.977574 
L 423.207073 240.226771 
L 423.510417 240.288612 
L 423.662089 240.411939 
L 423.813761 240.385956 
L 423.965433 240.499325 
L 424.117105 240.401377 
L 424.723793 240.746624 
L 424.875465 240.747574 
L 425.178809 241.010184 
L 425.330481 240.821757 
L 425.482153 241.010858 
L 425.937169 240.797022 
L 426.240513 241.163813 
L 426.847201 240.966486 
L 428.818937 240.952914 
L 429.273953 241.290543 
L 429.880641 241.24295 
L 430.032313 241.121773 
L 430.183985 241.194656 
L 430.183985 241.194656 
" style="fill:none;stroke:#1f77b4;stroke-linecap:square;stroke-width:1.5;"/>
   </g>
   <g id="patch_13">
    <path d="M 271.08766 317.952 
L 271.08766 188.928 
" style="fill:none;stroke:#000000;stroke-linecap:square;stroke-linejoin:miter;stroke-width:0.8;"/>
   </g>
   <g id="patch_14">
    <path d="M 437.76 317.952 
L 437.76 188.928 
" style="fill:none;stroke:#000000;stroke-linecap:square;stroke-linejoin:miter;stroke-width:0.8;"/>
   </g>
   <g id="patch_15">
    <path d="M 271.08766 317.952 
L 437.76 317.952 
" style="fill:none;stroke:#000000;stroke-linecap:square;stroke-linejoin:miter;stroke-width:0.8;"/>
   </g>
   <g id="patch_16">
    <path d="M 271.08766 188.928 
L 437.76 188.928 
" style="fill:none;stroke:#000000;stroke-linecap:square;stroke-linejoin:miter;stroke-width:0.8;"/>
   </g>
   <g id="text_41">
    <!-- Demora promedio en cola C2 -->
    <g transform="translate(266.38133 182.928)scale(0.12 -0.12)">
     <use xlink:href="#DejaVuSans-68"/>
     <use x="77.001953" xlink:href="#DejaVuSans-101"/>
     <use x="138.525391" xlink:href="#DejaVuSans-109"/>
     <use x="235.9375" xlink:href="#DejaVuSans-111"/>
     <use x="297.119141" xlink:href="#DejaVuSans-114"/>
     <use x="338.232422" xlink:href="#DejaVuSans-97"/>
     <use x="399.511719" xlink:href="#DejaVuSans-32"/>
     <use x="431.298828" xlink:href="#DejaVuSans-112"/>
     <use x="494.775391" xlink:href="#DejaVuSans-114"/>
     <use x="535.857422" xlink:href="#DejaVuSans-111"/>
     <use x="597.039062" xlink:href="#DejaVuSans-109"/>
     <use x="694.451172" xlink:href="#DejaVuSans-101"/>
     <use x="755.974609" xlink:href="#DejaVuSans-100"/>
     <use x="819.451172" xlink:href="#DejaVuSans-105"/>
     <use x="847.234375" xlink:href="#DejaVuSans-111"/>
     <use x="908.416016" xlink:href="#DejaVuSans-32"/>
     <use x="940.203125" xlink:href="#DejaVuSans-101"/>
     <use x="1001.726562" xlink:href="#DejaVuSans-110"/>
     <use x="1065.105469" xlink:href="#DejaVuSans-32"/>
     <use x="1096.892578" xlink:href="#DejaVuSans-99"/>
     <use x="1151.873047" xlink:href="#DejaVuSans-111"/>
     <use x="1213.054688" xlink:href="#DejaVuSans-108"/>
     <use x="1240.837891" xlink:href="#DejaVuSans-97"/>
     <use x="1302.117188" xlink:href="#DejaVuSans-32"/>
     <use x="1333.904297" xlink:href="#DejaVuSans-67"/>
     <use x="1403.728516" xlink:href="#DejaVuSans-50"/>
    </g>
   </g>
  </g>
 </g>
 <defs>
  <clipPath id="p599185d264">
   <rect height="129.024" width="391.68" x="46.08" y="27.648"/>
  </clipPath>
  <clipPath id="p4eddd08610">
   <rect height="129.024" width="166.67234" x="46.08" y="188.928"/>
  </clipPath>
  <clipPath id="p9f0fa94ecf">
   <rect height="129.024" width="166.67234" x="271.08766" y="188.928"/>
  </clipPath>
 </defs>
</svg>
