<?xml version="1.0" encoding="utf-8" standalone="no"?>
<!DOCTYPE svg PUBLIC "-//W3C//DTD SVG 1.1//EN"
  "http://www.w3.org/Graphics/SVG/1.1/DTD/svg11.dtd">
<!-- Created with matplotlib (https://matplotlib.org/) -->
<svg height="345.6pt" version="1.1" viewBox="0 0 460.8 345.6" width="460.8pt" xmlns="http://www.w3.org/2000/svg" xmlns:xlink="http://www.w3.org/1999/xlink">
 <defs>
  <style type="text/css">
*{stroke-linecap:butt;stroke-linejoin:round;}
  </style>
 </defs>
 <g id="figure_1">
  <g id="patch_1">
   <path d="M 0 345.6 
L 460.8 345.6 
L 460.8 0 
L 0 0 
z
" style="fill:#ffffff;"/>
  </g>
  <g id="axes_1">
   <g id="patch_2">
    <path d="M 46.08 156.672 
L 437.76 156.672 
L 437.76 27.648 
L 46.08 27.648 
z
" style="fill:#ffffff;"/>
   </g>
   <g id="matplotlib.axis_1">
    <g id="xtick_1">
     <g id="line2d_1">
      <path clip-path="url(#pe857a3fe34)" d="M 63.527207 156.672 
L 63.527207 27.648 
" style="fill:none;stroke:#b0b0b0;stroke-linecap:square;stroke-width:0.8;"/>
     </g>
     <g id="line2d_2">
      <defs>
       <path d="M 0 0 
L 0 3.5 
" id="m6c4018078b" style="stroke:#000000;stroke-width:0.8;"/>
      </defs>
      <g>
       <use style="stroke:#000000;stroke-width:0.8;" x="63.527207" xlink:href="#m6c4018078b" y="156.672"/>
      </g>
     </g>
     <g id="text_1">
      <!-- 0 -->
      <defs>
       <path d="M 31.78125 66.40625 
Q 24.171875 66.40625 20.328125 58.90625 
Q 16.5 51.421875 16.5 36.375 
Q 16.5 21.390625 20.328125 13.890625 
Q 24.171875 6.390625 31.78125 6.390625 
Q 39.453125 6.390625 43.28125 13.890625 
Q 47.125 21.390625 47.125 36.375 
Q 47.125 51.421875 43.28125 58.90625 
Q 39.453125 66.40625 31.78125 66.40625 
z
M 31.78125 74.21875 
Q 44.046875 74.21875 50.515625 64.515625 
Q 56.984375 54.828125 56.984375 36.375 
Q 56.984375 17.96875 50.515625 8.265625 
Q 44.046875 -1.421875 31.78125 -1.421875 
Q 19.53125 -1.421875 13.0625 8.265625 
Q 6.59375 17.96875 6.59375 36.375 
Q 6.59375 54.828125 13.0625 64.515625 
Q 19.53125 74.21875 31.78125 74.21875 
z
" id="DejaVuSans-48"/>
      </defs>
      <g transform="translate(60.345957 171.270437)scale(0.1 -0.1)">
       <use xlink:href="#DejaVuSans-48"/>
      </g>
     </g>
    </g>
    <g id="xtick_2">
     <g id="line2d_3">
      <path clip-path="url(#pe857a3fe34)" d="M 134.813038 156.672 
L 134.813038 27.648 
" style="fill:none;stroke:#b0b0b0;stroke-linecap:square;stroke-width:0.8;"/>
     </g>
     <g id="line2d_4">
      <g>
       <use style="stroke:#000000;stroke-width:0.8;" x="134.813038" xlink:href="#m6c4018078b" y="156.672"/>
      </g>
     </g>
     <g id="text_2">
      <!-- 200 -->
      <defs>
       <path d="M 19.1875 8.296875 
L 53.609375 8.296875 
L 53.609375 0 
L 7.328125 0 
L 7.328125 8.296875 
Q 12.9375 14.109375 22.625 23.890625 
Q 32.328125 33.6875 34.8125 36.53125 
Q 39.546875 41.84375 41.421875 45.53125 
Q 43.3125 49.21875 43.3125 52.78125 
Q 43.3125 58.59375 39.234375 62.25 
Q 35.15625 65.921875 28.609375 65.921875 
Q 23.96875 65.921875 18.8125 64.3125 
Q 13.671875 62.703125 7.8125 59.421875 
L 7.8125 69.390625 
Q 13.765625 71.78125 18.9375 73 
Q 24.125 74.21875 28.421875 74.21875 
Q 39.75 74.21875 46.484375 68.546875 
Q 53.21875 62.890625 53.21875 53.421875 
Q 53.21875 48.921875 51.53125 44.890625 
Q 49.859375 40.875 45.40625 35.40625 
Q 44.1875 33.984375 37.640625 27.21875 
Q 31.109375 20.453125 19.1875 8.296875 
z
" id="DejaVuSans-50"/>
      </defs>
      <g transform="translate(125.269288 171.270437)scale(0.1 -0.1)">
       <use xlink:href="#DejaVuSans-50"/>
       <use x="63.623047" xlink:href="#DejaVuSans-48"/>
       <use x="127.246094" xlink:href="#DejaVuSans-48"/>
      </g>
     </g>
    </g>
    <g id="xtick_3">
     <g id="line2d_5">
      <path clip-path="url(#pe857a3fe34)" d="M 206.09887 156.672 
L 206.09887 27.648 
" style="fill:none;stroke:#b0b0b0;stroke-linecap:square;stroke-width:0.8;"/>
     </g>
     <g id="line2d_6">
      <g>
       <use style="stroke:#000000;stroke-width:0.8;" x="206.09887" xlink:href="#m6c4018078b" y="156.672"/>
      </g>
     </g>
     <g id="text_3">
      <!-- 400 -->
      <defs>
       <path d="M 37.796875 64.3125 
L 12.890625 25.390625 
L 37.796875 25.390625 
z
M 35.203125 72.90625 
L 47.609375 72.90625 
L 47.609375 25.390625 
L 58.015625 25.390625 
L 58.015625 17.1875 
L 47.609375 17.1875 
L 47.609375 0 
L 37.796875 0 
L 37.796875 17.1875 
L 4.890625 17.1875 
L 4.890625 26.703125 
z
" id="DejaVuSans-52"/>
      </defs>
      <g transform="translate(196.55512 171.270437)scale(0.1 -0.1)">
       <use xlink:href="#DejaVuSans-52"/>
       <use x="63.623047" xlink:href="#DejaVuSans-48"/>
       <use x="127.246094" xlink:href="#DejaVuSans-48"/>
      </g>
     </g>
    </g>
    <g id="xtick_4">
     <g id="line2d_7">
      <path clip-path="url(#pe857a3fe34)" d="M 277.384701 156.672 
L 277.384701 27.648 
" style="fill:none;stroke:#b0b0b0;stroke-linecap:square;stroke-width:0.8;"/>
     </g>
     <g id="line2d_8">
      <g>
       <use style="stroke:#000000;stroke-width:0.8;" x="277.384701" xlink:href="#m6c4018078b" y="156.672"/>
      </g>
     </g>
     <g id="text_4">
      <!-- 600 -->
      <defs>
       <path d="M 33.015625 40.375 
Q 26.375 40.375 22.484375 35.828125 
Q 18.609375 31.296875 18.609375 23.390625 
Q 18.609375 15.53125 22.484375 10.953125 
Q 26.375 6.390625 33.015625 6.390625 
Q 39.65625 6.390625 43.53125 10.953125 
Q 47.40625 15.53125 47.40625 23.390625 
Q 47.40625 31.296875 43.53125 35.828125 
Q 39.65625 40.375 33.015625 40.375 
z
M 52.59375 71.296875 
L 52.59375 62.3125 
Q 48.875 64.0625 45.09375 64.984375 
Q 41.3125 65.921875 37.59375 65.921875 
Q 27.828125 65.921875 22.671875 59.328125 
Q 17.53125 52.734375 16.796875 39.40625 
Q 19.671875 43.65625 24.015625 45.921875 
Q 28.375 48.1875 33.59375 48.1875 
Q 44.578125 48.1875 50.953125 41.515625 
Q 57.328125 34.859375 57.328125 23.390625 
Q 57.328125 12.15625 50.6875 5.359375 
Q 44.046875 -1.421875 33.015625 -1.421875 
Q 20.359375 -1.421875 13.671875 8.265625 
Q 6.984375 17.96875 6.984375 36.375 
Q 6.984375 53.65625 15.1875 63.9375 
Q 23.390625 74.21875 37.203125 74.21875 
Q 40.921875 74.21875 44.703125 73.484375 
Q 48.484375 72.75 52.59375 71.296875 
z
" id="DejaVuSans-54"/>
      </defs>
      <g transform="translate(267.840951 171.270437)scale(0.1 -0.1)">
       <use xlink:href="#DejaVuSans-54"/>
       <use x="63.623047" xlink:href="#DejaVuSans-48"/>
       <use x="127.246094" xlink:href="#DejaVuSans-48"/>
      </g>
     </g>
    </g>
    <g id="xtick_5">
     <g id="line2d_9">
      <path clip-path="url(#pe857a3fe34)" d="M 348.670532 156.672 
L 348.670532 27.648 
" style="fill:none;stroke:#b0b0b0;stroke-linecap:square;stroke-width:0.8;"/>
     </g>
     <g id="line2d_10">
      <g>
       <use style="stroke:#000000;stroke-width:0.8;" x="348.670532" xlink:href="#m6c4018078b" y="156.672"/>
      </g>
     </g>
     <g id="text_5">
      <!-- 800 -->
      <defs>
       <path d="M 31.78125 34.625 
Q 24.75 34.625 20.71875 30.859375 
Q 16.703125 27.09375 16.703125 20.515625 
Q 16.703125 13.921875 20.71875 10.15625 
Q 24.75 6.390625 31.78125 6.390625 
Q 38.8125 6.390625 42.859375 10.171875 
Q 46.921875 13.96875 46.921875 20.515625 
Q 46.921875 27.09375 42.890625 30.859375 
Q 38.875 34.625 31.78125 34.625 
z
M 21.921875 38.8125 
Q 15.578125 40.375 12.03125 44.71875 
Q 8.5 49.078125 8.5 55.328125 
Q 8.5 64.0625 14.71875 69.140625 
Q 20.953125 74.21875 31.78125 74.21875 
Q 42.671875 74.21875 48.875 69.140625 
Q 55.078125 64.0625 55.078125 55.328125 
Q 55.078125 49.078125 51.53125 44.71875 
Q 48 40.375 41.703125 38.8125 
Q 48.828125 37.15625 52.796875 32.3125 
Q 56.78125 27.484375 56.78125 20.515625 
Q 56.78125 9.90625 50.3125 4.234375 
Q 43.84375 -1.421875 31.78125 -1.421875 
Q 19.734375 -1.421875 13.25 4.234375 
Q 6.78125 9.90625 6.78125 20.515625 
Q 6.78125 27.484375 10.78125 32.3125 
Q 14.796875 37.15625 21.921875 38.8125 
z
M 18.3125 54.390625 
Q 18.3125 48.734375 21.84375 45.5625 
Q 25.390625 42.390625 31.78125 42.390625 
Q 38.140625 42.390625 41.71875 45.5625 
Q 45.3125 48.734375 45.3125 54.390625 
Q 45.3125 60.0625 41.71875 63.234375 
Q 38.140625 66.40625 31.78125 66.40625 
Q 25.390625 66.40625 21.84375 63.234375 
Q 18.3125 60.0625 18.3125 54.390625 
z
" id="DejaVuSans-56"/>
      </defs>
      <g transform="translate(339.126782 171.270437)scale(0.1 -0.1)">
       <use xlink:href="#DejaVuSans-56"/>
       <use x="63.623047" xlink:href="#DejaVuSans-48"/>
       <use x="127.246094" xlink:href="#DejaVuSans-48"/>
      </g>
     </g>
    </g>
    <g id="xtick_6">
     <g id="line2d_11">
      <path clip-path="url(#pe857a3fe34)" d="M 419.956364 156.672 
L 419.956364 27.648 
" style="fill:none;stroke:#b0b0b0;stroke-linecap:square;stroke-width:0.8;"/>
     </g>
     <g id="line2d_12">
      <g>
       <use style="stroke:#000000;stroke-width:0.8;" x="419.956364" xlink:href="#m6c4018078b" y="156.672"/>
      </g>
     </g>
     <g id="text_6">
      <!-- 1000 -->
      <defs>
       <path d="M 12.40625 8.296875 
L 28.515625 8.296875 
L 28.515625 63.921875 
L 10.984375 60.40625 
L 10.984375 69.390625 
L 28.421875 72.90625 
L 38.28125 72.90625 
L 38.28125 8.296875 
L 54.390625 8.296875 
L 54.390625 0 
L 12.40625 0 
z
" id="DejaVuSans-49"/>
      </defs>
      <g transform="translate(407.231364 171.270437)scale(0.1 -0.1)">
       <use xlink:href="#DejaVuSans-49"/>
       <use x="63.623047" xlink:href="#DejaVuSans-48"/>
       <use x="127.246094" xlink:href="#DejaVuSans-48"/>
       <use x="190.869141" xlink:href="#DejaVuSans-48"/>
      </g>
     </g>
    </g>
    <g id="text_7">
     <!-- Corridas -->
     <defs>
      <path d="M 64.40625 67.28125 
L 64.40625 56.890625 
Q 59.421875 61.53125 53.78125 63.8125 
Q 48.140625 66.109375 41.796875 66.109375 
Q 29.296875 66.109375 22.65625 58.46875 
Q 16.015625 50.828125 16.015625 36.375 
Q 16.015625 21.96875 22.65625 14.328125 
Q 29.296875 6.6875 41.796875 6.6875 
Q 48.140625 6.6875 53.78125 8.984375 
Q 59.421875 11.28125 64.40625 15.921875 
L 64.40625 5.609375 
Q 59.234375 2.09375 53.4375 0.328125 
Q 47.65625 -1.421875 41.21875 -1.421875 
Q 24.65625 -1.421875 15.125 8.703125 
Q 5.609375 18.84375 5.609375 36.375 
Q 5.609375 53.953125 15.125 64.078125 
Q 24.65625 74.21875 41.21875 74.21875 
Q 47.75 74.21875 53.53125 72.484375 
Q 59.328125 70.75 64.40625 67.28125 
z
" id="DejaVuSans-67"/>
      <path d="M 30.609375 48.390625 
Q 23.390625 48.390625 19.1875 42.75 
Q 14.984375 37.109375 14.984375 27.296875 
Q 14.984375 17.484375 19.15625 11.84375 
Q 23.34375 6.203125 30.609375 6.203125 
Q 37.796875 6.203125 41.984375 11.859375 
Q 46.1875 17.53125 46.1875 27.296875 
Q 46.1875 37.015625 41.984375 42.703125 
Q 37.796875 48.390625 30.609375 48.390625 
z
M 30.609375 56 
Q 42.328125 56 49.015625 48.375 
Q 55.71875 40.765625 55.71875 27.296875 
Q 55.71875 13.875 49.015625 6.21875 
Q 42.328125 -1.421875 30.609375 -1.421875 
Q 18.84375 -1.421875 12.171875 6.21875 
Q 5.515625 13.875 5.515625 27.296875 
Q 5.515625 40.765625 12.171875 48.375 
Q 18.84375 56 30.609375 56 
z
" id="DejaVuSans-111"/>
      <path d="M 41.109375 46.296875 
Q 39.59375 47.171875 37.8125 47.578125 
Q 36.03125 48 33.890625 48 
Q 26.265625 48 22.1875 43.046875 
Q 18.109375 38.09375 18.109375 28.8125 
L 18.109375 0 
L 9.078125 0 
L 9.078125 54.6875 
L 18.109375 54.6875 
L 18.109375 46.1875 
Q 20.953125 51.171875 25.484375 53.578125 
Q 30.03125 56 36.53125 56 
Q 37.453125 56 38.578125 55.875 
Q 39.703125 55.765625 41.0625 55.515625 
z
" id="DejaVuSans-114"/>
      <path d="M 9.421875 54.6875 
L 18.40625 54.6875 
L 18.40625 0 
L 9.421875 0 
z
M 9.421875 75.984375 
L 18.40625 75.984375 
L 18.40625 64.59375 
L 9.421875 64.59375 
z
" id="DejaVuSans-105"/>
      <path d="M 45.40625 46.390625 
L 45.40625 75.984375 
L 54.390625 75.984375 
L 54.390625 0 
L 45.40625 0 
L 45.40625 8.203125 
Q 42.578125 3.328125 38.25 0.953125 
Q 33.9375 -1.421875 27.875 -1.421875 
Q 17.96875 -1.421875 11.734375 6.484375 
Q 5.515625 14.40625 5.515625 27.296875 
Q 5.515625 40.1875 11.734375 48.09375 
Q 17.96875 56 27.875 56 
Q 33.9375 56 38.25 53.625 
Q 42.578125 51.265625 45.40625 46.390625 
z
M 14.796875 27.296875 
Q 14.796875 17.390625 18.875 11.75 
Q 22.953125 6.109375 30.078125 6.109375 
Q 37.203125 6.109375 41.296875 11.75 
Q 45.40625 17.390625 45.40625 27.296875 
Q 45.40625 37.203125 41.296875 42.84375 
Q 37.203125 48.484375 30.078125 48.484375 
Q 22.953125 48.484375 18.875 42.84375 
Q 14.796875 37.203125 14.796875 27.296875 
z
" id="DejaVuSans-100"/>
      <path d="M 34.28125 27.484375 
Q 23.390625 27.484375 19.1875 25 
Q 14.984375 22.515625 14.984375 16.5 
Q 14.984375 11.71875 18.140625 8.90625 
Q 21.296875 6.109375 26.703125 6.109375 
Q 34.1875 6.109375 38.703125 11.40625 
Q 43.21875 16.703125 43.21875 25.484375 
L 43.21875 27.484375 
z
M 52.203125 31.203125 
L 52.203125 0 
L 43.21875 0 
L 43.21875 8.296875 
Q 40.140625 3.328125 35.546875 0.953125 
Q 30.953125 -1.421875 24.3125 -1.421875 
Q 15.921875 -1.421875 10.953125 3.296875 
Q 6 8.015625 6 15.921875 
Q 6 25.140625 12.171875 29.828125 
Q 18.359375 34.515625 30.609375 34.515625 
L 43.21875 34.515625 
L 43.21875 35.40625 
Q 43.21875 41.609375 39.140625 45 
Q 35.0625 48.390625 27.6875 48.390625 
Q 23 48.390625 18.546875 47.265625 
Q 14.109375 46.140625 10.015625 43.890625 
L 10.015625 52.203125 
Q 14.9375 54.109375 19.578125 55.046875 
Q 24.21875 56 28.609375 56 
Q 40.484375 56 46.34375 49.84375 
Q 52.203125 43.703125 52.203125 31.203125 
z
" id="DejaVuSans-97"/>
      <path d="M 44.28125 53.078125 
L 44.28125 44.578125 
Q 40.484375 46.53125 36.375 47.5 
Q 32.28125 48.484375 27.875 48.484375 
Q 21.1875 48.484375 17.84375 46.4375 
Q 14.5 44.390625 14.5 40.28125 
Q 14.5 37.15625 16.890625 35.375 
Q 19.28125 33.59375 26.515625 31.984375 
L 29.59375 31.296875 
Q 39.15625 29.25 43.1875 25.515625 
Q 47.21875 21.78125 47.21875 15.09375 
Q 47.21875 7.46875 41.1875 3.015625 
Q 35.15625 -1.421875 24.609375 -1.421875 
Q 20.21875 -1.421875 15.453125 -0.5625 
Q 10.6875 0.296875 5.421875 2 
L 5.421875 11.28125 
Q 10.40625 8.6875 15.234375 7.390625 
Q 20.0625 6.109375 24.8125 6.109375 
Q 31.15625 6.109375 34.5625 8.28125 
Q 37.984375 10.453125 37.984375 14.40625 
Q 37.984375 18.0625 35.515625 20.015625 
Q 33.0625 21.96875 24.703125 23.78125 
L 21.578125 24.515625 
Q 13.234375 26.265625 9.515625 29.90625 
Q 5.8125 33.546875 5.8125 39.890625 
Q 5.8125 47.609375 11.28125 51.796875 
Q 16.75 56 26.8125 56 
Q 31.78125 56 36.171875 55.265625 
Q 40.578125 54.546875 44.28125 53.078125 
z
" id="DejaVuSans-115"/>
     </defs>
     <g transform="translate(221.027031 184.948562)scale(0.1 -0.1)">
      <use xlink:href="#DejaVuSans-67"/>
      <use x="69.824219" xlink:href="#DejaVuSans-111"/>
      <use x="131.005859" xlink:href="#DejaVuSans-114"/>
      <use x="172.103516" xlink:href="#DejaVuSans-114"/>
      <use x="213.216797" xlink:href="#DejaVuSans-105"/>
      <use x="241" xlink:href="#DejaVuSans-100"/>
      <use x="304.476562" xlink:href="#DejaVuSans-97"/>
      <use x="365.755859" xlink:href="#DejaVuSans-115"/>
     </g>
    </g>
   </g>
   <g id="matplotlib.axis_2">
    <g id="ytick_1">
     <g id="line2d_13">
      <path clip-path="url(#pe857a3fe34)" d="M 46.08 126.150418 
L 437.76 126.150418 
" style="fill:none;stroke:#b0b0b0;stroke-linecap:square;stroke-width:0.8;"/>
     </g>
     <g id="line2d_14">
      <defs>
       <path d="M 0 0 
L -3.5 0 
" id="m9c64e96c01" style="stroke:#000000;stroke-width:0.8;"/>
      </defs>
      <g>
       <use style="stroke:#000000;stroke-width:0.8;" x="46.08" xlink:href="#m9c64e96c01" y="126.150418"/>
      </g>
     </g>
     <g id="text_8">
      <!-- 0.070 -->
      <defs>
       <path d="M 10.6875 12.40625 
L 21 12.40625 
L 21 0 
L 10.6875 0 
z
" id="DejaVuSans-46"/>
       <path d="M 8.203125 72.90625 
L 55.078125 72.90625 
L 55.078125 68.703125 
L 28.609375 0 
L 18.3125 0 
L 43.21875 64.59375 
L 8.203125 64.59375 
z
" id="DejaVuSans-55"/>
      </defs>
      <g transform="translate(10.451875 129.949637)scale(0.1 -0.1)">
       <use xlink:href="#DejaVuSans-48"/>
       <use x="63.623047" xlink:href="#DejaVuSans-46"/>
       <use x="95.410156" xlink:href="#DejaVuSans-48"/>
       <use x="159.033203" xlink:href="#DejaVuSans-55"/>
       <use x="222.65625" xlink:href="#DejaVuSans-48"/>
      </g>
     </g>
    </g>
    <g id="ytick_2">
     <g id="line2d_15">
      <path clip-path="url(#pe857a3fe34)" d="M 46.08 93.41494 
L 437.76 93.41494 
" style="fill:none;stroke:#b0b0b0;stroke-linecap:square;stroke-width:0.8;"/>
     </g>
     <g id="line2d_16">
      <g>
       <use style="stroke:#000000;stroke-width:0.8;" x="46.08" xlink:href="#m9c64e96c01" y="93.41494"/>
      </g>
     </g>
     <g id="text_9">
      <!-- 0.075 -->
      <defs>
       <path d="M 10.796875 72.90625 
L 49.515625 72.90625 
L 49.515625 64.59375 
L 19.828125 64.59375 
L 19.828125 46.734375 
Q 21.96875 47.46875 24.109375 47.828125 
Q 26.265625 48.1875 28.421875 48.1875 
Q 40.625 48.1875 47.75 41.5 
Q 54.890625 34.8125 54.890625 23.390625 
Q 54.890625 11.625 47.5625 5.09375 
Q 40.234375 -1.421875 26.90625 -1.421875 
Q 22.3125 -1.421875 17.546875 -0.640625 
Q 12.796875 0.140625 7.71875 1.703125 
L 7.71875 11.625 
Q 12.109375 9.234375 16.796875 8.0625 
Q 21.484375 6.890625 26.703125 6.890625 
Q 35.15625 6.890625 40.078125 11.328125 
Q 45.015625 15.765625 45.015625 23.390625 
Q 45.015625 31 40.078125 35.4375 
Q 35.15625 39.890625 26.703125 39.890625 
Q 22.75 39.890625 18.8125 39.015625 
Q 14.890625 38.140625 10.796875 36.28125 
z
" id="DejaVuSans-53"/>
      </defs>
      <g transform="translate(10.451875 97.214159)scale(0.1 -0.1)">
       <use xlink:href="#DejaVuSans-48"/>
       <use x="63.623047" xlink:href="#DejaVuSans-46"/>
       <use x="95.410156" xlink:href="#DejaVuSans-48"/>
       <use x="159.033203" xlink:href="#DejaVuSans-55"/>
       <use x="222.65625" xlink:href="#DejaVuSans-53"/>
      </g>
     </g>
    </g>
    <g id="ytick_3">
     <g id="line2d_17">
      <path clip-path="url(#pe857a3fe34)" d="M 46.08 60.679462 
L 437.76 60.679462 
" style="fill:none;stroke:#b0b0b0;stroke-linecap:square;stroke-width:0.8;"/>
     </g>
     <g id="line2d_18">
      <g>
       <use style="stroke:#000000;stroke-width:0.8;" x="46.08" xlink:href="#m9c64e96c01" y="60.679462"/>
      </g>
     </g>
     <g id="text_10">
      <!-- 0.080 -->
      <g transform="translate(10.451875 64.478681)scale(0.1 -0.1)">
       <use xlink:href="#DejaVuSans-48"/>
       <use x="63.623047" xlink:href="#DejaVuSans-46"/>
       <use x="95.410156" xlink:href="#DejaVuSans-48"/>
       <use x="159.033203" xlink:href="#DejaVuSans-56"/>
       <use x="222.65625" xlink:href="#DejaVuSans-48"/>
      </g>
     </g>
    </g>
    <g id="ytick_4">
     <g id="line2d_19">
      <path clip-path="url(#pe857a3fe34)" d="M 46.08 27.943984 
L 437.76 27.943984 
" style="fill:none;stroke:#b0b0b0;stroke-linecap:square;stroke-width:0.8;"/>
     </g>
     <g id="line2d_20">
      <g>
       <use style="stroke:#000000;stroke-width:0.8;" x="46.08" xlink:href="#m9c64e96c01" y="27.943984"/>
      </g>
     </g>
     <g id="text_11">
      <!-- 0.085 -->
      <g transform="translate(10.451875 31.743203)scale(0.1 -0.1)">
       <use xlink:href="#DejaVuSans-48"/>
       <use x="63.623047" xlink:href="#DejaVuSans-46"/>
       <use x="95.410156" xlink:href="#DejaVuSans-48"/>
       <use x="159.033203" xlink:href="#DejaVuSans-56"/>
       <use x="222.65625" xlink:href="#DejaVuSans-53"/>
      </g>
     </g>
    </g>
    <g id="text_12">
     <!-- Número -->
     <defs>
      <path d="M 9.8125 72.90625 
L 23.09375 72.90625 
L 55.421875 11.921875 
L 55.421875 72.90625 
L 64.984375 72.90625 
L 64.984375 0 
L 51.703125 0 
L 19.390625 60.984375 
L 19.390625 0 
L 9.8125 0 
z
" id="DejaVuSans-78"/>
      <path d="M 8.5 21.578125 
L 8.5 54.6875 
L 17.484375 54.6875 
L 17.484375 21.921875 
Q 17.484375 14.15625 20.5 10.265625 
Q 23.53125 6.390625 29.59375 6.390625 
Q 36.859375 6.390625 41.078125 11.03125 
Q 45.3125 15.671875 45.3125 23.6875 
L 45.3125 54.6875 
L 54.296875 54.6875 
L 54.296875 0 
L 45.3125 0 
L 45.3125 8.40625 
Q 42.046875 3.421875 37.71875 1 
Q 33.40625 -1.421875 27.6875 -1.421875 
Q 18.265625 -1.421875 13.375 4.4375 
Q 8.5 10.296875 8.5 21.578125 
z
M 31.109375 56 
z
M 37.78125 79.984375 
L 47.5 79.984375 
L 31.59375 61.625 
L 24.109375 61.625 
z
" id="DejaVuSans-250"/>
      <path d="M 52 44.1875 
Q 55.375 50.25 60.0625 53.125 
Q 64.75 56 71.09375 56 
Q 79.640625 56 84.28125 50.015625 
Q 88.921875 44.046875 88.921875 33.015625 
L 88.921875 0 
L 79.890625 0 
L 79.890625 32.71875 
Q 79.890625 40.578125 77.09375 44.375 
Q 74.3125 48.1875 68.609375 48.1875 
Q 61.625 48.1875 57.5625 43.546875 
Q 53.515625 38.921875 53.515625 30.90625 
L 53.515625 0 
L 44.484375 0 
L 44.484375 32.71875 
Q 44.484375 40.625 41.703125 44.40625 
Q 38.921875 48.1875 33.109375 48.1875 
Q 26.21875 48.1875 22.15625 43.53125 
Q 18.109375 38.875 18.109375 30.90625 
L 18.109375 0 
L 9.078125 0 
L 9.078125 54.6875 
L 18.109375 54.6875 
L 18.109375 46.1875 
Q 21.1875 51.21875 25.484375 53.609375 
Q 29.78125 56 35.6875 56 
Q 41.65625 56 45.828125 52.96875 
Q 50 49.953125 52 44.1875 
z
" id="DejaVuSans-109"/>
      <path d="M 56.203125 29.59375 
L 56.203125 25.203125 
L 14.890625 25.203125 
Q 15.484375 15.921875 20.484375 11.0625 
Q 25.484375 6.203125 34.421875 6.203125 
Q 39.59375 6.203125 44.453125 7.46875 
Q 49.3125 8.734375 54.109375 11.28125 
L 54.109375 2.78125 
Q 49.265625 0.734375 44.1875 -0.34375 
Q 39.109375 -1.421875 33.890625 -1.421875 
Q 20.796875 -1.421875 13.15625 6.1875 
Q 5.515625 13.8125 5.515625 26.8125 
Q 5.515625 40.234375 12.765625 48.109375 
Q 20.015625 56 32.328125 56 
Q 43.359375 56 49.78125 48.890625 
Q 56.203125 41.796875 56.203125 29.59375 
z
M 47.21875 32.234375 
Q 47.125 39.59375 43.09375 43.984375 
Q 39.0625 48.390625 32.421875 48.390625 
Q 24.90625 48.390625 20.390625 44.140625 
Q 15.875 39.890625 15.1875 32.171875 
z
" id="DejaVuSans-101"/>
     </defs>
     <g transform="translate(4.372188 112.129531)rotate(-90)scale(0.1 -0.1)">
      <use xlink:href="#DejaVuSans-78"/>
      <use x="74.804688" xlink:href="#DejaVuSans-250"/>
      <use x="138.183594" xlink:href="#DejaVuSans-109"/>
      <use x="235.595703" xlink:href="#DejaVuSans-101"/>
      <use x="297.119141" xlink:href="#DejaVuSans-114"/>
      <use x="338.201172" xlink:href="#DejaVuSans-111"/>
     </g>
    </g>
   </g>
   <g id="line2d_21">
    <path clip-path="url(#pe857a3fe34)" d="M 63.883636 91.524797 
L 64.240066 150.807273 
L 64.596495 90.741471 
L 64.952924 69.919918 
L 65.309353 55.751509 
L 65.665782 33.512727 
L 66.022211 48.266008 
L 66.37864 55.657594 
L 67.091499 82.107039 
L 67.447928 73.865213 
L 67.804357 80.744921 
L 68.160786 78.758305 
L 68.517215 86.670971 
L 68.873645 86.144844 
L 69.230074 84.707476 
L 69.586503 84.931889 
L 69.942932 81.24965 
L 70.65579 63.894672 
L 71.012219 62.439391 
L 71.368649 62.10402 
L 71.725078 68.279178 
L 72.081507 69.473692 
L 72.437936 69.237647 
L 72.794365 63.651956 
L 73.150794 59.983331 
L 73.507224 64.325958 
L 73.863653 62.145508 
L 74.220082 58.77979 
L 74.576511 59.68152 
L 75.645799 63.915714 
L 76.002228 60.186314 
L 76.358657 58.508214 
L 76.715086 54.263035 
L 77.071515 54.604149 
L 77.427944 51.248797 
L 77.784373 50.021947 
L 78.140803 50.27882 
L 78.497232 48.244619 
L 78.853661 47.514887 
L 79.21009 48.699753 
L 79.566519 49.047596 
L 79.922948 49.579406 
L 80.279378 49.366335 
L 80.635807 49.941562 
L 80.992236 50.82489 
L 81.348665 50.612892 
L 82.061523 52.433982 
L 82.417952 52.234661 
L 82.774382 52.53028 
L 83.130811 54.244338 
L 83.48724 52.818711 
L 83.843669 49.845416 
L 84.200098 49.484919 
L 84.556527 50.460577 
L 84.912957 52.130186 
L 85.269386 47.861935 
L 85.625815 47.535792 
L 86.338673 49.114275 
L 87.051532 49.298751 
L 87.407961 50.025405 
L 87.76439 50.064448 
L 88.120819 50.758643 
L 88.477248 49.274103 
L 88.833677 49.254858 
L 89.190106 50.69311 
L 89.902965 46.598784 
L 90.259394 46.48617 
L 90.615823 47.327621 
L 90.972252 45.909707 
L 91.328681 46.015131 
L 91.685111 42.669067 
L 92.04154 42.152955 
L 92.397969 43.917332 
L 92.754398 44.100737 
L 93.110827 44.628937 
L 93.467256 44.864549 
L 93.823686 45.874 
L 94.180115 45.814838 
L 94.892973 49.038618 
L 95.249402 49.429296 
L 95.605831 48.534008 
L 95.96226 48.486047 
L 96.31869 46.740234 
L 96.675119 47.264964 
L 97.031548 47.578797 
L 97.387977 48.73383 
L 97.744406 47.700648 
L 98.100835 48.734291 
L 98.457265 48.448172 
L 98.813694 47.456401 
L 99.170123 47.42558 
L 99.526552 48.808267 
L 99.882981 48.772807 
L 100.23941 48.883384 
L 100.952269 49.682076 
L 101.308698 49.201413 
L 101.665127 49.763416 
L 102.021556 50.617243 
L 102.377985 50.807813 
L 102.734414 49.529488 
L 103.090844 50.493626 
L 103.447273 50.110266 
L 103.803702 50.414433 
L 104.160131 48.979311 
L 104.51656 48.923858 
L 104.872989 47.768172 
L 105.229419 47.060858 
L 105.585848 47.248494 
L 105.942277 45.618991 
L 106.655135 46.325724 
L 107.011564 46.985423 
L 107.367993 47.193788 
L 107.724423 47.601512 
L 108.080852 47.383219 
L 108.437281 48.008613 
L 108.79371 46.011782 
L 109.150139 45.647595 
L 109.506568 45.704239 
L 109.862998 45.626246 
L 110.219427 46.152762 
L 110.575856 47.174786 
L 110.932285 47.496469 
L 111.288714 46.710619 
L 111.645143 46.27839 
L 112.001572 47.67981 
L 112.358002 48.286436 
L 112.714431 48.467757 
L 113.07086 48.254251 
L 113.427289 47.431477 
L 113.783718 47.380844 
L 114.140147 48.290496 
L 114.496577 48.685344 
L 114.853006 49.382323 
L 115.209435 49.395445 
L 115.565864 49.05148 
L 115.922293 48.53468 
L 116.278722 48.28723 
L 116.635152 47.724241 
L 116.991581 47.45187 
L 117.34801 46.779505 
L 118.060868 47.062263 
L 118.417297 47.789566 
L 118.773726 46.079378 
L 119.130156 46.214956 
L 119.486585 46.945141 
L 119.843014 45.584395 
L 120.555872 46.216395 
L 120.912301 45.876476 
L 121.268731 46.453132 
L 121.62516 46.465185 
L 121.981589 46.860439 
L 122.338018 46.434779 
L 122.694447 46.423477 
L 123.407305 45.31269 
L 123.763735 45.397677 
L 124.120164 44.783429 
L 124.476593 44.925937 
L 124.833022 44.495908 
L 125.189451 44.824558 
L 125.54588 45.310146 
L 125.90231 44.14951 
L 126.258739 43.685414 
L 126.615168 43.897096 
L 126.971597 43.565987 
L 127.328026 42.959675 
L 127.684455 43.461783 
L 128.040885 43.525544 
L 128.753743 44.827038 
L 129.110172 44.770714 
L 129.466601 44.25563 
L 129.82303 44.758932 
L 130.179459 44.83414 
L 130.535889 45.127104 
L 130.892318 44.881536 
L 131.248747 45.089461 
L 131.605176 45.130449 
L 131.961605 45.550685 
L 132.674464 45.962996 
L 133.387322 46.123017 
L 133.743751 45.599976 
L 134.10018 45.563218 
L 134.456609 44.95735 
L 134.813038 44.681804 
L 135.169468 44.666877 
L 136.595184 45.205801 
L 136.951613 44.829164 
L 137.308043 44.736707 
L 137.664472 45.201361 
L 138.020901 44.686887 
L 138.37733 44.612878 
L 138.733759 44.873984 
L 139.446618 44.818404 
L 139.803047 45.249942 
L 140.159476 45.242364 
L 141.228763 45.659622 
L 141.585192 45.6197 
L 141.941622 45.864522 
L 142.298051 45.921654 
L 142.65448 46.244616 
L 143.010909 45.75293 
L 143.723767 46.289665 
L 144.080197 46.096726 
L 144.436626 46.321002 
L 144.793055 46.084986 
L 145.149484 46.146575 
L 145.505913 45.986256 
L 145.862342 46.21522 
L 146.218771 45.958061 
L 146.575201 46.055846 
L 146.93163 45.784041 
L 147.288059 46.387594 
L 148.000917 46.312202 
L 148.357346 46.380114 
L 148.713776 45.890508 
L 149.070205 45.139352 
L 149.426634 45.194095 
L 149.783063 44.843735 
L 150.139492 45.410276 
L 150.495921 45.31153 
L 150.852351 45.545816 
L 151.565209 45.579691 
L 152.278067 44.84558 
L 152.990925 44.722134 
L 153.347355 44.809702 
L 153.703784 44.470699 
L 154.416642 44.648006 
L 155.1295 44.5943 
L 155.48593 45.13289 
L 155.842359 45.379799 
L 156.198788 45.238577 
L 156.911646 45.422412 
L 157.268075 45.664642 
L 157.980934 45.611091 
L 159.050221 46.573795 
L 160.832367 47.601318 
L 161.188796 47.139956 
L 161.545225 47.360457 
L 161.901654 46.909468 
L 162.258084 47.121335 
L 162.614513 46.919123 
L 162.970942 46.951384 
L 163.327371 46.627052 
L 164.040229 46.671582 
L 164.396658 46.930128 
L 164.753088 46.990644 
L 165.109517 46.363068 
L 165.465946 46.394564 
L 166.178804 45.635015 
L 166.535233 45.402551 
L 166.891663 45.348563 
L 167.248092 44.95651 
L 167.604521 44.97779 
L 167.96095 45.119432 
L 168.317379 44.999052 
L 168.673808 45.221773 
L 169.743096 44.262678 
L 170.455954 44.949141 
L 170.812383 44.98629 
L 171.881671 44.617852 
L 172.2381 44.062852 
L 172.594529 43.826065 
L 172.950958 43.418924 
L 173.307387 43.39898 
L 173.663817 43.114423 
L 174.020246 43.119089 
L 174.376675 42.780411 
L 174.733104 42.883082 
L 175.089533 43.183552 
L 175.802391 42.930102 
L 176.158821 42.331048 
L 176.871679 42.521035 
L 177.584537 42.91017 
L 178.653825 42.899471 
L 179.010254 42.884889 
L 179.366683 43.182103 
L 180.079541 43.110743 
L 181.505258 44.021292 
L 181.861687 43.756552 
L 182.218116 43.953733 
L 182.930975 43.135213 
L 183.287404 43.026486 
L 183.643833 43.357264 
L 184.000262 43.389454 
L 184.356691 42.810782 
L 185.425979 42.934203 
L 186.138837 42.553997 
L 186.495266 42.681207 
L 186.851695 42.979623 
L 187.208124 42.612582 
L 188.633841 42.32274 
L 188.99027 41.904152 
L 189.346699 41.312984 
L 189.703129 41.680202 
L 190.415987 41.811452 
L 190.772416 41.742982 
L 191.128845 41.950049 
L 191.485274 41.906126 
L 191.841704 41.695171 
L 192.198133 41.876101 
L 192.554562 42.213226 
L 192.910991 41.960467 
L 193.26742 41.918215 
L 194.336708 42.524711 
L 194.693137 42.599796 
L 195.049566 42.387479 
L 195.405995 42.884273 
L 195.762424 42.613566 
L 196.475283 42.749961 
L 197.188141 41.967671 
L 198.257428 42.345211 
L 198.613857 42.160482 
L 198.970287 42.411543 
L 199.326716 42.495288 
L 199.683145 42.062931 
L 200.752432 42.186673 
L 201.465291 42.023309 
L 202.178149 42.298281 
L 202.534578 41.754876 
L 202.891007 41.609882 
L 203.247437 41.791744 
L 203.603866 42.377396 
L 203.960295 42.218161 
L 204.316724 42.667648 
L 204.673153 42.912087 
L 205.029582 42.921241 
L 205.386011 43.355392 
L 205.742441 43.312879 
L 206.09887 43.533926 
L 206.455299 43.552172 
L 206.811728 43.414129 
L 207.524586 43.435855 
L 207.881016 43.379223 
L 208.237445 43.500199 
L 208.593874 43.37871 
L 208.950303 43.547765 
L 209.306732 43.381878 
L 209.663161 43.431352 
L 210.01959 43.686431 
L 210.732449 43.978634 
L 211.088878 44.433736 
L 211.445307 44.24979 
L 211.801736 44.274159 
L 212.158165 44.618216 
L 213.583882 44.023385 
L 213.940311 43.600118 
L 214.29674 43.592163 
L 214.65317 43.418585 
L 215.009599 43.610544 
L 215.366028 43.656047 
L 216.791744 44.379465 
L 217.148174 44.469659 
L 217.861032 44.307567 
L 218.217461 44.681947 
L 218.930319 44.938429 
L 219.286749 44.852177 
L 219.643178 44.616058 
L 219.999607 44.801691 
L 220.712465 44.722008 
L 221.068894 44.416194 
L 221.425324 44.604981 
L 221.781753 44.362407 
L 222.138182 44.28616 
L 222.494611 44.36176 
L 222.85104 44.27537 
L 223.207469 43.911195 
L 223.920328 44.071214 
L 224.276757 44.27782 
L 224.633186 43.917401 
L 224.989615 43.839424 
L 225.346044 43.986686 
L 225.702473 43.863793 
L 226.058903 43.950201 
L 226.771761 44.537232 
L 227.12819 44.390937 
L 227.484619 44.461132 
L 227.841048 44.195709 
L 228.553907 44.250857 
L 228.910336 44.360712 
L 229.266765 44.343208 
L 229.623194 44.170704 
L 229.979623 44.19206 
L 230.336052 44.514437 
L 230.692482 44.270719 
L 231.048911 44.405416 
L 231.761769 44.34844 
L 232.118198 44.048069 
L 233.187486 43.753593 
L 233.900344 43.741608 
L 235.68249 44.315767 
L 236.395348 44.694526 
L 237.108206 44.695641 
L 237.464636 44.538916 
L 238.533923 44.733842 
L 238.890352 44.758835 
L 239.60321 45.06341 
L 239.95964 45.063701 
L 240.316069 44.844554 
L 240.672498 44.228077 
L 241.028927 44.427905 
L 242.098215 44.458004 
L 242.454644 44.547423 
L 242.811073 44.900099 
L 243.167502 44.895271 
L 243.523931 44.669574 
L 243.88036 44.79711 
L 244.23679 44.597152 
L 245.306077 44.957799 
L 245.662506 44.952129 
L 246.018935 44.767323 
L 247.088223 44.853137 
L 247.801081 44.780521 
L 249.583227 45.387261 
L 249.939656 45.168184 
L 250.652514 45.482065 
L 251.008943 45.417284 
L 251.365373 45.796513 
L 252.078231 45.944546 
L 252.791089 46.232776 
L 253.147518 46.111379 
L 253.503948 46.24851 
L 254.573235 46.234985 
L 254.929664 46.293924 
L 255.286093 46.038889 
L 256.71181 46.216309 
L 257.424668 46.566755 
L 257.781097 46.636739 
L 258.137527 46.379138 
L 258.493956 46.655935 
L 259.206814 46.531524 
L 260.276102 46.686929 
L 260.632531 46.919948 
L 260.98896 46.800782 
L 261.345389 46.80083 
L 261.701818 46.945196 
L 262.058247 46.847365 
L 262.414676 47.162603 
L 262.771106 47.123074 
L 263.127535 46.892951 
L 263.483964 47.052982 
L 263.840393 46.763187 
L 264.553251 47.001835 
L 264.909681 46.855469 
L 265.26611 46.577664 
L 265.622539 46.568238 
L 266.691826 46.071608 
L 267.048256 46.16366 
L 267.761114 46.139885 
L 268.117543 46.334195 
L 268.473972 46.281431 
L 268.830401 46.00323 
L 269.18683 45.926901 
L 269.54326 45.49017 
L 269.899689 45.778532 
L 270.256118 45.772044 
L 271.681835 45.052502 
L 272.038264 45.282318 
L 273.107551 45.563372 
L 274.176839 45.280935 
L 274.533268 45.351499 
L 275.602555 45.057538 
L 275.958984 45.127237 
L 276.315414 45.007885 
L 277.028272 45.143974 
L 277.74113 44.938136 
L 278.097559 44.609569 
L 278.810418 44.807419 
L 279.166847 44.596609 
L 279.523276 44.638962 
L 280.236134 45.039813 
L 280.592563 44.661984 
L 281.305422 44.707639 
L 281.661851 44.900555 
L 282.01828 44.706899 
L 282.374709 44.772415 
L 282.731138 44.516368 
L 283.087568 44.544569 
L 283.443997 43.78273 
L 284.156855 44.128377 
L 284.869713 43.628038 
L 285.226143 43.669609 
L 285.939001 43.244788 
L 287.721147 42.577131 
L 288.434005 42.581904 
L 290.216151 42.256806 
L 290.57258 42.319748 
L 290.929009 42.53386 
L 291.641867 42.542897 
L 291.998296 42.321642 
L 292.354726 42.360564 
L 292.711155 42.092147 
L 295.206159 42.485755 
L 295.919017 42.690835 
L 296.275446 42.568742 
L 296.631876 42.872282 
L 298.057592 43.394582 
L 299.839738 43.352865 
L 300.552596 43.751524 
L 301.265455 43.60228 
L 301.621884 43.673577 
L 301.978313 43.554987 
L 304.116888 43.900416 
L 304.473317 44.108728 
L 304.829746 44.042883 
L 305.899034 44.286336 
L 307.32475 44.900555 
L 307.681179 44.683982 
L 308.394038 44.714046 
L 309.819754 44.910607 
L 310.176183 44.774894 
L 313.740475 45.441316 
L 314.809762 45.256606 
L 315.166192 45.260546 
L 316.235479 45.794291 
L 316.591908 45.58502 
L 316.948337 45.613351 
L 317.304767 45.503451 
L 318.017625 45.59725 
L 318.374054 45.406545 
L 318.730483 45.44607 
L 319.086912 45.190731 
L 320.1562 44.991215 
L 320.512629 45.233008 
L 321.225487 45.2641 
L 321.938346 45.198529 
L 322.294775 45.276444 
L 322.651204 45.122775 
L 323.364062 45.332809 
L 323.720491 45.541206 
L 326.215495 45.976907 
L 326.928354 45.655858 
L 327.284783 45.819389 
L 327.641212 45.647163 
L 328.35407 45.733064 
L 328.7105 45.352868 
L 329.423358 45.42794 
L 329.779787 45.239513 
L 330.492645 45.347053 
L 332.63122 44.852155 
L 332.987649 44.956186 
L 333.344079 44.848299 
L 333.700508 44.905166 
L 335.482654 44.652416 
L 336.195512 44.209558 
L 336.90837 44.390199 
L 337.264799 44.044435 
L 338.334087 44.091456 
L 338.690516 44.351012 
L 339.403374 44.27342 
L 339.759803 44.118643 
L 340.472662 44.162245 
L 340.829091 44.209096 
L 341.18552 44.087042 
L 341.898378 44.223769 
L 343.324095 44.296857 
L 346.175528 44.600486 
L 346.531957 44.60064 
L 346.888387 44.820413 
L 347.601245 44.679763 
L 349.026962 44.927439 
L 349.383391 44.794652 
L 353.304111 45.41752 
L 353.660541 45.231106 
L 354.01697 45.204345 
L 354.373399 44.990933 
L 354.729828 45.157473 
L 355.086257 45.106459 
L 356.155545 45.414359 
L 357.93769 44.849968 
L 359.006978 44.912771 
L 359.363407 44.707956 
L 360.076265 44.928419 
L 361.501982 44.585208 
L 362.21484 44.744134 
L 363.284128 44.584733 
L 363.996986 44.613529 
L 365.422703 44.70506 
L 365.779132 44.540375 
L 367.204848 44.83579 
L 367.917707 45.03425 
L 368.630565 45.058736 
L 368.986994 45.130125 
L 369.699853 44.881261 
L 370.056282 44.824463 
L 371.125569 44.992321 
L 373.620573 44.854754 
L 373.977002 44.84438 
L 374.689861 44.416857 
L 376.115577 44.666165 
L 376.828436 44.524652 
L 377.541294 44.336182 
L 378.254152 44.516731 
L 379.679869 44.572053 
L 380.392727 44.256665 
L 380.749156 44.20945 
L 381.105586 44.333136 
L 382.531302 44.176644 
L 383.244161 43.914474 
L 384.313448 43.948911 
L 384.669877 43.681097 
L 385.739165 43.741894 
L 386.452023 44.051722 
L 386.808452 44.027989 
L 387.87774 44.291064 
L 392.511319 44.738466 
L 392.867748 44.792761 
L 393.224177 44.4935 
L 393.937035 44.642297 
L 394.293464 44.505068 
L 395.006323 44.718991 
L 395.362752 44.708012 
L 396.07561 44.488205 
L 396.788468 44.605192 
L 397.857756 44.60131 
L 398.927043 44.367406 
L 399.639902 44.424075 
L 399.996331 44.240465 
L 400.709189 44.302413 
L 401.422048 44.319838 
L 401.778477 44.246262 
L 402.847764 44.365339 
L 403.560622 44.354606 
L 403.917052 44.488702 
L 404.273481 44.386185 
L 404.62991 44.437734 
L 404.986339 44.330234 
L 405.699197 44.539612 
L 406.768485 44.652017 
L 407.481343 44.667468 
L 408.194201 44.811097 
L 408.550631 44.831472 
L 408.90706 44.981694 
L 411.045635 44.997196 
L 411.402064 44.78763 
L 412.114922 44.983611 
L 412.827781 44.907898 
L 413.540639 44.793677 
L 413.897068 44.87222 
L 414.253497 44.759322 
L 414.609926 44.858251 
L 414.966355 44.795112 
L 416.035643 45.017099 
L 418.530647 44.627626 
L 418.887076 44.723831 
L 419.599934 44.652883 
L 419.956364 44.793013 
L 419.956364 44.793013 
" style="fill:none;stroke:#1f77b4;stroke-linecap:square;stroke-width:1.5;"/>
   </g>
   <g id="patch_3">
    <path d="M 46.08 156.672 
L 46.08 27.648 
" style="fill:none;stroke:#000000;stroke-linecap:square;stroke-linejoin:miter;stroke-width:0.8;"/>
   </g>
   <g id="patch_4">
    <path d="M 437.76 156.672 
L 437.76 27.648 
" style="fill:none;stroke:#000000;stroke-linecap:square;stroke-linejoin:miter;stroke-width:0.8;"/>
   </g>
   <g id="patch_5">
    <path d="M 46.08 156.672 
L 437.76 156.672 
" style="fill:none;stroke:#000000;stroke-linecap:square;stroke-linejoin:miter;stroke-width:0.8;"/>
   </g>
   <g id="patch_6">
    <path d="M 46.08 27.648 
L 437.76 27.648 
" style="fill:none;stroke:#000000;stroke-linecap:square;stroke-linejoin:miter;stroke-width:0.8;"/>
   </g>
   <g id="text_13">
    <!-- Número promedio de clientes en cola A -->
    <defs>
     <path id="DejaVuSans-32"/>
     <path d="M 18.109375 8.203125 
L 18.109375 -20.796875 
L 9.078125 -20.796875 
L 9.078125 54.6875 
L 18.109375 54.6875 
L 18.109375 46.390625 
Q 20.953125 51.265625 25.265625 53.625 
Q 29.59375 56 35.59375 56 
Q 45.5625 56 51.78125 48.09375 
Q 58.015625 40.1875 58.015625 27.296875 
Q 58.015625 14.40625 51.78125 6.484375 
Q 45.5625 -1.421875 35.59375 -1.421875 
Q 29.59375 -1.421875 25.265625 0.953125 
Q 20.953125 3.328125 18.109375 8.203125 
z
M 48.6875 27.296875 
Q 48.6875 37.203125 44.609375 42.84375 
Q 40.53125 48.484375 33.40625 48.484375 
Q 26.265625 48.484375 22.1875 42.84375 
Q 18.109375 37.203125 18.109375 27.296875 
Q 18.109375 17.390625 22.1875 11.75 
Q 26.265625 6.109375 33.40625 6.109375 
Q 40.53125 6.109375 44.609375 11.75 
Q 48.6875 17.390625 48.6875 27.296875 
z
" id="DejaVuSans-112"/>
     <path d="M 48.78125 52.59375 
L 48.78125 44.1875 
Q 44.96875 46.296875 41.140625 47.34375 
Q 37.3125 48.390625 33.40625 48.390625 
Q 24.65625 48.390625 19.8125 42.84375 
Q 14.984375 37.3125 14.984375 27.296875 
Q 14.984375 17.28125 19.8125 11.734375 
Q 24.65625 6.203125 33.40625 6.203125 
Q 37.3125 6.203125 41.140625 7.25 
Q 44.96875 8.296875 48.78125 10.40625 
L 48.78125 2.09375 
Q 45.015625 0.34375 40.984375 -0.53125 
Q 36.96875 -1.421875 32.421875 -1.421875 
Q 20.0625 -1.421875 12.78125 6.34375 
Q 5.515625 14.109375 5.515625 27.296875 
Q 5.515625 40.671875 12.859375 48.328125 
Q 20.21875 56 33.015625 56 
Q 37.15625 56 41.109375 55.140625 
Q 45.0625 54.296875 48.78125 52.59375 
z
" id="DejaVuSans-99"/>
     <path d="M 9.421875 75.984375 
L 18.40625 75.984375 
L 18.40625 0 
L 9.421875 0 
z
" id="DejaVuSans-108"/>
     <path d="M 54.890625 33.015625 
L 54.890625 0 
L 45.90625 0 
L 45.90625 32.71875 
Q 45.90625 40.484375 42.875 44.328125 
Q 39.84375 48.1875 33.796875 48.1875 
Q 26.515625 48.1875 22.3125 43.546875 
Q 18.109375 38.921875 18.109375 30.90625 
L 18.109375 0 
L 9.078125 0 
L 9.078125 54.6875 
L 18.109375 54.6875 
L 18.109375 46.1875 
Q 21.34375 51.125 25.703125 53.5625 
Q 30.078125 56 35.796875 56 
Q 45.21875 56 50.046875 50.171875 
Q 54.890625 44.34375 54.890625 33.015625 
z
" id="DejaVuSans-110"/>
     <path d="M 18.3125 70.21875 
L 18.3125 54.6875 
L 36.8125 54.6875 
L 36.8125 47.703125 
L 18.3125 47.703125 
L 18.3125 18.015625 
Q 18.3125 11.328125 20.140625 9.421875 
Q 21.96875 7.515625 27.59375 7.515625 
L 36.8125 7.515625 
L 36.8125 0 
L 27.59375 0 
Q 17.1875 0 13.234375 3.875 
Q 9.28125 7.765625 9.28125 18.015625 
L 9.28125 47.703125 
L 2.6875 47.703125 
L 2.6875 54.6875 
L 9.28125 54.6875 
L 9.28125 70.21875 
z
" id="DejaVuSans-116"/>
     <path d="M 34.1875 63.1875 
L 20.796875 26.90625 
L 47.609375 26.90625 
z
M 28.609375 72.90625 
L 39.796875 72.90625 
L 67.578125 0 
L 57.328125 0 
L 50.6875 18.703125 
L 17.828125 18.703125 
L 11.1875 0 
L 0.78125 0 
z
" id="DejaVuSans-65"/>
    </defs>
    <g transform="translate(123.17625 21.648)scale(0.12 -0.12)">
     <use xlink:href="#DejaVuSans-78"/>
     <use x="74.804688" xlink:href="#DejaVuSans-250"/>
     <use x="138.183594" xlink:href="#DejaVuSans-109"/>
     <use x="235.595703" xlink:href="#DejaVuSans-101"/>
     <use x="297.119141" xlink:href="#DejaVuSans-114"/>
     <use x="338.201172" xlink:href="#DejaVuSans-111"/>
     <use x="399.382812" xlink:href="#DejaVuSans-32"/>
     <use x="431.169922" xlink:href="#DejaVuSans-112"/>
     <use x="494.646484" xlink:href="#DejaVuSans-114"/>
     <use x="535.728516" xlink:href="#DejaVuSans-111"/>
     <use x="596.910156" xlink:href="#DejaVuSans-109"/>
     <use x="694.322266" xlink:href="#DejaVuSans-101"/>
     <use x="755.845703" xlink:href="#DejaVuSans-100"/>
     <use x="819.322266" xlink:href="#DejaVuSans-105"/>
     <use x="847.105469" xlink:href="#DejaVuSans-111"/>
     <use x="908.287109" xlink:href="#DejaVuSans-32"/>
     <use x="940.074219" xlink:href="#DejaVuSans-100"/>
     <use x="1003.550781" xlink:href="#DejaVuSans-101"/>
     <use x="1065.074219" xlink:href="#DejaVuSans-32"/>
     <use x="1096.861328" xlink:href="#DejaVuSans-99"/>
     <use x="1151.841797" xlink:href="#DejaVuSans-108"/>
     <use x="1179.625" xlink:href="#DejaVuSans-105"/>
     <use x="1207.408203" xlink:href="#DejaVuSans-101"/>
     <use x="1268.931641" xlink:href="#DejaVuSans-110"/>
     <use x="1332.310547" xlink:href="#DejaVuSans-116"/>
     <use x="1371.519531" xlink:href="#DejaVuSans-101"/>
     <use x="1433.042969" xlink:href="#DejaVuSans-115"/>
     <use x="1485.142578" xlink:href="#DejaVuSans-32"/>
     <use x="1516.929688" xlink:href="#DejaVuSans-101"/>
     <use x="1578.453125" xlink:href="#DejaVuSans-110"/>
     <use x="1641.832031" xlink:href="#DejaVuSans-32"/>
     <use x="1673.619141" xlink:href="#DejaVuSans-99"/>
     <use x="1728.599609" xlink:href="#DejaVuSans-111"/>
     <use x="1789.78125" xlink:href="#DejaVuSans-108"/>
     <use x="1817.564453" xlink:href="#DejaVuSans-97"/>
     <use x="1878.84375" xlink:href="#DejaVuSans-32"/>
     <use x="1910.630859" xlink:href="#DejaVuSans-65"/>
    </g>
   </g>
  </g>
  <g id="axes_2">
   <g id="patch_7">
    <path d="M 46.08 317.952 
L 212.75234 317.952 
L 212.75234 188.928 
L 46.08 188.928 
z
" style="fill:#ffffff;"/>
   </g>
   <g id="matplotlib.axis_3">
    <g id="xtick_7">
     <g id="line2d_22">
      <path clip-path="url(#pff32f2fabb)" d="M 53.504343 317.952 
L 53.504343 188.928 
" style="fill:none;stroke:#b0b0b0;stroke-linecap:square;stroke-width:0.8;"/>
     </g>
     <g id="line2d_23">
      <g>
       <use style="stroke:#000000;stroke-width:0.8;" x="53.504343" xlink:href="#m6c4018078b" y="317.952"/>
      </g>
     </g>
     <g id="text_14">
      <!-- 0 -->
      <g transform="translate(50.323093 332.550437)scale(0.1 -0.1)">
       <use xlink:href="#DejaVuSans-48"/>
      </g>
     </g>
    </g>
    <g id="xtick_8">
     <g id="line2d_24">
      <path clip-path="url(#pff32f2fabb)" d="M 91.422339 317.952 
L 91.422339 188.928 
" style="fill:none;stroke:#b0b0b0;stroke-linecap:square;stroke-width:0.8;"/>
     </g>
     <g id="line2d_25">
      <g>
       <use style="stroke:#000000;stroke-width:0.8;" x="91.422339" xlink:href="#m6c4018078b" y="317.952"/>
      </g>
     </g>
     <g id="text_15">
      <!-- 250 -->
      <g transform="translate(81.878589 332.550437)scale(0.1 -0.1)">
       <use xlink:href="#DejaVuSans-50"/>
       <use x="63.623047" xlink:href="#DejaVuSans-53"/>
       <use x="127.246094" xlink:href="#DejaVuSans-48"/>
      </g>
     </g>
    </g>
    <g id="xtick_9">
     <g id="line2d_26">
      <path clip-path="url(#pff32f2fabb)" d="M 129.340334 317.952 
L 129.340334 188.928 
" style="fill:none;stroke:#b0b0b0;stroke-linecap:square;stroke-width:0.8;"/>
     </g>
     <g id="line2d_27">
      <g>
       <use style="stroke:#000000;stroke-width:0.8;" x="129.340334" xlink:href="#m6c4018078b" y="317.952"/>
      </g>
     </g>
     <g id="text_16">
      <!-- 500 -->
      <g transform="translate(119.796584 332.550437)scale(0.1 -0.1)">
       <use xlink:href="#DejaVuSans-53"/>
       <use x="63.623047" xlink:href="#DejaVuSans-48"/>
       <use x="127.246094" xlink:href="#DejaVuSans-48"/>
      </g>
     </g>
    </g>
    <g id="xtick_10">
     <g id="line2d_28">
      <path clip-path="url(#pff32f2fabb)" d="M 167.25833 317.952 
L 167.25833 188.928 
" style="fill:none;stroke:#b0b0b0;stroke-linecap:square;stroke-width:0.8;"/>
     </g>
     <g id="line2d_29">
      <g>
       <use style="stroke:#000000;stroke-width:0.8;" x="167.25833" xlink:href="#m6c4018078b" y="317.952"/>
      </g>
     </g>
     <g id="text_17">
      <!-- 750 -->
      <g transform="translate(157.71458 332.550437)scale(0.1 -0.1)">
       <use xlink:href="#DejaVuSans-55"/>
       <use x="63.623047" xlink:href="#DejaVuSans-53"/>
       <use x="127.246094" xlink:href="#DejaVuSans-48"/>
      </g>
     </g>
    </g>
    <g id="xtick_11">
     <g id="line2d_30">
      <path clip-path="url(#pff32f2fabb)" d="M 205.176325 317.952 
L 205.176325 188.928 
" style="fill:none;stroke:#b0b0b0;stroke-linecap:square;stroke-width:0.8;"/>
     </g>
     <g id="line2d_31">
      <g>
       <use style="stroke:#000000;stroke-width:0.8;" x="205.176325" xlink:href="#m6c4018078b" y="317.952"/>
      </g>
     </g>
     <g id="text_18">
      <!-- 1000 -->
      <g transform="translate(192.451325 332.550437)scale(0.1 -0.1)">
       <use xlink:href="#DejaVuSans-49"/>
       <use x="63.623047" xlink:href="#DejaVuSans-48"/>
       <use x="127.246094" xlink:href="#DejaVuSans-48"/>
       <use x="190.869141" xlink:href="#DejaVuSans-48"/>
      </g>
     </g>
    </g>
    <g id="text_19">
     <!-- Corridas -->
     <g transform="translate(108.523201 346.228563)scale(0.1 -0.1)">
      <use xlink:href="#DejaVuSans-67"/>
      <use x="69.824219" xlink:href="#DejaVuSans-111"/>
      <use x="131.005859" xlink:href="#DejaVuSans-114"/>
      <use x="172.103516" xlink:href="#DejaVuSans-114"/>
      <use x="213.216797" xlink:href="#DejaVuSans-105"/>
      <use x="241" xlink:href="#DejaVuSans-100"/>
      <use x="304.476562" xlink:href="#DejaVuSans-97"/>
      <use x="365.755859" xlink:href="#DejaVuSans-115"/>
     </g>
    </g>
   </g>
   <g id="matplotlib.axis_4">
    <g id="ytick_5">
     <g id="line2d_32">
      <path clip-path="url(#pff32f2fabb)" d="M 46.08 292.095271 
L 212.75234 292.095271 
" style="fill:none;stroke:#b0b0b0;stroke-linecap:square;stroke-width:0.8;"/>
     </g>
     <g id="line2d_33">
      <g>
       <use style="stroke:#000000;stroke-width:0.8;" x="46.08" xlink:href="#m9c64e96c01" y="292.095271"/>
      </g>
     </g>
     <g id="text_20">
      <!-- 0.014 -->
      <g transform="translate(10.451875 295.89449)scale(0.1 -0.1)">
       <use xlink:href="#DejaVuSans-48"/>
       <use x="63.623047" xlink:href="#DejaVuSans-46"/>
       <use x="95.410156" xlink:href="#DejaVuSans-48"/>
       <use x="159.033203" xlink:href="#DejaVuSans-49"/>
       <use x="222.65625" xlink:href="#DejaVuSans-52"/>
      </g>
     </g>
    </g>
    <g id="ytick_6">
     <g id="line2d_34">
      <path clip-path="url(#pff32f2fabb)" d="M 46.08 263.289944 
L 212.75234 263.289944 
" style="fill:none;stroke:#b0b0b0;stroke-linecap:square;stroke-width:0.8;"/>
     </g>
     <g id="line2d_35">
      <g>
       <use style="stroke:#000000;stroke-width:0.8;" x="46.08" xlink:href="#m9c64e96c01" y="263.289944"/>
      </g>
     </g>
     <g id="text_21">
      <!-- 0.016 -->
      <g transform="translate(10.451875 267.089163)scale(0.1 -0.1)">
       <use xlink:href="#DejaVuSans-48"/>
       <use x="63.623047" xlink:href="#DejaVuSans-46"/>
       <use x="95.410156" xlink:href="#DejaVuSans-48"/>
       <use x="159.033203" xlink:href="#DejaVuSans-49"/>
       <use x="222.65625" xlink:href="#DejaVuSans-54"/>
      </g>
     </g>
    </g>
    <g id="ytick_7">
     <g id="line2d_36">
      <path clip-path="url(#pff32f2fabb)" d="M 46.08 234.484617 
L 212.75234 234.484617 
" style="fill:none;stroke:#b0b0b0;stroke-linecap:square;stroke-width:0.8;"/>
     </g>
     <g id="line2d_37">
      <g>
       <use style="stroke:#000000;stroke-width:0.8;" x="46.08" xlink:href="#m9c64e96c01" y="234.484617"/>
      </g>
     </g>
     <g id="text_22">
      <!-- 0.018 -->
      <g transform="translate(10.451875 238.283836)scale(0.1 -0.1)">
       <use xlink:href="#DejaVuSans-48"/>
       <use x="63.623047" xlink:href="#DejaVuSans-46"/>
       <use x="95.410156" xlink:href="#DejaVuSans-48"/>
       <use x="159.033203" xlink:href="#DejaVuSans-49"/>
       <use x="222.65625" xlink:href="#DejaVuSans-56"/>
      </g>
     </g>
    </g>
    <g id="ytick_8">
     <g id="line2d_38">
      <path clip-path="url(#pff32f2fabb)" d="M 46.08 205.67929 
L 212.75234 205.67929 
" style="fill:none;stroke:#b0b0b0;stroke-linecap:square;stroke-width:0.8;"/>
     </g>
     <g id="line2d_39">
      <g>
       <use style="stroke:#000000;stroke-width:0.8;" x="46.08" xlink:href="#m9c64e96c01" y="205.67929"/>
      </g>
     </g>
     <g id="text_23">
      <!-- 0.020 -->
      <g transform="translate(10.451875 209.478508)scale(0.1 -0.1)">
       <use xlink:href="#DejaVuSans-48"/>
       <use x="63.623047" xlink:href="#DejaVuSans-46"/>
       <use x="95.410156" xlink:href="#DejaVuSans-48"/>
       <use x="159.033203" xlink:href="#DejaVuSans-50"/>
       <use x="222.65625" xlink:href="#DejaVuSans-48"/>
      </g>
     </g>
    </g>
    <g id="text_24">
     <!-- Número -->
     <g transform="translate(4.372188 273.409531)rotate(-90)scale(0.1 -0.1)">
      <use xlink:href="#DejaVuSans-78"/>
      <use x="74.804688" xlink:href="#DejaVuSans-250"/>
      <use x="138.183594" xlink:href="#DejaVuSans-109"/>
      <use x="235.595703" xlink:href="#DejaVuSans-101"/>
      <use x="297.119141" xlink:href="#DejaVuSans-114"/>
      <use x="338.201172" xlink:href="#DejaVuSans-111"/>
     </g>
    </g>
   </g>
   <g id="line2d_40">
    <path clip-path="url(#pff32f2fabb)" d="M 53.656015 194.792727 
L 53.959359 298.973011 
L 54.414375 312.087273 
L 54.566047 304.61149 
L 54.869391 305.769512 
L 55.172735 297.117191 
L 55.324407 297.952042 
L 55.476079 291.250732 
L 55.627751 299.140482 
L 55.779423 298.427269 
L 55.931095 293.982684 
L 56.082767 293.680384 
L 56.234439 293.919322 
L 56.386111 291.714942 
L 56.689455 279.88452 
L 57.296143 287.728543 
L 57.447815 285.579406 
L 57.599487 285.390125 
L 57.751159 283.933816 
L 58.054503 284.156559 
L 58.206175 283.174009 
L 58.661191 288.979824 
L 58.964535 285.382396 
L 59.116207 286.621208 
L 59.419551 287.109509 
L 59.571223 288.051055 
L 59.874567 284.847084 
L 60.026239 284.916654 
L 60.177911 285.988106 
L 60.481255 283.284552 
L 60.784599 280.969665 
L 61.087943 278.87792 
L 61.239615 280.286249 
L 61.391287 280.113382 
L 61.542959 279.443885 
L 61.69463 280.491773 
L 61.846302 279.763198 
L 61.997974 278.140904 
L 62.149646 279.347842 
L 62.301318 279.168687 
L 62.45299 278.256588 
L 62.604662 278.528014 
L 62.756334 279.707457 
L 62.908006 279.536184 
L 63.059678 278.134824 
L 63.21135 277.846867 
L 63.514694 276.924978 
L 63.666366 277.245915 
L 63.96971 277.149476 
L 64.121382 277.358698 
L 64.273054 277.800546 
L 64.72807 276.238886 
L 64.879742 275.964662 
L 65.031414 276.400168 
L 65.183086 276.00117 
L 65.638102 277.717111 
L 65.789774 276.738493 
L 65.941446 277.988997 
L 66.093118 278.213909 
L 66.396462 279.265001 
L 66.548134 278.82152 
L 66.699806 278.000749 
L 66.851478 278.277865 
L 67.00315 278.033862 
L 67.154822 277.047652 
L 67.306494 277.223977 
L 67.458166 275.977381 
L 67.609838 276.455518 
L 67.76151 276.119991 
L 67.913182 276.6997 
L 68.064854 275.153483 
L 68.216526 274.931708 
L 68.368198 275.310449 
L 68.51987 275.299026 
L 68.823214 276.678572 
L 68.974886 276.459057 
L 69.126558 276.53915 
L 69.581574 277.696423 
L 69.733246 277.889375 
L 70.036589 277.303899 
L 70.188261 277.497039 
L 70.339933 278.290918 
L 70.491605 278.145604 
L 70.794949 278.439594 
L 70.946621 277.843947 
L 71.098293 278.358197 
L 71.249965 277.54599 
L 71.401637 277.735928 
L 71.553309 277.255352 
L 71.704981 277.739439 
L 71.856653 277.711306 
L 72.008325 278.087742 
L 72.311669 278.19152 
L 72.463341 277.784573 
L 72.766685 278.700114 
L 72.918357 278.512028 
L 73.070029 278.517623 
L 73.525045 279.356566 
L 73.676717 279.390029 
L 73.828389 279.107135 
L 74.283405 279.721736 
L 74.586749 279.373224 
L 74.738421 279.095994 
L 74.890093 278.559685 
L 75.041765 279.142222 
L 75.193437 279.070161 
L 75.345109 279.344714 
L 75.496781 279.176589 
L 75.648453 279.367494 
L 75.951797 278.309849 
L 76.103469 278.503346 
L 76.406813 278.30779 
L 76.558485 278.647523 
L 76.710157 278.443774 
L 77.013501 277.926823 
L 77.165173 277.815598 
L 77.316845 278.019696 
L 77.468517 277.861778 
L 77.620189 278.187685 
L 77.771861 278.863679 
L 77.923533 278.966608 
L 78.226876 279.516598 
L 78.378548 279.591948 
L 78.833564 280.165832 
L 79.28858 278.945402 
L 79.440252 279.317704 
L 79.591924 279.228565 
L 79.743596 279.330398 
L 79.895268 279.042941 
L 80.198612 278.092775 
L 80.350284 278.155243 
L 80.501956 278.008456 
L 80.653628 278.081506 
L 80.956972 278.462362 
L 81.108644 278.451896 
L 81.260316 277.918328 
L 81.715332 278.039335 
L 81.867004 278.46832 
L 82.018676 278.427018 
L 82.170348 278.582971 
L 82.32202 278.432993 
L 82.473692 277.817211 
L 82.777036 277.643225 
L 82.928708 277.933316 
L 83.08038 277.532902 
L 83.232052 278.083282 
L 83.383724 277.627703 
L 83.687068 278.176555 
L 83.83874 277.815382 
L 84.445428 278.473626 
L 84.5971 278.155738 
L 84.748772 278.340812 
L 85.052116 278.965152 
L 85.203788 279.122697 
L 85.810476 278.343221 
L 85.962148 278.620861 
L 86.265491 278.421252 
L 86.417163 278.541424 
L 86.568835 278.492922 
L 86.720507 278.6246 
L 87.023851 278.432544 
L 87.478867 278.619175 
L 87.782211 278.914307 
L 88.085555 279.158979 
L 88.237227 279.319067 
L 88.388899 279.085171 
L 88.540571 279.157353 
L 88.692243 278.518631 
L 88.995587 278.72921 
L 89.147259 278.943065 
L 89.450603 278.376567 
L 89.602275 278.698124 
L 89.753947 278.541945 
L 90.208963 277.694006 
L 90.663979 278.81467 
L 91.118995 279.502983 
L 91.270667 279.32713 
L 91.574011 279.940019 
L 91.725683 279.623276 
L 91.877355 279.740587 
L 92.029027 279.601088 
L 92.484043 280.090349 
L 93.242403 280.921493 
L 93.394075 280.29157 
L 93.697419 280.369324 
L 93.849091 280.237813 
L 94.152435 280.374195 
L 94.304107 280.350966 
L 94.455778 280.123056 
L 94.60745 280.111177 
L 94.759122 279.949207 
L 94.910794 280.009134 
L 95.062466 279.911503 
L 95.214138 280.150303 
L 95.517482 279.620796 
L 95.669154 279.211676 
L 95.820826 279.389397 
L 96.275842 278.846393 
L 96.579186 279.215212 
L 96.730858 279.09903 
L 97.185874 279.713283 
L 97.337546 279.849355 
L 97.489218 279.621394 
L 97.64089 279.680588 
L 97.792562 279.464277 
L 97.944234 279.859442 
L 98.095906 279.791926 
L 98.247578 280.047926 
L 98.39925 279.707204 
L 98.702594 279.949697 
L 98.854266 279.888671 
L 99.15761 280.225254 
L 99.309282 280.100137 
L 99.460954 280.216503 
L 99.612626 280.118138 
L 99.764298 279.826481 
L 100.067642 279.746865 
L 100.219314 279.895714 
L 100.370986 279.735355 
L 100.522658 280.02421 
L 100.67433 279.568025 
L 100.977674 279.991477 
L 101.43269 279.666508 
L 101.584362 279.733078 
L 102.039378 279.444235 
L 102.949409 279.44017 
L 103.404425 279.567875 
L 103.556097 279.423338 
L 103.707769 279.481662 
L 103.859441 279.742364 
L 104.162785 279.659231 
L 104.466129 280.092121 
L 104.921145 279.558646 
L 105.224489 279.365552 
L 105.376161 279.511259 
L 105.679505 279.540372 
L 105.831177 279.260925 
L 106.134521 279.429724 
L 106.286193 279.005412 
L 106.589537 278.900071 
L 106.741209 278.95406 
L 106.892881 279.142082 
L 107.044553 279.014895 
L 107.196225 278.58604 
L 107.651241 278.598514 
L 108.106257 278.363575 
L 108.561273 278.952836 
L 108.864617 278.80798 
L 109.016289 278.562204 
L 109.319633 278.564075 
L 109.926321 278.227489 
L 110.229665 278.303898 
L 110.836352 278.204699 
L 110.988024 277.939239 
L 111.44304 278.067866 
L 111.594712 277.779171 
L 111.898056 277.808221 
L 112.353072 278.11909 
L 112.656416 277.635466 
L 112.95976 277.762744 
L 113.111432 278.099009 
L 113.414776 277.970129 
L 113.566448 278.059487 
L 113.71812 277.762934 
L 113.869792 277.918584 
L 114.021464 277.891782 
L 114.324808 278.124904 
L 115.083168 278.132174 
L 115.386512 278.311702 
L 115.689856 277.958975 
L 115.841528 278.047345 
L 116.144872 277.916325 
L 116.75156 278.21076 
L 116.903232 277.925475 
L 117.054904 278.027835 
L 117.358248 277.880256 
L 117.661592 278.125263 
L 118.116608 278.199121 
L 118.26828 278.278082 
L 118.419952 278.216282 
L 118.723296 278.481209 
L 119.481655 278.434777 
L 119.633327 278.482246 
L 120.088343 278.069743 
L 120.695031 278.48524 
L 120.998375 278.405873 
L 121.301719 278.585322 
L 121.756735 278.575581 
L 121.908407 278.218696 
L 122.060079 278.244656 
L 122.211751 278.480358 
L 122.666767 278.589589 
L 122.818439 278.797591 
L 123.273455 278.468337 
L 123.728471 278.378336 
L 123.880143 278.497172 
L 124.031815 278.452315 
L 124.335159 278.188624 
L 124.486831 278.20804 
L 124.790175 278.025699 
L 125.245191 278.502811 
L 125.548535 278.78082 
L 125.851879 278.470841 
L 126.761911 278.80325 
L 126.913583 278.641145 
L 127.216926 278.809078 
L 127.52027 278.751523 
L 127.671942 278.548154 
L 127.975286 278.711821 
L 128.430302 278.975927 
L 128.885318 278.623439 
L 129.188662 278.895418 
L 129.492006 278.801999 
L 129.947022 279.152614 
L 130.250366 279.054469 
L 130.705382 279.009005 
L 130.857054 279.15416 
L 131.008726 278.854054 
L 131.463742 278.98446 
L 132.07043 279.131338 
L 132.373774 279.40928 
L 132.677118 279.501853 
L 132.980462 279.703679 
L 133.132134 279.557873 
L 133.435478 279.804438 
L 133.58715 279.585354 
L 134.042166 279.588672 
L 134.34551 279.275469 
L 135.558885 279.833478 
L 135.862229 279.874799 
L 136.317245 279.68985 
L 136.772261 279.853179 
L 137.227277 279.902396 
L 138.137309 279.868326 
L 138.440653 279.880452 
L 138.895669 279.829838 
L 139.350685 279.569744 
L 139.957373 279.773077 
L 140.109045 279.581749 
L 140.715733 279.8728 
L 141.474093 279.745743 
L 141.625765 279.844373 
L 142.080781 279.699531 
L 142.535797 279.877799 
L 142.687469 279.967338 
L 142.839141 279.894235 
L 143.749172 280.179386 
L 145.11422 279.99665 
L 146.327596 280.278397 
L 146.63094 280.181943 
L 146.782612 280.261412 
L 147.085956 280.158142 
L 147.3893 280.27463 
L 147.692644 280.022515 
L 148.90602 280.092138 
L 149.361036 280.138704 
L 149.816052 279.905164 
L 150.271068 280.083254 
L 151.484444 279.692327 
L 151.939459 279.80974 
L 152.242803 279.952609 
L 153.001163 279.74683 
L 153.152835 279.850931 
L 153.304507 279.806139 
L 153.456179 279.549794 
L 153.607851 279.625043 
L 153.759523 279.412718 
L 153.911195 279.411474 
L 154.062867 279.526579 
L 154.517883 279.415213 
L 155.124571 279.587262 
L 155.427915 279.544612 
L 156.489619 280.013333 
L 156.792963 279.876552 
L 157.247979 279.964311 
L 157.551323 279.893352 
L 157.854667 279.952542 
L 158.764699 280.170123 
L 158.916371 280.046191 
L 159.371387 280.133818 
L 159.674731 280.171099 
L 160.129746 280.302541 
L 160.736434 280.428239 
L 161.19145 280.554355 
L 161.494794 280.46319 
L 161.94981 280.260835 
L 162.101482 280.369382 
L 162.556498 280.107347 
L 163.163186 280.30379 
L 163.314858 280.137207 
L 163.769874 280.068528 
L 164.073218 279.947386 
L 164.22489 280.021485 
L 164.831578 279.849288 
L 165.286594 279.921444 
L 165.74161 279.850342 
L 166.044954 279.969848 
L 167.410002 279.637496 
L 167.561674 279.377326 
L 167.713346 279.399525 
L 168.016689 279.312276 
L 168.320033 279.436068 
L 168.775049 279.617077 
L 169.230065 279.667358 
L 169.836753 279.371767 
L 169.988425 279.326151 
L 170.595113 279.554205 
L 170.746785 279.429158 
L 171.656817 279.72784 
L 171.808489 279.725261 
L 171.960161 279.589771 
L 172.263505 279.63542 
L 172.415177 279.548367 
L 172.566849 279.645595 
L 173.173537 279.53241 
L 173.325209 279.567986 
L 173.628553 279.437563 
L 174.083569 279.458167 
L 174.993601 279.729972 
L 175.751961 279.79346 
L 176.055305 279.733722 
L 176.206976 279.757952 
L 176.358648 279.65409 
L 176.965336 279.757645 
L 177.26868 279.753128 
L 178.02704 279.912924 
L 178.937072 280.013352 
L 179.088744 280.133385 
L 179.240416 280.044624 
L 179.695432 280.183046 
L 179.847104 280.136025 
L 180.453792 280.408022 
L 180.908808 280.321202 
L 181.06048 280.361018 
L 181.363824 280.28808 
L 183.032216 280.40606 
L 183.487232 280.671317 
L 183.790576 280.527246 
L 184.245592 280.468529 
L 184.397263 280.547033 
L 184.700607 280.453148 
L 185.003951 280.569333 
L 185.307295 280.524688 
L 185.762311 280.62788 
L 186.065655 280.34674 
L 186.368999 280.498351 
L 186.672343 280.466955 
L 187.127359 280.226701 
L 187.885719 280.308294 
L 188.189063 280.133413 
L 188.492407 280.177565 
L 188.795751 280.175861 
L 189.250767 280.006842 
L 189.554111 280.008818 
L 190.767487 280.135661 
L 191.070831 280.222751 
L 191.374175 280.180627 
L 191.677519 280.048597 
L 192.435879 279.88125 
L 194.10427 279.937903 
L 194.407614 279.904615 
L 195.469318 279.85083 
L 195.924334 279.774941 
L 196.076006 279.844716 
L 196.37935 279.718209 
L 197.89607 279.756253 
L 198.047742 279.684115 
L 198.351086 279.740718 
L 198.65443 279.710802 
L 198.957774 279.68076 
L 200.777837 279.87898 
L 202.597901 280.235788 
L 203.052917 280.229799 
L 203.659605 280.319134 
L 203.962949 280.273858 
L 204.114621 280.346892 
L 204.569637 280.152825 
L 205.176325 280.235626 
L 205.176325 280.235626 
" style="fill:none;stroke:#1f77b4;stroke-linecap:square;stroke-width:1.5;"/>
   </g>
   <g id="patch_8">
    <path d="M 46.08 317.952 
L 46.08 188.928 
" style="fill:none;stroke:#000000;stroke-linecap:square;stroke-linejoin:miter;stroke-width:0.8;"/>
   </g>
   <g id="patch_9">
    <path d="M 212.75234 317.952 
L 212.75234 188.928 
" style="fill:none;stroke:#000000;stroke-linecap:square;stroke-linejoin:miter;stroke-width:0.8;"/>
   </g>
   <g id="patch_10">
    <path d="M 46.08 317.952 
L 212.75234 317.952 
" style="fill:none;stroke:#000000;stroke-linecap:square;stroke-linejoin:miter;stroke-width:0.8;"/>
   </g>
   <g id="patch_11">
    <path d="M 46.08 188.928 
L 212.75234 188.928 
" style="fill:none;stroke:#000000;stroke-linecap:square;stroke-linejoin:miter;stroke-width:0.8;"/>
   </g>
   <g id="text_25">
    <!-- Número promedio de clientes en cola C1 -->
    <g transform="translate(6.769608 182.928)scale(0.12 -0.12)">
     <use xlink:href="#DejaVuSans-78"/>
     <use x="74.804688" xlink:href="#DejaVuSans-250"/>
     <use x="138.183594" xlink:href="#DejaVuSans-109"/>
     <use x="235.595703" xlink:href="#DejaVuSans-101"/>
     <use x="297.119141" xlink:href="#DejaVuSans-114"/>
     <use x="338.201172" xlink:href="#DejaVuSans-111"/>
     <use x="399.382812" xlink:href="#DejaVuSans-32"/>
     <use x="431.169922" xlink:href="#DejaVuSans-112"/>
     <use x="494.646484" xlink:href="#DejaVuSans-114"/>
     <use x="535.728516" xlink:href="#DejaVuSans-111"/>
     <use x="596.910156" xlink:href="#DejaVuSans-109"/>
     <use x="694.322266" xlink:href="#DejaVuSans-101"/>
     <use x="755.845703" xlink:href="#DejaVuSans-100"/>
     <use x="819.322266" xlink:href="#DejaVuSans-105"/>
     <use x="847.105469" xlink:href="#DejaVuSans-111"/>
     <use x="908.287109" xlink:href="#DejaVuSans-32"/>
     <use x="940.074219" xlink:href="#DejaVuSans-100"/>
     <use x="1003.550781" xlink:href="#DejaVuSans-101"/>
     <use x="1065.074219" xlink:href="#DejaVuSans-32"/>
     <use x="1096.861328" xlink:href="#DejaVuSans-99"/>
     <use x="1151.841797" xlink:href="#DejaVuSans-108"/>
     <use x="1179.625" xlink:href="#DejaVuSans-105"/>
     <use x="1207.408203" xlink:href="#DejaVuSans-101"/>
     <use x="1268.931641" xlink:href="#DejaVuSans-110"/>
     <use x="1332.310547" xlink:href="#DejaVuSans-116"/>
     <use x="1371.519531" xlink:href="#DejaVuSans-101"/>
     <use x="1433.042969" xlink:href="#DejaVuSans-115"/>
     <use x="1485.142578" xlink:href="#DejaVuSans-32"/>
     <use x="1516.929688" xlink:href="#DejaVuSans-101"/>
     <use x="1578.453125" xlink:href="#DejaVuSans-110"/>
     <use x="1641.832031" xlink:href="#DejaVuSans-32"/>
     <use x="1673.619141" xlink:href="#DejaVuSans-99"/>
     <use x="1728.599609" xlink:href="#DejaVuSans-111"/>
     <use x="1789.78125" xlink:href="#DejaVuSans-108"/>
     <use x="1817.564453" xlink:href="#DejaVuSans-97"/>
     <use x="1878.84375" xlink:href="#DejaVuSans-32"/>
     <use x="1910.630859" xlink:href="#DejaVuSans-67"/>
     <use x="1980.455078" xlink:href="#DejaVuSans-49"/>
    </g>
   </g>
  </g>
  <g id="axes_3">
   <g id="patch_12">
    <path d="M 271.08766 317.952 
L 437.76 317.952 
L 437.76 188.928 
L 271.08766 188.928 
z
" style="fill:#ffffff;"/>
   </g>
   <g id="matplotlib.axis_5">
    <g id="xtick_12">
     <g id="line2d_41">
      <path clip-path="url(#p8d8cd9e5a9)" d="M 278.512003 317.952 
L 278.512003 188.928 
" style="fill:none;stroke:#b0b0b0;stroke-linecap:square;stroke-width:0.8;"/>
     </g>
     <g id="line2d_42">
      <g>
       <use style="stroke:#000000;stroke-width:0.8;" x="278.512003" xlink:href="#m6c4018078b" y="317.952"/>
      </g>
     </g>
     <g id="text_26">
      <!-- 0 -->
      <g transform="translate(275.330753 332.550437)scale(0.1 -0.1)">
       <use xlink:href="#DejaVuSans-48"/>
      </g>
     </g>
    </g>
    <g id="xtick_13">
     <g id="line2d_43">
      <path clip-path="url(#p8d8cd9e5a9)" d="M 316.429998 317.952 
L 316.429998 188.928 
" style="fill:none;stroke:#b0b0b0;stroke-linecap:square;stroke-width:0.8;"/>
     </g>
     <g id="line2d_44">
      <g>
       <use style="stroke:#000000;stroke-width:0.8;" x="316.429998" xlink:href="#m6c4018078b" y="317.952"/>
      </g>
     </g>
     <g id="text_27">
      <!-- 250 -->
      <g transform="translate(306.886248 332.550437)scale(0.1 -0.1)">
       <use xlink:href="#DejaVuSans-50"/>
       <use x="63.623047" xlink:href="#DejaVuSans-53"/>
       <use x="127.246094" xlink:href="#DejaVuSans-48"/>
      </g>
     </g>
    </g>
    <g id="xtick_14">
     <g id="line2d_45">
      <path clip-path="url(#p8d8cd9e5a9)" d="M 354.347994 317.952 
L 354.347994 188.928 
" style="fill:none;stroke:#b0b0b0;stroke-linecap:square;stroke-width:0.8;"/>
     </g>
     <g id="line2d_46">
      <g>
       <use style="stroke:#000000;stroke-width:0.8;" x="354.347994" xlink:href="#m6c4018078b" y="317.952"/>
      </g>
     </g>
     <g id="text_28">
      <!-- 500 -->
      <g transform="translate(344.804244 332.550437)scale(0.1 -0.1)">
       <use xlink:href="#DejaVuSans-53"/>
       <use x="63.623047" xlink:href="#DejaVuSans-48"/>
       <use x="127.246094" xlink:href="#DejaVuSans-48"/>
      </g>
     </g>
    </g>
    <g id="xtick_15">
     <g id="line2d_47">
      <path clip-path="url(#p8d8cd9e5a9)" d="M 392.265989 317.952 
L 392.265989 188.928 
" style="fill:none;stroke:#b0b0b0;stroke-linecap:square;stroke-width:0.8;"/>
     </g>
     <g id="line2d_48">
      <g>
       <use style="stroke:#000000;stroke-width:0.8;" x="392.265989" xlink:href="#m6c4018078b" y="317.952"/>
      </g>
     </g>
     <g id="text_29">
      <!-- 750 -->
      <g transform="translate(382.722239 332.550437)scale(0.1 -0.1)">
       <use xlink:href="#DejaVuSans-55"/>
       <use x="63.623047" xlink:href="#DejaVuSans-53"/>
       <use x="127.246094" xlink:href="#DejaVuSans-48"/>
      </g>
     </g>
    </g>
    <g id="xtick_16">
     <g id="line2d_49">
      <path clip-path="url(#p8d8cd9e5a9)" d="M 430.183985 317.952 
L 430.183985 188.928 
" style="fill:none;stroke:#b0b0b0;stroke-linecap:square;stroke-width:0.8;"/>
     </g>
     <g id="line2d_50">
      <g>
       <use style="stroke:#000000;stroke-width:0.8;" x="430.183985" xlink:href="#m6c4018078b" y="317.952"/>
      </g>
     </g>
     <g id="text_30">
      <!-- 1000 -->
      <g transform="translate(417.458985 332.550437)scale(0.1 -0.1)">
       <use xlink:href="#DejaVuSans-49"/>
       <use x="63.623047" xlink:href="#DejaVuSans-48"/>
       <use x="127.246094" xlink:href="#DejaVuSans-48"/>
       <use x="190.869141" xlink:href="#DejaVuSans-48"/>
      </g>
     </g>
    </g>
    <g id="text_31">
     <!-- Corridas -->
     <g transform="translate(333.530861 346.228563)scale(0.1 -0.1)">
      <use xlink:href="#DejaVuSans-67"/>
      <use x="69.824219" xlink:href="#DejaVuSans-111"/>
      <use x="131.005859" xlink:href="#DejaVuSans-114"/>
      <use x="172.103516" xlink:href="#DejaVuSans-114"/>
      <use x="213.216797" xlink:href="#DejaVuSans-105"/>
      <use x="241" xlink:href="#DejaVuSans-100"/>
      <use x="304.476562" xlink:href="#DejaVuSans-97"/>
      <use x="365.755859" xlink:href="#DejaVuSans-115"/>
     </g>
    </g>
   </g>
   <g id="matplotlib.axis_6">
    <g id="ytick_9">
     <g id="line2d_51">
      <path clip-path="url(#p8d8cd9e5a9)" d="M 271.08766 310.082903 
L 437.76 310.082903 
" style="fill:none;stroke:#b0b0b0;stroke-linecap:square;stroke-width:0.8;"/>
     </g>
     <g id="line2d_52">
      <g>
       <use style="stroke:#000000;stroke-width:0.8;" x="271.08766" xlink:href="#m9c64e96c01" y="310.082903"/>
      </g>
     </g>
     <g id="text_32">
      <!-- 0.011 -->
      <g transform="translate(235.459535 313.882122)scale(0.1 -0.1)">
       <use xlink:href="#DejaVuSans-48"/>
       <use x="63.623047" xlink:href="#DejaVuSans-46"/>
       <use x="95.410156" xlink:href="#DejaVuSans-48"/>
       <use x="159.033203" xlink:href="#DejaVuSans-49"/>
       <use x="222.65625" xlink:href="#DejaVuSans-49"/>
      </g>
     </g>
    </g>
    <g id="ytick_10">
     <g id="line2d_53">
      <path clip-path="url(#p8d8cd9e5a9)" d="M 271.08766 272.729903 
L 437.76 272.729903 
" style="fill:none;stroke:#b0b0b0;stroke-linecap:square;stroke-width:0.8;"/>
     </g>
     <g id="line2d_54">
      <g>
       <use style="stroke:#000000;stroke-width:0.8;" x="271.08766" xlink:href="#m9c64e96c01" y="272.729903"/>
      </g>
     </g>
     <g id="text_33">
      <!-- 0.012 -->
      <g transform="translate(235.459535 276.529122)scale(0.1 -0.1)">
       <use xlink:href="#DejaVuSans-48"/>
       <use x="63.623047" xlink:href="#DejaVuSans-46"/>
       <use x="95.410156" xlink:href="#DejaVuSans-48"/>
       <use x="159.033203" xlink:href="#DejaVuSans-49"/>
       <use x="222.65625" xlink:href="#DejaVuSans-50"/>
      </g>
     </g>
    </g>
    <g id="ytick_11">
     <g id="line2d_55">
      <path clip-path="url(#p8d8cd9e5a9)" d="M 271.08766 235.376903 
L 437.76 235.376903 
" style="fill:none;stroke:#b0b0b0;stroke-linecap:square;stroke-width:0.8;"/>
     </g>
     <g id="line2d_56">
      <g>
       <use style="stroke:#000000;stroke-width:0.8;" x="271.08766" xlink:href="#m9c64e96c01" y="235.376903"/>
      </g>
     </g>
     <g id="text_34">
      <!-- 0.013 -->
      <defs>
       <path d="M 40.578125 39.3125 
Q 47.65625 37.796875 51.625 33 
Q 55.609375 28.21875 55.609375 21.1875 
Q 55.609375 10.40625 48.1875 4.484375 
Q 40.765625 -1.421875 27.09375 -1.421875 
Q 22.515625 -1.421875 17.65625 -0.515625 
Q 12.796875 0.390625 7.625 2.203125 
L 7.625 11.71875 
Q 11.71875 9.328125 16.59375 8.109375 
Q 21.484375 6.890625 26.8125 6.890625 
Q 36.078125 6.890625 40.9375 10.546875 
Q 45.796875 14.203125 45.796875 21.1875 
Q 45.796875 27.640625 41.28125 31.265625 
Q 36.765625 34.90625 28.71875 34.90625 
L 20.21875 34.90625 
L 20.21875 43.015625 
L 29.109375 43.015625 
Q 36.375 43.015625 40.234375 45.921875 
Q 44.09375 48.828125 44.09375 54.296875 
Q 44.09375 59.90625 40.109375 62.90625 
Q 36.140625 65.921875 28.71875 65.921875 
Q 24.65625 65.921875 20.015625 65.03125 
Q 15.375 64.15625 9.8125 62.3125 
L 9.8125 71.09375 
Q 15.4375 72.65625 20.34375 73.4375 
Q 25.25 74.21875 29.59375 74.21875 
Q 40.828125 74.21875 47.359375 69.109375 
Q 53.90625 64.015625 53.90625 55.328125 
Q 53.90625 49.265625 50.4375 45.09375 
Q 46.96875 40.921875 40.578125 39.3125 
z
" id="DejaVuSans-51"/>
      </defs>
      <g transform="translate(235.459535 239.176122)scale(0.1 -0.1)">
       <use xlink:href="#DejaVuSans-48"/>
       <use x="63.623047" xlink:href="#DejaVuSans-46"/>
       <use x="95.410156" xlink:href="#DejaVuSans-48"/>
       <use x="159.033203" xlink:href="#DejaVuSans-49"/>
       <use x="222.65625" xlink:href="#DejaVuSans-51"/>
      </g>
     </g>
    </g>
    <g id="ytick_12">
     <g id="line2d_57">
      <path clip-path="url(#p8d8cd9e5a9)" d="M 271.08766 198.023903 
L 437.76 198.023903 
" style="fill:none;stroke:#b0b0b0;stroke-linecap:square;stroke-width:0.8;"/>
     </g>
     <g id="line2d_58">
      <g>
       <use style="stroke:#000000;stroke-width:0.8;" x="271.08766" xlink:href="#m9c64e96c01" y="198.023903"/>
      </g>
     </g>
     <g id="text_35">
      <!-- 0.014 -->
      <g transform="translate(235.459535 201.823121)scale(0.1 -0.1)">
       <use xlink:href="#DejaVuSans-48"/>
       <use x="63.623047" xlink:href="#DejaVuSans-46"/>
       <use x="95.410156" xlink:href="#DejaVuSans-48"/>
       <use x="159.033203" xlink:href="#DejaVuSans-49"/>
       <use x="222.65625" xlink:href="#DejaVuSans-52"/>
      </g>
     </g>
    </g>
    <g id="text_36">
     <!-- Número -->
     <g transform="translate(229.379847 273.409531)rotate(-90)scale(0.1 -0.1)">
      <use xlink:href="#DejaVuSans-78"/>
      <use x="74.804688" xlink:href="#DejaVuSans-250"/>
      <use x="138.183594" xlink:href="#DejaVuSans-109"/>
      <use x="235.595703" xlink:href="#DejaVuSans-101"/>
      <use x="297.119141" xlink:href="#DejaVuSans-114"/>
      <use x="338.201172" xlink:href="#DejaVuSans-111"/>
     </g>
    </g>
   </g>
   <g id="line2d_59">
    <path clip-path="url(#p8d8cd9e5a9)" d="M 278.663675 194.792727 
L 278.815347 290.406839 
L 278.967019 308.931489 
L 279.118691 270.721508 
L 279.270363 279.383066 
L 279.422035 303.256188 
L 279.573707 306.731634 
L 279.725379 303.809405 
L 279.877051 312.087273 
L 280.028723 312.062888 
L 280.332067 299.674686 
L 280.635411 280.329015 
L 280.787083 280.857616 
L 281.090427 266.992355 
L 281.242099 269.884686 
L 281.545443 259.804127 
L 281.697115 261.798936 
L 281.848787 261.24055 
L 282.000459 257.662054 
L 282.303803 245.082976 
L 282.455475 244.935355 
L 282.607147 244.150314 
L 282.758819 249.354766 
L 283.062163 250.185192 
L 283.213834 245.90604 
L 283.365506 247.349013 
L 283.517178 245.920757 
L 283.66885 247.07008 
L 283.820522 238.013944 
L 283.972194 236.586948 
L 284.123866 237.777854 
L 284.275538 240.22155 
L 284.578882 237.743615 
L 284.882226 225.642416 
L 285.033898 228.815628 
L 285.18557 228.821475 
L 285.337242 231.161455 
L 285.488914 230.809972 
L 285.640586 229.419886 
L 285.792258 229.634968 
L 285.94393 229.097827 
L 286.095602 229.915283 
L 286.247274 232.416778 
L 286.550618 229.232814 
L 286.70229 229.889519 
L 287.157306 233.451966 
L 287.308978 233.608763 
L 287.46065 235.980956 
L 287.612322 236.129348 
L 287.915666 239.710977 
L 288.067338 238.818077 
L 288.21901 239.482741 
L 288.370682 237.201946 
L 288.522354 238.291968 
L 288.674026 240.383977 
L 288.97737 245.979513 
L 289.129042 243.428928 
L 289.280714 245.275958 
L 289.584058 242.087575 
L 289.73573 240.751238 
L 290.039074 242.794851 
L 290.49409 238.499082 
L 290.645762 239.647861 
L 290.797434 239.549192 
L 290.949106 241.90378 
L 291.100778 242.37609 
L 291.404121 245.651247 
L 291.707465 244.805408 
L 291.859137 245.215968 
L 292.010809 244.01485 
L 292.162481 241.902234 
L 292.465825 242.573833 
L 292.920841 247.446368 
L 293.375857 242.465559 
L 293.679201 244.07584 
L 293.830873 243.268763 
L 293.982545 245.059361 
L 294.134217 242.554802 
L 294.285889 242.528601 
L 294.437561 243.624767 
L 294.589233 242.684255 
L 294.740905 241.030012 
L 294.892577 242.11533 
L 295.044249 242.126455 
L 295.195921 240.940852 
L 295.347593 240.635904 
L 295.499265 238.938296 
L 295.650937 238.927129 
L 295.802609 237.446763 
L 296.560969 236.1511 
L 296.712641 236.802856 
L 296.864313 236.261009 
L 297.319329 238.972636 
L 297.471001 239.022428 
L 297.622673 239.691154 
L 297.774345 239.233262 
L 297.926017 239.255705 
L 298.229361 240.017581 
L 298.532705 241.162518 
L 298.684377 240.941014 
L 298.836049 241.532929 
L 299.139393 238.293649 
L 299.291065 239.069375 
L 299.594408 238.321535 
L 299.74608 237.041146 
L 299.897752 237.640978 
L 300.049424 238.809103 
L 300.201096 238.257306 
L 300.352768 239.183514 
L 300.656112 239.054898 
L 300.807784 240.501408 
L 300.959456 239.659086 
L 301.414472 240.610158 
L 301.566144 239.837751 
L 301.717816 240.351459 
L 302.02116 238.291497 
L 302.172832 238.490842 
L 302.324504 239.275689 
L 302.476176 238.686885 
L 302.627848 238.682195 
L 302.77952 239.082986 
L 302.931192 238.499008 
L 303.082864 239.199652 
L 303.234536 238.830278 
L 303.53788 241.443593 
L 303.841224 242.717361 
L 303.992896 242.431988 
L 304.144568 241.33087 
L 304.29624 241.332891 
L 304.447912 240.825275 
L 304.902928 242.287028 
L 305.0546 242.304008 
L 305.206272 242.055178 
L 305.357944 242.044752 
L 305.661288 243.007915 
L 305.81296 243.659694 
L 305.964632 243.167212 
L 306.116304 243.094242 
L 306.419648 242.571129 
L 306.57132 243.375346 
L 306.722992 243.135206 
L 307.026336 243.730445 
L 307.178008 243.925242 
L 307.32968 243.860525 
L 307.481352 243.46197 
L 307.633024 242.692131 
L 307.784695 243.046199 
L 307.936367 242.91295 
L 308.088039 242.344276 
L 308.239711 242.730905 
L 308.391383 241.963077 
L 308.694727 242.937815 
L 308.846399 243.186814 
L 308.998071 242.890666 
L 309.149743 243.447656 
L 309.301415 243.542231 
L 309.604759 244.21319 
L 309.756431 244.151814 
L 310.059775 246.105235 
L 310.363119 245.767553 
L 310.514791 246.098602 
L 310.818135 245.941814 
L 310.969807 246.426903 
L 311.424823 244.476516 
L 311.728167 244.621365 
L 311.879839 244.882486 
L 312.183183 246.360638 
L 312.334855 245.902669 
L 312.638199 247.03352 
L 312.789871 247.053603 
L 312.941543 247.962116 
L 313.093215 247.624607 
L 313.244887 246.98339 
L 313.396559 247.350646 
L 313.699903 245.119825 
L 313.851575 245.491534 
L 314.003247 245.236121 
L 314.306591 245.892135 
L 314.458263 246.150452 
L 314.609935 246.093893 
L 315.064951 246.571136 
L 315.216623 245.920155 
L 315.368295 246.558209 
L 315.519967 246.240509 
L 315.671639 246.646811 
L 315.823311 246.051884 
L 316.126654 246.670294 
L 316.429998 246.298079 
L 316.58167 246.088694 
L 317.036686 246.476812 
L 317.188358 245.914387 
L 317.34003 245.876213 
L 317.643374 246.926293 
L 317.795046 246.080775 
L 317.946718 245.873592 
L 318.09839 246.161723 
L 318.401734 245.917826 
L 318.553406 245.476314 
L 318.85675 245.688212 
L 319.160094 245.680755 
L 319.463438 246.411023 
L 319.61511 246.10716 
L 319.918454 246.721085 
L 320.221798 245.223889 
L 320.980158 247.202516 
L 321.13183 246.705572 
L 321.283502 246.814246 
L 321.586846 247.392784 
L 321.738518 247.177206 
L 321.89019 247.509102 
L 322.041862 248.159058 
L 322.193534 248.25867 
L 322.345206 248.603618 
L 322.496878 248.0018 
L 322.951894 248.428944 
L 323.103566 247.667965 
L 323.40691 248.409905 
L 323.710254 247.610944 
L 324.013598 248.093593 
L 324.165269 247.954317 
L 324.316941 248.113708 
L 324.468613 248.041175 
L 324.620285 248.193106 
L 324.771957 248.132388 
L 324.923629 248.370154 
L 325.075301 247.940232 
L 325.226973 248.13119 
L 325.378645 247.879965 
L 325.530317 248.253029 
L 325.681989 248.310813 
L 325.833661 248.131661 
L 325.985333 248.427943 
L 326.137005 248.454643 
L 326.288677 248.737635 
L 326.592021 248.443185 
L 326.895365 248.849751 
L 327.047037 249.220056 
L 327.198709 248.795641 
L 327.653725 249.014289 
L 327.805397 249.432496 
L 328.108741 249.428959 
L 328.260413 249.852656 
L 328.563757 249.169764 
L 329.018773 249.799151 
L 329.170445 249.153728 
L 329.322117 249.182859 
L 329.473789 249.463615 
L 329.777133 249.36592 
L 329.928805 248.834608 
L 330.080477 248.761052 
L 330.687165 247.546422 
L 330.838837 247.588739 
L 330.990509 247.422287 
L 331.142181 247.49338 
L 331.445525 246.34233 
L 331.597197 246.40425 
L 331.900541 246.971738 
L 332.052213 246.940678 
L 332.203885 247.517242 
L 332.355556 247.191609 
L 332.6589 247.346988 
L 332.810572 246.869231 
L 333.113916 247.1255 
L 333.265588 246.540912 
L 333.41726 246.735107 
L 333.568932 247.210148 
L 334.023948 245.834947 
L 334.327292 246.436631 
L 334.478964 245.915783 
L 335.085652 246.996934 
L 335.237324 246.593938 
L 335.844012 246.761072 
L 336.147356 246.01851 
L 336.4507 245.631278 
L 336.602372 245.677244 
L 336.754044 245.505302 
L 337.20906 246.393289 
L 337.512404 245.678132 
L 337.815748 245.278677 
L 338.119092 245.924198 
L 338.270764 246.060643 
L 338.574108 246.927074 
L 338.72578 246.504982 
L 338.877452 246.516113 
L 339.029124 246.236676 
L 339.48414 246.163207 
L 339.635812 246.529032 
L 339.939156 245.942096 
L 340.090828 246.027228 
L 340.2425 245.854188 
L 340.394172 246.026982 
L 340.545843 245.916824 
L 340.697515 245.560766 
L 341.152531 246.536127 
L 341.304203 246.479093 
L 341.607547 246.050927 
L 341.759219 246.336459 
L 341.910891 246.352008 
L 342.517579 245.714198 
L 342.669251 245.905615 
L 342.820923 245.559547 
L 342.972595 245.554378 
L 343.275939 245.148252 
L 343.427611 245.49857 
L 343.579283 245.230973 
L 343.730955 245.208197 
L 343.882627 245.019135 
L 344.034299 245.101437 
L 344.185971 244.894519 
L 344.489315 245.48231 
L 344.640987 245.60147 
L 344.944331 245.474057 
L 345.247675 245.755307 
L 345.551019 245.432153 
L 345.702691 245.656113 
L 345.854363 245.371112 
L 346.006035 245.429398 
L 346.157707 245.668749 
L 346.309379 245.650264 
L 346.461051 245.803738 
L 346.764395 245.432819 
L 346.916067 245.320929 
L 347.067739 245.360145 
L 347.371083 245.918567 
L 347.977771 245.81974 
L 348.129443 245.578067 
L 348.281115 245.622382 
L 349.039474 247.01293 
L 349.191146 247.054608 
L 349.342818 246.962366 
L 349.646162 247.228876 
L 349.797834 247.073914 
L 350.404522 247.862221 
L 350.707866 247.551929 
L 350.859538 247.33045 
L 351.162882 247.409837 
L 351.466226 247.037633 
L 351.76957 247.678711 
L 351.921242 247.345406 
L 352.072914 247.562521 
L 352.376258 247.440928 
L 352.679602 247.687171 
L 352.831274 247.606612 
L 352.982946 247.900191 
L 353.28629 247.540474 
L 353.437962 247.719407 
L 353.892978 247.109088 
L 354.196322 247.408145 
L 354.347994 247.487931 
L 354.499666 247.795135 
L 354.651338 247.823283 
L 354.954682 248.168712 
L 355.409698 246.85051 
L 355.56137 246.983308 
L 355.713042 247.086916 
L 356.016386 246.560528 
L 356.168058 246.758462 
L 356.31973 246.388505 
L 356.471402 246.485391 
L 356.774745 247.049962 
L 357.229761 246.964409 
L 357.684777 247.784882 
L 357.836449 247.478847 
L 357.988121 247.587963 
L 358.139793 247.437952 
L 358.898153 247.665728 
L 359.201497 247.181121 
L 359.808185 247.803518 
L 359.959857 247.730396 
L 360.263201 247.999535 
L 360.566545 248.456532 
L 360.869889 248.561458 
L 361.021561 248.477096 
L 361.173233 248.555941 
L 361.324905 248.067725 
L 361.476577 248.254479 
L 361.628249 248.246526 
L 362.083265 248.681171 
L 362.538281 249.280353 
L 362.841625 249.184387 
L 363.144969 249.661919 
L 363.296641 249.647488 
L 363.599985 249.897365 
L 363.751657 249.843517 
L 364.055001 250.250829 
L 364.358345 250.128615 
L 364.510017 250.314012 
L 364.965032 249.598862 
L 365.116704 249.602703 
L 365.420048 249.716251 
L 365.57172 249.597296 
L 365.723392 249.719475 
L 365.875064 249.317714 
L 366.026736 249.368022 
L 366.178408 248.883959 
L 366.33008 249.115402 
L 366.481752 248.889774 
L 366.633424 248.971519 
L 366.936768 248.64784 
L 367.240112 248.419589 
L 367.391784 248.543913 
L 367.695128 248.191992 
L 367.8468 247.98877 
L 367.998472 248.424767 
L 368.301816 248.270706 
L 368.60516 247.531988 
L 368.756832 247.784698 
L 369.060176 247.444008 
L 369.211848 247.849509 
L 369.36352 247.679321 
L 369.515192 247.707952 
L 369.666864 247.89874 
L 369.970208 247.585445 
L 370.273552 247.523684 
L 370.576896 247.920006 
L 370.88024 247.446689 
L 371.183584 247.819995 
L 371.335256 247.86236 
L 371.6386 247.390396 
L 371.790272 247.530018 
L 371.941944 247.415054 
L 372.093616 247.470514 
L 372.245288 247.735071 
L 372.39696 247.699352 
L 372.700304 246.854079 
L 373.155319 247.227944 
L 373.306991 247.16958 
L 373.610335 246.646899 
L 373.762007 246.84176 
L 373.913679 246.687334 
L 374.217023 246.886495 
L 374.368695 247.104532 
L 374.520367 246.926252 
L 374.672039 246.933837 
L 374.975383 246.398755 
L 375.278727 246.559191 
L 375.430399 246.410597 
L 375.582071 246.432496 
L 375.733743 246.205198 
L 375.885415 246.299022 
L 376.037087 245.835721 
L 376.188759 245.989955 
L 376.947119 246.023382 
L 377.098791 246.367311 
L 377.250463 246.369382 
L 377.402135 246.597009 
L 377.553807 246.600434 
L 377.705479 246.752142 
L 378.008823 246.609377 
L 378.160495 246.73451 
L 378.312167 246.682793 
L 378.615511 246.493113 
L 379.070527 246.415552 
L 379.222199 246.449603 
L 379.373871 246.612215 
L 379.677215 246.515505 
L 379.980559 246.548941 
L 380.890591 247.460259 
L 381.042263 247.635509 
L 381.345606 247.515668 
L 381.497278 247.498698 
L 381.800622 247.287819 
L 381.952294 247.4355 
L 382.103966 247.393095 
L 382.255638 247.529832 
L 382.40731 247.227813 
L 382.710654 247.49 
L 382.862326 247.356027 
L 383.317342 247.483953 
L 383.469014 247.912539 
L 383.772358 247.664453 
L 384.075702 247.855662 
L 384.227374 247.724522 
L 384.834062 247.994963 
L 384.985734 247.789476 
L 385.592422 247.792567 
L 386.047438 248.460363 
L 386.350782 248.52709 
L 386.654126 248.530151 
L 387.412486 248.010259 
L 387.564158 248.036571 
L 387.71583 247.813788 
L 388.019174 248.170923 
L 388.170846 248.272119 
L 388.322518 248.21837 
L 388.47419 248.44835 
L 388.625862 248.460885 
L 388.777534 248.221827 
L 389.080878 248.184992 
L 389.23255 248.422793 
L 389.384222 248.386019 
L 389.535893 248.58972 
L 389.687565 248.456855 
L 389.839237 248.536188 
L 390.445925 248.171576 
L 390.749269 248.163165 
L 390.900941 248.448771 
L 391.052613 248.15924 
L 391.204285 248.140352 
L 391.355957 247.822791 
L 391.507629 247.91591 
L 391.810973 247.709517 
L 391.962645 247.799937 
L 392.265989 247.621804 
L 392.417661 247.749488 
L 392.569333 247.425171 
L 392.721005 247.601828 
L 392.872677 247.377094 
L 393.024349 247.365965 
L 394.086053 248.129414 
L 394.237725 247.996333 
L 394.844413 248.061478 
L 394.996085 247.911373 
L 395.451101 248.076117 
L 395.602773 248.235354 
L 395.906117 247.899488 
L 396.209461 248.099219 
L 396.361133 248.238511 
L 396.512805 248.210172 
L 396.816149 248.297933 
L 396.967821 248.146842 
L 397.422837 248.317527 
L 397.72618 248.029074 
L 398.029524 248.344882 
L 398.48454 248.05564 
L 398.939556 248.390935 
L 399.2429 248.444696 
L 399.394572 248.237907 
L 399.697916 248.568888 
L 400.00126 248.670988 
L 400.304604 248.51501 
L 400.607948 248.372319 
L 400.75962 248.231531 
L 400.911292 248.258958 
L 401.062964 248.143965 
L 401.366308 248.516393 
L 401.51798 248.19477 
L 401.669652 248.26076 
L 401.972996 248.578049 
L 402.428012 248.45155 
L 402.731356 248.640816 
L 402.883028 248.515724 
L 403.0347 248.563372 
L 403.186372 248.324128 
L 403.338044 248.388358 
L 403.641388 248.128437 
L 404.096404 248.093994 
L 404.399748 247.51274 
L 404.55142 247.674572 
L 404.854764 247.08039 
L 405.006436 246.788867 
L 405.158108 247.047669 
L 405.30978 247.04238 
L 405.764796 247.512917 
L 406.068139 247.225148 
L 406.219811 247.28008 
L 406.523155 246.974451 
L 406.826499 247.010086 
L 406.978171 247.080838 
L 407.129843 246.866407 
L 407.281515 247.034145 
L 407.584859 246.983334 
L 408.039875 247.447996 
L 408.191547 247.281276 
L 408.646563 247.570042 
L 408.798235 247.384017 
L 408.949907 247.579224 
L 409.101579 247.327853 
L 409.404923 247.659406 
L 410.011611 247.583743 
L 410.314955 247.366076 
L 410.769971 247.018324 
L 410.921643 246.678911 
L 411.073315 246.641587 
L 411.224987 246.91069 
L 411.376659 246.928703 
L 411.528331 247.131682 
L 411.983347 247.197567 
L 412.286691 247.297817 
L 412.438363 247.063716 
L 412.590035 247.186446 
L 413.045051 246.935267 
L 413.348395 247.171124 
L 413.500067 247.070617 
L 413.651739 247.121236 
L 413.803411 246.918815 
L 414.106754 246.971302 
L 414.56177 246.4877 
L 415.168458 246.66799 
L 415.623474 246.556742 
L 415.775146 246.753405 
L 415.926818 246.71664 
L 416.07849 246.806124 
L 416.230162 246.66312 
L 416.381834 246.70391 
L 416.685178 246.311918 
L 416.988522 246.181623 
L 417.443538 245.826891 
L 417.746882 245.684167 
L 417.898554 245.814191 
L 418.050226 245.560692 
L 418.35357 245.609739 
L 418.505242 245.436673 
L 418.960258 245.489659 
L 419.263602 245.444107 
L 419.718618 245.787856 
L 419.87029 245.624332 
L 420.021962 245.726133 
L 420.476978 245.428253 
L 420.780322 245.316636 
L 420.931994 245.199689 
L 421.235338 245.340433 
L 421.538682 245.44212 
L 421.842026 245.452273 
L 422.297041 245.490569 
L 422.600385 245.296985 
L 422.903729 245.505873 
L 423.055401 245.631228 
L 423.510417 245.640983 
L 423.662089 245.801405 
L 423.813761 245.673204 
L 424.420449 246.076427 
L 425.330481 246.276737 
L 425.633825 246.529287 
L 425.937169 246.608485 
L 426.240513 247.023167 
L 426.847201 246.698895 
L 426.998873 246.782074 
L 427.302217 246.574326 
L 427.453889 246.64094 
L 427.605561 246.431109 
L 428.212249 246.552247 
L 428.363921 246.401055 
L 428.515593 246.517761 
L 428.818937 246.494805 
L 429.728969 246.86599 
L 430.032313 246.529832 
L 430.183985 246.548363 
L 430.183985 246.548363 
" style="fill:none;stroke:#1f77b4;stroke-linecap:square;stroke-width:1.5;"/>
   </g>
   <g id="patch_13">
    <path d="M 271.08766 317.952 
L 271.08766 188.928 
" style="fill:none;stroke:#000000;stroke-linecap:square;stroke-linejoin:miter;stroke-width:0.8;"/>
   </g>
   <g id="patch_14">
    <path d="M 437.76 317.952 
L 437.76 188.928 
" style="fill:none;stroke:#000000;stroke-linecap:square;stroke-linejoin:miter;stroke-width:0.8;"/>
   </g>
   <g id="patch_15">
    <path d="M 271.08766 317.952 
L 437.76 317.952 
" style="fill:none;stroke:#000000;stroke-linecap:square;stroke-linejoin:miter;stroke-width:0.8;"/>
   </g>
   <g id="patch_16">
    <path d="M 271.08766 188.928 
L 437.76 188.928 
" style="fill:none;stroke:#000000;stroke-linecap:square;stroke-linejoin:miter;stroke-width:0.8;"/>
   </g>
   <g id="text_37">
    <!-- Número promedio de clientes en cola C2 -->
    <g transform="translate(231.777267 182.928)scale(0.12 -0.12)">
     <use xlink:href="#DejaVuSans-78"/>
     <use x="74.804688" xlink:href="#DejaVuSans-250"/>
     <use x="138.183594" xlink:href="#DejaVuSans-109"/>
     <use x="235.595703" xlink:href="#DejaVuSans-101"/>
     <use x="297.119141" xlink:href="#DejaVuSans-114"/>
     <use x="338.201172" xlink:href="#DejaVuSans-111"/>
     <use x="399.382812" xlink:href="#DejaVuSans-32"/>
     <use x="431.169922" xlink:href="#DejaVuSans-112"/>
     <use x="494.646484" xlink:href="#DejaVuSans-114"/>
     <use x="535.728516" xlink:href="#DejaVuSans-111"/>
     <use x="596.910156" xlink:href="#DejaVuSans-109"/>
     <use x="694.322266" xlink:href="#DejaVuSans-101"/>
     <use x="755.845703" xlink:href="#DejaVuSans-100"/>
     <use x="819.322266" xlink:href="#DejaVuSans-105"/>
     <use x="847.105469" xlink:href="#DejaVuSans-111"/>
     <use x="908.287109" xlink:href="#DejaVuSans-32"/>
     <use x="940.074219" xlink:href="#DejaVuSans-100"/>
     <use x="1003.550781" xlink:href="#DejaVuSans-101"/>
     <use x="1065.074219" xlink:href="#DejaVuSans-32"/>
     <use x="1096.861328" xlink:href="#DejaVuSans-99"/>
     <use x="1151.841797" xlink:href="#DejaVuSans-108"/>
     <use x="1179.625" xlink:href="#DejaVuSans-105"/>
     <use x="1207.408203" xlink:href="#DejaVuSans-101"/>
     <use x="1268.931641" xlink:href="#DejaVuSans-110"/>
     <use x="1332.310547" xlink:href="#DejaVuSans-116"/>
     <use x="1371.519531" xlink:href="#DejaVuSans-101"/>
     <use x="1433.042969" xlink:href="#DejaVuSans-115"/>
     <use x="1485.142578" xlink:href="#DejaVuSans-32"/>
     <use x="1516.929688" xlink:href="#DejaVuSans-101"/>
     <use x="1578.453125" xlink:href="#DejaVuSans-110"/>
     <use x="1641.832031" xlink:href="#DejaVuSans-32"/>
     <use x="1673.619141" xlink:href="#DejaVuSans-99"/>
     <use x="1728.599609" xlink:href="#DejaVuSans-111"/>
     <use x="1789.78125" xlink:href="#DejaVuSans-108"/>
     <use x="1817.564453" xlink:href="#DejaVuSans-97"/>
     <use x="1878.84375" xlink:href="#DejaVuSans-32"/>
     <use x="1910.630859" xlink:href="#DejaVuSans-67"/>
     <use x="1980.455078" xlink:href="#DejaVuSans-50"/>
    </g>
   </g>
  </g>
 </g>
 <defs>
  <clipPath id="pe857a3fe34">
   <rect height="129.024" width="391.68" x="46.08" y="27.648"/>
  </clipPath>
  <clipPath id="pff32f2fabb">
   <rect height="129.024" width="166.67234" x="46.08" y="188.928"/>
  </clipPath>
  <clipPath id="p8d8cd9e5a9">
   <rect height="129.024" width="166.67234" x="271.08766" y="188.928"/>
  </clipPath>
 </defs>
</svg>
