<?xml version="1.0" encoding="utf-8" standalone="no"?>
<!DOCTYPE svg PUBLIC "-//W3C//DTD SVG 1.1//EN"
  "http://www.w3.org/Graphics/SVG/1.1/DTD/svg11.dtd">
<!-- Created with matplotlib (https://matplotlib.org/) -->
<svg height="345.6pt" version="1.1" viewBox="0 0 460.8 345.6" width="460.8pt" xmlns="http://www.w3.org/2000/svg" xmlns:xlink="http://www.w3.org/1999/xlink">
 <defs>
  <style type="text/css">
*{stroke-linecap:butt;stroke-linejoin:round;}
  </style>
 </defs>
 <g id="figure_1">
  <g id="patch_1">
   <path d="M 0 345.6 
L 460.8 345.6 
L 460.8 0 
L 0 0 
z
" style="fill:#ffffff;"/>
  </g>
  <g id="axes_1">
   <g id="patch_2">
    <path d="M 46.08 317.952 
L 437.76 317.952 
L 437.76 27.648 
L 46.08 27.648 
z
" style="fill:#ffffff;"/>
   </g>
   <g id="matplotlib.axis_1">
    <g id="xtick_1">
     <g id="line2d_1">
      <path clip-path="url(#pd234c76cef)" d="M 63.527207 317.952 
L 63.527207 27.648 
" style="fill:none;stroke:#b0b0b0;stroke-linecap:square;stroke-width:0.8;"/>
     </g>
     <g id="line2d_2">
      <defs>
       <path d="M 0 0 
L 0 3.5 
" id="mad179e5aa3" style="stroke:#000000;stroke-width:0.8;"/>
      </defs>
      <g>
       <use style="stroke:#000000;stroke-width:0.8;" x="63.527207" xlink:href="#mad179e5aa3" y="317.952"/>
      </g>
     </g>
     <g id="text_1">
      <!-- 0 -->
      <defs>
       <path d="M 31.78125 66.40625 
Q 24.171875 66.40625 20.328125 58.90625 
Q 16.5 51.421875 16.5 36.375 
Q 16.5 21.390625 20.328125 13.890625 
Q 24.171875 6.390625 31.78125 6.390625 
Q 39.453125 6.390625 43.28125 13.890625 
Q 47.125 21.390625 47.125 36.375 
Q 47.125 51.421875 43.28125 58.90625 
Q 39.453125 66.40625 31.78125 66.40625 
z
M 31.78125 74.21875 
Q 44.046875 74.21875 50.515625 64.515625 
Q 56.984375 54.828125 56.984375 36.375 
Q 56.984375 17.96875 50.515625 8.265625 
Q 44.046875 -1.421875 31.78125 -1.421875 
Q 19.53125 -1.421875 13.0625 8.265625 
Q 6.59375 17.96875 6.59375 36.375 
Q 6.59375 54.828125 13.0625 64.515625 
Q 19.53125 74.21875 31.78125 74.21875 
z
" id="DejaVuSans-48"/>
      </defs>
      <g transform="translate(60.345957 332.550437)scale(0.1 -0.1)">
       <use xlink:href="#DejaVuSans-48"/>
      </g>
     </g>
    </g>
    <g id="xtick_2">
     <g id="line2d_3">
      <path clip-path="url(#pd234c76cef)" d="M 134.813038 317.952 
L 134.813038 27.648 
" style="fill:none;stroke:#b0b0b0;stroke-linecap:square;stroke-width:0.8;"/>
     </g>
     <g id="line2d_4">
      <g>
       <use style="stroke:#000000;stroke-width:0.8;" x="134.813038" xlink:href="#mad179e5aa3" y="317.952"/>
      </g>
     </g>
     <g id="text_2">
      <!-- 200 -->
      <defs>
       <path d="M 19.1875 8.296875 
L 53.609375 8.296875 
L 53.609375 0 
L 7.328125 0 
L 7.328125 8.296875 
Q 12.9375 14.109375 22.625 23.890625 
Q 32.328125 33.6875 34.8125 36.53125 
Q 39.546875 41.84375 41.421875 45.53125 
Q 43.3125 49.21875 43.3125 52.78125 
Q 43.3125 58.59375 39.234375 62.25 
Q 35.15625 65.921875 28.609375 65.921875 
Q 23.96875 65.921875 18.8125 64.3125 
Q 13.671875 62.703125 7.8125 59.421875 
L 7.8125 69.390625 
Q 13.765625 71.78125 18.9375 73 
Q 24.125 74.21875 28.421875 74.21875 
Q 39.75 74.21875 46.484375 68.546875 
Q 53.21875 62.890625 53.21875 53.421875 
Q 53.21875 48.921875 51.53125 44.890625 
Q 49.859375 40.875 45.40625 35.40625 
Q 44.1875 33.984375 37.640625 27.21875 
Q 31.109375 20.453125 19.1875 8.296875 
z
" id="DejaVuSans-50"/>
      </defs>
      <g transform="translate(125.269288 332.550437)scale(0.1 -0.1)">
       <use xlink:href="#DejaVuSans-50"/>
       <use x="63.623047" xlink:href="#DejaVuSans-48"/>
       <use x="127.246094" xlink:href="#DejaVuSans-48"/>
      </g>
     </g>
    </g>
    <g id="xtick_3">
     <g id="line2d_5">
      <path clip-path="url(#pd234c76cef)" d="M 206.09887 317.952 
L 206.09887 27.648 
" style="fill:none;stroke:#b0b0b0;stroke-linecap:square;stroke-width:0.8;"/>
     </g>
     <g id="line2d_6">
      <g>
       <use style="stroke:#000000;stroke-width:0.8;" x="206.09887" xlink:href="#mad179e5aa3" y="317.952"/>
      </g>
     </g>
     <g id="text_3">
      <!-- 400 -->
      <defs>
       <path d="M 37.796875 64.3125 
L 12.890625 25.390625 
L 37.796875 25.390625 
z
M 35.203125 72.90625 
L 47.609375 72.90625 
L 47.609375 25.390625 
L 58.015625 25.390625 
L 58.015625 17.1875 
L 47.609375 17.1875 
L 47.609375 0 
L 37.796875 0 
L 37.796875 17.1875 
L 4.890625 17.1875 
L 4.890625 26.703125 
z
" id="DejaVuSans-52"/>
      </defs>
      <g transform="translate(196.55512 332.550437)scale(0.1 -0.1)">
       <use xlink:href="#DejaVuSans-52"/>
       <use x="63.623047" xlink:href="#DejaVuSans-48"/>
       <use x="127.246094" xlink:href="#DejaVuSans-48"/>
      </g>
     </g>
    </g>
    <g id="xtick_4">
     <g id="line2d_7">
      <path clip-path="url(#pd234c76cef)" d="M 277.384701 317.952 
L 277.384701 27.648 
" style="fill:none;stroke:#b0b0b0;stroke-linecap:square;stroke-width:0.8;"/>
     </g>
     <g id="line2d_8">
      <g>
       <use style="stroke:#000000;stroke-width:0.8;" x="277.384701" xlink:href="#mad179e5aa3" y="317.952"/>
      </g>
     </g>
     <g id="text_4">
      <!-- 600 -->
      <defs>
       <path d="M 33.015625 40.375 
Q 26.375 40.375 22.484375 35.828125 
Q 18.609375 31.296875 18.609375 23.390625 
Q 18.609375 15.53125 22.484375 10.953125 
Q 26.375 6.390625 33.015625 6.390625 
Q 39.65625 6.390625 43.53125 10.953125 
Q 47.40625 15.53125 47.40625 23.390625 
Q 47.40625 31.296875 43.53125 35.828125 
Q 39.65625 40.375 33.015625 40.375 
z
M 52.59375 71.296875 
L 52.59375 62.3125 
Q 48.875 64.0625 45.09375 64.984375 
Q 41.3125 65.921875 37.59375 65.921875 
Q 27.828125 65.921875 22.671875 59.328125 
Q 17.53125 52.734375 16.796875 39.40625 
Q 19.671875 43.65625 24.015625 45.921875 
Q 28.375 48.1875 33.59375 48.1875 
Q 44.578125 48.1875 50.953125 41.515625 
Q 57.328125 34.859375 57.328125 23.390625 
Q 57.328125 12.15625 50.6875 5.359375 
Q 44.046875 -1.421875 33.015625 -1.421875 
Q 20.359375 -1.421875 13.671875 8.265625 
Q 6.984375 17.96875 6.984375 36.375 
Q 6.984375 53.65625 15.1875 63.9375 
Q 23.390625 74.21875 37.203125 74.21875 
Q 40.921875 74.21875 44.703125 73.484375 
Q 48.484375 72.75 52.59375 71.296875 
z
" id="DejaVuSans-54"/>
      </defs>
      <g transform="translate(267.840951 332.550437)scale(0.1 -0.1)">
       <use xlink:href="#DejaVuSans-54"/>
       <use x="63.623047" xlink:href="#DejaVuSans-48"/>
       <use x="127.246094" xlink:href="#DejaVuSans-48"/>
      </g>
     </g>
    </g>
    <g id="xtick_5">
     <g id="line2d_9">
      <path clip-path="url(#pd234c76cef)" d="M 348.670532 317.952 
L 348.670532 27.648 
" style="fill:none;stroke:#b0b0b0;stroke-linecap:square;stroke-width:0.8;"/>
     </g>
     <g id="line2d_10">
      <g>
       <use style="stroke:#000000;stroke-width:0.8;" x="348.670532" xlink:href="#mad179e5aa3" y="317.952"/>
      </g>
     </g>
     <g id="text_5">
      <!-- 800 -->
      <defs>
       <path d="M 31.78125 34.625 
Q 24.75 34.625 20.71875 30.859375 
Q 16.703125 27.09375 16.703125 20.515625 
Q 16.703125 13.921875 20.71875 10.15625 
Q 24.75 6.390625 31.78125 6.390625 
Q 38.8125 6.390625 42.859375 10.171875 
Q 46.921875 13.96875 46.921875 20.515625 
Q 46.921875 27.09375 42.890625 30.859375 
Q 38.875 34.625 31.78125 34.625 
z
M 21.921875 38.8125 
Q 15.578125 40.375 12.03125 44.71875 
Q 8.5 49.078125 8.5 55.328125 
Q 8.5 64.0625 14.71875 69.140625 
Q 20.953125 74.21875 31.78125 74.21875 
Q 42.671875 74.21875 48.875 69.140625 
Q 55.078125 64.0625 55.078125 55.328125 
Q 55.078125 49.078125 51.53125 44.71875 
Q 48 40.375 41.703125 38.8125 
Q 48.828125 37.15625 52.796875 32.3125 
Q 56.78125 27.484375 56.78125 20.515625 
Q 56.78125 9.90625 50.3125 4.234375 
Q 43.84375 -1.421875 31.78125 -1.421875 
Q 19.734375 -1.421875 13.25 4.234375 
Q 6.78125 9.90625 6.78125 20.515625 
Q 6.78125 27.484375 10.78125 32.3125 
Q 14.796875 37.15625 21.921875 38.8125 
z
M 18.3125 54.390625 
Q 18.3125 48.734375 21.84375 45.5625 
Q 25.390625 42.390625 31.78125 42.390625 
Q 38.140625 42.390625 41.71875 45.5625 
Q 45.3125 48.734375 45.3125 54.390625 
Q 45.3125 60.0625 41.71875 63.234375 
Q 38.140625 66.40625 31.78125 66.40625 
Q 25.390625 66.40625 21.84375 63.234375 
Q 18.3125 60.0625 18.3125 54.390625 
z
" id="DejaVuSans-56"/>
      </defs>
      <g transform="translate(339.126782 332.550437)scale(0.1 -0.1)">
       <use xlink:href="#DejaVuSans-56"/>
       <use x="63.623047" xlink:href="#DejaVuSans-48"/>
       <use x="127.246094" xlink:href="#DejaVuSans-48"/>
      </g>
     </g>
    </g>
    <g id="xtick_6">
     <g id="line2d_11">
      <path clip-path="url(#pd234c76cef)" d="M 419.956364 317.952 
L 419.956364 27.648 
" style="fill:none;stroke:#b0b0b0;stroke-linecap:square;stroke-width:0.8;"/>
     </g>
     <g id="line2d_12">
      <g>
       <use style="stroke:#000000;stroke-width:0.8;" x="419.956364" xlink:href="#mad179e5aa3" y="317.952"/>
      </g>
     </g>
     <g id="text_6">
      <!-- 1000 -->
      <defs>
       <path d="M 12.40625 8.296875 
L 28.515625 8.296875 
L 28.515625 63.921875 
L 10.984375 60.40625 
L 10.984375 69.390625 
L 28.421875 72.90625 
L 38.28125 72.90625 
L 38.28125 8.296875 
L 54.390625 8.296875 
L 54.390625 0 
L 12.40625 0 
z
" id="DejaVuSans-49"/>
      </defs>
      <g transform="translate(407.231364 332.550437)scale(0.1 -0.1)">
       <use xlink:href="#DejaVuSans-49"/>
       <use x="63.623047" xlink:href="#DejaVuSans-48"/>
       <use x="127.246094" xlink:href="#DejaVuSans-48"/>
       <use x="190.869141" xlink:href="#DejaVuSans-48"/>
      </g>
     </g>
    </g>
    <g id="text_7">
     <!-- Corridas -->
     <defs>
      <path d="M 64.40625 67.28125 
L 64.40625 56.890625 
Q 59.421875 61.53125 53.78125 63.8125 
Q 48.140625 66.109375 41.796875 66.109375 
Q 29.296875 66.109375 22.65625 58.46875 
Q 16.015625 50.828125 16.015625 36.375 
Q 16.015625 21.96875 22.65625 14.328125 
Q 29.296875 6.6875 41.796875 6.6875 
Q 48.140625 6.6875 53.78125 8.984375 
Q 59.421875 11.28125 64.40625 15.921875 
L 64.40625 5.609375 
Q 59.234375 2.09375 53.4375 0.328125 
Q 47.65625 -1.421875 41.21875 -1.421875 
Q 24.65625 -1.421875 15.125 8.703125 
Q 5.609375 18.84375 5.609375 36.375 
Q 5.609375 53.953125 15.125 64.078125 
Q 24.65625 74.21875 41.21875 74.21875 
Q 47.75 74.21875 53.53125 72.484375 
Q 59.328125 70.75 64.40625 67.28125 
z
" id="DejaVuSans-67"/>
      <path d="M 30.609375 48.390625 
Q 23.390625 48.390625 19.1875 42.75 
Q 14.984375 37.109375 14.984375 27.296875 
Q 14.984375 17.484375 19.15625 11.84375 
Q 23.34375 6.203125 30.609375 6.203125 
Q 37.796875 6.203125 41.984375 11.859375 
Q 46.1875 17.53125 46.1875 27.296875 
Q 46.1875 37.015625 41.984375 42.703125 
Q 37.796875 48.390625 30.609375 48.390625 
z
M 30.609375 56 
Q 42.328125 56 49.015625 48.375 
Q 55.71875 40.765625 55.71875 27.296875 
Q 55.71875 13.875 49.015625 6.21875 
Q 42.328125 -1.421875 30.609375 -1.421875 
Q 18.84375 -1.421875 12.171875 6.21875 
Q 5.515625 13.875 5.515625 27.296875 
Q 5.515625 40.765625 12.171875 48.375 
Q 18.84375 56 30.609375 56 
z
" id="DejaVuSans-111"/>
      <path d="M 41.109375 46.296875 
Q 39.59375 47.171875 37.8125 47.578125 
Q 36.03125 48 33.890625 48 
Q 26.265625 48 22.1875 43.046875 
Q 18.109375 38.09375 18.109375 28.8125 
L 18.109375 0 
L 9.078125 0 
L 9.078125 54.6875 
L 18.109375 54.6875 
L 18.109375 46.1875 
Q 20.953125 51.171875 25.484375 53.578125 
Q 30.03125 56 36.53125 56 
Q 37.453125 56 38.578125 55.875 
Q 39.703125 55.765625 41.0625 55.515625 
z
" id="DejaVuSans-114"/>
      <path d="M 9.421875 54.6875 
L 18.40625 54.6875 
L 18.40625 0 
L 9.421875 0 
z
M 9.421875 75.984375 
L 18.40625 75.984375 
L 18.40625 64.59375 
L 9.421875 64.59375 
z
" id="DejaVuSans-105"/>
      <path d="M 45.40625 46.390625 
L 45.40625 75.984375 
L 54.390625 75.984375 
L 54.390625 0 
L 45.40625 0 
L 45.40625 8.203125 
Q 42.578125 3.328125 38.25 0.953125 
Q 33.9375 -1.421875 27.875 -1.421875 
Q 17.96875 -1.421875 11.734375 6.484375 
Q 5.515625 14.40625 5.515625 27.296875 
Q 5.515625 40.1875 11.734375 48.09375 
Q 17.96875 56 27.875 56 
Q 33.9375 56 38.25 53.625 
Q 42.578125 51.265625 45.40625 46.390625 
z
M 14.796875 27.296875 
Q 14.796875 17.390625 18.875 11.75 
Q 22.953125 6.109375 30.078125 6.109375 
Q 37.203125 6.109375 41.296875 11.75 
Q 45.40625 17.390625 45.40625 27.296875 
Q 45.40625 37.203125 41.296875 42.84375 
Q 37.203125 48.484375 30.078125 48.484375 
Q 22.953125 48.484375 18.875 42.84375 
Q 14.796875 37.203125 14.796875 27.296875 
z
" id="DejaVuSans-100"/>
      <path d="M 34.28125 27.484375 
Q 23.390625 27.484375 19.1875 25 
Q 14.984375 22.515625 14.984375 16.5 
Q 14.984375 11.71875 18.140625 8.90625 
Q 21.296875 6.109375 26.703125 6.109375 
Q 34.1875 6.109375 38.703125 11.40625 
Q 43.21875 16.703125 43.21875 25.484375 
L 43.21875 27.484375 
z
M 52.203125 31.203125 
L 52.203125 0 
L 43.21875 0 
L 43.21875 8.296875 
Q 40.140625 3.328125 35.546875 0.953125 
Q 30.953125 -1.421875 24.3125 -1.421875 
Q 15.921875 -1.421875 10.953125 3.296875 
Q 6 8.015625 6 15.921875 
Q 6 25.140625 12.171875 29.828125 
Q 18.359375 34.515625 30.609375 34.515625 
L 43.21875 34.515625 
L 43.21875 35.40625 
Q 43.21875 41.609375 39.140625 45 
Q 35.0625 48.390625 27.6875 48.390625 
Q 23 48.390625 18.546875 47.265625 
Q 14.109375 46.140625 10.015625 43.890625 
L 10.015625 52.203125 
Q 14.9375 54.109375 19.578125 55.046875 
Q 24.21875 56 28.609375 56 
Q 40.484375 56 46.34375 49.84375 
Q 52.203125 43.703125 52.203125 31.203125 
z
" id="DejaVuSans-97"/>
      <path d="M 44.28125 53.078125 
L 44.28125 44.578125 
Q 40.484375 46.53125 36.375 47.5 
Q 32.28125 48.484375 27.875 48.484375 
Q 21.1875 48.484375 17.84375 46.4375 
Q 14.5 44.390625 14.5 40.28125 
Q 14.5 37.15625 16.890625 35.375 
Q 19.28125 33.59375 26.515625 31.984375 
L 29.59375 31.296875 
Q 39.15625 29.25 43.1875 25.515625 
Q 47.21875 21.78125 47.21875 15.09375 
Q 47.21875 7.46875 41.1875 3.015625 
Q 35.15625 -1.421875 24.609375 -1.421875 
Q 20.21875 -1.421875 15.453125 -0.5625 
Q 10.6875 0.296875 5.421875 2 
L 5.421875 11.28125 
Q 10.40625 8.6875 15.234375 7.390625 
Q 20.0625 6.109375 24.8125 6.109375 
Q 31.15625 6.109375 34.5625 8.28125 
Q 37.984375 10.453125 37.984375 14.40625 
Q 37.984375 18.0625 35.515625 20.015625 
Q 33.0625 21.96875 24.703125 23.78125 
L 21.578125 24.515625 
Q 13.234375 26.265625 9.515625 29.90625 
Q 5.8125 33.546875 5.8125 39.890625 
Q 5.8125 47.609375 11.28125 51.796875 
Q 16.75 56 26.8125 56 
Q 31.78125 56 36.171875 55.265625 
Q 40.578125 54.546875 44.28125 53.078125 
z
" id="DejaVuSans-115"/>
     </defs>
     <g transform="translate(221.027031 346.228563)scale(0.1 -0.1)">
      <use xlink:href="#DejaVuSans-67"/>
      <use x="69.824219" xlink:href="#DejaVuSans-111"/>
      <use x="131.005859" xlink:href="#DejaVuSans-114"/>
      <use x="172.103516" xlink:href="#DejaVuSans-114"/>
      <use x="213.216797" xlink:href="#DejaVuSans-105"/>
      <use x="241" xlink:href="#DejaVuSans-100"/>
      <use x="304.476562" xlink:href="#DejaVuSans-97"/>
      <use x="365.755859" xlink:href="#DejaVuSans-115"/>
     </g>
    </g>
   </g>
   <g id="matplotlib.axis_2">
    <g id="ytick_1">
     <g id="line2d_13">
      <path clip-path="url(#pd234c76cef)" d="M 46.08 299.520192 
L 437.76 299.520192 
" style="fill:none;stroke:#b0b0b0;stroke-linecap:square;stroke-width:0.8;"/>
     </g>
     <g id="line2d_14">
      <defs>
       <path d="M 0 0 
L -3.5 0 
" id="m062f1fd7d8" style="stroke:#000000;stroke-width:0.8;"/>
      </defs>
      <g>
       <use style="stroke:#000000;stroke-width:0.8;" x="46.08" xlink:href="#m062f1fd7d8" y="299.520192"/>
      </g>
     </g>
     <g id="text_8">
      <!-- 0.238 -->
      <defs>
       <path d="M 10.6875 12.40625 
L 21 12.40625 
L 21 0 
L 10.6875 0 
z
" id="DejaVuSans-46"/>
       <path d="M 40.578125 39.3125 
Q 47.65625 37.796875 51.625 33 
Q 55.609375 28.21875 55.609375 21.1875 
Q 55.609375 10.40625 48.1875 4.484375 
Q 40.765625 -1.421875 27.09375 -1.421875 
Q 22.515625 -1.421875 17.65625 -0.515625 
Q 12.796875 0.390625 7.625 2.203125 
L 7.625 11.71875 
Q 11.71875 9.328125 16.59375 8.109375 
Q 21.484375 6.890625 26.8125 6.890625 
Q 36.078125 6.890625 40.9375 10.546875 
Q 45.796875 14.203125 45.796875 21.1875 
Q 45.796875 27.640625 41.28125 31.265625 
Q 36.765625 34.90625 28.71875 34.90625 
L 20.21875 34.90625 
L 20.21875 43.015625 
L 29.109375 43.015625 
Q 36.375 43.015625 40.234375 45.921875 
Q 44.09375 48.828125 44.09375 54.296875 
Q 44.09375 59.90625 40.109375 62.90625 
Q 36.140625 65.921875 28.71875 65.921875 
Q 24.65625 65.921875 20.015625 65.03125 
Q 15.375 64.15625 9.8125 62.3125 
L 9.8125 71.09375 
Q 15.4375 72.65625 20.34375 73.4375 
Q 25.25 74.21875 29.59375 74.21875 
Q 40.828125 74.21875 47.359375 69.109375 
Q 53.90625 64.015625 53.90625 55.328125 
Q 53.90625 49.265625 50.4375 45.09375 
Q 46.96875 40.921875 40.578125 39.3125 
z
" id="DejaVuSans-51"/>
      </defs>
      <g transform="translate(10.451875 303.319411)scale(0.1 -0.1)">
       <use xlink:href="#DejaVuSans-48"/>
       <use x="63.623047" xlink:href="#DejaVuSans-46"/>
       <use x="95.410156" xlink:href="#DejaVuSans-50"/>
       <use x="159.033203" xlink:href="#DejaVuSans-51"/>
       <use x="222.65625" xlink:href="#DejaVuSans-56"/>
      </g>
     </g>
    </g>
    <g id="ytick_2">
     <g id="line2d_15">
      <path clip-path="url(#pd234c76cef)" d="M 46.08 254.530621 
L 437.76 254.530621 
" style="fill:none;stroke:#b0b0b0;stroke-linecap:square;stroke-width:0.8;"/>
     </g>
     <g id="line2d_16">
      <g>
       <use style="stroke:#000000;stroke-width:0.8;" x="46.08" xlink:href="#m062f1fd7d8" y="254.530621"/>
      </g>
     </g>
     <g id="text_9">
      <!-- 0.240 -->
      <g transform="translate(10.451875 258.32984)scale(0.1 -0.1)">
       <use xlink:href="#DejaVuSans-48"/>
       <use x="63.623047" xlink:href="#DejaVuSans-46"/>
       <use x="95.410156" xlink:href="#DejaVuSans-50"/>
       <use x="159.033203" xlink:href="#DejaVuSans-52"/>
       <use x="222.65625" xlink:href="#DejaVuSans-48"/>
      </g>
     </g>
    </g>
    <g id="ytick_3">
     <g id="line2d_17">
      <path clip-path="url(#pd234c76cef)" d="M 46.08 209.54105 
L 437.76 209.54105 
" style="fill:none;stroke:#b0b0b0;stroke-linecap:square;stroke-width:0.8;"/>
     </g>
     <g id="line2d_18">
      <g>
       <use style="stroke:#000000;stroke-width:0.8;" x="46.08" xlink:href="#m062f1fd7d8" y="209.54105"/>
      </g>
     </g>
     <g id="text_10">
      <!-- 0.242 -->
      <g transform="translate(10.451875 213.340268)scale(0.1 -0.1)">
       <use xlink:href="#DejaVuSans-48"/>
       <use x="63.623047" xlink:href="#DejaVuSans-46"/>
       <use x="95.410156" xlink:href="#DejaVuSans-50"/>
       <use x="159.033203" xlink:href="#DejaVuSans-52"/>
       <use x="222.65625" xlink:href="#DejaVuSans-50"/>
      </g>
     </g>
    </g>
    <g id="ytick_4">
     <g id="line2d_19">
      <path clip-path="url(#pd234c76cef)" d="M 46.08 164.551478 
L 437.76 164.551478 
" style="fill:none;stroke:#b0b0b0;stroke-linecap:square;stroke-width:0.8;"/>
     </g>
     <g id="line2d_20">
      <g>
       <use style="stroke:#000000;stroke-width:0.8;" x="46.08" xlink:href="#m062f1fd7d8" y="164.551478"/>
      </g>
     </g>
     <g id="text_11">
      <!-- 0.244 -->
      <g transform="translate(10.451875 168.350697)scale(0.1 -0.1)">
       <use xlink:href="#DejaVuSans-48"/>
       <use x="63.623047" xlink:href="#DejaVuSans-46"/>
       <use x="95.410156" xlink:href="#DejaVuSans-50"/>
       <use x="159.033203" xlink:href="#DejaVuSans-52"/>
       <use x="222.65625" xlink:href="#DejaVuSans-52"/>
      </g>
     </g>
    </g>
    <g id="ytick_5">
     <g id="line2d_21">
      <path clip-path="url(#pd234c76cef)" d="M 46.08 119.561907 
L 437.76 119.561907 
" style="fill:none;stroke:#b0b0b0;stroke-linecap:square;stroke-width:0.8;"/>
     </g>
     <g id="line2d_22">
      <g>
       <use style="stroke:#000000;stroke-width:0.8;" x="46.08" xlink:href="#m062f1fd7d8" y="119.561907"/>
      </g>
     </g>
     <g id="text_12">
      <!-- 0.246 -->
      <g transform="translate(10.451875 123.361126)scale(0.1 -0.1)">
       <use xlink:href="#DejaVuSans-48"/>
       <use x="63.623047" xlink:href="#DejaVuSans-46"/>
       <use x="95.410156" xlink:href="#DejaVuSans-50"/>
       <use x="159.033203" xlink:href="#DejaVuSans-52"/>
       <use x="222.65625" xlink:href="#DejaVuSans-54"/>
      </g>
     </g>
    </g>
    <g id="ytick_6">
     <g id="line2d_23">
      <path clip-path="url(#pd234c76cef)" d="M 46.08 74.572336 
L 437.76 74.572336 
" style="fill:none;stroke:#b0b0b0;stroke-linecap:square;stroke-width:0.8;"/>
     </g>
     <g id="line2d_24">
      <g>
       <use style="stroke:#000000;stroke-width:0.8;" x="46.08" xlink:href="#m062f1fd7d8" y="74.572336"/>
      </g>
     </g>
     <g id="text_13">
      <!-- 0.248 -->
      <g transform="translate(10.451875 78.371555)scale(0.1 -0.1)">
       <use xlink:href="#DejaVuSans-48"/>
       <use x="63.623047" xlink:href="#DejaVuSans-46"/>
       <use x="95.410156" xlink:href="#DejaVuSans-50"/>
       <use x="159.033203" xlink:href="#DejaVuSans-52"/>
       <use x="222.65625" xlink:href="#DejaVuSans-56"/>
      </g>
     </g>
    </g>
    <g id="ytick_7">
     <g id="line2d_25">
      <path clip-path="url(#pd234c76cef)" d="M 46.08 29.582765 
L 437.76 29.582765 
" style="fill:none;stroke:#b0b0b0;stroke-linecap:square;stroke-width:0.8;"/>
     </g>
     <g id="line2d_26">
      <g>
       <use style="stroke:#000000;stroke-width:0.8;" x="46.08" xlink:href="#m062f1fd7d8" y="29.582765"/>
      </g>
     </g>
     <g id="text_14">
      <!-- 0.250 -->
      <defs>
       <path d="M 10.796875 72.90625 
L 49.515625 72.90625 
L 49.515625 64.59375 
L 19.828125 64.59375 
L 19.828125 46.734375 
Q 21.96875 47.46875 24.109375 47.828125 
Q 26.265625 48.1875 28.421875 48.1875 
Q 40.625 48.1875 47.75 41.5 
Q 54.890625 34.8125 54.890625 23.390625 
Q 54.890625 11.625 47.5625 5.09375 
Q 40.234375 -1.421875 26.90625 -1.421875 
Q 22.3125 -1.421875 17.546875 -0.640625 
Q 12.796875 0.140625 7.71875 1.703125 
L 7.71875 11.625 
Q 12.109375 9.234375 16.796875 8.0625 
Q 21.484375 6.890625 26.703125 6.890625 
Q 35.15625 6.890625 40.078125 11.328125 
Q 45.015625 15.765625 45.015625 23.390625 
Q 45.015625 31 40.078125 35.4375 
Q 35.15625 39.890625 26.703125 39.890625 
Q 22.75 39.890625 18.8125 39.015625 
Q 14.890625 38.140625 10.796875 36.28125 
z
" id="DejaVuSans-53"/>
      </defs>
      <g transform="translate(10.451875 33.381983)scale(0.1 -0.1)">
       <use xlink:href="#DejaVuSans-48"/>
       <use x="63.623047" xlink:href="#DejaVuSans-46"/>
       <use x="95.410156" xlink:href="#DejaVuSans-50"/>
       <use x="159.033203" xlink:href="#DejaVuSans-53"/>
       <use x="222.65625" xlink:href="#DejaVuSans-48"/>
      </g>
     </g>
    </g>
    <g id="text_15">
     <!-- Utilización -->
     <defs>
      <path d="M 8.6875 72.90625 
L 18.609375 72.90625 
L 18.609375 28.609375 
Q 18.609375 16.890625 22.84375 11.734375 
Q 27.09375 6.59375 36.625 6.59375 
Q 46.09375 6.59375 50.34375 11.734375 
Q 54.59375 16.890625 54.59375 28.609375 
L 54.59375 72.90625 
L 64.5 72.90625 
L 64.5 27.390625 
Q 64.5 13.140625 57.4375 5.859375 
Q 50.390625 -1.421875 36.625 -1.421875 
Q 22.796875 -1.421875 15.734375 5.859375 
Q 8.6875 13.140625 8.6875 27.390625 
z
" id="DejaVuSans-85"/>
      <path d="M 18.3125 70.21875 
L 18.3125 54.6875 
L 36.8125 54.6875 
L 36.8125 47.703125 
L 18.3125 47.703125 
L 18.3125 18.015625 
Q 18.3125 11.328125 20.140625 9.421875 
Q 21.96875 7.515625 27.59375 7.515625 
L 36.8125 7.515625 
L 36.8125 0 
L 27.59375 0 
Q 17.1875 0 13.234375 3.875 
Q 9.28125 7.765625 9.28125 18.015625 
L 9.28125 47.703125 
L 2.6875 47.703125 
L 2.6875 54.6875 
L 9.28125 54.6875 
L 9.28125 70.21875 
z
" id="DejaVuSans-116"/>
      <path d="M 9.421875 75.984375 
L 18.40625 75.984375 
L 18.40625 0 
L 9.421875 0 
z
" id="DejaVuSans-108"/>
      <path d="M 5.515625 54.6875 
L 48.1875 54.6875 
L 48.1875 46.484375 
L 14.40625 7.171875 
L 48.1875 7.171875 
L 48.1875 0 
L 4.296875 0 
L 4.296875 8.203125 
L 38.09375 47.515625 
L 5.515625 47.515625 
z
" id="DejaVuSans-122"/>
      <path d="M 48.78125 52.59375 
L 48.78125 44.1875 
Q 44.96875 46.296875 41.140625 47.34375 
Q 37.3125 48.390625 33.40625 48.390625 
Q 24.65625 48.390625 19.8125 42.84375 
Q 14.984375 37.3125 14.984375 27.296875 
Q 14.984375 17.28125 19.8125 11.734375 
Q 24.65625 6.203125 33.40625 6.203125 
Q 37.3125 6.203125 41.140625 7.25 
Q 44.96875 8.296875 48.78125 10.40625 
L 48.78125 2.09375 
Q 45.015625 0.34375 40.984375 -0.53125 
Q 36.96875 -1.421875 32.421875 -1.421875 
Q 20.0625 -1.421875 12.78125 6.34375 
Q 5.515625 14.109375 5.515625 27.296875 
Q 5.515625 40.671875 12.859375 48.328125 
Q 20.21875 56 33.015625 56 
Q 37.15625 56 41.109375 55.140625 
Q 45.0625 54.296875 48.78125 52.59375 
z
" id="DejaVuSans-99"/>
      <path d="M 30.609375 48.390625 
Q 23.390625 48.390625 19.1875 42.75 
Q 14.984375 37.109375 14.984375 27.296875 
Q 14.984375 17.484375 19.15625 11.84375 
Q 23.34375 6.203125 30.609375 6.203125 
Q 37.796875 6.203125 41.984375 11.859375 
Q 46.1875 17.53125 46.1875 27.296875 
Q 46.1875 37.015625 41.984375 42.703125 
Q 37.796875 48.390625 30.609375 48.390625 
z
M 30.609375 56 
Q 42.328125 56 49.015625 48.375 
Q 55.71875 40.765625 55.71875 27.296875 
Q 55.71875 13.875 49.015625 6.21875 
Q 42.328125 -1.421875 30.609375 -1.421875 
Q 18.84375 -1.421875 12.171875 6.21875 
Q 5.515625 13.875 5.515625 27.296875 
Q 5.515625 40.765625 12.171875 48.375 
Q 18.84375 56 30.609375 56 
z
M 37.40625 79.984375 
L 47.125 79.984375 
L 31.21875 61.625 
L 23.734375 61.625 
z
" id="DejaVuSans-243"/>
      <path d="M 54.890625 33.015625 
L 54.890625 0 
L 45.90625 0 
L 45.90625 32.71875 
Q 45.90625 40.484375 42.875 44.328125 
Q 39.84375 48.1875 33.796875 48.1875 
Q 26.515625 48.1875 22.3125 43.546875 
Q 18.109375 38.921875 18.109375 30.90625 
L 18.109375 0 
L 9.078125 0 
L 9.078125 54.6875 
L 18.109375 54.6875 
L 18.109375 46.1875 
Q 21.34375 51.125 25.703125 53.5625 
Q 30.078125 56 35.796875 56 
Q 45.21875 56 50.046875 50.171875 
Q 54.890625 44.34375 54.890625 33.015625 
z
" id="DejaVuSans-110"/>
     </defs>
     <g transform="translate(4.372188 198.641406)rotate(-90)scale(0.1 -0.1)">
      <use xlink:href="#DejaVuSans-85"/>
      <use x="73.193359" xlink:href="#DejaVuSans-116"/>
      <use x="112.402344" xlink:href="#DejaVuSans-105"/>
      <use x="140.185547" xlink:href="#DejaVuSans-108"/>
      <use x="167.96875" xlink:href="#DejaVuSans-105"/>
      <use x="195.751953" xlink:href="#DejaVuSans-122"/>
      <use x="248.242188" xlink:href="#DejaVuSans-97"/>
      <use x="309.521484" xlink:href="#DejaVuSans-99"/>
      <use x="364.501953" xlink:href="#DejaVuSans-105"/>
      <use x="392.285156" xlink:href="#DejaVuSans-243"/>
      <use x="453.466797" xlink:href="#DejaVuSans-110"/>
     </g>
    </g>
   </g>
   <g id="line2d_27">
    <path clip-path="url(#pd234c76cef)" d="M 63.883636 77.612998 
L 64.240066 289.103856 
L 64.596495 192.437182 
L 64.952924 214.345837 
L 65.665782 135.153921 
L 66.37864 231.140395 
L 66.73507 260.318915 
L 67.091499 304.756364 
L 67.447928 268.889193 
L 67.804357 271.837459 
L 68.160786 228.010379 
L 68.517215 251.753326 
L 69.230074 223.389053 
L 69.586503 229.840469 
L 69.942932 224.077205 
L 70.65579 166.858938 
L 71.368649 135.55796 
L 71.725078 157.728886 
L 72.081507 153.991659 
L 72.437936 153.789967 
L 72.794365 156.146845 
L 73.150794 137.938409 
L 73.507224 145.19461 
L 73.863653 142.083045 
L 74.220082 136.016333 
L 74.576511 132.071401 
L 74.93294 135.266788 
L 75.645799 120.884405 
L 76.002228 107.594724 
L 76.358657 104.163718 
L 76.715086 104.634705 
L 77.071515 106.007162 
L 77.784373 95.588019 
L 78.140803 87.618868 
L 78.497232 76.550217 
L 78.853661 75.966943 
L 79.21009 74.958519 
L 79.566519 76.743812 
L 79.922948 73.445894 
L 80.279378 74.492354 
L 80.635807 74.017195 
L 80.992236 79.655756 
L 81.348665 81.621382 
L 81.705094 84.994053 
L 82.417952 79.712585 
L 82.774382 83.843867 
L 83.48724 78.926757 
L 83.843669 71.231194 
L 84.200098 72.007604 
L 84.556527 68.819063 
L 84.912957 71.526518 
L 85.269386 67.183461 
L 85.625815 68.313208 
L 85.982244 67.829012 
L 86.338673 69.840546 
L 86.695102 70.034259 
L 87.051532 67.356672 
L 87.407961 70.621585 
L 87.76439 69.773708 
L 88.120819 70.27856 
L 88.477248 67.972545 
L 88.833677 69.357941 
L 89.190106 74.362523 
L 89.546536 72.862791 
L 90.259394 67.696678 
L 90.615823 65.788349 
L 90.972252 64.695893 
L 91.328681 68.26684 
L 91.685111 67.343253 
L 92.04154 64.748826 
L 92.397969 65.908251 
L 92.754398 64.922842 
L 93.110827 66.400876 
L 93.467256 66.874873 
L 93.823686 72.575796 
L 94.180115 72.663782 
L 94.536544 76.178626 
L 94.892973 78.009105 
L 95.249402 78.702857 
L 95.605831 76.659722 
L 95.96226 76.390935 
L 96.31869 72.985997 
L 96.675119 73.689349 
L 97.387977 84.012825 
L 97.744406 79.134497 
L 98.100835 80.665809 
L 98.457265 79.495148 
L 98.813694 74.795638 
L 99.170123 73.818016 
L 99.882981 78.68261 
L 100.952269 84.499379 
L 101.308698 83.517863 
L 101.665127 80.498934 
L 102.021556 82.335089 
L 102.734414 82.06615 
L 103.090844 85.142284 
L 103.803702 87.131254 
L 104.160131 85.064993 
L 104.51656 84.536517 
L 104.872989 84.498396 
L 105.229419 80.917256 
L 105.585848 80.446215 
L 105.942277 77.989492 
L 106.298706 77.383774 
L 106.655135 77.915342 
L 107.011564 79.678589 
L 107.367993 79.01515 
L 108.080852 78.486408 
L 108.437281 80.620444 
L 108.79371 76.4118 
L 109.150139 74.30734 
L 109.506568 74.328155 
L 109.862998 75.15361 
L 110.219427 76.365662 
L 110.575856 78.052231 
L 110.932285 77.732344 
L 111.645143 73.613996 
L 112.001572 77.222007 
L 112.358002 78.240005 
L 112.714431 78.648176 
L 113.07086 78.423834 
L 113.427289 77.108754 
L 114.140147 80.754503 
L 114.496577 80.494201 
L 114.853006 82.943841 
L 115.209435 83.340841 
L 115.565864 83.063156 
L 116.278722 80.956617 
L 116.991581 79.89994 
L 117.34801 76.515511 
L 117.704439 75.481065 
L 118.417297 77.323348 
L 118.773726 73.950791 
L 119.130156 72.158236 
L 119.486585 71.792935 
L 119.843014 67.397874 
L 120.199443 68.257259 
L 120.555872 71.059213 
L 120.912301 68.645243 
L 121.268731 70.433886 
L 121.62516 69.220501 
L 121.981589 68.952431 
L 122.338018 67.303623 
L 122.694447 67.538276 
L 123.050876 67.437772 
L 123.407305 65.788639 
L 123.763735 65.36912 
L 124.120164 63.589081 
L 124.476593 65.324311 
L 124.833022 63.528775 
L 125.189451 64.005288 
L 125.54588 65.641589 
L 125.90231 63.257755 
L 126.258739 62.289263 
L 126.615168 62.673121 
L 126.971597 60.665988 
L 127.328026 59.652373 
L 127.684455 59.900291 
L 128.397314 62.927457 
L 128.753743 63.264868 
L 129.110172 63.968085 
L 129.466601 64.311098 
L 129.82303 65.140089 
L 130.535889 64.990224 
L 130.892318 61.837003 
L 131.248747 62.778875 
L 131.605176 63.092751 
L 132.318034 65.35281 
L 132.674464 65.398272 
L 133.030893 64.848432 
L 133.387322 64.035767 
L 133.743751 61.944576 
L 134.813038 58.007866 
L 135.169468 59.21241 
L 135.525897 58.852166 
L 135.882326 59.632871 
L 136.238755 59.174399 
L 136.595184 58.930882 
L 136.951613 58.244292 
L 137.308043 57.825099 
L 137.664472 59.453469 
L 138.020901 58.616042 
L 138.37733 57.435179 
L 138.733759 57.871747 
L 139.090188 57.113795 
L 139.446618 55.9107 
L 139.803047 56.09095 
L 140.159476 55.875768 
L 140.872334 54.778489 
L 141.228763 55.442169 
L 141.585192 55.161826 
L 141.941622 53.703883 
L 142.298051 53.394303 
L 142.65448 54.50083 
L 143.010909 54.266628 
L 143.723767 57.46458 
L 144.080197 56.433484 
L 144.436626 56.42524 
L 144.793055 55.306881 
L 145.149484 55.689558 
L 145.862342 53.344532 
L 146.218771 53.312123 
L 146.575201 53.53316 
L 146.93163 53.597795 
L 147.288059 54.727779 
L 148.000917 54.967333 
L 148.357346 56.123675 
L 149.070205 55.281889 
L 149.426634 55.399257 
L 149.783063 54.322644 
L 150.139492 57.193571 
L 150.495921 57.267877 
L 150.852351 55.853961 
L 151.565209 56.51117 
L 151.921638 55.909889 
L 152.278067 55.687349 
L 152.634496 55.332221 
L 152.990925 55.331202 
L 153.347355 54.383903 
L 153.703784 53.878896 
L 154.060213 54.24808 
L 154.416642 52.281215 
L 155.1295 53.890796 
L 155.48593 55.488112 
L 156.198788 56.267068 
L 156.555217 56.439989 
L 156.911646 58.233981 
L 157.268075 58.330304 
L 157.624505 58.916419 
L 158.337363 58.664531 
L 158.693792 57.77789 
L 159.050221 57.973561 
L 160.119509 59.424086 
L 160.475938 59.53304 
L 160.832367 60.48515 
L 161.188796 58.857464 
L 161.545225 59.116808 
L 161.901654 58.540015 
L 162.258084 59.07153 
L 162.614513 58.705061 
L 162.970942 59.061997 
L 163.327371 58.671384 
L 163.6838 58.007394 
L 164.753088 58.231864 
L 165.109517 57.34683 
L 165.465946 56.955404 
L 165.822375 56.310869 
L 166.178804 55.077938 
L 166.535233 54.531731 
L 166.891663 54.831228 
L 167.248092 54.835438 
L 167.96095 56.075738 
L 168.673808 56.809378 
L 169.386667 54.01781 
L 169.743096 53.767229 
L 170.099525 55.023545 
L 170.455954 55.101235 
L 170.812383 55.82478 
L 171.168812 55.633296 
L 171.525242 54.847954 
L 171.881671 55.252243 
L 172.2381 52.920638 
L 172.594529 51.903476 
L 172.950958 50.120556 
L 173.307387 50.508534 
L 173.663817 49.10495 
L 174.020246 49.230729 
L 174.376675 48.310691 
L 174.733104 48.709135 
L 175.089533 49.907334 
L 175.445962 49.983591 
L 175.802391 48.716239 
L 176.158821 49.34463 
L 176.51525 49.645921 
L 176.871679 50.349206 
L 177.228108 50.726756 
L 177.584537 50.50047 
L 177.940966 49.865269 
L 178.297396 49.964886 
L 178.653825 49.836174 
L 179.010254 49.048814 
L 179.366683 48.971291 
L 180.079541 48.527399 
L 180.435971 48.426237 
L 181.148829 50.602706 
L 181.505258 50.384632 
L 181.861687 49.940779 
L 182.218116 49.810027 
L 182.930975 47.415582 
L 183.287404 47.028099 
L 183.643833 48.447098 
L 184.000262 49.213323 
L 184.356691 48.053185 
L 184.71312 48.534157 
L 185.425979 47.931834 
L 185.782408 47.097662 
L 186.138837 45.61038 
L 186.851695 46.857587 
L 187.564554 45.859031 
L 187.920983 45.716386 
L 188.277412 46.26235 
L 188.633841 46.001957 
L 188.99027 46.480691 
L 189.346699 44.903602 
L 190.059558 46.265552 
L 190.415987 46.295685 
L 190.772416 46.712726 
L 191.128845 46.831762 
L 191.485274 46.801603 
L 191.841704 46.155164 
L 192.554562 47.414823 
L 192.910991 46.947386 
L 193.26742 47.17056 
L 193.623849 47.583423 
L 193.980278 47.012136 
L 194.336708 47.509457 
L 195.049566 46.609273 
L 195.405995 48.053565 
L 195.762424 47.045649 
L 196.118853 48.051789 
L 196.475283 48.179142 
L 197.188141 46.660655 
L 197.900999 47.526639 
L 198.257428 47.694218 
L 198.613857 47.080628 
L 199.326716 46.765748 
L 199.683145 45.963685 
L 200.039574 46.323009 
L 200.396003 46.138738 
L 200.752432 46.951743 
L 201.108862 46.708175 
L 201.465291 46.922636 
L 201.82172 47.553539 
L 202.178149 48.469152 
L 202.534578 48.11336 
L 202.891007 48.114221 
L 203.247437 48.349751 
L 203.603866 49.980348 
L 203.960295 49.402516 
L 204.316724 50.523488 
L 204.673153 50.710552 
L 205.029582 50.48803 
L 205.386011 51.092293 
L 205.742441 50.770424 
L 206.09887 51.806179 
L 206.455299 52.080041 
L 206.811728 52.010826 
L 207.168157 51.62037 
L 207.524586 51.78894 
L 207.881016 51.64748 
L 208.237445 52.101638 
L 208.593874 51.665218 
L 208.950303 51.739228 
L 209.663161 50.850844 
L 210.01959 51.181683 
L 210.37602 51.16159 
L 210.732449 50.74646 
L 211.088878 51.63075 
L 211.445307 50.943498 
L 211.801736 50.631447 
L 212.158165 51.526927 
L 213.227453 50.789482 
L 213.583882 51.102701 
L 213.940311 50.768004 
L 214.29674 50.210177 
L 214.65317 50.153611 
L 215.722457 49.667121 
L 216.078886 50.505954 
L 216.435315 50.906447 
L 216.791744 50.916164 
L 217.861032 49.600282 
L 218.217461 50.673791 
L 218.57389 51.009845 
L 219.286749 51.120918 
L 219.643178 51.352558 
L 219.999607 51.402913 
L 220.356036 51.781499 
L 220.712465 51.681633 
L 221.068894 51.115719 
L 221.425324 51.217594 
L 221.781753 51.0014 
L 222.138182 50.159025 
L 222.494611 50.411258 
L 222.85104 49.500517 
L 223.207469 48.034485 
L 223.563898 47.998357 
L 224.276757 48.190209 
L 224.633186 46.972013 
L 224.989615 46.528788 
L 225.346044 46.526468 
L 226.058903 45.920167 
L 226.771761 47.86686 
L 227.841048 46.536208 
L 228.197477 46.896425 
L 228.553907 46.480137 
L 228.910336 46.448976 
L 229.266765 46.585022 
L 229.623194 46.275937 
L 229.979623 46.151962 
L 230.336052 46.877742 
L 230.692482 46.829 
L 231.048911 46.998087 
L 231.40534 46.690837 
L 231.761769 46.551594 
L 232.474627 43.880546 
L 232.831057 43.72572 
L 233.187486 44.163858 
L 233.543915 44.020926 
L 233.900344 43.662482 
L 234.256773 43.998349 
L 234.613202 44.606844 
L 234.969631 44.632277 
L 235.326061 45.637178 
L 235.68249 45.200902 
L 236.038919 45.221411 
L 236.395348 46.122613 
L 236.751777 46.330986 
L 237.464636 45.37723 
L 238.177494 45.23844 
L 238.533923 45.272577 
L 238.890352 44.88075 
L 239.60321 45.566703 
L 239.95964 45.08231 
L 240.316069 44.952595 
L 240.672498 44.26271 
L 241.385356 44.847932 
L 241.741785 44.815723 
L 242.454644 43.735446 
L 242.811073 45.081375 
L 243.167502 45.489982 
L 243.523931 45.175779 
L 243.88036 45.535829 
L 244.949648 44.927507 
L 245.306077 45.805954 
L 246.018935 45.375037 
L 246.731794 45.988584 
L 247.088223 45.662935 
L 247.801081 43.951904 
L 248.15751 44.033055 
L 248.513939 44.320058 
L 249.226798 44.586951 
L 249.583227 45.022391 
L 249.939656 44.151573 
L 250.652514 45.013785 
L 251.008943 44.241372 
L 251.365373 44.89319 
L 251.721802 45.042442 
L 252.078231 45.024206 
L 252.43466 45.49921 
L 252.791089 46.264626 
L 253.147518 45.916845 
L 253.503948 46.867415 
L 253.860377 47.192589 
L 254.929664 47.561935 
L 255.286093 46.612568 
L 255.642523 46.650862 
L 255.998952 46.88848 
L 256.355381 46.697254 
L 256.71181 47.589735 
L 257.781097 49.370793 
L 258.137527 48.677211 
L 258.493956 50.038085 
L 259.206814 49.57175 
L 259.563243 49.615976 
L 259.919672 49.907433 
L 260.276102 49.687505 
L 260.632531 50.784958 
L 260.98896 50.119681 
L 261.345389 50.383656 
L 261.701818 50.480679 
L 262.058247 50.153102 
L 262.414676 50.824674 
L 263.127535 50.88962 
L 263.483964 51.735777 
L 263.840393 51.738707 
L 264.196822 51.609109 
L 264.553251 51.777592 
L 264.909681 50.852422 
L 265.26611 50.317966 
L 265.622539 50.570541 
L 265.978968 50.524567 
L 266.335397 49.908874 
L 266.691826 50.095421 
L 267.048256 49.953936 
L 267.404685 50.083151 
L 267.761114 50.090623 
L 268.117543 50.394569 
L 268.473972 50.17517 
L 268.830401 49.312379 
L 269.18683 49.757777 
L 269.54326 48.801753 
L 269.899689 48.944644 
L 270.256118 48.869549 
L 270.612547 48.13049 
L 270.968976 47.856274 
L 271.325405 47.051618 
L 271.681835 46.959776 
L 272.038264 47.605677 
L 272.394693 47.873201 
L 273.46398 47.180672 
L 273.82041 47.406355 
L 274.176839 46.409228 
L 274.533268 46.560116 
L 274.889697 46.15852 
L 275.246126 46.041689 
L 275.602555 45.614451 
L 275.958984 45.826325 
L 276.315414 45.772639 
L 276.671843 46.114474 
L 277.028272 45.99961 
L 277.384701 46.284385 
L 277.74113 46.890023 
L 278.097559 45.945104 
L 278.453989 45.51996 
L 278.810418 45.427034 
L 279.166847 44.39099 
L 279.523276 44.586652 
L 279.879705 45.27764 
L 280.236134 45.354854 
L 280.592563 44.969747 
L 281.661851 46.337603 
L 282.01828 46.222683 
L 282.374709 46.447435 
L 283.087568 45.620524 
L 283.443997 44.635387 
L 283.800426 44.991123 
L 284.156855 45.04566 
L 284.869713 42.716047 
L 285.939001 42.038543 
L 286.29543 42.094369 
L 287.008288 42.678555 
L 287.364717 42.493858 
L 287.721147 42.042979 
L 288.434005 42.880315 
L 288.790434 43.048249 
L 289.146863 42.727148 
L 289.503292 41.992882 
L 290.216151 41.826873 
L 290.57258 41.941945 
L 290.929009 42.278402 
L 291.285438 42.303618 
L 291.641867 42.509393 
L 291.998296 41.905239 
L 292.354726 41.697002 
L 292.711155 40.843636 
L 293.067584 40.960993 
L 293.424013 40.877475 
L 293.780442 41.32619 
L 294.493301 41.85001 
L 294.84973 42.425235 
L 295.206159 42.149347 
L 295.562588 42.504677 
L 295.919017 42.494017 
L 296.275446 41.951975 
L 296.631876 42.891673 
L 296.988305 42.565979 
L 297.344734 42.800053 
L 297.701163 43.316913 
L 298.057592 43.260161 
L 298.414021 43.454061 
L 299.839738 41.931391 
L 300.196167 42.374456 
L 300.552596 43.256965 
L 300.909025 43.183095 
L 301.265455 43.788862 
L 301.621884 44.079147 
L 301.978313 43.939053 
L 302.334742 44.063323 
L 303.0476 43.630736 
L 303.404029 44.293664 
L 304.116888 45.169395 
L 304.473317 45.869926 
L 304.829746 45.919894 
L 305.186175 46.452071 
L 305.542604 46.31092 
L 306.255463 46.668904 
L 306.611892 47.28545 
L 306.968321 47.231919 
L 307.32475 48.206752 
L 307.681179 47.414494 
L 308.037609 47.846134 
L 308.394038 47.42025 
L 308.750467 47.789927 
L 309.106896 47.979844 
L 309.463325 48.375037 
L 309.819754 48.509989 
L 310.176183 48.475448 
L 310.532613 48.632146 
L 311.245471 49.235178 
L 311.6019 49.317457 
L 311.958329 49.199309 
L 312.314758 49.243495 
L 312.671188 49.02095 
L 313.384046 49.876601 
L 313.740475 49.944937 
L 314.096904 49.623256 
L 314.453333 49.456441 
L 314.809762 49.57072 
L 315.166192 49.316787 
L 315.522621 50.097781 
L 316.235479 50.461342 
L 316.591908 50.028309 
L 316.948337 50.185816 
L 317.304767 49.897864 
L 317.661196 49.974694 
L 318.017625 49.897192 
L 318.374054 49.626889 
L 318.730483 49.650598 
L 319.086912 49.39839 
L 319.443342 49.36367 
L 319.799771 49.445628 
L 320.1562 49.231889 
L 320.869058 50.243386 
L 321.581916 49.912341 
L 321.938346 49.87865 
L 322.294775 50.001993 
L 322.651204 49.744034 
L 323.364062 50.391136 
L 324.076921 51.101087 
L 324.43335 51.202272 
L 324.789779 50.974294 
L 325.146208 50.961699 
L 325.502637 50.823567 
L 326.928354 50.747023 
L 327.284783 50.998883 
L 327.641212 50.879502 
L 327.997641 51.172 
L 328.35407 50.765682 
L 328.7105 49.98809 
L 330.492645 49.813995 
L 331.561933 49.004965 
L 331.918362 48.946677 
L 332.274791 48.425933 
L 332.63122 48.42372 
L 332.987649 48.543071 
L 333.344079 48.081802 
L 333.700508 48.128394 
L 334.056937 48.713297 
L 335.126224 48.903039 
L 335.482654 48.790577 
L 335.839083 47.944419 
L 336.195512 47.899601 
L 336.551941 48.156662 
L 336.90837 48.245362 
L 337.264799 47.62461 
L 337.977658 47.793923 
L 338.334087 47.515804 
L 338.690516 48.126905 
L 339.046945 48.396505 
L 339.403374 48.258681 
L 339.759803 47.860303 
L 340.116233 47.732918 
L 340.472662 47.747915 
L 340.829091 47.96315 
L 341.18552 47.47109 
L 341.541949 47.975874 
L 341.898378 47.633875 
L 342.254808 47.741878 
L 342.611237 48.061084 
L 342.967666 47.98807 
L 343.324095 48.212396 
L 344.036953 47.761655 
L 344.749812 48.54317 
L 345.46267 48.287687 
L 345.819099 49.115857 
L 346.531957 48.683217 
L 346.888387 49.278915 
L 347.244816 49.459456 
L 347.601245 49.202467 
L 348.670532 49.685135 
L 349.026962 49.644222 
L 349.383391 49.306857 
L 349.73982 49.194545 
L 350.096249 49.661365 
L 350.809107 49.326329 
L 351.165536 49.85193 
L 351.521966 50.056663 
L 351.878395 50.397741 
L 352.591253 50.823282 
L 352.947682 51.075629 
L 353.304111 50.841817 
L 353.660541 50.746052 
L 354.01697 50.386269 
L 354.373399 49.811894 
L 354.729828 50.215325 
L 355.442686 50.368177 
L 355.799115 49.999996 
L 356.155545 50.515005 
L 356.868403 50.152662 
L 357.93769 49.463889 
L 358.29412 49.698164 
L 358.650549 49.73519 
L 359.363407 49.273235 
L 359.719836 49.499573 
L 360.076265 49.365433 
L 360.432695 49.525791 
L 360.789124 49.260188 
L 361.145553 49.236231 
L 361.858411 50.04408 
L 362.21484 50.163726 
L 362.571269 49.525473 
L 363.284128 49.085997 
L 363.640557 49.030622 
L 363.996986 49.174202 
L 364.353415 48.767339 
L 364.709844 48.812363 
L 365.066274 49.10537 
L 366.135561 48.32356 
L 366.49199 48.034188 
L 366.848419 48.292138 
L 367.204848 48.278898 
L 367.561278 48.605856 
L 367.917707 48.470167 
L 368.630565 48.650058 
L 368.986994 48.842014 
L 369.699853 48.197414 
L 370.056282 48.079005 
L 370.412711 48.138111 
L 371.125569 48.394919 
L 371.481998 48.037232 
L 371.838428 48.033262 
L 372.194857 48.22509 
L 372.551286 47.607833 
L 372.907715 47.890986 
L 373.620573 47.344059 
L 373.977002 47.168228 
L 374.333432 46.569778 
L 374.689861 45.678319 
L 375.04629 45.778364 
L 375.402719 46.314405 
L 375.759148 46.334137 
L 376.115577 46.680065 
L 376.828436 46.54979 
L 377.184865 45.955448 
L 377.541294 45.733923 
L 377.897723 46.308806 
L 378.610581 45.913226 
L 379.679869 45.86278 
L 380.036298 45.097916 
L 380.392727 44.710181 
L 380.749156 44.717866 
L 381.105586 44.953487 
L 381.462015 44.672519 
L 381.818444 44.553663 
L 382.174873 44.166406 
L 382.531302 43.587667 
L 382.887731 43.785116 
L 383.244161 43.471332 
L 383.60059 43.540976 
L 383.957019 43.27823 
L 384.669877 43.397018 
L 385.026306 43.364964 
L 385.739165 43.55117 
L 386.095594 44.138994 
L 386.452023 43.988168 
L 386.808452 43.970935 
L 387.52131 44.937011 
L 387.87774 45.117625 
L 388.234169 45.017739 
L 388.590598 44.699496 
L 388.947027 45.503876 
L 389.303456 45.207759 
L 389.659885 45.49695 
L 390.372744 44.969957 
L 390.729173 45.14411 
L 391.085602 44.894832 
L 391.442031 44.816939 
L 391.79846 45.077438 
L 392.154889 44.809242 
L 392.867748 45.369173 
L 393.224177 44.899077 
L 393.580606 45.317964 
L 393.937035 45.08309 
L 394.293464 44.698311 
L 395.006323 45.372789 
L 395.719181 45.048072 
L 396.07561 44.808631 
L 396.432039 44.808106 
L 396.788468 45.195354 
L 397.144898 44.704744 
L 397.501327 44.47287 
L 398.214185 43.674822 
L 398.570614 43.456611 
L 398.927043 43.600385 
L 399.283473 43.494585 
L 399.639902 43.745434 
L 399.996331 43.583913 
L 401.065618 43.711529 
L 401.422048 43.192082 
L 401.778477 43.1831 
L 402.134906 43.687486 
L 402.491335 43.602938 
L 402.847764 43.664099 
L 403.204193 43.236221 
L 403.560622 43.171825 
L 403.917052 43.434899 
L 404.273481 43.185537 
L 404.62991 43.271255 
L 404.986339 43.046802 
L 405.699197 43.677275 
L 406.055627 43.972782 
L 406.412056 43.967189 
L 406.768485 43.574004 
L 407.837772 43.859434 
L 408.194201 43.988532 
L 408.550631 43.906585 
L 408.90706 44.383455 
L 409.263489 44.363007 
L 409.619918 44.226981 
L 409.976347 44.262756 
L 410.689206 44.619053 
L 411.402064 44.702472 
L 412.114922 44.816208 
L 413.540639 44.027255 
L 414.253497 44.051018 
L 414.609926 44.377608 
L 414.966355 44.157258 
L 416.035643 44.711308 
L 416.392072 44.595374 
L 416.748501 44.186554 
L 417.10493 44.15177 
L 417.46136 44.38702 
L 417.817789 44.386989 
L 418.530647 43.918969 
L 419.599934 44.338126 
L 419.956364 44.786724 
L 419.956364 44.786724 
" style="fill:none;stroke:#1f77b4;stroke-linecap:square;stroke-width:1.5;"/>
   </g>
   <g id="patch_3">
    <path d="M 46.08 317.952 
L 46.08 27.648 
" style="fill:none;stroke:#000000;stroke-linecap:square;stroke-linejoin:miter;stroke-width:0.8;"/>
   </g>
   <g id="patch_4">
    <path d="M 437.76 317.952 
L 437.76 27.648 
" style="fill:none;stroke:#000000;stroke-linecap:square;stroke-linejoin:miter;stroke-width:0.8;"/>
   </g>
   <g id="patch_5">
    <path d="M 46.08 317.952 
L 437.76 317.952 
" style="fill:none;stroke:#000000;stroke-linecap:square;stroke-linejoin:miter;stroke-width:0.8;"/>
   </g>
   <g id="patch_6">
    <path d="M 46.08 27.648 
L 437.76 27.648 
" style="fill:none;stroke:#000000;stroke-linecap:square;stroke-linejoin:miter;stroke-width:0.8;"/>
   </g>
   <g id="text_16">
    <!-- Utilización promedio servidor B -->
    <defs>
     <path id="DejaVuSans-32"/>
     <path d="M 18.109375 8.203125 
L 18.109375 -20.796875 
L 9.078125 -20.796875 
L 9.078125 54.6875 
L 18.109375 54.6875 
L 18.109375 46.390625 
Q 20.953125 51.265625 25.265625 53.625 
Q 29.59375 56 35.59375 56 
Q 45.5625 56 51.78125 48.09375 
Q 58.015625 40.1875 58.015625 27.296875 
Q 58.015625 14.40625 51.78125 6.484375 
Q 45.5625 -1.421875 35.59375 -1.421875 
Q 29.59375 -1.421875 25.265625 0.953125 
Q 20.953125 3.328125 18.109375 8.203125 
z
M 48.6875 27.296875 
Q 48.6875 37.203125 44.609375 42.84375 
Q 40.53125 48.484375 33.40625 48.484375 
Q 26.265625 48.484375 22.1875 42.84375 
Q 18.109375 37.203125 18.109375 27.296875 
Q 18.109375 17.390625 22.1875 11.75 
Q 26.265625 6.109375 33.40625 6.109375 
Q 40.53125 6.109375 44.609375 11.75 
Q 48.6875 17.390625 48.6875 27.296875 
z
" id="DejaVuSans-112"/>
     <path d="M 52 44.1875 
Q 55.375 50.25 60.0625 53.125 
Q 64.75 56 71.09375 56 
Q 79.640625 56 84.28125 50.015625 
Q 88.921875 44.046875 88.921875 33.015625 
L 88.921875 0 
L 79.890625 0 
L 79.890625 32.71875 
Q 79.890625 40.578125 77.09375 44.375 
Q 74.3125 48.1875 68.609375 48.1875 
Q 61.625 48.1875 57.5625 43.546875 
Q 53.515625 38.921875 53.515625 30.90625 
L 53.515625 0 
L 44.484375 0 
L 44.484375 32.71875 
Q 44.484375 40.625 41.703125 44.40625 
Q 38.921875 48.1875 33.109375 48.1875 
Q 26.21875 48.1875 22.15625 43.53125 
Q 18.109375 38.875 18.109375 30.90625 
L 18.109375 0 
L 9.078125 0 
L 9.078125 54.6875 
L 18.109375 54.6875 
L 18.109375 46.1875 
Q 21.1875 51.21875 25.484375 53.609375 
Q 29.78125 56 35.6875 56 
Q 41.65625 56 45.828125 52.96875 
Q 50 49.953125 52 44.1875 
z
" id="DejaVuSans-109"/>
     <path d="M 56.203125 29.59375 
L 56.203125 25.203125 
L 14.890625 25.203125 
Q 15.484375 15.921875 20.484375 11.0625 
Q 25.484375 6.203125 34.421875 6.203125 
Q 39.59375 6.203125 44.453125 7.46875 
Q 49.3125 8.734375 54.109375 11.28125 
L 54.109375 2.78125 
Q 49.265625 0.734375 44.1875 -0.34375 
Q 39.109375 -1.421875 33.890625 -1.421875 
Q 20.796875 -1.421875 13.15625 6.1875 
Q 5.515625 13.8125 5.515625 26.8125 
Q 5.515625 40.234375 12.765625 48.109375 
Q 20.015625 56 32.328125 56 
Q 43.359375 56 49.78125 48.890625 
Q 56.203125 41.796875 56.203125 29.59375 
z
M 47.21875 32.234375 
Q 47.125 39.59375 43.09375 43.984375 
Q 39.0625 48.390625 32.421875 48.390625 
Q 24.90625 48.390625 20.390625 44.140625 
Q 15.875 39.890625 15.1875 32.171875 
z
" id="DejaVuSans-101"/>
     <path d="M 2.984375 54.6875 
L 12.5 54.6875 
L 29.59375 8.796875 
L 46.6875 54.6875 
L 56.203125 54.6875 
L 35.6875 0 
L 23.484375 0 
z
" id="DejaVuSans-118"/>
     <path d="M 19.671875 34.8125 
L 19.671875 8.109375 
L 35.5 8.109375 
Q 43.453125 8.109375 47.28125 11.40625 
Q 51.125 14.703125 51.125 21.484375 
Q 51.125 28.328125 47.28125 31.5625 
Q 43.453125 34.8125 35.5 34.8125 
z
M 19.671875 64.796875 
L 19.671875 42.828125 
L 34.28125 42.828125 
Q 41.5 42.828125 45.03125 45.53125 
Q 48.578125 48.25 48.578125 53.8125 
Q 48.578125 59.328125 45.03125 62.0625 
Q 41.5 64.796875 34.28125 64.796875 
z
M 9.8125 72.90625 
L 35.015625 72.90625 
Q 46.296875 72.90625 52.390625 68.21875 
Q 58.5 63.53125 58.5 54.890625 
Q 58.5 48.1875 55.375 44.234375 
Q 52.25 40.28125 46.1875 39.3125 
Q 53.46875 37.75 57.5 32.78125 
Q 61.53125 27.828125 61.53125 20.40625 
Q 61.53125 10.640625 54.890625 5.3125 
Q 48.25 0 35.984375 0 
L 9.8125 0 
z
" id="DejaVuSans-66"/>
    </defs>
    <g transform="translate(147.995625 21.648)scale(0.12 -0.12)">
     <use xlink:href="#DejaVuSans-85"/>
     <use x="73.193359" xlink:href="#DejaVuSans-116"/>
     <use x="112.402344" xlink:href="#DejaVuSans-105"/>
     <use x="140.185547" xlink:href="#DejaVuSans-108"/>
     <use x="167.96875" xlink:href="#DejaVuSans-105"/>
     <use x="195.751953" xlink:href="#DejaVuSans-122"/>
     <use x="248.242188" xlink:href="#DejaVuSans-97"/>
     <use x="309.521484" xlink:href="#DejaVuSans-99"/>
     <use x="364.501953" xlink:href="#DejaVuSans-105"/>
     <use x="392.285156" xlink:href="#DejaVuSans-243"/>
     <use x="453.466797" xlink:href="#DejaVuSans-110"/>
     <use x="516.845703" xlink:href="#DejaVuSans-32"/>
     <use x="548.632812" xlink:href="#DejaVuSans-112"/>
     <use x="612.109375" xlink:href="#DejaVuSans-114"/>
     <use x="653.191406" xlink:href="#DejaVuSans-111"/>
     <use x="714.373047" xlink:href="#DejaVuSans-109"/>
     <use x="811.785156" xlink:href="#DejaVuSans-101"/>
     <use x="873.308594" xlink:href="#DejaVuSans-100"/>
     <use x="936.785156" xlink:href="#DejaVuSans-105"/>
     <use x="964.568359" xlink:href="#DejaVuSans-111"/>
     <use x="1025.75" xlink:href="#DejaVuSans-32"/>
     <use x="1057.537109" xlink:href="#DejaVuSans-115"/>
     <use x="1109.636719" xlink:href="#DejaVuSans-101"/>
     <use x="1171.160156" xlink:href="#DejaVuSans-114"/>
     <use x="1212.273438" xlink:href="#DejaVuSans-118"/>
     <use x="1271.453125" xlink:href="#DejaVuSans-105"/>
     <use x="1299.236328" xlink:href="#DejaVuSans-100"/>
     <use x="1362.712891" xlink:href="#DejaVuSans-111"/>
     <use x="1423.894531" xlink:href="#DejaVuSans-114"/>
     <use x="1465.007812" xlink:href="#DejaVuSans-32"/>
     <use x="1496.794922" xlink:href="#DejaVuSans-66"/>
    </g>
   </g>
  </g>
 </g>
 <defs>
  <clipPath id="pd234c76cef">
   <rect height="290.304" width="391.68" x="46.08" y="27.648"/>
  </clipPath>
 </defs>
</svg>
