<?xml version="1.0" encoding="utf-8" standalone="no"?>
<!DOCTYPE svg PUBLIC "-//W3C//DTD SVG 1.1//EN"
  "http://www.w3.org/Graphics/SVG/1.1/DTD/svg11.dtd">
<!-- Created with matplotlib (https://matplotlib.org/) -->
<svg height="345.6pt" version="1.1" viewBox="0 0 460.8 345.6" width="460.8pt" xmlns="http://www.w3.org/2000/svg" xmlns:xlink="http://www.w3.org/1999/xlink">
 <defs>
  <style type="text/css">
*{stroke-linecap:butt;stroke-linejoin:round;}
  </style>
 </defs>
 <g id="figure_1">
  <g id="patch_1">
   <path d="M 0 345.6 
L 460.8 345.6 
L 460.8 0 
L 0 0 
z
" style="fill:#ffffff;"/>
  </g>
  <g id="axes_1">
   <g id="patch_2">
    <path d="M 46.08 156.672 
L 437.76 156.672 
L 437.76 27.648 
L 46.08 27.648 
z
" style="fill:#ffffff;"/>
   </g>
   <g id="matplotlib.axis_1">
    <g id="xtick_1">
     <g id="line2d_1">
      <path clip-path="url(#p04e0b8c5a4)" d="M 63.527207 156.672 
L 63.527207 27.648 
" style="fill:none;stroke:#b0b0b0;stroke-linecap:square;stroke-width:0.8;"/>
     </g>
     <g id="line2d_2">
      <defs>
       <path d="M 0 0 
L 0 3.5 
" id="mf5a54a00a9" style="stroke:#000000;stroke-width:0.8;"/>
      </defs>
      <g>
       <use style="stroke:#000000;stroke-width:0.8;" x="63.527207" xlink:href="#mf5a54a00a9" y="156.672"/>
      </g>
     </g>
     <g id="text_1">
      <!-- 0 -->
      <defs>
       <path d="M 31.78125 66.40625 
Q 24.171875 66.40625 20.328125 58.90625 
Q 16.5 51.421875 16.5 36.375 
Q 16.5 21.390625 20.328125 13.890625 
Q 24.171875 6.390625 31.78125 6.390625 
Q 39.453125 6.390625 43.28125 13.890625 
Q 47.125 21.390625 47.125 36.375 
Q 47.125 51.421875 43.28125 58.90625 
Q 39.453125 66.40625 31.78125 66.40625 
z
M 31.78125 74.21875 
Q 44.046875 74.21875 50.515625 64.515625 
Q 56.984375 54.828125 56.984375 36.375 
Q 56.984375 17.96875 50.515625 8.265625 
Q 44.046875 -1.421875 31.78125 -1.421875 
Q 19.53125 -1.421875 13.0625 8.265625 
Q 6.59375 17.96875 6.59375 36.375 
Q 6.59375 54.828125 13.0625 64.515625 
Q 19.53125 74.21875 31.78125 74.21875 
z
" id="DejaVuSans-48"/>
      </defs>
      <g transform="translate(60.345957 171.270437)scale(0.1 -0.1)">
       <use xlink:href="#DejaVuSans-48"/>
      </g>
     </g>
    </g>
    <g id="xtick_2">
     <g id="line2d_3">
      <path clip-path="url(#p04e0b8c5a4)" d="M 134.813038 156.672 
L 134.813038 27.648 
" style="fill:none;stroke:#b0b0b0;stroke-linecap:square;stroke-width:0.8;"/>
     </g>
     <g id="line2d_4">
      <g>
       <use style="stroke:#000000;stroke-width:0.8;" x="134.813038" xlink:href="#mf5a54a00a9" y="156.672"/>
      </g>
     </g>
     <g id="text_2">
      <!-- 200 -->
      <defs>
       <path d="M 19.1875 8.296875 
L 53.609375 8.296875 
L 53.609375 0 
L 7.328125 0 
L 7.328125 8.296875 
Q 12.9375 14.109375 22.625 23.890625 
Q 32.328125 33.6875 34.8125 36.53125 
Q 39.546875 41.84375 41.421875 45.53125 
Q 43.3125 49.21875 43.3125 52.78125 
Q 43.3125 58.59375 39.234375 62.25 
Q 35.15625 65.921875 28.609375 65.921875 
Q 23.96875 65.921875 18.8125 64.3125 
Q 13.671875 62.703125 7.8125 59.421875 
L 7.8125 69.390625 
Q 13.765625 71.78125 18.9375 73 
Q 24.125 74.21875 28.421875 74.21875 
Q 39.75 74.21875 46.484375 68.546875 
Q 53.21875 62.890625 53.21875 53.421875 
Q 53.21875 48.921875 51.53125 44.890625 
Q 49.859375 40.875 45.40625 35.40625 
Q 44.1875 33.984375 37.640625 27.21875 
Q 31.109375 20.453125 19.1875 8.296875 
z
" id="DejaVuSans-50"/>
      </defs>
      <g transform="translate(125.269288 171.270437)scale(0.1 -0.1)">
       <use xlink:href="#DejaVuSans-50"/>
       <use x="63.623047" xlink:href="#DejaVuSans-48"/>
       <use x="127.246094" xlink:href="#DejaVuSans-48"/>
      </g>
     </g>
    </g>
    <g id="xtick_3">
     <g id="line2d_5">
      <path clip-path="url(#p04e0b8c5a4)" d="M 206.09887 156.672 
L 206.09887 27.648 
" style="fill:none;stroke:#b0b0b0;stroke-linecap:square;stroke-width:0.8;"/>
     </g>
     <g id="line2d_6">
      <g>
       <use style="stroke:#000000;stroke-width:0.8;" x="206.09887" xlink:href="#mf5a54a00a9" y="156.672"/>
      </g>
     </g>
     <g id="text_3">
      <!-- 400 -->
      <defs>
       <path d="M 37.796875 64.3125 
L 12.890625 25.390625 
L 37.796875 25.390625 
z
M 35.203125 72.90625 
L 47.609375 72.90625 
L 47.609375 25.390625 
L 58.015625 25.390625 
L 58.015625 17.1875 
L 47.609375 17.1875 
L 47.609375 0 
L 37.796875 0 
L 37.796875 17.1875 
L 4.890625 17.1875 
L 4.890625 26.703125 
z
" id="DejaVuSans-52"/>
      </defs>
      <g transform="translate(196.55512 171.270437)scale(0.1 -0.1)">
       <use xlink:href="#DejaVuSans-52"/>
       <use x="63.623047" xlink:href="#DejaVuSans-48"/>
       <use x="127.246094" xlink:href="#DejaVuSans-48"/>
      </g>
     </g>
    </g>
    <g id="xtick_4">
     <g id="line2d_7">
      <path clip-path="url(#p04e0b8c5a4)" d="M 277.384701 156.672 
L 277.384701 27.648 
" style="fill:none;stroke:#b0b0b0;stroke-linecap:square;stroke-width:0.8;"/>
     </g>
     <g id="line2d_8">
      <g>
       <use style="stroke:#000000;stroke-width:0.8;" x="277.384701" xlink:href="#mf5a54a00a9" y="156.672"/>
      </g>
     </g>
     <g id="text_4">
      <!-- 600 -->
      <defs>
       <path d="M 33.015625 40.375 
Q 26.375 40.375 22.484375 35.828125 
Q 18.609375 31.296875 18.609375 23.390625 
Q 18.609375 15.53125 22.484375 10.953125 
Q 26.375 6.390625 33.015625 6.390625 
Q 39.65625 6.390625 43.53125 10.953125 
Q 47.40625 15.53125 47.40625 23.390625 
Q 47.40625 31.296875 43.53125 35.828125 
Q 39.65625 40.375 33.015625 40.375 
z
M 52.59375 71.296875 
L 52.59375 62.3125 
Q 48.875 64.0625 45.09375 64.984375 
Q 41.3125 65.921875 37.59375 65.921875 
Q 27.828125 65.921875 22.671875 59.328125 
Q 17.53125 52.734375 16.796875 39.40625 
Q 19.671875 43.65625 24.015625 45.921875 
Q 28.375 48.1875 33.59375 48.1875 
Q 44.578125 48.1875 50.953125 41.515625 
Q 57.328125 34.859375 57.328125 23.390625 
Q 57.328125 12.15625 50.6875 5.359375 
Q 44.046875 -1.421875 33.015625 -1.421875 
Q 20.359375 -1.421875 13.671875 8.265625 
Q 6.984375 17.96875 6.984375 36.375 
Q 6.984375 53.65625 15.1875 63.9375 
Q 23.390625 74.21875 37.203125 74.21875 
Q 40.921875 74.21875 44.703125 73.484375 
Q 48.484375 72.75 52.59375 71.296875 
z
" id="DejaVuSans-54"/>
      </defs>
      <g transform="translate(267.840951 171.270437)scale(0.1 -0.1)">
       <use xlink:href="#DejaVuSans-54"/>
       <use x="63.623047" xlink:href="#DejaVuSans-48"/>
       <use x="127.246094" xlink:href="#DejaVuSans-48"/>
      </g>
     </g>
    </g>
    <g id="xtick_5">
     <g id="line2d_9">
      <path clip-path="url(#p04e0b8c5a4)" d="M 348.670532 156.672 
L 348.670532 27.648 
" style="fill:none;stroke:#b0b0b0;stroke-linecap:square;stroke-width:0.8;"/>
     </g>
     <g id="line2d_10">
      <g>
       <use style="stroke:#000000;stroke-width:0.8;" x="348.670532" xlink:href="#mf5a54a00a9" y="156.672"/>
      </g>
     </g>
     <g id="text_5">
      <!-- 800 -->
      <defs>
       <path d="M 31.78125 34.625 
Q 24.75 34.625 20.71875 30.859375 
Q 16.703125 27.09375 16.703125 20.515625 
Q 16.703125 13.921875 20.71875 10.15625 
Q 24.75 6.390625 31.78125 6.390625 
Q 38.8125 6.390625 42.859375 10.171875 
Q 46.921875 13.96875 46.921875 20.515625 
Q 46.921875 27.09375 42.890625 30.859375 
Q 38.875 34.625 31.78125 34.625 
z
M 21.921875 38.8125 
Q 15.578125 40.375 12.03125 44.71875 
Q 8.5 49.078125 8.5 55.328125 
Q 8.5 64.0625 14.71875 69.140625 
Q 20.953125 74.21875 31.78125 74.21875 
Q 42.671875 74.21875 48.875 69.140625 
Q 55.078125 64.0625 55.078125 55.328125 
Q 55.078125 49.078125 51.53125 44.71875 
Q 48 40.375 41.703125 38.8125 
Q 48.828125 37.15625 52.796875 32.3125 
Q 56.78125 27.484375 56.78125 20.515625 
Q 56.78125 9.90625 50.3125 4.234375 
Q 43.84375 -1.421875 31.78125 -1.421875 
Q 19.734375 -1.421875 13.25 4.234375 
Q 6.78125 9.90625 6.78125 20.515625 
Q 6.78125 27.484375 10.78125 32.3125 
Q 14.796875 37.15625 21.921875 38.8125 
z
M 18.3125 54.390625 
Q 18.3125 48.734375 21.84375 45.5625 
Q 25.390625 42.390625 31.78125 42.390625 
Q 38.140625 42.390625 41.71875 45.5625 
Q 45.3125 48.734375 45.3125 54.390625 
Q 45.3125 60.0625 41.71875 63.234375 
Q 38.140625 66.40625 31.78125 66.40625 
Q 25.390625 66.40625 21.84375 63.234375 
Q 18.3125 60.0625 18.3125 54.390625 
z
" id="DejaVuSans-56"/>
      </defs>
      <g transform="translate(339.126782 171.270437)scale(0.1 -0.1)">
       <use xlink:href="#DejaVuSans-56"/>
       <use x="63.623047" xlink:href="#DejaVuSans-48"/>
       <use x="127.246094" xlink:href="#DejaVuSans-48"/>
      </g>
     </g>
    </g>
    <g id="xtick_6">
     <g id="line2d_11">
      <path clip-path="url(#p04e0b8c5a4)" d="M 419.956364 156.672 
L 419.956364 27.648 
" style="fill:none;stroke:#b0b0b0;stroke-linecap:square;stroke-width:0.8;"/>
     </g>
     <g id="line2d_12">
      <g>
       <use style="stroke:#000000;stroke-width:0.8;" x="419.956364" xlink:href="#mf5a54a00a9" y="156.672"/>
      </g>
     </g>
     <g id="text_6">
      <!-- 1000 -->
      <defs>
       <path d="M 12.40625 8.296875 
L 28.515625 8.296875 
L 28.515625 63.921875 
L 10.984375 60.40625 
L 10.984375 69.390625 
L 28.421875 72.90625 
L 38.28125 72.90625 
L 38.28125 8.296875 
L 54.390625 8.296875 
L 54.390625 0 
L 12.40625 0 
z
" id="DejaVuSans-49"/>
      </defs>
      <g transform="translate(407.231364 171.270437)scale(0.1 -0.1)">
       <use xlink:href="#DejaVuSans-49"/>
       <use x="63.623047" xlink:href="#DejaVuSans-48"/>
       <use x="127.246094" xlink:href="#DejaVuSans-48"/>
       <use x="190.869141" xlink:href="#DejaVuSans-48"/>
      </g>
     </g>
    </g>
    <g id="text_7">
     <!-- Corridas -->
     <defs>
      <path d="M 64.40625 67.28125 
L 64.40625 56.890625 
Q 59.421875 61.53125 53.78125 63.8125 
Q 48.140625 66.109375 41.796875 66.109375 
Q 29.296875 66.109375 22.65625 58.46875 
Q 16.015625 50.828125 16.015625 36.375 
Q 16.015625 21.96875 22.65625 14.328125 
Q 29.296875 6.6875 41.796875 6.6875 
Q 48.140625 6.6875 53.78125 8.984375 
Q 59.421875 11.28125 64.40625 15.921875 
L 64.40625 5.609375 
Q 59.234375 2.09375 53.4375 0.328125 
Q 47.65625 -1.421875 41.21875 -1.421875 
Q 24.65625 -1.421875 15.125 8.703125 
Q 5.609375 18.84375 5.609375 36.375 
Q 5.609375 53.953125 15.125 64.078125 
Q 24.65625 74.21875 41.21875 74.21875 
Q 47.75 74.21875 53.53125 72.484375 
Q 59.328125 70.75 64.40625 67.28125 
z
" id="DejaVuSans-67"/>
      <path d="M 30.609375 48.390625 
Q 23.390625 48.390625 19.1875 42.75 
Q 14.984375 37.109375 14.984375 27.296875 
Q 14.984375 17.484375 19.15625 11.84375 
Q 23.34375 6.203125 30.609375 6.203125 
Q 37.796875 6.203125 41.984375 11.859375 
Q 46.1875 17.53125 46.1875 27.296875 
Q 46.1875 37.015625 41.984375 42.703125 
Q 37.796875 48.390625 30.609375 48.390625 
z
M 30.609375 56 
Q 42.328125 56 49.015625 48.375 
Q 55.71875 40.765625 55.71875 27.296875 
Q 55.71875 13.875 49.015625 6.21875 
Q 42.328125 -1.421875 30.609375 -1.421875 
Q 18.84375 -1.421875 12.171875 6.21875 
Q 5.515625 13.875 5.515625 27.296875 
Q 5.515625 40.765625 12.171875 48.375 
Q 18.84375 56 30.609375 56 
z
" id="DejaVuSans-111"/>
      <path d="M 41.109375 46.296875 
Q 39.59375 47.171875 37.8125 47.578125 
Q 36.03125 48 33.890625 48 
Q 26.265625 48 22.1875 43.046875 
Q 18.109375 38.09375 18.109375 28.8125 
L 18.109375 0 
L 9.078125 0 
L 9.078125 54.6875 
L 18.109375 54.6875 
L 18.109375 46.1875 
Q 20.953125 51.171875 25.484375 53.578125 
Q 30.03125 56 36.53125 56 
Q 37.453125 56 38.578125 55.875 
Q 39.703125 55.765625 41.0625 55.515625 
z
" id="DejaVuSans-114"/>
      <path d="M 9.421875 54.6875 
L 18.40625 54.6875 
L 18.40625 0 
L 9.421875 0 
z
M 9.421875 75.984375 
L 18.40625 75.984375 
L 18.40625 64.59375 
L 9.421875 64.59375 
z
" id="DejaVuSans-105"/>
      <path d="M 45.40625 46.390625 
L 45.40625 75.984375 
L 54.390625 75.984375 
L 54.390625 0 
L 45.40625 0 
L 45.40625 8.203125 
Q 42.578125 3.328125 38.25 0.953125 
Q 33.9375 -1.421875 27.875 -1.421875 
Q 17.96875 -1.421875 11.734375 6.484375 
Q 5.515625 14.40625 5.515625 27.296875 
Q 5.515625 40.1875 11.734375 48.09375 
Q 17.96875 56 27.875 56 
Q 33.9375 56 38.25 53.625 
Q 42.578125 51.265625 45.40625 46.390625 
z
M 14.796875 27.296875 
Q 14.796875 17.390625 18.875 11.75 
Q 22.953125 6.109375 30.078125 6.109375 
Q 37.203125 6.109375 41.296875 11.75 
Q 45.40625 17.390625 45.40625 27.296875 
Q 45.40625 37.203125 41.296875 42.84375 
Q 37.203125 48.484375 30.078125 48.484375 
Q 22.953125 48.484375 18.875 42.84375 
Q 14.796875 37.203125 14.796875 27.296875 
z
" id="DejaVuSans-100"/>
      <path d="M 34.28125 27.484375 
Q 23.390625 27.484375 19.1875 25 
Q 14.984375 22.515625 14.984375 16.5 
Q 14.984375 11.71875 18.140625 8.90625 
Q 21.296875 6.109375 26.703125 6.109375 
Q 34.1875 6.109375 38.703125 11.40625 
Q 43.21875 16.703125 43.21875 25.484375 
L 43.21875 27.484375 
z
M 52.203125 31.203125 
L 52.203125 0 
L 43.21875 0 
L 43.21875 8.296875 
Q 40.140625 3.328125 35.546875 0.953125 
Q 30.953125 -1.421875 24.3125 -1.421875 
Q 15.921875 -1.421875 10.953125 3.296875 
Q 6 8.015625 6 15.921875 
Q 6 25.140625 12.171875 29.828125 
Q 18.359375 34.515625 30.609375 34.515625 
L 43.21875 34.515625 
L 43.21875 35.40625 
Q 43.21875 41.609375 39.140625 45 
Q 35.0625 48.390625 27.6875 48.390625 
Q 23 48.390625 18.546875 47.265625 
Q 14.109375 46.140625 10.015625 43.890625 
L 10.015625 52.203125 
Q 14.9375 54.109375 19.578125 55.046875 
Q 24.21875 56 28.609375 56 
Q 40.484375 56 46.34375 49.84375 
Q 52.203125 43.703125 52.203125 31.203125 
z
" id="DejaVuSans-97"/>
      <path d="M 44.28125 53.078125 
L 44.28125 44.578125 
Q 40.484375 46.53125 36.375 47.5 
Q 32.28125 48.484375 27.875 48.484375 
Q 21.1875 48.484375 17.84375 46.4375 
Q 14.5 44.390625 14.5 40.28125 
Q 14.5 37.15625 16.890625 35.375 
Q 19.28125 33.59375 26.515625 31.984375 
L 29.59375 31.296875 
Q 39.15625 29.25 43.1875 25.515625 
Q 47.21875 21.78125 47.21875 15.09375 
Q 47.21875 7.46875 41.1875 3.015625 
Q 35.15625 -1.421875 24.609375 -1.421875 
Q 20.21875 -1.421875 15.453125 -0.5625 
Q 10.6875 0.296875 5.421875 2 
L 5.421875 11.28125 
Q 10.40625 8.6875 15.234375 7.390625 
Q 20.0625 6.109375 24.8125 6.109375 
Q 31.15625 6.109375 34.5625 8.28125 
Q 37.984375 10.453125 37.984375 14.40625 
Q 37.984375 18.0625 35.515625 20.015625 
Q 33.0625 21.96875 24.703125 23.78125 
L 21.578125 24.515625 
Q 13.234375 26.265625 9.515625 29.90625 
Q 5.8125 33.546875 5.8125 39.890625 
Q 5.8125 47.609375 11.28125 51.796875 
Q 16.75 56 26.8125 56 
Q 31.78125 56 36.171875 55.265625 
Q 40.578125 54.546875 44.28125 53.078125 
z
" id="DejaVuSans-115"/>
     </defs>
     <g transform="translate(221.027031 184.948562)scale(0.1 -0.1)">
      <use xlink:href="#DejaVuSans-67"/>
      <use x="69.824219" xlink:href="#DejaVuSans-111"/>
      <use x="131.005859" xlink:href="#DejaVuSans-114"/>
      <use x="172.103516" xlink:href="#DejaVuSans-114"/>
      <use x="213.216797" xlink:href="#DejaVuSans-105"/>
      <use x="241" xlink:href="#DejaVuSans-100"/>
      <use x="304.476562" xlink:href="#DejaVuSans-97"/>
      <use x="365.755859" xlink:href="#DejaVuSans-115"/>
     </g>
    </g>
   </g>
   <g id="matplotlib.axis_2">
    <g id="ytick_1">
     <g id="line2d_13">
      <path clip-path="url(#p04e0b8c5a4)" d="M 46.08 124.64833 
L 437.76 124.64833 
" style="fill:none;stroke:#b0b0b0;stroke-linecap:square;stroke-width:0.8;"/>
     </g>
     <g id="line2d_14">
      <defs>
       <path d="M 0 0 
L -3.5 0 
" id="md5d7f9ce48" style="stroke:#000000;stroke-width:0.8;"/>
      </defs>
      <g>
       <use style="stroke:#000000;stroke-width:0.8;" x="46.08" xlink:href="#md5d7f9ce48" y="124.64833"/>
      </g>
     </g>
     <g id="text_8">
      <!-- 0.245 -->
      <defs>
       <path d="M 10.6875 12.40625 
L 21 12.40625 
L 21 0 
L 10.6875 0 
z
" id="DejaVuSans-46"/>
       <path d="M 10.796875 72.90625 
L 49.515625 72.90625 
L 49.515625 64.59375 
L 19.828125 64.59375 
L 19.828125 46.734375 
Q 21.96875 47.46875 24.109375 47.828125 
Q 26.265625 48.1875 28.421875 48.1875 
Q 40.625 48.1875 47.75 41.5 
Q 54.890625 34.8125 54.890625 23.390625 
Q 54.890625 11.625 47.5625 5.09375 
Q 40.234375 -1.421875 26.90625 -1.421875 
Q 22.3125 -1.421875 17.546875 -0.640625 
Q 12.796875 0.140625 7.71875 1.703125 
L 7.71875 11.625 
Q 12.109375 9.234375 16.796875 8.0625 
Q 21.484375 6.890625 26.703125 6.890625 
Q 35.15625 6.890625 40.078125 11.328125 
Q 45.015625 15.765625 45.015625 23.390625 
Q 45.015625 31 40.078125 35.4375 
Q 35.15625 39.890625 26.703125 39.890625 
Q 22.75 39.890625 18.8125 39.015625 
Q 14.890625 38.140625 10.796875 36.28125 
z
" id="DejaVuSans-53"/>
      </defs>
      <g transform="translate(10.451875 128.447549)scale(0.1 -0.1)">
       <use xlink:href="#DejaVuSans-48"/>
       <use x="63.623047" xlink:href="#DejaVuSans-46"/>
       <use x="95.410156" xlink:href="#DejaVuSans-50"/>
       <use x="159.033203" xlink:href="#DejaVuSans-52"/>
       <use x="222.65625" xlink:href="#DejaVuSans-53"/>
      </g>
     </g>
    </g>
    <g id="ytick_2">
     <g id="line2d_15">
      <path clip-path="url(#p04e0b8c5a4)" d="M 46.08 91.010472 
L 437.76 91.010472 
" style="fill:none;stroke:#b0b0b0;stroke-linecap:square;stroke-width:0.8;"/>
     </g>
     <g id="line2d_16">
      <g>
       <use style="stroke:#000000;stroke-width:0.8;" x="46.08" xlink:href="#md5d7f9ce48" y="91.010472"/>
      </g>
     </g>
     <g id="text_9">
      <!-- 0.250 -->
      <g transform="translate(10.451875 94.809691)scale(0.1 -0.1)">
       <use xlink:href="#DejaVuSans-48"/>
       <use x="63.623047" xlink:href="#DejaVuSans-46"/>
       <use x="95.410156" xlink:href="#DejaVuSans-50"/>
       <use x="159.033203" xlink:href="#DejaVuSans-53"/>
       <use x="222.65625" xlink:href="#DejaVuSans-48"/>
      </g>
     </g>
    </g>
    <g id="ytick_3">
     <g id="line2d_17">
      <path clip-path="url(#p04e0b8c5a4)" d="M 46.08 57.372615 
L 437.76 57.372615 
" style="fill:none;stroke:#b0b0b0;stroke-linecap:square;stroke-width:0.8;"/>
     </g>
     <g id="line2d_18">
      <g>
       <use style="stroke:#000000;stroke-width:0.8;" x="46.08" xlink:href="#md5d7f9ce48" y="57.372615"/>
      </g>
     </g>
     <g id="text_10">
      <!-- 0.255 -->
      <g transform="translate(10.451875 61.171834)scale(0.1 -0.1)">
       <use xlink:href="#DejaVuSans-48"/>
       <use x="63.623047" xlink:href="#DejaVuSans-46"/>
       <use x="95.410156" xlink:href="#DejaVuSans-50"/>
       <use x="159.033203" xlink:href="#DejaVuSans-53"/>
       <use x="222.65625" xlink:href="#DejaVuSans-53"/>
      </g>
     </g>
    </g>
    <g id="text_11">
     <!-- Utilización -->
     <defs>
      <path d="M 8.6875 72.90625 
L 18.609375 72.90625 
L 18.609375 28.609375 
Q 18.609375 16.890625 22.84375 11.734375 
Q 27.09375 6.59375 36.625 6.59375 
Q 46.09375 6.59375 50.34375 11.734375 
Q 54.59375 16.890625 54.59375 28.609375 
L 54.59375 72.90625 
L 64.5 72.90625 
L 64.5 27.390625 
Q 64.5 13.140625 57.4375 5.859375 
Q 50.390625 -1.421875 36.625 -1.421875 
Q 22.796875 -1.421875 15.734375 5.859375 
Q 8.6875 13.140625 8.6875 27.390625 
z
" id="DejaVuSans-85"/>
      <path d="M 18.3125 70.21875 
L 18.3125 54.6875 
L 36.8125 54.6875 
L 36.8125 47.703125 
L 18.3125 47.703125 
L 18.3125 18.015625 
Q 18.3125 11.328125 20.140625 9.421875 
Q 21.96875 7.515625 27.59375 7.515625 
L 36.8125 7.515625 
L 36.8125 0 
L 27.59375 0 
Q 17.1875 0 13.234375 3.875 
Q 9.28125 7.765625 9.28125 18.015625 
L 9.28125 47.703125 
L 2.6875 47.703125 
L 2.6875 54.6875 
L 9.28125 54.6875 
L 9.28125 70.21875 
z
" id="DejaVuSans-116"/>
      <path d="M 9.421875 75.984375 
L 18.40625 75.984375 
L 18.40625 0 
L 9.421875 0 
z
" id="DejaVuSans-108"/>
      <path d="M 5.515625 54.6875 
L 48.1875 54.6875 
L 48.1875 46.484375 
L 14.40625 7.171875 
L 48.1875 7.171875 
L 48.1875 0 
L 4.296875 0 
L 4.296875 8.203125 
L 38.09375 47.515625 
L 5.515625 47.515625 
z
" id="DejaVuSans-122"/>
      <path d="M 48.78125 52.59375 
L 48.78125 44.1875 
Q 44.96875 46.296875 41.140625 47.34375 
Q 37.3125 48.390625 33.40625 48.390625 
Q 24.65625 48.390625 19.8125 42.84375 
Q 14.984375 37.3125 14.984375 27.296875 
Q 14.984375 17.28125 19.8125 11.734375 
Q 24.65625 6.203125 33.40625 6.203125 
Q 37.3125 6.203125 41.140625 7.25 
Q 44.96875 8.296875 48.78125 10.40625 
L 48.78125 2.09375 
Q 45.015625 0.34375 40.984375 -0.53125 
Q 36.96875 -1.421875 32.421875 -1.421875 
Q 20.0625 -1.421875 12.78125 6.34375 
Q 5.515625 14.109375 5.515625 27.296875 
Q 5.515625 40.671875 12.859375 48.328125 
Q 20.21875 56 33.015625 56 
Q 37.15625 56 41.109375 55.140625 
Q 45.0625 54.296875 48.78125 52.59375 
z
" id="DejaVuSans-99"/>
      <path d="M 30.609375 48.390625 
Q 23.390625 48.390625 19.1875 42.75 
Q 14.984375 37.109375 14.984375 27.296875 
Q 14.984375 17.484375 19.15625 11.84375 
Q 23.34375 6.203125 30.609375 6.203125 
Q 37.796875 6.203125 41.984375 11.859375 
Q 46.1875 17.53125 46.1875 27.296875 
Q 46.1875 37.015625 41.984375 42.703125 
Q 37.796875 48.390625 30.609375 48.390625 
z
M 30.609375 56 
Q 42.328125 56 49.015625 48.375 
Q 55.71875 40.765625 55.71875 27.296875 
Q 55.71875 13.875 49.015625 6.21875 
Q 42.328125 -1.421875 30.609375 -1.421875 
Q 18.84375 -1.421875 12.171875 6.21875 
Q 5.515625 13.875 5.515625 27.296875 
Q 5.515625 40.765625 12.171875 48.375 
Q 18.84375 56 30.609375 56 
z
M 37.40625 79.984375 
L 47.125 79.984375 
L 31.21875 61.625 
L 23.734375 61.625 
z
" id="DejaVuSans-243"/>
      <path d="M 54.890625 33.015625 
L 54.890625 0 
L 45.90625 0 
L 45.90625 32.71875 
Q 45.90625 40.484375 42.875 44.328125 
Q 39.84375 48.1875 33.796875 48.1875 
Q 26.515625 48.1875 22.3125 43.546875 
Q 18.109375 38.921875 18.109375 30.90625 
L 18.109375 0 
L 9.078125 0 
L 9.078125 54.6875 
L 18.109375 54.6875 
L 18.109375 46.1875 
Q 21.34375 51.125 25.703125 53.5625 
Q 30.078125 56 35.796875 56 
Q 45.21875 56 50.046875 50.171875 
Q 54.890625 44.34375 54.890625 33.015625 
z
" id="DejaVuSans-110"/>
     </defs>
     <g transform="translate(4.372188 118.001406)rotate(-90)scale(0.1 -0.1)">
      <use xlink:href="#DejaVuSans-85"/>
      <use x="73.193359" xlink:href="#DejaVuSans-116"/>
      <use x="112.402344" xlink:href="#DejaVuSans-105"/>
      <use x="140.185547" xlink:href="#DejaVuSans-108"/>
      <use x="167.96875" xlink:href="#DejaVuSans-105"/>
      <use x="195.751953" xlink:href="#DejaVuSans-122"/>
      <use x="248.242188" xlink:href="#DejaVuSans-97"/>
      <use x="309.521484" xlink:href="#DejaVuSans-99"/>
      <use x="364.501953" xlink:href="#DejaVuSans-105"/>
      <use x="392.285156" xlink:href="#DejaVuSans-243"/>
      <use x="453.466797" xlink:href="#DejaVuSans-110"/>
     </g>
    </g>
   </g>
   <g id="line2d_19">
    <path clip-path="url(#p04e0b8c5a4)" d="M 63.883636 33.512727 
L 64.240066 120.164748 
L 64.596495 150.807273 
L 64.952924 131.387056 
L 65.309353 120.501745 
L 65.665782 131.043184 
L 66.022211 127.929674 
L 66.37864 126.323785 
L 66.73507 118.035664 
L 67.091499 123.995908 
L 67.447928 124.771133 
L 67.804357 117.359447 
L 68.160786 106.789513 
L 68.517215 116.466912 
L 68.873645 114.810177 
L 69.230074 109.200801 
L 69.586503 106.150876 
L 69.942932 117.73447 
L 70.299361 103.915578 
L 70.65579 101.953394 
L 71.012219 96.155178 
L 71.368649 98.561347 
L 71.725078 102.53632 
L 72.081507 100.399799 
L 72.794365 106.782218 
L 73.507224 103.043703 
L 73.863653 103.944708 
L 74.220082 100.825822 
L 74.576511 100.898686 
L 74.93294 102.606904 
L 75.289369 98.25738 
L 75.645799 102.692175 
L 76.002228 97.993866 
L 76.358657 98.684181 
L 76.715086 98.72315 
L 77.071515 99.074887 
L 77.427944 98.358786 
L 77.784373 98.868663 
L 78.140803 96.236938 
L 78.497232 94.829556 
L 79.21009 96.117396 
L 79.566519 95.862589 
L 79.922948 92.792361 
L 80.279378 93.811686 
L 80.635807 91.07189 
L 80.992236 90.139059 
L 81.348665 89.703527 
L 81.705094 93.681947 
L 82.061523 93.147296 
L 82.417952 93.726008 
L 82.774382 94.740779 
L 83.130811 93.760229 
L 83.48724 91.516315 
L 84.200098 90.975495 
L 84.556527 90.977005 
L 84.912957 90.17075 
L 85.625815 92.229311 
L 85.982244 92.151978 
L 86.695102 90.826493 
L 87.051532 89.670003 
L 87.407961 91.101471 
L 87.76439 91.677977 
L 88.120819 91.003654 
L 88.477248 91.727705 
L 88.833677 93.589875 
L 89.190106 92.933293 
L 89.546536 91.288248 
L 89.902965 90.171632 
L 90.259394 90.137994 
L 90.615823 89.965662 
L 90.972252 89.434583 
L 91.685111 91.151016 
L 92.04154 89.917013 
L 92.397969 89.122196 
L 93.823686 94.132722 
L 94.180115 94.099843 
L 94.536544 93.169739 
L 94.892973 94.006815 
L 95.249402 93.372797 
L 95.605831 92.157791 
L 96.31869 92.685492 
L 96.675119 92.104301 
L 97.031548 92.25898 
L 97.387977 94.823378 
L 97.744406 93.947412 
L 98.100835 92.474828 
L 98.457265 91.691464 
L 98.813694 91.491826 
L 99.170123 92.280185 
L 99.526552 91.990957 
L 99.882981 92.695676 
L 100.23941 90.922909 
L 100.595839 91.102082 
L 100.952269 91.927614 
L 101.308698 92.246249 
L 101.665127 90.550079 
L 102.021556 90.180003 
L 102.377985 91.056023 
L 102.734414 91.274362 
L 103.090844 91.655673 
L 103.447273 91.433005 
L 103.803702 91.547286 
L 104.160131 92.307091 
L 104.51656 91.640639 
L 104.872989 91.370194 
L 105.229419 89.824497 
L 105.585848 90.04912 
L 105.942277 90.42707 
L 106.298706 90.551977 
L 106.655135 90.43169 
L 107.011564 91.050206 
L 107.367993 91.170495 
L 108.080852 91.006122 
L 108.437281 90.658659 
L 108.79371 89.812676 
L 109.506568 90.583679 
L 109.862998 90.550469 
L 110.219427 90.207711 
L 110.932285 90.071398 
L 111.645143 89.846085 
L 112.001572 90.055677 
L 112.358002 90.031279 
L 112.714431 89.78414 
L 113.07086 88.996228 
L 113.427289 88.571725 
L 113.783718 89.29544 
L 114.140147 90.477698 
L 114.496577 90.684669 
L 114.853006 90.485118 
L 115.209435 89.709794 
L 115.565864 90.239224 
L 115.922293 90.469048 
L 116.278722 89.717239 
L 116.635152 89.387059 
L 116.991581 89.558127 
L 117.34801 88.700566 
L 117.704439 88.425154 
L 118.060868 88.489292 
L 118.417297 87.507562 
L 118.773726 87.165963 
L 119.130156 86.243926 
L 119.486585 85.771495 
L 120.199443 86.320764 
L 120.555872 87.300393 
L 121.268731 86.492366 
L 121.62516 85.796336 
L 121.981589 86.313298 
L 122.338018 87.442412 
L 122.694447 88.046636 
L 123.050876 88.049388 
L 123.407305 87.802625 
L 123.763735 87.349536 
L 124.120164 87.132448 
L 124.476593 87.960545 
L 125.189451 88.567788 
L 125.54588 87.823988 
L 125.90231 87.599631 
L 126.258739 87.009986 
L 126.615168 87.136927 
L 126.971597 86.395048 
L 127.328026 86.066033 
L 127.684455 86.186685 
L 128.040885 85.801824 
L 128.397314 86.512468 
L 129.110172 86.150145 
L 129.466601 86.421456 
L 129.82303 86.336039 
L 130.535889 88.096629 
L 130.892318 86.900231 
L 131.248747 87.226186 
L 131.605176 86.728907 
L 131.961605 86.824146 
L 132.674464 86.785372 
L 133.030893 86.118904 
L 133.387322 86.756639 
L 133.743751 86.195648 
L 134.10018 86.093476 
L 134.456609 86.43616 
L 134.813038 86.130387 
L 135.169468 86.359775 
L 136.238755 86.63249 
L 136.951613 86.496611 
L 137.308043 87.114516 
L 137.664472 88.080747 
L 138.020901 88.155426 
L 138.37733 87.887865 
L 138.733759 88.46417 
L 139.803047 88.157723 
L 140.159476 88.216488 
L 140.515905 87.810696 
L 140.872334 87.849375 
L 141.941622 87.522677 
L 142.298051 87.938557 
L 143.367338 88.375593 
L 143.723767 89.230109 
L 144.793055 88.430812 
L 145.149484 88.623543 
L 145.862342 87.311325 
L 146.218771 86.401372 
L 146.575201 87.260134 
L 146.93163 86.910118 
L 147.288059 87.015426 
L 147.644488 86.990784 
L 148.000917 86.779039 
L 148.357346 87.185993 
L 148.713776 86.502663 
L 149.070205 86.478231 
L 149.426634 86.058379 
L 149.783063 85.39187 
L 150.139492 86.197724 
L 150.495921 86.677858 
L 150.852351 86.701188 
L 151.565209 86.907876 
L 152.278067 86.3952 
L 152.990925 86.739367 
L 153.347355 87.232713 
L 153.703784 87.019021 
L 154.060213 87.1733 
L 154.416642 87.147416 
L 155.1295 88.089514 
L 155.48593 88.763485 
L 155.842359 89.142551 
L 156.198788 89.686805 
L 156.555217 89.71406 
L 156.911646 89.954474 
L 157.268075 88.992064 
L 157.624505 88.737744 
L 157.980934 88.955012 
L 158.337363 88.363072 
L 158.693792 88.424429 
L 159.050221 88.975046 
L 159.763079 89.115264 
L 160.119509 89.001412 
L 161.188796 87.790565 
L 161.545225 87.912889 
L 162.258084 87.660929 
L 162.614513 87.805122 
L 162.970942 88.151306 
L 163.6838 87.403442 
L 164.040229 87.293342 
L 164.753088 87.654501 
L 165.109517 87.521085 
L 165.822375 87.893953 
L 166.178804 87.975264 
L 166.535233 88.296787 
L 167.248092 87.689458 
L 167.604521 87.765382 
L 167.96095 88.017603 
L 168.673808 88.223062 
L 169.030238 87.814094 
L 169.743096 88.202087 
L 170.099525 88.030727 
L 170.812383 88.075966 
L 171.168812 87.356917 
L 171.525242 87.085281 
L 172.594529 85.848491 
L 173.307387 86.115271 
L 173.663817 85.441089 
L 174.020246 85.52734 
L 174.376675 85.263018 
L 174.733104 85.161088 
L 175.089533 85.662812 
L 175.445962 85.516259 
L 175.802391 84.940682 
L 176.158821 85.344364 
L 176.51525 85.515564 
L 176.871679 85.852981 
L 177.228108 85.729712 
L 177.584537 85.937064 
L 177.940966 85.810947 
L 178.297396 86.035073 
L 178.653825 86.11057 
L 179.366683 85.536026 
L 179.723112 85.560844 
L 180.079541 85.459758 
L 180.435971 85.740302 
L 180.7924 85.546987 
L 181.148829 85.953223 
L 181.505258 85.940496 
L 181.861687 85.798168 
L 182.930975 84.256922 
L 183.643833 84.255486 
L 184.000262 83.67358 
L 184.356691 83.627488 
L 184.71312 83.83014 
L 186.138837 83.283756 
L 186.851695 83.366289 
L 187.208124 83.573212 
L 188.277412 83.153089 
L 189.346699 83.367327 
L 189.703129 83.204627 
L 190.059558 83.333767 
L 190.415987 83.131642 
L 190.772416 83.439985 
L 191.485274 83.538351 
L 191.841704 83.402461 
L 192.910991 84.086101 
L 193.26742 83.740482 
L 193.623849 83.880314 
L 193.980278 83.508038 
L 194.336708 84.207661 
L 194.693137 84.452935 
L 195.049566 84.1705 
L 195.405995 84.24844 
L 196.118853 84.049456 
L 196.475283 84.377366 
L 196.831712 84.021239 
L 197.188141 84.346798 
L 198.257428 84.538698 
L 198.613857 84.216015 
L 199.326716 84.076362 
L 199.683145 84.319205 
L 200.039574 84.385804 
L 200.396003 84.652912 
L 200.752432 84.727735 
L 201.108862 84.581553 
L 201.465291 84.925804 
L 201.82172 84.903613 
L 202.178149 84.764753 
L 202.891007 84.999457 
L 203.247437 84.949763 
L 203.603866 85.131727 
L 204.316724 85.253385 
L 204.673153 85.43801 
L 205.029582 84.920201 
L 205.386011 85.238144 
L 205.742441 85.252737 
L 206.455299 85.640637 
L 206.811728 85.697338 
L 207.168157 85.627653 
L 207.524586 85.283435 
L 207.881016 85.483149 
L 208.237445 85.543874 
L 209.306732 85.008703 
L 209.663161 84.523799 
L 210.01959 84.699922 
L 210.37602 84.341256 
L 211.801736 83.834219 
L 212.158165 84.128685 
L 212.871024 83.627882 
L 213.227453 83.585728 
L 213.583882 83.407109 
L 213.940311 83.781133 
L 214.29674 83.737961 
L 215.366028 82.950575 
L 215.722457 82.929085 
L 216.435315 83.203357 
L 216.791744 83.175817 
L 217.148174 82.942577 
L 217.504603 83.413036 
L 217.861032 83.118905 
L 219.286749 82.79119 
L 219.643178 82.77354 
L 219.999607 82.353717 
L 220.712465 82.835529 
L 221.068894 82.928045 
L 221.425324 83.234633 
L 221.781753 83.239737 
L 222.138182 82.93186 
L 222.494611 83.118586 
L 223.207469 82.482263 
L 223.563898 82.604443 
L 223.920328 82.287646 
L 224.276757 82.129752 
L 224.633186 81.766635 
L 225.346044 81.449799 
L 225.702473 81.475481 
L 226.771761 81.899751 
L 227.12819 81.779007 
L 227.484619 81.834873 
L 227.841048 81.77561 
L 228.197477 82.074168 
L 228.910336 81.919729 
L 229.266765 81.530854 
L 229.623194 81.348566 
L 229.979623 81.35165 
L 230.336052 81.47158 
L 230.692482 81.403542 
L 232.118198 82.217898 
L 233.543915 81.899641 
L 234.256773 82.161317 
L 235.68249 82.246819 
L 236.038919 81.847033 
L 236.395348 82.037067 
L 236.751777 82.015188 
L 237.108206 82.197665 
L 237.464636 82.235982 
L 238.177494 81.990333 
L 238.890352 82.239592 
L 239.246781 82.157902 
L 239.60321 82.314205 
L 240.316069 81.941632 
L 240.672498 81.867335 
L 241.028927 82.040344 
L 241.385356 82.379527 
L 242.454644 82.545236 
L 243.167502 83.252705 
L 243.88036 82.955282 
L 244.23679 82.962256 
L 244.949648 83.261448 
L 246.375364 83.627511 
L 247.088223 84.044747 
L 247.444652 83.866385 
L 248.15751 84.033496 
L 248.513939 84.00237 
L 248.870369 84.434886 
L 249.226798 84.383715 
L 250.296085 84.994027 
L 250.652514 84.69211 
L 251.008943 84.567207 
L 251.365373 84.805082 
L 252.43466 84.419147 
L 252.791089 84.531339 
L 253.503948 84.52859 
L 254.216806 84.547506 
L 254.573235 84.680324 
L 254.929664 85.050869 
L 255.286093 85.207595 
L 256.355381 85.165516 
L 256.71181 85.330109 
L 257.424668 85.264439 
L 257.781097 85.278642 
L 258.137527 85.173599 
L 258.493956 85.427246 
L 259.563243 85.332102 
L 259.919672 85.499514 
L 260.276102 85.406804 
L 261.345389 86.06163 
L 261.701818 85.879873 
L 262.058247 85.974441 
L 262.414676 85.809688 
L 262.771106 85.920926 
L 263.127535 86.177419 
L 263.483964 86.198768 
L 264.909681 85.59809 
L 266.691826 85.781043 
L 267.048256 85.739073 
L 267.404685 86.007321 
L 267.761114 85.869411 
L 268.117543 85.94363 
L 268.473972 86.149718 
L 268.830401 86.10884 
L 269.18683 86.18127 
L 269.54326 85.782231 
L 269.899689 85.823641 
L 270.256118 85.702332 
L 270.612547 85.851548 
L 270.968976 85.669221 
L 271.325405 85.693497 
L 271.681835 85.452167 
L 272.751122 85.845838 
L 273.46398 85.619177 
L 273.82041 85.839445 
L 274.533268 85.532389 
L 275.958984 85.765138 
L 276.315414 85.7048 
L 276.671843 85.944216 
L 277.384701 85.825653 
L 277.74113 86.000837 
L 278.097559 85.710929 
L 278.453989 85.797557 
L 279.166847 85.550498 
L 280.236134 85.919372 
L 282.374709 85.251302 
L 283.087568 85.288795 
L 283.443997 85.162771 
L 283.800426 85.264645 
L 284.156855 85.202266 
L 284.513284 84.878062 
L 285.582572 85.118851 
L 287.008288 85.39286 
L 287.364717 85.329053 
L 288.077576 85.367837 
L 288.434005 85.304209 
L 289.146863 85.405783 
L 289.859722 84.728045 
L 290.216151 84.637153 
L 290.57258 84.704856 
L 291.285438 85.068076 
L 291.641867 84.868147 
L 292.354726 84.79295 
L 292.711155 84.544825 
L 293.067584 84.756129 
L 294.136871 84.921471 
L 294.493301 84.724362 
L 295.206159 84.981724 
L 295.562588 85.276749 
L 295.919017 85.41832 
L 296.275446 85.36062 
L 296.631876 85.534397 
L 296.988305 85.405685 
L 297.344734 85.620467 
L 298.414021 85.431173 
L 298.77045 85.551293 
L 299.483309 85.566816 
L 299.839738 85.636831 
L 300.196167 85.592767 
L 301.621884 85.983863 
L 302.334742 85.736204 
L 303.404029 86.082168 
L 303.760459 86.344087 
L 304.116888 86.187578 
L 304.473317 86.299259 
L 304.829746 86.20002 
L 305.186175 86.442878 
L 305.899034 86.40961 
L 306.255463 86.372062 
L 306.611892 86.581497 
L 306.968321 86.396418 
L 307.32475 86.46542 
L 307.681179 86.369019 
L 308.750467 86.539602 
L 309.106896 86.788662 
L 309.463325 86.732267 
L 310.889042 87.014966 
L 311.245471 86.791764 
L 311.6019 86.797773 
L 311.958329 86.685076 
L 313.384046 87.106485 
L 313.740475 87.294003 
L 314.096904 87.121028 
L 314.453333 87.074875 
L 314.809762 87.311359 
L 315.522621 87.583421 
L 315.87905 87.741137 
L 317.304767 87.69878 
L 317.661196 87.612742 
L 318.017625 87.658726 
L 318.374054 87.408451 
L 318.730483 87.563853 
L 319.086912 87.217099 
L 319.443342 87.462004 
L 320.512629 87.458513 
L 320.869058 87.560033 
L 321.225487 87.483752 
L 321.581916 87.288276 
L 323.364062 87.041689 
L 323.720491 87.217305 
L 324.076921 87.218007 
L 324.43335 87.002315 
L 325.859066 86.901419 
L 326.571925 86.629809 
L 326.928354 86.671175 
L 327.641212 86.615272 
L 327.997641 86.652036 
L 328.7105 86.391219 
L 330.849075 86.158727 
L 331.205504 86.241486 
L 331.561933 85.885891 
L 332.987649 86.349336 
L 333.344079 86.261106 
L 335.482654 86.7414 
L 335.839083 86.50597 
L 336.195512 86.472667 
L 336.551941 86.251297 
L 340.472662 86.822628 
L 340.829091 86.982522 
L 341.541949 86.9514 
L 341.898378 86.823903 
L 342.611237 87.076804 
L 342.967666 86.98516 
L 343.324095 87.065111 
L 344.036953 86.843951 
L 344.749812 87.049612 
L 345.106241 86.980321 
L 345.46267 86.767971 
L 345.819099 86.788997 
L 346.175528 86.568108 
L 346.531957 86.571564 
L 346.888387 86.742524 
L 347.244816 86.779822 
L 347.601245 86.961466 
L 349.383391 87.153986 
L 349.73982 87.013243 
L 350.809107 86.944703 
L 351.521966 86.723038 
L 351.878395 86.949643 
L 352.591253 86.972651 
L 353.660541 87.086969 
L 354.373399 86.880495 
L 355.086257 87.000877 
L 355.442686 86.876966 
L 356.511974 87.292514 
L 357.581261 87.019042 
L 358.650549 87.018939 
L 359.363407 86.851613 
L 360.076265 86.900155 
L 360.432695 86.800995 
L 360.789124 86.826465 
L 361.858411 87.394582 
L 362.571269 87.062177 
L 363.284128 86.967975 
L 363.996986 86.704425 
L 364.353415 86.655614 
L 365.422703 86.906223 
L 366.848419 86.868389 
L 368.274136 87.002689 
L 368.630565 87.277336 
L 369.699853 87.23176 
L 370.056282 87.316532 
L 370.412711 87.215006 
L 371.125569 87.369722 
L 371.481998 87.252945 
L 372.194857 87.41648 
L 372.551286 87.269674 
L 374.333432 87.2485 
L 375.04629 87.002891 
L 375.402719 87.256947 
L 376.472007 87.401806 
L 377.541294 87.256664 
L 378.967011 87.51071 
L 379.32344 87.476267 
L 380.392727 87.082679 
L 381.105586 87.127507 
L 382.531302 86.656318 
L 382.887731 86.680933 
L 383.244161 86.368212 
L 383.60059 86.454877 
L 384.313448 86.324174 
L 384.669877 86.349487 
L 385.026306 86.541197 
L 385.739165 86.608119 
L 386.095594 86.743664 
L 386.452023 86.706162 
L 386.808452 86.79457 
L 387.164881 86.687836 
L 388.234169 86.721888 
L 388.590598 86.503407 
L 388.947027 86.630981 
L 390.016314 86.427242 
L 394.649894 86.780911 
L 395.006323 86.996884 
L 395.362752 87.0138 
L 396.432039 87.324273 
L 397.144898 87.337882 
L 397.501327 87.361824 
L 398.214185 87.054621 
L 399.283473 86.898376 
L 399.996331 87.06086 
L 400.35276 87.285398 
L 401.065618 87.360287 
L 401.422048 87.192003 
L 401.778477 87.17751 
L 402.134906 87.312159 
L 402.847764 87.277691 
L 403.204193 87.122302 
L 403.560622 87.236113 
L 405.342768 87.186425 
L 406.412056 87.389764 
L 406.768485 87.274016 
L 408.90706 87.472172 
L 409.263489 87.570868 
L 409.976347 87.404788 
L 410.332776 87.55412 
L 410.689206 87.574084 
L 411.045635 87.753076 
L 411.402064 87.7839 
L 411.758493 87.661676 
L 412.827781 87.691749 
L 413.18421 87.584921 
L 413.897068 87.668864 
L 414.253497 87.641873 
L 415.322785 87.897041 
L 419.599934 87.59611 
L 419.956364 87.698752 
L 419.956364 87.698752 
" style="fill:none;stroke:#1f77b4;stroke-linecap:square;stroke-width:1.5;"/>
   </g>
   <g id="patch_3">
    <path d="M 46.08 156.672 
L 46.08 27.648 
" style="fill:none;stroke:#000000;stroke-linecap:square;stroke-linejoin:miter;stroke-width:0.8;"/>
   </g>
   <g id="patch_4">
    <path d="M 437.76 156.672 
L 437.76 27.648 
" style="fill:none;stroke:#000000;stroke-linecap:square;stroke-linejoin:miter;stroke-width:0.8;"/>
   </g>
   <g id="patch_5">
    <path d="M 46.08 156.672 
L 437.76 156.672 
" style="fill:none;stroke:#000000;stroke-linecap:square;stroke-linejoin:miter;stroke-width:0.8;"/>
   </g>
   <g id="patch_6">
    <path d="M 46.08 27.648 
L 437.76 27.648 
" style="fill:none;stroke:#000000;stroke-linecap:square;stroke-linejoin:miter;stroke-width:0.8;"/>
   </g>
   <g id="text_12">
    <!-- Utilización promedio servidor D1 -->
    <defs>
     <path id="DejaVuSans-32"/>
     <path d="M 18.109375 8.203125 
L 18.109375 -20.796875 
L 9.078125 -20.796875 
L 9.078125 54.6875 
L 18.109375 54.6875 
L 18.109375 46.390625 
Q 20.953125 51.265625 25.265625 53.625 
Q 29.59375 56 35.59375 56 
Q 45.5625 56 51.78125 48.09375 
Q 58.015625 40.1875 58.015625 27.296875 
Q 58.015625 14.40625 51.78125 6.484375 
Q 45.5625 -1.421875 35.59375 -1.421875 
Q 29.59375 -1.421875 25.265625 0.953125 
Q 20.953125 3.328125 18.109375 8.203125 
z
M 48.6875 27.296875 
Q 48.6875 37.203125 44.609375 42.84375 
Q 40.53125 48.484375 33.40625 48.484375 
Q 26.265625 48.484375 22.1875 42.84375 
Q 18.109375 37.203125 18.109375 27.296875 
Q 18.109375 17.390625 22.1875 11.75 
Q 26.265625 6.109375 33.40625 6.109375 
Q 40.53125 6.109375 44.609375 11.75 
Q 48.6875 17.390625 48.6875 27.296875 
z
" id="DejaVuSans-112"/>
     <path d="M 52 44.1875 
Q 55.375 50.25 60.0625 53.125 
Q 64.75 56 71.09375 56 
Q 79.640625 56 84.28125 50.015625 
Q 88.921875 44.046875 88.921875 33.015625 
L 88.921875 0 
L 79.890625 0 
L 79.890625 32.71875 
Q 79.890625 40.578125 77.09375 44.375 
Q 74.3125 48.1875 68.609375 48.1875 
Q 61.625 48.1875 57.5625 43.546875 
Q 53.515625 38.921875 53.515625 30.90625 
L 53.515625 0 
L 44.484375 0 
L 44.484375 32.71875 
Q 44.484375 40.625 41.703125 44.40625 
Q 38.921875 48.1875 33.109375 48.1875 
Q 26.21875 48.1875 22.15625 43.53125 
Q 18.109375 38.875 18.109375 30.90625 
L 18.109375 0 
L 9.078125 0 
L 9.078125 54.6875 
L 18.109375 54.6875 
L 18.109375 46.1875 
Q 21.1875 51.21875 25.484375 53.609375 
Q 29.78125 56 35.6875 56 
Q 41.65625 56 45.828125 52.96875 
Q 50 49.953125 52 44.1875 
z
" id="DejaVuSans-109"/>
     <path d="M 56.203125 29.59375 
L 56.203125 25.203125 
L 14.890625 25.203125 
Q 15.484375 15.921875 20.484375 11.0625 
Q 25.484375 6.203125 34.421875 6.203125 
Q 39.59375 6.203125 44.453125 7.46875 
Q 49.3125 8.734375 54.109375 11.28125 
L 54.109375 2.78125 
Q 49.265625 0.734375 44.1875 -0.34375 
Q 39.109375 -1.421875 33.890625 -1.421875 
Q 20.796875 -1.421875 13.15625 6.1875 
Q 5.515625 13.8125 5.515625 26.8125 
Q 5.515625 40.234375 12.765625 48.109375 
Q 20.015625 56 32.328125 56 
Q 43.359375 56 49.78125 48.890625 
Q 56.203125 41.796875 56.203125 29.59375 
z
M 47.21875 32.234375 
Q 47.125 39.59375 43.09375 43.984375 
Q 39.0625 48.390625 32.421875 48.390625 
Q 24.90625 48.390625 20.390625 44.140625 
Q 15.875 39.890625 15.1875 32.171875 
z
" id="DejaVuSans-101"/>
     <path d="M 2.984375 54.6875 
L 12.5 54.6875 
L 29.59375 8.796875 
L 46.6875 54.6875 
L 56.203125 54.6875 
L 35.6875 0 
L 23.484375 0 
z
" id="DejaVuSans-118"/>
     <path d="M 19.671875 64.796875 
L 19.671875 8.109375 
L 31.59375 8.109375 
Q 46.6875 8.109375 53.6875 14.9375 
Q 60.6875 21.78125 60.6875 36.53125 
Q 60.6875 51.171875 53.6875 57.984375 
Q 46.6875 64.796875 31.59375 64.796875 
z
M 9.8125 72.90625 
L 30.078125 72.90625 
Q 51.265625 72.90625 61.171875 64.09375 
Q 71.09375 55.28125 71.09375 36.53125 
Q 71.09375 17.671875 61.125 8.828125 
Q 51.171875 0 30.078125 0 
L 9.8125 0 
z
" id="DejaVuSans-68"/>
    </defs>
    <g transform="translate(143.674688 21.648)scale(0.12 -0.12)">
     <use xlink:href="#DejaVuSans-85"/>
     <use x="73.193359" xlink:href="#DejaVuSans-116"/>
     <use x="112.402344" xlink:href="#DejaVuSans-105"/>
     <use x="140.185547" xlink:href="#DejaVuSans-108"/>
     <use x="167.96875" xlink:href="#DejaVuSans-105"/>
     <use x="195.751953" xlink:href="#DejaVuSans-122"/>
     <use x="248.242188" xlink:href="#DejaVuSans-97"/>
     <use x="309.521484" xlink:href="#DejaVuSans-99"/>
     <use x="364.501953" xlink:href="#DejaVuSans-105"/>
     <use x="392.285156" xlink:href="#DejaVuSans-243"/>
     <use x="453.466797" xlink:href="#DejaVuSans-110"/>
     <use x="516.845703" xlink:href="#DejaVuSans-32"/>
     <use x="548.632812" xlink:href="#DejaVuSans-112"/>
     <use x="612.109375" xlink:href="#DejaVuSans-114"/>
     <use x="653.191406" xlink:href="#DejaVuSans-111"/>
     <use x="714.373047" xlink:href="#DejaVuSans-109"/>
     <use x="811.785156" xlink:href="#DejaVuSans-101"/>
     <use x="873.308594" xlink:href="#DejaVuSans-100"/>
     <use x="936.785156" xlink:href="#DejaVuSans-105"/>
     <use x="964.568359" xlink:href="#DejaVuSans-111"/>
     <use x="1025.75" xlink:href="#DejaVuSans-32"/>
     <use x="1057.537109" xlink:href="#DejaVuSans-115"/>
     <use x="1109.636719" xlink:href="#DejaVuSans-101"/>
     <use x="1171.160156" xlink:href="#DejaVuSans-114"/>
     <use x="1212.273438" xlink:href="#DejaVuSans-118"/>
     <use x="1271.453125" xlink:href="#DejaVuSans-105"/>
     <use x="1299.236328" xlink:href="#DejaVuSans-100"/>
     <use x="1362.712891" xlink:href="#DejaVuSans-111"/>
     <use x="1423.894531" xlink:href="#DejaVuSans-114"/>
     <use x="1465.007812" xlink:href="#DejaVuSans-32"/>
     <use x="1496.794922" xlink:href="#DejaVuSans-68"/>
     <use x="1573.796875" xlink:href="#DejaVuSans-49"/>
    </g>
   </g>
  </g>
  <g id="axes_2">
   <g id="patch_7">
    <path d="M 46.08 317.952 
L 437.76 317.952 
L 437.76 188.928 
L 46.08 188.928 
z
" style="fill:#ffffff;"/>
   </g>
   <g id="matplotlib.axis_3">
    <g id="xtick_7">
     <g id="line2d_20">
      <path clip-path="url(#pf05cfe6ad1)" d="M 63.527207 317.952 
L 63.527207 188.928 
" style="fill:none;stroke:#b0b0b0;stroke-linecap:square;stroke-width:0.8;"/>
     </g>
     <g id="line2d_21">
      <g>
       <use style="stroke:#000000;stroke-width:0.8;" x="63.527207" xlink:href="#mf5a54a00a9" y="317.952"/>
      </g>
     </g>
     <g id="text_13">
      <!-- 0 -->
      <g transform="translate(60.345957 332.550437)scale(0.1 -0.1)">
       <use xlink:href="#DejaVuSans-48"/>
      </g>
     </g>
    </g>
    <g id="xtick_8">
     <g id="line2d_22">
      <path clip-path="url(#pf05cfe6ad1)" d="M 134.813038 317.952 
L 134.813038 188.928 
" style="fill:none;stroke:#b0b0b0;stroke-linecap:square;stroke-width:0.8;"/>
     </g>
     <g id="line2d_23">
      <g>
       <use style="stroke:#000000;stroke-width:0.8;" x="134.813038" xlink:href="#mf5a54a00a9" y="317.952"/>
      </g>
     </g>
     <g id="text_14">
      <!-- 200 -->
      <g transform="translate(125.269288 332.550437)scale(0.1 -0.1)">
       <use xlink:href="#DejaVuSans-50"/>
       <use x="63.623047" xlink:href="#DejaVuSans-48"/>
       <use x="127.246094" xlink:href="#DejaVuSans-48"/>
      </g>
     </g>
    </g>
    <g id="xtick_9">
     <g id="line2d_24">
      <path clip-path="url(#pf05cfe6ad1)" d="M 206.09887 317.952 
L 206.09887 188.928 
" style="fill:none;stroke:#b0b0b0;stroke-linecap:square;stroke-width:0.8;"/>
     </g>
     <g id="line2d_25">
      <g>
       <use style="stroke:#000000;stroke-width:0.8;" x="206.09887" xlink:href="#mf5a54a00a9" y="317.952"/>
      </g>
     </g>
     <g id="text_15">
      <!-- 400 -->
      <g transform="translate(196.55512 332.550437)scale(0.1 -0.1)">
       <use xlink:href="#DejaVuSans-52"/>
       <use x="63.623047" xlink:href="#DejaVuSans-48"/>
       <use x="127.246094" xlink:href="#DejaVuSans-48"/>
      </g>
     </g>
    </g>
    <g id="xtick_10">
     <g id="line2d_26">
      <path clip-path="url(#pf05cfe6ad1)" d="M 277.384701 317.952 
L 277.384701 188.928 
" style="fill:none;stroke:#b0b0b0;stroke-linecap:square;stroke-width:0.8;"/>
     </g>
     <g id="line2d_27">
      <g>
       <use style="stroke:#000000;stroke-width:0.8;" x="277.384701" xlink:href="#mf5a54a00a9" y="317.952"/>
      </g>
     </g>
     <g id="text_16">
      <!-- 600 -->
      <g transform="translate(267.840951 332.550437)scale(0.1 -0.1)">
       <use xlink:href="#DejaVuSans-54"/>
       <use x="63.623047" xlink:href="#DejaVuSans-48"/>
       <use x="127.246094" xlink:href="#DejaVuSans-48"/>
      </g>
     </g>
    </g>
    <g id="xtick_11">
     <g id="line2d_28">
      <path clip-path="url(#pf05cfe6ad1)" d="M 348.670532 317.952 
L 348.670532 188.928 
" style="fill:none;stroke:#b0b0b0;stroke-linecap:square;stroke-width:0.8;"/>
     </g>
     <g id="line2d_29">
      <g>
       <use style="stroke:#000000;stroke-width:0.8;" x="348.670532" xlink:href="#mf5a54a00a9" y="317.952"/>
      </g>
     </g>
     <g id="text_17">
      <!-- 800 -->
      <g transform="translate(339.126782 332.550437)scale(0.1 -0.1)">
       <use xlink:href="#DejaVuSans-56"/>
       <use x="63.623047" xlink:href="#DejaVuSans-48"/>
       <use x="127.246094" xlink:href="#DejaVuSans-48"/>
      </g>
     </g>
    </g>
    <g id="xtick_12">
     <g id="line2d_30">
      <path clip-path="url(#pf05cfe6ad1)" d="M 419.956364 317.952 
L 419.956364 188.928 
" style="fill:none;stroke:#b0b0b0;stroke-linecap:square;stroke-width:0.8;"/>
     </g>
     <g id="line2d_31">
      <g>
       <use style="stroke:#000000;stroke-width:0.8;" x="419.956364" xlink:href="#mf5a54a00a9" y="317.952"/>
      </g>
     </g>
     <g id="text_18">
      <!-- 1000 -->
      <g transform="translate(407.231364 332.550437)scale(0.1 -0.1)">
       <use xlink:href="#DejaVuSans-49"/>
       <use x="63.623047" xlink:href="#DejaVuSans-48"/>
       <use x="127.246094" xlink:href="#DejaVuSans-48"/>
       <use x="190.869141" xlink:href="#DejaVuSans-48"/>
      </g>
     </g>
    </g>
    <g id="text_19">
     <!-- Corridas -->
     <g transform="translate(221.027031 346.228563)scale(0.1 -0.1)">
      <use xlink:href="#DejaVuSans-67"/>
      <use x="69.824219" xlink:href="#DejaVuSans-111"/>
      <use x="131.005859" xlink:href="#DejaVuSans-114"/>
      <use x="172.103516" xlink:href="#DejaVuSans-114"/>
      <use x="213.216797" xlink:href="#DejaVuSans-105"/>
      <use x="241" xlink:href="#DejaVuSans-100"/>
      <use x="304.476562" xlink:href="#DejaVuSans-97"/>
      <use x="365.755859" xlink:href="#DejaVuSans-115"/>
     </g>
    </g>
   </g>
   <g id="matplotlib.axis_4">
    <g id="ytick_4">
     <g id="line2d_32">
      <path clip-path="url(#pf05cfe6ad1)" d="M 46.08 315.595293 
L 437.76 315.595293 
" style="fill:none;stroke:#b0b0b0;stroke-linecap:square;stroke-width:0.8;"/>
     </g>
     <g id="line2d_33">
      <g>
       <use style="stroke:#000000;stroke-width:0.8;" x="46.08" xlink:href="#md5d7f9ce48" y="315.595293"/>
      </g>
     </g>
     <g id="text_20">
      <!-- 0.240 -->
      <g transform="translate(10.451875 319.394511)scale(0.1 -0.1)">
       <use xlink:href="#DejaVuSans-48"/>
       <use x="63.623047" xlink:href="#DejaVuSans-46"/>
       <use x="95.410156" xlink:href="#DejaVuSans-50"/>
       <use x="159.033203" xlink:href="#DejaVuSans-52"/>
       <use x="222.65625" xlink:href="#DejaVuSans-48"/>
      </g>
     </g>
    </g>
    <g id="ytick_5">
     <g id="line2d_34">
      <path clip-path="url(#pf05cfe6ad1)" d="M 46.08 289.611884 
L 437.76 289.611884 
" style="fill:none;stroke:#b0b0b0;stroke-linecap:square;stroke-width:0.8;"/>
     </g>
     <g id="line2d_35">
      <g>
       <use style="stroke:#000000;stroke-width:0.8;" x="46.08" xlink:href="#md5d7f9ce48" y="289.611884"/>
      </g>
     </g>
     <g id="text_21">
      <!-- 0.245 -->
      <g transform="translate(10.451875 293.411103)scale(0.1 -0.1)">
       <use xlink:href="#DejaVuSans-48"/>
       <use x="63.623047" xlink:href="#DejaVuSans-46"/>
       <use x="95.410156" xlink:href="#DejaVuSans-50"/>
       <use x="159.033203" xlink:href="#DejaVuSans-52"/>
       <use x="222.65625" xlink:href="#DejaVuSans-53"/>
      </g>
     </g>
    </g>
    <g id="ytick_6">
     <g id="line2d_36">
      <path clip-path="url(#pf05cfe6ad1)" d="M 46.08 263.628476 
L 437.76 263.628476 
" style="fill:none;stroke:#b0b0b0;stroke-linecap:square;stroke-width:0.8;"/>
     </g>
     <g id="line2d_37">
      <g>
       <use style="stroke:#000000;stroke-width:0.8;" x="46.08" xlink:href="#md5d7f9ce48" y="263.628476"/>
      </g>
     </g>
     <g id="text_22">
      <!-- 0.250 -->
      <g transform="translate(10.451875 267.427695)scale(0.1 -0.1)">
       <use xlink:href="#DejaVuSans-48"/>
       <use x="63.623047" xlink:href="#DejaVuSans-46"/>
       <use x="95.410156" xlink:href="#DejaVuSans-50"/>
       <use x="159.033203" xlink:href="#DejaVuSans-53"/>
       <use x="222.65625" xlink:href="#DejaVuSans-48"/>
      </g>
     </g>
    </g>
    <g id="ytick_7">
     <g id="line2d_38">
      <path clip-path="url(#pf05cfe6ad1)" d="M 46.08 237.645068 
L 437.76 237.645068 
" style="fill:none;stroke:#b0b0b0;stroke-linecap:square;stroke-width:0.8;"/>
     </g>
     <g id="line2d_39">
      <g>
       <use style="stroke:#000000;stroke-width:0.8;" x="46.08" xlink:href="#md5d7f9ce48" y="237.645068"/>
      </g>
     </g>
     <g id="text_23">
      <!-- 0.255 -->
      <g transform="translate(10.451875 241.444287)scale(0.1 -0.1)">
       <use xlink:href="#DejaVuSans-48"/>
       <use x="63.623047" xlink:href="#DejaVuSans-46"/>
       <use x="95.410156" xlink:href="#DejaVuSans-50"/>
       <use x="159.033203" xlink:href="#DejaVuSans-53"/>
       <use x="222.65625" xlink:href="#DejaVuSans-53"/>
      </g>
     </g>
    </g>
    <g id="ytick_8">
     <g id="line2d_40">
      <path clip-path="url(#pf05cfe6ad1)" d="M 46.08 211.66166 
L 437.76 211.66166 
" style="fill:none;stroke:#b0b0b0;stroke-linecap:square;stroke-width:0.8;"/>
     </g>
     <g id="line2d_41">
      <g>
       <use style="stroke:#000000;stroke-width:0.8;" x="46.08" xlink:href="#md5d7f9ce48" y="211.66166"/>
      </g>
     </g>
     <g id="text_24">
      <!-- 0.260 -->
      <g transform="translate(10.451875 215.460878)scale(0.1 -0.1)">
       <use xlink:href="#DejaVuSans-48"/>
       <use x="63.623047" xlink:href="#DejaVuSans-46"/>
       <use x="95.410156" xlink:href="#DejaVuSans-50"/>
       <use x="159.033203" xlink:href="#DejaVuSans-54"/>
       <use x="222.65625" xlink:href="#DejaVuSans-48"/>
      </g>
     </g>
    </g>
    <g id="text_25">
     <!-- Utilización -->
     <g transform="translate(4.372188 279.281406)rotate(-90)scale(0.1 -0.1)">
      <use xlink:href="#DejaVuSans-85"/>
      <use x="73.193359" xlink:href="#DejaVuSans-116"/>
      <use x="112.402344" xlink:href="#DejaVuSans-105"/>
      <use x="140.185547" xlink:href="#DejaVuSans-108"/>
      <use x="167.96875" xlink:href="#DejaVuSans-105"/>
      <use x="195.751953" xlink:href="#DejaVuSans-122"/>
      <use x="248.242188" xlink:href="#DejaVuSans-97"/>
      <use x="309.521484" xlink:href="#DejaVuSans-99"/>
      <use x="364.501953" xlink:href="#DejaVuSans-105"/>
      <use x="392.285156" xlink:href="#DejaVuSans-243"/>
      <use x="453.466797" xlink:href="#DejaVuSans-110"/>
     </g>
    </g>
   </g>
   <g id="line2d_42">
    <path clip-path="url(#pf05cfe6ad1)" d="M 63.883636 194.792727 
L 64.240066 295.175941 
L 64.596495 312.087273 
L 64.952924 298.822242 
L 65.309353 277.287511 
L 65.665782 279.990342 
L 66.022211 274.451776 
L 66.37864 272.324161 
L 66.73507 276.524553 
L 67.091499 291.182164 
L 67.447928 287.57754 
L 67.804357 287.678582 
L 68.160786 280.031314 
L 68.517215 284.379276 
L 69.230074 281.000663 
L 69.586503 276.365244 
L 69.942932 281.058456 
L 70.299361 279.153793 
L 70.65579 277.946492 
L 71.012219 275.892223 
L 71.368649 274.888214 
L 71.725078 278.599097 
L 72.081507 279.21119 
L 72.437936 277.155321 
L 72.794365 278.730339 
L 73.150794 277.888836 
L 73.507224 281.524577 
L 73.863653 279.326662 
L 74.220082 279.456033 
L 74.576511 279.801029 
L 74.93294 282.200903 
L 75.645799 284.340292 
L 76.358657 276.477065 
L 77.071515 279.201964 
L 77.427944 279.441489 
L 77.784373 279.010671 
L 78.497232 272.936084 
L 78.853661 275.808451 
L 79.21009 277.272447 
L 79.566519 280.104941 
L 79.922948 278.721956 
L 80.279378 278.531619 
L 80.635807 277.991381 
L 80.992236 276.497084 
L 81.348665 276.208346 
L 82.061523 279.037457 
L 82.417952 279.986705 
L 82.774382 278.799562 
L 83.130811 276.7053 
L 83.48724 277.97344 
L 83.843669 277.613769 
L 84.556527 276.283667 
L 84.912957 277.641214 
L 85.625815 279.136912 
L 85.982244 279.296322 
L 86.338673 279.030735 
L 86.695102 278.437055 
L 87.051532 278.948935 
L 87.407961 278.510862 
L 87.76439 279.274282 
L 88.120819 279.709876 
L 88.477248 279.003543 
L 88.833677 279.825155 
L 89.190106 279.227515 
L 89.546536 279.290877 
L 89.902965 278.759042 
L 90.615823 279.486969 
L 90.972252 279.046478 
L 91.328681 278.98819 
L 91.685111 280.277933 
L 92.04154 281.047628 
L 92.397969 279.533416 
L 92.754398 280.628689 
L 93.110827 280.585035 
L 93.823686 281.134233 
L 94.536544 280.113798 
L 94.892973 280.21283 
L 95.249402 279.49226 
L 95.605831 278.274651 
L 95.96226 279.525436 
L 96.31869 279.601603 
L 96.675119 279.267992 
L 97.031548 280.751308 
L 97.387977 280.634703 
L 97.744406 279.575854 
L 98.100835 279.525173 
L 98.457265 278.977136 
L 99.170123 278.526127 
L 99.526552 279.33097 
L 99.882981 279.035618 
L 100.23941 279.108279 
L 100.952269 278.884888 
L 101.308698 278.920211 
L 102.021556 276.613888 
L 102.377985 276.644329 
L 102.734414 276.999786 
L 103.090844 278.107636 
L 103.447273 277.432377 
L 103.803702 277.263941 
L 104.160131 276.725267 
L 104.51656 276.90572 
L 104.872989 276.898025 
L 105.229419 275.692456 
L 105.585848 275.403332 
L 105.942277 275.805438 
L 106.298706 275.656986 
L 106.655135 275.780474 
L 107.011564 275.473907 
L 107.367993 275.421998 
L 107.724423 274.653601 
L 108.437281 275.084809 
L 109.150139 274.560316 
L 109.506568 274.692882 
L 109.862998 274.31934 
L 110.575856 274.699026 
L 110.932285 273.910481 
L 111.288714 273.847079 
L 111.645143 272.70733 
L 112.001572 273.214179 
L 112.358002 272.96399 
L 112.714431 273.41812 
L 113.07086 272.887654 
L 113.427289 272.04205 
L 113.783718 272.41749 
L 114.140147 273.550175 
L 114.496577 272.984475 
L 114.853006 272.799987 
L 115.209435 273.335406 
L 115.922293 273.086611 
L 116.278722 272.4089 
L 116.635152 272.181436 
L 116.991581 272.201351 
L 117.34801 271.775793 
L 117.704439 270.902982 
L 118.060868 270.815889 
L 118.773726 270.190641 
L 119.130156 270.82616 
L 119.486585 270.86972 
L 119.843014 269.518098 
L 120.199443 269.62344 
L 120.555872 270.803626 
L 120.912301 269.873662 
L 121.268731 270.106752 
L 121.62516 270.654594 
L 121.981589 270.942574 
L 122.338018 271.400885 
L 122.694447 271.496645 
L 123.407305 271.374971 
L 124.120164 271.087186 
L 125.54588 271.602256 
L 126.258739 270.673714 
L 128.040885 270.922836 
L 128.397314 271.777108 
L 128.753743 271.122596 
L 129.466601 271.85819 
L 129.82303 271.882254 
L 130.179459 272.035176 
L 130.535889 272.709735 
L 131.248747 272.83795 
L 131.605176 272.195348 
L 131.961605 272.05173 
L 132.318034 272.300355 
L 132.674464 272.397389 
L 133.030893 271.621666 
L 133.387322 272.272332 
L 133.743751 271.813906 
L 134.10018 271.904975 
L 134.456609 272.330098 
L 135.169468 272.908729 
L 135.525897 273.576301 
L 136.238755 274.25153 
L 136.595184 274.332932 
L 136.951613 273.869279 
L 137.664472 275.405526 
L 138.37733 275.703291 
L 138.733759 276.037696 
L 139.090188 275.796803 
L 139.446618 275.757886 
L 139.803047 276.361262 
L 140.159476 276.268027 
L 140.515905 276.330951 
L 140.872334 276.273138 
L 141.228763 276.531776 
L 141.941622 275.893059 
L 142.298051 275.861948 
L 142.65448 276.190641 
L 143.367338 276.54105 
L 144.436626 276.540414 
L 145.149484 277.009661 
L 145.505913 276.96732 
L 145.862342 276.164959 
L 146.218771 275.835711 
L 146.575201 275.951724 
L 146.93163 275.890736 
L 147.288059 276.197136 
L 147.644488 276.273546 
L 148.000917 276.581056 
L 148.357346 276.674995 
L 149.426634 276.462846 
L 149.783063 276.172619 
L 150.139492 277.276319 
L 151.20878 276.669725 
L 151.565209 276.972694 
L 153.347355 276.460303 
L 153.703784 276.158753 
L 154.060213 276.092921 
L 154.416642 275.873157 
L 154.773071 276.169666 
L 155.1295 276.225307 
L 155.48593 276.840149 
L 156.555217 276.68614 
L 156.911646 276.77338 
L 157.268075 276.278079 
L 157.624505 276.334475 
L 157.980934 276.138483 
L 158.337363 276.166677 
L 159.050221 275.656233 
L 159.40665 275.707701 
L 159.763079 275.906637 
L 160.119509 275.909336 
L 160.832367 276.263743 
L 161.188796 275.740169 
L 161.901654 275.394888 
L 162.258084 275.389337 
L 162.614513 275.234254 
L 163.327371 275.645271 
L 164.040229 274.865418 
L 165.109517 275.578937 
L 165.465946 275.66863 
L 165.822375 276.111828 
L 166.891663 276.575519 
L 167.248092 276.176479 
L 168.317379 276.720998 
L 168.673808 276.890322 
L 169.386667 276.281237 
L 169.743096 276.197542 
L 170.099525 276.30026 
L 171.881671 276.321683 
L 172.2381 275.768858 
L 173.663817 274.501124 
L 174.376675 274.612109 
L 174.733104 274.530422 
L 175.089533 274.62751 
L 175.445962 274.402187 
L 175.802391 273.927339 
L 176.51525 274.150858 
L 176.871679 274.403208 
L 177.228108 274.143783 
L 177.584537 274.142198 
L 177.940966 274.02482 
L 178.297396 274.114536 
L 179.366683 273.90369 
L 180.079541 274.007089 
L 180.435971 274.38195 
L 180.7924 274.14526 
L 181.148829 274.19868 
L 181.505258 273.892157 
L 181.861687 273.936804 
L 182.218116 273.859393 
L 182.574545 273.354033 
L 183.287404 273.400909 
L 183.643833 273.650245 
L 184.356691 273.202231 
L 184.71312 273.314031 
L 185.425979 272.522845 
L 185.782408 272.645059 
L 186.138837 272.393152 
L 187.208124 272.353518 
L 187.920983 272.566823 
L 188.277412 272.626818 
L 188.633841 272.808962 
L 189.346699 272.626022 
L 189.703129 272.396692 
L 190.415987 272.628727 
L 190.772416 272.608869 
L 191.485274 272.09263 
L 192.910991 272.472282 
L 194.336708 272.17405 
L 194.693137 272.257452 
L 195.049566 272.032139 
L 195.405995 272.079178 
L 196.831712 271.700413 
L 197.188141 271.941231 
L 197.54457 271.864293 
L 197.900999 271.670614 
L 198.257428 271.805506 
L 198.613857 271.65678 
L 198.970287 271.665352 
L 199.683145 271.335425 
L 200.039574 271.398752 
L 201.465291 271.020386 
L 202.178149 271.234962 
L 202.534578 271.082012 
L 202.891007 271.157785 
L 203.247437 271.024401 
L 203.603866 271.36761 
L 203.960295 271.075736 
L 204.316724 271.346343 
L 205.029582 271.08027 
L 205.386011 271.093563 
L 205.742441 270.980125 
L 206.09887 271.03699 
L 206.811728 270.029784 
L 207.168157 270.228589 
L 207.881016 270.281105 
L 208.237445 270.523918 
L 208.593874 270.459045 
L 209.663161 269.727361 
L 210.01959 269.903963 
L 210.37602 269.747935 
L 210.732449 269.758756 
L 211.088878 269.891788 
L 212.871024 269.271718 
L 213.227453 268.85001 
L 213.940311 269.092677 
L 214.29674 269.225229 
L 215.009599 269.14685 
L 215.366028 268.885011 
L 215.722457 268.778532 
L 216.078886 268.88983 
L 217.148174 268.80453 
L 217.504603 268.992082 
L 218.57389 268.747649 
L 218.930319 268.577612 
L 219.286749 268.24022 
L 219.643178 268.360951 
L 219.999607 268.34483 
L 221.425324 269.012617 
L 221.781753 269.043627 
L 222.138182 268.961034 
L 222.85104 269.182328 
L 223.563898 268.977854 
L 224.276757 268.764289 
L 224.633186 268.520169 
L 224.989615 268.453747 
L 225.346044 268.55828 
L 225.702473 268.515299 
L 226.058903 268.336171 
L 226.771761 268.383826 
L 227.12819 268.160285 
L 227.841048 268.066714 
L 228.553907 268.418933 
L 229.266765 268.574056 
L 230.336052 268.179532 
L 231.048911 268.184708 
L 233.187486 268.281433 
L 233.900344 268.140324 
L 234.613202 268.177506 
L 234.969631 268.211533 
L 235.68249 268.465793 
L 236.038919 268.414221 
L 236.395348 268.500796 
L 236.751777 268.388881 
L 237.464636 268.473215 
L 238.177494 268.295555 
L 238.533923 268.372591 
L 238.890352 268.307229 
L 239.246781 267.973142 
L 239.60321 268.283179 
L 239.95964 268.116527 
L 240.672498 268.078626 
L 241.028927 268.007984 
L 242.098215 268.419401 
L 242.454644 268.334951 
L 242.811073 268.712169 
L 243.167502 268.728334 
L 243.523931 268.438439 
L 243.88036 268.545308 
L 244.593219 268.378615 
L 244.949648 268.432325 
L 245.306077 268.309659 
L 246.018935 268.422699 
L 247.444652 268.710324 
L 247.801081 268.512599 
L 248.15751 268.670354 
L 248.870369 269.145267 
L 249.583227 269.05956 
L 250.296085 268.869286 
L 251.365373 268.890183 
L 251.721802 268.691378 
L 252.078231 268.658547 
L 253.860377 269.152422 
L 254.216806 268.948508 
L 255.286093 268.704064 
L 257.068239 269.298023 
L 257.424668 269.18025 
L 257.781097 269.235962 
L 258.137527 269.03278 
L 258.493956 269.22473 
L 259.563243 269.270707 
L 260.276102 268.985788 
L 260.632531 269.155422 
L 263.127535 269.350147 
L 263.483964 269.479756 
L 264.196822 269.206226 
L 264.553251 269.465409 
L 264.909681 269.283254 
L 265.622539 269.370273 
L 266.691826 269.340964 
L 267.048256 269.289781 
L 267.404685 269.384883 
L 267.761114 269.35114 
L 268.473972 269.43073 
L 268.830401 269.298704 
L 269.18683 269.410121 
L 269.54326 269.100716 
L 270.612547 269.262807 
L 271.681835 268.88409 
L 272.038264 268.842952 
L 272.394693 268.971233 
L 273.107551 268.955755 
L 273.46398 268.688753 
L 273.82041 268.85928 
L 274.176839 268.732946 
L 274.533268 269.028054 
L 275.246126 268.774823 
L 275.602555 268.932225 
L 275.958984 268.850142 
L 276.315414 268.912294 
L 276.671843 269.179989 
L 277.028272 269.077115 
L 277.74113 269.359028 
L 278.453989 269.124639 
L 279.523276 269.231332 
L 279.879705 269.43283 
L 280.592563 269.307951 
L 281.305422 269.608455 
L 284.156855 269.607479 
L 285.226143 269.162437 
L 285.582572 269.419635 
L 285.939001 269.521066 
L 287.721147 269.361849 
L 288.790434 269.611041 
L 289.146863 269.40302 
L 289.859722 269.217007 
L 290.216151 269.11538 
L 290.57258 269.355062 
L 291.285438 269.485135 
L 291.641867 269.572881 
L 292.354726 269.387203 
L 292.711155 269.203027 
L 293.780442 269.248231 
L 294.136871 268.986939 
L 295.206159 268.856833 
L 296.631876 268.75075 
L 296.988305 268.575733 
L 298.057592 268.780385 
L 298.77045 268.989422 
L 299.839738 268.777334 
L 302.334742 269.101069 
L 302.691171 269.021406 
L 303.760459 269.286553 
L 304.473317 269.67894 
L 304.829746 269.583305 
L 305.186175 269.695852 
L 306.611892 269.674776 
L 307.32475 269.838666 
L 307.681179 269.610965 
L 309.463325 270.055774 
L 309.819754 269.971737 
L 310.176183 270.248957 
L 311.245471 270.132725 
L 311.6019 270.256078 
L 312.314758 270.281136 
L 314.809762 270.320202 
L 315.522621 270.70873 
L 315.87905 270.858136 
L 316.591908 270.605462 
L 317.304767 270.673928 
L 320.1562 270.149209 
L 320.512629 270.141762 
L 320.869058 270.250878 
L 321.938346 270.312551 
L 323.007633 270.350936 
L 324.076921 270.399432 
L 324.43335 270.475815 
L 325.146208 270.168504 
L 326.571925 270.054344 
L 326.928354 270.28679 
L 327.284783 270.111975 
L 332.274791 269.549698 
L 333.700508 269.734613 
L 334.056937 269.869598 
L 334.769795 269.967441 
L 335.126224 270.125266 
L 335.839083 269.773336 
L 337.264799 269.915661 
L 339.046945 270.045752 
L 340.829091 270.242376 
L 341.541949 270.255096 
L 341.898378 270.216064 
L 342.967666 270.48613 
L 346.175528 269.954075 
L 347.244816 270.281076 
L 347.601245 270.249264 
L 348.314103 270.411544 
L 349.383391 270.419255 
L 350.096249 270.527366 
L 350.809107 270.508064 
L 351.165536 270.593917 
L 351.521966 270.436869 
L 352.234824 270.771476 
L 352.591253 270.72774 
L 352.947682 270.803849 
L 354.01697 270.608935 
L 354.373399 270.430553 
L 355.799115 270.669493 
L 356.511974 270.782289 
L 356.868403 270.725069 
L 357.224832 270.540287 
L 357.581261 270.539972 
L 357.93769 270.4067 
L 358.650549 270.435633 
L 359.363407 270.175831 
L 360.076265 270.0411 
L 360.789124 269.833021 
L 361.858411 270.057753 
L 362.21484 270.113734 
L 362.571269 270.316343 
L 363.284128 270.297101 
L 363.996986 270.318232 
L 365.779132 270.124078 
L 366.135561 270.221534 
L 367.204848 270.248983 
L 368.274136 270.402142 
L 369.343423 270.314794 
L 370.412711 270.224414 
L 371.481998 270.234852 
L 371.838428 270.163081 
L 372.194857 270.316037 
L 373.620573 270.037267 
L 373.977002 269.897714 
L 374.333432 269.922827 
L 374.689861 269.812234 
L 376.828436 270.026628 
L 377.541294 269.92842 
L 377.897723 270.071724 
L 378.967011 269.871176 
L 380.392727 269.567809 
L 382.887731 269.266399 
L 383.60059 269.018317 
L 384.669877 269.070418 
L 385.739165 268.890898 
L 386.095594 269.00534 
L 388.234169 268.846946 
L 390.729173 268.331339 
L 391.085602 268.511782 
L 391.442031 268.392926 
L 392.154889 268.428557 
L 392.511319 268.351434 
L 393.580606 268.409072 
L 394.649894 268.524509 
L 395.362752 268.724258 
L 396.432039 268.766404 
L 396.788468 268.855815 
L 397.501327 268.6417 
L 398.214185 268.493476 
L 398.927043 268.647549 
L 400.709189 268.853826 
L 401.065618 268.869594 
L 401.778477 268.654588 
L 402.134906 268.653074 
L 402.847764 268.81815 
L 403.560622 268.643239 
L 404.273481 268.689025 
L 404.986339 268.844366 
L 406.055627 269.048789 
L 406.768485 269.061363 
L 407.837772 269.246232 
L 408.194201 269.301315 
L 408.550631 269.226315 
L 408.90706 269.389856 
L 410.332776 269.489535 
L 411.402064 269.489656 
L 411.758493 269.457006 
L 412.471351 269.525979 
L 414.966355 269.253422 
L 416.392072 269.196937 
L 417.10493 269.083954 
L 418.887076 269.137067 
L 419.599934 269.040385 
L 419.956364 269.089464 
L 419.956364 269.089464 
" style="fill:none;stroke:#1f77b4;stroke-linecap:square;stroke-width:1.5;"/>
   </g>
   <g id="patch_8">
    <path d="M 46.08 317.952 
L 46.08 188.928 
" style="fill:none;stroke:#000000;stroke-linecap:square;stroke-linejoin:miter;stroke-width:0.8;"/>
   </g>
   <g id="patch_9">
    <path d="M 437.76 317.952 
L 437.76 188.928 
" style="fill:none;stroke:#000000;stroke-linecap:square;stroke-linejoin:miter;stroke-width:0.8;"/>
   </g>
   <g id="patch_10">
    <path d="M 46.08 317.952 
L 437.76 317.952 
" style="fill:none;stroke:#000000;stroke-linecap:square;stroke-linejoin:miter;stroke-width:0.8;"/>
   </g>
   <g id="patch_11">
    <path d="M 46.08 188.928 
L 437.76 188.928 
" style="fill:none;stroke:#000000;stroke-linecap:square;stroke-linejoin:miter;stroke-width:0.8;"/>
   </g>
   <g id="text_26">
    <!-- Utilización promedio servidor D2 -->
    <g transform="translate(143.674688 182.928)scale(0.12 -0.12)">
     <use xlink:href="#DejaVuSans-85"/>
     <use x="73.193359" xlink:href="#DejaVuSans-116"/>
     <use x="112.402344" xlink:href="#DejaVuSans-105"/>
     <use x="140.185547" xlink:href="#DejaVuSans-108"/>
     <use x="167.96875" xlink:href="#DejaVuSans-105"/>
     <use x="195.751953" xlink:href="#DejaVuSans-122"/>
     <use x="248.242188" xlink:href="#DejaVuSans-97"/>
     <use x="309.521484" xlink:href="#DejaVuSans-99"/>
     <use x="364.501953" xlink:href="#DejaVuSans-105"/>
     <use x="392.285156" xlink:href="#DejaVuSans-243"/>
     <use x="453.466797" xlink:href="#DejaVuSans-110"/>
     <use x="516.845703" xlink:href="#DejaVuSans-32"/>
     <use x="548.632812" xlink:href="#DejaVuSans-112"/>
     <use x="612.109375" xlink:href="#DejaVuSans-114"/>
     <use x="653.191406" xlink:href="#DejaVuSans-111"/>
     <use x="714.373047" xlink:href="#DejaVuSans-109"/>
     <use x="811.785156" xlink:href="#DejaVuSans-101"/>
     <use x="873.308594" xlink:href="#DejaVuSans-100"/>
     <use x="936.785156" xlink:href="#DejaVuSans-105"/>
     <use x="964.568359" xlink:href="#DejaVuSans-111"/>
     <use x="1025.75" xlink:href="#DejaVuSans-32"/>
     <use x="1057.537109" xlink:href="#DejaVuSans-115"/>
     <use x="1109.636719" xlink:href="#DejaVuSans-101"/>
     <use x="1171.160156" xlink:href="#DejaVuSans-114"/>
     <use x="1212.273438" xlink:href="#DejaVuSans-118"/>
     <use x="1271.453125" xlink:href="#DejaVuSans-105"/>
     <use x="1299.236328" xlink:href="#DejaVuSans-100"/>
     <use x="1362.712891" xlink:href="#DejaVuSans-111"/>
     <use x="1423.894531" xlink:href="#DejaVuSans-114"/>
     <use x="1465.007812" xlink:href="#DejaVuSans-32"/>
     <use x="1496.794922" xlink:href="#DejaVuSans-68"/>
     <use x="1573.796875" xlink:href="#DejaVuSans-50"/>
    </g>
   </g>
  </g>
 </g>
 <defs>
  <clipPath id="p04e0b8c5a4">
   <rect height="129.024" width="391.68" x="46.08" y="27.648"/>
  </clipPath>
  <clipPath id="pf05cfe6ad1">
   <rect height="129.024" width="391.68" x="46.08" y="188.928"/>
  </clipPath>
 </defs>
</svg>
