<?xml version="1.0" encoding="utf-8" standalone="no"?>
<!DOCTYPE svg PUBLIC "-//W3C//DTD SVG 1.1//EN"
  "http://www.w3.org/Graphics/SVG/1.1/DTD/svg11.dtd">
<!-- Created with matplotlib (https://matplotlib.org/) -->
<svg height="345.6pt" version="1.1" viewBox="0 0 460.8 345.6" width="460.8pt" xmlns="http://www.w3.org/2000/svg" xmlns:xlink="http://www.w3.org/1999/xlink">
 <defs>
  <style type="text/css">
*{stroke-linecap:butt;stroke-linejoin:round;}
  </style>
 </defs>
 <g id="figure_1">
  <g id="patch_1">
   <path d="M 0 345.6 
L 460.8 345.6 
L 460.8 0 
L 0 0 
z
" style="fill:#ffffff;"/>
  </g>
  <g id="axes_1">
   <g id="patch_2">
    <path d="M 46.08 156.672 
L 437.76 156.672 
L 437.76 27.648 
L 46.08 27.648 
z
" style="fill:#ffffff;"/>
   </g>
   <g id="matplotlib.axis_1">
    <g id="xtick_1">
     <g id="line2d_1">
      <path clip-path="url(#paad332b97a)" d="M 63.527207 156.672 
L 63.527207 27.648 
" style="fill:none;stroke:#b0b0b0;stroke-linecap:square;stroke-width:0.8;"/>
     </g>
     <g id="line2d_2">
      <defs>
       <path d="M 0 0 
L 0 3.5 
" id="md6c95e5f98" style="stroke:#000000;stroke-width:0.8;"/>
      </defs>
      <g>
       <use style="stroke:#000000;stroke-width:0.8;" x="63.527207" xlink:href="#md6c95e5f98" y="156.672"/>
      </g>
     </g>
     <g id="text_1">
      <!-- 0 -->
      <defs>
       <path d="M 31.78125 66.40625 
Q 24.171875 66.40625 20.328125 58.90625 
Q 16.5 51.421875 16.5 36.375 
Q 16.5 21.390625 20.328125 13.890625 
Q 24.171875 6.390625 31.78125 6.390625 
Q 39.453125 6.390625 43.28125 13.890625 
Q 47.125 21.390625 47.125 36.375 
Q 47.125 51.421875 43.28125 58.90625 
Q 39.453125 66.40625 31.78125 66.40625 
z
M 31.78125 74.21875 
Q 44.046875 74.21875 50.515625 64.515625 
Q 56.984375 54.828125 56.984375 36.375 
Q 56.984375 17.96875 50.515625 8.265625 
Q 44.046875 -1.421875 31.78125 -1.421875 
Q 19.53125 -1.421875 13.0625 8.265625 
Q 6.59375 17.96875 6.59375 36.375 
Q 6.59375 54.828125 13.0625 64.515625 
Q 19.53125 74.21875 31.78125 74.21875 
z
" id="DejaVuSans-48"/>
      </defs>
      <g transform="translate(60.345957 171.270437)scale(0.1 -0.1)">
       <use xlink:href="#DejaVuSans-48"/>
      </g>
     </g>
    </g>
    <g id="xtick_2">
     <g id="line2d_3">
      <path clip-path="url(#paad332b97a)" d="M 134.813038 156.672 
L 134.813038 27.648 
" style="fill:none;stroke:#b0b0b0;stroke-linecap:square;stroke-width:0.8;"/>
     </g>
     <g id="line2d_4">
      <g>
       <use style="stroke:#000000;stroke-width:0.8;" x="134.813038" xlink:href="#md6c95e5f98" y="156.672"/>
      </g>
     </g>
     <g id="text_2">
      <!-- 200 -->
      <defs>
       <path d="M 19.1875 8.296875 
L 53.609375 8.296875 
L 53.609375 0 
L 7.328125 0 
L 7.328125 8.296875 
Q 12.9375 14.109375 22.625 23.890625 
Q 32.328125 33.6875 34.8125 36.53125 
Q 39.546875 41.84375 41.421875 45.53125 
Q 43.3125 49.21875 43.3125 52.78125 
Q 43.3125 58.59375 39.234375 62.25 
Q 35.15625 65.921875 28.609375 65.921875 
Q 23.96875 65.921875 18.8125 64.3125 
Q 13.671875 62.703125 7.8125 59.421875 
L 7.8125 69.390625 
Q 13.765625 71.78125 18.9375 73 
Q 24.125 74.21875 28.421875 74.21875 
Q 39.75 74.21875 46.484375 68.546875 
Q 53.21875 62.890625 53.21875 53.421875 
Q 53.21875 48.921875 51.53125 44.890625 
Q 49.859375 40.875 45.40625 35.40625 
Q 44.1875 33.984375 37.640625 27.21875 
Q 31.109375 20.453125 19.1875 8.296875 
z
" id="DejaVuSans-50"/>
      </defs>
      <g transform="translate(125.269288 171.270437)scale(0.1 -0.1)">
       <use xlink:href="#DejaVuSans-50"/>
       <use x="63.623047" xlink:href="#DejaVuSans-48"/>
       <use x="127.246094" xlink:href="#DejaVuSans-48"/>
      </g>
     </g>
    </g>
    <g id="xtick_3">
     <g id="line2d_5">
      <path clip-path="url(#paad332b97a)" d="M 206.09887 156.672 
L 206.09887 27.648 
" style="fill:none;stroke:#b0b0b0;stroke-linecap:square;stroke-width:0.8;"/>
     </g>
     <g id="line2d_6">
      <g>
       <use style="stroke:#000000;stroke-width:0.8;" x="206.09887" xlink:href="#md6c95e5f98" y="156.672"/>
      </g>
     </g>
     <g id="text_3">
      <!-- 400 -->
      <defs>
       <path d="M 37.796875 64.3125 
L 12.890625 25.390625 
L 37.796875 25.390625 
z
M 35.203125 72.90625 
L 47.609375 72.90625 
L 47.609375 25.390625 
L 58.015625 25.390625 
L 58.015625 17.1875 
L 47.609375 17.1875 
L 47.609375 0 
L 37.796875 0 
L 37.796875 17.1875 
L 4.890625 17.1875 
L 4.890625 26.703125 
z
" id="DejaVuSans-52"/>
      </defs>
      <g transform="translate(196.55512 171.270437)scale(0.1 -0.1)">
       <use xlink:href="#DejaVuSans-52"/>
       <use x="63.623047" xlink:href="#DejaVuSans-48"/>
       <use x="127.246094" xlink:href="#DejaVuSans-48"/>
      </g>
     </g>
    </g>
    <g id="xtick_4">
     <g id="line2d_7">
      <path clip-path="url(#paad332b97a)" d="M 277.384701 156.672 
L 277.384701 27.648 
" style="fill:none;stroke:#b0b0b0;stroke-linecap:square;stroke-width:0.8;"/>
     </g>
     <g id="line2d_8">
      <g>
       <use style="stroke:#000000;stroke-width:0.8;" x="277.384701" xlink:href="#md6c95e5f98" y="156.672"/>
      </g>
     </g>
     <g id="text_4">
      <!-- 600 -->
      <defs>
       <path d="M 33.015625 40.375 
Q 26.375 40.375 22.484375 35.828125 
Q 18.609375 31.296875 18.609375 23.390625 
Q 18.609375 15.53125 22.484375 10.953125 
Q 26.375 6.390625 33.015625 6.390625 
Q 39.65625 6.390625 43.53125 10.953125 
Q 47.40625 15.53125 47.40625 23.390625 
Q 47.40625 31.296875 43.53125 35.828125 
Q 39.65625 40.375 33.015625 40.375 
z
M 52.59375 71.296875 
L 52.59375 62.3125 
Q 48.875 64.0625 45.09375 64.984375 
Q 41.3125 65.921875 37.59375 65.921875 
Q 27.828125 65.921875 22.671875 59.328125 
Q 17.53125 52.734375 16.796875 39.40625 
Q 19.671875 43.65625 24.015625 45.921875 
Q 28.375 48.1875 33.59375 48.1875 
Q 44.578125 48.1875 50.953125 41.515625 
Q 57.328125 34.859375 57.328125 23.390625 
Q 57.328125 12.15625 50.6875 5.359375 
Q 44.046875 -1.421875 33.015625 -1.421875 
Q 20.359375 -1.421875 13.671875 8.265625 
Q 6.984375 17.96875 6.984375 36.375 
Q 6.984375 53.65625 15.1875 63.9375 
Q 23.390625 74.21875 37.203125 74.21875 
Q 40.921875 74.21875 44.703125 73.484375 
Q 48.484375 72.75 52.59375 71.296875 
z
" id="DejaVuSans-54"/>
      </defs>
      <g transform="translate(267.840951 171.270437)scale(0.1 -0.1)">
       <use xlink:href="#DejaVuSans-54"/>
       <use x="63.623047" xlink:href="#DejaVuSans-48"/>
       <use x="127.246094" xlink:href="#DejaVuSans-48"/>
      </g>
     </g>
    </g>
    <g id="xtick_5">
     <g id="line2d_9">
      <path clip-path="url(#paad332b97a)" d="M 348.670532 156.672 
L 348.670532 27.648 
" style="fill:none;stroke:#b0b0b0;stroke-linecap:square;stroke-width:0.8;"/>
     </g>
     <g id="line2d_10">
      <g>
       <use style="stroke:#000000;stroke-width:0.8;" x="348.670532" xlink:href="#md6c95e5f98" y="156.672"/>
      </g>
     </g>
     <g id="text_5">
      <!-- 800 -->
      <defs>
       <path d="M 31.78125 34.625 
Q 24.75 34.625 20.71875 30.859375 
Q 16.703125 27.09375 16.703125 20.515625 
Q 16.703125 13.921875 20.71875 10.15625 
Q 24.75 6.390625 31.78125 6.390625 
Q 38.8125 6.390625 42.859375 10.171875 
Q 46.921875 13.96875 46.921875 20.515625 
Q 46.921875 27.09375 42.890625 30.859375 
Q 38.875 34.625 31.78125 34.625 
z
M 21.921875 38.8125 
Q 15.578125 40.375 12.03125 44.71875 
Q 8.5 49.078125 8.5 55.328125 
Q 8.5 64.0625 14.71875 69.140625 
Q 20.953125 74.21875 31.78125 74.21875 
Q 42.671875 74.21875 48.875 69.140625 
Q 55.078125 64.0625 55.078125 55.328125 
Q 55.078125 49.078125 51.53125 44.71875 
Q 48 40.375 41.703125 38.8125 
Q 48.828125 37.15625 52.796875 32.3125 
Q 56.78125 27.484375 56.78125 20.515625 
Q 56.78125 9.90625 50.3125 4.234375 
Q 43.84375 -1.421875 31.78125 -1.421875 
Q 19.734375 -1.421875 13.25 4.234375 
Q 6.78125 9.90625 6.78125 20.515625 
Q 6.78125 27.484375 10.78125 32.3125 
Q 14.796875 37.15625 21.921875 38.8125 
z
M 18.3125 54.390625 
Q 18.3125 48.734375 21.84375 45.5625 
Q 25.390625 42.390625 31.78125 42.390625 
Q 38.140625 42.390625 41.71875 45.5625 
Q 45.3125 48.734375 45.3125 54.390625 
Q 45.3125 60.0625 41.71875 63.234375 
Q 38.140625 66.40625 31.78125 66.40625 
Q 25.390625 66.40625 21.84375 63.234375 
Q 18.3125 60.0625 18.3125 54.390625 
z
" id="DejaVuSans-56"/>
      </defs>
      <g transform="translate(339.126782 171.270437)scale(0.1 -0.1)">
       <use xlink:href="#DejaVuSans-56"/>
       <use x="63.623047" xlink:href="#DejaVuSans-48"/>
       <use x="127.246094" xlink:href="#DejaVuSans-48"/>
      </g>
     </g>
    </g>
    <g id="xtick_6">
     <g id="line2d_11">
      <path clip-path="url(#paad332b97a)" d="M 419.956364 156.672 
L 419.956364 27.648 
" style="fill:none;stroke:#b0b0b0;stroke-linecap:square;stroke-width:0.8;"/>
     </g>
     <g id="line2d_12">
      <g>
       <use style="stroke:#000000;stroke-width:0.8;" x="419.956364" xlink:href="#md6c95e5f98" y="156.672"/>
      </g>
     </g>
     <g id="text_6">
      <!-- 1000 -->
      <defs>
       <path d="M 12.40625 8.296875 
L 28.515625 8.296875 
L 28.515625 63.921875 
L 10.984375 60.40625 
L 10.984375 69.390625 
L 28.421875 72.90625 
L 38.28125 72.90625 
L 38.28125 8.296875 
L 54.390625 8.296875 
L 54.390625 0 
L 12.40625 0 
z
" id="DejaVuSans-49"/>
      </defs>
      <g transform="translate(407.231364 171.270437)scale(0.1 -0.1)">
       <use xlink:href="#DejaVuSans-49"/>
       <use x="63.623047" xlink:href="#DejaVuSans-48"/>
       <use x="127.246094" xlink:href="#DejaVuSans-48"/>
       <use x="190.869141" xlink:href="#DejaVuSans-48"/>
      </g>
     </g>
    </g>
    <g id="text_7">
     <!-- Corridas -->
     <defs>
      <path d="M 64.40625 67.28125 
L 64.40625 56.890625 
Q 59.421875 61.53125 53.78125 63.8125 
Q 48.140625 66.109375 41.796875 66.109375 
Q 29.296875 66.109375 22.65625 58.46875 
Q 16.015625 50.828125 16.015625 36.375 
Q 16.015625 21.96875 22.65625 14.328125 
Q 29.296875 6.6875 41.796875 6.6875 
Q 48.140625 6.6875 53.78125 8.984375 
Q 59.421875 11.28125 64.40625 15.921875 
L 64.40625 5.609375 
Q 59.234375 2.09375 53.4375 0.328125 
Q 47.65625 -1.421875 41.21875 -1.421875 
Q 24.65625 -1.421875 15.125 8.703125 
Q 5.609375 18.84375 5.609375 36.375 
Q 5.609375 53.953125 15.125 64.078125 
Q 24.65625 74.21875 41.21875 74.21875 
Q 47.75 74.21875 53.53125 72.484375 
Q 59.328125 70.75 64.40625 67.28125 
z
" id="DejaVuSans-67"/>
      <path d="M 30.609375 48.390625 
Q 23.390625 48.390625 19.1875 42.75 
Q 14.984375 37.109375 14.984375 27.296875 
Q 14.984375 17.484375 19.15625 11.84375 
Q 23.34375 6.203125 30.609375 6.203125 
Q 37.796875 6.203125 41.984375 11.859375 
Q 46.1875 17.53125 46.1875 27.296875 
Q 46.1875 37.015625 41.984375 42.703125 
Q 37.796875 48.390625 30.609375 48.390625 
z
M 30.609375 56 
Q 42.328125 56 49.015625 48.375 
Q 55.71875 40.765625 55.71875 27.296875 
Q 55.71875 13.875 49.015625 6.21875 
Q 42.328125 -1.421875 30.609375 -1.421875 
Q 18.84375 -1.421875 12.171875 6.21875 
Q 5.515625 13.875 5.515625 27.296875 
Q 5.515625 40.765625 12.171875 48.375 
Q 18.84375 56 30.609375 56 
z
" id="DejaVuSans-111"/>
      <path d="M 41.109375 46.296875 
Q 39.59375 47.171875 37.8125 47.578125 
Q 36.03125 48 33.890625 48 
Q 26.265625 48 22.1875 43.046875 
Q 18.109375 38.09375 18.109375 28.8125 
L 18.109375 0 
L 9.078125 0 
L 9.078125 54.6875 
L 18.109375 54.6875 
L 18.109375 46.1875 
Q 20.953125 51.171875 25.484375 53.578125 
Q 30.03125 56 36.53125 56 
Q 37.453125 56 38.578125 55.875 
Q 39.703125 55.765625 41.0625 55.515625 
z
" id="DejaVuSans-114"/>
      <path d="M 9.421875 54.6875 
L 18.40625 54.6875 
L 18.40625 0 
L 9.421875 0 
z
M 9.421875 75.984375 
L 18.40625 75.984375 
L 18.40625 64.59375 
L 9.421875 64.59375 
z
" id="DejaVuSans-105"/>
      <path d="M 45.40625 46.390625 
L 45.40625 75.984375 
L 54.390625 75.984375 
L 54.390625 0 
L 45.40625 0 
L 45.40625 8.203125 
Q 42.578125 3.328125 38.25 0.953125 
Q 33.9375 -1.421875 27.875 -1.421875 
Q 17.96875 -1.421875 11.734375 6.484375 
Q 5.515625 14.40625 5.515625 27.296875 
Q 5.515625 40.1875 11.734375 48.09375 
Q 17.96875 56 27.875 56 
Q 33.9375 56 38.25 53.625 
Q 42.578125 51.265625 45.40625 46.390625 
z
M 14.796875 27.296875 
Q 14.796875 17.390625 18.875 11.75 
Q 22.953125 6.109375 30.078125 6.109375 
Q 37.203125 6.109375 41.296875 11.75 
Q 45.40625 17.390625 45.40625 27.296875 
Q 45.40625 37.203125 41.296875 42.84375 
Q 37.203125 48.484375 30.078125 48.484375 
Q 22.953125 48.484375 18.875 42.84375 
Q 14.796875 37.203125 14.796875 27.296875 
z
" id="DejaVuSans-100"/>
      <path d="M 34.28125 27.484375 
Q 23.390625 27.484375 19.1875 25 
Q 14.984375 22.515625 14.984375 16.5 
Q 14.984375 11.71875 18.140625 8.90625 
Q 21.296875 6.109375 26.703125 6.109375 
Q 34.1875 6.109375 38.703125 11.40625 
Q 43.21875 16.703125 43.21875 25.484375 
L 43.21875 27.484375 
z
M 52.203125 31.203125 
L 52.203125 0 
L 43.21875 0 
L 43.21875 8.296875 
Q 40.140625 3.328125 35.546875 0.953125 
Q 30.953125 -1.421875 24.3125 -1.421875 
Q 15.921875 -1.421875 10.953125 3.296875 
Q 6 8.015625 6 15.921875 
Q 6 25.140625 12.171875 29.828125 
Q 18.359375 34.515625 30.609375 34.515625 
L 43.21875 34.515625 
L 43.21875 35.40625 
Q 43.21875 41.609375 39.140625 45 
Q 35.0625 48.390625 27.6875 48.390625 
Q 23 48.390625 18.546875 47.265625 
Q 14.109375 46.140625 10.015625 43.890625 
L 10.015625 52.203125 
Q 14.9375 54.109375 19.578125 55.046875 
Q 24.21875 56 28.609375 56 
Q 40.484375 56 46.34375 49.84375 
Q 52.203125 43.703125 52.203125 31.203125 
z
" id="DejaVuSans-97"/>
      <path d="M 44.28125 53.078125 
L 44.28125 44.578125 
Q 40.484375 46.53125 36.375 47.5 
Q 32.28125 48.484375 27.875 48.484375 
Q 21.1875 48.484375 17.84375 46.4375 
Q 14.5 44.390625 14.5 40.28125 
Q 14.5 37.15625 16.890625 35.375 
Q 19.28125 33.59375 26.515625 31.984375 
L 29.59375 31.296875 
Q 39.15625 29.25 43.1875 25.515625 
Q 47.21875 21.78125 47.21875 15.09375 
Q 47.21875 7.46875 41.1875 3.015625 
Q 35.15625 -1.421875 24.609375 -1.421875 
Q 20.21875 -1.421875 15.453125 -0.5625 
Q 10.6875 0.296875 5.421875 2 
L 5.421875 11.28125 
Q 10.40625 8.6875 15.234375 7.390625 
Q 20.0625 6.109375 24.8125 6.109375 
Q 31.15625 6.109375 34.5625 8.28125 
Q 37.984375 10.453125 37.984375 14.40625 
Q 37.984375 18.0625 35.515625 20.015625 
Q 33.0625 21.96875 24.703125 23.78125 
L 21.578125 24.515625 
Q 13.234375 26.265625 9.515625 29.90625 
Q 5.8125 33.546875 5.8125 39.890625 
Q 5.8125 47.609375 11.28125 51.796875 
Q 16.75 56 26.8125 56 
Q 31.78125 56 36.171875 55.265625 
Q 40.578125 54.546875 44.28125 53.078125 
z
" id="DejaVuSans-115"/>
     </defs>
     <g transform="translate(221.027031 184.948562)scale(0.1 -0.1)">
      <use xlink:href="#DejaVuSans-67"/>
      <use x="69.824219" xlink:href="#DejaVuSans-111"/>
      <use x="131.005859" xlink:href="#DejaVuSans-114"/>
      <use x="172.103516" xlink:href="#DejaVuSans-114"/>
      <use x="213.216797" xlink:href="#DejaVuSans-105"/>
      <use x="241" xlink:href="#DejaVuSans-100"/>
      <use x="304.476562" xlink:href="#DejaVuSans-97"/>
      <use x="365.755859" xlink:href="#DejaVuSans-115"/>
     </g>
    </g>
   </g>
   <g id="matplotlib.axis_2">
    <g id="ytick_1">
     <g id="line2d_13">
      <path clip-path="url(#paad332b97a)" d="M 46.08 150.807273 
L 437.76 150.807273 
" style="fill:none;stroke:#b0b0b0;stroke-linecap:square;stroke-width:0.8;"/>
     </g>
     <g id="line2d_14">
      <defs>
       <path d="M 0 0 
L -3.5 0 
" id="mdb973bd860" style="stroke:#000000;stroke-width:0.8;"/>
      </defs>
      <g>
       <use style="stroke:#000000;stroke-width:0.8;" x="46.08" xlink:href="#mdb973bd860" y="150.807273"/>
      </g>
     </g>
     <g id="text_8">
      <!-- 0.000000 -->
      <defs>
       <path d="M 10.6875 12.40625 
L 21 12.40625 
L 21 0 
L 10.6875 0 
z
" id="DejaVuSans-46"/>
      </defs>
      <g transform="translate(-8.635625 154.606491)scale(0.1 -0.1)">
       <use xlink:href="#DejaVuSans-48"/>
       <use x="63.623047" xlink:href="#DejaVuSans-46"/>
       <use x="95.410156" xlink:href="#DejaVuSans-48"/>
       <use x="159.033203" xlink:href="#DejaVuSans-48"/>
       <use x="222.65625" xlink:href="#DejaVuSans-48"/>
       <use x="286.279297" xlink:href="#DejaVuSans-48"/>
       <use x="349.902344" xlink:href="#DejaVuSans-48"/>
       <use x="413.525391" xlink:href="#DejaVuSans-48"/>
      </g>
     </g>
    </g>
    <g id="ytick_2">
     <g id="line2d_15">
      <path clip-path="url(#paad332b97a)" d="M 46.08 112.562377 
L 437.76 112.562377 
" style="fill:none;stroke:#b0b0b0;stroke-linecap:square;stroke-width:0.8;"/>
     </g>
     <g id="line2d_16">
      <g>
       <use style="stroke:#000000;stroke-width:0.8;" x="46.08" xlink:href="#mdb973bd860" y="112.562377"/>
      </g>
     </g>
     <g id="text_9">
      <!-- 0.000005 -->
      <defs>
       <path d="M 10.796875 72.90625 
L 49.515625 72.90625 
L 49.515625 64.59375 
L 19.828125 64.59375 
L 19.828125 46.734375 
Q 21.96875 47.46875 24.109375 47.828125 
Q 26.265625 48.1875 28.421875 48.1875 
Q 40.625 48.1875 47.75 41.5 
Q 54.890625 34.8125 54.890625 23.390625 
Q 54.890625 11.625 47.5625 5.09375 
Q 40.234375 -1.421875 26.90625 -1.421875 
Q 22.3125 -1.421875 17.546875 -0.640625 
Q 12.796875 0.140625 7.71875 1.703125 
L 7.71875 11.625 
Q 12.109375 9.234375 16.796875 8.0625 
Q 21.484375 6.890625 26.703125 6.890625 
Q 35.15625 6.890625 40.078125 11.328125 
Q 45.015625 15.765625 45.015625 23.390625 
Q 45.015625 31 40.078125 35.4375 
Q 35.15625 39.890625 26.703125 39.890625 
Q 22.75 39.890625 18.8125 39.015625 
Q 14.890625 38.140625 10.796875 36.28125 
z
" id="DejaVuSans-53"/>
      </defs>
      <g transform="translate(-8.635625 116.361596)scale(0.1 -0.1)">
       <use xlink:href="#DejaVuSans-48"/>
       <use x="63.623047" xlink:href="#DejaVuSans-46"/>
       <use x="95.410156" xlink:href="#DejaVuSans-48"/>
       <use x="159.033203" xlink:href="#DejaVuSans-48"/>
       <use x="222.65625" xlink:href="#DejaVuSans-48"/>
       <use x="286.279297" xlink:href="#DejaVuSans-48"/>
       <use x="349.902344" xlink:href="#DejaVuSans-48"/>
       <use x="413.525391" xlink:href="#DejaVuSans-53"/>
      </g>
     </g>
    </g>
    <g id="ytick_3">
     <g id="line2d_17">
      <path clip-path="url(#paad332b97a)" d="M 46.08 74.317481 
L 437.76 74.317481 
" style="fill:none;stroke:#b0b0b0;stroke-linecap:square;stroke-width:0.8;"/>
     </g>
     <g id="line2d_18">
      <g>
       <use style="stroke:#000000;stroke-width:0.8;" x="46.08" xlink:href="#mdb973bd860" y="74.317481"/>
      </g>
     </g>
     <g id="text_10">
      <!-- 0.000010 -->
      <g transform="translate(-8.635625 78.1167)scale(0.1 -0.1)">
       <use xlink:href="#DejaVuSans-48"/>
       <use x="63.623047" xlink:href="#DejaVuSans-46"/>
       <use x="95.410156" xlink:href="#DejaVuSans-48"/>
       <use x="159.033203" xlink:href="#DejaVuSans-48"/>
       <use x="222.65625" xlink:href="#DejaVuSans-48"/>
       <use x="286.279297" xlink:href="#DejaVuSans-48"/>
       <use x="349.902344" xlink:href="#DejaVuSans-49"/>
       <use x="413.525391" xlink:href="#DejaVuSans-48"/>
      </g>
     </g>
    </g>
    <g id="ytick_4">
     <g id="line2d_19">
      <path clip-path="url(#paad332b97a)" d="M 46.08 36.072585 
L 437.76 36.072585 
" style="fill:none;stroke:#b0b0b0;stroke-linecap:square;stroke-width:0.8;"/>
     </g>
     <g id="line2d_20">
      <g>
       <use style="stroke:#000000;stroke-width:0.8;" x="46.08" xlink:href="#mdb973bd860" y="36.072585"/>
      </g>
     </g>
     <g id="text_11">
      <!-- 0.000015 -->
      <g transform="translate(-8.635625 39.871804)scale(0.1 -0.1)">
       <use xlink:href="#DejaVuSans-48"/>
       <use x="63.623047" xlink:href="#DejaVuSans-46"/>
       <use x="95.410156" xlink:href="#DejaVuSans-48"/>
       <use x="159.033203" xlink:href="#DejaVuSans-48"/>
       <use x="222.65625" xlink:href="#DejaVuSans-48"/>
       <use x="286.279297" xlink:href="#DejaVuSans-48"/>
       <use x="349.902344" xlink:href="#DejaVuSans-49"/>
       <use x="413.525391" xlink:href="#DejaVuSans-53"/>
      </g>
     </g>
    </g>
    <g id="text_12">
     <!-- Demora -->
     <defs>
      <path d="M 19.671875 64.796875 
L 19.671875 8.109375 
L 31.59375 8.109375 
Q 46.6875 8.109375 53.6875 14.9375 
Q 60.6875 21.78125 60.6875 36.53125 
Q 60.6875 51.171875 53.6875 57.984375 
Q 46.6875 64.796875 31.59375 64.796875 
z
M 9.8125 72.90625 
L 30.078125 72.90625 
Q 51.265625 72.90625 61.171875 64.09375 
Q 71.09375 55.28125 71.09375 36.53125 
Q 71.09375 17.671875 61.125 8.828125 
Q 51.171875 0 30.078125 0 
L 9.8125 0 
z
" id="DejaVuSans-68"/>
      <path d="M 56.203125 29.59375 
L 56.203125 25.203125 
L 14.890625 25.203125 
Q 15.484375 15.921875 20.484375 11.0625 
Q 25.484375 6.203125 34.421875 6.203125 
Q 39.59375 6.203125 44.453125 7.46875 
Q 49.3125 8.734375 54.109375 11.28125 
L 54.109375 2.78125 
Q 49.265625 0.734375 44.1875 -0.34375 
Q 39.109375 -1.421875 33.890625 -1.421875 
Q 20.796875 -1.421875 13.15625 6.1875 
Q 5.515625 13.8125 5.515625 26.8125 
Q 5.515625 40.234375 12.765625 48.109375 
Q 20.015625 56 32.328125 56 
Q 43.359375 56 49.78125 48.890625 
Q 56.203125 41.796875 56.203125 29.59375 
z
M 47.21875 32.234375 
Q 47.125 39.59375 43.09375 43.984375 
Q 39.0625 48.390625 32.421875 48.390625 
Q 24.90625 48.390625 20.390625 44.140625 
Q 15.875 39.890625 15.1875 32.171875 
z
" id="DejaVuSans-101"/>
      <path d="M 52 44.1875 
Q 55.375 50.25 60.0625 53.125 
Q 64.75 56 71.09375 56 
Q 79.640625 56 84.28125 50.015625 
Q 88.921875 44.046875 88.921875 33.015625 
L 88.921875 0 
L 79.890625 0 
L 79.890625 32.71875 
Q 79.890625 40.578125 77.09375 44.375 
Q 74.3125 48.1875 68.609375 48.1875 
Q 61.625 48.1875 57.5625 43.546875 
Q 53.515625 38.921875 53.515625 30.90625 
L 53.515625 0 
L 44.484375 0 
L 44.484375 32.71875 
Q 44.484375 40.625 41.703125 44.40625 
Q 38.921875 48.1875 33.109375 48.1875 
Q 26.21875 48.1875 22.15625 43.53125 
Q 18.109375 38.875 18.109375 30.90625 
L 18.109375 0 
L 9.078125 0 
L 9.078125 54.6875 
L 18.109375 54.6875 
L 18.109375 46.1875 
Q 21.1875 51.21875 25.484375 53.609375 
Q 29.78125 56 35.6875 56 
Q 41.65625 56 45.828125 52.96875 
Q 50 49.953125 52 44.1875 
z
" id="DejaVuSans-109"/>
     </defs>
     <g transform="translate(-14.715312 112.135781)rotate(-90)scale(0.1 -0.1)">
      <use xlink:href="#DejaVuSans-68"/>
      <use x="77.001953" xlink:href="#DejaVuSans-101"/>
      <use x="138.525391" xlink:href="#DejaVuSans-109"/>
      <use x="235.9375" xlink:href="#DejaVuSans-111"/>
      <use x="297.119141" xlink:href="#DejaVuSans-114"/>
      <use x="338.232422" xlink:href="#DejaVuSans-97"/>
     </g>
    </g>
   </g>
   <g id="line2d_21">
    <path clip-path="url(#paad332b97a)" d="M 63.883636 150.807273 
L 64.596495 150.807273 
L 64.952924 33.512727 
L 65.309353 56.971636 
L 66.022211 83.781818 
L 66.37864 92.16 
L 66.73507 86.944356 
L 67.447928 98.555795 
L 67.804357 102.910085 
L 68.160786 97.788421 
L 68.873645 104.857601 
L 69.586503 110.263445 
L 70.65579 116.345019 
L 71.725078 120.840096 
L 72.794365 124.297847 
L 73.863653 127.040201 
L 74.93294 129.268364 
L 76.358657 131.661576 
L 77.784373 133.576146 
L 79.21009 135.142612 
L 80.992236 136.741047 
L 82.061523 137.55256 
L 82.417952 135.114422 
L 84.200098 136.467254 
L 86.338673 137.811631 
L 87.407961 138.393526 
L 87.76439 132.838993 
L 88.477248 133.352372 
L 88.833677 126.313853 
L 90.972252 128.222431 
L 93.110827 129.85507 
L 95.605831 131.484686 
L 95.96226 131.539239 
L 98.457265 132.915527 
L 98.813694 128.045108 
L 101.665127 129.746952 
L 104.160131 131.04013 
L 104.51656 130.857332 
L 106.298706 131.68858 
L 106.655135 126.965024 
L 109.862998 128.615642 
L 112.358002 129.749521 
L 112.714431 124.074847 
L 113.427289 124.456738 
L 113.783718 120.183952 
L 117.34801 122.211986 
L 120.912301 123.988091 
L 123.763735 125.257638 
L 124.120164 124.891842 
L 128.397314 126.600551 
L 128.753743 126.732829 
L 129.110172 126.444727 
L 129.466601 126.576416 
L 129.82303 126.401776 
L 133.743751 127.764519 
L 134.10018 122.547549 
L 138.733759 124.28867 
L 139.090188 124.413757 
L 139.446618 118.013829 
L 141.941622 119.057257 
L 142.298051 116.239543 
L 143.367338 116.702503 
L 143.723767 112.753713 
L 144.080197 110.977545 
L 148.713776 113.144015 
L 149.070205 112.924168 
L 151.20878 113.746347 
L 155.48593 115.470111 
L 155.842359 111.337582 
L 159.40665 112.804856 
L 159.763079 112.199638 
L 165.465946 114.359506 
L 171.525242 116.40443 
L 171.881671 116.517597 
L 172.2381 116.263562 
L 175.445962 117.253668 
L 175.802391 116.509436 
L 180.079541 117.696889 
L 181.861687 118.195539 
L 182.218116 115.759916 
L 182.930975 115.969154 
L 183.287404 110.605585 
L 183.643833 107.244674 
L 185.425979 107.881554 
L 185.782408 106.493905 
L 186.495266 106.750794 
L 186.851695 100.839826 
L 189.703129 101.969034 
L 190.059558 100.082913 
L 193.980278 101.564433 
L 194.336708 99.760246 
L 194.693137 99.392255 
L 195.049566 98.375758 
L 195.405995 98.517464 
L 195.762424 96.595548 
L 196.475283 96.886227 
L 196.831712 93.504263 
L 203.247437 96.135524 
L 204.316724 96.550752 
L 204.673153 95.710389 
L 205.386011 95.987258 
L 205.742441 94.898409 
L 207.524586 95.59035 
L 207.881016 92.9768 
L 209.663161 93.68205 
L 210.01959 90.764286 
L 211.088878 91.19938 
L 211.445307 87.819263 
L 217.148174 90.157565 
L 217.504603 89.91303 
L 221.068894 91.290728 
L 221.425324 91.05197 
L 227.484619 93.260318 
L 227.841048 92.024913 
L 231.40534 93.272946 
L 231.761769 88.921476 
L 232.831057 89.312333 
L 233.187486 89.310041 
L 235.326061 90.075567 
L 235.68249 88.476386 
L 236.751777 88.861145 
L 237.108206 88.500955 
L 242.098215 90.24205 
L 242.454644 89.363637 
L 243.88036 89.849358 
L 244.23679 88.131065 
L 245.662506 88.621681 
L 246.018935 88.600679 
L 247.801081 89.20229 
L 248.15751 88.980891 
L 249.939656 89.571965 
L 250.652514 89.091821 
L 258.850385 91.682068 
L 264.196822 93.25734 
L 264.553251 91.840301 
L 270.612547 93.551345 
L 270.968976 92.589847 
L 272.751122 93.085737 
L 273.107551 91.056992 
L 274.533268 91.46071 
L 274.889697 91.118346 
L 277.74113 91.912874 
L 278.097559 91.795868 
L 279.879705 92.281959 
L 280.236134 91.273861 
L 284.869713 92.520132 
L 285.226143 92.216568 
L 285.582572 90.684535 
L 295.562588 93.27046 
L 299.12688 94.140911 
L 299.483309 91.471578 
L 303.0476 92.354549 
L 303.404029 87.970528 
L 309.819754 89.607375 
L 310.176183 88.895572 
L 314.096904 89.864319 
L 314.453333 89.209007 
L 318.017625 90.071728 
L 318.374054 89.827312 
L 327.997641 92.04626 
L 328.35407 91.257332 
L 332.63122 92.203822 
L 332.987649 91.716267 
L 339.046945 93.01581 
L 339.403374 92.818057 
L 340.116233 92.967514 
L 340.472662 92.238457 
L 342.967666 92.761393 
L 343.324095 92.576851 
L 354.01697 94.688685 
L 354.729828 94.826062 
L 355.086257 93.715216 
L 356.511974 93.918737 
L 356.868403 93.442567 
L 357.581261 93.581633 
L 357.93769 93.367094 
L 360.789124 93.918079 
L 361.145553 93.866251 
L 365.066274 94.556329 
L 365.422703 93.00062 
L 365.779132 93.068788 
L 366.135561 92.769931 
L 367.204848 92.974287 
L 367.561278 91.539475 
L 369.343423 91.884858 
L 369.699853 90.613979 
L 376.828436 91.961054 
L 377.184865 91.627737 
L 383.60059 92.7415 
L 384.669877 92.889427 
L 385.026306 92.584467 
L 387.164881 92.969199 
L 387.52131 91.855928 
L 387.87774 91.61059 
L 393.224177 92.481916 
L 393.580606 91.668205 
L 394.293464 91.795659 
L 394.649894 91.236943 
L 402.847764 92.676142 
L 403.204193 91.853447 
L 406.055627 92.344218 
L 406.412056 91.106574 
L 408.550631 91.403859 
L 408.90706 90.625506 
L 409.619918 90.749464 
L 409.976347 89.044297 
L 411.758493 89.360382 
L 412.114922 88.84205 
L 418.174218 89.838387 
L 418.530647 89.333439 
L 418.887076 89.274295 
L 419.956364 89.458894 
L 419.956364 89.458894 
" style="fill:none;stroke:#1f77b4;stroke-linecap:square;stroke-width:1.5;"/>
   </g>
   <g id="patch_3">
    <path d="M 46.08 156.672 
L 46.08 27.648 
" style="fill:none;stroke:#000000;stroke-linecap:square;stroke-linejoin:miter;stroke-width:0.8;"/>
   </g>
   <g id="patch_4">
    <path d="M 437.76 156.672 
L 437.76 27.648 
" style="fill:none;stroke:#000000;stroke-linecap:square;stroke-linejoin:miter;stroke-width:0.8;"/>
   </g>
   <g id="patch_5">
    <path d="M 46.08 156.672 
L 437.76 156.672 
" style="fill:none;stroke:#000000;stroke-linecap:square;stroke-linejoin:miter;stroke-width:0.8;"/>
   </g>
   <g id="patch_6">
    <path d="M 46.08 27.648 
L 437.76 27.648 
" style="fill:none;stroke:#000000;stroke-linecap:square;stroke-linejoin:miter;stroke-width:0.8;"/>
   </g>
   <g id="text_13">
    <!-- Demora promedio en cola A -->
    <defs>
     <path id="DejaVuSans-32"/>
     <path d="M 18.109375 8.203125 
L 18.109375 -20.796875 
L 9.078125 -20.796875 
L 9.078125 54.6875 
L 18.109375 54.6875 
L 18.109375 46.390625 
Q 20.953125 51.265625 25.265625 53.625 
Q 29.59375 56 35.59375 56 
Q 45.5625 56 51.78125 48.09375 
Q 58.015625 40.1875 58.015625 27.296875 
Q 58.015625 14.40625 51.78125 6.484375 
Q 45.5625 -1.421875 35.59375 -1.421875 
Q 29.59375 -1.421875 25.265625 0.953125 
Q 20.953125 3.328125 18.109375 8.203125 
z
M 48.6875 27.296875 
Q 48.6875 37.203125 44.609375 42.84375 
Q 40.53125 48.484375 33.40625 48.484375 
Q 26.265625 48.484375 22.1875 42.84375 
Q 18.109375 37.203125 18.109375 27.296875 
Q 18.109375 17.390625 22.1875 11.75 
Q 26.265625 6.109375 33.40625 6.109375 
Q 40.53125 6.109375 44.609375 11.75 
Q 48.6875 17.390625 48.6875 27.296875 
z
" id="DejaVuSans-112"/>
     <path d="M 54.890625 33.015625 
L 54.890625 0 
L 45.90625 0 
L 45.90625 32.71875 
Q 45.90625 40.484375 42.875 44.328125 
Q 39.84375 48.1875 33.796875 48.1875 
Q 26.515625 48.1875 22.3125 43.546875 
Q 18.109375 38.921875 18.109375 30.90625 
L 18.109375 0 
L 9.078125 0 
L 9.078125 54.6875 
L 18.109375 54.6875 
L 18.109375 46.1875 
Q 21.34375 51.125 25.703125 53.5625 
Q 30.078125 56 35.796875 56 
Q 45.21875 56 50.046875 50.171875 
Q 54.890625 44.34375 54.890625 33.015625 
z
" id="DejaVuSans-110"/>
     <path d="M 48.78125 52.59375 
L 48.78125 44.1875 
Q 44.96875 46.296875 41.140625 47.34375 
Q 37.3125 48.390625 33.40625 48.390625 
Q 24.65625 48.390625 19.8125 42.84375 
Q 14.984375 37.3125 14.984375 27.296875 
Q 14.984375 17.28125 19.8125 11.734375 
Q 24.65625 6.203125 33.40625 6.203125 
Q 37.3125 6.203125 41.140625 7.25 
Q 44.96875 8.296875 48.78125 10.40625 
L 48.78125 2.09375 
Q 45.015625 0.34375 40.984375 -0.53125 
Q 36.96875 -1.421875 32.421875 -1.421875 
Q 20.0625 -1.421875 12.78125 6.34375 
Q 5.515625 14.109375 5.515625 27.296875 
Q 5.515625 40.671875 12.859375 48.328125 
Q 20.21875 56 33.015625 56 
Q 37.15625 56 41.109375 55.140625 
Q 45.0625 54.296875 48.78125 52.59375 
z
" id="DejaVuSans-99"/>
     <path d="M 9.421875 75.984375 
L 18.40625 75.984375 
L 18.40625 0 
L 9.421875 0 
z
" id="DejaVuSans-108"/>
     <path d="M 34.1875 63.1875 
L 20.796875 26.90625 
L 47.609375 26.90625 
z
M 28.609375 72.90625 
L 39.796875 72.90625 
L 67.578125 0 
L 57.328125 0 
L 50.6875 18.703125 
L 17.828125 18.703125 
L 11.1875 0 
L 0.78125 0 
z
" id="DejaVuSans-65"/>
    </defs>
    <g transform="translate(157.780313 21.648)scale(0.12 -0.12)">
     <use xlink:href="#DejaVuSans-68"/>
     <use x="77.001953" xlink:href="#DejaVuSans-101"/>
     <use x="138.525391" xlink:href="#DejaVuSans-109"/>
     <use x="235.9375" xlink:href="#DejaVuSans-111"/>
     <use x="297.119141" xlink:href="#DejaVuSans-114"/>
     <use x="338.232422" xlink:href="#DejaVuSans-97"/>
     <use x="399.511719" xlink:href="#DejaVuSans-32"/>
     <use x="431.298828" xlink:href="#DejaVuSans-112"/>
     <use x="494.775391" xlink:href="#DejaVuSans-114"/>
     <use x="535.857422" xlink:href="#DejaVuSans-111"/>
     <use x="597.039062" xlink:href="#DejaVuSans-109"/>
     <use x="694.451172" xlink:href="#DejaVuSans-101"/>
     <use x="755.974609" xlink:href="#DejaVuSans-100"/>
     <use x="819.451172" xlink:href="#DejaVuSans-105"/>
     <use x="847.234375" xlink:href="#DejaVuSans-111"/>
     <use x="908.416016" xlink:href="#DejaVuSans-32"/>
     <use x="940.203125" xlink:href="#DejaVuSans-101"/>
     <use x="1001.726562" xlink:href="#DejaVuSans-110"/>
     <use x="1065.105469" xlink:href="#DejaVuSans-32"/>
     <use x="1096.892578" xlink:href="#DejaVuSans-99"/>
     <use x="1151.873047" xlink:href="#DejaVuSans-111"/>
     <use x="1213.054688" xlink:href="#DejaVuSans-108"/>
     <use x="1240.837891" xlink:href="#DejaVuSans-97"/>
     <use x="1302.117188" xlink:href="#DejaVuSans-32"/>
     <use x="1333.904297" xlink:href="#DejaVuSans-65"/>
    </g>
   </g>
  </g>
  <g id="axes_2">
   <g id="patch_7">
    <path d="M 46.08 317.952 
L 212.75234 317.952 
L 212.75234 188.928 
L 46.08 188.928 
z
" style="fill:#ffffff;"/>
   </g>
   <g id="matplotlib.axis_3">
    <g id="xtick_7">
     <g id="line2d_22">
      <path clip-path="url(#p80ab464b45)" d="M 53.504343 317.952 
L 53.504343 188.928 
" style="fill:none;stroke:#b0b0b0;stroke-linecap:square;stroke-width:0.8;"/>
     </g>
     <g id="line2d_23">
      <g>
       <use style="stroke:#000000;stroke-width:0.8;" x="53.504343" xlink:href="#md6c95e5f98" y="317.952"/>
      </g>
     </g>
     <g id="text_14">
      <!-- 0 -->
      <g transform="translate(50.323093 332.550437)scale(0.1 -0.1)">
       <use xlink:href="#DejaVuSans-48"/>
      </g>
     </g>
    </g>
    <g id="xtick_8">
     <g id="line2d_24">
      <path clip-path="url(#p80ab464b45)" d="M 91.422339 317.952 
L 91.422339 188.928 
" style="fill:none;stroke:#b0b0b0;stroke-linecap:square;stroke-width:0.8;"/>
     </g>
     <g id="line2d_25">
      <g>
       <use style="stroke:#000000;stroke-width:0.8;" x="91.422339" xlink:href="#md6c95e5f98" y="317.952"/>
      </g>
     </g>
     <g id="text_15">
      <!-- 250 -->
      <g transform="translate(81.878589 332.550437)scale(0.1 -0.1)">
       <use xlink:href="#DejaVuSans-50"/>
       <use x="63.623047" xlink:href="#DejaVuSans-53"/>
       <use x="127.246094" xlink:href="#DejaVuSans-48"/>
      </g>
     </g>
    </g>
    <g id="xtick_9">
     <g id="line2d_26">
      <path clip-path="url(#p80ab464b45)" d="M 129.340334 317.952 
L 129.340334 188.928 
" style="fill:none;stroke:#b0b0b0;stroke-linecap:square;stroke-width:0.8;"/>
     </g>
     <g id="line2d_27">
      <g>
       <use style="stroke:#000000;stroke-width:0.8;" x="129.340334" xlink:href="#md6c95e5f98" y="317.952"/>
      </g>
     </g>
     <g id="text_16">
      <!-- 500 -->
      <g transform="translate(119.796584 332.550437)scale(0.1 -0.1)">
       <use xlink:href="#DejaVuSans-53"/>
       <use x="63.623047" xlink:href="#DejaVuSans-48"/>
       <use x="127.246094" xlink:href="#DejaVuSans-48"/>
      </g>
     </g>
    </g>
    <g id="xtick_10">
     <g id="line2d_28">
      <path clip-path="url(#p80ab464b45)" d="M 167.25833 317.952 
L 167.25833 188.928 
" style="fill:none;stroke:#b0b0b0;stroke-linecap:square;stroke-width:0.8;"/>
     </g>
     <g id="line2d_29">
      <g>
       <use style="stroke:#000000;stroke-width:0.8;" x="167.25833" xlink:href="#md6c95e5f98" y="317.952"/>
      </g>
     </g>
     <g id="text_17">
      <!-- 750 -->
      <defs>
       <path d="M 8.203125 72.90625 
L 55.078125 72.90625 
L 55.078125 68.703125 
L 28.609375 0 
L 18.3125 0 
L 43.21875 64.59375 
L 8.203125 64.59375 
z
" id="DejaVuSans-55"/>
      </defs>
      <g transform="translate(157.71458 332.550437)scale(0.1 -0.1)">
       <use xlink:href="#DejaVuSans-55"/>
       <use x="63.623047" xlink:href="#DejaVuSans-53"/>
       <use x="127.246094" xlink:href="#DejaVuSans-48"/>
      </g>
     </g>
    </g>
    <g id="xtick_11">
     <g id="line2d_30">
      <path clip-path="url(#p80ab464b45)" d="M 205.176325 317.952 
L 205.176325 188.928 
" style="fill:none;stroke:#b0b0b0;stroke-linecap:square;stroke-width:0.8;"/>
     </g>
     <g id="line2d_31">
      <g>
       <use style="stroke:#000000;stroke-width:0.8;" x="205.176325" xlink:href="#md6c95e5f98" y="317.952"/>
      </g>
     </g>
     <g id="text_18">
      <!-- 1000 -->
      <g transform="translate(192.451325 332.550437)scale(0.1 -0.1)">
       <use xlink:href="#DejaVuSans-49"/>
       <use x="63.623047" xlink:href="#DejaVuSans-48"/>
       <use x="127.246094" xlink:href="#DejaVuSans-48"/>
       <use x="190.869141" xlink:href="#DejaVuSans-48"/>
      </g>
     </g>
    </g>
    <g id="text_19">
     <!-- Corridas -->
     <g transform="translate(108.523201 346.228563)scale(0.1 -0.1)">
      <use xlink:href="#DejaVuSans-67"/>
      <use x="69.824219" xlink:href="#DejaVuSans-111"/>
      <use x="131.005859" xlink:href="#DejaVuSans-114"/>
      <use x="172.103516" xlink:href="#DejaVuSans-114"/>
      <use x="213.216797" xlink:href="#DejaVuSans-105"/>
      <use x="241" xlink:href="#DejaVuSans-100"/>
      <use x="304.476562" xlink:href="#DejaVuSans-97"/>
      <use x="365.755859" xlink:href="#DejaVuSans-115"/>
     </g>
    </g>
   </g>
   <g id="matplotlib.axis_4">
    <g id="ytick_5">
     <g id="line2d_32">
      <path clip-path="url(#p80ab464b45)" d="M 46.08 314.97585 
L 212.75234 314.97585 
" style="fill:none;stroke:#b0b0b0;stroke-linecap:square;stroke-width:0.8;"/>
     </g>
     <g id="line2d_33">
      <g>
       <use style="stroke:#000000;stroke-width:0.8;" x="46.08" xlink:href="#mdb973bd860" y="314.97585"/>
      </g>
     </g>
     <g id="text_20">
      <!-- 0.035 -->
      <defs>
       <path d="M 40.578125 39.3125 
Q 47.65625 37.796875 51.625 33 
Q 55.609375 28.21875 55.609375 21.1875 
Q 55.609375 10.40625 48.1875 4.484375 
Q 40.765625 -1.421875 27.09375 -1.421875 
Q 22.515625 -1.421875 17.65625 -0.515625 
Q 12.796875 0.390625 7.625 2.203125 
L 7.625 11.71875 
Q 11.71875 9.328125 16.59375 8.109375 
Q 21.484375 6.890625 26.8125 6.890625 
Q 36.078125 6.890625 40.9375 10.546875 
Q 45.796875 14.203125 45.796875 21.1875 
Q 45.796875 27.640625 41.28125 31.265625 
Q 36.765625 34.90625 28.71875 34.90625 
L 20.21875 34.90625 
L 20.21875 43.015625 
L 29.109375 43.015625 
Q 36.375 43.015625 40.234375 45.921875 
Q 44.09375 48.828125 44.09375 54.296875 
Q 44.09375 59.90625 40.109375 62.90625 
Q 36.140625 65.921875 28.71875 65.921875 
Q 24.65625 65.921875 20.015625 65.03125 
Q 15.375 64.15625 9.8125 62.3125 
L 9.8125 71.09375 
Q 15.4375 72.65625 20.34375 73.4375 
Q 25.25 74.21875 29.59375 74.21875 
Q 40.828125 74.21875 47.359375 69.109375 
Q 53.90625 64.015625 53.90625 55.328125 
Q 53.90625 49.265625 50.4375 45.09375 
Q 46.96875 40.921875 40.578125 39.3125 
z
" id="DejaVuSans-51"/>
      </defs>
      <g transform="translate(10.451875 318.775069)scale(0.1 -0.1)">
       <use xlink:href="#DejaVuSans-48"/>
       <use x="63.623047" xlink:href="#DejaVuSans-46"/>
       <use x="95.410156" xlink:href="#DejaVuSans-48"/>
       <use x="159.033203" xlink:href="#DejaVuSans-51"/>
       <use x="222.65625" xlink:href="#DejaVuSans-53"/>
      </g>
     </g>
    </g>
    <g id="ytick_6">
     <g id="line2d_34">
      <path clip-path="url(#p80ab464b45)" d="M 46.08 290.411743 
L 212.75234 290.411743 
" style="fill:none;stroke:#b0b0b0;stroke-linecap:square;stroke-width:0.8;"/>
     </g>
     <g id="line2d_35">
      <g>
       <use style="stroke:#000000;stroke-width:0.8;" x="46.08" xlink:href="#mdb973bd860" y="290.411743"/>
      </g>
     </g>
     <g id="text_21">
      <!-- 0.040 -->
      <g transform="translate(10.451875 294.210962)scale(0.1 -0.1)">
       <use xlink:href="#DejaVuSans-48"/>
       <use x="63.623047" xlink:href="#DejaVuSans-46"/>
       <use x="95.410156" xlink:href="#DejaVuSans-48"/>
       <use x="159.033203" xlink:href="#DejaVuSans-52"/>
       <use x="222.65625" xlink:href="#DejaVuSans-48"/>
      </g>
     </g>
    </g>
    <g id="ytick_7">
     <g id="line2d_36">
      <path clip-path="url(#p80ab464b45)" d="M 46.08 265.847635 
L 212.75234 265.847635 
" style="fill:none;stroke:#b0b0b0;stroke-linecap:square;stroke-width:0.8;"/>
     </g>
     <g id="line2d_37">
      <g>
       <use style="stroke:#000000;stroke-width:0.8;" x="46.08" xlink:href="#mdb973bd860" y="265.847635"/>
      </g>
     </g>
     <g id="text_22">
      <!-- 0.045 -->
      <g transform="translate(10.451875 269.646854)scale(0.1 -0.1)">
       <use xlink:href="#DejaVuSans-48"/>
       <use x="63.623047" xlink:href="#DejaVuSans-46"/>
       <use x="95.410156" xlink:href="#DejaVuSans-48"/>
       <use x="159.033203" xlink:href="#DejaVuSans-52"/>
       <use x="222.65625" xlink:href="#DejaVuSans-53"/>
      </g>
     </g>
    </g>
    <g id="ytick_8">
     <g id="line2d_38">
      <path clip-path="url(#p80ab464b45)" d="M 46.08 241.283528 
L 212.75234 241.283528 
" style="fill:none;stroke:#b0b0b0;stroke-linecap:square;stroke-width:0.8;"/>
     </g>
     <g id="line2d_39">
      <g>
       <use style="stroke:#000000;stroke-width:0.8;" x="46.08" xlink:href="#mdb973bd860" y="241.283528"/>
      </g>
     </g>
     <g id="text_23">
      <!-- 0.050 -->
      <g transform="translate(10.451875 245.082747)scale(0.1 -0.1)">
       <use xlink:href="#DejaVuSans-48"/>
       <use x="63.623047" xlink:href="#DejaVuSans-46"/>
       <use x="95.410156" xlink:href="#DejaVuSans-48"/>
       <use x="159.033203" xlink:href="#DejaVuSans-53"/>
       <use x="222.65625" xlink:href="#DejaVuSans-48"/>
      </g>
     </g>
    </g>
    <g id="ytick_9">
     <g id="line2d_40">
      <path clip-path="url(#p80ab464b45)" d="M 46.08 216.719421 
L 212.75234 216.719421 
" style="fill:none;stroke:#b0b0b0;stroke-linecap:square;stroke-width:0.8;"/>
     </g>
     <g id="line2d_41">
      <g>
       <use style="stroke:#000000;stroke-width:0.8;" x="46.08" xlink:href="#mdb973bd860" y="216.719421"/>
      </g>
     </g>
     <g id="text_24">
      <!-- 0.055 -->
      <g transform="translate(10.451875 220.518639)scale(0.1 -0.1)">
       <use xlink:href="#DejaVuSans-48"/>
       <use x="63.623047" xlink:href="#DejaVuSans-46"/>
       <use x="95.410156" xlink:href="#DejaVuSans-48"/>
       <use x="159.033203" xlink:href="#DejaVuSans-53"/>
       <use x="222.65625" xlink:href="#DejaVuSans-53"/>
      </g>
     </g>
    </g>
    <g id="ytick_10">
     <g id="line2d_42">
      <path clip-path="url(#p80ab464b45)" d="M 46.08 192.155313 
L 212.75234 192.155313 
" style="fill:none;stroke:#b0b0b0;stroke-linecap:square;stroke-width:0.8;"/>
     </g>
     <g id="line2d_43">
      <g>
       <use style="stroke:#000000;stroke-width:0.8;" x="46.08" xlink:href="#mdb973bd860" y="192.155313"/>
      </g>
     </g>
     <g id="text_25">
      <!-- 0.060 -->
      <g transform="translate(10.451875 195.954532)scale(0.1 -0.1)">
       <use xlink:href="#DejaVuSans-48"/>
       <use x="63.623047" xlink:href="#DejaVuSans-46"/>
       <use x="95.410156" xlink:href="#DejaVuSans-48"/>
       <use x="159.033203" xlink:href="#DejaVuSans-54"/>
       <use x="222.65625" xlink:href="#DejaVuSans-48"/>
      </g>
     </g>
    </g>
    <g id="text_26">
     <!-- Demora -->
     <g transform="translate(4.372188 273.415781)rotate(-90)scale(0.1 -0.1)">
      <use xlink:href="#DejaVuSans-68"/>
      <use x="77.001953" xlink:href="#DejaVuSans-101"/>
      <use x="138.525391" xlink:href="#DejaVuSans-109"/>
      <use x="235.9375" xlink:href="#DejaVuSans-111"/>
      <use x="297.119141" xlink:href="#DejaVuSans-114"/>
      <use x="338.232422" xlink:href="#DejaVuSans-97"/>
     </g>
    </g>
   </g>
   <g id="line2d_44">
    <path clip-path="url(#p80ab464b45)" d="M 53.656015 312.087273 
L 54.111031 206.811172 
L 54.262703 202.728605 
L 54.414375 204.397708 
L 54.566047 204.537787 
L 54.717719 194.792727 
L 54.869391 204.913001 
L 55.021063 205.070603 
L 55.324407 203.713719 
L 55.476079 204.58048 
L 55.627751 212.162202 
L 55.779423 212.913664 
L 55.931095 210.845283 
L 56.234439 219.071802 
L 56.537783 217.582245 
L 56.689455 213.525913 
L 56.841127 214.51939 
L 57.144471 208.49644 
L 57.447815 217.920909 
L 57.599487 213.946842 
L 57.751159 214.00375 
L 58.054503 221.159045 
L 58.206175 221.023544 
L 58.661191 227.145203 
L 58.812863 226.885647 
L 59.116207 229.098622 
L 59.267879 228.520974 
L 59.571223 226.355685 
L 59.722895 226.620835 
L 59.874567 223.791938 
L 60.026239 223.469266 
L 60.632927 224.9979 
L 60.784599 224.679821 
L 60.936271 222.138319 
L 61.239615 223.651839 
L 61.391287 220.735176 
L 61.542959 220.824884 
L 61.69463 218.333843 
L 61.846302 219.098862 
L 61.997974 221.029595 
L 62.149646 217.738025 
L 62.45299 220.669248 
L 62.604662 219.923347 
L 62.756334 220.112237 
L 62.908006 220.543586 
L 63.059678 219.915005 
L 63.21135 217.358861 
L 63.363022 218.288289 
L 63.514694 217.46669 
L 63.666366 217.796158 
L 63.818038 217.751224 
L 63.96971 219.176873 
L 64.121382 219.354123 
L 64.273054 218.117734 
L 64.576398 220.942244 
L 64.72807 221.279711 
L 65.031414 222.928398 
L 65.183086 222.99471 
L 65.334758 220.852607 
L 65.48643 220.540575 
L 65.789774 218.329657 
L 65.941446 219.310522 
L 66.093118 218.145551 
L 66.548134 219.624662 
L 66.699806 218.129121 
L 66.851478 219.063623 
L 67.00315 218.956997 
L 67.458166 216.136287 
L 67.609838 216.142272 
L 67.913182 213.458357 
L 68.064854 214.132082 
L 68.216526 214.047582 
L 68.368198 213.581848 
L 68.671542 215.326566 
L 68.823214 215.883728 
L 69.126558 214.680086 
L 69.27823 215.267626 
L 69.733246 215.109797 
L 70.339933 215.91145 
L 70.491605 215.570578 
L 70.643277 215.872951 
L 70.946621 214.429177 
L 71.098293 215.306133 
L 71.249965 215.44402 
L 71.401637 215.066384 
L 71.553309 215.538934 
L 71.704981 216.382116 
L 71.856653 215.790157 
L 72.008325 215.730863 
L 72.311669 216.712428 
L 72.463341 216.841919 
L 72.615013 217.526368 
L 72.766685 217.570354 
L 72.918357 218.107684 
L 73.070029 217.920026 
L 73.221701 218.199565 
L 73.373373 218.22174 
L 73.676717 219.722065 
L 73.828389 219.94319 
L 73.980061 220.570717 
L 74.131733 220.389963 
L 74.283405 220.401489 
L 74.435077 220.822373 
L 74.586749 220.74487 
L 74.738421 220.864801 
L 75.041765 220.798496 
L 75.345109 221.518375 
L 75.496781 221.326118 
L 75.800125 222.231403 
L 75.951797 222.704313 
L 76.103469 222.373835 
L 76.255141 222.615997 
L 76.406813 223.442609 
L 76.558485 223.463716 
L 76.710157 223.738917 
L 76.861829 223.611454 
L 77.165173 224.567624 
L 77.316845 224.45519 
L 77.468517 224.538958 
L 77.620189 225.266387 
L 77.771861 225.018483 
L 78.075204 225.514547 
L 78.226876 224.3897 
L 78.378548 224.848884 
L 78.53022 224.788163 
L 78.833564 224.962566 
L 78.985236 225.239738 
L 79.136908 225.01991 
L 79.28858 224.395332 
L 79.591924 224.254657 
L 79.743596 223.927111 
L 80.04694 222.176295 
L 80.198612 222.243014 
L 80.350284 222.529231 
L 80.653628 221.162214 
L 80.8053 221.738573 
L 81.108644 221.876722 
L 81.715332 223.316531 
L 81.867004 223.04038 
L 82.018676 223.200074 
L 82.32202 223.01612 
L 82.473692 223.318861 
L 82.777036 223.171459 
L 82.928708 223.216185 
L 83.535396 221.603487 
L 83.687068 221.49499 
L 83.83874 221.708233 
L 83.990412 221.534313 
L 84.293756 221.661937 
L 84.5971 222.072684 
L 84.900444 221.723047 
L 85.35546 221.925368 
L 85.507132 221.852413 
L 85.962148 222.484421 
L 86.568835 222.222565 
L 86.872179 221.675445 
L 87.175523 221.989723 
L 87.327195 222.013435 
L 87.478867 221.683143 
L 87.630539 220.61314 
L 87.933883 221.090265 
L 88.085555 220.639818 
L 88.388899 219.357142 
L 88.540571 219.174033 
L 88.692243 219.260456 
L 88.843915 219.17362 
L 88.995587 219.369249 
L 89.147259 219.364681 
L 89.450603 219.050589 
L 89.602275 219.547415 
L 89.905619 218.868673 
L 90.208963 218.856501 
L 90.512307 219.31651 
L 90.663979 219.221967 
L 90.815651 219.513244 
L 90.967323 219.360648 
L 91.118995 219.386651 
L 91.270667 219.577417 
L 91.422339 219.517451 
L 91.574011 219.741199 
L 91.725683 219.69869 
L 91.877355 219.276328 
L 92.180699 219.036726 
L 92.484043 219.563583 
L 92.635715 219.595005 
L 92.787387 219.110003 
L 93.242403 219.051983 
L 93.394075 219.13559 
L 93.849091 218.657952 
L 94.000763 219.099724 
L 94.304107 218.800693 
L 94.455778 218.900647 
L 94.60745 218.682867 
L 94.759122 219.047902 
L 95.062466 218.567291 
L 95.214138 218.679547 
L 95.36581 217.682812 
L 95.669154 217.497672 
L 95.972498 218.050291 
L 96.12417 217.819424 
L 96.275842 218.000718 
L 96.427514 218.007957 
L 97.034202 218.785035 
L 97.792562 218.07858 
L 97.944234 218.150926 
L 98.39925 219.019184 
L 99.005938 219.240461 
L 99.15761 218.926354 
L 99.309282 219.017819 
L 99.612626 219.558889 
L 99.764298 219.394424 
L 99.91597 219.602785 
L 100.219314 218.73472 
L 100.370986 218.811937 
L 100.522658 218.57201 
L 100.977674 218.673406 
L 101.129346 218.033751 
L 101.281018 218.023129 
L 101.736034 217.57407 
L 101.887706 217.471505 
L 102.039378 217.581994 
L 102.494394 218.249406 
L 102.646065 218.527485 
L 102.797737 218.132616 
L 102.949409 218.049682 
L 103.101081 217.762365 
L 103.252753 217.905979 
L 103.556097 217.832594 
L 104.162785 218.025907 
L 104.466129 218.024527 
L 104.769473 218.125045 
L 104.921145 218.294314 
L 105.072817 218.293869 
L 105.376161 218.689994 
L 105.527833 218.538006 
L 106.134521 218.693168 
L 106.437865 219.022685 
L 106.741209 219.102077 
L 106.892881 219.179647 
L 107.044553 219.054427 
L 107.499569 219.517587 
L 107.802913 219.280566 
L 107.954585 219.462237 
L 108.106257 219.163067 
L 108.257929 219.26148 
L 108.409601 219.059888 
L 109.016289 219.584717 
L 109.622977 219.996375 
L 109.774649 220.296416 
L 109.926321 220.337896 
L 110.229665 220.795276 
L 110.684681 220.552049 
L 110.988024 220.723397 
L 111.291368 221.025281 
L 111.44304 221.055496 
L 111.594712 220.882605 
L 111.898056 221.254707 
L 112.353072 220.705494 
L 112.656416 220.963114 
L 112.808088 221.023152 
L 112.95976 220.757303 
L 113.111432 220.801536 
L 113.263104 220.590934 
L 113.414776 220.62758 
L 113.566448 220.540828 
L 113.869792 220.685361 
L 114.021464 221.103369 
L 114.779824 220.634747 
L 114.931496 220.786332 
L 115.386512 220.473817 
L 115.538184 220.596332 
L 115.841528 220.557473 
L 115.9932 220.501046 
L 116.903232 221.013217 
L 117.813264 220.432825 
L 117.964936 220.372971 
L 118.116608 220.520537 
L 118.723296 220.394075 
L 118.874968 220.5451 
L 119.026639 220.520409 
L 119.481655 221.036803 
L 119.633327 220.793896 
L 119.784999 220.801746 
L 119.936671 220.972196 
L 120.088343 220.840972 
L 120.846703 221.462861 
L 120.998375 221.501083 
L 121.150047 221.689477 
L 121.301719 221.639971 
L 121.605063 221.201223 
L 122.060079 221.876717 
L 122.211751 221.699002 
L 122.363423 221.701415 
L 122.666767 221.313223 
L 123.273455 221.591961 
L 123.576799 221.388756 
L 123.728471 221.596178 
L 123.880143 221.562247 
L 124.031815 221.699346 
L 124.183487 221.55725 
L 124.486831 221.683724 
L 124.790175 221.665014 
L 124.941847 221.680168 
L 125.093519 221.365702 
L 125.245191 221.390764 
L 125.548535 221.27331 
L 126.003551 221.272382 
L 126.155223 221.223848 
L 126.458567 221.499928 
L 126.761911 221.069398 
L 126.913583 221.091592 
L 127.065255 220.647041 
L 127.368598 220.759135 
L 127.52027 220.581337 
L 127.823614 220.678545 
L 127.975286 220.886113 
L 128.126958 220.772529 
L 128.430302 220.820781 
L 128.581974 220.582967 
L 129.188662 220.997314 
L 129.492006 220.969642 
L 129.643678 221.184467 
L 129.947022 220.882382 
L 130.250366 220.892456 
L 130.402038 220.970424 
L 130.705382 220.681345 
L 131.31207 221.124513 
L 131.615414 220.746233 
L 131.918758 220.970301 
L 132.07043 220.438558 
L 132.222102 220.392461 
L 132.373774 220.084566 
L 132.677118 220.173886 
L 132.980462 220.062141 
L 133.132134 220.100685 
L 133.283806 219.986911 
L 134.042166 220.111537 
L 134.193838 219.953555 
L 134.497182 220.048638 
L 134.648854 220.113301 
L 134.800526 220.306157 
L 134.952198 220.182934 
L 135.10387 220.337385 
L 135.407213 220.305347 
L 136.317245 221.153781 
L 136.620589 221.371718 
L 136.923933 221.592171 
L 137.075605 221.535573 
L 137.227277 221.677636 
L 137.378949 221.447967 
L 137.530621 221.470476 
L 137.682293 221.649563 
L 137.985637 221.521299 
L 138.137309 221.74117 
L 138.743997 221.468298 
L 139.199013 221.635714 
L 139.350685 221.528749 
L 139.502357 221.614718 
L 139.654029 221.877281 
L 139.957373 221.818864 
L 140.564061 221.713252 
L 141.625765 220.846458 
L 142.687469 221.401656 
L 142.990813 221.299048 
L 143.294157 221.600742 
L 143.5975 221.272521 
L 143.749172 221.292713 
L 143.900844 221.44732 
L 144.507532 220.961143 
L 144.810876 220.992782 
L 145.11422 220.904893 
L 145.417564 220.826124 
L 146.175924 221.048853 
L 146.327596 220.865757 
L 146.63094 221.103898 
L 147.3893 220.852742 
L 147.692644 220.674307 
L 147.995988 220.617819 
L 148.14766 220.47165 
L 148.299332 220.565118 
L 148.451004 220.517782 
L 148.754348 220.34586 
L 149.057692 220.510207 
L 149.512708 220.479053 
L 149.66438 220.573483 
L 149.816052 220.518814 
L 150.42274 220.782964 
L 150.726084 220.697792 
L 151.1811 220.916605 
L 151.332772 220.723962 
L 152.697819 221.062264 
L 152.849491 220.899951 
L 153.152835 220.887552 
L 153.304507 220.606135 
L 153.456179 220.59914 
L 153.607851 220.76213 
L 154.062867 220.624719 
L 154.366211 220.359866 
L 154.517883 220.295444 
L 155.427915 220.585832 
L 156.337947 220.823853 
L 156.641291 220.740189 
L 156.944635 220.711832 
L 157.096307 220.569676 
L 157.399651 220.692583 
L 157.854667 220.609928 
L 158.158011 220.801631 
L 158.309683 220.743048 
L 159.219715 221.245417 
L 159.826402 221.033785 
L 159.978074 221.142189 
L 160.736434 220.834076 
L 160.888106 220.571454 
L 161.646466 220.907223 
L 162.101482 221.00258 
L 163.011514 220.617582 
L 163.618202 221.098088 
L 163.769874 221.032704 
L 164.22489 221.184576 
L 164.528234 221.085343 
L 164.679906 221.058366 
L 164.831578 221.147221 
L 165.134922 221.022278 
L 165.286594 220.934363 
L 165.893282 221.183894 
L 166.044954 221.354024 
L 166.348298 221.150073 
L 166.954986 221.194104 
L 167.865018 221.084551 
L 168.016689 221.116038 
L 168.168361 220.982912 
L 168.320033 221.051097 
L 168.926721 220.898857 
L 170.291769 221.184423 
L 170.595113 221.013449 
L 172.718521 221.329948 
L 172.870193 221.180558 
L 173.021865 221.270088 
L 173.476881 221.040889 
L 173.628553 221.255466 
L 173.931897 221.136878 
L 174.235241 221.236114 
L 174.690257 221.087581 
L 174.841929 221.136495 
L 175.145273 220.912166 
L 175.600289 220.925631 
L 176.51032 221.416601 
L 176.813664 221.152398 
L 177.117008 221.113818 
L 177.420352 220.952873 
L 178.02704 220.511469 
L 179.088744 220.946229 
L 179.392088 220.837256 
L 179.695432 220.977278 
L 180.150448 221.005549 
L 180.453792 221.185608 
L 180.757136 221.219996 
L 181.06048 221.430008 
L 181.212152 221.336294 
L 181.515496 221.463243 
L 182.273856 221.458504 
L 182.5772 221.605976 
L 183.032216 221.497715 
L 183.183888 221.607854 
L 183.33556 221.430161 
L 184.397263 221.364481 
L 184.548935 221.278036 
L 184.852279 221.401835 
L 185.003951 221.459226 
L 185.458967 221.303043 
L 185.762311 221.310433 
L 186.520671 221.089939 
L 187.582375 221.290414 
L 188.189063 221.629251 
L 188.947423 221.685526 
L 189.250767 221.685213 
L 189.402439 221.706527 
L 189.857455 221.276042 
L 190.160799 221.274724 
L 190.919159 221.218521 
L 192.435879 221.359523 
L 192.58755 221.156307 
L 193.194238 221.362557 
L 193.649254 221.444666 
L 194.10427 221.558572 
L 194.559286 221.715973 
L 194.710958 221.683118 
L 194.86263 221.507452 
L 195.165974 221.61741 
L 195.772662 221.603008 
L 197.592726 221.769398 
L 198.047742 221.657476 
L 198.351086 221.693218 
L 199.109446 222.061336 
L 199.41279 221.942943 
L 200.17115 222.040433 
L 200.474494 221.863582 
L 200.626166 221.935271 
L 200.929509 221.776151 
L 201.232853 221.760636 
L 201.687869 221.596538 
L 202.142885 221.800629 
L 203.052917 221.823572 
L 203.659605 221.644607 
L 204.417965 221.759321 
L 204.569637 221.852523 
L 205.024653 221.824795 
L 205.176325 221.806843 
L 205.176325 221.806843 
" style="fill:none;stroke:#1f77b4;stroke-linecap:square;stroke-width:1.5;"/>
   </g>
   <g id="patch_8">
    <path d="M 46.08 317.952 
L 46.08 188.928 
" style="fill:none;stroke:#000000;stroke-linecap:square;stroke-linejoin:miter;stroke-width:0.8;"/>
   </g>
   <g id="patch_9">
    <path d="M 212.75234 317.952 
L 212.75234 188.928 
" style="fill:none;stroke:#000000;stroke-linecap:square;stroke-linejoin:miter;stroke-width:0.8;"/>
   </g>
   <g id="patch_10">
    <path d="M 46.08 317.952 
L 212.75234 317.952 
" style="fill:none;stroke:#000000;stroke-linecap:square;stroke-linejoin:miter;stroke-width:0.8;"/>
   </g>
   <g id="patch_11">
    <path d="M 46.08 188.928 
L 212.75234 188.928 
" style="fill:none;stroke:#000000;stroke-linecap:square;stroke-linejoin:miter;stroke-width:0.8;"/>
   </g>
   <g id="text_27">
    <!-- Demora promedio en cola C1 -->
    <g transform="translate(41.37367 182.928)scale(0.12 -0.12)">
     <use xlink:href="#DejaVuSans-68"/>
     <use x="77.001953" xlink:href="#DejaVuSans-101"/>
     <use x="138.525391" xlink:href="#DejaVuSans-109"/>
     <use x="235.9375" xlink:href="#DejaVuSans-111"/>
     <use x="297.119141" xlink:href="#DejaVuSans-114"/>
     <use x="338.232422" xlink:href="#DejaVuSans-97"/>
     <use x="399.511719" xlink:href="#DejaVuSans-32"/>
     <use x="431.298828" xlink:href="#DejaVuSans-112"/>
     <use x="494.775391" xlink:href="#DejaVuSans-114"/>
     <use x="535.857422" xlink:href="#DejaVuSans-111"/>
     <use x="597.039062" xlink:href="#DejaVuSans-109"/>
     <use x="694.451172" xlink:href="#DejaVuSans-101"/>
     <use x="755.974609" xlink:href="#DejaVuSans-100"/>
     <use x="819.451172" xlink:href="#DejaVuSans-105"/>
     <use x="847.234375" xlink:href="#DejaVuSans-111"/>
     <use x="908.416016" xlink:href="#DejaVuSans-32"/>
     <use x="940.203125" xlink:href="#DejaVuSans-101"/>
     <use x="1001.726562" xlink:href="#DejaVuSans-110"/>
     <use x="1065.105469" xlink:href="#DejaVuSans-32"/>
     <use x="1096.892578" xlink:href="#DejaVuSans-99"/>
     <use x="1151.873047" xlink:href="#DejaVuSans-111"/>
     <use x="1213.054688" xlink:href="#DejaVuSans-108"/>
     <use x="1240.837891" xlink:href="#DejaVuSans-97"/>
     <use x="1302.117188" xlink:href="#DejaVuSans-32"/>
     <use x="1333.904297" xlink:href="#DejaVuSans-67"/>
     <use x="1403.728516" xlink:href="#DejaVuSans-49"/>
    </g>
   </g>
  </g>
  <g id="axes_3">
   <g id="patch_12">
    <path d="M 271.08766 317.952 
L 437.76 317.952 
L 437.76 188.928 
L 271.08766 188.928 
z
" style="fill:#ffffff;"/>
   </g>
   <g id="matplotlib.axis_5">
    <g id="xtick_12">
     <g id="line2d_45">
      <path clip-path="url(#p922bdaab7e)" d="M 278.512003 317.952 
L 278.512003 188.928 
" style="fill:none;stroke:#b0b0b0;stroke-linecap:square;stroke-width:0.8;"/>
     </g>
     <g id="line2d_46">
      <g>
       <use style="stroke:#000000;stroke-width:0.8;" x="278.512003" xlink:href="#md6c95e5f98" y="317.952"/>
      </g>
     </g>
     <g id="text_28">
      <!-- 0 -->
      <g transform="translate(275.330753 332.550437)scale(0.1 -0.1)">
       <use xlink:href="#DejaVuSans-48"/>
      </g>
     </g>
    </g>
    <g id="xtick_13">
     <g id="line2d_47">
      <path clip-path="url(#p922bdaab7e)" d="M 316.429998 317.952 
L 316.429998 188.928 
" style="fill:none;stroke:#b0b0b0;stroke-linecap:square;stroke-width:0.8;"/>
     </g>
     <g id="line2d_48">
      <g>
       <use style="stroke:#000000;stroke-width:0.8;" x="316.429998" xlink:href="#md6c95e5f98" y="317.952"/>
      </g>
     </g>
     <g id="text_29">
      <!-- 250 -->
      <g transform="translate(306.886248 332.550437)scale(0.1 -0.1)">
       <use xlink:href="#DejaVuSans-50"/>
       <use x="63.623047" xlink:href="#DejaVuSans-53"/>
       <use x="127.246094" xlink:href="#DejaVuSans-48"/>
      </g>
     </g>
    </g>
    <g id="xtick_14">
     <g id="line2d_49">
      <path clip-path="url(#p922bdaab7e)" d="M 354.347994 317.952 
L 354.347994 188.928 
" style="fill:none;stroke:#b0b0b0;stroke-linecap:square;stroke-width:0.8;"/>
     </g>
     <g id="line2d_50">
      <g>
       <use style="stroke:#000000;stroke-width:0.8;" x="354.347994" xlink:href="#md6c95e5f98" y="317.952"/>
      </g>
     </g>
     <g id="text_30">
      <!-- 500 -->
      <g transform="translate(344.804244 332.550437)scale(0.1 -0.1)">
       <use xlink:href="#DejaVuSans-53"/>
       <use x="63.623047" xlink:href="#DejaVuSans-48"/>
       <use x="127.246094" xlink:href="#DejaVuSans-48"/>
      </g>
     </g>
    </g>
    <g id="xtick_15">
     <g id="line2d_51">
      <path clip-path="url(#p922bdaab7e)" d="M 392.265989 317.952 
L 392.265989 188.928 
" style="fill:none;stroke:#b0b0b0;stroke-linecap:square;stroke-width:0.8;"/>
     </g>
     <g id="line2d_52">
      <g>
       <use style="stroke:#000000;stroke-width:0.8;" x="392.265989" xlink:href="#md6c95e5f98" y="317.952"/>
      </g>
     </g>
     <g id="text_31">
      <!-- 750 -->
      <g transform="translate(382.722239 332.550437)scale(0.1 -0.1)">
       <use xlink:href="#DejaVuSans-55"/>
       <use x="63.623047" xlink:href="#DejaVuSans-53"/>
       <use x="127.246094" xlink:href="#DejaVuSans-48"/>
      </g>
     </g>
    </g>
    <g id="xtick_16">
     <g id="line2d_53">
      <path clip-path="url(#p922bdaab7e)" d="M 430.183985 317.952 
L 430.183985 188.928 
" style="fill:none;stroke:#b0b0b0;stroke-linecap:square;stroke-width:0.8;"/>
     </g>
     <g id="line2d_54">
      <g>
       <use style="stroke:#000000;stroke-width:0.8;" x="430.183985" xlink:href="#md6c95e5f98" y="317.952"/>
      </g>
     </g>
     <g id="text_32">
      <!-- 1000 -->
      <g transform="translate(417.458985 332.550437)scale(0.1 -0.1)">
       <use xlink:href="#DejaVuSans-49"/>
       <use x="63.623047" xlink:href="#DejaVuSans-48"/>
       <use x="127.246094" xlink:href="#DejaVuSans-48"/>
       <use x="190.869141" xlink:href="#DejaVuSans-48"/>
      </g>
     </g>
    </g>
    <g id="text_33">
     <!-- Corridas -->
     <g transform="translate(333.530861 346.228563)scale(0.1 -0.1)">
      <use xlink:href="#DejaVuSans-67"/>
      <use x="69.824219" xlink:href="#DejaVuSans-111"/>
      <use x="131.005859" xlink:href="#DejaVuSans-114"/>
      <use x="172.103516" xlink:href="#DejaVuSans-114"/>
      <use x="213.216797" xlink:href="#DejaVuSans-105"/>
      <use x="241" xlink:href="#DejaVuSans-100"/>
      <use x="304.476562" xlink:href="#DejaVuSans-97"/>
      <use x="365.755859" xlink:href="#DejaVuSans-115"/>
     </g>
    </g>
   </g>
   <g id="matplotlib.axis_6">
    <g id="ytick_11">
     <g id="line2d_55">
      <path clip-path="url(#p922bdaab7e)" d="M 271.08766 308.108216 
L 437.76 308.108216 
" style="fill:none;stroke:#b0b0b0;stroke-linecap:square;stroke-width:0.8;"/>
     </g>
     <g id="line2d_56">
      <g>
       <use style="stroke:#000000;stroke-width:0.8;" x="271.08766" xlink:href="#mdb973bd860" y="308.108216"/>
      </g>
     </g>
     <g id="text_34">
      <!-- 0.035 -->
      <g transform="translate(235.459535 311.907435)scale(0.1 -0.1)">
       <use xlink:href="#DejaVuSans-48"/>
       <use x="63.623047" xlink:href="#DejaVuSans-46"/>
       <use x="95.410156" xlink:href="#DejaVuSans-48"/>
       <use x="159.033203" xlink:href="#DejaVuSans-51"/>
       <use x="222.65625" xlink:href="#DejaVuSans-53"/>
      </g>
     </g>
    </g>
    <g id="ytick_12">
     <g id="line2d_57">
      <path clip-path="url(#p922bdaab7e)" d="M 271.08766 271.423629 
L 437.76 271.423629 
" style="fill:none;stroke:#b0b0b0;stroke-linecap:square;stroke-width:0.8;"/>
     </g>
     <g id="line2d_58">
      <g>
       <use style="stroke:#000000;stroke-width:0.8;" x="271.08766" xlink:href="#mdb973bd860" y="271.423629"/>
      </g>
     </g>
     <g id="text_35">
      <!-- 0.040 -->
      <g transform="translate(235.459535 275.222848)scale(0.1 -0.1)">
       <use xlink:href="#DejaVuSans-48"/>
       <use x="63.623047" xlink:href="#DejaVuSans-46"/>
       <use x="95.410156" xlink:href="#DejaVuSans-48"/>
       <use x="159.033203" xlink:href="#DejaVuSans-52"/>
       <use x="222.65625" xlink:href="#DejaVuSans-48"/>
      </g>
     </g>
    </g>
    <g id="ytick_13">
     <g id="line2d_59">
      <path clip-path="url(#p922bdaab7e)" d="M 271.08766 234.739043 
L 437.76 234.739043 
" style="fill:none;stroke:#b0b0b0;stroke-linecap:square;stroke-width:0.8;"/>
     </g>
     <g id="line2d_60">
      <g>
       <use style="stroke:#000000;stroke-width:0.8;" x="271.08766" xlink:href="#mdb973bd860" y="234.739043"/>
      </g>
     </g>
     <g id="text_36">
      <!-- 0.045 -->
      <g transform="translate(235.459535 238.538261)scale(0.1 -0.1)">
       <use xlink:href="#DejaVuSans-48"/>
       <use x="63.623047" xlink:href="#DejaVuSans-46"/>
       <use x="95.410156" xlink:href="#DejaVuSans-48"/>
       <use x="159.033203" xlink:href="#DejaVuSans-52"/>
       <use x="222.65625" xlink:href="#DejaVuSans-53"/>
      </g>
     </g>
    </g>
    <g id="ytick_14">
     <g id="line2d_61">
      <path clip-path="url(#p922bdaab7e)" d="M 271.08766 198.054456 
L 437.76 198.054456 
" style="fill:none;stroke:#b0b0b0;stroke-linecap:square;stroke-width:0.8;"/>
     </g>
     <g id="line2d_62">
      <g>
       <use style="stroke:#000000;stroke-width:0.8;" x="271.08766" xlink:href="#mdb973bd860" y="198.054456"/>
      </g>
     </g>
     <g id="text_37">
      <!-- 0.050 -->
      <g transform="translate(235.459535 201.853675)scale(0.1 -0.1)">
       <use xlink:href="#DejaVuSans-48"/>
       <use x="63.623047" xlink:href="#DejaVuSans-46"/>
       <use x="95.410156" xlink:href="#DejaVuSans-48"/>
       <use x="159.033203" xlink:href="#DejaVuSans-53"/>
       <use x="222.65625" xlink:href="#DejaVuSans-48"/>
      </g>
     </g>
    </g>
    <g id="text_38">
     <!-- Demora -->
     <g transform="translate(229.379847 273.415781)rotate(-90)scale(0.1 -0.1)">
      <use xlink:href="#DejaVuSans-68"/>
      <use x="77.001953" xlink:href="#DejaVuSans-101"/>
      <use x="138.525391" xlink:href="#DejaVuSans-109"/>
      <use x="235.9375" xlink:href="#DejaVuSans-111"/>
      <use x="297.119141" xlink:href="#DejaVuSans-114"/>
      <use x="338.232422" xlink:href="#DejaVuSans-97"/>
     </g>
    </g>
   </g>
   <g id="line2d_63">
    <path clip-path="url(#p922bdaab7e)" d="M 278.663675 312.087273 
L 278.815347 213.854431 
L 278.967019 220.117473 
L 279.118691 219.44981 
L 279.270363 223.870091 
L 279.422035 213.251232 
L 279.573707 212.364936 
L 279.877051 233.072587 
L 280.028723 238.28634 
L 280.180395 237.06167 
L 280.483739 219.548376 
L 280.635411 226.12296 
L 280.787083 225.128879 
L 280.938755 214.646338 
L 281.090427 216.271731 
L 281.242099 212.308862 
L 281.393771 213.364032 
L 281.545443 212.737617 
L 281.848787 194.792727 
L 282.000459 196.461592 
L 282.152131 196.595592 
L 282.303803 202.955908 
L 282.455475 204.448885 
L 282.607147 200.968019 
L 283.062163 212.41781 
L 283.213834 209.581065 
L 283.365506 210.213951 
L 283.517178 212.946147 
L 283.66885 213.421095 
L 283.820522 214.53827 
L 284.123866 221.855825 
L 284.275538 219.65033 
L 284.42721 220.608387 
L 284.578882 219.724624 
L 284.730554 219.822739 
L 285.033898 218.473746 
L 285.18557 216.302818 
L 285.640586 220.45728 
L 285.792258 219.708446 
L 285.94393 216.686833 
L 286.095602 218.594625 
L 286.247274 218.558673 
L 286.398946 217.450401 
L 286.550618 217.820009 
L 286.70229 215.015274 
L 286.853962 214.926538 
L 287.157306 212.896497 
L 287.46065 215.804585 
L 287.612322 214.885741 
L 287.763994 215.01725 
L 287.915666 215.610948 
L 288.067338 215.696194 
L 288.21901 214.166849 
L 288.370682 215.084415 
L 288.522354 213.448634 
L 288.825698 213.002502 
L 289.129042 215.592283 
L 289.280714 212.528174 
L 289.584058 215.372357 
L 289.73573 215.046227 
L 289.887402 215.863702 
L 290.190746 215.145165 
L 290.342418 214.554545 
L 290.49409 212.488268 
L 290.645762 212.868496 
L 290.949106 215.92009 
L 291.100778 215.58709 
L 291.25245 216.671132 
L 292.010809 213.075306 
L 292.162481 213.155308 
L 292.465825 211.621375 
L 292.617497 211.746773 
L 292.769169 211.10468 
L 292.920841 209.085739 
L 293.072513 209.441415 
L 293.375857 208.10099 
L 293.679201 209.186907 
L 293.830873 209.565259 
L 294.134217 208.111446 
L 294.285889 208.638643 
L 294.437561 208.086426 
L 294.589233 208.31084 
L 294.892577 209.493683 
L 295.044249 209.102101 
L 295.347593 210.138509 
L 295.650937 211.323325 
L 295.954281 210.829505 
L 296.105953 211.399996 
L 296.257625 211.352193 
L 296.409297 210.803492 
L 296.560969 211.07414 
L 296.712641 211.929127 
L 297.015985 211.57501 
L 297.167657 211.053463 
L 297.319329 211.589196 
L 297.471001 211.488662 
L 297.774345 213.457339 
L 298.077689 213.776257 
L 298.229361 213.671367 
L 298.381033 213.397233 
L 298.532705 213.627853 
L 298.684377 214.39237 
L 298.836049 214.090395 
L 298.987721 214.081211 
L 299.139393 214.496071 
L 299.291065 213.661726 
L 299.442737 213.726846 
L 299.74608 214.633866 
L 299.897752 214.65335 
L 300.049424 214.454339 
L 300.352768 215.804643 
L 300.50444 215.205223 
L 300.656112 215.759336 
L 300.807784 215.876256 
L 300.959456 216.805892 
L 301.111128 216.020927 
L 301.2628 216.143316 
L 301.414472 216.025164 
L 301.566144 215.406216 
L 301.869488 216.220944 
L 302.02116 216.169339 
L 302.172832 215.16676 
L 302.324504 215.240288 
L 302.476176 215.0716 
L 302.627848 215.739463 
L 302.931192 215.124079 
L 303.082864 215.900869 
L 303.234536 214.874578 
L 303.386208 215.555086 
L 303.689552 214.872159 
L 303.841224 214.920417 
L 303.992896 215.088149 
L 304.751256 212.1383 
L 305.0546 210.96807 
L 305.357944 212.301639 
L 305.661288 209.550699 
L 305.81296 210.128109 
L 306.116304 210.112011 
L 306.267976 211.003075 
L 306.419648 211.133729 
L 306.57132 211.466278 
L 306.722992 212.602207 
L 306.874664 212.613284 
L 307.026336 212.360862 
L 307.178008 211.703341 
L 307.32968 211.930111 
L 307.481352 212.70057 
L 307.936367 211.453949 
L 308.088039 210.933647 
L 308.239711 210.901121 
L 308.391383 210.141039 
L 308.846399 210.903921 
L 308.998071 209.937841 
L 309.149743 209.915506 
L 309.604759 210.613705 
L 309.756431 209.559997 
L 310.059775 209.09596 
L 310.211447 209.56038 
L 310.363119 208.77246 
L 311.121479 209.796354 
L 311.273151 209.339861 
L 311.424823 209.310172 
L 311.879839 207.933645 
L 312.031511 208.354947 
L 312.183183 207.991446 
L 312.334855 208.441339 
L 312.486527 208.218577 
L 312.638199 207.488313 
L 312.941543 207.710355 
L 313.093215 207.91453 
L 313.396559 207.012239 
L 313.548231 207.160913 
L 313.699903 207.485566 
L 314.003247 207.51741 
L 314.154919 207.87355 
L 314.458263 207.428101 
L 314.609935 207.533177 
L 314.761607 207.056933 
L 314.913279 207.132298 
L 315.216623 206.987102 
L 315.368295 207.458273 
L 315.519967 207.28902 
L 315.823311 207.884124 
L 315.974982 207.714345 
L 316.278326 208.023177 
L 316.429998 208.210836 
L 316.58167 208.660071 
L 316.733342 208.74612 
L 317.036686 208.368591 
L 317.188358 208.30451 
L 317.491702 208.97014 
L 317.795046 208.980496 
L 317.946718 209.479655 
L 318.250062 209.736156 
L 318.401734 209.669222 
L 318.85675 208.560479 
L 319.008422 208.883214 
L 319.311766 208.776261 
L 319.61511 209.29649 
L 319.766782 209.536265 
L 319.918454 208.898705 
L 320.221798 209.026773 
L 320.37347 208.525766 
L 320.525142 208.53196 
L 320.676814 208.272802 
L 321.283502 209.190003 
L 321.435174 209.014557 
L 321.738518 209.135877 
L 321.89019 209.24406 
L 322.041862 209.94383 
L 322.193534 209.84832 
L 322.496878 210.345324 
L 322.800222 210.228283 
L 322.951894 210.447346 
L 323.103566 210.863242 
L 323.255238 210.706477 
L 323.40691 211.10509 
L 323.558582 210.730831 
L 323.861926 210.988931 
L 324.013598 210.831009 
L 324.316941 211.013791 
L 324.468613 211.227723 
L 324.620285 211.635508 
L 324.771957 211.123394 
L 324.923629 211.004001 
L 325.075301 211.032527 
L 325.226973 210.842451 
L 325.681989 211.093771 
L 325.985333 211.369891 
L 326.288677 210.520724 
L 326.592021 210.366561 
L 326.743693 210.292384 
L 327.047037 209.642021 
L 327.350381 210.625161 
L 327.805397 211.327702 
L 328.108741 211.010756 
L 328.412085 211.5237 
L 328.563757 211.521674 
L 328.867101 211.883521 
L 329.018773 211.753051 
L 329.170445 212.053805 
L 329.777133 211.369411 
L 330.080477 211.416715 
L 330.535493 211.097114 
L 330.687165 211.337175 
L 330.990509 211.175997 
L 331.142181 210.829516 
L 331.597197 211.933721 
L 331.900541 212.433286 
L 332.203885 212.392443 
L 332.6589 212.468777 
L 333.265588 212.073051 
L 333.41726 212.012984 
L 333.872276 212.551398 
L 334.023948 212.683143 
L 334.17562 212.532994 
L 334.478964 212.780898 
L 334.93398 213.231329 
L 335.237324 213.119401 
L 335.388996 212.686248 
L 335.540668 212.959908 
L 335.69234 212.947793 
L 335.844012 212.706625 
L 336.147356 213.159489 
L 336.299028 213.452511 
L 336.602372 213.462865 
L 336.754044 213.700258 
L 337.057388 213.523726 
L 337.360732 213.0178 
L 337.815748 213.465988 
L 338.270764 213.044972 
L 338.574108 213.040208 
L 338.72578 212.753522 
L 338.877452 212.745265 
L 339.332468 213.171135 
L 339.635812 213.013672 
L 339.939156 213.509319 
L 340.394172 213.171028 
L 340.545843 213.177745 
L 340.697515 212.703362 
L 340.849187 212.871612 
L 341.000859 212.535262 
L 341.455875 212.999933 
L 341.607547 212.831886 
L 341.759219 213.105361 
L 342.062563 212.853808 
L 342.365907 212.896159 
L 342.517579 212.841557 
L 342.972595 213.087248 
L 343.275939 212.809091 
L 343.579283 213.004284 
L 343.730955 212.883304 
L 344.185971 213.435489 
L 344.337643 213.755131 
L 344.640987 213.270975 
L 345.096003 213.39016 
L 345.551019 213.982246 
L 346.006035 214.293222 
L 346.157707 214.271133 
L 346.612723 213.952657 
L 346.764395 214.198866 
L 346.916067 214.039159 
L 347.371083 214.601914 
L 347.674427 214.366623 
L 348.281115 214.633811 
L 348.73613 214.617465 
L 349.49449 215.034233 
L 349.797834 215.011094 
L 349.949506 215.044101 
L 350.101178 214.847402 
L 350.404522 215.08519 
L 350.556194 215.306832 
L 350.707866 215.327753 
L 350.859538 215.599543 
L 351.162882 215.122932 
L 351.76957 215.583621 
L 351.921242 215.612706 
L 352.224586 215.124996 
L 352.52793 214.904631 
L 352.982946 215.181006 
L 353.134618 215.362145 
L 353.28629 215.259324 
L 353.437962 215.500772 
L 353.589634 215.329241 
L 353.892978 215.681329 
L 354.196322 215.280934 
L 354.347994 215.46 
L 354.80301 215.052353 
L 355.409698 215.070855 
L 355.56137 214.891905 
L 356.016386 215.117315 
L 356.168058 214.926047 
L 356.31973 215.036818 
L 356.623074 214.694263 
L 356.926417 214.916801 
L 357.078089 214.437067 
L 357.229761 214.399424 
L 357.533105 213.749242 
L 357.684777 213.908584 
L 357.836449 213.875777 
L 358.139793 214.387971 
L 358.443137 214.390488 
L 358.898153 214.958528 
L 359.201497 214.848457 
L 359.353169 215.161774 
L 359.656513 215.181345 
L 359.808185 215.257586 
L 359.959857 214.957003 
L 360.111529 215.094038 
L 360.263201 215.018249 
L 360.566545 215.430973 
L 360.718217 215.402684 
L 361.021561 215.712726 
L 361.324905 215.886537 
L 361.476577 215.634471 
L 361.779921 216.085298 
L 362.083265 216.276785 
L 362.234937 216.592644 
L 363.296641 216.710435 
L 363.599985 216.331219 
L 364.206673 216.236064 
L 364.358345 216.110516 
L 364.510017 216.338917 
L 364.813361 216.319175 
L 364.965032 216.145736 
L 365.116704 216.174342 
L 365.420048 216.448344 
L 365.723392 216.32521 
L 366.026736 216.164949 
L 366.481752 215.897454 
L 366.633424 215.795917 
L 367.08844 216.046234 
L 367.240112 215.888867 
L 367.998472 216.176751 
L 368.150144 216.223212 
L 368.301816 216.470199 
L 368.756832 215.938059 
L 368.908504 216.176771 
L 369.060176 216.1714 
L 369.211848 216.023095 
L 369.515192 216.254127 
L 370.728568 215.123464 
L 370.88024 215.144793 
L 371.183584 215.40184 
L 371.6386 215.626652 
L 371.790272 215.438036 
L 372.093616 215.557072 
L 372.245288 215.453978 
L 372.700304 215.676841 
L 372.851976 215.425182 
L 373.003648 215.404265 
L 373.155319 215.129341 
L 373.762007 215.574251 
L 374.217023 216.153757 
L 374.520367 216.332333 
L 374.672039 216.48006 
L 374.823711 216.261091 
L 374.975383 216.366876 
L 375.127055 216.255177 
L 375.733743 216.599952 
L 376.037087 216.609567 
L 376.188759 216.596457 
L 376.340431 216.468003 
L 376.643775 216.627054 
L 377.250463 216.757274 
L 377.705479 216.62274 
L 378.160495 216.403461 
L 379.070527 216.706475 
L 379.373871 216.696888 
L 380.132231 216.80382 
L 380.283903 216.930659 
L 380.435575 216.900683 
L 380.890591 217.255885 
L 381.345606 217.424368 
L 381.497278 217.301638 
L 381.952294 217.396116 
L 382.103966 217.220417 
L 382.255638 217.270122 
L 382.862326 216.996088 
L 383.013998 217.248089 
L 384.530718 217.494222 
L 384.68239 217.346692 
L 384.985734 217.66318 
L 385.137406 217.553704 
L 385.289078 217.773028 
L 385.592422 217.551274 
L 386.047438 216.944302 
L 386.19911 216.982548 
L 386.350782 216.86205 
L 386.805798 217.0106 
L 386.95747 216.947864 
L 387.109142 216.73041 
L 387.564158 216.720318 
L 388.019174 216.186102 
L 388.322518 216.345385 
L 388.625862 216.452952 
L 390.142581 216.424386 
L 390.294253 216.540105 
L 390.900941 216.511389 
L 391.052613 216.643248 
L 391.355957 216.382936 
L 391.810973 216.545469 
L 392.114317 216.489919 
L 392.417661 216.452298 
L 392.721005 216.186501 
L 393.327693 216.333392 
L 393.479365 216.496445 
L 393.934381 216.433975 
L 394.389397 216.286938 
L 394.541069 216.3505 
L 394.844413 216.177536 
L 395.299429 216.586455 
L 395.451101 216.557829 
L 395.602773 216.37702 
L 396.664477 216.716705 
L 396.967821 216.713049 
L 397.119493 216.735675 
L 397.422837 216.566136 
L 397.72618 216.607136 
L 397.877852 216.560423 
L 398.332868 216.684453 
L 398.48454 216.581834 
L 398.636212 216.752153 
L 399.091228 216.633422 
L 399.394572 216.330013 
L 399.849588 216.473195 
L 400.607948 216.37491 
L 400.911292 216.534516 
L 401.062964 216.504046 
L 401.214636 216.686295 
L 401.51798 216.661805 
L 401.669652 216.512482 
L 401.821324 216.654666 
L 401.972996 216.577059 
L 402.428012 216.722046 
L 403.338044 216.406009 
L 403.79306 216.642316 
L 404.248076 216.648025 
L 404.399748 216.597384 
L 404.854764 216.761168 
L 405.30978 216.90784 
L 405.461452 216.882874 
L 405.613124 216.988204 
L 405.764796 216.824388 
L 406.068139 217.015019 
L 406.219811 216.933625 
L 406.523155 217.104161 
L 406.826499 217.126976 
L 407.281515 216.849449 
L 407.736531 217.063138 
L 408.039875 216.620282 
L 408.191547 216.665548 
L 408.494891 216.467873 
L 409.859939 216.448773 
L 410.163283 216.581561 
L 411.073315 216.5667 
L 411.224987 216.382137 
L 411.528331 216.445606 
L 411.680003 216.285536 
L 411.983347 216.254531 
L 412.286691 216.127547 
L 412.438363 216.282206 
L 412.741707 216.249778 
L 413.196723 216.47368 
L 413.651739 216.691048 
L 414.106754 216.524876 
L 414.410098 216.622632 
L 414.865114 215.958972 
L 415.016786 215.89643 
L 415.32013 215.946221 
L 415.926818 215.732091 
L 416.230162 215.757247 
L 416.83685 215.8794 
L 417.443538 216.03245 
L 417.746882 215.909059 
L 418.960258 216.266578 
L 419.415274 216.276333 
L 419.718618 216.513284 
L 421.083666 216.457018 
L 421.538682 216.667609 
L 421.690354 216.584999 
L 421.993698 216.72567 
L 422.14537 216.654758 
L 422.600385 216.765662 
L 423.207073 216.863289 
L 423.510417 216.868464 
L 423.662089 216.769967 
L 424.117105 217.120273 
L 424.875465 217.039824 
L 425.178809 217.060157 
L 428.060577 217.391278 
L 428.667265 217.319038 
L 428.818937 217.351862 
L 428.970609 217.226227 
L 429.728969 217.516867 
L 430.183985 217.538368 
L 430.183985 217.538368 
" style="fill:none;stroke:#1f77b4;stroke-linecap:square;stroke-width:1.5;"/>
   </g>
   <g id="patch_13">
    <path d="M 271.08766 317.952 
L 271.08766 188.928 
" style="fill:none;stroke:#000000;stroke-linecap:square;stroke-linejoin:miter;stroke-width:0.8;"/>
   </g>
   <g id="patch_14">
    <path d="M 437.76 317.952 
L 437.76 188.928 
" style="fill:none;stroke:#000000;stroke-linecap:square;stroke-linejoin:miter;stroke-width:0.8;"/>
   </g>
   <g id="patch_15">
    <path d="M 271.08766 317.952 
L 437.76 317.952 
" style="fill:none;stroke:#000000;stroke-linecap:square;stroke-linejoin:miter;stroke-width:0.8;"/>
   </g>
   <g id="patch_16">
    <path d="M 271.08766 188.928 
L 437.76 188.928 
" style="fill:none;stroke:#000000;stroke-linecap:square;stroke-linejoin:miter;stroke-width:0.8;"/>
   </g>
   <g id="text_39">
    <!-- Demora promedio en cola C2 -->
    <g transform="translate(266.38133 182.928)scale(0.12 -0.12)">
     <use xlink:href="#DejaVuSans-68"/>
     <use x="77.001953" xlink:href="#DejaVuSans-101"/>
     <use x="138.525391" xlink:href="#DejaVuSans-109"/>
     <use x="235.9375" xlink:href="#DejaVuSans-111"/>
     <use x="297.119141" xlink:href="#DejaVuSans-114"/>
     <use x="338.232422" xlink:href="#DejaVuSans-97"/>
     <use x="399.511719" xlink:href="#DejaVuSans-32"/>
     <use x="431.298828" xlink:href="#DejaVuSans-112"/>
     <use x="494.775391" xlink:href="#DejaVuSans-114"/>
     <use x="535.857422" xlink:href="#DejaVuSans-111"/>
     <use x="597.039062" xlink:href="#DejaVuSans-109"/>
     <use x="694.451172" xlink:href="#DejaVuSans-101"/>
     <use x="755.974609" xlink:href="#DejaVuSans-100"/>
     <use x="819.451172" xlink:href="#DejaVuSans-105"/>
     <use x="847.234375" xlink:href="#DejaVuSans-111"/>
     <use x="908.416016" xlink:href="#DejaVuSans-32"/>
     <use x="940.203125" xlink:href="#DejaVuSans-101"/>
     <use x="1001.726562" xlink:href="#DejaVuSans-110"/>
     <use x="1065.105469" xlink:href="#DejaVuSans-32"/>
     <use x="1096.892578" xlink:href="#DejaVuSans-99"/>
     <use x="1151.873047" xlink:href="#DejaVuSans-111"/>
     <use x="1213.054688" xlink:href="#DejaVuSans-108"/>
     <use x="1240.837891" xlink:href="#DejaVuSans-97"/>
     <use x="1302.117188" xlink:href="#DejaVuSans-32"/>
     <use x="1333.904297" xlink:href="#DejaVuSans-67"/>
     <use x="1403.728516" xlink:href="#DejaVuSans-50"/>
    </g>
   </g>
  </g>
 </g>
 <defs>
  <clipPath id="paad332b97a">
   <rect height="129.024" width="391.68" x="46.08" y="27.648"/>
  </clipPath>
  <clipPath id="p80ab464b45">
   <rect height="129.024" width="166.67234" x="46.08" y="188.928"/>
  </clipPath>
  <clipPath id="p922bdaab7e">
   <rect height="129.024" width="166.67234" x="271.08766" y="188.928"/>
  </clipPath>
 </defs>
</svg>
