<?xml version="1.0" encoding="utf-8" standalone="no"?>
<!DOCTYPE svg PUBLIC "-//W3C//DTD SVG 1.1//EN"
  "http://www.w3.org/Graphics/SVG/1.1/DTD/svg11.dtd">
<!-- Created with matplotlib (https://matplotlib.org/) -->
<svg height="345.6pt" version="1.1" viewBox="0 0 460.8 345.6" width="460.8pt" xmlns="http://www.w3.org/2000/svg" xmlns:xlink="http://www.w3.org/1999/xlink">
 <defs>
  <style type="text/css">
*{stroke-linecap:butt;stroke-linejoin:round;}
  </style>
 </defs>
 <g id="figure_1">
  <g id="patch_1">
   <path d="M 0 345.6 
L 460.8 345.6 
L 460.8 0 
L 0 0 
z
" style="fill:#ffffff;"/>
  </g>
  <g id="axes_1">
   <g id="patch_2">
    <path d="M 46.08 156.672 
L 437.76 156.672 
L 437.76 27.648 
L 46.08 27.648 
z
" style="fill:#ffffff;"/>
   </g>
   <g id="matplotlib.axis_1">
    <g id="xtick_1">
     <g id="line2d_1">
      <path clip-path="url(#pb07ea28577)" d="M 63.527207 156.672 
L 63.527207 27.648 
" style="fill:none;stroke:#b0b0b0;stroke-linecap:square;stroke-width:0.8;"/>
     </g>
     <g id="line2d_2">
      <defs>
       <path d="M 0 0 
L 0 3.5 
" id="m3df0647060" style="stroke:#000000;stroke-width:0.8;"/>
      </defs>
      <g>
       <use style="stroke:#000000;stroke-width:0.8;" x="63.527207" xlink:href="#m3df0647060" y="156.672"/>
      </g>
     </g>
     <g id="text_1">
      <!-- 0 -->
      <defs>
       <path d="M 31.78125 66.40625 
Q 24.171875 66.40625 20.328125 58.90625 
Q 16.5 51.421875 16.5 36.375 
Q 16.5 21.390625 20.328125 13.890625 
Q 24.171875 6.390625 31.78125 6.390625 
Q 39.453125 6.390625 43.28125 13.890625 
Q 47.125 21.390625 47.125 36.375 
Q 47.125 51.421875 43.28125 58.90625 
Q 39.453125 66.40625 31.78125 66.40625 
z
M 31.78125 74.21875 
Q 44.046875 74.21875 50.515625 64.515625 
Q 56.984375 54.828125 56.984375 36.375 
Q 56.984375 17.96875 50.515625 8.265625 
Q 44.046875 -1.421875 31.78125 -1.421875 
Q 19.53125 -1.421875 13.0625 8.265625 
Q 6.59375 17.96875 6.59375 36.375 
Q 6.59375 54.828125 13.0625 64.515625 
Q 19.53125 74.21875 31.78125 74.21875 
z
" id="DejaVuSans-48"/>
      </defs>
      <g transform="translate(60.345957 171.270437)scale(0.1 -0.1)">
       <use xlink:href="#DejaVuSans-48"/>
      </g>
     </g>
    </g>
    <g id="xtick_2">
     <g id="line2d_3">
      <path clip-path="url(#pb07ea28577)" d="M 134.813038 156.672 
L 134.813038 27.648 
" style="fill:none;stroke:#b0b0b0;stroke-linecap:square;stroke-width:0.8;"/>
     </g>
     <g id="line2d_4">
      <g>
       <use style="stroke:#000000;stroke-width:0.8;" x="134.813038" xlink:href="#m3df0647060" y="156.672"/>
      </g>
     </g>
     <g id="text_2">
      <!-- 200 -->
      <defs>
       <path d="M 19.1875 8.296875 
L 53.609375 8.296875 
L 53.609375 0 
L 7.328125 0 
L 7.328125 8.296875 
Q 12.9375 14.109375 22.625 23.890625 
Q 32.328125 33.6875 34.8125 36.53125 
Q 39.546875 41.84375 41.421875 45.53125 
Q 43.3125 49.21875 43.3125 52.78125 
Q 43.3125 58.59375 39.234375 62.25 
Q 35.15625 65.921875 28.609375 65.921875 
Q 23.96875 65.921875 18.8125 64.3125 
Q 13.671875 62.703125 7.8125 59.421875 
L 7.8125 69.390625 
Q 13.765625 71.78125 18.9375 73 
Q 24.125 74.21875 28.421875 74.21875 
Q 39.75 74.21875 46.484375 68.546875 
Q 53.21875 62.890625 53.21875 53.421875 
Q 53.21875 48.921875 51.53125 44.890625 
Q 49.859375 40.875 45.40625 35.40625 
Q 44.1875 33.984375 37.640625 27.21875 
Q 31.109375 20.453125 19.1875 8.296875 
z
" id="DejaVuSans-50"/>
      </defs>
      <g transform="translate(125.269288 171.270437)scale(0.1 -0.1)">
       <use xlink:href="#DejaVuSans-50"/>
       <use x="63.623047" xlink:href="#DejaVuSans-48"/>
       <use x="127.246094" xlink:href="#DejaVuSans-48"/>
      </g>
     </g>
    </g>
    <g id="xtick_3">
     <g id="line2d_5">
      <path clip-path="url(#pb07ea28577)" d="M 206.09887 156.672 
L 206.09887 27.648 
" style="fill:none;stroke:#b0b0b0;stroke-linecap:square;stroke-width:0.8;"/>
     </g>
     <g id="line2d_6">
      <g>
       <use style="stroke:#000000;stroke-width:0.8;" x="206.09887" xlink:href="#m3df0647060" y="156.672"/>
      </g>
     </g>
     <g id="text_3">
      <!-- 400 -->
      <defs>
       <path d="M 37.796875 64.3125 
L 12.890625 25.390625 
L 37.796875 25.390625 
z
M 35.203125 72.90625 
L 47.609375 72.90625 
L 47.609375 25.390625 
L 58.015625 25.390625 
L 58.015625 17.1875 
L 47.609375 17.1875 
L 47.609375 0 
L 37.796875 0 
L 37.796875 17.1875 
L 4.890625 17.1875 
L 4.890625 26.703125 
z
" id="DejaVuSans-52"/>
      </defs>
      <g transform="translate(196.55512 171.270437)scale(0.1 -0.1)">
       <use xlink:href="#DejaVuSans-52"/>
       <use x="63.623047" xlink:href="#DejaVuSans-48"/>
       <use x="127.246094" xlink:href="#DejaVuSans-48"/>
      </g>
     </g>
    </g>
    <g id="xtick_4">
     <g id="line2d_7">
      <path clip-path="url(#pb07ea28577)" d="M 277.384701 156.672 
L 277.384701 27.648 
" style="fill:none;stroke:#b0b0b0;stroke-linecap:square;stroke-width:0.8;"/>
     </g>
     <g id="line2d_8">
      <g>
       <use style="stroke:#000000;stroke-width:0.8;" x="277.384701" xlink:href="#m3df0647060" y="156.672"/>
      </g>
     </g>
     <g id="text_4">
      <!-- 600 -->
      <defs>
       <path d="M 33.015625 40.375 
Q 26.375 40.375 22.484375 35.828125 
Q 18.609375 31.296875 18.609375 23.390625 
Q 18.609375 15.53125 22.484375 10.953125 
Q 26.375 6.390625 33.015625 6.390625 
Q 39.65625 6.390625 43.53125 10.953125 
Q 47.40625 15.53125 47.40625 23.390625 
Q 47.40625 31.296875 43.53125 35.828125 
Q 39.65625 40.375 33.015625 40.375 
z
M 52.59375 71.296875 
L 52.59375 62.3125 
Q 48.875 64.0625 45.09375 64.984375 
Q 41.3125 65.921875 37.59375 65.921875 
Q 27.828125 65.921875 22.671875 59.328125 
Q 17.53125 52.734375 16.796875 39.40625 
Q 19.671875 43.65625 24.015625 45.921875 
Q 28.375 48.1875 33.59375 48.1875 
Q 44.578125 48.1875 50.953125 41.515625 
Q 57.328125 34.859375 57.328125 23.390625 
Q 57.328125 12.15625 50.6875 5.359375 
Q 44.046875 -1.421875 33.015625 -1.421875 
Q 20.359375 -1.421875 13.671875 8.265625 
Q 6.984375 17.96875 6.984375 36.375 
Q 6.984375 53.65625 15.1875 63.9375 
Q 23.390625 74.21875 37.203125 74.21875 
Q 40.921875 74.21875 44.703125 73.484375 
Q 48.484375 72.75 52.59375 71.296875 
z
" id="DejaVuSans-54"/>
      </defs>
      <g transform="translate(267.840951 171.270437)scale(0.1 -0.1)">
       <use xlink:href="#DejaVuSans-54"/>
       <use x="63.623047" xlink:href="#DejaVuSans-48"/>
       <use x="127.246094" xlink:href="#DejaVuSans-48"/>
      </g>
     </g>
    </g>
    <g id="xtick_5">
     <g id="line2d_9">
      <path clip-path="url(#pb07ea28577)" d="M 348.670532 156.672 
L 348.670532 27.648 
" style="fill:none;stroke:#b0b0b0;stroke-linecap:square;stroke-width:0.8;"/>
     </g>
     <g id="line2d_10">
      <g>
       <use style="stroke:#000000;stroke-width:0.8;" x="348.670532" xlink:href="#m3df0647060" y="156.672"/>
      </g>
     </g>
     <g id="text_5">
      <!-- 800 -->
      <defs>
       <path d="M 31.78125 34.625 
Q 24.75 34.625 20.71875 30.859375 
Q 16.703125 27.09375 16.703125 20.515625 
Q 16.703125 13.921875 20.71875 10.15625 
Q 24.75 6.390625 31.78125 6.390625 
Q 38.8125 6.390625 42.859375 10.171875 
Q 46.921875 13.96875 46.921875 20.515625 
Q 46.921875 27.09375 42.890625 30.859375 
Q 38.875 34.625 31.78125 34.625 
z
M 21.921875 38.8125 
Q 15.578125 40.375 12.03125 44.71875 
Q 8.5 49.078125 8.5 55.328125 
Q 8.5 64.0625 14.71875 69.140625 
Q 20.953125 74.21875 31.78125 74.21875 
Q 42.671875 74.21875 48.875 69.140625 
Q 55.078125 64.0625 55.078125 55.328125 
Q 55.078125 49.078125 51.53125 44.71875 
Q 48 40.375 41.703125 38.8125 
Q 48.828125 37.15625 52.796875 32.3125 
Q 56.78125 27.484375 56.78125 20.515625 
Q 56.78125 9.90625 50.3125 4.234375 
Q 43.84375 -1.421875 31.78125 -1.421875 
Q 19.734375 -1.421875 13.25 4.234375 
Q 6.78125 9.90625 6.78125 20.515625 
Q 6.78125 27.484375 10.78125 32.3125 
Q 14.796875 37.15625 21.921875 38.8125 
z
M 18.3125 54.390625 
Q 18.3125 48.734375 21.84375 45.5625 
Q 25.390625 42.390625 31.78125 42.390625 
Q 38.140625 42.390625 41.71875 45.5625 
Q 45.3125 48.734375 45.3125 54.390625 
Q 45.3125 60.0625 41.71875 63.234375 
Q 38.140625 66.40625 31.78125 66.40625 
Q 25.390625 66.40625 21.84375 63.234375 
Q 18.3125 60.0625 18.3125 54.390625 
z
" id="DejaVuSans-56"/>
      </defs>
      <g transform="translate(339.126782 171.270437)scale(0.1 -0.1)">
       <use xlink:href="#DejaVuSans-56"/>
       <use x="63.623047" xlink:href="#DejaVuSans-48"/>
       <use x="127.246094" xlink:href="#DejaVuSans-48"/>
      </g>
     </g>
    </g>
    <g id="xtick_6">
     <g id="line2d_11">
      <path clip-path="url(#pb07ea28577)" d="M 419.956364 156.672 
L 419.956364 27.648 
" style="fill:none;stroke:#b0b0b0;stroke-linecap:square;stroke-width:0.8;"/>
     </g>
     <g id="line2d_12">
      <g>
       <use style="stroke:#000000;stroke-width:0.8;" x="419.956364" xlink:href="#m3df0647060" y="156.672"/>
      </g>
     </g>
     <g id="text_6">
      <!-- 1000 -->
      <defs>
       <path d="M 12.40625 8.296875 
L 28.515625 8.296875 
L 28.515625 63.921875 
L 10.984375 60.40625 
L 10.984375 69.390625 
L 28.421875 72.90625 
L 38.28125 72.90625 
L 38.28125 8.296875 
L 54.390625 8.296875 
L 54.390625 0 
L 12.40625 0 
z
" id="DejaVuSans-49"/>
      </defs>
      <g transform="translate(407.231364 171.270437)scale(0.1 -0.1)">
       <use xlink:href="#DejaVuSans-49"/>
       <use x="63.623047" xlink:href="#DejaVuSans-48"/>
       <use x="127.246094" xlink:href="#DejaVuSans-48"/>
       <use x="190.869141" xlink:href="#DejaVuSans-48"/>
      </g>
     </g>
    </g>
    <g id="text_7">
     <!-- Corridas -->
     <defs>
      <path d="M 64.40625 67.28125 
L 64.40625 56.890625 
Q 59.421875 61.53125 53.78125 63.8125 
Q 48.140625 66.109375 41.796875 66.109375 
Q 29.296875 66.109375 22.65625 58.46875 
Q 16.015625 50.828125 16.015625 36.375 
Q 16.015625 21.96875 22.65625 14.328125 
Q 29.296875 6.6875 41.796875 6.6875 
Q 48.140625 6.6875 53.78125 8.984375 
Q 59.421875 11.28125 64.40625 15.921875 
L 64.40625 5.609375 
Q 59.234375 2.09375 53.4375 0.328125 
Q 47.65625 -1.421875 41.21875 -1.421875 
Q 24.65625 -1.421875 15.125 8.703125 
Q 5.609375 18.84375 5.609375 36.375 
Q 5.609375 53.953125 15.125 64.078125 
Q 24.65625 74.21875 41.21875 74.21875 
Q 47.75 74.21875 53.53125 72.484375 
Q 59.328125 70.75 64.40625 67.28125 
z
" id="DejaVuSans-67"/>
      <path d="M 30.609375 48.390625 
Q 23.390625 48.390625 19.1875 42.75 
Q 14.984375 37.109375 14.984375 27.296875 
Q 14.984375 17.484375 19.15625 11.84375 
Q 23.34375 6.203125 30.609375 6.203125 
Q 37.796875 6.203125 41.984375 11.859375 
Q 46.1875 17.53125 46.1875 27.296875 
Q 46.1875 37.015625 41.984375 42.703125 
Q 37.796875 48.390625 30.609375 48.390625 
z
M 30.609375 56 
Q 42.328125 56 49.015625 48.375 
Q 55.71875 40.765625 55.71875 27.296875 
Q 55.71875 13.875 49.015625 6.21875 
Q 42.328125 -1.421875 30.609375 -1.421875 
Q 18.84375 -1.421875 12.171875 6.21875 
Q 5.515625 13.875 5.515625 27.296875 
Q 5.515625 40.765625 12.171875 48.375 
Q 18.84375 56 30.609375 56 
z
" id="DejaVuSans-111"/>
      <path d="M 41.109375 46.296875 
Q 39.59375 47.171875 37.8125 47.578125 
Q 36.03125 48 33.890625 48 
Q 26.265625 48 22.1875 43.046875 
Q 18.109375 38.09375 18.109375 28.8125 
L 18.109375 0 
L 9.078125 0 
L 9.078125 54.6875 
L 18.109375 54.6875 
L 18.109375 46.1875 
Q 20.953125 51.171875 25.484375 53.578125 
Q 30.03125 56 36.53125 56 
Q 37.453125 56 38.578125 55.875 
Q 39.703125 55.765625 41.0625 55.515625 
z
" id="DejaVuSans-114"/>
      <path d="M 9.421875 54.6875 
L 18.40625 54.6875 
L 18.40625 0 
L 9.421875 0 
z
M 9.421875 75.984375 
L 18.40625 75.984375 
L 18.40625 64.59375 
L 9.421875 64.59375 
z
" id="DejaVuSans-105"/>
      <path d="M 45.40625 46.390625 
L 45.40625 75.984375 
L 54.390625 75.984375 
L 54.390625 0 
L 45.40625 0 
L 45.40625 8.203125 
Q 42.578125 3.328125 38.25 0.953125 
Q 33.9375 -1.421875 27.875 -1.421875 
Q 17.96875 -1.421875 11.734375 6.484375 
Q 5.515625 14.40625 5.515625 27.296875 
Q 5.515625 40.1875 11.734375 48.09375 
Q 17.96875 56 27.875 56 
Q 33.9375 56 38.25 53.625 
Q 42.578125 51.265625 45.40625 46.390625 
z
M 14.796875 27.296875 
Q 14.796875 17.390625 18.875 11.75 
Q 22.953125 6.109375 30.078125 6.109375 
Q 37.203125 6.109375 41.296875 11.75 
Q 45.40625 17.390625 45.40625 27.296875 
Q 45.40625 37.203125 41.296875 42.84375 
Q 37.203125 48.484375 30.078125 48.484375 
Q 22.953125 48.484375 18.875 42.84375 
Q 14.796875 37.203125 14.796875 27.296875 
z
" id="DejaVuSans-100"/>
      <path d="M 34.28125 27.484375 
Q 23.390625 27.484375 19.1875 25 
Q 14.984375 22.515625 14.984375 16.5 
Q 14.984375 11.71875 18.140625 8.90625 
Q 21.296875 6.109375 26.703125 6.109375 
Q 34.1875 6.109375 38.703125 11.40625 
Q 43.21875 16.703125 43.21875 25.484375 
L 43.21875 27.484375 
z
M 52.203125 31.203125 
L 52.203125 0 
L 43.21875 0 
L 43.21875 8.296875 
Q 40.140625 3.328125 35.546875 0.953125 
Q 30.953125 -1.421875 24.3125 -1.421875 
Q 15.921875 -1.421875 10.953125 3.296875 
Q 6 8.015625 6 15.921875 
Q 6 25.140625 12.171875 29.828125 
Q 18.359375 34.515625 30.609375 34.515625 
L 43.21875 34.515625 
L 43.21875 35.40625 
Q 43.21875 41.609375 39.140625 45 
Q 35.0625 48.390625 27.6875 48.390625 
Q 23 48.390625 18.546875 47.265625 
Q 14.109375 46.140625 10.015625 43.890625 
L 10.015625 52.203125 
Q 14.9375 54.109375 19.578125 55.046875 
Q 24.21875 56 28.609375 56 
Q 40.484375 56 46.34375 49.84375 
Q 52.203125 43.703125 52.203125 31.203125 
z
" id="DejaVuSans-97"/>
      <path d="M 44.28125 53.078125 
L 44.28125 44.578125 
Q 40.484375 46.53125 36.375 47.5 
Q 32.28125 48.484375 27.875 48.484375 
Q 21.1875 48.484375 17.84375 46.4375 
Q 14.5 44.390625 14.5 40.28125 
Q 14.5 37.15625 16.890625 35.375 
Q 19.28125 33.59375 26.515625 31.984375 
L 29.59375 31.296875 
Q 39.15625 29.25 43.1875 25.515625 
Q 47.21875 21.78125 47.21875 15.09375 
Q 47.21875 7.46875 41.1875 3.015625 
Q 35.15625 -1.421875 24.609375 -1.421875 
Q 20.21875 -1.421875 15.453125 -0.5625 
Q 10.6875 0.296875 5.421875 2 
L 5.421875 11.28125 
Q 10.40625 8.6875 15.234375 7.390625 
Q 20.0625 6.109375 24.8125 6.109375 
Q 31.15625 6.109375 34.5625 8.28125 
Q 37.984375 10.453125 37.984375 14.40625 
Q 37.984375 18.0625 35.515625 20.015625 
Q 33.0625 21.96875 24.703125 23.78125 
L 21.578125 24.515625 
Q 13.234375 26.265625 9.515625 29.90625 
Q 5.8125 33.546875 5.8125 39.890625 
Q 5.8125 47.609375 11.28125 51.796875 
Q 16.75 56 26.8125 56 
Q 31.78125 56 36.171875 55.265625 
Q 40.578125 54.546875 44.28125 53.078125 
z
" id="DejaVuSans-115"/>
     </defs>
     <g transform="translate(221.027031 184.948562)scale(0.1 -0.1)">
      <use xlink:href="#DejaVuSans-67"/>
      <use x="69.824219" xlink:href="#DejaVuSans-111"/>
      <use x="131.005859" xlink:href="#DejaVuSans-114"/>
      <use x="172.103516" xlink:href="#DejaVuSans-114"/>
      <use x="213.216797" xlink:href="#DejaVuSans-105"/>
      <use x="241" xlink:href="#DejaVuSans-100"/>
      <use x="304.476562" xlink:href="#DejaVuSans-97"/>
      <use x="365.755859" xlink:href="#DejaVuSans-115"/>
     </g>
    </g>
   </g>
   <g id="matplotlib.axis_2">
    <g id="ytick_1">
     <g id="line2d_13">
      <path clip-path="url(#pb07ea28577)" d="M 46.08 150.807273 
L 437.76 150.807273 
" style="fill:none;stroke:#b0b0b0;stroke-linecap:square;stroke-width:0.8;"/>
     </g>
     <g id="line2d_14">
      <defs>
       <path d="M 0 0 
L -3.5 0 
" id="mf86215eeb6" style="stroke:#000000;stroke-width:0.8;"/>
      </defs>
      <g>
       <use style="stroke:#000000;stroke-width:0.8;" x="46.08" xlink:href="#mf86215eeb6" y="150.807273"/>
      </g>
     </g>
     <g id="text_8">
      <!-- 0.000000 -->
      <defs>
       <path d="M 10.6875 12.40625 
L 21 12.40625 
L 21 0 
L 10.6875 0 
z
" id="DejaVuSans-46"/>
      </defs>
      <g transform="translate(-8.635625 154.606491)scale(0.1 -0.1)">
       <use xlink:href="#DejaVuSans-48"/>
       <use x="63.623047" xlink:href="#DejaVuSans-46"/>
       <use x="95.410156" xlink:href="#DejaVuSans-48"/>
       <use x="159.033203" xlink:href="#DejaVuSans-48"/>
       <use x="222.65625" xlink:href="#DejaVuSans-48"/>
       <use x="286.279297" xlink:href="#DejaVuSans-48"/>
       <use x="349.902344" xlink:href="#DejaVuSans-48"/>
       <use x="413.525391" xlink:href="#DejaVuSans-48"/>
      </g>
     </g>
    </g>
    <g id="ytick_2">
     <g id="line2d_15">
      <path clip-path="url(#pb07ea28577)" d="M 46.08 111.30114 
L 437.76 111.30114 
" style="fill:none;stroke:#b0b0b0;stroke-linecap:square;stroke-width:0.8;"/>
     </g>
     <g id="line2d_16">
      <g>
       <use style="stroke:#000000;stroke-width:0.8;" x="46.08" xlink:href="#mf86215eeb6" y="111.30114"/>
      </g>
     </g>
     <g id="text_9">
      <!-- 0.000005 -->
      <defs>
       <path d="M 10.796875 72.90625 
L 49.515625 72.90625 
L 49.515625 64.59375 
L 19.828125 64.59375 
L 19.828125 46.734375 
Q 21.96875 47.46875 24.109375 47.828125 
Q 26.265625 48.1875 28.421875 48.1875 
Q 40.625 48.1875 47.75 41.5 
Q 54.890625 34.8125 54.890625 23.390625 
Q 54.890625 11.625 47.5625 5.09375 
Q 40.234375 -1.421875 26.90625 -1.421875 
Q 22.3125 -1.421875 17.546875 -0.640625 
Q 12.796875 0.140625 7.71875 1.703125 
L 7.71875 11.625 
Q 12.109375 9.234375 16.796875 8.0625 
Q 21.484375 6.890625 26.703125 6.890625 
Q 35.15625 6.890625 40.078125 11.328125 
Q 45.015625 15.765625 45.015625 23.390625 
Q 45.015625 31 40.078125 35.4375 
Q 35.15625 39.890625 26.703125 39.890625 
Q 22.75 39.890625 18.8125 39.015625 
Q 14.890625 38.140625 10.796875 36.28125 
z
" id="DejaVuSans-53"/>
      </defs>
      <g transform="translate(-8.635625 115.100359)scale(0.1 -0.1)">
       <use xlink:href="#DejaVuSans-48"/>
       <use x="63.623047" xlink:href="#DejaVuSans-46"/>
       <use x="95.410156" xlink:href="#DejaVuSans-48"/>
       <use x="159.033203" xlink:href="#DejaVuSans-48"/>
       <use x="222.65625" xlink:href="#DejaVuSans-48"/>
       <use x="286.279297" xlink:href="#DejaVuSans-48"/>
       <use x="349.902344" xlink:href="#DejaVuSans-48"/>
       <use x="413.525391" xlink:href="#DejaVuSans-53"/>
      </g>
     </g>
    </g>
    <g id="ytick_3">
     <g id="line2d_17">
      <path clip-path="url(#pb07ea28577)" d="M 46.08 71.795008 
L 437.76 71.795008 
" style="fill:none;stroke:#b0b0b0;stroke-linecap:square;stroke-width:0.8;"/>
     </g>
     <g id="line2d_18">
      <g>
       <use style="stroke:#000000;stroke-width:0.8;" x="46.08" xlink:href="#mf86215eeb6" y="71.795008"/>
      </g>
     </g>
     <g id="text_10">
      <!-- 0.000010 -->
      <g transform="translate(-8.635625 75.594226)scale(0.1 -0.1)">
       <use xlink:href="#DejaVuSans-48"/>
       <use x="63.623047" xlink:href="#DejaVuSans-46"/>
       <use x="95.410156" xlink:href="#DejaVuSans-48"/>
       <use x="159.033203" xlink:href="#DejaVuSans-48"/>
       <use x="222.65625" xlink:href="#DejaVuSans-48"/>
       <use x="286.279297" xlink:href="#DejaVuSans-48"/>
       <use x="349.902344" xlink:href="#DejaVuSans-49"/>
       <use x="413.525391" xlink:href="#DejaVuSans-48"/>
      </g>
     </g>
    </g>
    <g id="ytick_4">
     <g id="line2d_19">
      <path clip-path="url(#pb07ea28577)" d="M 46.08 32.288875 
L 437.76 32.288875 
" style="fill:none;stroke:#b0b0b0;stroke-linecap:square;stroke-width:0.8;"/>
     </g>
     <g id="line2d_20">
      <g>
       <use style="stroke:#000000;stroke-width:0.8;" x="46.08" xlink:href="#mf86215eeb6" y="32.288875"/>
      </g>
     </g>
     <g id="text_11">
      <!-- 0.000015 -->
      <g transform="translate(-8.635625 36.088094)scale(0.1 -0.1)">
       <use xlink:href="#DejaVuSans-48"/>
       <use x="63.623047" xlink:href="#DejaVuSans-46"/>
       <use x="95.410156" xlink:href="#DejaVuSans-48"/>
       <use x="159.033203" xlink:href="#DejaVuSans-48"/>
       <use x="222.65625" xlink:href="#DejaVuSans-48"/>
       <use x="286.279297" xlink:href="#DejaVuSans-48"/>
       <use x="349.902344" xlink:href="#DejaVuSans-49"/>
       <use x="413.525391" xlink:href="#DejaVuSans-53"/>
      </g>
     </g>
    </g>
    <g id="text_12">
     <!-- Demora -->
     <defs>
      <path d="M 19.671875 64.796875 
L 19.671875 8.109375 
L 31.59375 8.109375 
Q 46.6875 8.109375 53.6875 14.9375 
Q 60.6875 21.78125 60.6875 36.53125 
Q 60.6875 51.171875 53.6875 57.984375 
Q 46.6875 64.796875 31.59375 64.796875 
z
M 9.8125 72.90625 
L 30.078125 72.90625 
Q 51.265625 72.90625 61.171875 64.09375 
Q 71.09375 55.28125 71.09375 36.53125 
Q 71.09375 17.671875 61.125 8.828125 
Q 51.171875 0 30.078125 0 
L 9.8125 0 
z
" id="DejaVuSans-68"/>
      <path d="M 56.203125 29.59375 
L 56.203125 25.203125 
L 14.890625 25.203125 
Q 15.484375 15.921875 20.484375 11.0625 
Q 25.484375 6.203125 34.421875 6.203125 
Q 39.59375 6.203125 44.453125 7.46875 
Q 49.3125 8.734375 54.109375 11.28125 
L 54.109375 2.78125 
Q 49.265625 0.734375 44.1875 -0.34375 
Q 39.109375 -1.421875 33.890625 -1.421875 
Q 20.796875 -1.421875 13.15625 6.1875 
Q 5.515625 13.8125 5.515625 26.8125 
Q 5.515625 40.234375 12.765625 48.109375 
Q 20.015625 56 32.328125 56 
Q 43.359375 56 49.78125 48.890625 
Q 56.203125 41.796875 56.203125 29.59375 
z
M 47.21875 32.234375 
Q 47.125 39.59375 43.09375 43.984375 
Q 39.0625 48.390625 32.421875 48.390625 
Q 24.90625 48.390625 20.390625 44.140625 
Q 15.875 39.890625 15.1875 32.171875 
z
" id="DejaVuSans-101"/>
      <path d="M 52 44.1875 
Q 55.375 50.25 60.0625 53.125 
Q 64.75 56 71.09375 56 
Q 79.640625 56 84.28125 50.015625 
Q 88.921875 44.046875 88.921875 33.015625 
L 88.921875 0 
L 79.890625 0 
L 79.890625 32.71875 
Q 79.890625 40.578125 77.09375 44.375 
Q 74.3125 48.1875 68.609375 48.1875 
Q 61.625 48.1875 57.5625 43.546875 
Q 53.515625 38.921875 53.515625 30.90625 
L 53.515625 0 
L 44.484375 0 
L 44.484375 32.71875 
Q 44.484375 40.625 41.703125 44.40625 
Q 38.921875 48.1875 33.109375 48.1875 
Q 26.21875 48.1875 22.15625 43.53125 
Q 18.109375 38.875 18.109375 30.90625 
L 18.109375 0 
L 9.078125 0 
L 9.078125 54.6875 
L 18.109375 54.6875 
L 18.109375 46.1875 
Q 21.1875 51.21875 25.484375 53.609375 
Q 29.78125 56 35.6875 56 
Q 41.65625 56 45.828125 52.96875 
Q 50 49.953125 52 44.1875 
z
" id="DejaVuSans-109"/>
     </defs>
     <g transform="translate(-14.715312 112.135781)rotate(-90)scale(0.1 -0.1)">
      <use xlink:href="#DejaVuSans-68"/>
      <use x="77.001953" xlink:href="#DejaVuSans-101"/>
      <use x="138.525391" xlink:href="#DejaVuSans-109"/>
      <use x="235.9375" xlink:href="#DejaVuSans-111"/>
      <use x="297.119141" xlink:href="#DejaVuSans-114"/>
      <use x="338.232422" xlink:href="#DejaVuSans-97"/>
     </g>
    </g>
   </g>
   <g id="line2d_21">
    <path clip-path="url(#pb07ea28577)" d="M 63.883636 150.807273 
L 69.942932 150.807273 
L 70.299361 127.379141 
L 71.368649 130.573886 
L 72.081507 132.260002 
L 72.437936 128.584951 
L 73.507224 130.965914 
L 74.576511 132.886046 
L 74.93294 111.061042 
L 76.002228 114.467862 
L 77.427944 118.194981 
L 78.140803 119.785824 
L 78.497232 117.873014 
L 79.922948 120.736863 
L 80.992236 122.577908 
L 81.348665 122.886688 
L 83.130811 125.424923 
L 84.912957 127.540118 
L 85.269386 122.458681 
L 87.051532 124.606302 
L 88.477248 126.1035 
L 88.833677 125.356375 
L 89.190106 103.25307 
L 90.972252 106.341005 
L 92.04154 108.00849 
L 92.397969 103.092986 
L 92.754398 79.707783 
L 94.536544 83.79396 
L 95.96226 86.7396 
L 96.31869 86.464819 
L 98.457265 90.404153 
L 98.813694 84.35225 
L 100.595839 87.547203 
L 100.952269 83.575526 
L 101.665127 84.832194 
L 102.021556 70.911026 
L 103.090844 73.070384 
L 103.447273 71.979438 
L 104.51656 74.035816 
L 104.872989 73.778097 
L 107.367993 78.161871 
L 108.080852 79.324198 
L 108.437281 76.30139 
L 108.79371 76.888051 
L 109.150139 69.148207 
L 110.219427 71.018262 
L 110.575856 42.888163 
L 110.932285 41.165996 
L 111.288714 41.984215 
L 111.645143 33.512727 
L 113.783718 38.503985 
L 114.140147 34.969876 
L 116.635152 40.411901 
L 119.130156 45.365539 
L 120.555872 48.001583 
L 120.912301 42.285042 
L 123.763735 47.422189 
L 126.615168 52.094961 
L 129.466601 56.363602 
L 132.674464 60.745009 
L 133.030893 61.206867 
L 133.387322 58.48608 
L 135.169468 60.782627 
L 135.525897 55.268805 
L 138.733759 59.343905 
L 141.941622 63.085589 
L 142.298051 61.923423 
L 142.65448 62.3238 
L 143.010909 60.746198 
L 143.723767 61.546741 
L 144.080197 56.364584 
L 144.436626 53.904688 
L 148.000917 57.993404 
L 148.357346 56.882353 
L 149.070205 57.66506 
L 149.426634 55.418756 
L 150.852351 56.97612 
L 151.20878 56.725778 
L 152.634496 58.231082 
L 152.990925 57.072775 
L 154.773071 58.903527 
L 155.1295 53.668822 
L 159.050221 57.655848 
L 159.763079 58.345858 
L 160.119509 55.975132 
L 162.258084 58.029258 
L 162.614513 56.275783 
L 164.753088 58.272927 
L 165.109517 58.227872 
L 169.030238 61.668323 
L 169.386667 61.624116 
L 169.743096 61.923388 
L 170.099525 59.632148 
L 171.525242 60.83578 
L 171.881671 60.181652 
L 176.158821 63.623131 
L 177.940966 64.98114 
L 178.297396 63.930208 
L 180.079541 65.258604 
L 180.435971 62.694073 
L 181.505258 63.492682 
L 181.861687 63.61678 
L 185.06955 65.917995 
L 185.425979 62.816793 
L 186.851695 63.834024 
L 187.208124 63.864799 
L 187.564554 64.114634 
L 187.920983 62.721521 
L 191.841704 65.41303 
L 192.198133 64.828667 
L 193.26742 65.537282 
L 193.623849 65.616276 
L 198.970287 68.979078 
L 199.326716 66.398845 
L 202.891007 68.557628 
L 203.603866 68.867002 
L 207.524586 71.098049 
L 207.881016 70.765867 
L 209.306732 71.548668 
L 209.663161 69.143244 
L 215.009599 72.003351 
L 215.366028 72.188337 
L 215.722457 70.131409 
L 216.791744 70.694264 
L 217.148174 70.334358 
L 218.57389 71.074339 
L 218.930319 70.667383 
L 223.207469 72.813987 
L 223.920328 70.029935 
L 228.553907 72.297981 
L 229.266765 72.538865 
L 229.979623 72.874062 
L 230.336052 69.952701 
L 234.256773 71.809486 
L 234.613202 71.747027 
L 234.969631 70.945859 
L 236.038919 71.440867 
L 236.395348 71.023523 
L 237.108206 71.351177 
L 237.464636 70.176201 
L 238.890352 70.831738 
L 239.246781 70.796174 
L 246.375364 73.915515 
L 250.296085 75.529655 
L 250.652514 73.149717 
L 253.147518 74.171527 
L 253.503948 74.132571 
L 258.137527 75.958159 
L 258.493956 75.564341 
L 259.919672 76.110569 
L 260.276102 75.807336 
L 267.048256 78.302955 
L 267.404685 76.519328 
L 269.18683 77.163071 
L 269.54326 76.828763 
L 270.612547 77.210752 
L 270.968976 76.371071 
L 271.681835 76.62599 
L 272.038264 76.132435 
L 274.176839 76.890555 
L 274.533268 75.808361 
L 276.315414 76.436493 
L 276.671843 75.593156 
L 278.810418 76.340316 
L 279.166847 75.137644 
L 283.087568 76.488888 
L 283.443997 76.442949 
L 284.869713 76.921946 
L 285.226143 76.633877 
L 287.008288 77.225372 
L 287.364717 76.47593 
L 289.503292 77.179381 
L 289.859722 76.327139 
L 291.285438 76.793368 
L 291.641867 70.189444 
L 293.780442 70.938217 
L 294.136871 69.744543 
L 295.562588 70.242624 
L 295.919017 70.188766 
L 298.414021 71.045109 
L 298.77045 70.805797 
L 303.0476 72.234394 
L 303.404029 71.361081 
L 305.899034 72.178909 
L 306.255463 71.925909 
L 311.958329 73.736672 
L 312.314758 73.697823 
L 320.869058 76.261018 
L 321.225487 76.22782 
L 326.215495 77.644526 
L 326.571925 70.253274 
L 327.997641 70.687527 
L 328.35407 70.131074 
L 329.423358 70.45551 
L 329.779787 70.392795 
L 330.849075 70.714453 
L 331.205504 66.230027 
L 331.918362 66.454668 
L 332.274791 66.092506 
L 332.63122 66.204711 
L 332.987649 66.158019 
L 334.056937 66.492602 
L 334.413366 66.131511 
L 335.482654 66.464443 
L 335.839083 66.257444 
L 342.611237 68.245257 
L 342.967666 67.917087 
L 343.680524 68.128004 
L 344.036953 68.049591 
L 346.175528 68.675753 
L 346.531957 67.917095 
L 357.224832 70.934941 
L 357.581261 71.031756 
L 357.93769 70.766288 
L 358.29412 69.9255 
L 360.432695 70.508082 
L 360.789124 69.953966 
L 362.21484 70.339901 
L 362.571269 70.073364 
L 364.353415 70.551646 
L 364.709844 67.224949 
L 365.779132 67.520641 
L 366.135561 63.752017 
L 366.848419 63.956612 
L 367.204848 62.85744 
L 367.917707 63.063412 
L 368.274136 62.981972 
L 372.194857 64.097536 
L 372.551286 63.766568 
L 374.333432 64.265655 
L 374.689861 63.8106 
L 382.531302 65.949066 
L 382.887731 64.622984 
L 388.947027 66.22773 
L 389.303456 63.204207 
L 398.214185 65.536557 
L 398.570614 61.959778 
L 398.927043 61.575237 
L 400.709189 62.046865 
L 401.065618 61.059351 
L 402.491335 61.43684 
L 402.847764 60.877647 
L 414.966355 63.978669 
L 415.322785 63.921406 
L 416.748501 64.272105 
L 417.10493 64.050971 
L 418.530647 64.399389 
L 418.887076 64.319521 
L 419.956364 64.578985 
L 419.956364 64.578985 
" style="fill:none;stroke:#1f77b4;stroke-linecap:square;stroke-width:1.5;"/>
   </g>
   <g id="patch_3">
    <path d="M 46.08 156.672 
L 46.08 27.648 
" style="fill:none;stroke:#000000;stroke-linecap:square;stroke-linejoin:miter;stroke-width:0.8;"/>
   </g>
   <g id="patch_4">
    <path d="M 437.76 156.672 
L 437.76 27.648 
" style="fill:none;stroke:#000000;stroke-linecap:square;stroke-linejoin:miter;stroke-width:0.8;"/>
   </g>
   <g id="patch_5">
    <path d="M 46.08 156.672 
L 437.76 156.672 
" style="fill:none;stroke:#000000;stroke-linecap:square;stroke-linejoin:miter;stroke-width:0.8;"/>
   </g>
   <g id="patch_6">
    <path d="M 46.08 27.648 
L 437.76 27.648 
" style="fill:none;stroke:#000000;stroke-linecap:square;stroke-linejoin:miter;stroke-width:0.8;"/>
   </g>
   <g id="text_13">
    <!-- Demora promedio en cola A -->
    <defs>
     <path id="DejaVuSans-32"/>
     <path d="M 18.109375 8.203125 
L 18.109375 -20.796875 
L 9.078125 -20.796875 
L 9.078125 54.6875 
L 18.109375 54.6875 
L 18.109375 46.390625 
Q 20.953125 51.265625 25.265625 53.625 
Q 29.59375 56 35.59375 56 
Q 45.5625 56 51.78125 48.09375 
Q 58.015625 40.1875 58.015625 27.296875 
Q 58.015625 14.40625 51.78125 6.484375 
Q 45.5625 -1.421875 35.59375 -1.421875 
Q 29.59375 -1.421875 25.265625 0.953125 
Q 20.953125 3.328125 18.109375 8.203125 
z
M 48.6875 27.296875 
Q 48.6875 37.203125 44.609375 42.84375 
Q 40.53125 48.484375 33.40625 48.484375 
Q 26.265625 48.484375 22.1875 42.84375 
Q 18.109375 37.203125 18.109375 27.296875 
Q 18.109375 17.390625 22.1875 11.75 
Q 26.265625 6.109375 33.40625 6.109375 
Q 40.53125 6.109375 44.609375 11.75 
Q 48.6875 17.390625 48.6875 27.296875 
z
" id="DejaVuSans-112"/>
     <path d="M 54.890625 33.015625 
L 54.890625 0 
L 45.90625 0 
L 45.90625 32.71875 
Q 45.90625 40.484375 42.875 44.328125 
Q 39.84375 48.1875 33.796875 48.1875 
Q 26.515625 48.1875 22.3125 43.546875 
Q 18.109375 38.921875 18.109375 30.90625 
L 18.109375 0 
L 9.078125 0 
L 9.078125 54.6875 
L 18.109375 54.6875 
L 18.109375 46.1875 
Q 21.34375 51.125 25.703125 53.5625 
Q 30.078125 56 35.796875 56 
Q 45.21875 56 50.046875 50.171875 
Q 54.890625 44.34375 54.890625 33.015625 
z
" id="DejaVuSans-110"/>
     <path d="M 48.78125 52.59375 
L 48.78125 44.1875 
Q 44.96875 46.296875 41.140625 47.34375 
Q 37.3125 48.390625 33.40625 48.390625 
Q 24.65625 48.390625 19.8125 42.84375 
Q 14.984375 37.3125 14.984375 27.296875 
Q 14.984375 17.28125 19.8125 11.734375 
Q 24.65625 6.203125 33.40625 6.203125 
Q 37.3125 6.203125 41.140625 7.25 
Q 44.96875 8.296875 48.78125 10.40625 
L 48.78125 2.09375 
Q 45.015625 0.34375 40.984375 -0.53125 
Q 36.96875 -1.421875 32.421875 -1.421875 
Q 20.0625 -1.421875 12.78125 6.34375 
Q 5.515625 14.109375 5.515625 27.296875 
Q 5.515625 40.671875 12.859375 48.328125 
Q 20.21875 56 33.015625 56 
Q 37.15625 56 41.109375 55.140625 
Q 45.0625 54.296875 48.78125 52.59375 
z
" id="DejaVuSans-99"/>
     <path d="M 9.421875 75.984375 
L 18.40625 75.984375 
L 18.40625 0 
L 9.421875 0 
z
" id="DejaVuSans-108"/>
     <path d="M 34.1875 63.1875 
L 20.796875 26.90625 
L 47.609375 26.90625 
z
M 28.609375 72.90625 
L 39.796875 72.90625 
L 67.578125 0 
L 57.328125 0 
L 50.6875 18.703125 
L 17.828125 18.703125 
L 11.1875 0 
L 0.78125 0 
z
" id="DejaVuSans-65"/>
    </defs>
    <g transform="translate(157.780313 21.648)scale(0.12 -0.12)">
     <use xlink:href="#DejaVuSans-68"/>
     <use x="77.001953" xlink:href="#DejaVuSans-101"/>
     <use x="138.525391" xlink:href="#DejaVuSans-109"/>
     <use x="235.9375" xlink:href="#DejaVuSans-111"/>
     <use x="297.119141" xlink:href="#DejaVuSans-114"/>
     <use x="338.232422" xlink:href="#DejaVuSans-97"/>
     <use x="399.511719" xlink:href="#DejaVuSans-32"/>
     <use x="431.298828" xlink:href="#DejaVuSans-112"/>
     <use x="494.775391" xlink:href="#DejaVuSans-114"/>
     <use x="535.857422" xlink:href="#DejaVuSans-111"/>
     <use x="597.039062" xlink:href="#DejaVuSans-109"/>
     <use x="694.451172" xlink:href="#DejaVuSans-101"/>
     <use x="755.974609" xlink:href="#DejaVuSans-100"/>
     <use x="819.451172" xlink:href="#DejaVuSans-105"/>
     <use x="847.234375" xlink:href="#DejaVuSans-111"/>
     <use x="908.416016" xlink:href="#DejaVuSans-32"/>
     <use x="940.203125" xlink:href="#DejaVuSans-101"/>
     <use x="1001.726562" xlink:href="#DejaVuSans-110"/>
     <use x="1065.105469" xlink:href="#DejaVuSans-32"/>
     <use x="1096.892578" xlink:href="#DejaVuSans-99"/>
     <use x="1151.873047" xlink:href="#DejaVuSans-111"/>
     <use x="1213.054688" xlink:href="#DejaVuSans-108"/>
     <use x="1240.837891" xlink:href="#DejaVuSans-97"/>
     <use x="1302.117188" xlink:href="#DejaVuSans-32"/>
     <use x="1333.904297" xlink:href="#DejaVuSans-65"/>
    </g>
   </g>
  </g>
  <g id="axes_2">
   <g id="patch_7">
    <path d="M 46.08 317.952 
L 212.75234 317.952 
L 212.75234 188.928 
L 46.08 188.928 
z
" style="fill:#ffffff;"/>
   </g>
   <g id="matplotlib.axis_3">
    <g id="xtick_7">
     <g id="line2d_22">
      <path clip-path="url(#paa70722fea)" d="M 53.504343 317.952 
L 53.504343 188.928 
" style="fill:none;stroke:#b0b0b0;stroke-linecap:square;stroke-width:0.8;"/>
     </g>
     <g id="line2d_23">
      <g>
       <use style="stroke:#000000;stroke-width:0.8;" x="53.504343" xlink:href="#m3df0647060" y="317.952"/>
      </g>
     </g>
     <g id="text_14">
      <!-- 0 -->
      <g transform="translate(50.323093 332.550437)scale(0.1 -0.1)">
       <use xlink:href="#DejaVuSans-48"/>
      </g>
     </g>
    </g>
    <g id="xtick_8">
     <g id="line2d_24">
      <path clip-path="url(#paa70722fea)" d="M 91.422339 317.952 
L 91.422339 188.928 
" style="fill:none;stroke:#b0b0b0;stroke-linecap:square;stroke-width:0.8;"/>
     </g>
     <g id="line2d_25">
      <g>
       <use style="stroke:#000000;stroke-width:0.8;" x="91.422339" xlink:href="#m3df0647060" y="317.952"/>
      </g>
     </g>
     <g id="text_15">
      <!-- 250 -->
      <g transform="translate(81.878589 332.550437)scale(0.1 -0.1)">
       <use xlink:href="#DejaVuSans-50"/>
       <use x="63.623047" xlink:href="#DejaVuSans-53"/>
       <use x="127.246094" xlink:href="#DejaVuSans-48"/>
      </g>
     </g>
    </g>
    <g id="xtick_9">
     <g id="line2d_26">
      <path clip-path="url(#paa70722fea)" d="M 129.340334 317.952 
L 129.340334 188.928 
" style="fill:none;stroke:#b0b0b0;stroke-linecap:square;stroke-width:0.8;"/>
     </g>
     <g id="line2d_27">
      <g>
       <use style="stroke:#000000;stroke-width:0.8;" x="129.340334" xlink:href="#m3df0647060" y="317.952"/>
      </g>
     </g>
     <g id="text_16">
      <!-- 500 -->
      <g transform="translate(119.796584 332.550437)scale(0.1 -0.1)">
       <use xlink:href="#DejaVuSans-53"/>
       <use x="63.623047" xlink:href="#DejaVuSans-48"/>
       <use x="127.246094" xlink:href="#DejaVuSans-48"/>
      </g>
     </g>
    </g>
    <g id="xtick_10">
     <g id="line2d_28">
      <path clip-path="url(#paa70722fea)" d="M 167.25833 317.952 
L 167.25833 188.928 
" style="fill:none;stroke:#b0b0b0;stroke-linecap:square;stroke-width:0.8;"/>
     </g>
     <g id="line2d_29">
      <g>
       <use style="stroke:#000000;stroke-width:0.8;" x="167.25833" xlink:href="#m3df0647060" y="317.952"/>
      </g>
     </g>
     <g id="text_17">
      <!-- 750 -->
      <defs>
       <path d="M 8.203125 72.90625 
L 55.078125 72.90625 
L 55.078125 68.703125 
L 28.609375 0 
L 18.3125 0 
L 43.21875 64.59375 
L 8.203125 64.59375 
z
" id="DejaVuSans-55"/>
      </defs>
      <g transform="translate(157.71458 332.550437)scale(0.1 -0.1)">
       <use xlink:href="#DejaVuSans-55"/>
       <use x="63.623047" xlink:href="#DejaVuSans-53"/>
       <use x="127.246094" xlink:href="#DejaVuSans-48"/>
      </g>
     </g>
    </g>
    <g id="xtick_11">
     <g id="line2d_30">
      <path clip-path="url(#paa70722fea)" d="M 205.176325 317.952 
L 205.176325 188.928 
" style="fill:none;stroke:#b0b0b0;stroke-linecap:square;stroke-width:0.8;"/>
     </g>
     <g id="line2d_31">
      <g>
       <use style="stroke:#000000;stroke-width:0.8;" x="205.176325" xlink:href="#m3df0647060" y="317.952"/>
      </g>
     </g>
     <g id="text_18">
      <!-- 1000 -->
      <g transform="translate(192.451325 332.550437)scale(0.1 -0.1)">
       <use xlink:href="#DejaVuSans-49"/>
       <use x="63.623047" xlink:href="#DejaVuSans-48"/>
       <use x="127.246094" xlink:href="#DejaVuSans-48"/>
       <use x="190.869141" xlink:href="#DejaVuSans-48"/>
      </g>
     </g>
    </g>
    <g id="text_19">
     <!-- Corridas -->
     <g transform="translate(108.523201 346.228563)scale(0.1 -0.1)">
      <use xlink:href="#DejaVuSans-67"/>
      <use x="69.824219" xlink:href="#DejaVuSans-111"/>
      <use x="131.005859" xlink:href="#DejaVuSans-114"/>
      <use x="172.103516" xlink:href="#DejaVuSans-114"/>
      <use x="213.216797" xlink:href="#DejaVuSans-105"/>
      <use x="241" xlink:href="#DejaVuSans-100"/>
      <use x="304.476562" xlink:href="#DejaVuSans-97"/>
      <use x="365.755859" xlink:href="#DejaVuSans-115"/>
     </g>
    </g>
   </g>
   <g id="matplotlib.axis_4">
    <g id="ytick_5">
     <g id="line2d_32">
      <path clip-path="url(#paa70722fea)" d="M 46.08 315.812552 
L 212.75234 315.812552 
" style="fill:none;stroke:#b0b0b0;stroke-linecap:square;stroke-width:0.8;"/>
     </g>
     <g id="line2d_33">
      <g>
       <use style="stroke:#000000;stroke-width:0.8;" x="46.08" xlink:href="#mf86215eeb6" y="315.812552"/>
      </g>
     </g>
     <g id="text_20">
      <!-- 0.035 -->
      <defs>
       <path d="M 40.578125 39.3125 
Q 47.65625 37.796875 51.625 33 
Q 55.609375 28.21875 55.609375 21.1875 
Q 55.609375 10.40625 48.1875 4.484375 
Q 40.765625 -1.421875 27.09375 -1.421875 
Q 22.515625 -1.421875 17.65625 -0.515625 
Q 12.796875 0.390625 7.625 2.203125 
L 7.625 11.71875 
Q 11.71875 9.328125 16.59375 8.109375 
Q 21.484375 6.890625 26.8125 6.890625 
Q 36.078125 6.890625 40.9375 10.546875 
Q 45.796875 14.203125 45.796875 21.1875 
Q 45.796875 27.640625 41.28125 31.265625 
Q 36.765625 34.90625 28.71875 34.90625 
L 20.21875 34.90625 
L 20.21875 43.015625 
L 29.109375 43.015625 
Q 36.375 43.015625 40.234375 45.921875 
Q 44.09375 48.828125 44.09375 54.296875 
Q 44.09375 59.90625 40.109375 62.90625 
Q 36.140625 65.921875 28.71875 65.921875 
Q 24.65625 65.921875 20.015625 65.03125 
Q 15.375 64.15625 9.8125 62.3125 
L 9.8125 71.09375 
Q 15.4375 72.65625 20.34375 73.4375 
Q 25.25 74.21875 29.59375 74.21875 
Q 40.828125 74.21875 47.359375 69.109375 
Q 53.90625 64.015625 53.90625 55.328125 
Q 53.90625 49.265625 50.4375 45.09375 
Q 46.96875 40.921875 40.578125 39.3125 
z
" id="DejaVuSans-51"/>
      </defs>
      <g transform="translate(10.451875 319.61177)scale(0.1 -0.1)">
       <use xlink:href="#DejaVuSans-48"/>
       <use x="63.623047" xlink:href="#DejaVuSans-46"/>
       <use x="95.410156" xlink:href="#DejaVuSans-48"/>
       <use x="159.033203" xlink:href="#DejaVuSans-51"/>
       <use x="222.65625" xlink:href="#DejaVuSans-53"/>
      </g>
     </g>
    </g>
    <g id="ytick_6">
     <g id="line2d_34">
      <path clip-path="url(#paa70722fea)" d="M 46.08 286.314839 
L 212.75234 286.314839 
" style="fill:none;stroke:#b0b0b0;stroke-linecap:square;stroke-width:0.8;"/>
     </g>
     <g id="line2d_35">
      <g>
       <use style="stroke:#000000;stroke-width:0.8;" x="46.08" xlink:href="#mf86215eeb6" y="286.314839"/>
      </g>
     </g>
     <g id="text_21">
      <!-- 0.040 -->
      <g transform="translate(10.451875 290.114058)scale(0.1 -0.1)">
       <use xlink:href="#DejaVuSans-48"/>
       <use x="63.623047" xlink:href="#DejaVuSans-46"/>
       <use x="95.410156" xlink:href="#DejaVuSans-48"/>
       <use x="159.033203" xlink:href="#DejaVuSans-52"/>
       <use x="222.65625" xlink:href="#DejaVuSans-48"/>
      </g>
     </g>
    </g>
    <g id="ytick_7">
     <g id="line2d_36">
      <path clip-path="url(#paa70722fea)" d="M 46.08 256.817126 
L 212.75234 256.817126 
" style="fill:none;stroke:#b0b0b0;stroke-linecap:square;stroke-width:0.8;"/>
     </g>
     <g id="line2d_37">
      <g>
       <use style="stroke:#000000;stroke-width:0.8;" x="46.08" xlink:href="#mf86215eeb6" y="256.817126"/>
      </g>
     </g>
     <g id="text_22">
      <!-- 0.045 -->
      <g transform="translate(10.451875 260.616345)scale(0.1 -0.1)">
       <use xlink:href="#DejaVuSans-48"/>
       <use x="63.623047" xlink:href="#DejaVuSans-46"/>
       <use x="95.410156" xlink:href="#DejaVuSans-48"/>
       <use x="159.033203" xlink:href="#DejaVuSans-52"/>
       <use x="222.65625" xlink:href="#DejaVuSans-53"/>
      </g>
     </g>
    </g>
    <g id="ytick_8">
     <g id="line2d_38">
      <path clip-path="url(#paa70722fea)" d="M 46.08 227.319414 
L 212.75234 227.319414 
" style="fill:none;stroke:#b0b0b0;stroke-linecap:square;stroke-width:0.8;"/>
     </g>
     <g id="line2d_39">
      <g>
       <use style="stroke:#000000;stroke-width:0.8;" x="46.08" xlink:href="#mf86215eeb6" y="227.319414"/>
      </g>
     </g>
     <g id="text_23">
      <!-- 0.050 -->
      <g transform="translate(10.451875 231.118633)scale(0.1 -0.1)">
       <use xlink:href="#DejaVuSans-48"/>
       <use x="63.623047" xlink:href="#DejaVuSans-46"/>
       <use x="95.410156" xlink:href="#DejaVuSans-48"/>
       <use x="159.033203" xlink:href="#DejaVuSans-53"/>
       <use x="222.65625" xlink:href="#DejaVuSans-48"/>
      </g>
     </g>
    </g>
    <g id="ytick_9">
     <g id="line2d_40">
      <path clip-path="url(#paa70722fea)" d="M 46.08 197.821701 
L 212.75234 197.821701 
" style="fill:none;stroke:#b0b0b0;stroke-linecap:square;stroke-width:0.8;"/>
     </g>
     <g id="line2d_41">
      <g>
       <use style="stroke:#000000;stroke-width:0.8;" x="46.08" xlink:href="#mf86215eeb6" y="197.821701"/>
      </g>
     </g>
     <g id="text_24">
      <!-- 0.055 -->
      <g transform="translate(10.451875 201.62092)scale(0.1 -0.1)">
       <use xlink:href="#DejaVuSans-48"/>
       <use x="63.623047" xlink:href="#DejaVuSans-46"/>
       <use x="95.410156" xlink:href="#DejaVuSans-48"/>
       <use x="159.033203" xlink:href="#DejaVuSans-53"/>
       <use x="222.65625" xlink:href="#DejaVuSans-53"/>
      </g>
     </g>
    </g>
    <g id="text_25">
     <!-- Demora -->
     <g transform="translate(4.372188 273.415781)rotate(-90)scale(0.1 -0.1)">
      <use xlink:href="#DejaVuSans-68"/>
      <use x="77.001953" xlink:href="#DejaVuSans-101"/>
      <use x="138.525391" xlink:href="#DejaVuSans-109"/>
      <use x="235.9375" xlink:href="#DejaVuSans-111"/>
      <use x="297.119141" xlink:href="#DejaVuSans-114"/>
      <use x="338.232422" xlink:href="#DejaVuSans-97"/>
     </g>
    </g>
   </g>
   <g id="line2d_42">
    <path clip-path="url(#paa70722fea)" d="M 53.656015 312.087273 
L 53.807687 257.637195 
L 54.111031 242.541852 
L 54.262703 252.838272 
L 54.414375 244.597359 
L 54.566047 253.340956 
L 54.717719 231.15599 
L 54.869391 239.925317 
L 55.021063 229.293452 
L 55.172735 233.399282 
L 55.324407 230.70891 
L 55.627751 238.311976 
L 55.931095 230.41907 
L 56.082767 230.741872 
L 56.234439 223.750098 
L 56.537783 205.014246 
L 56.689455 208.31835 
L 56.841127 207.498292 
L 56.992799 209.872627 
L 57.144471 199.245376 
L 57.751159 214.344606 
L 57.902831 213.33025 
L 58.206175 220.899166 
L 58.357847 220.153129 
L 58.509519 217.998321 
L 58.812863 217.492683 
L 58.964535 220.250267 
L 59.267879 216.885706 
L 59.419551 217.809204 
L 59.722895 215.994001 
L 59.874567 214.065708 
L 60.177911 215.141368 
L 60.329583 216.665444 
L 60.481255 211.890193 
L 60.632927 212.850635 
L 60.936271 209.420381 
L 61.087943 209.344705 
L 61.239615 206.022442 
L 61.542959 208.912348 
L 61.69463 205.090095 
L 61.846302 204.549301 
L 61.997974 202.735901 
L 62.149646 199.173 
L 62.301318 199.28243 
L 62.45299 199.07017 
L 62.604662 199.599811 
L 62.756334 199.096851 
L 62.908006 199.261312 
L 63.514694 201.788385 
L 63.666366 201.032525 
L 63.818038 199.549456 
L 63.96971 199.389608 
L 64.424726 202.176453 
L 64.576398 202.065366 
L 64.72807 202.268127 
L 64.879742 200.587876 
L 65.031414 201.2942 
L 65.183086 200.889576 
L 65.334758 201.289304 
L 65.48643 200.749506 
L 65.638102 196.754901 
L 65.789774 197.59978 
L 65.941446 195.96209 
L 66.093118 195.97668 
L 66.24479 196.478946 
L 66.396462 194.792727 
L 66.851478 198.881213 
L 67.00315 199.456584 
L 67.154822 197.627897 
L 67.306494 198.363178 
L 67.458166 198.276824 
L 67.609838 198.009916 
L 67.76151 198.435731 
L 67.913182 200.001157 
L 68.064854 200.010125 
L 68.216526 201.743631 
L 68.368198 200.553196 
L 68.823214 202.365857 
L 68.974886 200.452148 
L 69.27823 202.409558 
L 69.429902 202.203852 
L 69.733246 203.787125 
L 70.036589 202.725098 
L 70.188261 203.584074 
L 70.339933 203.425658 
L 70.491605 202.042531 
L 70.643277 201.841748 
L 70.794949 201.856054 
L 70.946621 201.560183 
L 71.249965 199.334343 
L 71.401637 199.321761 
L 71.704981 200.426253 
L 72.008325 200.833738 
L 72.159997 201.855439 
L 72.311669 201.496275 
L 72.463341 202.33354 
L 72.615013 201.991108 
L 73.070029 204.883381 
L 73.221701 204.496399 
L 73.373373 204.729913 
L 74.131733 202.581913 
L 74.283405 201.918429 
L 74.586749 202.150751 
L 74.890093 203.36076 
L 75.041765 203.166897 
L 75.193437 203.407914 
L 75.345109 203.347752 
L 75.648453 202.724412 
L 75.800125 203.021788 
L 75.951797 202.365438 
L 76.103469 202.380694 
L 76.558485 203.363332 
L 76.710157 203.434275 
L 76.861829 202.642609 
L 77.013501 202.554236 
L 77.165173 203.313125 
L 77.468517 202.358589 
L 77.771861 202.068267 
L 78.075204 202.518789 
L 78.226876 202.197784 
L 78.378548 202.398168 
L 78.53022 202.12346 
L 78.681892 202.39396 
L 78.833564 202.124561 
L 78.985236 202.092303 
L 79.136908 203.299518 
L 79.28858 203.095916 
L 79.440252 203.265891 
L 79.591924 202.597112 
L 79.743596 202.540951 
L 80.04694 203.088186 
L 80.198612 202.856885 
L 80.350284 202.400034 
L 80.653628 203.467579 
L 80.8053 203.448874 
L 80.956972 203.280553 
L 81.108644 203.296973 
L 81.260316 203.448319 
L 81.411988 202.866051 
L 81.56366 203.191036 
L 81.867004 203.15922 
L 82.018676 202.183357 
L 82.170348 203.025193 
L 82.32202 203.206756 
L 82.473692 203.077757 
L 82.777036 203.661855 
L 82.928708 203.460467 
L 83.08038 203.55124 
L 83.232052 202.698014 
L 83.383724 203.16074 
L 83.535396 203.116585 
L 83.687068 203.709697 
L 83.83874 203.798837 
L 83.990412 203.631069 
L 84.142084 203.81737 
L 84.293756 203.784281 
L 84.748772 201.791552 
L 84.900444 201.970009 
L 85.052116 201.866587 
L 85.203788 202.30611 
L 85.507132 201.435181 
L 85.658804 201.710147 
L 85.810476 201.402245 
L 86.11382 201.608053 
L 86.417163 200.465298 
L 86.568835 200.933067 
L 86.720507 200.49526 
L 87.023851 201.033726 
L 87.175523 201.340013 
L 87.478867 201.30527 
L 87.933883 201.248698 
L 88.388899 201.577912 
L 88.540571 202.383732 
L 88.995587 202.595026 
L 89.147259 202.027793 
L 89.298931 202.266354 
L 89.450603 202.16091 
L 89.602275 201.814277 
L 89.753947 202.072786 
L 90.057291 201.596173 
L 90.208963 201.481201 
L 90.512307 202.138422 
L 90.663979 201.680681 
L 90.815651 201.695229 
L 90.967323 201.118527 
L 91.118995 201.041085 
L 91.270667 200.644088 
L 91.422339 200.848042 
L 91.574011 200.613058 
L 91.725683 200.584503 
L 91.877355 200.426142 
L 92.029027 200.758015 
L 92.332371 200.153073 
L 92.484043 200.354665 
L 92.635715 200.804665 
L 93.394075 199.726858 
L 93.545747 199.946291 
L 93.849091 199.721642 
L 94.000763 199.308912 
L 94.304107 199.218031 
L 94.455778 199.374487 
L 94.759122 200.211933 
L 95.214138 201.209399 
L 95.36581 200.970975 
L 95.517482 201.113882 
L 95.669154 200.934362 
L 95.820826 201.047258 
L 95.972498 200.964218 
L 96.275842 202.193522 
L 96.427514 202.150369 
L 96.730858 201.041344 
L 96.88253 200.982148 
L 97.034202 201.167309 
L 97.337546 200.339278 
L 97.489218 200.541004 
L 97.64089 200.555515 
L 97.792562 200.188251 
L 98.550922 201.610567 
L 98.702594 201.980882 
L 99.005938 201.859319 
L 99.15761 201.622279 
L 99.309282 201.010002 
L 99.612626 201.035369 
L 99.764298 201.310142 
L 99.91597 201.301526 
L 100.067642 201.412622 
L 100.219314 200.953565 
L 100.370986 201.024336 
L 100.67433 200.536174 
L 101.584362 200.964621 
L 101.736034 200.832637 
L 102.19105 201.567477 
L 102.342722 201.479653 
L 102.494394 201.542859 
L 102.646065 201.897103 
L 102.797737 201.806909 
L 103.101081 202.115119 
L 103.252753 201.563139 
L 103.404425 201.634612 
L 103.859441 200.951749 
L 104.162785 200.678101 
L 104.314457 200.669389 
L 104.466129 200.90642 
L 104.769473 200.961187 
L 104.921145 201.217667 
L 105.224489 201.101709 
L 105.679505 201.486208 
L 105.831177 201.084018 
L 105.982849 201.022851 
L 106.134521 201.108038 
L 106.741209 201.960581 
L 107.044553 201.996529 
L 107.499569 201.834281 
L 107.954585 202.132974 
L 108.257929 202.550657 
L 108.409601 202.678597 
L 109.622977 202.452129 
L 110.077993 203.060016 
L 110.381337 203.141322 
L 110.684681 203.142185 
L 111.139696 203.600774 
L 111.291368 203.650067 
L 111.898056 204.317992 
L 112.049728 204.256635 
L 112.504744 204.533 
L 112.656416 204.121255 
L 113.111432 204.195142 
L 113.263104 203.836796 
L 113.414776 203.922657 
L 113.71812 203.562573 
L 114.173136 203.165245 
L 114.47648 203.286246 
L 114.628152 203.186767 
L 114.779824 203.266194 
L 115.23484 203.122893 
L 115.538184 203.294104 
L 115.841528 202.929923 
L 115.9932 202.862512 
L 116.296544 203.172087 
L 116.448216 203.134484 
L 116.599888 203.253408 
L 117.054904 203.21697 
L 117.206576 203.33297 
L 117.358248 203.0901 
L 117.50992 203.222178 
L 117.964936 202.661591 
L 118.116608 202.689866 
L 118.26828 202.907076 
L 118.571624 202.66621 
L 118.723296 202.871081 
L 118.874968 202.870862 
L 119.026639 203.180888 
L 119.178311 203.124615 
L 119.481655 203.475479 
L 119.633327 203.642955 
L 119.936671 203.510322 
L 120.088343 203.44231 
L 120.391687 203.831529 
L 120.543359 203.743262 
L 120.846703 204.068285 
L 120.998375 204.011332 
L 121.150047 204.406795 
L 121.453391 204.533061 
L 121.605063 204.751269 
L 121.756735 204.761188 
L 122.211751 205.334786 
L 122.363423 205.319135 
L 122.818439 205.701998 
L 122.970111 205.564386 
L 123.121783 205.129994 
L 123.273455 205.144862 
L 123.425127 205.366068 
L 123.576799 205.377693 
L 123.880143 204.884888 
L 124.335159 205.322708 
L 124.486831 205.444359 
L 124.638503 205.829503 
L 124.941847 205.810542 
L 125.245191 205.46655 
L 125.700207 205.702818 
L 126.155223 206.001664 
L 126.610239 205.34343 
L 126.913583 204.844481 
L 127.216926 204.876632 
L 127.671942 204.373555 
L 127.975286 204.449398 
L 128.126958 204.397845 
L 128.27863 203.995941 
L 128.430302 203.957635 
L 128.581974 204.088861 
L 129.03699 203.987384 
L 129.492006 204.171269 
L 129.79535 203.771539 
L 129.947022 203.889741 
L 130.250366 203.636035 
L 130.402038 203.801069 
L 130.55371 203.791016 
L 130.705382 203.534917 
L 131.008726 203.695706 
L 131.31207 203.498148 
L 131.463742 203.665705 
L 131.615414 203.542496 
L 131.767086 203.811896 
L 132.07043 203.502616 
L 132.222102 203.343501 
L 132.373774 203.46471 
L 132.677118 203.271103 
L 132.82879 203.434645 
L 132.980462 203.316242 
L 133.283806 203.504644 
L 133.435478 203.654944 
L 134.34551 203.341711 
L 134.497182 203.679386 
L 134.648854 203.70202 
L 134.952198 203.966141 
L 135.255541 204.09977 
L 135.407213 203.832351 
L 135.710557 204.266617 
L 136.165573 204.413348 
L 136.468917 204.752248 
L 136.620589 204.810719 
L 136.923933 204.358455 
L 137.227277 204.396839 
L 137.378949 204.539325 
L 137.682293 204.503319 
L 138.895669 204.916257 
L 139.350685 205.2022 
L 139.502357 205.186023 
L 139.654029 205.035014 
L 139.805701 205.058515 
L 140.109045 204.834973 
L 140.260717 204.873901 
L 140.412389 204.782883 
L 140.715733 204.787334 
L 140.867405 204.641904 
L 141.019077 204.708696 
L 141.170749 204.531978 
L 141.474093 204.851317 
L 141.625765 204.710836 
L 141.777437 204.933501 
L 142.080781 204.838494 
L 142.232453 204.940784 
L 142.535797 204.828765 
L 143.142485 205.043613 
L 143.294157 204.948622 
L 143.749172 205.021607 
L 143.900844 204.936633 
L 144.204188 205.416173 
L 144.810876 205.096469 
L 144.962548 205.409129 
L 145.417564 205.282167 
L 145.720908 205.481934 
L 146.024252 205.839545 
L 146.175924 205.790966 
L 146.479268 205.351464 
L 146.63094 205.283768 
L 146.782612 205.344848 
L 147.237628 204.822643 
L 147.844316 205.401193 
L 148.451004 205.437203 
L 148.602676 205.504071 
L 148.754348 205.368716 
L 149.512708 205.833208 
L 150.574412 205.629144 
L 150.726084 205.77981 
L 151.332772 205.659564 
L 151.484444 205.863577 
L 151.636115 205.796178 
L 151.787787 205.872393 
L 151.939459 205.757947 
L 152.242803 205.759368 
L 152.394475 205.521336 
L 152.546147 205.51661 
L 152.849491 205.279158 
L 153.152835 205.815004 
L 153.304507 205.520702 
L 153.911195 205.365541 
L 154.062867 205.192949 
L 154.517883 205.385595 
L 154.669555 205.431285 
L 154.821227 205.31698 
L 155.427915 205.599586 
L 155.731259 205.81631 
L 155.882931 205.615436 
L 156.641291 206.050265 
L 156.792963 205.974112 
L 157.247979 206.380887 
L 157.551323 206.377093 
L 158.309683 206.545901 
L 158.613027 206.330624 
L 158.916371 206.378325 
L 159.068043 206.300447 
L 159.523059 206.640018 
L 159.826402 206.562477 
L 160.129746 206.532505 
L 160.281418 206.419166 
L 160.43309 206.517816 
L 160.584762 206.397883 
L 160.736434 206.443252 
L 161.646466 205.959409 
L 162.404826 206.140109 
L 162.556498 206.014047 
L 163.011514 206.027413 
L 163.163186 206.001751 
L 163.618202 206.233417 
L 163.769874 206.061131 
L 164.073218 205.463818 
L 164.679906 205.539915 
L 164.831578 205.456433 
L 164.98325 205.562127 
L 165.286594 205.489191 
L 166.49997 205.738009 
L 166.651642 205.686713 
L 166.803314 205.800992 
L 166.954986 205.642387 
L 167.106658 205.729842 
L 167.410002 205.470205 
L 168.775049 205.827382 
L 169.078393 205.672163 
L 169.381737 205.874403 
L 169.533409 205.937232 
L 169.685081 205.840518 
L 169.836753 205.603186 
L 170.140097 205.497753 
L 170.595113 205.566403 
L 170.898457 205.622554 
L 171.050129 205.521876 
L 171.960161 206.098819 
L 172.111833 206.23442 
L 172.566849 205.964936 
L 172.718521 206.070277 
L 172.870193 205.883386 
L 173.325209 206.208475 
L 175.751961 206.851304 
L 176.055305 206.720326 
L 176.358648 206.719241 
L 176.813664 206.720546 
L 177.117008 206.875904 
L 178.330384 206.446269 
L 178.633728 206.47429 
L 178.7854 206.500068 
L 178.937072 206.341363 
L 179.240416 206.627153 
L 179.392088 206.473697 
L 179.695432 206.568874 
L 179.847104 206.445749 
L 180.30212 206.679607 
L 180.757136 206.438382 
L 181.06048 206.564166 
L 181.363824 206.449188 
L 181.515496 206.524834 
L 181.81884 206.214702 
L 182.122184 206.257967 
L 182.273856 206.11617 
L 182.5772 206.095608 
L 182.880544 205.932165 
L 183.032216 205.973578 
L 183.33556 205.809665 
L 183.790576 205.916647 
L 184.397263 205.909283 
L 184.548935 205.761162 
L 184.852279 205.899707 
L 185.762311 205.730441 
L 185.913983 205.777303 
L 186.065655 205.989045 
L 186.672343 206.034347 
L 186.975687 206.173172 
L 187.127359 206.02151 
L 187.279031 206.129853 
L 187.582375 206.125338 
L 188.644079 206.104042 
L 188.795751 206.031187 
L 189.250767 206.22528 
L 190.312471 206.299638 
L 190.919159 206.568211 
L 191.222503 206.256345 
L 191.677519 206.273401 
L 192.132535 205.902315 
L 192.890894 205.905072 
L 193.194238 206.078488 
L 193.497582 205.847392 
L 193.952598 206.096168 
L 194.10427 206.020604 
L 194.255942 205.778329 
L 194.86263 206.153837 
L 195.62099 206.519113 
L 196.227678 206.681978 
L 196.531022 206.638728 
L 197.13771 207.140059 
L 198.047742 207.175731 
L 198.351086 206.996058 
L 198.806102 206.922261 
L 198.957774 206.924341 
L 199.261118 206.746044 
L 199.564462 206.634734 
L 200.17115 206.776015 
L 200.929509 206.452883 
L 201.081181 206.556777 
L 201.232853 206.416622 
L 201.687869 206.776737 
L 201.839541 206.624501 
L 201.991213 206.696793 
L 202.142885 206.45281 
L 202.446229 206.409705 
L 202.597901 206.23708 
L 202.901245 206.382621 
L 203.204589 206.416229 
L 203.356261 206.468208 
L 203.659605 206.286325 
L 203.962949 206.434726 
L 204.569637 206.746261 
L 204.872981 206.592183 
L 205.176325 206.685317 
L 205.176325 206.685317 
" style="fill:none;stroke:#1f77b4;stroke-linecap:square;stroke-width:1.5;"/>
   </g>
   <g id="patch_8">
    <path d="M 46.08 317.952 
L 46.08 188.928 
" style="fill:none;stroke:#000000;stroke-linecap:square;stroke-linejoin:miter;stroke-width:0.8;"/>
   </g>
   <g id="patch_9">
    <path d="M 212.75234 317.952 
L 212.75234 188.928 
" style="fill:none;stroke:#000000;stroke-linecap:square;stroke-linejoin:miter;stroke-width:0.8;"/>
   </g>
   <g id="patch_10">
    <path d="M 46.08 317.952 
L 212.75234 317.952 
" style="fill:none;stroke:#000000;stroke-linecap:square;stroke-linejoin:miter;stroke-width:0.8;"/>
   </g>
   <g id="patch_11">
    <path d="M 46.08 188.928 
L 212.75234 188.928 
" style="fill:none;stroke:#000000;stroke-linecap:square;stroke-linejoin:miter;stroke-width:0.8;"/>
   </g>
   <g id="text_26">
    <!-- Demora promedio en cola C1 -->
    <g transform="translate(41.37367 182.928)scale(0.12 -0.12)">
     <use xlink:href="#DejaVuSans-68"/>
     <use x="77.001953" xlink:href="#DejaVuSans-101"/>
     <use x="138.525391" xlink:href="#DejaVuSans-109"/>
     <use x="235.9375" xlink:href="#DejaVuSans-111"/>
     <use x="297.119141" xlink:href="#DejaVuSans-114"/>
     <use x="338.232422" xlink:href="#DejaVuSans-97"/>
     <use x="399.511719" xlink:href="#DejaVuSans-32"/>
     <use x="431.298828" xlink:href="#DejaVuSans-112"/>
     <use x="494.775391" xlink:href="#DejaVuSans-114"/>
     <use x="535.857422" xlink:href="#DejaVuSans-111"/>
     <use x="597.039062" xlink:href="#DejaVuSans-109"/>
     <use x="694.451172" xlink:href="#DejaVuSans-101"/>
     <use x="755.974609" xlink:href="#DejaVuSans-100"/>
     <use x="819.451172" xlink:href="#DejaVuSans-105"/>
     <use x="847.234375" xlink:href="#DejaVuSans-111"/>
     <use x="908.416016" xlink:href="#DejaVuSans-32"/>
     <use x="940.203125" xlink:href="#DejaVuSans-101"/>
     <use x="1001.726562" xlink:href="#DejaVuSans-110"/>
     <use x="1065.105469" xlink:href="#DejaVuSans-32"/>
     <use x="1096.892578" xlink:href="#DejaVuSans-99"/>
     <use x="1151.873047" xlink:href="#DejaVuSans-111"/>
     <use x="1213.054688" xlink:href="#DejaVuSans-108"/>
     <use x="1240.837891" xlink:href="#DejaVuSans-97"/>
     <use x="1302.117188" xlink:href="#DejaVuSans-32"/>
     <use x="1333.904297" xlink:href="#DejaVuSans-67"/>
     <use x="1403.728516" xlink:href="#DejaVuSans-49"/>
    </g>
   </g>
  </g>
  <g id="axes_3">
   <g id="patch_12">
    <path d="M 271.08766 317.952 
L 437.76 317.952 
L 437.76 188.928 
L 271.08766 188.928 
z
" style="fill:#ffffff;"/>
   </g>
   <g id="matplotlib.axis_5">
    <g id="xtick_12">
     <g id="line2d_43">
      <path clip-path="url(#p75ddf86737)" d="M 278.512003 317.952 
L 278.512003 188.928 
" style="fill:none;stroke:#b0b0b0;stroke-linecap:square;stroke-width:0.8;"/>
     </g>
     <g id="line2d_44">
      <g>
       <use style="stroke:#000000;stroke-width:0.8;" x="278.512003" xlink:href="#m3df0647060" y="317.952"/>
      </g>
     </g>
     <g id="text_27">
      <!-- 0 -->
      <g transform="translate(275.330753 332.550437)scale(0.1 -0.1)">
       <use xlink:href="#DejaVuSans-48"/>
      </g>
     </g>
    </g>
    <g id="xtick_13">
     <g id="line2d_45">
      <path clip-path="url(#p75ddf86737)" d="M 316.429998 317.952 
L 316.429998 188.928 
" style="fill:none;stroke:#b0b0b0;stroke-linecap:square;stroke-width:0.8;"/>
     </g>
     <g id="line2d_46">
      <g>
       <use style="stroke:#000000;stroke-width:0.8;" x="316.429998" xlink:href="#m3df0647060" y="317.952"/>
      </g>
     </g>
     <g id="text_28">
      <!-- 250 -->
      <g transform="translate(306.886248 332.550437)scale(0.1 -0.1)">
       <use xlink:href="#DejaVuSans-50"/>
       <use x="63.623047" xlink:href="#DejaVuSans-53"/>
       <use x="127.246094" xlink:href="#DejaVuSans-48"/>
      </g>
     </g>
    </g>
    <g id="xtick_14">
     <g id="line2d_47">
      <path clip-path="url(#p75ddf86737)" d="M 354.347994 317.952 
L 354.347994 188.928 
" style="fill:none;stroke:#b0b0b0;stroke-linecap:square;stroke-width:0.8;"/>
     </g>
     <g id="line2d_48">
      <g>
       <use style="stroke:#000000;stroke-width:0.8;" x="354.347994" xlink:href="#m3df0647060" y="317.952"/>
      </g>
     </g>
     <g id="text_29">
      <!-- 500 -->
      <g transform="translate(344.804244 332.550437)scale(0.1 -0.1)">
       <use xlink:href="#DejaVuSans-53"/>
       <use x="63.623047" xlink:href="#DejaVuSans-48"/>
       <use x="127.246094" xlink:href="#DejaVuSans-48"/>
      </g>
     </g>
    </g>
    <g id="xtick_15">
     <g id="line2d_49">
      <path clip-path="url(#p75ddf86737)" d="M 392.265989 317.952 
L 392.265989 188.928 
" style="fill:none;stroke:#b0b0b0;stroke-linecap:square;stroke-width:0.8;"/>
     </g>
     <g id="line2d_50">
      <g>
       <use style="stroke:#000000;stroke-width:0.8;" x="392.265989" xlink:href="#m3df0647060" y="317.952"/>
      </g>
     </g>
     <g id="text_30">
      <!-- 750 -->
      <g transform="translate(382.722239 332.550437)scale(0.1 -0.1)">
       <use xlink:href="#DejaVuSans-55"/>
       <use x="63.623047" xlink:href="#DejaVuSans-53"/>
       <use x="127.246094" xlink:href="#DejaVuSans-48"/>
      </g>
     </g>
    </g>
    <g id="xtick_16">
     <g id="line2d_51">
      <path clip-path="url(#p75ddf86737)" d="M 430.183985 317.952 
L 430.183985 188.928 
" style="fill:none;stroke:#b0b0b0;stroke-linecap:square;stroke-width:0.8;"/>
     </g>
     <g id="line2d_52">
      <g>
       <use style="stroke:#000000;stroke-width:0.8;" x="430.183985" xlink:href="#m3df0647060" y="317.952"/>
      </g>
     </g>
     <g id="text_31">
      <!-- 1000 -->
      <g transform="translate(417.458985 332.550437)scale(0.1 -0.1)">
       <use xlink:href="#DejaVuSans-49"/>
       <use x="63.623047" xlink:href="#DejaVuSans-48"/>
       <use x="127.246094" xlink:href="#DejaVuSans-48"/>
       <use x="190.869141" xlink:href="#DejaVuSans-48"/>
      </g>
     </g>
    </g>
    <g id="text_32">
     <!-- Corridas -->
     <g transform="translate(333.530861 346.228563)scale(0.1 -0.1)">
      <use xlink:href="#DejaVuSans-67"/>
      <use x="69.824219" xlink:href="#DejaVuSans-111"/>
      <use x="131.005859" xlink:href="#DejaVuSans-114"/>
      <use x="172.103516" xlink:href="#DejaVuSans-114"/>
      <use x="213.216797" xlink:href="#DejaVuSans-105"/>
      <use x="241" xlink:href="#DejaVuSans-100"/>
      <use x="304.476562" xlink:href="#DejaVuSans-97"/>
      <use x="365.755859" xlink:href="#DejaVuSans-115"/>
     </g>
    </g>
   </g>
   <g id="matplotlib.axis_6">
    <g id="ytick_10">
     <g id="line2d_53">
      <path clip-path="url(#p75ddf86737)" d="M 271.08766 303.924558 
L 437.76 303.924558 
" style="fill:none;stroke:#b0b0b0;stroke-linecap:square;stroke-width:0.8;"/>
     </g>
     <g id="line2d_54">
      <g>
       <use style="stroke:#000000;stroke-width:0.8;" x="271.08766" xlink:href="#mf86215eeb6" y="303.924558"/>
      </g>
     </g>
     <g id="text_33">
      <!-- 0.035 -->
      <g transform="translate(235.459535 307.723777)scale(0.1 -0.1)">
       <use xlink:href="#DejaVuSans-48"/>
       <use x="63.623047" xlink:href="#DejaVuSans-46"/>
       <use x="95.410156" xlink:href="#DejaVuSans-48"/>
       <use x="159.033203" xlink:href="#DejaVuSans-51"/>
       <use x="222.65625" xlink:href="#DejaVuSans-53"/>
      </g>
     </g>
    </g>
    <g id="ytick_11">
     <g id="line2d_55">
      <path clip-path="url(#p75ddf86737)" d="M 271.08766 262.084972 
L 437.76 262.084972 
" style="fill:none;stroke:#b0b0b0;stroke-linecap:square;stroke-width:0.8;"/>
     </g>
     <g id="line2d_56">
      <g>
       <use style="stroke:#000000;stroke-width:0.8;" x="271.08766" xlink:href="#mf86215eeb6" y="262.084972"/>
      </g>
     </g>
     <g id="text_34">
      <!-- 0.040 -->
      <g transform="translate(235.459535 265.884191)scale(0.1 -0.1)">
       <use xlink:href="#DejaVuSans-48"/>
       <use x="63.623047" xlink:href="#DejaVuSans-46"/>
       <use x="95.410156" xlink:href="#DejaVuSans-48"/>
       <use x="159.033203" xlink:href="#DejaVuSans-52"/>
       <use x="222.65625" xlink:href="#DejaVuSans-48"/>
      </g>
     </g>
    </g>
    <g id="ytick_12">
     <g id="line2d_57">
      <path clip-path="url(#p75ddf86737)" d="M 271.08766 220.245387 
L 437.76 220.245387 
" style="fill:none;stroke:#b0b0b0;stroke-linecap:square;stroke-width:0.8;"/>
     </g>
     <g id="line2d_58">
      <g>
       <use style="stroke:#000000;stroke-width:0.8;" x="271.08766" xlink:href="#mf86215eeb6" y="220.245387"/>
      </g>
     </g>
     <g id="text_35">
      <!-- 0.045 -->
      <g transform="translate(235.459535 224.044605)scale(0.1 -0.1)">
       <use xlink:href="#DejaVuSans-48"/>
       <use x="63.623047" xlink:href="#DejaVuSans-46"/>
       <use x="95.410156" xlink:href="#DejaVuSans-48"/>
       <use x="159.033203" xlink:href="#DejaVuSans-52"/>
       <use x="222.65625" xlink:href="#DejaVuSans-53"/>
      </g>
     </g>
    </g>
    <g id="text_36">
     <!-- Demora -->
     <g transform="translate(229.379847 273.415781)rotate(-90)scale(0.1 -0.1)">
      <use xlink:href="#DejaVuSans-68"/>
      <use x="77.001953" xlink:href="#DejaVuSans-101"/>
      <use x="138.525391" xlink:href="#DejaVuSans-109"/>
      <use x="235.9375" xlink:href="#DejaVuSans-111"/>
      <use x="297.119141" xlink:href="#DejaVuSans-114"/>
      <use x="338.232422" xlink:href="#DejaVuSans-97"/>
     </g>
    </g>
   </g>
   <g id="line2d_59">
    <path clip-path="url(#p75ddf86737)" d="M 278.663675 299.301256 
L 278.815347 312.087273 
L 278.967019 279.975663 
L 279.118691 221.773579 
L 279.422035 241.519846 
L 279.573707 239.070303 
L 279.725379 229.612678 
L 279.877051 230.168907 
L 280.028723 224.124015 
L 280.483739 223.222848 
L 280.635411 231.514411 
L 280.787083 229.455766 
L 281.393771 215.418578 
L 281.697115 217.7857 
L 281.848787 218.563122 
L 282.152131 214.555901 
L 282.455475 221.726088 
L 282.758819 220.465488 
L 282.910491 220.590071 
L 283.062163 217.740123 
L 283.365506 221.106407 
L 283.517178 218.95033 
L 283.66885 219.477869 
L 283.820522 223.510931 
L 284.123866 219.405322 
L 284.275538 220.127036 
L 284.42721 221.708222 
L 284.730554 214.914098 
L 285.033898 214.404567 
L 285.18557 212.542756 
L 285.337242 215.653453 
L 285.488914 214.694016 
L 285.640586 210.338585 
L 285.792258 209.604124 
L 285.94393 209.547602 
L 286.398946 212.074852 
L 287.005634 203.097904 
L 287.308978 202.623727 
L 287.46065 203.252615 
L 287.612322 204.809248 
L 287.915666 203.493972 
L 288.21901 205.389366 
L 288.370682 206.307995 
L 288.522354 204.150666 
L 288.674026 205.096661 
L 288.97737 202.829871 
L 289.129042 204.181111 
L 289.280714 204.342899 
L 289.584058 202.195266 
L 289.73573 204.564176 
L 289.887402 200.127112 
L 290.039074 201.502737 
L 290.190746 201.489069 
L 290.342418 201.218045 
L 290.49409 201.193336 
L 290.645762 197.49162 
L 290.797434 199.031013 
L 290.949106 194.953702 
L 291.100778 195.065139 
L 291.25245 197.104569 
L 291.404121 194.792727 
L 291.859137 198.765528 
L 292.010809 198.845104 
L 292.162481 198.539985 
L 292.314153 198.637869 
L 292.465825 199.070952 
L 292.617497 199.024436 
L 292.920841 201.36928 
L 293.224185 201.512659 
L 293.375857 200.294423 
L 293.679201 199.6203 
L 293.830873 200.384262 
L 293.982545 198.443192 
L 294.437561 201.205671 
L 294.740905 202.999323 
L 294.892577 202.583974 
L 295.044249 202.995697 
L 295.195921 203.983833 
L 295.499265 203.003049 
L 295.650937 203.753115 
L 295.802609 202.98919 
L 295.954281 203.269714 
L 296.105953 202.971092 
L 296.257625 203.200033 
L 296.409297 202.974487 
L 296.560969 203.213521 
L 296.712641 203.895588 
L 296.864313 204.025018 
L 297.015985 203.286371 
L 297.167657 204.278695 
L 297.471001 204.739735 
L 297.622673 204.168842 
L 297.774345 204.764979 
L 297.926017 204.773611 
L 298.077689 205.953714 
L 298.229361 205.218403 
L 298.532705 205.762988 
L 298.684377 204.940818 
L 298.836049 204.810158 
L 298.987721 205.092658 
L 299.291065 203.984483 
L 299.442737 204.264494 
L 299.594408 204.167931 
L 299.897752 206.207317 
L 300.049424 205.165109 
L 300.201096 205.48138 
L 300.656112 207.052058 
L 300.807784 207.371895 
L 300.959456 207.395288 
L 301.111128 208.64631 
L 301.2628 208.232667 
L 301.414472 208.447848 
L 301.717816 209.04678 
L 301.869488 208.732658 
L 302.172832 209.709514 
L 302.324504 209.882805 
L 302.476176 208.806278 
L 302.77952 209.034117 
L 302.931192 209.806494 
L 303.082864 209.123076 
L 303.234536 209.151013 
L 303.53788 208.234592 
L 303.841224 209.407382 
L 304.144568 209.694238 
L 304.447912 209.501107 
L 304.599584 209.047733 
L 304.751256 209.586173 
L 304.902928 210.557809 
L 305.0546 210.165244 
L 305.206272 210.117653 
L 305.357944 209.739513 
L 305.509616 208.751775 
L 305.661288 209.703067 
L 306.116304 210.099492 
L 306.267976 210.938394 
L 306.57132 210.546934 
L 306.722992 210.61014 
L 307.178008 209.520596 
L 307.32968 209.893881 
L 307.481352 209.117316 
L 307.633024 209.632619 
L 307.784695 209.705042 
L 308.088039 210.470938 
L 308.239711 209.742807 
L 308.391383 210.233457 
L 308.543055 209.608158 
L 308.846399 210.424402 
L 308.998071 210.203342 
L 309.149743 210.579722 
L 309.301415 210.437277 
L 309.453087 210.70136 
L 309.908103 209.074964 
L 310.059775 208.83381 
L 310.211447 209.562794 
L 310.363119 209.54414 
L 310.666463 209.183095 
L 311.121479 210.132753 
L 311.273151 210.219912 
L 311.424823 209.655669 
L 311.576495 210.15336 
L 311.728167 209.862256 
L 312.031511 209.845204 
L 312.183183 210.109028 
L 312.334855 210.146049 
L 312.486527 209.226126 
L 312.789871 209.60859 
L 313.093215 209.582073 
L 313.244887 209.332106 
L 313.396559 209.334511 
L 313.548231 209.990307 
L 313.699903 209.93318 
L 314.306591 210.847848 
L 314.458263 210.893759 
L 314.609935 210.287065 
L 314.761607 210.171453 
L 314.913279 209.7461 
L 315.216623 209.996583 
L 315.368295 210.599126 
L 315.519967 210.585787 
L 315.671639 209.841598 
L 316.126654 209.435942 
L 316.429998 209.917088 
L 317.036686 209.186192 
L 317.188358 209.406749 
L 317.643374 208.693905 
L 317.795046 208.555643 
L 317.946718 208.018488 
L 318.09839 208.168552 
L 318.401734 207.410136 
L 318.553406 207.382745 
L 318.85675 207.860185 
L 319.160094 207.282778 
L 319.311766 207.116141 
L 319.463438 206.596755 
L 319.766782 207.089677 
L 319.918454 206.958164 
L 320.221798 207.592017 
L 320.525142 206.777154 
L 320.676814 206.679086 
L 320.980158 206.22325 
L 321.13183 206.678708 
L 321.586846 206.062869 
L 321.738518 206.065257 
L 322.041862 205.728102 
L 322.496878 205.642057 
L 322.64855 205.71407 
L 322.800222 204.903498 
L 323.40691 205.639066 
L 323.558582 205.577569 
L 323.861926 205.886075 
L 324.013598 205.79627 
L 324.165269 205.522018 
L 324.468613 204.717786 
L 324.620285 204.557268 
L 325.075301 205.259281 
L 325.530317 204.232121 
L 325.833661 204.223444 
L 325.985333 204.00787 
L 326.440349 204.001648 
L 326.592021 204.216619 
L 326.743693 204.144872 
L 326.895365 204.4379 
L 327.047037 204.327708 
L 327.198709 204.531539 
L 327.350381 204.520233 
L 327.502053 204.323251 
L 327.653725 204.789209 
L 327.805397 204.590209 
L 328.108741 205.124062 
L 328.260413 204.568133 
L 328.412085 204.689737 
L 328.715429 204.507328 
L 328.867101 204.180875 
L 329.018773 204.119581 
L 329.170445 204.438189 
L 329.322117 204.096492 
L 329.473789 204.127684 
L 330.232149 203.753317 
L 330.535493 204.647234 
L 330.838837 203.482735 
L 331.142181 204.12394 
L 331.597197 204.564565 
L 331.748869 204.425905 
L 331.900541 204.473005 
L 332.052213 203.891011 
L 332.203885 203.923037 
L 332.355556 204.10522 
L 332.810572 203.371839 
L 332.962244 203.4181 
L 333.113916 203.610491 
L 333.265588 203.613926 
L 333.41726 203.289312 
L 333.568932 203.602503 
L 333.720604 203.049015 
L 334.17562 203.02769 
L 334.478964 202.581842 
L 334.630636 202.787318 
L 334.782308 202.679235 
L 334.93398 202.718535 
L 335.085652 202.598263 
L 335.388996 202.720118 
L 335.844012 203.179031 
L 335.995684 203.129312 
L 336.4507 203.764577 
L 336.602372 203.61709 
L 336.754044 203.976338 
L 336.905716 204.032403 
L 337.20906 203.782431 
L 337.360732 204.008693 
L 337.664076 203.745574 
L 337.815748 203.766818 
L 338.119092 203.93547 
L 338.270764 204.027224 
L 338.574108 203.58095 
L 338.72578 203.615885 
L 338.877452 203.205472 
L 339.180796 203.388857 
L 339.332468 203.264547 
L 339.48414 203.658005 
L 339.635812 203.463869 
L 339.787484 203.536116 
L 340.090828 203.935547 
L 340.2425 203.81788 
L 340.394172 204.03047 
L 340.545843 204.039507 
L 340.697515 203.798318 
L 340.849187 203.787527 
L 341.000859 203.540581 
L 341.304203 204.100052 
L 341.455875 204.118276 
L 341.607547 204.568255 
L 342.062563 204.445016 
L 342.365907 204.672872 
L 342.517579 204.600443 
L 342.669251 204.359676 
L 342.820923 204.372577 
L 343.124267 204.028758 
L 343.275939 204.027877 
L 343.579283 204.355924 
L 343.730955 204.014589 
L 343.882627 204.094516 
L 344.034299 204.439795 
L 344.337643 204.305272 
L 344.489315 204.217356 
L 344.640987 204.425378 
L 344.944331 204.08365 
L 345.096003 204.30698 
L 345.399347 204.353326 
L 345.551019 204.37049 
L 345.702691 204.739006 
L 345.854363 204.767775 
L 346.006035 204.560806 
L 346.461051 204.736236 
L 346.764395 204.114936 
L 347.371083 204.413334 
L 347.522755 204.43013 
L 347.826099 205.144992 
L 347.977771 205.228886 
L 348.129443 205.129852 
L 348.432787 205.492418 
L 348.584459 205.395491 
L 348.887802 205.016485 
L 349.191146 205.078549 
L 349.342818 204.957932 
L 349.646162 205.217831 
L 349.949506 205.099713 
L 350.101178 205.127713 
L 350.404522 204.653193 
L 350.556194 204.684732 
L 350.707866 204.842839 
L 350.859538 204.61116 
L 351.162882 205.174594 
L 351.466226 205.106776 
L 351.617898 205.204566 
L 351.921242 204.183107 
L 352.376258 204.259315 
L 352.679602 203.763517 
L 352.982946 203.781559 
L 353.28629 203.352835 
L 353.437962 203.260443 
L 353.589634 203.43408 
L 353.741306 202.944363 
L 353.892978 203.003923 
L 354.04465 202.862472 
L 354.499666 202.912198 
L 354.651338 202.839129 
L 354.80301 202.616622 
L 355.106354 202.75576 
L 355.258026 202.694195 
L 355.409698 202.855561 
L 355.56137 202.820151 
L 355.713042 202.206845 
L 356.016386 202.493177 
L 356.168058 202.207377 
L 356.471402 202.367903 
L 356.623074 202.159366 
L 356.774745 202.185683 
L 357.078089 201.992232 
L 357.229761 202.100386 
L 357.381433 202.38081 
L 357.533105 202.389243 
L 357.988121 202.176528 
L 358.291465 202.169314 
L 358.443137 202.345429 
L 358.898153 201.883575 
L 359.201497 201.893162 
L 359.808185 202.66529 
L 360.263201 202.830002 
L 360.414873 202.599519 
L 360.566545 202.93859 
L 361.628249 203.356849 
L 362.083265 203.021684 
L 362.386609 203.199522 
L 362.689953 202.951213 
L 362.841625 202.88992 
L 362.993297 203.012334 
L 363.144969 202.86721 
L 364.055001 202.918792 
L 364.206673 203.066185 
L 364.358345 203.055196 
L 364.813361 203.421164 
L 364.965032 203.145971 
L 365.420048 203.43474 
L 365.57172 203.368532 
L 365.875064 203.00573 
L 366.026736 203.262414 
L 366.33008 203.25742 
L 366.481752 203.497812 
L 366.633424 203.454512 
L 366.785096 203.601416 
L 366.936768 203.310666 
L 367.391784 203.760455 
L 367.8468 203.649551 
L 368.756832 203.460859 
L 368.908504 203.260206 
L 369.060176 203.409113 
L 369.211848 203.388215 
L 369.515192 203.061496 
L 370.273552 203.372294 
L 370.425224 203.150565 
L 370.576896 203.199944 
L 370.88024 203.570112 
L 371.031912 203.405595 
L 371.941944 203.648969 
L 372.093616 203.187553 
L 372.245288 203.177744 
L 372.39696 203.308775 
L 372.700304 203.917443 
L 373.306991 203.580538 
L 373.458663 203.714775 
L 374.217023 203.577698 
L 374.368695 203.750354 
L 374.520367 203.447589 
L 374.823711 203.708243 
L 374.975383 203.565386 
L 375.127055 203.249457 
L 375.582071 203.508422 
L 375.733743 203.702696 
L 376.643775 203.065084 
L 376.795447 203.16595 
L 377.402135 202.699047 
L 377.553807 202.9881 
L 377.705479 202.636327 
L 378.008823 202.683663 
L 378.312167 203.111477 
L 378.463839 203.225285 
L 379.070527 202.63339 
L 379.828887 202.760064 
L 380.283903 202.588411 
L 380.435575 202.80283 
L 380.890591 202.308959 
L 381.193935 202.631947 
L 381.497278 202.721287 
L 381.64895 202.940719 
L 381.800622 202.842933 
L 382.103966 203.000486 
L 382.40731 202.971949 
L 382.862326 203.163387 
L 383.013998 203.172907 
L 383.317342 203.396874 
L 383.620686 203.176798 
L 383.92403 203.379116 
L 384.075702 203.262485 
L 384.68239 203.567427 
L 384.985734 203.294559 
L 385.895766 203.082677 
L 386.19911 203.204816 
L 386.502454 202.885827 
L 386.805798 202.591126 
L 387.71583 202.538175 
L 387.867502 202.666587 
L 388.322518 202.6046 
L 388.625862 202.715252 
L 388.777534 202.715714 
L 389.080878 202.119683 
L 389.23255 202.238702 
L 390.142581 202.068348 
L 390.445925 201.858723 
L 390.749269 201.674352 
L 390.900941 201.936221 
L 391.052613 201.876746 
L 391.355957 202.032812 
L 392.114317 201.820159 
L 392.265989 201.550612 
L 394.086053 201.488642 
L 394.541069 201.961091 
L 394.692741 201.890704 
L 394.844413 201.561307 
L 394.996085 201.775393 
L 395.147757 201.775269 
L 395.299429 201.93224 
L 395.451101 201.792244 
L 395.754445 201.911507 
L 395.906117 202.118713 
L 396.057789 202.015277 
L 396.512805 202.479524 
L 396.816149 202.300156 
L 396.967821 202.265498 
L 397.119493 202.444457 
L 397.574509 202.306347 
L 397.877852 202.245767 
L 398.787884 202.405003 
L 398.939556 202.300232 
L 400.304604 202.824137 
L 400.456276 202.671453 
L 401.062964 202.679626 
L 401.214636 202.436552 
L 401.366308 202.41724 
L 401.669652 202.160743 
L 401.821324 202.303989 
L 402.124668 202.209023 
L 402.883028 202.225557 
L 403.0347 202.275763 
L 403.338044 202.004904 
L 403.489716 202.162919 
L 403.79306 202.022074 
L 403.944732 201.882589 
L 404.248076 202.012404 
L 404.399748 201.898782 
L 405.006436 202.250478 
L 405.30978 202.088121 
L 405.916467 201.967801 
L 406.068139 202.052013 
L 406.523155 201.530795 
L 406.978171 201.219275 
L 407.129843 201.435346 
L 407.584859 201.354775 
L 407.888203 201.052889 
L 408.039875 201.068913 
L 408.191547 200.905703 
L 408.343219 200.945814 
L 408.646563 201.318397 
L 408.949907 201.260279 
L 409.556595 200.904079 
L 409.708267 201.043318 
L 410.163283 200.748094 
L 410.466627 200.910434 
L 410.769971 200.813522 
L 410.921643 200.819247 
L 411.073315 200.978918 
L 411.224987 200.761656 
L 411.680003 200.899662 
L 411.983347 200.993783 
L 412.135019 200.8103 
L 412.438363 200.868482 
L 413.196723 200.847053 
L 413.348395 200.735498 
L 413.651739 200.838328 
L 413.803411 200.700398 
L 413.955083 200.889164 
L 414.106754 200.876619 
L 414.410098 201.069865 
L 414.865114 201.145362 
L 415.016786 201.100109 
L 415.32013 201.233145 
L 415.471802 201.129978 
L 415.926818 201.402556 
L 418.050226 200.536702 
L 418.656914 200.713315 
L 418.808586 200.57059 
L 419.87029 201.06145 
L 420.173634 201.025134 
L 420.325306 200.829185 
L 420.931994 201.278444 
L 421.235338 201.260878 
L 421.38701 201.135068 
L 421.690354 201.276291 
L 421.993698 201.293798 
L 422.14537 201.485522 
L 422.448713 201.27234 
L 423.055401 201.47928 
L 423.207073 201.210241 
L 423.662089 201.284227 
L 424.268777 201.0601 
L 424.572121 200.847981 
L 425.330481 200.63471 
L 425.633825 200.632972 
L 425.785497 200.641219 
L 425.937169 200.390576 
L 426.088841 200.453508 
L 426.240513 200.143174 
L 426.695529 200.617621 
L 427.150545 200.644791 
L 427.453889 200.577399 
L 427.757233 200.454339 
L 428.060577 200.647293 
L 428.212249 200.722153 
L 428.515593 200.619046 
L 429.425625 201.350394 
L 429.728969 201.285266 
L 430.032313 201.364838 
L 430.183985 201.467752 
L 430.183985 201.467752 
" style="fill:none;stroke:#1f77b4;stroke-linecap:square;stroke-width:1.5;"/>
   </g>
   <g id="patch_13">
    <path d="M 271.08766 317.952 
L 271.08766 188.928 
" style="fill:none;stroke:#000000;stroke-linecap:square;stroke-linejoin:miter;stroke-width:0.8;"/>
   </g>
   <g id="patch_14">
    <path d="M 437.76 317.952 
L 437.76 188.928 
" style="fill:none;stroke:#000000;stroke-linecap:square;stroke-linejoin:miter;stroke-width:0.8;"/>
   </g>
   <g id="patch_15">
    <path d="M 271.08766 317.952 
L 437.76 317.952 
" style="fill:none;stroke:#000000;stroke-linecap:square;stroke-linejoin:miter;stroke-width:0.8;"/>
   </g>
   <g id="patch_16">
    <path d="M 271.08766 188.928 
L 437.76 188.928 
" style="fill:none;stroke:#000000;stroke-linecap:square;stroke-linejoin:miter;stroke-width:0.8;"/>
   </g>
   <g id="text_37">
    <!-- Demora promedio en cola C2 -->
    <g transform="translate(266.38133 182.928)scale(0.12 -0.12)">
     <use xlink:href="#DejaVuSans-68"/>
     <use x="77.001953" xlink:href="#DejaVuSans-101"/>
     <use x="138.525391" xlink:href="#DejaVuSans-109"/>
     <use x="235.9375" xlink:href="#DejaVuSans-111"/>
     <use x="297.119141" xlink:href="#DejaVuSans-114"/>
     <use x="338.232422" xlink:href="#DejaVuSans-97"/>
     <use x="399.511719" xlink:href="#DejaVuSans-32"/>
     <use x="431.298828" xlink:href="#DejaVuSans-112"/>
     <use x="494.775391" xlink:href="#DejaVuSans-114"/>
     <use x="535.857422" xlink:href="#DejaVuSans-111"/>
     <use x="597.039062" xlink:href="#DejaVuSans-109"/>
     <use x="694.451172" xlink:href="#DejaVuSans-101"/>
     <use x="755.974609" xlink:href="#DejaVuSans-100"/>
     <use x="819.451172" xlink:href="#DejaVuSans-105"/>
     <use x="847.234375" xlink:href="#DejaVuSans-111"/>
     <use x="908.416016" xlink:href="#DejaVuSans-32"/>
     <use x="940.203125" xlink:href="#DejaVuSans-101"/>
     <use x="1001.726562" xlink:href="#DejaVuSans-110"/>
     <use x="1065.105469" xlink:href="#DejaVuSans-32"/>
     <use x="1096.892578" xlink:href="#DejaVuSans-99"/>
     <use x="1151.873047" xlink:href="#DejaVuSans-111"/>
     <use x="1213.054688" xlink:href="#DejaVuSans-108"/>
     <use x="1240.837891" xlink:href="#DejaVuSans-97"/>
     <use x="1302.117188" xlink:href="#DejaVuSans-32"/>
     <use x="1333.904297" xlink:href="#DejaVuSans-67"/>
     <use x="1403.728516" xlink:href="#DejaVuSans-50"/>
    </g>
   </g>
  </g>
 </g>
 <defs>
  <clipPath id="pb07ea28577">
   <rect height="129.024" width="391.68" x="46.08" y="27.648"/>
  </clipPath>
  <clipPath id="paa70722fea">
   <rect height="129.024" width="166.67234" x="46.08" y="188.928"/>
  </clipPath>
  <clipPath id="p75ddf86737">
   <rect height="129.024" width="166.67234" x="271.08766" y="188.928"/>
  </clipPath>
 </defs>
</svg>
