<?xml version="1.0" encoding="utf-8" standalone="no"?>
<!DOCTYPE svg PUBLIC "-//W3C//DTD SVG 1.1//EN"
  "http://www.w3.org/Graphics/SVG/1.1/DTD/svg11.dtd">
<!-- Created with matplotlib (https://matplotlib.org/) -->
<svg height="345.6pt" version="1.1" viewBox="0 0 460.8 345.6" width="460.8pt" xmlns="http://www.w3.org/2000/svg" xmlns:xlink="http://www.w3.org/1999/xlink">
 <defs>
  <style type="text/css">
*{stroke-linecap:butt;stroke-linejoin:round;}
  </style>
 </defs>
 <g id="figure_1">
  <g id="patch_1">
   <path d="M 0 345.6 
L 460.8 345.6 
L 460.8 0 
L 0 0 
z
" style="fill:#ffffff;"/>
  </g>
  <g id="axes_1">
   <g id="patch_2">
    <path d="M 46.08 156.672 
L 437.76 156.672 
L 437.76 27.648 
L 46.08 27.648 
z
" style="fill:#ffffff;"/>
   </g>
   <g id="matplotlib.axis_1">
    <g id="xtick_1">
     <g id="line2d_1">
      <path clip-path="url(#pc0dadac14b)" d="M 63.527207 156.672 
L 63.527207 27.648 
" style="fill:none;stroke:#b0b0b0;stroke-linecap:square;stroke-width:0.8;"/>
     </g>
     <g id="line2d_2">
      <defs>
       <path d="M 0 0 
L 0 3.5 
" id="mdc16afd4ec" style="stroke:#000000;stroke-width:0.8;"/>
      </defs>
      <g>
       <use style="stroke:#000000;stroke-width:0.8;" x="63.527207" xlink:href="#mdc16afd4ec" y="156.672"/>
      </g>
     </g>
     <g id="text_1">
      <!-- 0 -->
      <defs>
       <path d="M 31.78125 66.40625 
Q 24.171875 66.40625 20.328125 58.90625 
Q 16.5 51.421875 16.5 36.375 
Q 16.5 21.390625 20.328125 13.890625 
Q 24.171875 6.390625 31.78125 6.390625 
Q 39.453125 6.390625 43.28125 13.890625 
Q 47.125 21.390625 47.125 36.375 
Q 47.125 51.421875 43.28125 58.90625 
Q 39.453125 66.40625 31.78125 66.40625 
z
M 31.78125 74.21875 
Q 44.046875 74.21875 50.515625 64.515625 
Q 56.984375 54.828125 56.984375 36.375 
Q 56.984375 17.96875 50.515625 8.265625 
Q 44.046875 -1.421875 31.78125 -1.421875 
Q 19.53125 -1.421875 13.0625 8.265625 
Q 6.59375 17.96875 6.59375 36.375 
Q 6.59375 54.828125 13.0625 64.515625 
Q 19.53125 74.21875 31.78125 74.21875 
z
" id="DejaVuSans-48"/>
      </defs>
      <g transform="translate(60.345957 171.270437)scale(0.1 -0.1)">
       <use xlink:href="#DejaVuSans-48"/>
      </g>
     </g>
    </g>
    <g id="xtick_2">
     <g id="line2d_3">
      <path clip-path="url(#pc0dadac14b)" d="M 134.813038 156.672 
L 134.813038 27.648 
" style="fill:none;stroke:#b0b0b0;stroke-linecap:square;stroke-width:0.8;"/>
     </g>
     <g id="line2d_4">
      <g>
       <use style="stroke:#000000;stroke-width:0.8;" x="134.813038" xlink:href="#mdc16afd4ec" y="156.672"/>
      </g>
     </g>
     <g id="text_2">
      <!-- 200 -->
      <defs>
       <path d="M 19.1875 8.296875 
L 53.609375 8.296875 
L 53.609375 0 
L 7.328125 0 
L 7.328125 8.296875 
Q 12.9375 14.109375 22.625 23.890625 
Q 32.328125 33.6875 34.8125 36.53125 
Q 39.546875 41.84375 41.421875 45.53125 
Q 43.3125 49.21875 43.3125 52.78125 
Q 43.3125 58.59375 39.234375 62.25 
Q 35.15625 65.921875 28.609375 65.921875 
Q 23.96875 65.921875 18.8125 64.3125 
Q 13.671875 62.703125 7.8125 59.421875 
L 7.8125 69.390625 
Q 13.765625 71.78125 18.9375 73 
Q 24.125 74.21875 28.421875 74.21875 
Q 39.75 74.21875 46.484375 68.546875 
Q 53.21875 62.890625 53.21875 53.421875 
Q 53.21875 48.921875 51.53125 44.890625 
Q 49.859375 40.875 45.40625 35.40625 
Q 44.1875 33.984375 37.640625 27.21875 
Q 31.109375 20.453125 19.1875 8.296875 
z
" id="DejaVuSans-50"/>
      </defs>
      <g transform="translate(125.269288 171.270437)scale(0.1 -0.1)">
       <use xlink:href="#DejaVuSans-50"/>
       <use x="63.623047" xlink:href="#DejaVuSans-48"/>
       <use x="127.246094" xlink:href="#DejaVuSans-48"/>
      </g>
     </g>
    </g>
    <g id="xtick_3">
     <g id="line2d_5">
      <path clip-path="url(#pc0dadac14b)" d="M 206.09887 156.672 
L 206.09887 27.648 
" style="fill:none;stroke:#b0b0b0;stroke-linecap:square;stroke-width:0.8;"/>
     </g>
     <g id="line2d_6">
      <g>
       <use style="stroke:#000000;stroke-width:0.8;" x="206.09887" xlink:href="#mdc16afd4ec" y="156.672"/>
      </g>
     </g>
     <g id="text_3">
      <!-- 400 -->
      <defs>
       <path d="M 37.796875 64.3125 
L 12.890625 25.390625 
L 37.796875 25.390625 
z
M 35.203125 72.90625 
L 47.609375 72.90625 
L 47.609375 25.390625 
L 58.015625 25.390625 
L 58.015625 17.1875 
L 47.609375 17.1875 
L 47.609375 0 
L 37.796875 0 
L 37.796875 17.1875 
L 4.890625 17.1875 
L 4.890625 26.703125 
z
" id="DejaVuSans-52"/>
      </defs>
      <g transform="translate(196.55512 171.270437)scale(0.1 -0.1)">
       <use xlink:href="#DejaVuSans-52"/>
       <use x="63.623047" xlink:href="#DejaVuSans-48"/>
       <use x="127.246094" xlink:href="#DejaVuSans-48"/>
      </g>
     </g>
    </g>
    <g id="xtick_4">
     <g id="line2d_7">
      <path clip-path="url(#pc0dadac14b)" d="M 277.384701 156.672 
L 277.384701 27.648 
" style="fill:none;stroke:#b0b0b0;stroke-linecap:square;stroke-width:0.8;"/>
     </g>
     <g id="line2d_8">
      <g>
       <use style="stroke:#000000;stroke-width:0.8;" x="277.384701" xlink:href="#mdc16afd4ec" y="156.672"/>
      </g>
     </g>
     <g id="text_4">
      <!-- 600 -->
      <defs>
       <path d="M 33.015625 40.375 
Q 26.375 40.375 22.484375 35.828125 
Q 18.609375 31.296875 18.609375 23.390625 
Q 18.609375 15.53125 22.484375 10.953125 
Q 26.375 6.390625 33.015625 6.390625 
Q 39.65625 6.390625 43.53125 10.953125 
Q 47.40625 15.53125 47.40625 23.390625 
Q 47.40625 31.296875 43.53125 35.828125 
Q 39.65625 40.375 33.015625 40.375 
z
M 52.59375 71.296875 
L 52.59375 62.3125 
Q 48.875 64.0625 45.09375 64.984375 
Q 41.3125 65.921875 37.59375 65.921875 
Q 27.828125 65.921875 22.671875 59.328125 
Q 17.53125 52.734375 16.796875 39.40625 
Q 19.671875 43.65625 24.015625 45.921875 
Q 28.375 48.1875 33.59375 48.1875 
Q 44.578125 48.1875 50.953125 41.515625 
Q 57.328125 34.859375 57.328125 23.390625 
Q 57.328125 12.15625 50.6875 5.359375 
Q 44.046875 -1.421875 33.015625 -1.421875 
Q 20.359375 -1.421875 13.671875 8.265625 
Q 6.984375 17.96875 6.984375 36.375 
Q 6.984375 53.65625 15.1875 63.9375 
Q 23.390625 74.21875 37.203125 74.21875 
Q 40.921875 74.21875 44.703125 73.484375 
Q 48.484375 72.75 52.59375 71.296875 
z
" id="DejaVuSans-54"/>
      </defs>
      <g transform="translate(267.840951 171.270437)scale(0.1 -0.1)">
       <use xlink:href="#DejaVuSans-54"/>
       <use x="63.623047" xlink:href="#DejaVuSans-48"/>
       <use x="127.246094" xlink:href="#DejaVuSans-48"/>
      </g>
     </g>
    </g>
    <g id="xtick_5">
     <g id="line2d_9">
      <path clip-path="url(#pc0dadac14b)" d="M 348.670532 156.672 
L 348.670532 27.648 
" style="fill:none;stroke:#b0b0b0;stroke-linecap:square;stroke-width:0.8;"/>
     </g>
     <g id="line2d_10">
      <g>
       <use style="stroke:#000000;stroke-width:0.8;" x="348.670532" xlink:href="#mdc16afd4ec" y="156.672"/>
      </g>
     </g>
     <g id="text_5">
      <!-- 800 -->
      <defs>
       <path d="M 31.78125 34.625 
Q 24.75 34.625 20.71875 30.859375 
Q 16.703125 27.09375 16.703125 20.515625 
Q 16.703125 13.921875 20.71875 10.15625 
Q 24.75 6.390625 31.78125 6.390625 
Q 38.8125 6.390625 42.859375 10.171875 
Q 46.921875 13.96875 46.921875 20.515625 
Q 46.921875 27.09375 42.890625 30.859375 
Q 38.875 34.625 31.78125 34.625 
z
M 21.921875 38.8125 
Q 15.578125 40.375 12.03125 44.71875 
Q 8.5 49.078125 8.5 55.328125 
Q 8.5 64.0625 14.71875 69.140625 
Q 20.953125 74.21875 31.78125 74.21875 
Q 42.671875 74.21875 48.875 69.140625 
Q 55.078125 64.0625 55.078125 55.328125 
Q 55.078125 49.078125 51.53125 44.71875 
Q 48 40.375 41.703125 38.8125 
Q 48.828125 37.15625 52.796875 32.3125 
Q 56.78125 27.484375 56.78125 20.515625 
Q 56.78125 9.90625 50.3125 4.234375 
Q 43.84375 -1.421875 31.78125 -1.421875 
Q 19.734375 -1.421875 13.25 4.234375 
Q 6.78125 9.90625 6.78125 20.515625 
Q 6.78125 27.484375 10.78125 32.3125 
Q 14.796875 37.15625 21.921875 38.8125 
z
M 18.3125 54.390625 
Q 18.3125 48.734375 21.84375 45.5625 
Q 25.390625 42.390625 31.78125 42.390625 
Q 38.140625 42.390625 41.71875 45.5625 
Q 45.3125 48.734375 45.3125 54.390625 
Q 45.3125 60.0625 41.71875 63.234375 
Q 38.140625 66.40625 31.78125 66.40625 
Q 25.390625 66.40625 21.84375 63.234375 
Q 18.3125 60.0625 18.3125 54.390625 
z
" id="DejaVuSans-56"/>
      </defs>
      <g transform="translate(339.126782 171.270437)scale(0.1 -0.1)">
       <use xlink:href="#DejaVuSans-56"/>
       <use x="63.623047" xlink:href="#DejaVuSans-48"/>
       <use x="127.246094" xlink:href="#DejaVuSans-48"/>
      </g>
     </g>
    </g>
    <g id="xtick_6">
     <g id="line2d_11">
      <path clip-path="url(#pc0dadac14b)" d="M 419.956364 156.672 
L 419.956364 27.648 
" style="fill:none;stroke:#b0b0b0;stroke-linecap:square;stroke-width:0.8;"/>
     </g>
     <g id="line2d_12">
      <g>
       <use style="stroke:#000000;stroke-width:0.8;" x="419.956364" xlink:href="#mdc16afd4ec" y="156.672"/>
      </g>
     </g>
     <g id="text_6">
      <!-- 1000 -->
      <defs>
       <path d="M 12.40625 8.296875 
L 28.515625 8.296875 
L 28.515625 63.921875 
L 10.984375 60.40625 
L 10.984375 69.390625 
L 28.421875 72.90625 
L 38.28125 72.90625 
L 38.28125 8.296875 
L 54.390625 8.296875 
L 54.390625 0 
L 12.40625 0 
z
" id="DejaVuSans-49"/>
      </defs>
      <g transform="translate(407.231364 171.270437)scale(0.1 -0.1)">
       <use xlink:href="#DejaVuSans-49"/>
       <use x="63.623047" xlink:href="#DejaVuSans-48"/>
       <use x="127.246094" xlink:href="#DejaVuSans-48"/>
       <use x="190.869141" xlink:href="#DejaVuSans-48"/>
      </g>
     </g>
    </g>
    <g id="text_7">
     <!-- Corridas -->
     <defs>
      <path d="M 64.40625 67.28125 
L 64.40625 56.890625 
Q 59.421875 61.53125 53.78125 63.8125 
Q 48.140625 66.109375 41.796875 66.109375 
Q 29.296875 66.109375 22.65625 58.46875 
Q 16.015625 50.828125 16.015625 36.375 
Q 16.015625 21.96875 22.65625 14.328125 
Q 29.296875 6.6875 41.796875 6.6875 
Q 48.140625 6.6875 53.78125 8.984375 
Q 59.421875 11.28125 64.40625 15.921875 
L 64.40625 5.609375 
Q 59.234375 2.09375 53.4375 0.328125 
Q 47.65625 -1.421875 41.21875 -1.421875 
Q 24.65625 -1.421875 15.125 8.703125 
Q 5.609375 18.84375 5.609375 36.375 
Q 5.609375 53.953125 15.125 64.078125 
Q 24.65625 74.21875 41.21875 74.21875 
Q 47.75 74.21875 53.53125 72.484375 
Q 59.328125 70.75 64.40625 67.28125 
z
" id="DejaVuSans-67"/>
      <path d="M 30.609375 48.390625 
Q 23.390625 48.390625 19.1875 42.75 
Q 14.984375 37.109375 14.984375 27.296875 
Q 14.984375 17.484375 19.15625 11.84375 
Q 23.34375 6.203125 30.609375 6.203125 
Q 37.796875 6.203125 41.984375 11.859375 
Q 46.1875 17.53125 46.1875 27.296875 
Q 46.1875 37.015625 41.984375 42.703125 
Q 37.796875 48.390625 30.609375 48.390625 
z
M 30.609375 56 
Q 42.328125 56 49.015625 48.375 
Q 55.71875 40.765625 55.71875 27.296875 
Q 55.71875 13.875 49.015625 6.21875 
Q 42.328125 -1.421875 30.609375 -1.421875 
Q 18.84375 -1.421875 12.171875 6.21875 
Q 5.515625 13.875 5.515625 27.296875 
Q 5.515625 40.765625 12.171875 48.375 
Q 18.84375 56 30.609375 56 
z
" id="DejaVuSans-111"/>
      <path d="M 41.109375 46.296875 
Q 39.59375 47.171875 37.8125 47.578125 
Q 36.03125 48 33.890625 48 
Q 26.265625 48 22.1875 43.046875 
Q 18.109375 38.09375 18.109375 28.8125 
L 18.109375 0 
L 9.078125 0 
L 9.078125 54.6875 
L 18.109375 54.6875 
L 18.109375 46.1875 
Q 20.953125 51.171875 25.484375 53.578125 
Q 30.03125 56 36.53125 56 
Q 37.453125 56 38.578125 55.875 
Q 39.703125 55.765625 41.0625 55.515625 
z
" id="DejaVuSans-114"/>
      <path d="M 9.421875 54.6875 
L 18.40625 54.6875 
L 18.40625 0 
L 9.421875 0 
z
M 9.421875 75.984375 
L 18.40625 75.984375 
L 18.40625 64.59375 
L 9.421875 64.59375 
z
" id="DejaVuSans-105"/>
      <path d="M 45.40625 46.390625 
L 45.40625 75.984375 
L 54.390625 75.984375 
L 54.390625 0 
L 45.40625 0 
L 45.40625 8.203125 
Q 42.578125 3.328125 38.25 0.953125 
Q 33.9375 -1.421875 27.875 -1.421875 
Q 17.96875 -1.421875 11.734375 6.484375 
Q 5.515625 14.40625 5.515625 27.296875 
Q 5.515625 40.1875 11.734375 48.09375 
Q 17.96875 56 27.875 56 
Q 33.9375 56 38.25 53.625 
Q 42.578125 51.265625 45.40625 46.390625 
z
M 14.796875 27.296875 
Q 14.796875 17.390625 18.875 11.75 
Q 22.953125 6.109375 30.078125 6.109375 
Q 37.203125 6.109375 41.296875 11.75 
Q 45.40625 17.390625 45.40625 27.296875 
Q 45.40625 37.203125 41.296875 42.84375 
Q 37.203125 48.484375 30.078125 48.484375 
Q 22.953125 48.484375 18.875 42.84375 
Q 14.796875 37.203125 14.796875 27.296875 
z
" id="DejaVuSans-100"/>
      <path d="M 34.28125 27.484375 
Q 23.390625 27.484375 19.1875 25 
Q 14.984375 22.515625 14.984375 16.5 
Q 14.984375 11.71875 18.140625 8.90625 
Q 21.296875 6.109375 26.703125 6.109375 
Q 34.1875 6.109375 38.703125 11.40625 
Q 43.21875 16.703125 43.21875 25.484375 
L 43.21875 27.484375 
z
M 52.203125 31.203125 
L 52.203125 0 
L 43.21875 0 
L 43.21875 8.296875 
Q 40.140625 3.328125 35.546875 0.953125 
Q 30.953125 -1.421875 24.3125 -1.421875 
Q 15.921875 -1.421875 10.953125 3.296875 
Q 6 8.015625 6 15.921875 
Q 6 25.140625 12.171875 29.828125 
Q 18.359375 34.515625 30.609375 34.515625 
L 43.21875 34.515625 
L 43.21875 35.40625 
Q 43.21875 41.609375 39.140625 45 
Q 35.0625 48.390625 27.6875 48.390625 
Q 23 48.390625 18.546875 47.265625 
Q 14.109375 46.140625 10.015625 43.890625 
L 10.015625 52.203125 
Q 14.9375 54.109375 19.578125 55.046875 
Q 24.21875 56 28.609375 56 
Q 40.484375 56 46.34375 49.84375 
Q 52.203125 43.703125 52.203125 31.203125 
z
" id="DejaVuSans-97"/>
      <path d="M 44.28125 53.078125 
L 44.28125 44.578125 
Q 40.484375 46.53125 36.375 47.5 
Q 32.28125 48.484375 27.875 48.484375 
Q 21.1875 48.484375 17.84375 46.4375 
Q 14.5 44.390625 14.5 40.28125 
Q 14.5 37.15625 16.890625 35.375 
Q 19.28125 33.59375 26.515625 31.984375 
L 29.59375 31.296875 
Q 39.15625 29.25 43.1875 25.515625 
Q 47.21875 21.78125 47.21875 15.09375 
Q 47.21875 7.46875 41.1875 3.015625 
Q 35.15625 -1.421875 24.609375 -1.421875 
Q 20.21875 -1.421875 15.453125 -0.5625 
Q 10.6875 0.296875 5.421875 2 
L 5.421875 11.28125 
Q 10.40625 8.6875 15.234375 7.390625 
Q 20.0625 6.109375 24.8125 6.109375 
Q 31.15625 6.109375 34.5625 8.28125 
Q 37.984375 10.453125 37.984375 14.40625 
Q 37.984375 18.0625 35.515625 20.015625 
Q 33.0625 21.96875 24.703125 23.78125 
L 21.578125 24.515625 
Q 13.234375 26.265625 9.515625 29.90625 
Q 5.8125 33.546875 5.8125 39.890625 
Q 5.8125 47.609375 11.28125 51.796875 
Q 16.75 56 26.8125 56 
Q 31.78125 56 36.171875 55.265625 
Q 40.578125 54.546875 44.28125 53.078125 
z
" id="DejaVuSans-115"/>
     </defs>
     <g transform="translate(221.027031 184.948562)scale(0.1 -0.1)">
      <use xlink:href="#DejaVuSans-67"/>
      <use x="69.824219" xlink:href="#DejaVuSans-111"/>
      <use x="131.005859" xlink:href="#DejaVuSans-114"/>
      <use x="172.103516" xlink:href="#DejaVuSans-114"/>
      <use x="213.216797" xlink:href="#DejaVuSans-105"/>
      <use x="241" xlink:href="#DejaVuSans-100"/>
      <use x="304.476562" xlink:href="#DejaVuSans-97"/>
      <use x="365.755859" xlink:href="#DejaVuSans-115"/>
     </g>
    </g>
   </g>
   <g id="matplotlib.axis_2">
    <g id="ytick_1">
     <g id="line2d_13">
      <path clip-path="url(#pc0dadac14b)" d="M 46.08 150.807273 
L 437.76 150.807273 
" style="fill:none;stroke:#b0b0b0;stroke-linecap:square;stroke-width:0.8;"/>
     </g>
     <g id="line2d_14">
      <defs>
       <path d="M 0 0 
L -3.5 0 
" id="m24d40d0730" style="stroke:#000000;stroke-width:0.8;"/>
      </defs>
      <g>
       <use style="stroke:#000000;stroke-width:0.8;" x="46.08" xlink:href="#m24d40d0730" y="150.807273"/>
      </g>
     </g>
     <g id="text_8">
      <!-- 0.000000 -->
      <defs>
       <path d="M 10.6875 12.40625 
L 21 12.40625 
L 21 0 
L 10.6875 0 
z
" id="DejaVuSans-46"/>
      </defs>
      <g transform="translate(-8.635625 154.606491)scale(0.1 -0.1)">
       <use xlink:href="#DejaVuSans-48"/>
       <use x="63.623047" xlink:href="#DejaVuSans-46"/>
       <use x="95.410156" xlink:href="#DejaVuSans-48"/>
       <use x="159.033203" xlink:href="#DejaVuSans-48"/>
       <use x="222.65625" xlink:href="#DejaVuSans-48"/>
       <use x="286.279297" xlink:href="#DejaVuSans-48"/>
       <use x="349.902344" xlink:href="#DejaVuSans-48"/>
       <use x="413.525391" xlink:href="#DejaVuSans-48"/>
      </g>
     </g>
    </g>
    <g id="ytick_2">
     <g id="line2d_15">
      <path clip-path="url(#pc0dadac14b)" d="M 46.08 111.92778 
L 437.76 111.92778 
" style="fill:none;stroke:#b0b0b0;stroke-linecap:square;stroke-width:0.8;"/>
     </g>
     <g id="line2d_16">
      <g>
       <use style="stroke:#000000;stroke-width:0.8;" x="46.08" xlink:href="#m24d40d0730" y="111.92778"/>
      </g>
     </g>
     <g id="text_9">
      <!-- 0.000005 -->
      <defs>
       <path d="M 10.796875 72.90625 
L 49.515625 72.90625 
L 49.515625 64.59375 
L 19.828125 64.59375 
L 19.828125 46.734375 
Q 21.96875 47.46875 24.109375 47.828125 
Q 26.265625 48.1875 28.421875 48.1875 
Q 40.625 48.1875 47.75 41.5 
Q 54.890625 34.8125 54.890625 23.390625 
Q 54.890625 11.625 47.5625 5.09375 
Q 40.234375 -1.421875 26.90625 -1.421875 
Q 22.3125 -1.421875 17.546875 -0.640625 
Q 12.796875 0.140625 7.71875 1.703125 
L 7.71875 11.625 
Q 12.109375 9.234375 16.796875 8.0625 
Q 21.484375 6.890625 26.703125 6.890625 
Q 35.15625 6.890625 40.078125 11.328125 
Q 45.015625 15.765625 45.015625 23.390625 
Q 45.015625 31 40.078125 35.4375 
Q 35.15625 39.890625 26.703125 39.890625 
Q 22.75 39.890625 18.8125 39.015625 
Q 14.890625 38.140625 10.796875 36.28125 
z
" id="DejaVuSans-53"/>
      </defs>
      <g transform="translate(-8.635625 115.726998)scale(0.1 -0.1)">
       <use xlink:href="#DejaVuSans-48"/>
       <use x="63.623047" xlink:href="#DejaVuSans-46"/>
       <use x="95.410156" xlink:href="#DejaVuSans-48"/>
       <use x="159.033203" xlink:href="#DejaVuSans-48"/>
       <use x="222.65625" xlink:href="#DejaVuSans-48"/>
       <use x="286.279297" xlink:href="#DejaVuSans-48"/>
       <use x="349.902344" xlink:href="#DejaVuSans-48"/>
       <use x="413.525391" xlink:href="#DejaVuSans-53"/>
      </g>
     </g>
    </g>
    <g id="ytick_3">
     <g id="line2d_17">
      <path clip-path="url(#pc0dadac14b)" d="M 46.08 73.048286 
L 437.76 73.048286 
" style="fill:none;stroke:#b0b0b0;stroke-linecap:square;stroke-width:0.8;"/>
     </g>
     <g id="line2d_18">
      <g>
       <use style="stroke:#000000;stroke-width:0.8;" x="46.08" xlink:href="#m24d40d0730" y="73.048286"/>
      </g>
     </g>
     <g id="text_10">
      <!-- 0.000010 -->
      <g transform="translate(-8.635625 76.847505)scale(0.1 -0.1)">
       <use xlink:href="#DejaVuSans-48"/>
       <use x="63.623047" xlink:href="#DejaVuSans-46"/>
       <use x="95.410156" xlink:href="#DejaVuSans-48"/>
       <use x="159.033203" xlink:href="#DejaVuSans-48"/>
       <use x="222.65625" xlink:href="#DejaVuSans-48"/>
       <use x="286.279297" xlink:href="#DejaVuSans-48"/>
       <use x="349.902344" xlink:href="#DejaVuSans-49"/>
       <use x="413.525391" xlink:href="#DejaVuSans-48"/>
      </g>
     </g>
    </g>
    <g id="ytick_4">
     <g id="line2d_19">
      <path clip-path="url(#pc0dadac14b)" d="M 46.08 34.168793 
L 437.76 34.168793 
" style="fill:none;stroke:#b0b0b0;stroke-linecap:square;stroke-width:0.8;"/>
     </g>
     <g id="line2d_20">
      <g>
       <use style="stroke:#000000;stroke-width:0.8;" x="46.08" xlink:href="#m24d40d0730" y="34.168793"/>
      </g>
     </g>
     <g id="text_11">
      <!-- 0.000015 -->
      <g transform="translate(-8.635625 37.968012)scale(0.1 -0.1)">
       <use xlink:href="#DejaVuSans-48"/>
       <use x="63.623047" xlink:href="#DejaVuSans-46"/>
       <use x="95.410156" xlink:href="#DejaVuSans-48"/>
       <use x="159.033203" xlink:href="#DejaVuSans-48"/>
       <use x="222.65625" xlink:href="#DejaVuSans-48"/>
       <use x="286.279297" xlink:href="#DejaVuSans-48"/>
       <use x="349.902344" xlink:href="#DejaVuSans-49"/>
       <use x="413.525391" xlink:href="#DejaVuSans-53"/>
      </g>
     </g>
    </g>
    <g id="text_12">
     <!-- Número -->
     <defs>
      <path d="M 9.8125 72.90625 
L 23.09375 72.90625 
L 55.421875 11.921875 
L 55.421875 72.90625 
L 64.984375 72.90625 
L 64.984375 0 
L 51.703125 0 
L 19.390625 60.984375 
L 19.390625 0 
L 9.8125 0 
z
" id="DejaVuSans-78"/>
      <path d="M 8.5 21.578125 
L 8.5 54.6875 
L 17.484375 54.6875 
L 17.484375 21.921875 
Q 17.484375 14.15625 20.5 10.265625 
Q 23.53125 6.390625 29.59375 6.390625 
Q 36.859375 6.390625 41.078125 11.03125 
Q 45.3125 15.671875 45.3125 23.6875 
L 45.3125 54.6875 
L 54.296875 54.6875 
L 54.296875 0 
L 45.3125 0 
L 45.3125 8.40625 
Q 42.046875 3.421875 37.71875 1 
Q 33.40625 -1.421875 27.6875 -1.421875 
Q 18.265625 -1.421875 13.375 4.4375 
Q 8.5 10.296875 8.5 21.578125 
z
M 31.109375 56 
z
M 37.78125 79.984375 
L 47.5 79.984375 
L 31.59375 61.625 
L 24.109375 61.625 
z
" id="DejaVuSans-250"/>
      <path d="M 52 44.1875 
Q 55.375 50.25 60.0625 53.125 
Q 64.75 56 71.09375 56 
Q 79.640625 56 84.28125 50.015625 
Q 88.921875 44.046875 88.921875 33.015625 
L 88.921875 0 
L 79.890625 0 
L 79.890625 32.71875 
Q 79.890625 40.578125 77.09375 44.375 
Q 74.3125 48.1875 68.609375 48.1875 
Q 61.625 48.1875 57.5625 43.546875 
Q 53.515625 38.921875 53.515625 30.90625 
L 53.515625 0 
L 44.484375 0 
L 44.484375 32.71875 
Q 44.484375 40.625 41.703125 44.40625 
Q 38.921875 48.1875 33.109375 48.1875 
Q 26.21875 48.1875 22.15625 43.53125 
Q 18.109375 38.875 18.109375 30.90625 
L 18.109375 0 
L 9.078125 0 
L 9.078125 54.6875 
L 18.109375 54.6875 
L 18.109375 46.1875 
Q 21.1875 51.21875 25.484375 53.609375 
Q 29.78125 56 35.6875 56 
Q 41.65625 56 45.828125 52.96875 
Q 50 49.953125 52 44.1875 
z
" id="DejaVuSans-109"/>
      <path d="M 56.203125 29.59375 
L 56.203125 25.203125 
L 14.890625 25.203125 
Q 15.484375 15.921875 20.484375 11.0625 
Q 25.484375 6.203125 34.421875 6.203125 
Q 39.59375 6.203125 44.453125 7.46875 
Q 49.3125 8.734375 54.109375 11.28125 
L 54.109375 2.78125 
Q 49.265625 0.734375 44.1875 -0.34375 
Q 39.109375 -1.421875 33.890625 -1.421875 
Q 20.796875 -1.421875 13.15625 6.1875 
Q 5.515625 13.8125 5.515625 26.8125 
Q 5.515625 40.234375 12.765625 48.109375 
Q 20.015625 56 32.328125 56 
Q 43.359375 56 49.78125 48.890625 
Q 56.203125 41.796875 56.203125 29.59375 
z
M 47.21875 32.234375 
Q 47.125 39.59375 43.09375 43.984375 
Q 39.0625 48.390625 32.421875 48.390625 
Q 24.90625 48.390625 20.390625 44.140625 
Q 15.875 39.890625 15.1875 32.171875 
z
" id="DejaVuSans-101"/>
     </defs>
     <g transform="translate(-14.715312 112.129531)rotate(-90)scale(0.1 -0.1)">
      <use xlink:href="#DejaVuSans-78"/>
      <use x="74.804688" xlink:href="#DejaVuSans-250"/>
      <use x="138.183594" xlink:href="#DejaVuSans-109"/>
      <use x="235.595703" xlink:href="#DejaVuSans-101"/>
      <use x="297.119141" xlink:href="#DejaVuSans-114"/>
      <use x="338.201172" xlink:href="#DejaVuSans-111"/>
     </g>
    </g>
   </g>
   <g id="line2d_21">
    <path clip-path="url(#pc0dadac14b)" d="M 63.883636 150.807273 
L 64.596495 150.807273 
L 64.952924 33.512727 
L 65.309353 56.971636 
L 66.022211 83.781818 
L 66.37864 92.16 
L 66.73507 86.369674 
L 67.447928 98.085601 
L 67.804357 102.479074 
L 68.160786 97.161533 
L 68.873645 104.314298 
L 69.586503 109.78406 
L 70.65579 115.937542 
L 71.725078 120.485768 
L 72.794365 123.984403 
L 73.863653 126.759183 
L 74.93294 129.013691 
L 76.358657 131.4352 
L 77.784373 133.372407 
L 79.21009 134.957395 
L 80.992236 136.57473 
L 82.061523 137.395838 
L 82.417952 134.991014 
L 84.200098 136.354485 
L 86.338673 137.709434 
L 87.407961 138.295904 
L 87.76439 132.659566 
L 88.477248 133.178072 
L 88.833677 125.968984 
L 90.972252 127.904435 
L 93.110827 129.560062 
L 95.605831 131.212623 
L 95.96226 131.257062 
L 98.457265 132.653506 
L 98.813694 127.852134 
L 101.665127 129.568406 
L 104.160131 130.872547 
L 104.51656 130.673303 
L 106.298706 131.512218 
L 106.655135 126.728814 
L 109.862998 128.395784 
L 112.358002 129.540897 
L 112.714431 123.442576 
L 113.427289 123.8335 
L 113.783718 119.383266 
L 116.991581 121.268707 
L 120.555872 123.114867 
L 123.763735 124.589611 
L 124.120164 124.179827 
L 128.397314 125.935482 
L 128.753743 126.071394 
L 129.110172 125.787811 
L 129.466601 125.923051 
L 129.82303 125.758248 
L 133.743751 127.156924 
L 134.10018 121.774662 
L 138.733759 123.563401 
L 139.090188 123.69191 
L 139.446618 117.560575 
L 141.941622 118.618425 
L 142.298051 115.67254 
L 143.367338 116.143095 
L 143.723767 112.086173 
L 144.080197 110.394219 
L 148.713776 112.592418 
L 149.070205 112.363501 
L 150.852351 113.043175 
L 155.48593 114.946017 
L 155.842359 110.630061 
L 159.40665 112.123638 
L 159.763079 111.527445 
L 165.109517 113.594804 
L 171.168812 115.689546 
L 171.881671 115.920583 
L 172.2381 115.654643 
L 175.445962 116.662202 
L 175.802391 115.967135 
L 179.723112 117.065521 
L 181.861687 117.675311 
L 182.218116 115.021662 
L 182.930975 115.235307 
L 183.287404 109.511424 
L 183.643833 106.269796 
L 185.425979 106.920929 
L 185.782408 105.401715 
L 186.495266 105.664936 
L 186.851695 99.681152 
L 189.703129 100.836545 
L 190.059558 98.998706 
L 193.980278 100.511843 
L 194.336708 98.800178 
L 194.693137 98.401566 
L 195.049566 97.341122 
L 195.405995 97.485625 
L 195.762424 95.552052 
L 196.475283 95.848327 
L 196.831712 92.102377 
L 202.891007 94.654764 
L 204.316724 95.223397 
L 204.673153 94.39517 
L 205.386011 94.678648 
L 205.742441 93.622613 
L 207.524586 94.330344 
L 207.881016 91.70922 
L 209.663161 92.429928 
L 210.01959 89.493409 
L 211.088878 89.937712 
L 211.445307 86.38576 
L 217.148174 88.777278 
L 217.504603 88.533259 
L 221.068894 89.942173 
L 221.425324 89.693521 
L 227.484619 91.952073 
L 227.841048 90.685244 
L 231.40534 91.96172 
L 231.761769 87.47417 
L 232.831057 87.874169 
L 233.187486 87.868729 
L 235.326061 88.652197 
L 235.68249 87.034584 
L 236.751777 87.428243 
L 237.108206 87.065285 
L 242.098215 88.846498 
L 242.454644 88.007995 
L 243.88036 88.504432 
L 244.23679 86.786969 
L 245.662506 87.288106 
L 246.018935 87.265988 
L 247.801081 87.880507 
L 248.15751 87.63727 
L 249.939656 88.24119 
L 250.652514 87.73791 
L 258.850385 90.384981 
L 264.196822 91.994812 
L 264.553251 90.595435 
L 270.612547 92.342917 
L 270.968976 91.32162 
L 272.751122 91.828312 
L 273.107551 89.69875 
L 274.533268 90.111645 
L 274.889697 89.74764 
L 277.74113 90.560414 
L 278.097559 90.444907 
L 279.879705 90.942125 
L 280.236134 89.839432 
L 284.869713 91.115731 
L 285.226143 90.80818 
L 285.582572 89.227379 
L 295.562588 91.875976 
L 299.12688 92.767524 
L 299.483309 90.105807 
L 303.0476 91.009103 
L 303.404029 86.658468 
L 309.819754 88.329493 
L 310.176183 87.610291 
L 314.096904 88.599149 
L 314.453333 87.937607 
L 318.017625 88.818134 
L 318.374054 88.577713 
L 327.997641 90.842131 
L 328.35407 90.028222 
L 332.63122 90.994247 
L 332.987649 90.489386 
L 339.046945 91.815911 
L 339.403374 91.616755 
L 340.116233 91.769308 
L 340.472662 91.043895 
L 342.967666 91.577497 
L 343.324095 91.381129 
L 354.01697 93.536526 
L 354.729828 93.676724 
L 355.086257 92.462934 
L 356.511974 92.669632 
L 356.868403 92.179869 
L 357.581261 92.321996 
L 357.93769 92.110314 
L 360.789124 92.673355 
L 361.145553 92.620014 
L 365.066274 93.325524 
L 365.422703 91.697968 
L 365.779132 91.767673 
L 366.135561 91.464321 
L 367.204848 91.673275 
L 367.561278 90.161531 
L 369.343423 90.514944 
L 369.699853 89.192534 
L 376.828436 90.571765 
L 377.184865 90.237151 
L 383.60059 91.376281 
L 384.669877 91.528885 
L 385.026306 91.223244 
L 387.164881 91.616971 
L 387.52131 90.467565 
L 387.87774 90.21293 
L 393.224177 91.102208 
L 393.580606 90.238231 
L 394.293464 90.368768 
L 394.649894 89.82745 
L 402.847764 91.300702 
L 403.204193 90.450384 
L 406.055627 90.952834 
L 406.412056 89.614747 
L 408.550631 89.918486 
L 408.90706 89.088164 
L 409.619918 89.215289 
L 409.976347 87.4361 
L 411.758493 87.760415 
L 412.114922 87.254847 
L 418.174218 88.279407 
L 418.530647 87.789973 
L 418.887076 87.728309 
L 419.956364 87.917546 
L 419.956364 87.917546 
" style="fill:none;stroke:#1f77b4;stroke-linecap:square;stroke-width:1.5;"/>
   </g>
   <g id="patch_3">
    <path d="M 46.08 156.672 
L 46.08 27.648 
" style="fill:none;stroke:#000000;stroke-linecap:square;stroke-linejoin:miter;stroke-width:0.8;"/>
   </g>
   <g id="patch_4">
    <path d="M 437.76 156.672 
L 437.76 27.648 
" style="fill:none;stroke:#000000;stroke-linecap:square;stroke-linejoin:miter;stroke-width:0.8;"/>
   </g>
   <g id="patch_5">
    <path d="M 46.08 156.672 
L 437.76 156.672 
" style="fill:none;stroke:#000000;stroke-linecap:square;stroke-linejoin:miter;stroke-width:0.8;"/>
   </g>
   <g id="patch_6">
    <path d="M 46.08 27.648 
L 437.76 27.648 
" style="fill:none;stroke:#000000;stroke-linecap:square;stroke-linejoin:miter;stroke-width:0.8;"/>
   </g>
   <g id="text_13">
    <!-- Número promedio de clientes en cola A -->
    <defs>
     <path id="DejaVuSans-32"/>
     <path d="M 18.109375 8.203125 
L 18.109375 -20.796875 
L 9.078125 -20.796875 
L 9.078125 54.6875 
L 18.109375 54.6875 
L 18.109375 46.390625 
Q 20.953125 51.265625 25.265625 53.625 
Q 29.59375 56 35.59375 56 
Q 45.5625 56 51.78125 48.09375 
Q 58.015625 40.1875 58.015625 27.296875 
Q 58.015625 14.40625 51.78125 6.484375 
Q 45.5625 -1.421875 35.59375 -1.421875 
Q 29.59375 -1.421875 25.265625 0.953125 
Q 20.953125 3.328125 18.109375 8.203125 
z
M 48.6875 27.296875 
Q 48.6875 37.203125 44.609375 42.84375 
Q 40.53125 48.484375 33.40625 48.484375 
Q 26.265625 48.484375 22.1875 42.84375 
Q 18.109375 37.203125 18.109375 27.296875 
Q 18.109375 17.390625 22.1875 11.75 
Q 26.265625 6.109375 33.40625 6.109375 
Q 40.53125 6.109375 44.609375 11.75 
Q 48.6875 17.390625 48.6875 27.296875 
z
" id="DejaVuSans-112"/>
     <path d="M 48.78125 52.59375 
L 48.78125 44.1875 
Q 44.96875 46.296875 41.140625 47.34375 
Q 37.3125 48.390625 33.40625 48.390625 
Q 24.65625 48.390625 19.8125 42.84375 
Q 14.984375 37.3125 14.984375 27.296875 
Q 14.984375 17.28125 19.8125 11.734375 
Q 24.65625 6.203125 33.40625 6.203125 
Q 37.3125 6.203125 41.140625 7.25 
Q 44.96875 8.296875 48.78125 10.40625 
L 48.78125 2.09375 
Q 45.015625 0.34375 40.984375 -0.53125 
Q 36.96875 -1.421875 32.421875 -1.421875 
Q 20.0625 -1.421875 12.78125 6.34375 
Q 5.515625 14.109375 5.515625 27.296875 
Q 5.515625 40.671875 12.859375 48.328125 
Q 20.21875 56 33.015625 56 
Q 37.15625 56 41.109375 55.140625 
Q 45.0625 54.296875 48.78125 52.59375 
z
" id="DejaVuSans-99"/>
     <path d="M 9.421875 75.984375 
L 18.40625 75.984375 
L 18.40625 0 
L 9.421875 0 
z
" id="DejaVuSans-108"/>
     <path d="M 54.890625 33.015625 
L 54.890625 0 
L 45.90625 0 
L 45.90625 32.71875 
Q 45.90625 40.484375 42.875 44.328125 
Q 39.84375 48.1875 33.796875 48.1875 
Q 26.515625 48.1875 22.3125 43.546875 
Q 18.109375 38.921875 18.109375 30.90625 
L 18.109375 0 
L 9.078125 0 
L 9.078125 54.6875 
L 18.109375 54.6875 
L 18.109375 46.1875 
Q 21.34375 51.125 25.703125 53.5625 
Q 30.078125 56 35.796875 56 
Q 45.21875 56 50.046875 50.171875 
Q 54.890625 44.34375 54.890625 33.015625 
z
" id="DejaVuSans-110"/>
     <path d="M 18.3125 70.21875 
L 18.3125 54.6875 
L 36.8125 54.6875 
L 36.8125 47.703125 
L 18.3125 47.703125 
L 18.3125 18.015625 
Q 18.3125 11.328125 20.140625 9.421875 
Q 21.96875 7.515625 27.59375 7.515625 
L 36.8125 7.515625 
L 36.8125 0 
L 27.59375 0 
Q 17.1875 0 13.234375 3.875 
Q 9.28125 7.765625 9.28125 18.015625 
L 9.28125 47.703125 
L 2.6875 47.703125 
L 2.6875 54.6875 
L 9.28125 54.6875 
L 9.28125 70.21875 
z
" id="DejaVuSans-116"/>
     <path d="M 34.1875 63.1875 
L 20.796875 26.90625 
L 47.609375 26.90625 
z
M 28.609375 72.90625 
L 39.796875 72.90625 
L 67.578125 0 
L 57.328125 0 
L 50.6875 18.703125 
L 17.828125 18.703125 
L 11.1875 0 
L 0.78125 0 
z
" id="DejaVuSans-65"/>
    </defs>
    <g transform="translate(123.17625 21.648)scale(0.12 -0.12)">
     <use xlink:href="#DejaVuSans-78"/>
     <use x="74.804688" xlink:href="#DejaVuSans-250"/>
     <use x="138.183594" xlink:href="#DejaVuSans-109"/>
     <use x="235.595703" xlink:href="#DejaVuSans-101"/>
     <use x="297.119141" xlink:href="#DejaVuSans-114"/>
     <use x="338.201172" xlink:href="#DejaVuSans-111"/>
     <use x="399.382812" xlink:href="#DejaVuSans-32"/>
     <use x="431.169922" xlink:href="#DejaVuSans-112"/>
     <use x="494.646484" xlink:href="#DejaVuSans-114"/>
     <use x="535.728516" xlink:href="#DejaVuSans-111"/>
     <use x="596.910156" xlink:href="#DejaVuSans-109"/>
     <use x="694.322266" xlink:href="#DejaVuSans-101"/>
     <use x="755.845703" xlink:href="#DejaVuSans-100"/>
     <use x="819.322266" xlink:href="#DejaVuSans-105"/>
     <use x="847.105469" xlink:href="#DejaVuSans-111"/>
     <use x="908.287109" xlink:href="#DejaVuSans-32"/>
     <use x="940.074219" xlink:href="#DejaVuSans-100"/>
     <use x="1003.550781" xlink:href="#DejaVuSans-101"/>
     <use x="1065.074219" xlink:href="#DejaVuSans-32"/>
     <use x="1096.861328" xlink:href="#DejaVuSans-99"/>
     <use x="1151.841797" xlink:href="#DejaVuSans-108"/>
     <use x="1179.625" xlink:href="#DejaVuSans-105"/>
     <use x="1207.408203" xlink:href="#DejaVuSans-101"/>
     <use x="1268.931641" xlink:href="#DejaVuSans-110"/>
     <use x="1332.310547" xlink:href="#DejaVuSans-116"/>
     <use x="1371.519531" xlink:href="#DejaVuSans-101"/>
     <use x="1433.042969" xlink:href="#DejaVuSans-115"/>
     <use x="1485.142578" xlink:href="#DejaVuSans-32"/>
     <use x="1516.929688" xlink:href="#DejaVuSans-101"/>
     <use x="1578.453125" xlink:href="#DejaVuSans-110"/>
     <use x="1641.832031" xlink:href="#DejaVuSans-32"/>
     <use x="1673.619141" xlink:href="#DejaVuSans-99"/>
     <use x="1728.599609" xlink:href="#DejaVuSans-111"/>
     <use x="1789.78125" xlink:href="#DejaVuSans-108"/>
     <use x="1817.564453" xlink:href="#DejaVuSans-97"/>
     <use x="1878.84375" xlink:href="#DejaVuSans-32"/>
     <use x="1910.630859" xlink:href="#DejaVuSans-65"/>
    </g>
   </g>
  </g>
  <g id="axes_2">
   <g id="patch_7">
    <path d="M 46.08 317.952 
L 212.75234 317.952 
L 212.75234 188.928 
L 46.08 188.928 
z
" style="fill:#ffffff;"/>
   </g>
   <g id="matplotlib.axis_3">
    <g id="xtick_7">
     <g id="line2d_22">
      <path clip-path="url(#pbf2ecafb33)" d="M 53.504343 317.952 
L 53.504343 188.928 
" style="fill:none;stroke:#b0b0b0;stroke-linecap:square;stroke-width:0.8;"/>
     </g>
     <g id="line2d_23">
      <g>
       <use style="stroke:#000000;stroke-width:0.8;" x="53.504343" xlink:href="#mdc16afd4ec" y="317.952"/>
      </g>
     </g>
     <g id="text_14">
      <!-- 0 -->
      <g transform="translate(50.323093 332.550437)scale(0.1 -0.1)">
       <use xlink:href="#DejaVuSans-48"/>
      </g>
     </g>
    </g>
    <g id="xtick_8">
     <g id="line2d_24">
      <path clip-path="url(#pbf2ecafb33)" d="M 91.422339 317.952 
L 91.422339 188.928 
" style="fill:none;stroke:#b0b0b0;stroke-linecap:square;stroke-width:0.8;"/>
     </g>
     <g id="line2d_25">
      <g>
       <use style="stroke:#000000;stroke-width:0.8;" x="91.422339" xlink:href="#mdc16afd4ec" y="317.952"/>
      </g>
     </g>
     <g id="text_15">
      <!-- 250 -->
      <g transform="translate(81.878589 332.550437)scale(0.1 -0.1)">
       <use xlink:href="#DejaVuSans-50"/>
       <use x="63.623047" xlink:href="#DejaVuSans-53"/>
       <use x="127.246094" xlink:href="#DejaVuSans-48"/>
      </g>
     </g>
    </g>
    <g id="xtick_9">
     <g id="line2d_26">
      <path clip-path="url(#pbf2ecafb33)" d="M 129.340334 317.952 
L 129.340334 188.928 
" style="fill:none;stroke:#b0b0b0;stroke-linecap:square;stroke-width:0.8;"/>
     </g>
     <g id="line2d_27">
      <g>
       <use style="stroke:#000000;stroke-width:0.8;" x="129.340334" xlink:href="#mdc16afd4ec" y="317.952"/>
      </g>
     </g>
     <g id="text_16">
      <!-- 500 -->
      <g transform="translate(119.796584 332.550437)scale(0.1 -0.1)">
       <use xlink:href="#DejaVuSans-53"/>
       <use x="63.623047" xlink:href="#DejaVuSans-48"/>
       <use x="127.246094" xlink:href="#DejaVuSans-48"/>
      </g>
     </g>
    </g>
    <g id="xtick_10">
     <g id="line2d_28">
      <path clip-path="url(#pbf2ecafb33)" d="M 167.25833 317.952 
L 167.25833 188.928 
" style="fill:none;stroke:#b0b0b0;stroke-linecap:square;stroke-width:0.8;"/>
     </g>
     <g id="line2d_29">
      <g>
       <use style="stroke:#000000;stroke-width:0.8;" x="167.25833" xlink:href="#mdc16afd4ec" y="317.952"/>
      </g>
     </g>
     <g id="text_17">
      <!-- 750 -->
      <defs>
       <path d="M 8.203125 72.90625 
L 55.078125 72.90625 
L 55.078125 68.703125 
L 28.609375 0 
L 18.3125 0 
L 43.21875 64.59375 
L 8.203125 64.59375 
z
" id="DejaVuSans-55"/>
      </defs>
      <g transform="translate(157.71458 332.550437)scale(0.1 -0.1)">
       <use xlink:href="#DejaVuSans-55"/>
       <use x="63.623047" xlink:href="#DejaVuSans-53"/>
       <use x="127.246094" xlink:href="#DejaVuSans-48"/>
      </g>
     </g>
    </g>
    <g id="xtick_11">
     <g id="line2d_30">
      <path clip-path="url(#pbf2ecafb33)" d="M 205.176325 317.952 
L 205.176325 188.928 
" style="fill:none;stroke:#b0b0b0;stroke-linecap:square;stroke-width:0.8;"/>
     </g>
     <g id="line2d_31">
      <g>
       <use style="stroke:#000000;stroke-width:0.8;" x="205.176325" xlink:href="#mdc16afd4ec" y="317.952"/>
      </g>
     </g>
     <g id="text_18">
      <!-- 1000 -->
      <g transform="translate(192.451325 332.550437)scale(0.1 -0.1)">
       <use xlink:href="#DejaVuSans-49"/>
       <use x="63.623047" xlink:href="#DejaVuSans-48"/>
       <use x="127.246094" xlink:href="#DejaVuSans-48"/>
       <use x="190.869141" xlink:href="#DejaVuSans-48"/>
      </g>
     </g>
    </g>
    <g id="text_19">
     <!-- Corridas -->
     <g transform="translate(108.523201 346.228563)scale(0.1 -0.1)">
      <use xlink:href="#DejaVuSans-67"/>
      <use x="69.824219" xlink:href="#DejaVuSans-111"/>
      <use x="131.005859" xlink:href="#DejaVuSans-114"/>
      <use x="172.103516" xlink:href="#DejaVuSans-114"/>
      <use x="213.216797" xlink:href="#DejaVuSans-105"/>
      <use x="241" xlink:href="#DejaVuSans-100"/>
      <use x="304.476562" xlink:href="#DejaVuSans-97"/>
      <use x="365.755859" xlink:href="#DejaVuSans-115"/>
     </g>
    </g>
   </g>
   <g id="matplotlib.axis_4">
    <g id="ytick_5">
     <g id="line2d_32">
      <path clip-path="url(#pbf2ecafb33)" d="M 46.08 312.91281 
L 212.75234 312.91281 
" style="fill:none;stroke:#b0b0b0;stroke-linecap:square;stroke-width:0.8;"/>
     </g>
     <g id="line2d_33">
      <g>
       <use style="stroke:#000000;stroke-width:0.8;" x="46.08" xlink:href="#m24d40d0730" y="312.91281"/>
      </g>
     </g>
     <g id="text_20">
      <!-- 0.010 -->
      <g transform="translate(10.451875 316.712029)scale(0.1 -0.1)">
       <use xlink:href="#DejaVuSans-48"/>
       <use x="63.623047" xlink:href="#DejaVuSans-46"/>
       <use x="95.410156" xlink:href="#DejaVuSans-48"/>
       <use x="159.033203" xlink:href="#DejaVuSans-49"/>
       <use x="222.65625" xlink:href="#DejaVuSans-48"/>
      </g>
     </g>
    </g>
    <g id="ytick_6">
     <g id="line2d_34">
      <path clip-path="url(#pbf2ecafb33)" d="M 46.08 275.49997 
L 212.75234 275.49997 
" style="fill:none;stroke:#b0b0b0;stroke-linecap:square;stroke-width:0.8;"/>
     </g>
     <g id="line2d_35">
      <g>
       <use style="stroke:#000000;stroke-width:0.8;" x="46.08" xlink:href="#m24d40d0730" y="275.49997"/>
      </g>
     </g>
     <g id="text_21">
      <!-- 0.012 -->
      <g transform="translate(10.451875 279.299189)scale(0.1 -0.1)">
       <use xlink:href="#DejaVuSans-48"/>
       <use x="63.623047" xlink:href="#DejaVuSans-46"/>
       <use x="95.410156" xlink:href="#DejaVuSans-48"/>
       <use x="159.033203" xlink:href="#DejaVuSans-49"/>
       <use x="222.65625" xlink:href="#DejaVuSans-50"/>
      </g>
     </g>
    </g>
    <g id="ytick_7">
     <g id="line2d_36">
      <path clip-path="url(#pbf2ecafb33)" d="M 46.08 238.08713 
L 212.75234 238.08713 
" style="fill:none;stroke:#b0b0b0;stroke-linecap:square;stroke-width:0.8;"/>
     </g>
     <g id="line2d_37">
      <g>
       <use style="stroke:#000000;stroke-width:0.8;" x="46.08" xlink:href="#m24d40d0730" y="238.08713"/>
      </g>
     </g>
     <g id="text_22">
      <!-- 0.014 -->
      <g transform="translate(10.451875 241.886348)scale(0.1 -0.1)">
       <use xlink:href="#DejaVuSans-48"/>
       <use x="63.623047" xlink:href="#DejaVuSans-46"/>
       <use x="95.410156" xlink:href="#DejaVuSans-48"/>
       <use x="159.033203" xlink:href="#DejaVuSans-49"/>
       <use x="222.65625" xlink:href="#DejaVuSans-52"/>
      </g>
     </g>
    </g>
    <g id="ytick_8">
     <g id="line2d_38">
      <path clip-path="url(#pbf2ecafb33)" d="M 46.08 200.67429 
L 212.75234 200.67429 
" style="fill:none;stroke:#b0b0b0;stroke-linecap:square;stroke-width:0.8;"/>
     </g>
     <g id="line2d_39">
      <g>
       <use style="stroke:#000000;stroke-width:0.8;" x="46.08" xlink:href="#m24d40d0730" y="200.67429"/>
      </g>
     </g>
     <g id="text_23">
      <!-- 0.016 -->
      <g transform="translate(10.451875 204.473508)scale(0.1 -0.1)">
       <use xlink:href="#DejaVuSans-48"/>
       <use x="63.623047" xlink:href="#DejaVuSans-46"/>
       <use x="95.410156" xlink:href="#DejaVuSans-48"/>
       <use x="159.033203" xlink:href="#DejaVuSans-49"/>
       <use x="222.65625" xlink:href="#DejaVuSans-54"/>
      </g>
     </g>
    </g>
    <g id="text_24">
     <!-- Número -->
     <g transform="translate(4.372188 273.409531)rotate(-90)scale(0.1 -0.1)">
      <use xlink:href="#DejaVuSans-78"/>
      <use x="74.804688" xlink:href="#DejaVuSans-250"/>
      <use x="138.183594" xlink:href="#DejaVuSans-109"/>
      <use x="235.595703" xlink:href="#DejaVuSans-101"/>
      <use x="297.119141" xlink:href="#DejaVuSans-114"/>
      <use x="338.201172" xlink:href="#DejaVuSans-111"/>
     </g>
    </g>
   </g>
   <g id="line2d_40">
    <path clip-path="url(#pbf2ecafb33)" d="M 53.656015 312.087273 
L 53.959359 219.425242 
L 54.262703 194.792727 
L 54.414375 198.375045 
L 54.566047 199.306872 
L 54.717719 197.591197 
L 54.869391 209.949395 
L 55.021063 209.404776 
L 55.324407 204.262571 
L 55.476079 203.59746 
L 55.627751 210.666985 
L 55.779423 211.184469 
L 55.931095 208.829441 
L 56.234439 219.014001 
L 56.386111 219.77254 
L 56.841127 214.637107 
L 56.992799 214.756087 
L 57.144471 210.701098 
L 57.447815 219.298859 
L 57.751159 214.115328 
L 58.054503 221.490355 
L 58.206175 221.829681 
L 58.357847 223.243606 
L 58.509519 225.81873 
L 58.661191 226.432244 
L 58.812863 224.028958 
L 58.964535 224.448343 
L 59.116207 224.514894 
L 59.419551 219.503269 
L 59.571223 218.937256 
L 59.722895 218.80139 
L 59.874567 215.733508 
L 60.026239 215.619951 
L 60.177911 214.636718 
L 60.329583 215.035998 
L 60.481255 213.332093 
L 60.632927 212.954915 
L 60.784599 211.787309 
L 60.936271 208.613654 
L 61.087943 209.481275 
L 61.239615 209.221387 
L 61.391287 207.449071 
L 61.542959 207.856497 
L 61.69463 205.130286 
L 61.846302 205.404225 
L 61.997974 207.827729 
L 62.149646 207.037178 
L 62.301318 207.080117 
L 62.45299 208.151887 
L 62.604662 206.428684 
L 62.756334 207.771199 
L 62.908006 207.846433 
L 63.21135 205.768412 
L 63.363022 206.758431 
L 63.666366 207.187987 
L 63.818038 207.045538 
L 64.121382 209.257438 
L 64.273054 209.136636 
L 64.576398 212.387535 
L 64.72807 212.60578 
L 65.031414 214.244507 
L 65.183086 214.117474 
L 65.334758 213.031689 
L 65.48643 212.907683 
L 65.638102 211.5963 
L 65.789774 211.434852 
L 65.941446 212.333615 
L 66.093118 211.032516 
L 66.396462 212.851683 
L 66.548134 213.838556 
L 66.699806 212.582041 
L 67.00315 213.650312 
L 67.306494 210.76086 
L 67.76151 208.250211 
L 68.064854 207.621853 
L 68.216526 207.920199 
L 68.368198 206.555928 
L 68.51987 207.826616 
L 68.671542 207.63671 
L 68.823214 207.886477 
L 69.126558 206.610301 
L 69.27823 207.150379 
L 69.581574 206.465485 
L 69.733246 205.490857 
L 70.036589 205.54352 
L 70.188261 205.942054 
L 70.339933 205.725815 
L 70.491605 205.091778 
L 70.643277 205.452554 
L 70.794949 205.114674 
L 70.946621 204.163569 
L 71.249965 205.585149 
L 71.401637 205.544865 
L 71.553309 205.936493 
L 71.704981 207.098575 
L 71.856653 207.116467 
L 72.008325 206.830383 
L 72.311669 207.942524 
L 72.463341 207.635721 
L 72.918357 209.143467 
L 73.070029 208.759451 
L 73.373373 208.989453 
L 73.676717 209.903359 
L 73.828389 209.953556 
L 73.980061 210.409298 
L 74.283405 209.875872 
L 74.586749 210.010564 
L 74.738421 210.53784 
L 74.890093 210.406045 
L 75.041765 210.079548 
L 75.345109 210.82769 
L 75.496781 210.566998 
L 75.951797 211.934337 
L 76.255141 211.612206 
L 76.406813 212.172329 
L 76.558485 211.986535 
L 76.710157 212.382799 
L 76.861829 211.912478 
L 77.013501 212.138109 
L 77.165173 212.877848 
L 77.316845 212.174392 
L 77.771861 212.619804 
L 78.075204 213.034519 
L 78.226876 212.285707 
L 78.378548 212.871595 
L 78.681892 212.771442 
L 79.136908 213.305887 
L 79.28858 212.813593 
L 79.440252 213.094732 
L 79.591924 212.916571 
L 79.743596 212.557391 
L 80.04694 210.822728 
L 80.198612 210.925139 
L 80.350284 211.229853 
L 80.653628 210.694416 
L 80.8053 211.35035 
L 81.108644 211.543868 
L 81.715332 212.954001 
L 81.867004 212.842068 
L 82.018676 212.874034 
L 82.170348 212.53129 
L 82.625364 212.579926 
L 83.232052 211.566632 
L 83.535396 210.863252 
L 83.687068 210.729757 
L 83.83874 211.074668 
L 84.142084 210.82256 
L 84.293756 210.721515 
L 84.445428 210.792224 
L 84.5971 211.204241 
L 84.900444 211.007172 
L 85.052116 211.261904 
L 85.203788 211.223983 
L 85.35546 210.992911 
L 85.507132 211.059428 
L 85.962148 211.611373 
L 86.11382 211.338596 
L 86.265491 211.42313 
L 86.417163 211.307729 
L 86.568835 211.012413 
L 86.872179 210.036993 
L 87.327195 210.50644 
L 87.478867 210.246617 
L 87.630539 209.136731 
L 87.933883 209.472582 
L 88.085555 209.326322 
L 88.388899 208.538327 
L 88.540571 208.543933 
L 88.843915 208.913288 
L 88.995587 209.346794 
L 89.298931 209.138419 
L 89.450603 209.317101 
L 89.602275 209.720085 
L 90.057291 209.213323 
L 90.360635 209.613022 
L 90.512307 209.685405 
L 90.663979 209.480358 
L 90.815651 209.745669 
L 91.270667 209.811695 
L 91.574011 210.477843 
L 91.725683 210.50319 
L 91.877355 210.138539 
L 92.180699 209.95237 
L 92.332371 210.358923 
L 92.635715 210.46177 
L 92.787387 210.091063 
L 92.939059 210.295956 
L 93.394075 210.210044 
L 93.697419 209.348172 
L 94.000763 209.954023 
L 94.304107 209.678848 
L 94.455778 209.822916 
L 94.60745 209.69751 
L 94.759122 210.001994 
L 95.062466 209.435337 
L 95.214138 209.69774 
L 95.36581 208.658807 
L 95.669154 208.353223 
L 95.972498 209.019402 
L 96.12417 208.874682 
L 96.579186 209.222655 
L 96.88253 209.427047 
L 97.034202 209.824324 
L 97.185874 209.716669 
L 97.337546 209.396673 
L 97.489218 209.410256 
L 97.64089 209.573862 
L 97.792562 209.457079 
L 97.944234 209.532414 
L 98.39925 210.626613 
L 99.005938 210.90346 
L 99.15761 210.589869 
L 99.460954 210.614622 
L 99.612626 210.942225 
L 99.764298 210.829802 
L 99.91597 210.977104 
L 100.219314 210.150581 
L 100.370986 209.984605 
L 100.522658 209.528024 
L 100.977674 209.758912 
L 101.129346 209.249318 
L 101.281018 209.388951 
L 101.887706 208.754536 
L 102.039378 208.866608 
L 102.494394 209.588898 
L 102.949409 210.100555 
L 103.101081 209.890248 
L 104.162785 210.685814 
L 104.466129 210.545507 
L 104.769473 210.613863 
L 105.376161 211.057893 
L 105.527833 210.819843 
L 105.679505 211.001772 
L 105.831177 210.927975 
L 105.982849 211.114406 
L 106.134521 211.018857 
L 106.286193 211.30628 
L 106.437865 211.175752 
L 106.892881 211.219226 
L 107.044553 211.223019 
L 107.499569 211.837618 
L 107.651241 211.848068 
L 107.802913 211.646602 
L 107.954585 211.67252 
L 108.106257 211.094005 
L 108.257929 211.190426 
L 108.561273 210.827686 
L 108.712945 210.922063 
L 109.016289 211.344267 
L 109.622977 211.582197 
L 109.774649 211.803229 
L 110.077993 211.90974 
L 110.229665 212.155674 
L 110.381337 212.081352 
L 110.533009 211.851987 
L 110.988024 211.918389 
L 111.291368 212.321787 
L 111.44304 212.322705 
L 111.594712 212.117899 
L 111.746384 212.446319 
L 112.2014 211.876226 
L 112.353072 211.565122 
L 112.808088 212.045023 
L 112.95976 211.818006 
L 113.111432 211.814945 
L 113.263104 211.688074 
L 113.414776 211.776943 
L 113.566448 211.586653 
L 113.869792 211.607412 
L 114.021464 212.049402 
L 114.173136 211.938165 
L 114.324808 212.080497 
L 114.47648 212.027052 
L 114.779824 211.439805 
L 115.23484 211.35681 
L 115.386512 211.225073 
L 115.538184 211.332194 
L 115.689856 211.159448 
L 115.841528 211.271317 
L 115.9932 211.232454 
L 116.144872 211.495934 
L 116.448216 211.440989 
L 116.599888 211.548743 
L 116.903232 211.929812 
L 117.206576 211.634356 
L 117.813264 211.348366 
L 118.571624 211.94907 
L 118.723296 211.787329 
L 119.329983 212.113708 
L 119.481655 212.149498 
L 119.784999 211.867592 
L 120.240015 212.312134 
L 120.543359 212.688687 
L 120.998375 212.608959 
L 121.150047 212.830683 
L 121.605063 212.305095 
L 122.060079 213.1213 
L 122.211751 212.981257 
L 122.363423 213.277004 
L 122.666767 213.325267 
L 122.818439 213.371504 
L 122.970111 213.254442 
L 123.121783 213.43085 
L 123.425127 213.335227 
L 123.576799 213.166281 
L 123.728471 213.352752 
L 123.880143 213.288306 
L 124.031815 213.518509 
L 124.183487 213.298928 
L 124.638503 213.65453 
L 124.790175 213.496996 
L 124.941847 213.523543 
L 125.093519 213.258362 
L 125.245191 213.300548 
L 125.548535 213.209651 
L 126.003551 213.237197 
L 126.155223 213.156167 
L 126.458567 213.320981 
L 126.761911 213.043337 
L 126.913583 213.160076 
L 127.065255 212.876998 
L 127.216926 212.831831 
L 127.671942 213.059024 
L 127.823614 212.950296 
L 127.975286 213.150176 
L 128.27863 212.764171 
L 128.430302 212.736202 
L 128.581974 212.523509 
L 128.885318 212.565604 
L 129.188662 212.858936 
L 129.492006 212.882334 
L 129.643678 213.069124 
L 129.947022 212.706388 
L 130.402038 212.825716 
L 130.55371 212.667005 
L 130.857054 212.807133 
L 131.008726 213.054755 
L 131.160398 213.011211 
L 131.31207 213.122314 
L 131.463742 212.771177 
L 131.615414 212.834025 
L 131.767086 213.030796 
L 131.918758 212.964737 
L 132.222102 212.408733 
L 132.373774 212.148094 
L 132.525446 212.134274 
L 132.980462 211.780938 
L 133.58715 211.70662 
L 133.738822 211.790732 
L 134.042166 211.699438 
L 134.193838 211.503113 
L 134.34551 211.659554 
L 134.497182 211.587213 
L 135.10387 212.065597 
L 135.255541 211.946192 
L 135.407213 211.994434 
L 135.710557 212.316549 
L 135.862229 212.516461 
L 136.013901 212.506507 
L 136.772261 213.189067 
L 137.227277 213.381145 
L 137.378949 213.095128 
L 137.530621 213.066524 
L 137.682293 213.252742 
L 137.985637 213.075935 
L 138.137309 213.248407 
L 138.743997 213.313637 
L 139.047341 213.485559 
L 139.502357 213.515386 
L 139.654029 213.798193 
L 139.957373 213.810765 
L 140.260717 213.945231 
L 140.412389 214.05872 
L 140.715733 213.839849 
L 140.867405 213.941217 
L 141.170749 213.690764 
L 141.322421 213.752381 
L 141.777437 213.329131 
L 142.080781 213.591648 
L 142.384125 213.505604 
L 142.687469 213.628273 
L 142.990813 213.602694 
L 143.294157 213.894449 
L 143.5975 213.590211 
L 143.749172 213.606705 
L 143.900844 213.761516 
L 144.204188 213.527399 
L 144.35586 213.565131 
L 144.507532 213.479891 
L 145.11422 213.668287 
L 145.265892 213.463586 
L 145.569236 213.52803 
L 145.720908 213.540788 
L 145.87258 213.395644 
L 146.175924 213.617952 
L 146.327596 213.545457 
L 146.782612 213.703799 
L 147.692644 213.692187 
L 147.995988 213.737552 
L 148.14766 213.643717 
L 148.299332 213.767355 
L 148.754348 213.659696 
L 148.90602 213.750658 
L 149.057692 213.678388 
L 149.209364 213.773576 
L 149.361036 213.685927 
L 149.66438 213.689415 
L 150.574412 213.945041 
L 150.877756 214.014511 
L 151.1811 214.141358 
L 151.332772 213.938816 
L 152.697819 213.946159 
L 153.152835 213.512938 
L 153.456179 213.273529 
L 153.607851 213.363958 
L 153.759523 213.294869 
L 154.062867 213.313323 
L 154.366211 213.030553 
L 154.517883 212.917302 
L 155.276243 213.191819 
L 155.579587 213.09714 
L 156.034603 213.271253 
L 156.489619 213.137483 
L 157.096307 213.018836 
L 157.399651 213.221408 
L 157.854667 212.998369 
L 158.158011 213.277141 
L 158.309683 213.162859 
L 158.764699 213.311469 
L 159.523059 213.619449 
L 159.826402 213.44527 
L 159.978074 213.618138 
L 160.888106 213.180325 
L 161.646466 213.715244 
L 161.94981 213.750362 
L 163.011514 213.229503 
L 164.073218 213.868501 
L 165.438266 213.780062 
L 166.196626 213.947489 
L 166.49997 213.905163 
L 167.106658 214.043153 
L 167.25833 213.873026 
L 168.016689 213.911182 
L 168.168361 213.780553 
L 168.471705 213.904585 
L 168.623377 213.893411 
L 168.775049 213.683961 
L 169.381737 213.879756 
L 169.685081 213.793393 
L 169.988425 213.971204 
L 170.443441 213.896346 
L 170.746785 213.818703 
L 171.201801 214.034484 
L 171.960161 214.09055 
L 172.111833 214.189709 
L 172.415177 214.068745 
L 172.718521 214.075672 
L 172.870193 213.958087 
L 173.173537 214.009467 
L 173.325209 214.023351 
L 173.476881 213.888136 
L 173.628553 214.078702 
L 174.235241 213.870026 
L 174.690257 213.815587 
L 174.841929 213.896651 
L 175.145273 213.649439 
L 175.448617 213.722639 
L 175.600289 213.723776 
L 176.206976 214.112851 
L 176.358648 214.07497 
L 176.51032 214.181861 
L 176.661992 213.856016 
L 176.813664 213.853391 
L 177.117008 213.704038 
L 177.420352 213.70805 
L 177.875368 213.505709 
L 178.02704 213.28258 
L 178.482056 213.382077 
L 179.240416 213.626168 
L 179.392088 213.607822 
L 179.695432 213.732816 
L 179.847104 213.665024 
L 180.30212 213.887765 
L 180.605464 213.999812 
L 180.908808 214.141475 
L 181.06048 214.252531 
L 181.212152 214.169077 
L 181.363824 214.338189 
L 181.81884 214.229246 
L 181.970512 214.140884 
L 182.5772 214.340724 
L 182.728872 214.318701 
L 182.880544 214.158776 
L 183.183888 214.357455 
L 183.487232 214.166315 
L 183.790576 214.250855 
L 184.09392 214.10567 
L 184.397263 214.132297 
L 184.548935 214.027325 
L 184.852279 214.089448 
L 185.307295 214.176662 
L 185.458967 214.095837 
L 185.762311 214.156296 
L 186.065655 213.967233 
L 186.217327 213.874029 
L 186.520671 213.872791 
L 187.582375 214.001008 
L 188.189063 214.419894 
L 188.644079 214.410035 
L 188.947423 214.463058 
L 189.250767 214.502416 
L 189.554111 214.460531 
L 189.857455 214.377328 
L 190.160799 214.484934 
L 190.919159 214.339274 
L 191.677519 214.313791 
L 194.255942 214.728978 
L 194.559286 214.853525 
L 195.317646 214.811673 
L 195.469318 214.640204 
L 196.076006 214.888488 
L 196.37935 214.920442 
L 197.13771 214.962861 
L 197.289382 215.065299 
L 198.199414 214.792646 
L 199.261118 214.969938 
L 199.564462 214.976599 
L 199.867806 215.128246 
L 200.17115 215.128746 
L 200.474494 214.938371 
L 200.626166 215.025822 
L 200.929509 214.807828 
L 201.384525 214.744241 
L 201.687869 214.595024 
L 202.142885 214.695911 
L 204.114621 214.414771 
L 204.569637 214.56159 
L 205.176325 214.518405 
L 205.176325 214.518405 
" style="fill:none;stroke:#1f77b4;stroke-linecap:square;stroke-width:1.5;"/>
   </g>
   <g id="patch_8">
    <path d="M 46.08 317.952 
L 46.08 188.928 
" style="fill:none;stroke:#000000;stroke-linecap:square;stroke-linejoin:miter;stroke-width:0.8;"/>
   </g>
   <g id="patch_9">
    <path d="M 212.75234 317.952 
L 212.75234 188.928 
" style="fill:none;stroke:#000000;stroke-linecap:square;stroke-linejoin:miter;stroke-width:0.8;"/>
   </g>
   <g id="patch_10">
    <path d="M 46.08 317.952 
L 212.75234 317.952 
" style="fill:none;stroke:#000000;stroke-linecap:square;stroke-linejoin:miter;stroke-width:0.8;"/>
   </g>
   <g id="patch_11">
    <path d="M 46.08 188.928 
L 212.75234 188.928 
" style="fill:none;stroke:#000000;stroke-linecap:square;stroke-linejoin:miter;stroke-width:0.8;"/>
   </g>
   <g id="text_25">
    <!-- Número promedio de clientes en cola C1 -->
    <g transform="translate(6.769608 182.928)scale(0.12 -0.12)">
     <use xlink:href="#DejaVuSans-78"/>
     <use x="74.804688" xlink:href="#DejaVuSans-250"/>
     <use x="138.183594" xlink:href="#DejaVuSans-109"/>
     <use x="235.595703" xlink:href="#DejaVuSans-101"/>
     <use x="297.119141" xlink:href="#DejaVuSans-114"/>
     <use x="338.201172" xlink:href="#DejaVuSans-111"/>
     <use x="399.382812" xlink:href="#DejaVuSans-32"/>
     <use x="431.169922" xlink:href="#DejaVuSans-112"/>
     <use x="494.646484" xlink:href="#DejaVuSans-114"/>
     <use x="535.728516" xlink:href="#DejaVuSans-111"/>
     <use x="596.910156" xlink:href="#DejaVuSans-109"/>
     <use x="694.322266" xlink:href="#DejaVuSans-101"/>
     <use x="755.845703" xlink:href="#DejaVuSans-100"/>
     <use x="819.322266" xlink:href="#DejaVuSans-105"/>
     <use x="847.105469" xlink:href="#DejaVuSans-111"/>
     <use x="908.287109" xlink:href="#DejaVuSans-32"/>
     <use x="940.074219" xlink:href="#DejaVuSans-100"/>
     <use x="1003.550781" xlink:href="#DejaVuSans-101"/>
     <use x="1065.074219" xlink:href="#DejaVuSans-32"/>
     <use x="1096.861328" xlink:href="#DejaVuSans-99"/>
     <use x="1151.841797" xlink:href="#DejaVuSans-108"/>
     <use x="1179.625" xlink:href="#DejaVuSans-105"/>
     <use x="1207.408203" xlink:href="#DejaVuSans-101"/>
     <use x="1268.931641" xlink:href="#DejaVuSans-110"/>
     <use x="1332.310547" xlink:href="#DejaVuSans-116"/>
     <use x="1371.519531" xlink:href="#DejaVuSans-101"/>
     <use x="1433.042969" xlink:href="#DejaVuSans-115"/>
     <use x="1485.142578" xlink:href="#DejaVuSans-32"/>
     <use x="1516.929688" xlink:href="#DejaVuSans-101"/>
     <use x="1578.453125" xlink:href="#DejaVuSans-110"/>
     <use x="1641.832031" xlink:href="#DejaVuSans-32"/>
     <use x="1673.619141" xlink:href="#DejaVuSans-99"/>
     <use x="1728.599609" xlink:href="#DejaVuSans-111"/>
     <use x="1789.78125" xlink:href="#DejaVuSans-108"/>
     <use x="1817.564453" xlink:href="#DejaVuSans-97"/>
     <use x="1878.84375" xlink:href="#DejaVuSans-32"/>
     <use x="1910.630859" xlink:href="#DejaVuSans-67"/>
     <use x="1980.455078" xlink:href="#DejaVuSans-49"/>
    </g>
   </g>
  </g>
  <g id="axes_3">
   <g id="patch_12">
    <path d="M 271.08766 317.952 
L 437.76 317.952 
L 437.76 188.928 
L 271.08766 188.928 
z
" style="fill:#ffffff;"/>
   </g>
   <g id="matplotlib.axis_5">
    <g id="xtick_12">
     <g id="line2d_41">
      <path clip-path="url(#p5f8bb8a10a)" d="M 278.512003 317.952 
L 278.512003 188.928 
" style="fill:none;stroke:#b0b0b0;stroke-linecap:square;stroke-width:0.8;"/>
     </g>
     <g id="line2d_42">
      <g>
       <use style="stroke:#000000;stroke-width:0.8;" x="278.512003" xlink:href="#mdc16afd4ec" y="317.952"/>
      </g>
     </g>
     <g id="text_26">
      <!-- 0 -->
      <g transform="translate(275.330753 332.550437)scale(0.1 -0.1)">
       <use xlink:href="#DejaVuSans-48"/>
      </g>
     </g>
    </g>
    <g id="xtick_13">
     <g id="line2d_43">
      <path clip-path="url(#p5f8bb8a10a)" d="M 316.429998 317.952 
L 316.429998 188.928 
" style="fill:none;stroke:#b0b0b0;stroke-linecap:square;stroke-width:0.8;"/>
     </g>
     <g id="line2d_44">
      <g>
       <use style="stroke:#000000;stroke-width:0.8;" x="316.429998" xlink:href="#mdc16afd4ec" y="317.952"/>
      </g>
     </g>
     <g id="text_27">
      <!-- 250 -->
      <g transform="translate(306.886248 332.550437)scale(0.1 -0.1)">
       <use xlink:href="#DejaVuSans-50"/>
       <use x="63.623047" xlink:href="#DejaVuSans-53"/>
       <use x="127.246094" xlink:href="#DejaVuSans-48"/>
      </g>
     </g>
    </g>
    <g id="xtick_14">
     <g id="line2d_45">
      <path clip-path="url(#p5f8bb8a10a)" d="M 354.347994 317.952 
L 354.347994 188.928 
" style="fill:none;stroke:#b0b0b0;stroke-linecap:square;stroke-width:0.8;"/>
     </g>
     <g id="line2d_46">
      <g>
       <use style="stroke:#000000;stroke-width:0.8;" x="354.347994" xlink:href="#mdc16afd4ec" y="317.952"/>
      </g>
     </g>
     <g id="text_28">
      <!-- 500 -->
      <g transform="translate(344.804244 332.550437)scale(0.1 -0.1)">
       <use xlink:href="#DejaVuSans-53"/>
       <use x="63.623047" xlink:href="#DejaVuSans-48"/>
       <use x="127.246094" xlink:href="#DejaVuSans-48"/>
      </g>
     </g>
    </g>
    <g id="xtick_15">
     <g id="line2d_47">
      <path clip-path="url(#p5f8bb8a10a)" d="M 392.265989 317.952 
L 392.265989 188.928 
" style="fill:none;stroke:#b0b0b0;stroke-linecap:square;stroke-width:0.8;"/>
     </g>
     <g id="line2d_48">
      <g>
       <use style="stroke:#000000;stroke-width:0.8;" x="392.265989" xlink:href="#mdc16afd4ec" y="317.952"/>
      </g>
     </g>
     <g id="text_29">
      <!-- 750 -->
      <g transform="translate(382.722239 332.550437)scale(0.1 -0.1)">
       <use xlink:href="#DejaVuSans-55"/>
       <use x="63.623047" xlink:href="#DejaVuSans-53"/>
       <use x="127.246094" xlink:href="#DejaVuSans-48"/>
      </g>
     </g>
    </g>
    <g id="xtick_16">
     <g id="line2d_49">
      <path clip-path="url(#p5f8bb8a10a)" d="M 430.183985 317.952 
L 430.183985 188.928 
" style="fill:none;stroke:#b0b0b0;stroke-linecap:square;stroke-width:0.8;"/>
     </g>
     <g id="line2d_50">
      <g>
       <use style="stroke:#000000;stroke-width:0.8;" x="430.183985" xlink:href="#mdc16afd4ec" y="317.952"/>
      </g>
     </g>
     <g id="text_30">
      <!-- 1000 -->
      <g transform="translate(417.458985 332.550437)scale(0.1 -0.1)">
       <use xlink:href="#DejaVuSans-49"/>
       <use x="63.623047" xlink:href="#DejaVuSans-48"/>
       <use x="127.246094" xlink:href="#DejaVuSans-48"/>
       <use x="190.869141" xlink:href="#DejaVuSans-48"/>
      </g>
     </g>
    </g>
    <g id="text_31">
     <!-- Corridas -->
     <g transform="translate(333.530861 346.228563)scale(0.1 -0.1)">
      <use xlink:href="#DejaVuSans-67"/>
      <use x="69.824219" xlink:href="#DejaVuSans-111"/>
      <use x="131.005859" xlink:href="#DejaVuSans-114"/>
      <use x="172.103516" xlink:href="#DejaVuSans-114"/>
      <use x="213.216797" xlink:href="#DejaVuSans-105"/>
      <use x="241" xlink:href="#DejaVuSans-100"/>
      <use x="304.476562" xlink:href="#DejaVuSans-97"/>
      <use x="365.755859" xlink:href="#DejaVuSans-115"/>
     </g>
    </g>
   </g>
   <g id="matplotlib.axis_6">
    <g id="ytick_9">
     <g id="line2d_51">
      <path clip-path="url(#p5f8bb8a10a)" d="M 271.08766 300.612455 
L 437.76 300.612455 
" style="fill:none;stroke:#b0b0b0;stroke-linecap:square;stroke-width:0.8;"/>
     </g>
     <g id="line2d_52">
      <g>
       <use style="stroke:#000000;stroke-width:0.8;" x="271.08766" xlink:href="#m24d40d0730" y="300.612455"/>
      </g>
     </g>
     <g id="text_32">
      <!-- 0.012 -->
      <g transform="translate(235.459535 304.411673)scale(0.1 -0.1)">
       <use xlink:href="#DejaVuSans-48"/>
       <use x="63.623047" xlink:href="#DejaVuSans-46"/>
       <use x="95.410156" xlink:href="#DejaVuSans-48"/>
       <use x="159.033203" xlink:href="#DejaVuSans-49"/>
       <use x="222.65625" xlink:href="#DejaVuSans-50"/>
      </g>
     </g>
    </g>
    <g id="ytick_10">
     <g id="line2d_53">
      <path clip-path="url(#p5f8bb8a10a)" d="M 271.08766 263.59924 
L 437.76 263.59924 
" style="fill:none;stroke:#b0b0b0;stroke-linecap:square;stroke-width:0.8;"/>
     </g>
     <g id="line2d_54">
      <g>
       <use style="stroke:#000000;stroke-width:0.8;" x="271.08766" xlink:href="#m24d40d0730" y="263.59924"/>
      </g>
     </g>
     <g id="text_33">
      <!-- 0.013 -->
      <defs>
       <path d="M 40.578125 39.3125 
Q 47.65625 37.796875 51.625 33 
Q 55.609375 28.21875 55.609375 21.1875 
Q 55.609375 10.40625 48.1875 4.484375 
Q 40.765625 -1.421875 27.09375 -1.421875 
Q 22.515625 -1.421875 17.65625 -0.515625 
Q 12.796875 0.390625 7.625 2.203125 
L 7.625 11.71875 
Q 11.71875 9.328125 16.59375 8.109375 
Q 21.484375 6.890625 26.8125 6.890625 
Q 36.078125 6.890625 40.9375 10.546875 
Q 45.796875 14.203125 45.796875 21.1875 
Q 45.796875 27.640625 41.28125 31.265625 
Q 36.765625 34.90625 28.71875 34.90625 
L 20.21875 34.90625 
L 20.21875 43.015625 
L 29.109375 43.015625 
Q 36.375 43.015625 40.234375 45.921875 
Q 44.09375 48.828125 44.09375 54.296875 
Q 44.09375 59.90625 40.109375 62.90625 
Q 36.140625 65.921875 28.71875 65.921875 
Q 24.65625 65.921875 20.015625 65.03125 
Q 15.375 64.15625 9.8125 62.3125 
L 9.8125 71.09375 
Q 15.4375 72.65625 20.34375 73.4375 
Q 25.25 74.21875 29.59375 74.21875 
Q 40.828125 74.21875 47.359375 69.109375 
Q 53.90625 64.015625 53.90625 55.328125 
Q 53.90625 49.265625 50.4375 45.09375 
Q 46.96875 40.921875 40.578125 39.3125 
z
" id="DejaVuSans-51"/>
      </defs>
      <g transform="translate(235.459535 267.398459)scale(0.1 -0.1)">
       <use xlink:href="#DejaVuSans-48"/>
       <use x="63.623047" xlink:href="#DejaVuSans-46"/>
       <use x="95.410156" xlink:href="#DejaVuSans-48"/>
       <use x="159.033203" xlink:href="#DejaVuSans-49"/>
       <use x="222.65625" xlink:href="#DejaVuSans-51"/>
      </g>
     </g>
    </g>
    <g id="ytick_11">
     <g id="line2d_55">
      <path clip-path="url(#p5f8bb8a10a)" d="M 271.08766 226.586026 
L 437.76 226.586026 
" style="fill:none;stroke:#b0b0b0;stroke-linecap:square;stroke-width:0.8;"/>
     </g>
     <g id="line2d_56">
      <g>
       <use style="stroke:#000000;stroke-width:0.8;" x="271.08766" xlink:href="#m24d40d0730" y="226.586026"/>
      </g>
     </g>
     <g id="text_34">
      <!-- 0.014 -->
      <g transform="translate(235.459535 230.385245)scale(0.1 -0.1)">
       <use xlink:href="#DejaVuSans-48"/>
       <use x="63.623047" xlink:href="#DejaVuSans-46"/>
       <use x="95.410156" xlink:href="#DejaVuSans-48"/>
       <use x="159.033203" xlink:href="#DejaVuSans-49"/>
       <use x="222.65625" xlink:href="#DejaVuSans-52"/>
      </g>
     </g>
    </g>
    <g id="ytick_12">
     <g id="line2d_57">
      <path clip-path="url(#p5f8bb8a10a)" d="M 271.08766 189.572812 
L 437.76 189.572812 
" style="fill:none;stroke:#b0b0b0;stroke-linecap:square;stroke-width:0.8;"/>
     </g>
     <g id="line2d_58">
      <g>
       <use style="stroke:#000000;stroke-width:0.8;" x="271.08766" xlink:href="#m24d40d0730" y="189.572812"/>
      </g>
     </g>
     <g id="text_35">
      <!-- 0.015 -->
      <g transform="translate(235.459535 193.372031)scale(0.1 -0.1)">
       <use xlink:href="#DejaVuSans-48"/>
       <use x="63.623047" xlink:href="#DejaVuSans-46"/>
       <use x="95.410156" xlink:href="#DejaVuSans-48"/>
       <use x="159.033203" xlink:href="#DejaVuSans-49"/>
       <use x="222.65625" xlink:href="#DejaVuSans-53"/>
      </g>
     </g>
    </g>
    <g id="text_36">
     <!-- Número -->
     <g transform="translate(229.379847 273.409531)rotate(-90)scale(0.1 -0.1)">
      <use xlink:href="#DejaVuSans-78"/>
      <use x="74.804688" xlink:href="#DejaVuSans-250"/>
      <use x="138.183594" xlink:href="#DejaVuSans-109"/>
      <use x="235.595703" xlink:href="#DejaVuSans-101"/>
      <use x="297.119141" xlink:href="#DejaVuSans-114"/>
      <use x="338.201172" xlink:href="#DejaVuSans-111"/>
     </g>
    </g>
   </g>
   <g id="line2d_59">
    <path clip-path="url(#p5f8bb8a10a)" d="M 278.663675 312.087273 
L 278.815347 228.644075 
L 278.967019 217.911048 
L 279.118691 194.792727 
L 279.270363 219.101861 
L 279.422035 222.075844 
L 279.573707 218.510801 
L 280.180395 265.265748 
L 280.332067 267.475319 
L 280.483739 264.699311 
L 280.787083 269.781895 
L 280.938755 252.362918 
L 281.090427 252.905103 
L 281.242099 243.426423 
L 281.393771 247.332625 
L 281.848787 233.955841 
L 282.152131 240.137049 
L 282.303803 247.092822 
L 282.455475 247.092135 
L 282.607147 243.01599 
L 282.758819 248.35142 
L 282.910491 247.936181 
L 283.062163 256.32237 
L 283.213834 252.162035 
L 283.66885 261.102473 
L 283.820522 260.689305 
L 284.123866 269.989696 
L 284.275538 270.016565 
L 284.42721 271.280219 
L 284.730554 269.901891 
L 284.882226 270.10871 
L 285.033898 268.344779 
L 285.18557 263.917756 
L 285.488914 267.782982 
L 285.640586 267.753539 
L 285.792258 267.995085 
L 285.94393 265.283531 
L 286.095602 267.89306 
L 286.247274 266.433239 
L 286.398946 263.680344 
L 286.550618 264.276392 
L 286.70229 260.67961 
L 286.853962 260.713069 
L 287.157306 255.251964 
L 287.308978 254.926636 
L 287.46065 256.944384 
L 287.612322 256.368146 
L 288.067338 258.858688 
L 288.21901 256.237425 
L 288.370682 255.946117 
L 288.674026 251.161252 
L 288.825698 249.99145 
L 289.129042 252.775301 
L 289.280714 247.897351 
L 289.432386 250.808876 
L 289.584058 251.4997 
L 289.73573 250.547975 
L 289.887402 252.29469 
L 290.190746 250.065343 
L 290.342418 251.031395 
L 290.49409 248.676285 
L 290.949106 254.252824 
L 291.100778 254.3076 
L 291.25245 256.025736 
L 291.404121 255.732127 
L 292.010809 253.4582 
L 292.162481 253.920756 
L 292.314153 252.082343 
L 292.617497 253.022374 
L 292.920841 251.026662 
L 293.072513 251.537012 
L 293.224185 251.097051 
L 293.375857 252.107607 
L 293.527529 251.59879 
L 293.679201 252.681367 
L 293.830873 252.330719 
L 293.982545 252.288691 
L 294.134217 252.104948 
L 294.437561 254.175928 
L 294.589233 254.077179 
L 294.740905 254.310155 
L 294.892577 255.485948 
L 295.044249 255.195076 
L 295.347593 257.188683 
L 295.802609 258.814044 
L 295.954281 258.847525 
L 296.105953 259.835862 
L 296.257625 258.698114 
L 296.409297 259.361945 
L 296.560969 259.289784 
L 296.712641 259.852085 
L 296.864313 258.087309 
L 297.015985 257.972934 
L 297.167657 256.862091 
L 297.319329 257.470145 
L 297.471001 257.437713 
L 297.774345 259.973715 
L 297.926017 259.753805 
L 298.077689 260.054888 
L 298.381033 258.969436 
L 298.532705 258.623525 
L 298.684377 259.784336 
L 298.836049 258.997559 
L 298.987721 259.445307 
L 299.139393 259.507205 
L 299.442737 258.078465 
L 299.74608 258.631128 
L 299.897752 258.338847 
L 300.201096 258.809881 
L 300.352768 259.995886 
L 300.50444 259.123577 
L 300.656112 260.175924 
L 300.807784 259.914712 
L 300.959456 260.904961 
L 301.111128 259.730737 
L 301.2628 259.654158 
L 301.414472 259.234884 
L 301.566144 259.150799 
L 301.717816 259.330334 
L 301.869488 259.961381 
L 302.172832 257.883626 
L 302.324504 258.024207 
L 302.476176 257.842267 
L 302.627848 258.926343 
L 302.931192 257.259474 
L 303.082864 258.126938 
L 303.234536 256.983959 
L 303.386208 257.741238 
L 303.53788 256.630413 
L 303.689552 256.523541 
L 303.841224 256.608617 
L 303.992896 257.010292 
L 304.144568 256.607089 
L 304.599584 253.902876 
L 304.902928 250.612641 
L 305.0546 250.289104 
L 305.357944 251.727176 
L 305.661288 248.828806 
L 305.81296 249.474396 
L 305.964632 249.249785 
L 306.116304 249.289324 
L 306.267976 250.15332 
L 306.57132 250.632176 
L 306.722992 251.891561 
L 306.874664 252.077595 
L 307.026336 251.883899 
L 307.178008 251.07696 
L 307.481352 252.374081 
L 307.633024 252.478151 
L 307.936367 250.593901 
L 308.088039 250.333991 
L 308.239711 250.706586 
L 308.391383 249.898731 
L 308.846399 251.331417 
L 309.149743 251.101596 
L 309.301415 251.322497 
L 309.453087 252.427732 
L 309.604759 251.987641 
L 309.756431 250.049624 
L 309.908103 250.223843 
L 310.059775 249.355189 
L 310.211447 250.078911 
L 310.363119 248.199902 
L 310.514791 248.655915 
L 310.666463 248.667083 
L 311.121479 249.463334 
L 311.879839 246.880428 
L 312.031511 247.310885 
L 312.183183 246.801904 
L 312.486527 247.369403 
L 312.638199 247.248655 
L 313.093215 247.743026 
L 313.244887 247.526831 
L 313.396559 247.628055 
L 313.548231 247.386803 
L 313.699903 247.497184 
L 313.851575 247.812718 
L 314.003247 247.839944 
L 314.154919 248.385012 
L 314.458263 247.750401 
L 314.609935 247.775796 
L 314.761607 247.549505 
L 314.913279 247.850844 
L 315.064951 247.903945 
L 315.216623 247.69178 
L 315.368295 248.677378 
L 315.519967 247.958939 
L 315.671639 248.214424 
L 316.126654 249.41364 
L 316.278326 249.554066 
L 316.58167 250.733278 
L 316.733342 250.842116 
L 316.885014 250.72141 
L 317.036686 250.943899 
L 317.34003 250.586255 
L 317.795046 251.329745 
L 317.946718 251.543284 
L 318.09839 251.247026 
L 318.250062 251.54994 
L 318.401734 251.44473 
L 318.705078 250.414743 
L 318.85675 250.076445 
L 319.008422 250.399506 
L 319.311766 249.976233 
L 319.61511 250.296276 
L 319.766782 250.416945 
L 319.918454 250.077568 
L 320.221798 250.852229 
L 320.37347 250.334463 
L 320.525142 250.389175 
L 320.676814 249.894374 
L 321.586846 251.406531 
L 321.738518 251.417655 
L 321.89019 251.298428 
L 322.041862 252.017666 
L 322.193534 251.651287 
L 322.496878 252.518669 
L 322.64855 252.251345 
L 322.800222 252.38898 
L 323.103566 253.365457 
L 323.255238 253.087663 
L 323.40691 253.623352 
L 323.558582 252.778619 
L 323.710254 252.591887 
L 323.861926 252.610951 
L 324.165269 253.112658 
L 324.316941 252.81152 
L 324.620285 253.65296 
L 324.923629 252.690994 
L 325.075301 252.994018 
L 325.226973 252.664155 
L 325.681989 253.001859 
L 325.985333 253.215666 
L 326.137005 252.610752 
L 326.288677 252.525363 
L 326.440349 252.630357 
L 326.592021 252.04882 
L 326.743693 251.991679 
L 327.047037 251.085356 
L 327.350381 252.401346 
L 327.805397 252.781004 
L 328.108741 251.845858 
L 328.260413 252.422689 
L 328.412085 252.409518 
L 328.563757 251.85193 
L 328.715429 251.945806 
L 328.867101 252.354279 
L 329.018773 251.944826 
L 329.170445 252.275629 
L 329.322117 252.158344 
L 329.473789 252.196496 
L 329.625461 251.881175 
L 329.928805 251.792524 
L 330.080477 251.720984 
L 330.232149 251.469508 
L 330.383821 251.586124 
L 330.535493 250.930776 
L 330.838837 251.129417 
L 330.990509 251.300568 
L 331.142181 250.808406 
L 331.597197 252.330685 
L 331.748869 252.479123 
L 331.900541 252.914806 
L 332.052213 252.82877 
L 332.6589 253.269906 
L 332.810572 253.630904 
L 333.265588 253.368605 
L 333.41726 253.41915 
L 333.720604 254.029409 
L 333.872276 254.031749 
L 334.023948 254.386237 
L 334.17562 254.116371 
L 334.327292 254.314551 
L 334.478964 254.001351 
L 334.630636 254.555219 
L 334.782308 254.630499 
L 335.085652 255.017193 
L 335.237324 254.843823 
L 335.388996 254.390651 
L 335.540668 254.710177 
L 335.69234 254.556747 
L 335.844012 253.738115 
L 336.299028 254.664496 
L 336.602372 254.663375 
L 336.754044 255.071102 
L 337.20906 255.152841 
L 337.512404 254.944454 
L 337.815748 255.329308 
L 337.96742 254.955951 
L 338.119092 255.251654 
L 338.422436 254.609364 
L 338.574108 254.571279 
L 338.72578 254.238636 
L 338.877452 254.311533 
L 339.029124 254.59244 
L 339.180796 254.531648 
L 339.332468 254.805775 
L 339.635812 254.194459 
L 339.939156 254.734231 
L 340.2425 254.616647 
L 341.152531 253.500647 
L 341.304203 253.449824 
L 341.607547 253.97254 
L 341.759219 254.150027 
L 341.910891 253.83683 
L 342.214235 253.638226 
L 342.365907 253.811994 
L 342.517579 253.68767 
L 342.972595 254.13355 
L 343.124267 254.004009 
L 343.427611 254.200851 
L 343.730955 254.003908 
L 343.882627 254.207801 
L 344.034299 254.166814 
L 344.185971 254.289695 
L 344.337643 254.788453 
L 344.640987 254.438137 
L 344.792659 254.594078 
L 345.096003 254.222823 
L 346.006035 255.022686 
L 346.461051 254.538931 
L 346.612723 254.433291 
L 346.764395 254.668838 
L 346.916067 254.43059 
L 347.067739 254.606519 
L 347.219411 254.519316 
L 347.371083 254.80832 
L 347.522755 254.84427 
L 347.674427 254.702462 
L 348.129443 255.32682 
L 348.281115 255.19374 
L 348.432787 255.316359 
L 348.584459 255.288434 
L 349.039474 255.92968 
L 349.342818 255.776819 
L 349.49449 256.005828 
L 349.646162 255.902169 
L 349.949506 256.131197 
L 350.101178 255.91572 
L 350.25285 255.98293 
L 350.556194 256.390141 
L 350.707866 256.417971 
L 350.859538 256.855236 
L 351.01121 256.821964 
L 351.162882 256.497218 
L 351.314554 256.526981 
L 351.466226 256.856177 
L 351.617898 256.746553 
L 351.921242 257.06252 
L 352.224586 256.58738 
L 352.52793 256.426691 
L 352.679602 256.477436 
L 353.134618 257.143205 
L 353.28629 256.948249 
L 353.437962 257.279916 
L 353.589634 257.000324 
L 353.892978 257.453182 
L 354.196322 256.728139 
L 354.347994 257.020147 
L 354.499666 256.872054 
L 354.651338 256.920515 
L 354.80301 256.597514 
L 355.106354 256.735371 
L 355.409698 256.688901 
L 355.713042 256.721553 
L 355.864714 256.849303 
L 356.016386 257.354924 
L 356.31973 257.100466 
L 356.471402 256.445577 
L 356.623074 256.336929 
L 356.926417 256.686304 
L 357.229761 255.885417 
L 357.381433 255.481258 
L 357.533105 255.449604 
L 357.684777 255.629759 
L 357.836449 255.627581 
L 357.988121 256.146864 
L 358.139793 256.199847 
L 358.291465 256.132902 
L 358.898153 257.192335 
L 359.049825 257.370548 
L 359.201497 257.369668 
L 359.353169 257.750919 
L 359.504841 257.707254 
L 359.959857 257.106448 
L 360.111529 257.170548 
L 360.263201 256.973376 
L 360.414873 257.324106 
L 360.718217 257.488738 
L 361.324905 258.288528 
L 361.476577 257.81796 
L 361.628249 258.269435 
L 361.931593 258.235011 
L 362.083265 258.344476 
L 362.234937 258.803542 
L 362.386609 258.780797 
L 362.689953 259.046167 
L 362.841625 259.07493 
L 363.144969 259.423289 
L 363.296641 259.372269 
L 363.751657 258.540706 
L 363.903329 258.528667 
L 364.055001 258.274451 
L 364.206673 258.342152 
L 364.358345 258.143999 
L 364.510017 258.377516 
L 364.813361 258.300659 
L 364.965032 257.954279 
L 365.116704 257.989029 
L 365.268376 258.17792 
L 365.57172 258.207444 
L 365.723392 258.187339 
L 366.026736 257.704003 
L 366.178408 257.772084 
L 366.481752 257.57203 
L 366.785096 257.719305 
L 366.936768 258.056476 
L 367.08844 258.021148 
L 367.240112 257.791924 
L 367.695128 258.07184 
L 368.150144 257.761698 
L 368.301816 258.032834 
L 368.60516 257.560618 
L 368.908504 257.889557 
L 369.36352 257.375801 
L 369.515192 257.476945 
L 369.666864 257.335876 
L 369.970208 256.777845 
L 370.12188 256.567058 
L 370.273552 256.625646 
L 370.88024 256.294828 
L 371.031912 256.608602 
L 371.335256 256.637285 
L 372.093616 257.034146 
L 372.245288 256.797924 
L 372.39696 257.047568 
L 372.548632 256.990602 
L 372.700304 257.095406 
L 372.851976 256.835989 
L 373.003648 256.928837 
L 373.155319 256.809623 
L 373.762007 257.290317 
L 374.217023 258.168181 
L 374.368695 258.056414 
L 374.672039 258.317675 
L 374.823711 258.196192 
L 375.127055 258.361982 
L 375.582071 258.498133 
L 375.885415 258.924803 
L 376.188759 258.992385 
L 376.340431 258.871749 
L 376.492103 259.058855 
L 376.643775 258.962815 
L 377.098791 259.217626 
L 377.250463 259.329306 
L 378.160495 258.847431 
L 378.463839 258.873646 
L 378.918855 259.495557 
L 379.525543 259.363682 
L 379.980559 259.565108 
L 380.435575 259.601973 
L 380.587247 259.805447 
L 380.738919 259.614965 
L 381.042263 259.957531 
L 381.345606 260.183805 
L 381.497278 259.992561 
L 381.952294 260.132863 
L 382.103966 260.019501 
L 382.255638 260.070117 
L 382.40731 259.994987 
L 382.558982 259.748151 
L 383.013998 260.424413 
L 383.16567 260.259464 
L 383.469014 260.309507 
L 383.92403 260.498313 
L 384.379046 260.379057 
L 384.530718 260.540033 
L 384.68239 260.477423 
L 384.985734 260.827403 
L 385.137406 260.604629 
L 385.289078 260.891099 
L 385.592422 260.834551 
L 385.895766 259.757944 
L 386.502454 259.719652 
L 386.805798 259.717851 
L 386.95747 259.786767 
L 387.109142 259.529401 
L 387.260814 259.577447 
L 387.867502 259.08523 
L 388.019174 258.779164 
L 388.47419 258.878422 
L 389.080878 258.663867 
L 389.23255 258.612334 
L 389.384222 258.770945 
L 389.687565 258.80382 
L 389.839237 258.5565 
L 390.142581 258.559135 
L 390.294253 258.731698 
L 390.445925 258.677177 
L 390.749269 258.882291 
L 390.900941 258.885152 
L 391.052613 259.075561 
L 391.355957 258.908434 
L 391.659301 258.963205 
L 392.114317 258.84796 
L 392.265989 258.761511 
L 392.569333 258.488635 
L 393.176021 258.37325 
L 393.479365 258.770528 
L 394.237725 258.45879 
L 394.541069 258.753736 
L 394.692741 258.509335 
L 394.844413 258.576227 
L 395.299429 259.148201 
L 395.602773 258.862519 
L 395.754445 259.032447 
L 396.057789 258.951819 
L 396.512805 259.157106 
L 396.664477 259.214739 
L 396.967821 259.026903 
L 397.119493 259.091283 
L 397.422837 258.794461 
L 397.574509 258.937107 
L 397.877852 258.686555 
L 398.181196 258.903454 
L 398.48454 258.759874 
L 398.636212 258.946948 
L 398.939556 258.873085 
L 399.091228 258.957414 
L 399.546244 258.444615 
L 399.697916 258.588517 
L 400.152932 258.572004 
L 400.456276 258.685352 
L 400.607948 258.641568 
L 400.911292 258.772474 
L 401.062964 258.674102 
L 401.214636 258.917114 
L 401.51798 258.761895 
L 401.669652 258.601623 
L 402.27634 259.048626 
L 402.428012 258.872908 
L 402.883028 258.975705 
L 403.186372 258.752147 
L 403.489716 259.0348 
L 403.641388 259.256842 
L 404.096404 259.083607 
L 404.55142 259.014469 
L 404.703092 259.072459 
L 404.854764 258.937304 
L 405.158108 259.118655 
L 405.461452 258.718913 
L 405.613124 258.782828 
L 405.764796 258.616348 
L 405.916467 258.652333 
L 406.068139 258.815984 
L 406.219811 258.770676 
L 406.523155 258.963171 
L 406.674827 259.050153 
L 407.129843 258.634901 
L 407.281515 258.481917 
L 407.584859 258.58465 
L 407.736531 258.81219 
L 408.039875 258.33684 
L 408.191547 258.407652 
L 408.343219 258.192336 
L 409.101579 258.311089 
L 409.253251 258.398872 
L 409.556595 258.337519 
L 410.163283 258.760749 
L 410.314955 258.742062 
L 410.618299 258.830057 
L 411.073315 259.079766 
L 411.224987 258.773769 
L 411.528331 258.996525 
L 411.680003 258.730496 
L 411.831675 258.837802 
L 412.135019 258.669527 
L 412.286691 258.533363 
L 412.438363 258.722562 
L 412.590035 258.659823 
L 413.045051 259.100985 
L 413.196723 258.941849 
L 413.651739 259.308158 
L 414.106754 258.903037 
L 414.258426 259.015743 
L 414.410098 258.985377 
L 414.713442 258.489189 
L 415.016786 258.005809 
L 415.32013 258.111892 
L 416.381834 257.936926 
L 417.140194 258.043825 
L 417.898554 258.336447 
L 418.201898 258.477783 
L 418.656914 258.275986 
L 418.808586 258.402377 
L 419.11193 258.215933 
L 419.566946 258.632168 
L 420.021962 258.609285 
L 420.173634 258.422532 
L 420.476978 258.454733 
L 422.14537 259.243822 
L 422.448713 259.301541 
L 422.752057 259.448817 
L 422.903729 259.385195 
L 423.207073 259.630993 
L 423.510417 259.767132 
L 423.662089 259.658539 
L 424.117105 260.260667 
L 424.420449 260.116412 
L 426.240513 260.206355 
L 426.847201 260.53911 
L 427.453889 260.663929 
L 427.908905 260.629208 
L 428.667265 260.525968 
L 428.818937 260.673848 
L 428.970609 260.398329 
L 429.273953 260.647375 
L 429.425625 260.867739 
L 430.183985 260.880499 
L 430.183985 260.880499 
" style="fill:none;stroke:#1f77b4;stroke-linecap:square;stroke-width:1.5;"/>
   </g>
   <g id="patch_13">
    <path d="M 271.08766 317.952 
L 271.08766 188.928 
" style="fill:none;stroke:#000000;stroke-linecap:square;stroke-linejoin:miter;stroke-width:0.8;"/>
   </g>
   <g id="patch_14">
    <path d="M 437.76 317.952 
L 437.76 188.928 
" style="fill:none;stroke:#000000;stroke-linecap:square;stroke-linejoin:miter;stroke-width:0.8;"/>
   </g>
   <g id="patch_15">
    <path d="M 271.08766 317.952 
L 437.76 317.952 
" style="fill:none;stroke:#000000;stroke-linecap:square;stroke-linejoin:miter;stroke-width:0.8;"/>
   </g>
   <g id="patch_16">
    <path d="M 271.08766 188.928 
L 437.76 188.928 
" style="fill:none;stroke:#000000;stroke-linecap:square;stroke-linejoin:miter;stroke-width:0.8;"/>
   </g>
   <g id="text_37">
    <!-- Número promedio de clientes en cola C2 -->
    <g transform="translate(231.777267 182.928)scale(0.12 -0.12)">
     <use xlink:href="#DejaVuSans-78"/>
     <use x="74.804688" xlink:href="#DejaVuSans-250"/>
     <use x="138.183594" xlink:href="#DejaVuSans-109"/>
     <use x="235.595703" xlink:href="#DejaVuSans-101"/>
     <use x="297.119141" xlink:href="#DejaVuSans-114"/>
     <use x="338.201172" xlink:href="#DejaVuSans-111"/>
     <use x="399.382812" xlink:href="#DejaVuSans-32"/>
     <use x="431.169922" xlink:href="#DejaVuSans-112"/>
     <use x="494.646484" xlink:href="#DejaVuSans-114"/>
     <use x="535.728516" xlink:href="#DejaVuSans-111"/>
     <use x="596.910156" xlink:href="#DejaVuSans-109"/>
     <use x="694.322266" xlink:href="#DejaVuSans-101"/>
     <use x="755.845703" xlink:href="#DejaVuSans-100"/>
     <use x="819.322266" xlink:href="#DejaVuSans-105"/>
     <use x="847.105469" xlink:href="#DejaVuSans-111"/>
     <use x="908.287109" xlink:href="#DejaVuSans-32"/>
     <use x="940.074219" xlink:href="#DejaVuSans-100"/>
     <use x="1003.550781" xlink:href="#DejaVuSans-101"/>
     <use x="1065.074219" xlink:href="#DejaVuSans-32"/>
     <use x="1096.861328" xlink:href="#DejaVuSans-99"/>
     <use x="1151.841797" xlink:href="#DejaVuSans-108"/>
     <use x="1179.625" xlink:href="#DejaVuSans-105"/>
     <use x="1207.408203" xlink:href="#DejaVuSans-101"/>
     <use x="1268.931641" xlink:href="#DejaVuSans-110"/>
     <use x="1332.310547" xlink:href="#DejaVuSans-116"/>
     <use x="1371.519531" xlink:href="#DejaVuSans-101"/>
     <use x="1433.042969" xlink:href="#DejaVuSans-115"/>
     <use x="1485.142578" xlink:href="#DejaVuSans-32"/>
     <use x="1516.929688" xlink:href="#DejaVuSans-101"/>
     <use x="1578.453125" xlink:href="#DejaVuSans-110"/>
     <use x="1641.832031" xlink:href="#DejaVuSans-32"/>
     <use x="1673.619141" xlink:href="#DejaVuSans-99"/>
     <use x="1728.599609" xlink:href="#DejaVuSans-111"/>
     <use x="1789.78125" xlink:href="#DejaVuSans-108"/>
     <use x="1817.564453" xlink:href="#DejaVuSans-97"/>
     <use x="1878.84375" xlink:href="#DejaVuSans-32"/>
     <use x="1910.630859" xlink:href="#DejaVuSans-67"/>
     <use x="1980.455078" xlink:href="#DejaVuSans-50"/>
    </g>
   </g>
  </g>
 </g>
 <defs>
  <clipPath id="pc0dadac14b">
   <rect height="129.024" width="391.68" x="46.08" y="27.648"/>
  </clipPath>
  <clipPath id="pbf2ecafb33">
   <rect height="129.024" width="166.67234" x="46.08" y="188.928"/>
  </clipPath>
  <clipPath id="p5f8bb8a10a">
   <rect height="129.024" width="166.67234" x="271.08766" y="188.928"/>
  </clipPath>
 </defs>
</svg>
