<?xml version="1.0" encoding="utf-8" standalone="no"?>
<!DOCTYPE svg PUBLIC "-//W3C//DTD SVG 1.1//EN"
  "http://www.w3.org/Graphics/SVG/1.1/DTD/svg11.dtd">
<!-- Created with matplotlib (https://matplotlib.org/) -->
<svg height="345.6pt" version="1.1" viewBox="0 0 460.8 345.6" width="460.8pt" xmlns="http://www.w3.org/2000/svg" xmlns:xlink="http://www.w3.org/1999/xlink">
 <defs>
  <style type="text/css">
*{stroke-linecap:butt;stroke-linejoin:round;}
  </style>
 </defs>
 <g id="figure_1">
  <g id="patch_1">
   <path d="M 0 345.6 
L 460.8 345.6 
L 460.8 0 
L 0 0 
z
" style="fill:#ffffff;"/>
  </g>
  <g id="axes_1">
   <g id="patch_2">
    <path d="M 46.08 156.672 
L 437.76 156.672 
L 437.76 27.648 
L 46.08 27.648 
z
" style="fill:#ffffff;"/>
   </g>
   <g id="matplotlib.axis_1">
    <g id="xtick_1">
     <g id="line2d_1">
      <path clip-path="url(#pe4e4b6fd70)" d="M 63.527207 156.672 
L 63.527207 27.648 
" style="fill:none;stroke:#b0b0b0;stroke-linecap:square;stroke-width:0.8;"/>
     </g>
     <g id="line2d_2">
      <defs>
       <path d="M 0 0 
L 0 3.5 
" id="mc3d08dffd1" style="stroke:#000000;stroke-width:0.8;"/>
      </defs>
      <g>
       <use style="stroke:#000000;stroke-width:0.8;" x="63.527207" xlink:href="#mc3d08dffd1" y="156.672"/>
      </g>
     </g>
     <g id="text_1">
      <!-- 0 -->
      <defs>
       <path d="M 31.78125 66.40625 
Q 24.171875 66.40625 20.328125 58.90625 
Q 16.5 51.421875 16.5 36.375 
Q 16.5 21.390625 20.328125 13.890625 
Q 24.171875 6.390625 31.78125 6.390625 
Q 39.453125 6.390625 43.28125 13.890625 
Q 47.125 21.390625 47.125 36.375 
Q 47.125 51.421875 43.28125 58.90625 
Q 39.453125 66.40625 31.78125 66.40625 
z
M 31.78125 74.21875 
Q 44.046875 74.21875 50.515625 64.515625 
Q 56.984375 54.828125 56.984375 36.375 
Q 56.984375 17.96875 50.515625 8.265625 
Q 44.046875 -1.421875 31.78125 -1.421875 
Q 19.53125 -1.421875 13.0625 8.265625 
Q 6.59375 17.96875 6.59375 36.375 
Q 6.59375 54.828125 13.0625 64.515625 
Q 19.53125 74.21875 31.78125 74.21875 
z
" id="DejaVuSans-48"/>
      </defs>
      <g transform="translate(60.345957 171.270437)scale(0.1 -0.1)">
       <use xlink:href="#DejaVuSans-48"/>
      </g>
     </g>
    </g>
    <g id="xtick_2">
     <g id="line2d_3">
      <path clip-path="url(#pe4e4b6fd70)" d="M 134.813038 156.672 
L 134.813038 27.648 
" style="fill:none;stroke:#b0b0b0;stroke-linecap:square;stroke-width:0.8;"/>
     </g>
     <g id="line2d_4">
      <g>
       <use style="stroke:#000000;stroke-width:0.8;" x="134.813038" xlink:href="#mc3d08dffd1" y="156.672"/>
      </g>
     </g>
     <g id="text_2">
      <!-- 200 -->
      <defs>
       <path d="M 19.1875 8.296875 
L 53.609375 8.296875 
L 53.609375 0 
L 7.328125 0 
L 7.328125 8.296875 
Q 12.9375 14.109375 22.625 23.890625 
Q 32.328125 33.6875 34.8125 36.53125 
Q 39.546875 41.84375 41.421875 45.53125 
Q 43.3125 49.21875 43.3125 52.78125 
Q 43.3125 58.59375 39.234375 62.25 
Q 35.15625 65.921875 28.609375 65.921875 
Q 23.96875 65.921875 18.8125 64.3125 
Q 13.671875 62.703125 7.8125 59.421875 
L 7.8125 69.390625 
Q 13.765625 71.78125 18.9375 73 
Q 24.125 74.21875 28.421875 74.21875 
Q 39.75 74.21875 46.484375 68.546875 
Q 53.21875 62.890625 53.21875 53.421875 
Q 53.21875 48.921875 51.53125 44.890625 
Q 49.859375 40.875 45.40625 35.40625 
Q 44.1875 33.984375 37.640625 27.21875 
Q 31.109375 20.453125 19.1875 8.296875 
z
" id="DejaVuSans-50"/>
      </defs>
      <g transform="translate(125.269288 171.270437)scale(0.1 -0.1)">
       <use xlink:href="#DejaVuSans-50"/>
       <use x="63.623047" xlink:href="#DejaVuSans-48"/>
       <use x="127.246094" xlink:href="#DejaVuSans-48"/>
      </g>
     </g>
    </g>
    <g id="xtick_3">
     <g id="line2d_5">
      <path clip-path="url(#pe4e4b6fd70)" d="M 206.09887 156.672 
L 206.09887 27.648 
" style="fill:none;stroke:#b0b0b0;stroke-linecap:square;stroke-width:0.8;"/>
     </g>
     <g id="line2d_6">
      <g>
       <use style="stroke:#000000;stroke-width:0.8;" x="206.09887" xlink:href="#mc3d08dffd1" y="156.672"/>
      </g>
     </g>
     <g id="text_3">
      <!-- 400 -->
      <defs>
       <path d="M 37.796875 64.3125 
L 12.890625 25.390625 
L 37.796875 25.390625 
z
M 35.203125 72.90625 
L 47.609375 72.90625 
L 47.609375 25.390625 
L 58.015625 25.390625 
L 58.015625 17.1875 
L 47.609375 17.1875 
L 47.609375 0 
L 37.796875 0 
L 37.796875 17.1875 
L 4.890625 17.1875 
L 4.890625 26.703125 
z
" id="DejaVuSans-52"/>
      </defs>
      <g transform="translate(196.55512 171.270437)scale(0.1 -0.1)">
       <use xlink:href="#DejaVuSans-52"/>
       <use x="63.623047" xlink:href="#DejaVuSans-48"/>
       <use x="127.246094" xlink:href="#DejaVuSans-48"/>
      </g>
     </g>
    </g>
    <g id="xtick_4">
     <g id="line2d_7">
      <path clip-path="url(#pe4e4b6fd70)" d="M 277.384701 156.672 
L 277.384701 27.648 
" style="fill:none;stroke:#b0b0b0;stroke-linecap:square;stroke-width:0.8;"/>
     </g>
     <g id="line2d_8">
      <g>
       <use style="stroke:#000000;stroke-width:0.8;" x="277.384701" xlink:href="#mc3d08dffd1" y="156.672"/>
      </g>
     </g>
     <g id="text_4">
      <!-- 600 -->
      <defs>
       <path d="M 33.015625 40.375 
Q 26.375 40.375 22.484375 35.828125 
Q 18.609375 31.296875 18.609375 23.390625 
Q 18.609375 15.53125 22.484375 10.953125 
Q 26.375 6.390625 33.015625 6.390625 
Q 39.65625 6.390625 43.53125 10.953125 
Q 47.40625 15.53125 47.40625 23.390625 
Q 47.40625 31.296875 43.53125 35.828125 
Q 39.65625 40.375 33.015625 40.375 
z
M 52.59375 71.296875 
L 52.59375 62.3125 
Q 48.875 64.0625 45.09375 64.984375 
Q 41.3125 65.921875 37.59375 65.921875 
Q 27.828125 65.921875 22.671875 59.328125 
Q 17.53125 52.734375 16.796875 39.40625 
Q 19.671875 43.65625 24.015625 45.921875 
Q 28.375 48.1875 33.59375 48.1875 
Q 44.578125 48.1875 50.953125 41.515625 
Q 57.328125 34.859375 57.328125 23.390625 
Q 57.328125 12.15625 50.6875 5.359375 
Q 44.046875 -1.421875 33.015625 -1.421875 
Q 20.359375 -1.421875 13.671875 8.265625 
Q 6.984375 17.96875 6.984375 36.375 
Q 6.984375 53.65625 15.1875 63.9375 
Q 23.390625 74.21875 37.203125 74.21875 
Q 40.921875 74.21875 44.703125 73.484375 
Q 48.484375 72.75 52.59375 71.296875 
z
" id="DejaVuSans-54"/>
      </defs>
      <g transform="translate(267.840951 171.270437)scale(0.1 -0.1)">
       <use xlink:href="#DejaVuSans-54"/>
       <use x="63.623047" xlink:href="#DejaVuSans-48"/>
       <use x="127.246094" xlink:href="#DejaVuSans-48"/>
      </g>
     </g>
    </g>
    <g id="xtick_5">
     <g id="line2d_9">
      <path clip-path="url(#pe4e4b6fd70)" d="M 348.670532 156.672 
L 348.670532 27.648 
" style="fill:none;stroke:#b0b0b0;stroke-linecap:square;stroke-width:0.8;"/>
     </g>
     <g id="line2d_10">
      <g>
       <use style="stroke:#000000;stroke-width:0.8;" x="348.670532" xlink:href="#mc3d08dffd1" y="156.672"/>
      </g>
     </g>
     <g id="text_5">
      <!-- 800 -->
      <defs>
       <path d="M 31.78125 34.625 
Q 24.75 34.625 20.71875 30.859375 
Q 16.703125 27.09375 16.703125 20.515625 
Q 16.703125 13.921875 20.71875 10.15625 
Q 24.75 6.390625 31.78125 6.390625 
Q 38.8125 6.390625 42.859375 10.171875 
Q 46.921875 13.96875 46.921875 20.515625 
Q 46.921875 27.09375 42.890625 30.859375 
Q 38.875 34.625 31.78125 34.625 
z
M 21.921875 38.8125 
Q 15.578125 40.375 12.03125 44.71875 
Q 8.5 49.078125 8.5 55.328125 
Q 8.5 64.0625 14.71875 69.140625 
Q 20.953125 74.21875 31.78125 74.21875 
Q 42.671875 74.21875 48.875 69.140625 
Q 55.078125 64.0625 55.078125 55.328125 
Q 55.078125 49.078125 51.53125 44.71875 
Q 48 40.375 41.703125 38.8125 
Q 48.828125 37.15625 52.796875 32.3125 
Q 56.78125 27.484375 56.78125 20.515625 
Q 56.78125 9.90625 50.3125 4.234375 
Q 43.84375 -1.421875 31.78125 -1.421875 
Q 19.734375 -1.421875 13.25 4.234375 
Q 6.78125 9.90625 6.78125 20.515625 
Q 6.78125 27.484375 10.78125 32.3125 
Q 14.796875 37.15625 21.921875 38.8125 
z
M 18.3125 54.390625 
Q 18.3125 48.734375 21.84375 45.5625 
Q 25.390625 42.390625 31.78125 42.390625 
Q 38.140625 42.390625 41.71875 45.5625 
Q 45.3125 48.734375 45.3125 54.390625 
Q 45.3125 60.0625 41.71875 63.234375 
Q 38.140625 66.40625 31.78125 66.40625 
Q 25.390625 66.40625 21.84375 63.234375 
Q 18.3125 60.0625 18.3125 54.390625 
z
" id="DejaVuSans-56"/>
      </defs>
      <g transform="translate(339.126782 171.270437)scale(0.1 -0.1)">
       <use xlink:href="#DejaVuSans-56"/>
       <use x="63.623047" xlink:href="#DejaVuSans-48"/>
       <use x="127.246094" xlink:href="#DejaVuSans-48"/>
      </g>
     </g>
    </g>
    <g id="xtick_6">
     <g id="line2d_11">
      <path clip-path="url(#pe4e4b6fd70)" d="M 419.956364 156.672 
L 419.956364 27.648 
" style="fill:none;stroke:#b0b0b0;stroke-linecap:square;stroke-width:0.8;"/>
     </g>
     <g id="line2d_12">
      <g>
       <use style="stroke:#000000;stroke-width:0.8;" x="419.956364" xlink:href="#mc3d08dffd1" y="156.672"/>
      </g>
     </g>
     <g id="text_6">
      <!-- 1000 -->
      <defs>
       <path d="M 12.40625 8.296875 
L 28.515625 8.296875 
L 28.515625 63.921875 
L 10.984375 60.40625 
L 10.984375 69.390625 
L 28.421875 72.90625 
L 38.28125 72.90625 
L 38.28125 8.296875 
L 54.390625 8.296875 
L 54.390625 0 
L 12.40625 0 
z
" id="DejaVuSans-49"/>
      </defs>
      <g transform="translate(407.231364 171.270437)scale(0.1 -0.1)">
       <use xlink:href="#DejaVuSans-49"/>
       <use x="63.623047" xlink:href="#DejaVuSans-48"/>
       <use x="127.246094" xlink:href="#DejaVuSans-48"/>
       <use x="190.869141" xlink:href="#DejaVuSans-48"/>
      </g>
     </g>
    </g>
    <g id="text_7">
     <!-- Corridas -->
     <defs>
      <path d="M 64.40625 67.28125 
L 64.40625 56.890625 
Q 59.421875 61.53125 53.78125 63.8125 
Q 48.140625 66.109375 41.796875 66.109375 
Q 29.296875 66.109375 22.65625 58.46875 
Q 16.015625 50.828125 16.015625 36.375 
Q 16.015625 21.96875 22.65625 14.328125 
Q 29.296875 6.6875 41.796875 6.6875 
Q 48.140625 6.6875 53.78125 8.984375 
Q 59.421875 11.28125 64.40625 15.921875 
L 64.40625 5.609375 
Q 59.234375 2.09375 53.4375 0.328125 
Q 47.65625 -1.421875 41.21875 -1.421875 
Q 24.65625 -1.421875 15.125 8.703125 
Q 5.609375 18.84375 5.609375 36.375 
Q 5.609375 53.953125 15.125 64.078125 
Q 24.65625 74.21875 41.21875 74.21875 
Q 47.75 74.21875 53.53125 72.484375 
Q 59.328125 70.75 64.40625 67.28125 
z
" id="DejaVuSans-67"/>
      <path d="M 30.609375 48.390625 
Q 23.390625 48.390625 19.1875 42.75 
Q 14.984375 37.109375 14.984375 27.296875 
Q 14.984375 17.484375 19.15625 11.84375 
Q 23.34375 6.203125 30.609375 6.203125 
Q 37.796875 6.203125 41.984375 11.859375 
Q 46.1875 17.53125 46.1875 27.296875 
Q 46.1875 37.015625 41.984375 42.703125 
Q 37.796875 48.390625 30.609375 48.390625 
z
M 30.609375 56 
Q 42.328125 56 49.015625 48.375 
Q 55.71875 40.765625 55.71875 27.296875 
Q 55.71875 13.875 49.015625 6.21875 
Q 42.328125 -1.421875 30.609375 -1.421875 
Q 18.84375 -1.421875 12.171875 6.21875 
Q 5.515625 13.875 5.515625 27.296875 
Q 5.515625 40.765625 12.171875 48.375 
Q 18.84375 56 30.609375 56 
z
" id="DejaVuSans-111"/>
      <path d="M 41.109375 46.296875 
Q 39.59375 47.171875 37.8125 47.578125 
Q 36.03125 48 33.890625 48 
Q 26.265625 48 22.1875 43.046875 
Q 18.109375 38.09375 18.109375 28.8125 
L 18.109375 0 
L 9.078125 0 
L 9.078125 54.6875 
L 18.109375 54.6875 
L 18.109375 46.1875 
Q 20.953125 51.171875 25.484375 53.578125 
Q 30.03125 56 36.53125 56 
Q 37.453125 56 38.578125 55.875 
Q 39.703125 55.765625 41.0625 55.515625 
z
" id="DejaVuSans-114"/>
      <path d="M 9.421875 54.6875 
L 18.40625 54.6875 
L 18.40625 0 
L 9.421875 0 
z
M 9.421875 75.984375 
L 18.40625 75.984375 
L 18.40625 64.59375 
L 9.421875 64.59375 
z
" id="DejaVuSans-105"/>
      <path d="M 45.40625 46.390625 
L 45.40625 75.984375 
L 54.390625 75.984375 
L 54.390625 0 
L 45.40625 0 
L 45.40625 8.203125 
Q 42.578125 3.328125 38.25 0.953125 
Q 33.9375 -1.421875 27.875 -1.421875 
Q 17.96875 -1.421875 11.734375 6.484375 
Q 5.515625 14.40625 5.515625 27.296875 
Q 5.515625 40.1875 11.734375 48.09375 
Q 17.96875 56 27.875 56 
Q 33.9375 56 38.25 53.625 
Q 42.578125 51.265625 45.40625 46.390625 
z
M 14.796875 27.296875 
Q 14.796875 17.390625 18.875 11.75 
Q 22.953125 6.109375 30.078125 6.109375 
Q 37.203125 6.109375 41.296875 11.75 
Q 45.40625 17.390625 45.40625 27.296875 
Q 45.40625 37.203125 41.296875 42.84375 
Q 37.203125 48.484375 30.078125 48.484375 
Q 22.953125 48.484375 18.875 42.84375 
Q 14.796875 37.203125 14.796875 27.296875 
z
" id="DejaVuSans-100"/>
      <path d="M 34.28125 27.484375 
Q 23.390625 27.484375 19.1875 25 
Q 14.984375 22.515625 14.984375 16.5 
Q 14.984375 11.71875 18.140625 8.90625 
Q 21.296875 6.109375 26.703125 6.109375 
Q 34.1875 6.109375 38.703125 11.40625 
Q 43.21875 16.703125 43.21875 25.484375 
L 43.21875 27.484375 
z
M 52.203125 31.203125 
L 52.203125 0 
L 43.21875 0 
L 43.21875 8.296875 
Q 40.140625 3.328125 35.546875 0.953125 
Q 30.953125 -1.421875 24.3125 -1.421875 
Q 15.921875 -1.421875 10.953125 3.296875 
Q 6 8.015625 6 15.921875 
Q 6 25.140625 12.171875 29.828125 
Q 18.359375 34.515625 30.609375 34.515625 
L 43.21875 34.515625 
L 43.21875 35.40625 
Q 43.21875 41.609375 39.140625 45 
Q 35.0625 48.390625 27.6875 48.390625 
Q 23 48.390625 18.546875 47.265625 
Q 14.109375 46.140625 10.015625 43.890625 
L 10.015625 52.203125 
Q 14.9375 54.109375 19.578125 55.046875 
Q 24.21875 56 28.609375 56 
Q 40.484375 56 46.34375 49.84375 
Q 52.203125 43.703125 52.203125 31.203125 
z
" id="DejaVuSans-97"/>
      <path d="M 44.28125 53.078125 
L 44.28125 44.578125 
Q 40.484375 46.53125 36.375 47.5 
Q 32.28125 48.484375 27.875 48.484375 
Q 21.1875 48.484375 17.84375 46.4375 
Q 14.5 44.390625 14.5 40.28125 
Q 14.5 37.15625 16.890625 35.375 
Q 19.28125 33.59375 26.515625 31.984375 
L 29.59375 31.296875 
Q 39.15625 29.25 43.1875 25.515625 
Q 47.21875 21.78125 47.21875 15.09375 
Q 47.21875 7.46875 41.1875 3.015625 
Q 35.15625 -1.421875 24.609375 -1.421875 
Q 20.21875 -1.421875 15.453125 -0.5625 
Q 10.6875 0.296875 5.421875 2 
L 5.421875 11.28125 
Q 10.40625 8.6875 15.234375 7.390625 
Q 20.0625 6.109375 24.8125 6.109375 
Q 31.15625 6.109375 34.5625 8.28125 
Q 37.984375 10.453125 37.984375 14.40625 
Q 37.984375 18.0625 35.515625 20.015625 
Q 33.0625 21.96875 24.703125 23.78125 
L 21.578125 24.515625 
Q 13.234375 26.265625 9.515625 29.90625 
Q 5.8125 33.546875 5.8125 39.890625 
Q 5.8125 47.609375 11.28125 51.796875 
Q 16.75 56 26.8125 56 
Q 31.78125 56 36.171875 55.265625 
Q 40.578125 54.546875 44.28125 53.078125 
z
" id="DejaVuSans-115"/>
     </defs>
     <g transform="translate(221.027031 184.948562)scale(0.1 -0.1)">
      <use xlink:href="#DejaVuSans-67"/>
      <use x="69.824219" xlink:href="#DejaVuSans-111"/>
      <use x="131.005859" xlink:href="#DejaVuSans-114"/>
      <use x="172.103516" xlink:href="#DejaVuSans-114"/>
      <use x="213.216797" xlink:href="#DejaVuSans-105"/>
      <use x="241" xlink:href="#DejaVuSans-100"/>
      <use x="304.476562" xlink:href="#DejaVuSans-97"/>
      <use x="365.755859" xlink:href="#DejaVuSans-115"/>
     </g>
    </g>
   </g>
   <g id="matplotlib.axis_2">
    <g id="ytick_1">
     <g id="line2d_13">
      <path clip-path="url(#pe4e4b6fd70)" d="M 46.08 150.807273 
L 437.76 150.807273 
" style="fill:none;stroke:#b0b0b0;stroke-linecap:square;stroke-width:0.8;"/>
     </g>
     <g id="line2d_14">
      <defs>
       <path d="M 0 0 
L -3.5 0 
" id="m1b7e7b6a6f" style="stroke:#000000;stroke-width:0.8;"/>
      </defs>
      <g>
       <use style="stroke:#000000;stroke-width:0.8;" x="46.08" xlink:href="#m1b7e7b6a6f" y="150.807273"/>
      </g>
     </g>
     <g id="text_8">
      <!-- 0.000000 -->
      <defs>
       <path d="M 10.6875 12.40625 
L 21 12.40625 
L 21 0 
L 10.6875 0 
z
" id="DejaVuSans-46"/>
      </defs>
      <g transform="translate(-8.635625 154.606491)scale(0.1 -0.1)">
       <use xlink:href="#DejaVuSans-48"/>
       <use x="63.623047" xlink:href="#DejaVuSans-46"/>
       <use x="95.410156" xlink:href="#DejaVuSans-48"/>
       <use x="159.033203" xlink:href="#DejaVuSans-48"/>
       <use x="222.65625" xlink:href="#DejaVuSans-48"/>
       <use x="286.279297" xlink:href="#DejaVuSans-48"/>
       <use x="349.902344" xlink:href="#DejaVuSans-48"/>
       <use x="413.525391" xlink:href="#DejaVuSans-48"/>
      </g>
     </g>
    </g>
    <g id="ytick_2">
     <g id="line2d_15">
      <path clip-path="url(#pe4e4b6fd70)" d="M 46.08 110.815761 
L 437.76 110.815761 
" style="fill:none;stroke:#b0b0b0;stroke-linecap:square;stroke-width:0.8;"/>
     </g>
     <g id="line2d_16">
      <g>
       <use style="stroke:#000000;stroke-width:0.8;" x="46.08" xlink:href="#m1b7e7b6a6f" y="110.815761"/>
      </g>
     </g>
     <g id="text_9">
      <!-- 0.000005 -->
      <defs>
       <path d="M 10.796875 72.90625 
L 49.515625 72.90625 
L 49.515625 64.59375 
L 19.828125 64.59375 
L 19.828125 46.734375 
Q 21.96875 47.46875 24.109375 47.828125 
Q 26.265625 48.1875 28.421875 48.1875 
Q 40.625 48.1875 47.75 41.5 
Q 54.890625 34.8125 54.890625 23.390625 
Q 54.890625 11.625 47.5625 5.09375 
Q 40.234375 -1.421875 26.90625 -1.421875 
Q 22.3125 -1.421875 17.546875 -0.640625 
Q 12.796875 0.140625 7.71875 1.703125 
L 7.71875 11.625 
Q 12.109375 9.234375 16.796875 8.0625 
Q 21.484375 6.890625 26.703125 6.890625 
Q 35.15625 6.890625 40.078125 11.328125 
Q 45.015625 15.765625 45.015625 23.390625 
Q 45.015625 31 40.078125 35.4375 
Q 35.15625 39.890625 26.703125 39.890625 
Q 22.75 39.890625 18.8125 39.015625 
Q 14.890625 38.140625 10.796875 36.28125 
z
" id="DejaVuSans-53"/>
      </defs>
      <g transform="translate(-8.635625 114.61498)scale(0.1 -0.1)">
       <use xlink:href="#DejaVuSans-48"/>
       <use x="63.623047" xlink:href="#DejaVuSans-46"/>
       <use x="95.410156" xlink:href="#DejaVuSans-48"/>
       <use x="159.033203" xlink:href="#DejaVuSans-48"/>
       <use x="222.65625" xlink:href="#DejaVuSans-48"/>
       <use x="286.279297" xlink:href="#DejaVuSans-48"/>
       <use x="349.902344" xlink:href="#DejaVuSans-48"/>
       <use x="413.525391" xlink:href="#DejaVuSans-53"/>
      </g>
     </g>
    </g>
    <g id="ytick_3">
     <g id="line2d_17">
      <path clip-path="url(#pe4e4b6fd70)" d="M 46.08 70.82425 
L 437.76 70.82425 
" style="fill:none;stroke:#b0b0b0;stroke-linecap:square;stroke-width:0.8;"/>
     </g>
     <g id="line2d_18">
      <g>
       <use style="stroke:#000000;stroke-width:0.8;" x="46.08" xlink:href="#m1b7e7b6a6f" y="70.82425"/>
      </g>
     </g>
     <g id="text_10">
      <!-- 0.000010 -->
      <g transform="translate(-8.635625 74.623469)scale(0.1 -0.1)">
       <use xlink:href="#DejaVuSans-48"/>
       <use x="63.623047" xlink:href="#DejaVuSans-46"/>
       <use x="95.410156" xlink:href="#DejaVuSans-48"/>
       <use x="159.033203" xlink:href="#DejaVuSans-48"/>
       <use x="222.65625" xlink:href="#DejaVuSans-48"/>
       <use x="286.279297" xlink:href="#DejaVuSans-48"/>
       <use x="349.902344" xlink:href="#DejaVuSans-49"/>
       <use x="413.525391" xlink:href="#DejaVuSans-48"/>
      </g>
     </g>
    </g>
    <g id="ytick_4">
     <g id="line2d_19">
      <path clip-path="url(#pe4e4b6fd70)" d="M 46.08 30.832739 
L 437.76 30.832739 
" style="fill:none;stroke:#b0b0b0;stroke-linecap:square;stroke-width:0.8;"/>
     </g>
     <g id="line2d_20">
      <g>
       <use style="stroke:#000000;stroke-width:0.8;" x="46.08" xlink:href="#m1b7e7b6a6f" y="30.832739"/>
      </g>
     </g>
     <g id="text_11">
      <!-- 0.000015 -->
      <g transform="translate(-8.635625 34.631958)scale(0.1 -0.1)">
       <use xlink:href="#DejaVuSans-48"/>
       <use x="63.623047" xlink:href="#DejaVuSans-46"/>
       <use x="95.410156" xlink:href="#DejaVuSans-48"/>
       <use x="159.033203" xlink:href="#DejaVuSans-48"/>
       <use x="222.65625" xlink:href="#DejaVuSans-48"/>
       <use x="286.279297" xlink:href="#DejaVuSans-48"/>
       <use x="349.902344" xlink:href="#DejaVuSans-49"/>
       <use x="413.525391" xlink:href="#DejaVuSans-53"/>
      </g>
     </g>
    </g>
    <g id="text_12">
     <!-- Número -->
     <defs>
      <path d="M 9.8125 72.90625 
L 23.09375 72.90625 
L 55.421875 11.921875 
L 55.421875 72.90625 
L 64.984375 72.90625 
L 64.984375 0 
L 51.703125 0 
L 19.390625 60.984375 
L 19.390625 0 
L 9.8125 0 
z
" id="DejaVuSans-78"/>
      <path d="M 8.5 21.578125 
L 8.5 54.6875 
L 17.484375 54.6875 
L 17.484375 21.921875 
Q 17.484375 14.15625 20.5 10.265625 
Q 23.53125 6.390625 29.59375 6.390625 
Q 36.859375 6.390625 41.078125 11.03125 
Q 45.3125 15.671875 45.3125 23.6875 
L 45.3125 54.6875 
L 54.296875 54.6875 
L 54.296875 0 
L 45.3125 0 
L 45.3125 8.40625 
Q 42.046875 3.421875 37.71875 1 
Q 33.40625 -1.421875 27.6875 -1.421875 
Q 18.265625 -1.421875 13.375 4.4375 
Q 8.5 10.296875 8.5 21.578125 
z
M 31.109375 56 
z
M 37.78125 79.984375 
L 47.5 79.984375 
L 31.59375 61.625 
L 24.109375 61.625 
z
" id="DejaVuSans-250"/>
      <path d="M 52 44.1875 
Q 55.375 50.25 60.0625 53.125 
Q 64.75 56 71.09375 56 
Q 79.640625 56 84.28125 50.015625 
Q 88.921875 44.046875 88.921875 33.015625 
L 88.921875 0 
L 79.890625 0 
L 79.890625 32.71875 
Q 79.890625 40.578125 77.09375 44.375 
Q 74.3125 48.1875 68.609375 48.1875 
Q 61.625 48.1875 57.5625 43.546875 
Q 53.515625 38.921875 53.515625 30.90625 
L 53.515625 0 
L 44.484375 0 
L 44.484375 32.71875 
Q 44.484375 40.625 41.703125 44.40625 
Q 38.921875 48.1875 33.109375 48.1875 
Q 26.21875 48.1875 22.15625 43.53125 
Q 18.109375 38.875 18.109375 30.90625 
L 18.109375 0 
L 9.078125 0 
L 9.078125 54.6875 
L 18.109375 54.6875 
L 18.109375 46.1875 
Q 21.1875 51.21875 25.484375 53.609375 
Q 29.78125 56 35.6875 56 
Q 41.65625 56 45.828125 52.96875 
Q 50 49.953125 52 44.1875 
z
" id="DejaVuSans-109"/>
      <path d="M 56.203125 29.59375 
L 56.203125 25.203125 
L 14.890625 25.203125 
Q 15.484375 15.921875 20.484375 11.0625 
Q 25.484375 6.203125 34.421875 6.203125 
Q 39.59375 6.203125 44.453125 7.46875 
Q 49.3125 8.734375 54.109375 11.28125 
L 54.109375 2.78125 
Q 49.265625 0.734375 44.1875 -0.34375 
Q 39.109375 -1.421875 33.890625 -1.421875 
Q 20.796875 -1.421875 13.15625 6.1875 
Q 5.515625 13.8125 5.515625 26.8125 
Q 5.515625 40.234375 12.765625 48.109375 
Q 20.015625 56 32.328125 56 
Q 43.359375 56 49.78125 48.890625 
Q 56.203125 41.796875 56.203125 29.59375 
z
M 47.21875 32.234375 
Q 47.125 39.59375 43.09375 43.984375 
Q 39.0625 48.390625 32.421875 48.390625 
Q 24.90625 48.390625 20.390625 44.140625 
Q 15.875 39.890625 15.1875 32.171875 
z
" id="DejaVuSans-101"/>
     </defs>
     <g transform="translate(-14.715312 112.129531)rotate(-90)scale(0.1 -0.1)">
      <use xlink:href="#DejaVuSans-78"/>
      <use x="74.804688" xlink:href="#DejaVuSans-250"/>
      <use x="138.183594" xlink:href="#DejaVuSans-109"/>
      <use x="235.595703" xlink:href="#DejaVuSans-101"/>
      <use x="297.119141" xlink:href="#DejaVuSans-114"/>
      <use x="338.201172" xlink:href="#DejaVuSans-111"/>
     </g>
    </g>
   </g>
   <g id="line2d_21">
    <path clip-path="url(#pe4e4b6fd70)" d="M 63.883636 150.807273 
L 69.942932 150.807273 
L 70.299361 126.469234 
L 71.368649 129.788057 
L 72.081507 131.539658 
L 72.437936 127.880273 
L 73.507224 130.336737 
L 74.576511 132.317757 
L 74.93294 109.768548 
L 76.002228 113.286153 
L 77.427944 117.134473 
L 78.140803 118.777048 
L 78.497232 116.909281 
L 79.922948 119.856932 
L 80.992236 121.751851 
L 81.348665 122.070901 
L 83.130811 124.683299 
L 84.912957 126.860296 
L 85.269386 121.708035 
L 87.051532 123.912523 
L 88.477248 125.449366 
L 88.833677 124.738654 
L 89.190106 101.659002 
L 90.972252 104.850448 
L 92.04154 106.573829 
L 92.397969 101.723317 
L 92.754398 78.642261 
L 94.536544 82.789675 
L 95.96226 85.77946 
L 96.31869 85.433534 
L 98.457265 89.436008 
L 98.813694 83.538755 
L 100.595839 86.772818 
L 100.952269 82.705534 
L 101.665127 83.978464 
L 102.021556 70.003464 
L 103.090844 72.18735 
L 103.447273 71.094015 
L 104.51656 73.173491 
L 104.872989 72.909106 
L 107.367993 77.342335 
L 108.080852 78.517774 
L 108.437281 75.488957 
L 108.79371 76.082014 
L 109.150139 68.513401 
L 110.219427 70.397993 
L 110.575856 43.328796 
L 110.932285 41.638892 
L 111.288714 42.453582 
L 111.645143 33.512727 
L 113.783718 38.503985 
L 114.140147 34.810989 
L 116.635152 40.260479 
L 119.130156 45.220912 
L 120.555872 47.860571 
L 120.912301 42.117315 
L 123.763735 47.262402 
L 126.615168 51.942396 
L 129.466601 56.217634 
L 132.674464 60.605813 
L 133.030893 61.068385 
L 133.387322 58.313806 
L 135.169468 60.614639 
L 135.525897 55.391525 
L 138.733759 59.461391 
L 141.941622 63.198268 
L 142.298051 61.980656 
L 142.65448 62.380776 
L 143.010909 60.751148 
L 143.723767 61.551647 
L 144.080197 56.171491 
L 144.436626 53.592464 
L 148.000917 57.694354 
L 148.357346 56.455787 
L 149.070205 57.24205 
L 149.426634 54.979393 
L 150.852351 56.54393 
L 151.20878 56.275986 
L 152.634496 57.788486 
L 152.990925 56.58844 
L 154.773071 58.428651 
L 155.1295 53.083259 
L 159.050221 57.094319 
L 159.763079 57.788489 
L 160.119509 55.399669 
L 162.258084 57.46626 
L 162.614513 55.774229 
L 164.753088 57.781969 
L 165.109517 57.735907 
L 169.030238 61.19464 
L 169.386667 61.148123 
L 169.743096 61.448993 
L 170.099525 59.141549 
L 171.525242 60.351657 
L 171.881671 59.700308 
L 176.158821 63.160066 
L 177.940966 64.525288 
L 178.297396 63.428755 
L 180.079541 64.764818 
L 180.435971 62.236611 
L 181.505258 63.039367 
L 181.861687 63.160727 
L 185.06955 65.473979 
L 185.425979 62.276136 
L 186.851695 63.299617 
L 187.208124 63.335196 
L 187.564554 63.586553 
L 187.920983 62.215964 
L 191.841704 64.92292 
L 192.198133 64.343951 
L 193.26742 65.05656 
L 193.623849 65.13817 
L 198.970287 68.519845 
L 199.326716 65.855336 
L 202.891007 68.02802 
L 203.603866 68.336211 
L 207.524586 70.58171 
L 207.881016 70.241269 
L 209.306732 71.029201 
L 209.663161 68.47201 
L 215.009599 71.35671 
L 215.366028 71.543213 
L 215.722457 69.538178 
L 216.791744 70.105171 
L 217.148174 69.752992 
L 218.57389 70.498319 
L 218.930319 70.08238 
L 223.207469 72.244654 
L 223.920328 69.40865 
L 228.553907 71.694141 
L 229.266765 71.936357 
L 229.979623 72.274134 
L 230.336052 69.46119 
L 234.256773 71.329263 
L 234.613202 71.272725 
L 234.969631 70.431756 
L 236.038919 70.929951 
L 236.395348 70.542561 
L 237.108206 70.87219 
L 237.464636 69.658954 
L 238.890352 70.318697 
L 239.246781 70.268439 
L 246.375364 73.408354 
L 250.296085 75.033141 
L 250.652514 72.673835 
L 253.147518 73.701907 
L 253.503948 73.666257 
L 258.137527 75.502948 
L 258.493956 75.113886 
L 259.919672 75.663384 
L 260.276102 75.3819 
L 267.048256 77.891676 
L 267.404685 76.075739 
L 269.18683 76.723326 
L 269.54326 76.370837 
L 270.612547 76.75519 
L 270.968976 75.902512 
L 271.681835 76.159035 
L 272.038264 75.67011 
L 274.176839 76.432924 
L 274.533268 75.266215 
L 276.315414 75.898887 
L 276.671843 75.062138 
L 278.810418 75.814573 
L 279.166847 74.582863 
L 283.087568 75.944013 
L 283.443997 75.889622 
L 284.869713 76.372184 
L 285.226143 76.065485 
L 287.008288 76.661512 
L 287.364717 75.893478 
L 289.503292 76.602442 
L 289.859722 75.714174 
L 291.285438 76.18424 
L 291.641867 69.189594 
L 293.780442 69.947653 
L 294.136871 68.692259 
L 295.562588 69.196806 
L 295.919017 69.140943 
L 298.414021 70.008415 
L 298.77045 69.747465 
L 303.0476 71.194962 
L 303.404029 70.311833 
L 305.899034 71.140462 
L 306.255463 70.884358 
L 311.958329 72.71903 
L 312.314758 72.685146 
L 320.869058 75.282004 
L 321.225487 75.245898 
L 326.215495 76.681256 
L 326.571925 69.22491 
L 327.997641 69.664707 
L 328.35407 69.130284 
L 329.423358 69.458744 
L 329.779787 69.394015 
L 330.849075 69.719668 
L 331.205504 65.099418 
L 331.918362 65.327062 
L 332.274791 64.960313 
L 332.63122 65.074017 
L 332.987649 65.030115 
L 334.056937 65.369155 
L 334.413366 65.008032 
L 335.482654 65.345381 
L 335.839083 65.134612 
L 342.611237 67.147786 
L 342.967666 66.822818 
L 343.680524 67.036519 
L 344.036953 66.952475 
L 346.175528 67.586937 
L 346.531957 66.79595 
L 357.224832 69.854615 
L 357.581261 69.952739 
L 357.93769 69.684696 
L 358.29412 68.84039 
L 360.432695 69.430788 
L 360.789124 68.884593 
L 362.21484 69.275633 
L 362.571269 68.991708 
L 364.353415 69.476397 
L 364.709844 65.951954 
L 365.779132 66.25215 
L 366.135561 62.371998 
L 366.848419 62.579837 
L 367.204848 61.521659 
L 367.917707 61.730759 
L 368.274136 61.642701 
L 372.194857 62.775277 
L 372.551286 62.45832 
L 374.333432 62.964908 
L 374.689861 62.513265 
L 382.531302 64.683621 
L 382.887731 63.30531 
L 388.947027 64.93459 
L 389.303456 61.810987 
L 398.214185 64.18043 
L 398.570614 60.664068 
L 398.927043 60.290276 
L 400.709189 60.768695 
L 401.065618 59.847139 
L 402.491335 60.229726 
L 402.847764 59.66345 
L 414.966355 62.806341 
L 415.322785 62.74597 
L 416.748501 63.101414 
L 417.10493 62.853871 
L 418.530647 63.207098 
L 418.887076 63.135307 
L 419.956364 63.398323 
L 419.956364 63.398323 
" style="fill:none;stroke:#1f77b4;stroke-linecap:square;stroke-width:1.5;"/>
   </g>
   <g id="patch_3">
    <path d="M 46.08 156.672 
L 46.08 27.648 
" style="fill:none;stroke:#000000;stroke-linecap:square;stroke-linejoin:miter;stroke-width:0.8;"/>
   </g>
   <g id="patch_4">
    <path d="M 437.76 156.672 
L 437.76 27.648 
" style="fill:none;stroke:#000000;stroke-linecap:square;stroke-linejoin:miter;stroke-width:0.8;"/>
   </g>
   <g id="patch_5">
    <path d="M 46.08 156.672 
L 437.76 156.672 
" style="fill:none;stroke:#000000;stroke-linecap:square;stroke-linejoin:miter;stroke-width:0.8;"/>
   </g>
   <g id="patch_6">
    <path d="M 46.08 27.648 
L 437.76 27.648 
" style="fill:none;stroke:#000000;stroke-linecap:square;stroke-linejoin:miter;stroke-width:0.8;"/>
   </g>
   <g id="text_13">
    <!-- Número promedio de clientes en cola A -->
    <defs>
     <path id="DejaVuSans-32"/>
     <path d="M 18.109375 8.203125 
L 18.109375 -20.796875 
L 9.078125 -20.796875 
L 9.078125 54.6875 
L 18.109375 54.6875 
L 18.109375 46.390625 
Q 20.953125 51.265625 25.265625 53.625 
Q 29.59375 56 35.59375 56 
Q 45.5625 56 51.78125 48.09375 
Q 58.015625 40.1875 58.015625 27.296875 
Q 58.015625 14.40625 51.78125 6.484375 
Q 45.5625 -1.421875 35.59375 -1.421875 
Q 29.59375 -1.421875 25.265625 0.953125 
Q 20.953125 3.328125 18.109375 8.203125 
z
M 48.6875 27.296875 
Q 48.6875 37.203125 44.609375 42.84375 
Q 40.53125 48.484375 33.40625 48.484375 
Q 26.265625 48.484375 22.1875 42.84375 
Q 18.109375 37.203125 18.109375 27.296875 
Q 18.109375 17.390625 22.1875 11.75 
Q 26.265625 6.109375 33.40625 6.109375 
Q 40.53125 6.109375 44.609375 11.75 
Q 48.6875 17.390625 48.6875 27.296875 
z
" id="DejaVuSans-112"/>
     <path d="M 48.78125 52.59375 
L 48.78125 44.1875 
Q 44.96875 46.296875 41.140625 47.34375 
Q 37.3125 48.390625 33.40625 48.390625 
Q 24.65625 48.390625 19.8125 42.84375 
Q 14.984375 37.3125 14.984375 27.296875 
Q 14.984375 17.28125 19.8125 11.734375 
Q 24.65625 6.203125 33.40625 6.203125 
Q 37.3125 6.203125 41.140625 7.25 
Q 44.96875 8.296875 48.78125 10.40625 
L 48.78125 2.09375 
Q 45.015625 0.34375 40.984375 -0.53125 
Q 36.96875 -1.421875 32.421875 -1.421875 
Q 20.0625 -1.421875 12.78125 6.34375 
Q 5.515625 14.109375 5.515625 27.296875 
Q 5.515625 40.671875 12.859375 48.328125 
Q 20.21875 56 33.015625 56 
Q 37.15625 56 41.109375 55.140625 
Q 45.0625 54.296875 48.78125 52.59375 
z
" id="DejaVuSans-99"/>
     <path d="M 9.421875 75.984375 
L 18.40625 75.984375 
L 18.40625 0 
L 9.421875 0 
z
" id="DejaVuSans-108"/>
     <path d="M 54.890625 33.015625 
L 54.890625 0 
L 45.90625 0 
L 45.90625 32.71875 
Q 45.90625 40.484375 42.875 44.328125 
Q 39.84375 48.1875 33.796875 48.1875 
Q 26.515625 48.1875 22.3125 43.546875 
Q 18.109375 38.921875 18.109375 30.90625 
L 18.109375 0 
L 9.078125 0 
L 9.078125 54.6875 
L 18.109375 54.6875 
L 18.109375 46.1875 
Q 21.34375 51.125 25.703125 53.5625 
Q 30.078125 56 35.796875 56 
Q 45.21875 56 50.046875 50.171875 
Q 54.890625 44.34375 54.890625 33.015625 
z
" id="DejaVuSans-110"/>
     <path d="M 18.3125 70.21875 
L 18.3125 54.6875 
L 36.8125 54.6875 
L 36.8125 47.703125 
L 18.3125 47.703125 
L 18.3125 18.015625 
Q 18.3125 11.328125 20.140625 9.421875 
Q 21.96875 7.515625 27.59375 7.515625 
L 36.8125 7.515625 
L 36.8125 0 
L 27.59375 0 
Q 17.1875 0 13.234375 3.875 
Q 9.28125 7.765625 9.28125 18.015625 
L 9.28125 47.703125 
L 2.6875 47.703125 
L 2.6875 54.6875 
L 9.28125 54.6875 
L 9.28125 70.21875 
z
" id="DejaVuSans-116"/>
     <path d="M 34.1875 63.1875 
L 20.796875 26.90625 
L 47.609375 26.90625 
z
M 28.609375 72.90625 
L 39.796875 72.90625 
L 67.578125 0 
L 57.328125 0 
L 50.6875 18.703125 
L 17.828125 18.703125 
L 11.1875 0 
L 0.78125 0 
z
" id="DejaVuSans-65"/>
    </defs>
    <g transform="translate(123.17625 21.648)scale(0.12 -0.12)">
     <use xlink:href="#DejaVuSans-78"/>
     <use x="74.804688" xlink:href="#DejaVuSans-250"/>
     <use x="138.183594" xlink:href="#DejaVuSans-109"/>
     <use x="235.595703" xlink:href="#DejaVuSans-101"/>
     <use x="297.119141" xlink:href="#DejaVuSans-114"/>
     <use x="338.201172" xlink:href="#DejaVuSans-111"/>
     <use x="399.382812" xlink:href="#DejaVuSans-32"/>
     <use x="431.169922" xlink:href="#DejaVuSans-112"/>
     <use x="494.646484" xlink:href="#DejaVuSans-114"/>
     <use x="535.728516" xlink:href="#DejaVuSans-111"/>
     <use x="596.910156" xlink:href="#DejaVuSans-109"/>
     <use x="694.322266" xlink:href="#DejaVuSans-101"/>
     <use x="755.845703" xlink:href="#DejaVuSans-100"/>
     <use x="819.322266" xlink:href="#DejaVuSans-105"/>
     <use x="847.105469" xlink:href="#DejaVuSans-111"/>
     <use x="908.287109" xlink:href="#DejaVuSans-32"/>
     <use x="940.074219" xlink:href="#DejaVuSans-100"/>
     <use x="1003.550781" xlink:href="#DejaVuSans-101"/>
     <use x="1065.074219" xlink:href="#DejaVuSans-32"/>
     <use x="1096.861328" xlink:href="#DejaVuSans-99"/>
     <use x="1151.841797" xlink:href="#DejaVuSans-108"/>
     <use x="1179.625" xlink:href="#DejaVuSans-105"/>
     <use x="1207.408203" xlink:href="#DejaVuSans-101"/>
     <use x="1268.931641" xlink:href="#DejaVuSans-110"/>
     <use x="1332.310547" xlink:href="#DejaVuSans-116"/>
     <use x="1371.519531" xlink:href="#DejaVuSans-101"/>
     <use x="1433.042969" xlink:href="#DejaVuSans-115"/>
     <use x="1485.142578" xlink:href="#DejaVuSans-32"/>
     <use x="1516.929688" xlink:href="#DejaVuSans-101"/>
     <use x="1578.453125" xlink:href="#DejaVuSans-110"/>
     <use x="1641.832031" xlink:href="#DejaVuSans-32"/>
     <use x="1673.619141" xlink:href="#DejaVuSans-99"/>
     <use x="1728.599609" xlink:href="#DejaVuSans-111"/>
     <use x="1789.78125" xlink:href="#DejaVuSans-108"/>
     <use x="1817.564453" xlink:href="#DejaVuSans-97"/>
     <use x="1878.84375" xlink:href="#DejaVuSans-32"/>
     <use x="1910.630859" xlink:href="#DejaVuSans-65"/>
    </g>
   </g>
  </g>
  <g id="axes_2">
   <g id="patch_7">
    <path d="M 46.08 317.952 
L 212.75234 317.952 
L 212.75234 188.928 
L 46.08 188.928 
z
" style="fill:#ffffff;"/>
   </g>
   <g id="matplotlib.axis_3">
    <g id="xtick_7">
     <g id="line2d_22">
      <path clip-path="url(#pf2fcadee98)" d="M 53.504343 317.952 
L 53.504343 188.928 
" style="fill:none;stroke:#b0b0b0;stroke-linecap:square;stroke-width:0.8;"/>
     </g>
     <g id="line2d_23">
      <g>
       <use style="stroke:#000000;stroke-width:0.8;" x="53.504343" xlink:href="#mc3d08dffd1" y="317.952"/>
      </g>
     </g>
     <g id="text_14">
      <!-- 0 -->
      <g transform="translate(50.323093 332.550437)scale(0.1 -0.1)">
       <use xlink:href="#DejaVuSans-48"/>
      </g>
     </g>
    </g>
    <g id="xtick_8">
     <g id="line2d_24">
      <path clip-path="url(#pf2fcadee98)" d="M 91.422339 317.952 
L 91.422339 188.928 
" style="fill:none;stroke:#b0b0b0;stroke-linecap:square;stroke-width:0.8;"/>
     </g>
     <g id="line2d_25">
      <g>
       <use style="stroke:#000000;stroke-width:0.8;" x="91.422339" xlink:href="#mc3d08dffd1" y="317.952"/>
      </g>
     </g>
     <g id="text_15">
      <!-- 250 -->
      <g transform="translate(81.878589 332.550437)scale(0.1 -0.1)">
       <use xlink:href="#DejaVuSans-50"/>
       <use x="63.623047" xlink:href="#DejaVuSans-53"/>
       <use x="127.246094" xlink:href="#DejaVuSans-48"/>
      </g>
     </g>
    </g>
    <g id="xtick_9">
     <g id="line2d_26">
      <path clip-path="url(#pf2fcadee98)" d="M 129.340334 317.952 
L 129.340334 188.928 
" style="fill:none;stroke:#b0b0b0;stroke-linecap:square;stroke-width:0.8;"/>
     </g>
     <g id="line2d_27">
      <g>
       <use style="stroke:#000000;stroke-width:0.8;" x="129.340334" xlink:href="#mc3d08dffd1" y="317.952"/>
      </g>
     </g>
     <g id="text_16">
      <!-- 500 -->
      <g transform="translate(119.796584 332.550437)scale(0.1 -0.1)">
       <use xlink:href="#DejaVuSans-53"/>
       <use x="63.623047" xlink:href="#DejaVuSans-48"/>
       <use x="127.246094" xlink:href="#DejaVuSans-48"/>
      </g>
     </g>
    </g>
    <g id="xtick_10">
     <g id="line2d_28">
      <path clip-path="url(#pf2fcadee98)" d="M 167.25833 317.952 
L 167.25833 188.928 
" style="fill:none;stroke:#b0b0b0;stroke-linecap:square;stroke-width:0.8;"/>
     </g>
     <g id="line2d_29">
      <g>
       <use style="stroke:#000000;stroke-width:0.8;" x="167.25833" xlink:href="#mc3d08dffd1" y="317.952"/>
      </g>
     </g>
     <g id="text_17">
      <!-- 750 -->
      <defs>
       <path d="M 8.203125 72.90625 
L 55.078125 72.90625 
L 55.078125 68.703125 
L 28.609375 0 
L 18.3125 0 
L 43.21875 64.59375 
L 8.203125 64.59375 
z
" id="DejaVuSans-55"/>
      </defs>
      <g transform="translate(157.71458 332.550437)scale(0.1 -0.1)">
       <use xlink:href="#DejaVuSans-55"/>
       <use x="63.623047" xlink:href="#DejaVuSans-53"/>
       <use x="127.246094" xlink:href="#DejaVuSans-48"/>
      </g>
     </g>
    </g>
    <g id="xtick_11">
     <g id="line2d_30">
      <path clip-path="url(#pf2fcadee98)" d="M 205.176325 317.952 
L 205.176325 188.928 
" style="fill:none;stroke:#b0b0b0;stroke-linecap:square;stroke-width:0.8;"/>
     </g>
     <g id="line2d_31">
      <g>
       <use style="stroke:#000000;stroke-width:0.8;" x="205.176325" xlink:href="#mc3d08dffd1" y="317.952"/>
      </g>
     </g>
     <g id="text_18">
      <!-- 1000 -->
      <g transform="translate(192.451325 332.550437)scale(0.1 -0.1)">
       <use xlink:href="#DejaVuSans-49"/>
       <use x="63.623047" xlink:href="#DejaVuSans-48"/>
       <use x="127.246094" xlink:href="#DejaVuSans-48"/>
       <use x="190.869141" xlink:href="#DejaVuSans-48"/>
      </g>
     </g>
    </g>
    <g id="text_19">
     <!-- Corridas -->
     <g transform="translate(108.523201 346.228563)scale(0.1 -0.1)">
      <use xlink:href="#DejaVuSans-67"/>
      <use x="69.824219" xlink:href="#DejaVuSans-111"/>
      <use x="131.005859" xlink:href="#DejaVuSans-114"/>
      <use x="172.103516" xlink:href="#DejaVuSans-114"/>
      <use x="213.216797" xlink:href="#DejaVuSans-105"/>
      <use x="241" xlink:href="#DejaVuSans-100"/>
      <use x="304.476562" xlink:href="#DejaVuSans-97"/>
      <use x="365.755859" xlink:href="#DejaVuSans-115"/>
     </g>
    </g>
   </g>
   <g id="matplotlib.axis_4">
    <g id="ytick_5">
     <g id="line2d_32">
      <path clip-path="url(#pf2fcadee98)" d="M 46.08 307.371582 
L 212.75234 307.371582 
" style="fill:none;stroke:#b0b0b0;stroke-linecap:square;stroke-width:0.8;"/>
     </g>
     <g id="line2d_33">
      <g>
       <use style="stroke:#000000;stroke-width:0.8;" x="46.08" xlink:href="#m1b7e7b6a6f" y="307.371582"/>
      </g>
     </g>
     <g id="text_20">
      <!-- 0.013 -->
      <defs>
       <path d="M 40.578125 39.3125 
Q 47.65625 37.796875 51.625 33 
Q 55.609375 28.21875 55.609375 21.1875 
Q 55.609375 10.40625 48.1875 4.484375 
Q 40.765625 -1.421875 27.09375 -1.421875 
Q 22.515625 -1.421875 17.65625 -0.515625 
Q 12.796875 0.390625 7.625 2.203125 
L 7.625 11.71875 
Q 11.71875 9.328125 16.59375 8.109375 
Q 21.484375 6.890625 26.8125 6.890625 
Q 36.078125 6.890625 40.9375 10.546875 
Q 45.796875 14.203125 45.796875 21.1875 
Q 45.796875 27.640625 41.28125 31.265625 
Q 36.765625 34.90625 28.71875 34.90625 
L 20.21875 34.90625 
L 20.21875 43.015625 
L 29.109375 43.015625 
Q 36.375 43.015625 40.234375 45.921875 
Q 44.09375 48.828125 44.09375 54.296875 
Q 44.09375 59.90625 40.109375 62.90625 
Q 36.140625 65.921875 28.71875 65.921875 
Q 24.65625 65.921875 20.015625 65.03125 
Q 15.375 64.15625 9.8125 62.3125 
L 9.8125 71.09375 
Q 15.4375 72.65625 20.34375 73.4375 
Q 25.25 74.21875 29.59375 74.21875 
Q 40.828125 74.21875 47.359375 69.109375 
Q 53.90625 64.015625 53.90625 55.328125 
Q 53.90625 49.265625 50.4375 45.09375 
Q 46.96875 40.921875 40.578125 39.3125 
z
" id="DejaVuSans-51"/>
      </defs>
      <g transform="translate(10.451875 311.170801)scale(0.1 -0.1)">
       <use xlink:href="#DejaVuSans-48"/>
       <use x="63.623047" xlink:href="#DejaVuSans-46"/>
       <use x="95.410156" xlink:href="#DejaVuSans-48"/>
       <use x="159.033203" xlink:href="#DejaVuSans-49"/>
       <use x="222.65625" xlink:href="#DejaVuSans-51"/>
      </g>
     </g>
    </g>
    <g id="ytick_6">
     <g id="line2d_34">
      <path clip-path="url(#pf2fcadee98)" d="M 46.08 265.792721 
L 212.75234 265.792721 
" style="fill:none;stroke:#b0b0b0;stroke-linecap:square;stroke-width:0.8;"/>
     </g>
     <g id="line2d_35">
      <g>
       <use style="stroke:#000000;stroke-width:0.8;" x="46.08" xlink:href="#m1b7e7b6a6f" y="265.792721"/>
      </g>
     </g>
     <g id="text_21">
      <!-- 0.014 -->
      <g transform="translate(10.451875 269.591939)scale(0.1 -0.1)">
       <use xlink:href="#DejaVuSans-48"/>
       <use x="63.623047" xlink:href="#DejaVuSans-46"/>
       <use x="95.410156" xlink:href="#DejaVuSans-48"/>
       <use x="159.033203" xlink:href="#DejaVuSans-49"/>
       <use x="222.65625" xlink:href="#DejaVuSans-52"/>
      </g>
     </g>
    </g>
    <g id="ytick_7">
     <g id="line2d_36">
      <path clip-path="url(#pf2fcadee98)" d="M 46.08 224.213859 
L 212.75234 224.213859 
" style="fill:none;stroke:#b0b0b0;stroke-linecap:square;stroke-width:0.8;"/>
     </g>
     <g id="line2d_37">
      <g>
       <use style="stroke:#000000;stroke-width:0.8;" x="46.08" xlink:href="#m1b7e7b6a6f" y="224.213859"/>
      </g>
     </g>
     <g id="text_22">
      <!-- 0.015 -->
      <g transform="translate(10.451875 228.013078)scale(0.1 -0.1)">
       <use xlink:href="#DejaVuSans-48"/>
       <use x="63.623047" xlink:href="#DejaVuSans-46"/>
       <use x="95.410156" xlink:href="#DejaVuSans-48"/>
       <use x="159.033203" xlink:href="#DejaVuSans-49"/>
       <use x="222.65625" xlink:href="#DejaVuSans-53"/>
      </g>
     </g>
    </g>
    <g id="text_23">
     <!-- Número -->
     <g transform="translate(4.372188 273.409531)rotate(-90)scale(0.1 -0.1)">
      <use xlink:href="#DejaVuSans-78"/>
      <use x="74.804688" xlink:href="#DejaVuSans-250"/>
      <use x="138.183594" xlink:href="#DejaVuSans-109"/>
      <use x="235.595703" xlink:href="#DejaVuSans-101"/>
      <use x="297.119141" xlink:href="#DejaVuSans-114"/>
      <use x="338.201172" xlink:href="#DejaVuSans-111"/>
     </g>
    </g>
   </g>
   <g id="line2d_38">
    <path clip-path="url(#pf2fcadee98)" d="M 53.656015 312.087273 
L 53.807687 275.370901 
L 53.959359 275.395239 
L 54.111031 237.877456 
L 54.262703 280.160519 
L 54.414375 265.962682 
L 54.566047 275.635188 
L 54.717719 255.276361 
L 54.869391 279.027448 
L 55.021063 265.740167 
L 55.172735 280.240391 
L 55.324407 277.238567 
L 55.476079 279.904027 
L 55.627751 285.345599 
L 56.234439 258.650957 
L 56.537783 225.802396 
L 56.689455 222.34891 
L 56.841127 213.043959 
L 56.992799 216.296332 
L 57.144471 205.658211 
L 57.296143 211.546006 
L 57.599487 229.417014 
L 57.902831 233.729551 
L 58.054503 236.405813 
L 58.206175 245.136613 
L 58.357847 240.398306 
L 58.509519 239.277908 
L 58.661191 239.098276 
L 58.964535 248.897086 
L 59.267879 241.471314 
L 59.419551 243.256984 
L 59.571223 243.3088 
L 59.874567 237.61695 
L 60.026239 238.429868 
L 60.177911 238.004995 
L 60.329583 238.812767 
L 60.481255 231.724293 
L 60.632927 232.746364 
L 60.936271 224.580524 
L 61.087943 224.774423 
L 61.391287 222.31142 
L 61.542959 223.155091 
L 61.846302 213.327481 
L 61.997974 214.680163 
L 62.149646 206.657648 
L 62.301318 206.879784 
L 62.45299 205.619322 
L 62.604662 207.010981 
L 62.908006 205.965574 
L 63.059678 207.241247 
L 63.514694 213.699721 
L 63.666366 212.425289 
L 63.96971 209.150859 
L 64.121382 209.721153 
L 64.273054 211.622423 
L 64.424726 210.971099 
L 64.576398 210.850514 
L 64.72807 211.252489 
L 64.879742 208.273372 
L 65.031414 208.016101 
L 65.183086 205.973541 
L 65.334758 205.71867 
L 65.48643 203.917241 
L 65.638102 195.656047 
L 65.789774 196.73843 
L 65.941446 195.842953 
L 66.093118 196.572334 
L 66.24479 198.276136 
L 66.396462 194.792727 
L 66.851478 201.333745 
L 67.00315 202.232117 
L 67.154822 200.926689 
L 67.306494 201.629742 
L 67.76151 199.425548 
L 67.913182 203.013919 
L 68.064854 202.289995 
L 68.216526 205.077865 
L 68.368198 204.402836 
L 68.51987 206.975008 
L 68.671542 207.371393 
L 68.823214 206.74966 
L 68.974886 201.874637 
L 69.429902 205.955949 
L 69.581574 206.422452 
L 69.884917 208.529443 
L 70.036589 207.161889 
L 70.339933 207.644938 
L 70.643277 204.03103 
L 70.794949 204.264181 
L 70.946621 204.777272 
L 71.098293 203.281827 
L 71.249965 200.343363 
L 71.401637 200.3812 
L 72.008325 203.574349 
L 72.311669 207.430316 
L 72.463341 208.815959 
L 72.615013 207.917987 
L 73.070029 213.643602 
L 73.221701 213.767078 
L 73.373373 214.274985 
L 73.525045 215.426463 
L 73.980061 210.429258 
L 74.283405 206.943538 
L 74.435077 207.072466 
L 74.586749 206.866909 
L 74.890093 210.834192 
L 75.041765 209.848909 
L 75.345109 210.68683 
L 75.496781 209.688926 
L 75.800125 209.322622 
L 76.103469 207.212549 
L 76.558485 208.954445 
L 76.710157 208.761387 
L 76.861829 207.776421 
L 77.013501 208.043302 
L 77.165173 209.083271 
L 77.316845 208.92316 
L 77.468517 207.472472 
L 77.620189 207.394579 
L 77.771861 206.939153 
L 77.923533 207.845039 
L 78.075204 207.926476 
L 78.378548 207.30506 
L 78.53022 206.197687 
L 78.681892 206.836429 
L 78.985236 205.857849 
L 79.136908 208.144726 
L 79.28858 207.961073 
L 79.440252 207.472019 
L 79.591924 205.882668 
L 80.04694 207.804735 
L 80.350284 204.624857 
L 80.653628 206.742479 
L 80.8053 205.849736 
L 80.956972 205.916245 
L 81.108644 206.365348 
L 81.260316 206.440871 
L 81.411988 205.383523 
L 81.715332 206.93857 
L 82.018676 205.535745 
L 82.32202 208.141801 
L 82.625364 206.744719 
L 82.928708 207.311542 
L 83.08038 207.242374 
L 83.232052 205.762342 
L 83.383724 206.965794 
L 83.535396 206.490829 
L 83.83874 209.044344 
L 83.990412 208.569478 
L 84.293756 209.887112 
L 84.445428 208.470545 
L 84.5971 208.337839 
L 84.748772 206.964978 
L 84.900444 207.491968 
L 85.052116 207.387554 
L 85.203788 208.749654 
L 85.35546 207.495727 
L 85.507132 207.721019 
L 85.658804 207.641862 
L 85.810476 206.495424 
L 85.962148 206.813168 
L 86.11382 207.408588 
L 86.265491 207.295344 
L 86.417163 205.730493 
L 86.568835 205.885963 
L 86.720507 204.64621 
L 87.175523 207.804236 
L 87.327195 207.603744 
L 87.478867 207.062946 
L 87.630539 207.884838 
L 88.085555 206.360987 
L 88.388899 206.042005 
L 88.692243 208.116 
L 88.995587 207.988268 
L 89.147259 207.599638 
L 89.298931 208.425691 
L 89.602275 206.740769 
L 89.753947 207.651525 
L 89.905619 207.127871 
L 90.208963 207.038654 
L 90.512307 208.741425 
L 90.663979 207.994454 
L 90.815651 208.020431 
L 90.967323 206.5526 
L 91.118995 206.461047 
L 91.270667 205.519329 
L 91.422339 205.338679 
L 91.877355 203.472178 
L 92.029027 204.463724 
L 92.180699 204.17932 
L 92.332371 202.7493 
L 92.484043 203.013976 
L 92.635715 203.938253 
L 92.939059 203.077529 
L 93.090731 203.191512 
L 93.545747 204.177191 
L 93.697419 204.171453 
L 93.849091 204.495388 
L 94.152435 203.718997 
L 94.455778 204.036535 
L 94.60745 205.06116 
L 94.759122 205.188808 
L 95.214138 207.240913 
L 95.517482 206.60026 
L 95.669154 205.726449 
L 95.972498 205.630429 
L 96.275842 207.867514 
L 96.427514 207.683678 
L 96.730858 206.123001 
L 96.88253 206.203148 
L 97.034202 206.51504 
L 97.337546 205.029941 
L 97.489218 205.394632 
L 97.64089 205.319485 
L 97.792562 204.649426 
L 97.944234 204.834502 
L 98.550922 207.433644 
L 98.702594 208.023531 
L 99.005938 207.425577 
L 99.460954 204.817503 
L 99.612626 204.853556 
L 99.764298 205.404506 
L 99.91597 205.391336 
L 100.067642 205.854033 
L 100.219314 204.853724 
L 100.522658 204.633961 
L 100.67433 204.50549 
L 100.826002 204.94477 
L 100.977674 204.506854 
L 101.129346 204.925107 
L 101.281018 204.351728 
L 101.43269 204.601798 
L 101.584362 204.47813 
L 101.736034 204.038726 
L 101.887706 204.3078 
L 102.039378 204.289166 
L 102.19105 204.589521 
L 102.342722 204.36978 
L 102.494394 204.702344 
L 102.646065 205.317637 
L 102.797737 204.982358 
L 103.101081 205.736211 
L 103.252753 204.75902 
L 103.707769 204.778531 
L 104.011113 204.671225 
L 104.162785 204.225857 
L 104.314457 204.201562 
L 104.466129 204.706981 
L 104.617801 204.285905 
L 104.769473 204.493635 
L 104.921145 204.967962 
L 105.224489 204.587421 
L 105.527833 205.259142 
L 105.679505 205.358728 
L 105.982849 204.261776 
L 106.134521 204.318874 
L 106.589537 205.506707 
L 106.741209 206.159794 
L 106.892881 206.107388 
L 107.044553 205.808545 
L 107.196225 205.952429 
L 107.347897 205.932479 
L 107.499569 206.198046 
L 107.651241 206.206377 
L 107.954585 205.937861 
L 108.409601 207.819562 
L 108.561273 207.927988 
L 109.319633 207.730258 
L 109.471305 207.827791 
L 109.926321 209.019189 
L 110.077993 208.886423 
L 110.229665 208.871732 
L 110.381337 208.974985 
L 110.684681 208.987834 
L 111.898056 211.336058 
L 112.2014 211.307334 
L 112.353072 211.668934 
L 112.504744 211.581637 
L 112.656416 210.743926 
L 112.95976 210.719688 
L 113.111432 210.811072 
L 113.263104 210.290398 
L 113.414776 210.7248 
L 113.71812 209.949662 
L 113.869792 210.058196 
L 114.173136 209.621909 
L 114.47648 209.901799 
L 114.628152 209.260683 
L 114.779824 209.139623 
L 114.931496 208.82376 
L 115.083168 208.810597 
L 115.23484 208.515745 
L 115.538184 208.922212 
L 115.689856 207.930807 
L 115.841528 207.940874 
L 115.9932 207.540368 
L 116.296544 207.913009 
L 116.448216 207.627504 
L 116.599888 207.761394 
L 116.75156 207.643634 
L 116.903232 207.909597 
L 117.054904 207.794597 
L 117.206576 207.966782 
L 117.358248 207.358601 
L 117.50992 207.701174 
L 117.964936 207.049086 
L 118.26828 207.750745 
L 118.571624 206.833847 
L 118.723296 207.037793 
L 118.874968 206.71818 
L 119.026639 207.191072 
L 119.178311 207.254528 
L 119.329983 207.607722 
L 119.633327 207.731248 
L 119.784999 207.601758 
L 120.088343 206.750959 
L 120.391687 207.405594 
L 120.543359 206.873816 
L 120.846703 207.80811 
L 120.998375 207.543943 
L 121.301719 208.494037 
L 121.605063 209.053121 
L 121.756735 208.755259 
L 122.060079 209.469171 
L 122.211751 209.889988 
L 122.363423 209.794421 
L 122.515095 209.943686 
L 122.666767 209.627568 
L 122.818439 210.080909 
L 122.970111 209.792382 
L 123.121783 208.992395 
L 123.273455 208.928646 
L 123.425127 209.389815 
L 123.880143 207.997999 
L 124.183487 208.494155 
L 124.486831 208.667886 
L 124.790175 209.786237 
L 124.941847 209.657923 
L 125.396863 208.76035 
L 126.003551 209.566538 
L 126.155223 209.608087 
L 126.458567 209.039622 
L 126.761911 208.266419 
L 126.913583 208.060215 
L 127.065255 208.189686 
L 127.671942 207.298604 
L 127.823614 207.531725 
L 128.126958 207.32652 
L 128.27863 206.814441 
L 128.430302 206.745328 
L 128.581974 206.907433 
L 128.885318 206.532681 
L 129.188662 206.8283 
L 129.340334 206.669053 
L 129.492006 206.773688 
L 129.79535 206.013568 
L 129.947022 206.182473 
L 130.250366 206.052251 
L 130.55371 206.039293 
L 130.705382 205.918493 
L 131.008726 206.062468 
L 131.160398 205.722404 
L 131.31207 205.733205 
L 131.615414 206.128742 
L 131.767086 206.710058 
L 132.222102 205.576444 
L 132.373774 205.781309 
L 132.525446 205.400926 
L 132.980462 205.379697 
L 133.132134 205.718395 
L 133.283806 205.733307 
L 133.435478 206.127666 
L 133.58715 205.932891 
L 133.738822 206.167515 
L 134.193838 205.972799 
L 134.34551 205.926132 
L 134.800526 207.353065 
L 135.10387 207.686337 
L 135.255541 207.60957 
L 135.407213 206.921753 
L 135.710557 208.003094 
L 136.013901 208.169755 
L 136.468917 209.081032 
L 136.620589 208.978451 
L 136.923933 208.139881 
L 137.227277 208.657852 
L 137.378949 209.017614 
L 137.530621 208.788419 
L 137.682293 208.856749 
L 137.833965 209.181913 
L 139.047341 209.621254 
L 139.350685 210.234911 
L 139.654029 210.00271 
L 139.805701 210.085976 
L 140.412389 209.140342 
L 141.019077 209.522463 
L 141.170749 209.150612 
L 141.474093 209.498969 
L 141.625765 209.07754 
L 141.777437 209.27048 
L 141.929109 208.87944 
L 142.080781 208.857264 
L 142.232453 209.086164 
L 142.839141 208.578472 
L 143.142485 209.141891 
L 143.294157 208.948801 
L 143.445828 209.261758 
L 143.749172 209.104937 
L 143.900844 208.743729 
L 144.204188 209.65045 
L 144.810876 209.130357 
L 144.962548 209.672939 
L 145.11422 209.543024 
L 145.265892 209.233292 
L 145.417564 209.320711 
L 145.569236 209.115557 
L 145.720908 209.315288 
L 146.024252 209.927633 
L 146.175924 209.818923 
L 146.479268 209.161083 
L 146.934284 209.112023 
L 147.237628 208.543673 
L 147.540972 209.077037 
L 147.844316 209.56696 
L 147.995988 209.61983 
L 148.14766 209.506671 
L 148.299332 209.621326 
L 148.451004 209.530506 
L 148.602676 209.758049 
L 148.754348 209.523748 
L 148.90602 209.5979 
L 149.057692 209.545227 
L 149.512708 210.098516 
L 149.66438 210.222488 
L 150.574412 209.929152 
L 150.726084 210.077602 
L 151.029428 209.756164 
L 151.1811 209.842401 
L 151.332772 209.683991 
L 151.636115 210.360917 
L 151.787787 210.456664 
L 151.939459 210.348865 
L 152.091131 210.626204 
L 152.242803 210.603409 
L 152.697819 209.803629 
L 152.849491 209.620747 
L 153.152835 210.573881 
L 153.304507 209.967535 
L 153.911195 210.503338 
L 154.062867 210.085231 
L 154.366211 210.446486 
L 154.517883 210.524142 
L 154.821227 210.239226 
L 155.124571 210.470978 
L 155.427915 210.73425 
L 155.579587 210.637133 
L 155.731259 210.829691 
L 155.882931 210.513811 
L 156.337947 211.041669 
L 156.489619 210.9343 
L 156.641291 211.342661 
L 156.792963 211.272461 
L 157.096307 212.014569 
L 157.399651 212.42585 
L 157.551323 212.148621 
L 157.702995 212.439676 
L 157.854667 212.48687 
L 158.006339 212.367499 
L 158.158011 212.565989 
L 158.461355 211.935611 
L 158.613027 211.854864 
L 158.764699 212.076972 
L 158.916371 211.875142 
L 159.068043 211.450873 
L 159.219715 211.662049 
L 159.371387 212.153669 
L 159.674731 211.855649 
L 160.129746 211.648839 
L 160.281418 211.404727 
L 160.43309 211.530348 
L 160.888106 211.078253 
L 161.039778 211.266545 
L 161.343122 210.606034 
L 161.494794 210.792704 
L 161.646466 210.504753 
L 162.253154 210.877781 
L 162.404826 211.174636 
L 162.70817 210.850721 
L 162.859842 210.783442 
L 163.011514 211.015721 
L 163.163186 210.77748 
L 163.46653 211.306253 
L 163.618202 211.342364 
L 163.769874 211.049974 
L 164.073218 210.228472 
L 164.22489 210.356525 
L 164.376562 210.174349 
L 164.679906 210.270546 
L 164.831578 209.963347 
L 164.98325 210.197141 
L 165.134922 210.058456 
L 165.589938 210.010027 
L 166.044954 209.918302 
L 166.348298 210.429919 
L 166.49997 210.237495 
L 166.651642 210.23023 
L 166.803314 210.543312 
L 166.954986 210.272488 
L 167.106658 210.484089 
L 167.410002 210.044892 
L 167.713346 210.314673 
L 167.865018 210.235884 
L 168.320033 210.675965 
L 168.623377 211.079239 
L 168.926721 210.738877 
L 169.078393 210.636078 
L 169.533409 210.936744 
L 169.685081 210.886622 
L 169.836753 210.262033 
L 169.988425 210.127301 
L 170.291769 210.139216 
L 170.443441 210.003819 
L 170.746785 210.395161 
L 171.050129 210.041786 
L 171.353473 210.451615 
L 171.505145 210.741199 
L 171.656817 210.702706 
L 172.111833 211.307461 
L 172.566849 211.016207 
L 172.718521 211.172285 
L 172.870193 210.912467 
L 173.173537 211.197889 
L 173.476881 211.151107 
L 173.931897 211.47733 
L 174.083569 211.393641 
L 174.690257 211.876645 
L 174.841929 212.234818 
L 175.145273 212.202664 
L 175.296945 211.99515 
L 175.448617 212.196147 
L 175.600289 212.188891 
L 175.751961 212.293433 
L 176.055305 211.834339 
L 176.206976 211.98161 
L 176.661992 211.914754 
L 177.26868 212.131069 
L 177.572024 211.804058 
L 177.723696 211.626856 
L 178.02704 211.850764 
L 178.178712 211.097054 
L 178.482056 211.354253 
L 178.937072 210.87331 
L 179.240416 211.469863 
L 179.54376 211.260316 
L 179.847104 211.100139 
L 180.30212 211.629787 
L 180.605464 211.310096 
L 180.757136 210.850181 
L 181.06048 211.19084 
L 181.363824 210.78314 
L 181.515496 210.874799 
L 181.667168 210.760448 
L 181.81884 210.232865 
L 181.970512 210.12849 
L 182.122184 210.202455 
L 183.183888 209.279563 
L 183.33556 208.904943 
L 183.942248 209.130588 
L 184.09392 208.923087 
L 184.397263 208.932098 
L 184.548935 208.724579 
L 184.700607 209.065684 
L 185.003951 209.110358 
L 185.307295 208.937363 
L 185.458967 209.202315 
L 185.610639 208.800581 
L 185.762311 208.749251 
L 185.913983 208.889442 
L 186.065655 209.377361 
L 186.217327 209.222359 
L 186.368999 209.274486 
L 186.520671 209.118636 
L 186.975687 209.547629 
L 187.127359 209.41322 
L 187.279031 209.641429 
L 187.430703 209.490689 
L 187.734047 209.669432 
L 187.885719 209.676633 
L 188.189063 209.817848 
L 188.340735 209.729258 
L 188.492407 209.939153 
L 188.795751 209.646019 
L 188.947423 209.739185 
L 189.099095 209.62255 
L 189.250767 209.740476 
L 189.554111 209.703331 
L 189.705783 209.326705 
L 190.160799 209.735135 
L 190.312471 209.73465 
L 190.464143 209.96486 
L 190.767487 210.025225 
L 190.919159 210.232734 
L 191.070831 210.109948 
L 191.374175 209.726768 
L 191.525847 209.593134 
L 191.677519 209.614525 
L 192.435879 208.621804 
L 193.042566 208.773093 
L 193.194238 208.993367 
L 193.497582 208.794476 
L 193.952598 209.204471 
L 194.10427 209.243256 
L 194.255942 208.821375 
L 194.710958 209.448048 
L 194.86263 209.509988 
L 195.165974 209.865314 
L 195.317646 209.853001 
L 195.924334 210.37078 
L 196.076006 210.488841 
L 196.227678 210.46036 
L 196.531022 210.54984 
L 196.986038 211.419932 
L 197.289382 211.719987 
L 197.441054 211.83224 
L 197.744398 211.660145 
L 198.047742 211.570399 
L 198.199414 211.310723 
L 198.351086 211.486832 
L 198.957774 211.450765 
L 199.109446 211.260606 
L 199.261118 211.25593 
L 199.41279 210.984127 
L 199.867806 210.8893 
L 200.019478 211.073674 
L 200.474494 210.84264 
L 200.626166 210.70459 
L 200.777837 210.832642 
L 200.929509 210.622022 
L 201.081181 210.830578 
L 201.232853 210.387422 
L 201.687869 211.136069 
L 201.839541 210.932039 
L 201.991213 210.971654 
L 202.446229 210.699642 
L 202.597901 210.328362 
L 202.749573 210.37246 
L 203.052917 210.594568 
L 203.204589 210.414132 
L 203.356261 210.479174 
L 203.659605 210.23619 
L 203.811277 210.423715 
L 204.114621 210.463179 
L 204.417965 211.107405 
L 204.721309 210.901213 
L 204.872981 210.64972 
L 205.024653 210.949816 
L 205.176325 210.896479 
L 205.176325 210.896479 
" style="fill:none;stroke:#1f77b4;stroke-linecap:square;stroke-width:1.5;"/>
   </g>
   <g id="patch_8">
    <path d="M 46.08 317.952 
L 46.08 188.928 
" style="fill:none;stroke:#000000;stroke-linecap:square;stroke-linejoin:miter;stroke-width:0.8;"/>
   </g>
   <g id="patch_9">
    <path d="M 212.75234 317.952 
L 212.75234 188.928 
" style="fill:none;stroke:#000000;stroke-linecap:square;stroke-linejoin:miter;stroke-width:0.8;"/>
   </g>
   <g id="patch_10">
    <path d="M 46.08 317.952 
L 212.75234 317.952 
" style="fill:none;stroke:#000000;stroke-linecap:square;stroke-linejoin:miter;stroke-width:0.8;"/>
   </g>
   <g id="patch_11">
    <path d="M 46.08 188.928 
L 212.75234 188.928 
" style="fill:none;stroke:#000000;stroke-linecap:square;stroke-linejoin:miter;stroke-width:0.8;"/>
   </g>
   <g id="text_24">
    <!-- Número promedio de clientes en cola C1 -->
    <g transform="translate(6.769608 182.928)scale(0.12 -0.12)">
     <use xlink:href="#DejaVuSans-78"/>
     <use x="74.804688" xlink:href="#DejaVuSans-250"/>
     <use x="138.183594" xlink:href="#DejaVuSans-109"/>
     <use x="235.595703" xlink:href="#DejaVuSans-101"/>
     <use x="297.119141" xlink:href="#DejaVuSans-114"/>
     <use x="338.201172" xlink:href="#DejaVuSans-111"/>
     <use x="399.382812" xlink:href="#DejaVuSans-32"/>
     <use x="431.169922" xlink:href="#DejaVuSans-112"/>
     <use x="494.646484" xlink:href="#DejaVuSans-114"/>
     <use x="535.728516" xlink:href="#DejaVuSans-111"/>
     <use x="596.910156" xlink:href="#DejaVuSans-109"/>
     <use x="694.322266" xlink:href="#DejaVuSans-101"/>
     <use x="755.845703" xlink:href="#DejaVuSans-100"/>
     <use x="819.322266" xlink:href="#DejaVuSans-105"/>
     <use x="847.105469" xlink:href="#DejaVuSans-111"/>
     <use x="908.287109" xlink:href="#DejaVuSans-32"/>
     <use x="940.074219" xlink:href="#DejaVuSans-100"/>
     <use x="1003.550781" xlink:href="#DejaVuSans-101"/>
     <use x="1065.074219" xlink:href="#DejaVuSans-32"/>
     <use x="1096.861328" xlink:href="#DejaVuSans-99"/>
     <use x="1151.841797" xlink:href="#DejaVuSans-108"/>
     <use x="1179.625" xlink:href="#DejaVuSans-105"/>
     <use x="1207.408203" xlink:href="#DejaVuSans-101"/>
     <use x="1268.931641" xlink:href="#DejaVuSans-110"/>
     <use x="1332.310547" xlink:href="#DejaVuSans-116"/>
     <use x="1371.519531" xlink:href="#DejaVuSans-101"/>
     <use x="1433.042969" xlink:href="#DejaVuSans-115"/>
     <use x="1485.142578" xlink:href="#DejaVuSans-32"/>
     <use x="1516.929688" xlink:href="#DejaVuSans-101"/>
     <use x="1578.453125" xlink:href="#DejaVuSans-110"/>
     <use x="1641.832031" xlink:href="#DejaVuSans-32"/>
     <use x="1673.619141" xlink:href="#DejaVuSans-99"/>
     <use x="1728.599609" xlink:href="#DejaVuSans-111"/>
     <use x="1789.78125" xlink:href="#DejaVuSans-108"/>
     <use x="1817.564453" xlink:href="#DejaVuSans-97"/>
     <use x="1878.84375" xlink:href="#DejaVuSans-32"/>
     <use x="1910.630859" xlink:href="#DejaVuSans-67"/>
     <use x="1980.455078" xlink:href="#DejaVuSans-49"/>
    </g>
   </g>
  </g>
  <g id="axes_3">
   <g id="patch_12">
    <path d="M 271.08766 317.952 
L 437.76 317.952 
L 437.76 188.928 
L 271.08766 188.928 
z
" style="fill:#ffffff;"/>
   </g>
   <g id="matplotlib.axis_5">
    <g id="xtick_12">
     <g id="line2d_39">
      <path clip-path="url(#pe583f07227)" d="M 278.512003 317.952 
L 278.512003 188.928 
" style="fill:none;stroke:#b0b0b0;stroke-linecap:square;stroke-width:0.8;"/>
     </g>
     <g id="line2d_40">
      <g>
       <use style="stroke:#000000;stroke-width:0.8;" x="278.512003" xlink:href="#mc3d08dffd1" y="317.952"/>
      </g>
     </g>
     <g id="text_25">
      <!-- 0 -->
      <g transform="translate(275.330753 332.550437)scale(0.1 -0.1)">
       <use xlink:href="#DejaVuSans-48"/>
      </g>
     </g>
    </g>
    <g id="xtick_13">
     <g id="line2d_41">
      <path clip-path="url(#pe583f07227)" d="M 316.429998 317.952 
L 316.429998 188.928 
" style="fill:none;stroke:#b0b0b0;stroke-linecap:square;stroke-width:0.8;"/>
     </g>
     <g id="line2d_42">
      <g>
       <use style="stroke:#000000;stroke-width:0.8;" x="316.429998" xlink:href="#mc3d08dffd1" y="317.952"/>
      </g>
     </g>
     <g id="text_26">
      <!-- 250 -->
      <g transform="translate(306.886248 332.550437)scale(0.1 -0.1)">
       <use xlink:href="#DejaVuSans-50"/>
       <use x="63.623047" xlink:href="#DejaVuSans-53"/>
       <use x="127.246094" xlink:href="#DejaVuSans-48"/>
      </g>
     </g>
    </g>
    <g id="xtick_14">
     <g id="line2d_43">
      <path clip-path="url(#pe583f07227)" d="M 354.347994 317.952 
L 354.347994 188.928 
" style="fill:none;stroke:#b0b0b0;stroke-linecap:square;stroke-width:0.8;"/>
     </g>
     <g id="line2d_44">
      <g>
       <use style="stroke:#000000;stroke-width:0.8;" x="354.347994" xlink:href="#mc3d08dffd1" y="317.952"/>
      </g>
     </g>
     <g id="text_27">
      <!-- 500 -->
      <g transform="translate(344.804244 332.550437)scale(0.1 -0.1)">
       <use xlink:href="#DejaVuSans-53"/>
       <use x="63.623047" xlink:href="#DejaVuSans-48"/>
       <use x="127.246094" xlink:href="#DejaVuSans-48"/>
      </g>
     </g>
    </g>
    <g id="xtick_15">
     <g id="line2d_45">
      <path clip-path="url(#pe583f07227)" d="M 392.265989 317.952 
L 392.265989 188.928 
" style="fill:none;stroke:#b0b0b0;stroke-linecap:square;stroke-width:0.8;"/>
     </g>
     <g id="line2d_46">
      <g>
       <use style="stroke:#000000;stroke-width:0.8;" x="392.265989" xlink:href="#mc3d08dffd1" y="317.952"/>
      </g>
     </g>
     <g id="text_28">
      <!-- 750 -->
      <g transform="translate(382.722239 332.550437)scale(0.1 -0.1)">
       <use xlink:href="#DejaVuSans-55"/>
       <use x="63.623047" xlink:href="#DejaVuSans-53"/>
       <use x="127.246094" xlink:href="#DejaVuSans-48"/>
      </g>
     </g>
    </g>
    <g id="xtick_16">
     <g id="line2d_47">
      <path clip-path="url(#pe583f07227)" d="M 430.183985 317.952 
L 430.183985 188.928 
" style="fill:none;stroke:#b0b0b0;stroke-linecap:square;stroke-width:0.8;"/>
     </g>
     <g id="line2d_48">
      <g>
       <use style="stroke:#000000;stroke-width:0.8;" x="430.183985" xlink:href="#mc3d08dffd1" y="317.952"/>
      </g>
     </g>
     <g id="text_29">
      <!-- 1000 -->
      <g transform="translate(417.458985 332.550437)scale(0.1 -0.1)">
       <use xlink:href="#DejaVuSans-49"/>
       <use x="63.623047" xlink:href="#DejaVuSans-48"/>
       <use x="127.246094" xlink:href="#DejaVuSans-48"/>
       <use x="190.869141" xlink:href="#DejaVuSans-48"/>
      </g>
     </g>
    </g>
    <g id="text_30">
     <!-- Corridas -->
     <g transform="translate(333.530861 346.228563)scale(0.1 -0.1)">
      <use xlink:href="#DejaVuSans-67"/>
      <use x="69.824219" xlink:href="#DejaVuSans-111"/>
      <use x="131.005859" xlink:href="#DejaVuSans-114"/>
      <use x="172.103516" xlink:href="#DejaVuSans-114"/>
      <use x="213.216797" xlink:href="#DejaVuSans-105"/>
      <use x="241" xlink:href="#DejaVuSans-100"/>
      <use x="304.476562" xlink:href="#DejaVuSans-97"/>
      <use x="365.755859" xlink:href="#DejaVuSans-115"/>
     </g>
    </g>
   </g>
   <g id="matplotlib.axis_6">
    <g id="ytick_8">
     <g id="line2d_49">
      <path clip-path="url(#pe583f07227)" d="M 271.08766 315.958627 
L 437.76 315.958627 
" style="fill:none;stroke:#b0b0b0;stroke-linecap:square;stroke-width:0.8;"/>
     </g>
     <g id="line2d_50">
      <g>
       <use style="stroke:#000000;stroke-width:0.8;" x="271.08766" xlink:href="#m1b7e7b6a6f" y="315.958627"/>
      </g>
     </g>
     <g id="text_31">
      <!-- 0.008 -->
      <g transform="translate(235.459535 319.757846)scale(0.1 -0.1)">
       <use xlink:href="#DejaVuSans-48"/>
       <use x="63.623047" xlink:href="#DejaVuSans-46"/>
       <use x="95.410156" xlink:href="#DejaVuSans-48"/>
       <use x="159.033203" xlink:href="#DejaVuSans-48"/>
       <use x="222.65625" xlink:href="#DejaVuSans-56"/>
      </g>
     </g>
    </g>
    <g id="ytick_9">
     <g id="line2d_51">
      <path clip-path="url(#pe583f07227)" d="M 271.08766 293.692679 
L 437.76 293.692679 
" style="fill:none;stroke:#b0b0b0;stroke-linecap:square;stroke-width:0.8;"/>
     </g>
     <g id="line2d_52">
      <g>
       <use style="stroke:#000000;stroke-width:0.8;" x="271.08766" xlink:href="#m1b7e7b6a6f" y="293.692679"/>
      </g>
     </g>
     <g id="text_32">
      <!-- 0.009 -->
      <defs>
       <path d="M 10.984375 1.515625 
L 10.984375 10.5 
Q 14.703125 8.734375 18.5 7.8125 
Q 22.3125 6.890625 25.984375 6.890625 
Q 35.75 6.890625 40.890625 13.453125 
Q 46.046875 20.015625 46.78125 33.40625 
Q 43.953125 29.203125 39.59375 26.953125 
Q 35.25 24.703125 29.984375 24.703125 
Q 19.046875 24.703125 12.671875 31.3125 
Q 6.296875 37.9375 6.296875 49.421875 
Q 6.296875 60.640625 12.9375 67.421875 
Q 19.578125 74.21875 30.609375 74.21875 
Q 43.265625 74.21875 49.921875 64.515625 
Q 56.59375 54.828125 56.59375 36.375 
Q 56.59375 19.140625 48.40625 8.859375 
Q 40.234375 -1.421875 26.421875 -1.421875 
Q 22.703125 -1.421875 18.890625 -0.6875 
Q 15.09375 0.046875 10.984375 1.515625 
z
M 30.609375 32.421875 
Q 37.25 32.421875 41.125 36.953125 
Q 45.015625 41.5 45.015625 49.421875 
Q 45.015625 57.28125 41.125 61.84375 
Q 37.25 66.40625 30.609375 66.40625 
Q 23.96875 66.40625 20.09375 61.84375 
Q 16.21875 57.28125 16.21875 49.421875 
Q 16.21875 41.5 20.09375 36.953125 
Q 23.96875 32.421875 30.609375 32.421875 
z
" id="DejaVuSans-57"/>
      </defs>
      <g transform="translate(235.459535 297.491898)scale(0.1 -0.1)">
       <use xlink:href="#DejaVuSans-48"/>
       <use x="63.623047" xlink:href="#DejaVuSans-46"/>
       <use x="95.410156" xlink:href="#DejaVuSans-48"/>
       <use x="159.033203" xlink:href="#DejaVuSans-48"/>
       <use x="222.65625" xlink:href="#DejaVuSans-57"/>
      </g>
     </g>
    </g>
    <g id="ytick_10">
     <g id="line2d_53">
      <path clip-path="url(#pe583f07227)" d="M 271.08766 271.42673 
L 437.76 271.42673 
" style="fill:none;stroke:#b0b0b0;stroke-linecap:square;stroke-width:0.8;"/>
     </g>
     <g id="line2d_54">
      <g>
       <use style="stroke:#000000;stroke-width:0.8;" x="271.08766" xlink:href="#m1b7e7b6a6f" y="271.42673"/>
      </g>
     </g>
     <g id="text_33">
      <!-- 0.010 -->
      <g transform="translate(235.459535 275.225949)scale(0.1 -0.1)">
       <use xlink:href="#DejaVuSans-48"/>
       <use x="63.623047" xlink:href="#DejaVuSans-46"/>
       <use x="95.410156" xlink:href="#DejaVuSans-48"/>
       <use x="159.033203" xlink:href="#DejaVuSans-49"/>
       <use x="222.65625" xlink:href="#DejaVuSans-48"/>
      </g>
     </g>
    </g>
    <g id="ytick_11">
     <g id="line2d_55">
      <path clip-path="url(#pe583f07227)" d="M 271.08766 249.160782 
L 437.76 249.160782 
" style="fill:none;stroke:#b0b0b0;stroke-linecap:square;stroke-width:0.8;"/>
     </g>
     <g id="line2d_56">
      <g>
       <use style="stroke:#000000;stroke-width:0.8;" x="271.08766" xlink:href="#m1b7e7b6a6f" y="249.160782"/>
      </g>
     </g>
     <g id="text_34">
      <!-- 0.011 -->
      <g transform="translate(235.459535 252.960001)scale(0.1 -0.1)">
       <use xlink:href="#DejaVuSans-48"/>
       <use x="63.623047" xlink:href="#DejaVuSans-46"/>
       <use x="95.410156" xlink:href="#DejaVuSans-48"/>
       <use x="159.033203" xlink:href="#DejaVuSans-49"/>
       <use x="222.65625" xlink:href="#DejaVuSans-49"/>
      </g>
     </g>
    </g>
    <g id="ytick_12">
     <g id="line2d_57">
      <path clip-path="url(#pe583f07227)" d="M 271.08766 226.894834 
L 437.76 226.894834 
" style="fill:none;stroke:#b0b0b0;stroke-linecap:square;stroke-width:0.8;"/>
     </g>
     <g id="line2d_58">
      <g>
       <use style="stroke:#000000;stroke-width:0.8;" x="271.08766" xlink:href="#m1b7e7b6a6f" y="226.894834"/>
      </g>
     </g>
     <g id="text_35">
      <!-- 0.012 -->
      <g transform="translate(235.459535 230.694052)scale(0.1 -0.1)">
       <use xlink:href="#DejaVuSans-48"/>
       <use x="63.623047" xlink:href="#DejaVuSans-46"/>
       <use x="95.410156" xlink:href="#DejaVuSans-48"/>
       <use x="159.033203" xlink:href="#DejaVuSans-49"/>
       <use x="222.65625" xlink:href="#DejaVuSans-50"/>
      </g>
     </g>
    </g>
    <g id="ytick_13">
     <g id="line2d_59">
      <path clip-path="url(#pe583f07227)" d="M 271.08766 204.628885 
L 437.76 204.628885 
" style="fill:none;stroke:#b0b0b0;stroke-linecap:square;stroke-width:0.8;"/>
     </g>
     <g id="line2d_60">
      <g>
       <use style="stroke:#000000;stroke-width:0.8;" x="271.08766" xlink:href="#m1b7e7b6a6f" y="204.628885"/>
      </g>
     </g>
     <g id="text_36">
      <!-- 0.013 -->
      <g transform="translate(235.459535 208.428104)scale(0.1 -0.1)">
       <use xlink:href="#DejaVuSans-48"/>
       <use x="63.623047" xlink:href="#DejaVuSans-46"/>
       <use x="95.410156" xlink:href="#DejaVuSans-48"/>
       <use x="159.033203" xlink:href="#DejaVuSans-49"/>
       <use x="222.65625" xlink:href="#DejaVuSans-51"/>
      </g>
     </g>
    </g>
    <g id="text_37">
     <!-- Número -->
     <g transform="translate(229.379847 273.409531)rotate(-90)scale(0.1 -0.1)">
      <use xlink:href="#DejaVuSans-78"/>
      <use x="74.804688" xlink:href="#DejaVuSans-250"/>
      <use x="138.183594" xlink:href="#DejaVuSans-109"/>
      <use x="235.595703" xlink:href="#DejaVuSans-101"/>
      <use x="297.119141" xlink:href="#DejaVuSans-114"/>
      <use x="338.201172" xlink:href="#DejaVuSans-111"/>
     </g>
    </g>
   </g>
   <g id="line2d_61">
    <path clip-path="url(#pe583f07227)" d="M 278.663675 312.087273 
L 278.967019 290.016319 
L 279.118691 230.231245 
L 279.270363 226.602529 
L 279.422035 238.076878 
L 279.573707 238.002934 
L 279.725379 228.394056 
L 279.877051 228.468108 
L 280.028723 218.461341 
L 280.180395 219.677244 
L 280.332067 226.426548 
L 280.483739 224.880143 
L 280.635411 229.953339 
L 280.787083 228.377501 
L 280.938755 223.428309 
L 281.090427 224.166068 
L 281.393771 218.340941 
L 281.697115 222.264775 
L 281.848787 220.575301 
L 282.152131 213.225021 
L 282.303803 213.511674 
L 282.455475 214.647227 
L 282.758819 207.803284 
L 282.910491 209.074636 
L 283.062163 207.661832 
L 283.213834 207.930911 
L 283.365506 209.326206 
L 283.517178 207.765579 
L 283.66885 208.226113 
L 283.820522 210.676082 
L 284.123866 204.500406 
L 284.275538 204.579929 
L 284.42721 206.844377 
L 284.578882 205.266359 
L 284.730554 204.921563 
L 285.18557 201.614237 
L 285.337242 203.925637 
L 285.488914 202.680346 
L 285.640586 200.057105 
L 285.792258 200.573757 
L 285.94393 200.092123 
L 286.095602 199.999426 
L 286.398946 202.371548 
L 286.70229 200.254713 
L 286.853962 200.402383 
L 287.005634 198.742208 
L 287.157306 199.504126 
L 287.308978 198.604401 
L 287.612322 201.4355 
L 287.763994 201.354297 
L 287.915666 200.07766 
L 288.067338 200.642049 
L 288.21901 200.382376 
L 288.370682 201.761693 
L 288.97737 199.705296 
L 289.129042 201.29293 
L 289.280714 201.004287 
L 289.432386 199.65622 
L 289.584058 199.322511 
L 289.73573 200.507193 
L 289.887402 198.16384 
L 290.039074 199.517411 
L 290.342418 198.67812 
L 290.49409 197.860971 
L 290.645762 195.953961 
L 290.797434 196.974492 
L 290.949106 194.792727 
L 291.100778 195.254409 
L 291.25245 196.807074 
L 291.404121 195.87695 
L 291.859137 198.330016 
L 292.314153 199.361707 
L 292.617497 199.413522 
L 293.072513 201.59837 
L 293.224185 201.165402 
L 293.527529 199.880113 
L 293.830873 200.687816 
L 293.982545 200.113127 
L 294.285889 201.59326 
L 294.437561 201.324162 
L 294.740905 202.335793 
L 294.892577 202.211206 
L 295.044249 202.553734 
L 295.195921 203.745804 
L 295.499265 203.026254 
L 295.650937 203.966132 
L 295.802609 203.463214 
L 295.954281 203.98115 
L 296.409297 203.261015 
L 296.560969 203.1708 
L 296.864313 203.558001 
L 297.015985 202.381204 
L 297.167657 202.933413 
L 297.471001 202.810703 
L 297.622673 202.521483 
L 297.774345 202.765803 
L 297.926017 202.406411 
L 298.077689 203.330075 
L 298.229361 202.959685 
L 298.532705 203.294298 
L 298.836049 202.857385 
L 298.987721 203.043225 
L 299.291065 202.220274 
L 299.442737 202.6429 
L 299.594408 202.640777 
L 299.897752 203.70087 
L 300.049424 203.41731 
L 300.352768 203.970568 
L 300.656112 204.498922 
L 300.959456 204.09885 
L 301.111128 205.017751 
L 301.2628 205.012433 
L 301.414472 205.273194 
L 301.566144 205.14122 
L 301.717816 205.173283 
L 301.869488 204.776432 
L 302.02116 205.060701 
L 302.324504 205.838208 
L 302.476176 204.91142 
L 302.627848 205.302594 
L 302.77952 205.235513 
L 302.931192 205.799183 
L 303.082864 205.0202 
L 303.234536 205.067652 
L 303.53788 204.734262 
L 303.841224 205.506881 
L 303.992896 205.917583 
L 304.447912 205.541071 
L 304.599584 205.55762 
L 304.751256 205.701112 
L 304.902928 206.377574 
L 305.0546 206.204531 
L 305.357944 205.123432 
L 305.509616 204.171661 
L 305.661288 204.824313 
L 305.81296 204.790494 
L 306.419648 205.871163 
L 306.57132 205.760704 
L 306.722992 205.690677 
L 306.874664 205.911913 
L 307.026336 205.3089 
L 307.178008 205.239125 
L 307.32968 205.383889 
L 307.481352 205.266915 
L 307.784695 205.477267 
L 307.936367 205.607663 
L 308.088039 206.059902 
L 308.239711 205.714701 
L 308.391383 205.86021 
L 308.543055 205.52529 
L 308.694727 205.708535 
L 308.846399 206.131944 
L 308.998071 205.740983 
L 309.149743 206.210373 
L 309.301415 206.112421 
L 309.453087 206.654106 
L 309.604759 206.504118 
L 309.756431 206.5298 
L 309.908103 206.425822 
L 310.059775 206.17584 
L 310.211447 206.478578 
L 310.666463 206.335364 
L 310.818135 206.76757 
L 310.969807 206.757743 
L 311.121479 207.007087 
L 311.424823 206.81902 
L 311.576495 207.090267 
L 311.879839 206.245101 
L 312.334855 206.893174 
L 312.486527 206.666364 
L 312.789871 206.718841 
L 312.941543 206.646137 
L 313.093215 206.919126 
L 313.244887 206.591771 
L 313.548231 207.214795 
L 313.699903 207.154004 
L 314.306591 207.803045 
L 314.609935 207.453053 
L 314.913279 206.968084 
L 315.216623 207.03701 
L 315.519967 207.518459 
L 315.974982 207.04865 
L 316.126654 207.097125 
L 316.429998 207.767626 
L 316.58167 207.470708 
L 316.733342 207.620385 
L 316.885014 207.501697 
L 317.036686 207.66219 
L 317.188358 207.576897 
L 317.34003 207.670069 
L 317.491702 207.506934 
L 317.795046 207.630963 
L 318.401734 206.574164 
L 318.553406 206.48627 
L 318.85675 206.578685 
L 319.008422 206.328793 
L 319.160094 206.55193 
L 319.311766 206.347885 
L 319.463438 205.865355 
L 319.918454 206.002022 
L 320.070126 206.434084 
L 320.221798 206.454496 
L 320.828486 205.634532 
L 320.980158 205.431431 
L 321.13183 205.601495 
L 322.041862 204.798883 
L 322.193534 204.988791 
L 322.64855 204.605009 
L 322.800222 204.173326 
L 323.103566 204.755667 
L 323.40691 204.597149 
L 323.861926 204.745868 
L 324.468613 204.515833 
L 324.923629 205.199247 
L 325.226973 204.781115 
L 325.681989 204.185085 
L 325.833661 204.324431 
L 326.137005 203.801122 
L 326.288677 203.946736 
L 326.592021 203.965036 
L 326.895365 204.502737 
L 327.047037 204.398358 
L 327.198709 204.709926 
L 327.350381 204.65158 
L 327.502053 204.461194 
L 327.653725 204.840535 
L 327.805397 204.63749 
L 328.108741 204.938199 
L 328.260413 204.659137 
L 328.412085 205.022833 
L 328.563757 204.985997 
L 328.715429 205.132944 
L 329.018773 204.682441 
L 329.170445 204.865388 
L 329.473789 204.38488 
L 329.625461 204.401885 
L 330.232149 203.950636 
L 330.535493 204.526394 
L 330.838837 203.798297 
L 331.142181 204.306689 
L 331.293853 204.382899 
L 331.445525 204.258753 
L 331.597197 204.424846 
L 331.900541 204.117971 
L 332.203885 203.852452 
L 332.355556 203.966134 
L 332.810572 203.27702 
L 332.962244 203.49602 
L 333.265588 203.566673 
L 333.41726 203.328522 
L 333.568932 203.668676 
L 333.720604 203.36503 
L 333.872276 203.509305 
L 334.023948 203.308193 
L 334.327292 203.199866 
L 334.478964 203.136817 
L 334.630636 203.289664 
L 334.93398 203.045608 
L 336.299028 203.614253 
L 336.4507 203.859812 
L 336.602372 203.712921 
L 336.754044 203.914568 
L 336.905716 203.894549 
L 337.057388 203.619528 
L 337.20906 203.593825 
L 337.512404 203.922959 
L 338.270764 204.208099 
L 338.574108 203.712489 
L 338.72578 203.68439 
L 338.877452 203.484 
L 339.332468 203.782061 
L 339.787484 204.16123 
L 340.090828 204.305679 
L 340.2425 204.191966 
L 340.394172 204.372346 
L 340.849187 204.264997 
L 341.000859 204.076696 
L 341.304203 204.411154 
L 341.455875 204.346173 
L 341.607547 204.665848 
L 342.517579 204.810992 
L 342.820923 204.32533 
L 343.124267 204.001877 
L 343.275939 203.958188 
L 343.579283 204.140615 
L 343.730955 204.072399 
L 344.185971 204.233595 
L 344.489315 203.716766 
L 344.640987 203.876759 
L 344.944331 203.210464 
L 345.247675 203.426719 
L 345.399347 203.388109 
L 345.854363 203.744831 
L 346.157707 203.545982 
L 346.461051 203.857884 
L 346.612723 203.777363 
L 346.916067 203.504589 
L 347.067739 203.659289 
L 347.371083 203.523303 
L 347.522755 203.609331 
L 347.826099 204.041086 
L 348.584459 204.193683 
L 348.887802 204.03573 
L 349.191146 204.205328 
L 349.49449 204.613891 
L 350.101178 204.175102 
L 350.859538 203.840901 
L 351.617898 204.428975 
L 351.921242 203.693759 
L 352.072914 203.66892 
L 352.376258 203.848427 
L 352.52793 203.740282 
L 352.679602 203.441355 
L 352.982946 203.471693 
L 353.437962 202.810775 
L 353.589634 202.8515 
L 353.741306 202.730062 
L 353.892978 202.772973 
L 354.04465 202.430821 
L 354.196322 202.38151 
L 354.499666 202.450609 
L 354.651338 202.400815 
L 354.954682 202.220674 
L 355.56137 202.269742 
L 355.713042 201.894756 
L 356.016386 201.931311 
L 356.31973 201.813121 
L 356.774745 201.615723 
L 356.926417 201.48747 
L 357.684777 201.62704 
L 358.291465 201.290588 
L 358.594809 201.427706 
L 358.898153 201.207567 
L 359.504841 201.73254 
L 361.021561 201.815951 
L 361.628249 202.100667 
L 361.931593 201.7985 
L 362.083265 201.69559 
L 362.386609 201.81457 
L 362.689953 201.629121 
L 363.144969 201.632935 
L 363.599985 201.552609 
L 363.903329 201.659344 
L 364.055001 201.576101 
L 364.206673 201.667273 
L 364.358345 201.557374 
L 364.510017 201.62974 
L 364.813361 201.932609 
L 364.965032 201.795853 
L 365.57172 201.906575 
L 365.875064 201.698851 
L 366.178408 201.957441 
L 366.785096 202.197535 
L 366.936768 202.137386 
L 367.391784 202.385224 
L 367.695128 202.259668 
L 367.8468 202.360366 
L 368.301816 201.976974 
L 369.211848 202.029867 
L 369.36352 201.893797 
L 369.970208 202.008735 
L 370.12188 201.787791 
L 370.273552 201.954891 
L 370.576896 201.614951 
L 370.88024 201.815612 
L 371.031912 201.670242 
L 371.486928 201.869275 
L 371.6386 201.884513 
L 371.790272 202.067651 
L 372.39696 202.075651 
L 372.700304 202.400651 
L 372.851976 202.252635 
L 373.155319 202.345421 
L 373.306991 202.231302 
L 373.458663 202.383154 
L 373.762007 202.348012 
L 374.217023 202.281307 
L 374.368695 202.412031 
L 374.520367 202.272603 
L 375.430399 202.366413 
L 375.582071 202.32364 
L 375.885415 202.478743 
L 376.188759 202.209223 
L 376.492103 202.239118 
L 376.643775 201.959005 
L 376.795447 202.076737 
L 376.947119 202.030457 
L 377.250463 202.104638 
L 377.402135 201.970013 
L 377.553807 202.186808 
L 377.705479 202.050427 
L 378.160495 202.286856 
L 378.463839 202.571096 
L 378.615511 202.409884 
L 378.918855 202.320034 
L 379.070527 202.256741 
L 379.828887 202.614672 
L 380.738919 202.550863 
L 380.890591 202.375417 
L 381.497278 202.755536 
L 381.64895 202.902088 
L 381.800622 202.764804 
L 382.103966 202.918116 
L 382.40731 202.777955 
L 382.710654 202.974686 
L 383.013998 203.023712 
L 383.469014 203.257403 
L 383.620686 203.148696 
L 383.92403 203.328513 
L 384.075702 203.230596 
L 384.834062 203.542192 
L 385.44075 203.476165 
L 386.047438 203.626577 
L 386.350782 203.530328 
L 386.654126 203.149601 
L 386.805798 203.036432 
L 387.260814 203.250675 
L 387.412486 203.291297 
L 387.71583 203.051273 
L 387.867502 203.189648 
L 388.322518 203.001818 
L 388.929206 202.91177 
L 389.080878 202.749698 
L 389.384222 202.809858 
L 389.535893 202.653356 
L 390.142581 202.767915 
L 390.294253 202.577506 
L 390.597597 202.64535 
L 390.749269 202.556536 
L 390.900941 202.729958 
L 391.052613 202.671625 
L 391.355957 202.882392 
L 393.176021 202.927198 
L 393.327693 202.871736 
L 393.479365 203.014899 
L 393.934381 202.797964 
L 394.541069 203.291113 
L 394.844413 203.036282 
L 395.147757 203.239196 
L 395.299429 203.348199 
L 395.451101 203.216749 
L 395.906117 203.47374 
L 396.057789 203.401918 
L 396.512805 203.616325 
L 396.967821 203.457721 
L 397.119493 203.622392 
L 397.877852 203.173674 
L 398.48454 203.330309 
L 399.091228 203.165085 
L 400.00126 203.479403 
L 401.062964 203.366229 
L 401.214636 203.179856 
L 401.366308 203.176178 
L 401.669652 202.904854 
L 401.821324 203.017124 
L 401.972996 202.899838 
L 402.579684 203.048658 
L 402.883028 203.099019 
L 403.0347 203.255177 
L 403.338044 203.008062 
L 403.641388 203.157897 
L 403.944732 203.091123 
L 404.248076 203.247927 
L 404.399748 203.086866 
L 404.703092 203.243515 
L 405.006436 203.39169 
L 405.30978 203.258161 
L 405.613124 203.158828 
L 405.764796 203.126012 
L 406.068139 203.253256 
L 406.219811 203.087333 
L 406.371483 203.140062 
L 406.674827 202.880503 
L 406.978171 202.857796 
L 407.129843 202.984676 
L 407.888203 202.858137 
L 408.494891 202.910176 
L 408.798235 202.990336 
L 409.253251 202.881407 
L 409.556595 202.660078 
L 409.859939 202.763416 
L 410.314955 202.798086 
L 410.769971 202.938337 
L 410.921643 202.88505 
L 411.376659 203.011103 
L 411.680003 202.983425 
L 411.983347 203.081281 
L 412.135019 202.958825 
L 412.438363 202.993832 
L 413.348395 202.872499 
L 413.651739 202.971427 
L 413.803411 202.912597 
L 413.955083 203.03806 
L 414.106754 202.910005 
L 414.713442 203.215555 
L 416.685178 202.984467 
L 417.898554 202.484573 
L 418.201898 202.593861 
L 418.505242 202.627422 
L 419.566946 202.939084 
L 420.021962 203.105119 
L 420.173634 203.116596 
L 420.325306 202.990919 
L 420.780322 203.145368 
L 421.083666 203.142631 
L 423.055401 203.351152 
L 423.207073 203.171589 
L 423.965433 203.088122 
L 424.420449 202.790884 
L 425.482153 202.408695 
L 425.785497 202.459751 
L 425.937169 202.340523 
L 426.088841 202.376758 
L 426.240513 202.258487 
L 426.847201 202.702297 
L 426.998873 202.745841 
L 427.757233 202.384389 
L 428.212249 202.597404 
L 428.515593 202.512418 
L 429.425625 203.084254 
L 429.728969 202.989053 
L 430.183985 203.219807 
L 430.183985 203.219807 
" style="fill:none;stroke:#1f77b4;stroke-linecap:square;stroke-width:1.5;"/>
   </g>
   <g id="patch_13">
    <path d="M 271.08766 317.952 
L 271.08766 188.928 
" style="fill:none;stroke:#000000;stroke-linecap:square;stroke-linejoin:miter;stroke-width:0.8;"/>
   </g>
   <g id="patch_14">
    <path d="M 437.76 317.952 
L 437.76 188.928 
" style="fill:none;stroke:#000000;stroke-linecap:square;stroke-linejoin:miter;stroke-width:0.8;"/>
   </g>
   <g id="patch_15">
    <path d="M 271.08766 317.952 
L 437.76 317.952 
" style="fill:none;stroke:#000000;stroke-linecap:square;stroke-linejoin:miter;stroke-width:0.8;"/>
   </g>
   <g id="patch_16">
    <path d="M 271.08766 188.928 
L 437.76 188.928 
" style="fill:none;stroke:#000000;stroke-linecap:square;stroke-linejoin:miter;stroke-width:0.8;"/>
   </g>
   <g id="text_38">
    <!-- Número promedio de clientes en cola C2 -->
    <g transform="translate(231.777267 182.928)scale(0.12 -0.12)">
     <use xlink:href="#DejaVuSans-78"/>
     <use x="74.804688" xlink:href="#DejaVuSans-250"/>
     <use x="138.183594" xlink:href="#DejaVuSans-109"/>
     <use x="235.595703" xlink:href="#DejaVuSans-101"/>
     <use x="297.119141" xlink:href="#DejaVuSans-114"/>
     <use x="338.201172" xlink:href="#DejaVuSans-111"/>
     <use x="399.382812" xlink:href="#DejaVuSans-32"/>
     <use x="431.169922" xlink:href="#DejaVuSans-112"/>
     <use x="494.646484" xlink:href="#DejaVuSans-114"/>
     <use x="535.728516" xlink:href="#DejaVuSans-111"/>
     <use x="596.910156" xlink:href="#DejaVuSans-109"/>
     <use x="694.322266" xlink:href="#DejaVuSans-101"/>
     <use x="755.845703" xlink:href="#DejaVuSans-100"/>
     <use x="819.322266" xlink:href="#DejaVuSans-105"/>
     <use x="847.105469" xlink:href="#DejaVuSans-111"/>
     <use x="908.287109" xlink:href="#DejaVuSans-32"/>
     <use x="940.074219" xlink:href="#DejaVuSans-100"/>
     <use x="1003.550781" xlink:href="#DejaVuSans-101"/>
     <use x="1065.074219" xlink:href="#DejaVuSans-32"/>
     <use x="1096.861328" xlink:href="#DejaVuSans-99"/>
     <use x="1151.841797" xlink:href="#DejaVuSans-108"/>
     <use x="1179.625" xlink:href="#DejaVuSans-105"/>
     <use x="1207.408203" xlink:href="#DejaVuSans-101"/>
     <use x="1268.931641" xlink:href="#DejaVuSans-110"/>
     <use x="1332.310547" xlink:href="#DejaVuSans-116"/>
     <use x="1371.519531" xlink:href="#DejaVuSans-101"/>
     <use x="1433.042969" xlink:href="#DejaVuSans-115"/>
     <use x="1485.142578" xlink:href="#DejaVuSans-32"/>
     <use x="1516.929688" xlink:href="#DejaVuSans-101"/>
     <use x="1578.453125" xlink:href="#DejaVuSans-110"/>
     <use x="1641.832031" xlink:href="#DejaVuSans-32"/>
     <use x="1673.619141" xlink:href="#DejaVuSans-99"/>
     <use x="1728.599609" xlink:href="#DejaVuSans-111"/>
     <use x="1789.78125" xlink:href="#DejaVuSans-108"/>
     <use x="1817.564453" xlink:href="#DejaVuSans-97"/>
     <use x="1878.84375" xlink:href="#DejaVuSans-32"/>
     <use x="1910.630859" xlink:href="#DejaVuSans-67"/>
     <use x="1980.455078" xlink:href="#DejaVuSans-50"/>
    </g>
   </g>
  </g>
 </g>
 <defs>
  <clipPath id="pe4e4b6fd70">
   <rect height="129.024" width="391.68" x="46.08" y="27.648"/>
  </clipPath>
  <clipPath id="pf2fcadee98">
   <rect height="129.024" width="166.67234" x="46.08" y="188.928"/>
  </clipPath>
  <clipPath id="pe583f07227">
   <rect height="129.024" width="166.67234" x="271.08766" y="188.928"/>
  </clipPath>
 </defs>
</svg>
