<?xml version="1.0" encoding="utf-8" standalone="no"?>
<!DOCTYPE svg PUBLIC "-//W3C//DTD SVG 1.1//EN"
  "http://www.w3.org/Graphics/SVG/1.1/DTD/svg11.dtd">
<!-- Created with matplotlib (https://matplotlib.org/) -->
<svg height="345.6pt" version="1.1" viewBox="0 0 460.8 345.6" width="460.8pt" xmlns="http://www.w3.org/2000/svg" xmlns:xlink="http://www.w3.org/1999/xlink">
 <defs>
  <style type="text/css">
*{stroke-linecap:butt;stroke-linejoin:round;}
  </style>
 </defs>
 <g id="figure_1">
  <g id="patch_1">
   <path d="M 0 345.6 
L 460.8 345.6 
L 460.8 0 
L 0 0 
z
" style="fill:#ffffff;"/>
  </g>
  <g id="axes_1">
   <g id="patch_2">
    <path d="M 46.08 156.672 
L 437.76 156.672 
L 437.76 27.648 
L 46.08 27.648 
z
" style="fill:#ffffff;"/>
   </g>
   <g id="matplotlib.axis_1">
    <g id="xtick_1">
     <g id="line2d_1">
      <path clip-path="url(#p5c8d9a965d)" d="M 63.527207 156.672 
L 63.527207 27.648 
" style="fill:none;stroke:#b0b0b0;stroke-linecap:square;stroke-width:0.8;"/>
     </g>
     <g id="line2d_2">
      <defs>
       <path d="M 0 0 
L 0 3.5 
" id="m28b875e874" style="stroke:#000000;stroke-width:0.8;"/>
      </defs>
      <g>
       <use style="stroke:#000000;stroke-width:0.8;" x="63.527207" xlink:href="#m28b875e874" y="156.672"/>
      </g>
     </g>
     <g id="text_1">
      <!-- 0 -->
      <defs>
       <path d="M 31.78125 66.40625 
Q 24.171875 66.40625 20.328125 58.90625 
Q 16.5 51.421875 16.5 36.375 
Q 16.5 21.390625 20.328125 13.890625 
Q 24.171875 6.390625 31.78125 6.390625 
Q 39.453125 6.390625 43.28125 13.890625 
Q 47.125 21.390625 47.125 36.375 
Q 47.125 51.421875 43.28125 58.90625 
Q 39.453125 66.40625 31.78125 66.40625 
z
M 31.78125 74.21875 
Q 44.046875 74.21875 50.515625 64.515625 
Q 56.984375 54.828125 56.984375 36.375 
Q 56.984375 17.96875 50.515625 8.265625 
Q 44.046875 -1.421875 31.78125 -1.421875 
Q 19.53125 -1.421875 13.0625 8.265625 
Q 6.59375 17.96875 6.59375 36.375 
Q 6.59375 54.828125 13.0625 64.515625 
Q 19.53125 74.21875 31.78125 74.21875 
z
" id="DejaVuSans-48"/>
      </defs>
      <g transform="translate(60.345957 171.270437)scale(0.1 -0.1)">
       <use xlink:href="#DejaVuSans-48"/>
      </g>
     </g>
    </g>
    <g id="xtick_2">
     <g id="line2d_3">
      <path clip-path="url(#p5c8d9a965d)" d="M 134.813038 156.672 
L 134.813038 27.648 
" style="fill:none;stroke:#b0b0b0;stroke-linecap:square;stroke-width:0.8;"/>
     </g>
     <g id="line2d_4">
      <g>
       <use style="stroke:#000000;stroke-width:0.8;" x="134.813038" xlink:href="#m28b875e874" y="156.672"/>
      </g>
     </g>
     <g id="text_2">
      <!-- 200 -->
      <defs>
       <path d="M 19.1875 8.296875 
L 53.609375 8.296875 
L 53.609375 0 
L 7.328125 0 
L 7.328125 8.296875 
Q 12.9375 14.109375 22.625 23.890625 
Q 32.328125 33.6875 34.8125 36.53125 
Q 39.546875 41.84375 41.421875 45.53125 
Q 43.3125 49.21875 43.3125 52.78125 
Q 43.3125 58.59375 39.234375 62.25 
Q 35.15625 65.921875 28.609375 65.921875 
Q 23.96875 65.921875 18.8125 64.3125 
Q 13.671875 62.703125 7.8125 59.421875 
L 7.8125 69.390625 
Q 13.765625 71.78125 18.9375 73 
Q 24.125 74.21875 28.421875 74.21875 
Q 39.75 74.21875 46.484375 68.546875 
Q 53.21875 62.890625 53.21875 53.421875 
Q 53.21875 48.921875 51.53125 44.890625 
Q 49.859375 40.875 45.40625 35.40625 
Q 44.1875 33.984375 37.640625 27.21875 
Q 31.109375 20.453125 19.1875 8.296875 
z
" id="DejaVuSans-50"/>
      </defs>
      <g transform="translate(125.269288 171.270437)scale(0.1 -0.1)">
       <use xlink:href="#DejaVuSans-50"/>
       <use x="63.623047" xlink:href="#DejaVuSans-48"/>
       <use x="127.246094" xlink:href="#DejaVuSans-48"/>
      </g>
     </g>
    </g>
    <g id="xtick_3">
     <g id="line2d_5">
      <path clip-path="url(#p5c8d9a965d)" d="M 206.09887 156.672 
L 206.09887 27.648 
" style="fill:none;stroke:#b0b0b0;stroke-linecap:square;stroke-width:0.8;"/>
     </g>
     <g id="line2d_6">
      <g>
       <use style="stroke:#000000;stroke-width:0.8;" x="206.09887" xlink:href="#m28b875e874" y="156.672"/>
      </g>
     </g>
     <g id="text_3">
      <!-- 400 -->
      <defs>
       <path d="M 37.796875 64.3125 
L 12.890625 25.390625 
L 37.796875 25.390625 
z
M 35.203125 72.90625 
L 47.609375 72.90625 
L 47.609375 25.390625 
L 58.015625 25.390625 
L 58.015625 17.1875 
L 47.609375 17.1875 
L 47.609375 0 
L 37.796875 0 
L 37.796875 17.1875 
L 4.890625 17.1875 
L 4.890625 26.703125 
z
" id="DejaVuSans-52"/>
      </defs>
      <g transform="translate(196.55512 171.270437)scale(0.1 -0.1)">
       <use xlink:href="#DejaVuSans-52"/>
       <use x="63.623047" xlink:href="#DejaVuSans-48"/>
       <use x="127.246094" xlink:href="#DejaVuSans-48"/>
      </g>
     </g>
    </g>
    <g id="xtick_4">
     <g id="line2d_7">
      <path clip-path="url(#p5c8d9a965d)" d="M 277.384701 156.672 
L 277.384701 27.648 
" style="fill:none;stroke:#b0b0b0;stroke-linecap:square;stroke-width:0.8;"/>
     </g>
     <g id="line2d_8">
      <g>
       <use style="stroke:#000000;stroke-width:0.8;" x="277.384701" xlink:href="#m28b875e874" y="156.672"/>
      </g>
     </g>
     <g id="text_4">
      <!-- 600 -->
      <defs>
       <path d="M 33.015625 40.375 
Q 26.375 40.375 22.484375 35.828125 
Q 18.609375 31.296875 18.609375 23.390625 
Q 18.609375 15.53125 22.484375 10.953125 
Q 26.375 6.390625 33.015625 6.390625 
Q 39.65625 6.390625 43.53125 10.953125 
Q 47.40625 15.53125 47.40625 23.390625 
Q 47.40625 31.296875 43.53125 35.828125 
Q 39.65625 40.375 33.015625 40.375 
z
M 52.59375 71.296875 
L 52.59375 62.3125 
Q 48.875 64.0625 45.09375 64.984375 
Q 41.3125 65.921875 37.59375 65.921875 
Q 27.828125 65.921875 22.671875 59.328125 
Q 17.53125 52.734375 16.796875 39.40625 
Q 19.671875 43.65625 24.015625 45.921875 
Q 28.375 48.1875 33.59375 48.1875 
Q 44.578125 48.1875 50.953125 41.515625 
Q 57.328125 34.859375 57.328125 23.390625 
Q 57.328125 12.15625 50.6875 5.359375 
Q 44.046875 -1.421875 33.015625 -1.421875 
Q 20.359375 -1.421875 13.671875 8.265625 
Q 6.984375 17.96875 6.984375 36.375 
Q 6.984375 53.65625 15.1875 63.9375 
Q 23.390625 74.21875 37.203125 74.21875 
Q 40.921875 74.21875 44.703125 73.484375 
Q 48.484375 72.75 52.59375 71.296875 
z
" id="DejaVuSans-54"/>
      </defs>
      <g transform="translate(267.840951 171.270437)scale(0.1 -0.1)">
       <use xlink:href="#DejaVuSans-54"/>
       <use x="63.623047" xlink:href="#DejaVuSans-48"/>
       <use x="127.246094" xlink:href="#DejaVuSans-48"/>
      </g>
     </g>
    </g>
    <g id="xtick_5">
     <g id="line2d_9">
      <path clip-path="url(#p5c8d9a965d)" d="M 348.670532 156.672 
L 348.670532 27.648 
" style="fill:none;stroke:#b0b0b0;stroke-linecap:square;stroke-width:0.8;"/>
     </g>
     <g id="line2d_10">
      <g>
       <use style="stroke:#000000;stroke-width:0.8;" x="348.670532" xlink:href="#m28b875e874" y="156.672"/>
      </g>
     </g>
     <g id="text_5">
      <!-- 800 -->
      <defs>
       <path d="M 31.78125 34.625 
Q 24.75 34.625 20.71875 30.859375 
Q 16.703125 27.09375 16.703125 20.515625 
Q 16.703125 13.921875 20.71875 10.15625 
Q 24.75 6.390625 31.78125 6.390625 
Q 38.8125 6.390625 42.859375 10.171875 
Q 46.921875 13.96875 46.921875 20.515625 
Q 46.921875 27.09375 42.890625 30.859375 
Q 38.875 34.625 31.78125 34.625 
z
M 21.921875 38.8125 
Q 15.578125 40.375 12.03125 44.71875 
Q 8.5 49.078125 8.5 55.328125 
Q 8.5 64.0625 14.71875 69.140625 
Q 20.953125 74.21875 31.78125 74.21875 
Q 42.671875 74.21875 48.875 69.140625 
Q 55.078125 64.0625 55.078125 55.328125 
Q 55.078125 49.078125 51.53125 44.71875 
Q 48 40.375 41.703125 38.8125 
Q 48.828125 37.15625 52.796875 32.3125 
Q 56.78125 27.484375 56.78125 20.515625 
Q 56.78125 9.90625 50.3125 4.234375 
Q 43.84375 -1.421875 31.78125 -1.421875 
Q 19.734375 -1.421875 13.25 4.234375 
Q 6.78125 9.90625 6.78125 20.515625 
Q 6.78125 27.484375 10.78125 32.3125 
Q 14.796875 37.15625 21.921875 38.8125 
z
M 18.3125 54.390625 
Q 18.3125 48.734375 21.84375 45.5625 
Q 25.390625 42.390625 31.78125 42.390625 
Q 38.140625 42.390625 41.71875 45.5625 
Q 45.3125 48.734375 45.3125 54.390625 
Q 45.3125 60.0625 41.71875 63.234375 
Q 38.140625 66.40625 31.78125 66.40625 
Q 25.390625 66.40625 21.84375 63.234375 
Q 18.3125 60.0625 18.3125 54.390625 
z
" id="DejaVuSans-56"/>
      </defs>
      <g transform="translate(339.126782 171.270437)scale(0.1 -0.1)">
       <use xlink:href="#DejaVuSans-56"/>
       <use x="63.623047" xlink:href="#DejaVuSans-48"/>
       <use x="127.246094" xlink:href="#DejaVuSans-48"/>
      </g>
     </g>
    </g>
    <g id="xtick_6">
     <g id="line2d_11">
      <path clip-path="url(#p5c8d9a965d)" d="M 419.956364 156.672 
L 419.956364 27.648 
" style="fill:none;stroke:#b0b0b0;stroke-linecap:square;stroke-width:0.8;"/>
     </g>
     <g id="line2d_12">
      <g>
       <use style="stroke:#000000;stroke-width:0.8;" x="419.956364" xlink:href="#m28b875e874" y="156.672"/>
      </g>
     </g>
     <g id="text_6">
      <!-- 1000 -->
      <defs>
       <path d="M 12.40625 8.296875 
L 28.515625 8.296875 
L 28.515625 63.921875 
L 10.984375 60.40625 
L 10.984375 69.390625 
L 28.421875 72.90625 
L 38.28125 72.90625 
L 38.28125 8.296875 
L 54.390625 8.296875 
L 54.390625 0 
L 12.40625 0 
z
" id="DejaVuSans-49"/>
      </defs>
      <g transform="translate(407.231364 171.270437)scale(0.1 -0.1)">
       <use xlink:href="#DejaVuSans-49"/>
       <use x="63.623047" xlink:href="#DejaVuSans-48"/>
       <use x="127.246094" xlink:href="#DejaVuSans-48"/>
       <use x="190.869141" xlink:href="#DejaVuSans-48"/>
      </g>
     </g>
    </g>
    <g id="text_7">
     <!-- Corridas -->
     <defs>
      <path d="M 64.40625 67.28125 
L 64.40625 56.890625 
Q 59.421875 61.53125 53.78125 63.8125 
Q 48.140625 66.109375 41.796875 66.109375 
Q 29.296875 66.109375 22.65625 58.46875 
Q 16.015625 50.828125 16.015625 36.375 
Q 16.015625 21.96875 22.65625 14.328125 
Q 29.296875 6.6875 41.796875 6.6875 
Q 48.140625 6.6875 53.78125 8.984375 
Q 59.421875 11.28125 64.40625 15.921875 
L 64.40625 5.609375 
Q 59.234375 2.09375 53.4375 0.328125 
Q 47.65625 -1.421875 41.21875 -1.421875 
Q 24.65625 -1.421875 15.125 8.703125 
Q 5.609375 18.84375 5.609375 36.375 
Q 5.609375 53.953125 15.125 64.078125 
Q 24.65625 74.21875 41.21875 74.21875 
Q 47.75 74.21875 53.53125 72.484375 
Q 59.328125 70.75 64.40625 67.28125 
z
" id="DejaVuSans-67"/>
      <path d="M 30.609375 48.390625 
Q 23.390625 48.390625 19.1875 42.75 
Q 14.984375 37.109375 14.984375 27.296875 
Q 14.984375 17.484375 19.15625 11.84375 
Q 23.34375 6.203125 30.609375 6.203125 
Q 37.796875 6.203125 41.984375 11.859375 
Q 46.1875 17.53125 46.1875 27.296875 
Q 46.1875 37.015625 41.984375 42.703125 
Q 37.796875 48.390625 30.609375 48.390625 
z
M 30.609375 56 
Q 42.328125 56 49.015625 48.375 
Q 55.71875 40.765625 55.71875 27.296875 
Q 55.71875 13.875 49.015625 6.21875 
Q 42.328125 -1.421875 30.609375 -1.421875 
Q 18.84375 -1.421875 12.171875 6.21875 
Q 5.515625 13.875 5.515625 27.296875 
Q 5.515625 40.765625 12.171875 48.375 
Q 18.84375 56 30.609375 56 
z
" id="DejaVuSans-111"/>
      <path d="M 41.109375 46.296875 
Q 39.59375 47.171875 37.8125 47.578125 
Q 36.03125 48 33.890625 48 
Q 26.265625 48 22.1875 43.046875 
Q 18.109375 38.09375 18.109375 28.8125 
L 18.109375 0 
L 9.078125 0 
L 9.078125 54.6875 
L 18.109375 54.6875 
L 18.109375 46.1875 
Q 20.953125 51.171875 25.484375 53.578125 
Q 30.03125 56 36.53125 56 
Q 37.453125 56 38.578125 55.875 
Q 39.703125 55.765625 41.0625 55.515625 
z
" id="DejaVuSans-114"/>
      <path d="M 9.421875 54.6875 
L 18.40625 54.6875 
L 18.40625 0 
L 9.421875 0 
z
M 9.421875 75.984375 
L 18.40625 75.984375 
L 18.40625 64.59375 
L 9.421875 64.59375 
z
" id="DejaVuSans-105"/>
      <path d="M 45.40625 46.390625 
L 45.40625 75.984375 
L 54.390625 75.984375 
L 54.390625 0 
L 45.40625 0 
L 45.40625 8.203125 
Q 42.578125 3.328125 38.25 0.953125 
Q 33.9375 -1.421875 27.875 -1.421875 
Q 17.96875 -1.421875 11.734375 6.484375 
Q 5.515625 14.40625 5.515625 27.296875 
Q 5.515625 40.1875 11.734375 48.09375 
Q 17.96875 56 27.875 56 
Q 33.9375 56 38.25 53.625 
Q 42.578125 51.265625 45.40625 46.390625 
z
M 14.796875 27.296875 
Q 14.796875 17.390625 18.875 11.75 
Q 22.953125 6.109375 30.078125 6.109375 
Q 37.203125 6.109375 41.296875 11.75 
Q 45.40625 17.390625 45.40625 27.296875 
Q 45.40625 37.203125 41.296875 42.84375 
Q 37.203125 48.484375 30.078125 48.484375 
Q 22.953125 48.484375 18.875 42.84375 
Q 14.796875 37.203125 14.796875 27.296875 
z
" id="DejaVuSans-100"/>
      <path d="M 34.28125 27.484375 
Q 23.390625 27.484375 19.1875 25 
Q 14.984375 22.515625 14.984375 16.5 
Q 14.984375 11.71875 18.140625 8.90625 
Q 21.296875 6.109375 26.703125 6.109375 
Q 34.1875 6.109375 38.703125 11.40625 
Q 43.21875 16.703125 43.21875 25.484375 
L 43.21875 27.484375 
z
M 52.203125 31.203125 
L 52.203125 0 
L 43.21875 0 
L 43.21875 8.296875 
Q 40.140625 3.328125 35.546875 0.953125 
Q 30.953125 -1.421875 24.3125 -1.421875 
Q 15.921875 -1.421875 10.953125 3.296875 
Q 6 8.015625 6 15.921875 
Q 6 25.140625 12.171875 29.828125 
Q 18.359375 34.515625 30.609375 34.515625 
L 43.21875 34.515625 
L 43.21875 35.40625 
Q 43.21875 41.609375 39.140625 45 
Q 35.0625 48.390625 27.6875 48.390625 
Q 23 48.390625 18.546875 47.265625 
Q 14.109375 46.140625 10.015625 43.890625 
L 10.015625 52.203125 
Q 14.9375 54.109375 19.578125 55.046875 
Q 24.21875 56 28.609375 56 
Q 40.484375 56 46.34375 49.84375 
Q 52.203125 43.703125 52.203125 31.203125 
z
" id="DejaVuSans-97"/>
      <path d="M 44.28125 53.078125 
L 44.28125 44.578125 
Q 40.484375 46.53125 36.375 47.5 
Q 32.28125 48.484375 27.875 48.484375 
Q 21.1875 48.484375 17.84375 46.4375 
Q 14.5 44.390625 14.5 40.28125 
Q 14.5 37.15625 16.890625 35.375 
Q 19.28125 33.59375 26.515625 31.984375 
L 29.59375 31.296875 
Q 39.15625 29.25 43.1875 25.515625 
Q 47.21875 21.78125 47.21875 15.09375 
Q 47.21875 7.46875 41.1875 3.015625 
Q 35.15625 -1.421875 24.609375 -1.421875 
Q 20.21875 -1.421875 15.453125 -0.5625 
Q 10.6875 0.296875 5.421875 2 
L 5.421875 11.28125 
Q 10.40625 8.6875 15.234375 7.390625 
Q 20.0625 6.109375 24.8125 6.109375 
Q 31.15625 6.109375 34.5625 8.28125 
Q 37.984375 10.453125 37.984375 14.40625 
Q 37.984375 18.0625 35.515625 20.015625 
Q 33.0625 21.96875 24.703125 23.78125 
L 21.578125 24.515625 
Q 13.234375 26.265625 9.515625 29.90625 
Q 5.8125 33.546875 5.8125 39.890625 
Q 5.8125 47.609375 11.28125 51.796875 
Q 16.75 56 26.8125 56 
Q 31.78125 56 36.171875 55.265625 
Q 40.578125 54.546875 44.28125 53.078125 
z
" id="DejaVuSans-115"/>
     </defs>
     <g transform="translate(221.027031 184.948562)scale(0.1 -0.1)">
      <use xlink:href="#DejaVuSans-67"/>
      <use x="69.824219" xlink:href="#DejaVuSans-111"/>
      <use x="131.005859" xlink:href="#DejaVuSans-114"/>
      <use x="172.103516" xlink:href="#DejaVuSans-114"/>
      <use x="213.216797" xlink:href="#DejaVuSans-105"/>
      <use x="241" xlink:href="#DejaVuSans-100"/>
      <use x="304.476562" xlink:href="#DejaVuSans-97"/>
      <use x="365.755859" xlink:href="#DejaVuSans-115"/>
     </g>
    </g>
   </g>
   <g id="matplotlib.axis_2">
    <g id="ytick_1">
     <g id="line2d_13">
      <path clip-path="url(#p5c8d9a965d)" d="M 46.08 152.781601 
L 437.76 152.781601 
" style="fill:none;stroke:#b0b0b0;stroke-linecap:square;stroke-width:0.8;"/>
     </g>
     <g id="line2d_14">
      <defs>
       <path d="M 0 0 
L -3.5 0 
" id="m6e3227df57" style="stroke:#000000;stroke-width:0.8;"/>
      </defs>
      <g>
       <use style="stroke:#000000;stroke-width:0.8;" x="46.08" xlink:href="#m6e3227df57" y="152.781601"/>
      </g>
     </g>
     <g id="text_8">
      <!-- 0.247 -->
      <defs>
       <path d="M 10.6875 12.40625 
L 21 12.40625 
L 21 0 
L 10.6875 0 
z
" id="DejaVuSans-46"/>
       <path d="M 8.203125 72.90625 
L 55.078125 72.90625 
L 55.078125 68.703125 
L 28.609375 0 
L 18.3125 0 
L 43.21875 64.59375 
L 8.203125 64.59375 
z
" id="DejaVuSans-55"/>
      </defs>
      <g transform="translate(10.451875 156.58082)scale(0.1 -0.1)">
       <use xlink:href="#DejaVuSans-48"/>
       <use x="63.623047" xlink:href="#DejaVuSans-46"/>
       <use x="95.410156" xlink:href="#DejaVuSans-50"/>
       <use x="159.033203" xlink:href="#DejaVuSans-52"/>
       <use x="222.65625" xlink:href="#DejaVuSans-55"/>
      </g>
     </g>
    </g>
    <g id="ytick_2">
     <g id="line2d_15">
      <path clip-path="url(#p5c8d9a965d)" d="M 46.08 129.975554 
L 437.76 129.975554 
" style="fill:none;stroke:#b0b0b0;stroke-linecap:square;stroke-width:0.8;"/>
     </g>
     <g id="line2d_16">
      <g>
       <use style="stroke:#000000;stroke-width:0.8;" x="46.08" xlink:href="#m6e3227df57" y="129.975554"/>
      </g>
     </g>
     <g id="text_9">
      <!-- 0.248 -->
      <g transform="translate(10.451875 133.774773)scale(0.1 -0.1)">
       <use xlink:href="#DejaVuSans-48"/>
       <use x="63.623047" xlink:href="#DejaVuSans-46"/>
       <use x="95.410156" xlink:href="#DejaVuSans-50"/>
       <use x="159.033203" xlink:href="#DejaVuSans-52"/>
       <use x="222.65625" xlink:href="#DejaVuSans-56"/>
      </g>
     </g>
    </g>
    <g id="ytick_3">
     <g id="line2d_17">
      <path clip-path="url(#p5c8d9a965d)" d="M 46.08 107.169507 
L 437.76 107.169507 
" style="fill:none;stroke:#b0b0b0;stroke-linecap:square;stroke-width:0.8;"/>
     </g>
     <g id="line2d_18">
      <g>
       <use style="stroke:#000000;stroke-width:0.8;" x="46.08" xlink:href="#m6e3227df57" y="107.169507"/>
      </g>
     </g>
     <g id="text_10">
      <!-- 0.249 -->
      <defs>
       <path d="M 10.984375 1.515625 
L 10.984375 10.5 
Q 14.703125 8.734375 18.5 7.8125 
Q 22.3125 6.890625 25.984375 6.890625 
Q 35.75 6.890625 40.890625 13.453125 
Q 46.046875 20.015625 46.78125 33.40625 
Q 43.953125 29.203125 39.59375 26.953125 
Q 35.25 24.703125 29.984375 24.703125 
Q 19.046875 24.703125 12.671875 31.3125 
Q 6.296875 37.9375 6.296875 49.421875 
Q 6.296875 60.640625 12.9375 67.421875 
Q 19.578125 74.21875 30.609375 74.21875 
Q 43.265625 74.21875 49.921875 64.515625 
Q 56.59375 54.828125 56.59375 36.375 
Q 56.59375 19.140625 48.40625 8.859375 
Q 40.234375 -1.421875 26.421875 -1.421875 
Q 22.703125 -1.421875 18.890625 -0.6875 
Q 15.09375 0.046875 10.984375 1.515625 
z
M 30.609375 32.421875 
Q 37.25 32.421875 41.125 36.953125 
Q 45.015625 41.5 45.015625 49.421875 
Q 45.015625 57.28125 41.125 61.84375 
Q 37.25 66.40625 30.609375 66.40625 
Q 23.96875 66.40625 20.09375 61.84375 
Q 16.21875 57.28125 16.21875 49.421875 
Q 16.21875 41.5 20.09375 36.953125 
Q 23.96875 32.421875 30.609375 32.421875 
z
" id="DejaVuSans-57"/>
      </defs>
      <g transform="translate(10.451875 110.968726)scale(0.1 -0.1)">
       <use xlink:href="#DejaVuSans-48"/>
       <use x="63.623047" xlink:href="#DejaVuSans-46"/>
       <use x="95.410156" xlink:href="#DejaVuSans-50"/>
       <use x="159.033203" xlink:href="#DejaVuSans-52"/>
       <use x="222.65625" xlink:href="#DejaVuSans-57"/>
      </g>
     </g>
    </g>
    <g id="ytick_4">
     <g id="line2d_19">
      <path clip-path="url(#p5c8d9a965d)" d="M 46.08 84.363461 
L 437.76 84.363461 
" style="fill:none;stroke:#b0b0b0;stroke-linecap:square;stroke-width:0.8;"/>
     </g>
     <g id="line2d_20">
      <g>
       <use style="stroke:#000000;stroke-width:0.8;" x="46.08" xlink:href="#m6e3227df57" y="84.363461"/>
      </g>
     </g>
     <g id="text_11">
      <!-- 0.250 -->
      <defs>
       <path d="M 10.796875 72.90625 
L 49.515625 72.90625 
L 49.515625 64.59375 
L 19.828125 64.59375 
L 19.828125 46.734375 
Q 21.96875 47.46875 24.109375 47.828125 
Q 26.265625 48.1875 28.421875 48.1875 
Q 40.625 48.1875 47.75 41.5 
Q 54.890625 34.8125 54.890625 23.390625 
Q 54.890625 11.625 47.5625 5.09375 
Q 40.234375 -1.421875 26.90625 -1.421875 
Q 22.3125 -1.421875 17.546875 -0.640625 
Q 12.796875 0.140625 7.71875 1.703125 
L 7.71875 11.625 
Q 12.109375 9.234375 16.796875 8.0625 
Q 21.484375 6.890625 26.703125 6.890625 
Q 35.15625 6.890625 40.078125 11.328125 
Q 45.015625 15.765625 45.015625 23.390625 
Q 45.015625 31 40.078125 35.4375 
Q 35.15625 39.890625 26.703125 39.890625 
Q 22.75 39.890625 18.8125 39.015625 
Q 14.890625 38.140625 10.796875 36.28125 
z
" id="DejaVuSans-53"/>
      </defs>
      <g transform="translate(10.451875 88.162679)scale(0.1 -0.1)">
       <use xlink:href="#DejaVuSans-48"/>
       <use x="63.623047" xlink:href="#DejaVuSans-46"/>
       <use x="95.410156" xlink:href="#DejaVuSans-50"/>
       <use x="159.033203" xlink:href="#DejaVuSans-53"/>
       <use x="222.65625" xlink:href="#DejaVuSans-48"/>
      </g>
     </g>
    </g>
    <g id="ytick_5">
     <g id="line2d_21">
      <path clip-path="url(#p5c8d9a965d)" d="M 46.08 61.557414 
L 437.76 61.557414 
" style="fill:none;stroke:#b0b0b0;stroke-linecap:square;stroke-width:0.8;"/>
     </g>
     <g id="line2d_22">
      <g>
       <use style="stroke:#000000;stroke-width:0.8;" x="46.08" xlink:href="#m6e3227df57" y="61.557414"/>
      </g>
     </g>
     <g id="text_12">
      <!-- 0.251 -->
      <g transform="translate(10.451875 65.356633)scale(0.1 -0.1)">
       <use xlink:href="#DejaVuSans-48"/>
       <use x="63.623047" xlink:href="#DejaVuSans-46"/>
       <use x="95.410156" xlink:href="#DejaVuSans-50"/>
       <use x="159.033203" xlink:href="#DejaVuSans-53"/>
       <use x="222.65625" xlink:href="#DejaVuSans-49"/>
      </g>
     </g>
    </g>
    <g id="ytick_6">
     <g id="line2d_23">
      <path clip-path="url(#p5c8d9a965d)" d="M 46.08 38.751367 
L 437.76 38.751367 
" style="fill:none;stroke:#b0b0b0;stroke-linecap:square;stroke-width:0.8;"/>
     </g>
     <g id="line2d_24">
      <g>
       <use style="stroke:#000000;stroke-width:0.8;" x="46.08" xlink:href="#m6e3227df57" y="38.751367"/>
      </g>
     </g>
     <g id="text_13">
      <!-- 0.252 -->
      <g transform="translate(10.451875 42.550586)scale(0.1 -0.1)">
       <use xlink:href="#DejaVuSans-48"/>
       <use x="63.623047" xlink:href="#DejaVuSans-46"/>
       <use x="95.410156" xlink:href="#DejaVuSans-50"/>
       <use x="159.033203" xlink:href="#DejaVuSans-53"/>
       <use x="222.65625" xlink:href="#DejaVuSans-50"/>
      </g>
     </g>
    </g>
    <g id="text_14">
     <!-- Utilización -->
     <defs>
      <path d="M 8.6875 72.90625 
L 18.609375 72.90625 
L 18.609375 28.609375 
Q 18.609375 16.890625 22.84375 11.734375 
Q 27.09375 6.59375 36.625 6.59375 
Q 46.09375 6.59375 50.34375 11.734375 
Q 54.59375 16.890625 54.59375 28.609375 
L 54.59375 72.90625 
L 64.5 72.90625 
L 64.5 27.390625 
Q 64.5 13.140625 57.4375 5.859375 
Q 50.390625 -1.421875 36.625 -1.421875 
Q 22.796875 -1.421875 15.734375 5.859375 
Q 8.6875 13.140625 8.6875 27.390625 
z
" id="DejaVuSans-85"/>
      <path d="M 18.3125 70.21875 
L 18.3125 54.6875 
L 36.8125 54.6875 
L 36.8125 47.703125 
L 18.3125 47.703125 
L 18.3125 18.015625 
Q 18.3125 11.328125 20.140625 9.421875 
Q 21.96875 7.515625 27.59375 7.515625 
L 36.8125 7.515625 
L 36.8125 0 
L 27.59375 0 
Q 17.1875 0 13.234375 3.875 
Q 9.28125 7.765625 9.28125 18.015625 
L 9.28125 47.703125 
L 2.6875 47.703125 
L 2.6875 54.6875 
L 9.28125 54.6875 
L 9.28125 70.21875 
z
" id="DejaVuSans-116"/>
      <path d="M 9.421875 75.984375 
L 18.40625 75.984375 
L 18.40625 0 
L 9.421875 0 
z
" id="DejaVuSans-108"/>
      <path d="M 5.515625 54.6875 
L 48.1875 54.6875 
L 48.1875 46.484375 
L 14.40625 7.171875 
L 48.1875 7.171875 
L 48.1875 0 
L 4.296875 0 
L 4.296875 8.203125 
L 38.09375 47.515625 
L 5.515625 47.515625 
z
" id="DejaVuSans-122"/>
      <path d="M 48.78125 52.59375 
L 48.78125 44.1875 
Q 44.96875 46.296875 41.140625 47.34375 
Q 37.3125 48.390625 33.40625 48.390625 
Q 24.65625 48.390625 19.8125 42.84375 
Q 14.984375 37.3125 14.984375 27.296875 
Q 14.984375 17.28125 19.8125 11.734375 
Q 24.65625 6.203125 33.40625 6.203125 
Q 37.3125 6.203125 41.140625 7.25 
Q 44.96875 8.296875 48.78125 10.40625 
L 48.78125 2.09375 
Q 45.015625 0.34375 40.984375 -0.53125 
Q 36.96875 -1.421875 32.421875 -1.421875 
Q 20.0625 -1.421875 12.78125 6.34375 
Q 5.515625 14.109375 5.515625 27.296875 
Q 5.515625 40.671875 12.859375 48.328125 
Q 20.21875 56 33.015625 56 
Q 37.15625 56 41.109375 55.140625 
Q 45.0625 54.296875 48.78125 52.59375 
z
" id="DejaVuSans-99"/>
      <path d="M 30.609375 48.390625 
Q 23.390625 48.390625 19.1875 42.75 
Q 14.984375 37.109375 14.984375 27.296875 
Q 14.984375 17.484375 19.15625 11.84375 
Q 23.34375 6.203125 30.609375 6.203125 
Q 37.796875 6.203125 41.984375 11.859375 
Q 46.1875 17.53125 46.1875 27.296875 
Q 46.1875 37.015625 41.984375 42.703125 
Q 37.796875 48.390625 30.609375 48.390625 
z
M 30.609375 56 
Q 42.328125 56 49.015625 48.375 
Q 55.71875 40.765625 55.71875 27.296875 
Q 55.71875 13.875 49.015625 6.21875 
Q 42.328125 -1.421875 30.609375 -1.421875 
Q 18.84375 -1.421875 12.171875 6.21875 
Q 5.515625 13.875 5.515625 27.296875 
Q 5.515625 40.765625 12.171875 48.375 
Q 18.84375 56 30.609375 56 
z
M 37.40625 79.984375 
L 47.125 79.984375 
L 31.21875 61.625 
L 23.734375 61.625 
z
" id="DejaVuSans-243"/>
      <path d="M 54.890625 33.015625 
L 54.890625 0 
L 45.90625 0 
L 45.90625 32.71875 
Q 45.90625 40.484375 42.875 44.328125 
Q 39.84375 48.1875 33.796875 48.1875 
Q 26.515625 48.1875 22.3125 43.546875 
Q 18.109375 38.921875 18.109375 30.90625 
L 18.109375 0 
L 9.078125 0 
L 9.078125 54.6875 
L 18.109375 54.6875 
L 18.109375 46.1875 
Q 21.34375 51.125 25.703125 53.5625 
Q 30.078125 56 35.796875 56 
Q 45.21875 56 50.046875 50.171875 
Q 54.890625 44.34375 54.890625 33.015625 
z
" id="DejaVuSans-110"/>
     </defs>
     <g transform="translate(4.372188 118.001406)rotate(-90)scale(0.1 -0.1)">
      <use xlink:href="#DejaVuSans-85"/>
      <use x="73.193359" xlink:href="#DejaVuSans-116"/>
      <use x="112.402344" xlink:href="#DejaVuSans-105"/>
      <use x="140.185547" xlink:href="#DejaVuSans-108"/>
      <use x="167.96875" xlink:href="#DejaVuSans-105"/>
      <use x="195.751953" xlink:href="#DejaVuSans-122"/>
      <use x="248.242188" xlink:href="#DejaVuSans-97"/>
      <use x="309.521484" xlink:href="#DejaVuSans-99"/>
      <use x="364.501953" xlink:href="#DejaVuSans-105"/>
      <use x="392.285156" xlink:href="#DejaVuSans-243"/>
      <use x="453.466797" xlink:href="#DejaVuSans-110"/>
     </g>
    </g>
   </g>
   <g id="line2d_25">
    <path clip-path="url(#p5c8d9a965d)" d="M 63.883636 34.703266 
L 64.596495 150.807273 
L 64.952924 80.154783 
L 65.309353 33.512727 
L 65.665782 95.597934 
L 66.022211 117.745962 
L 66.37864 85.777974 
L 66.73507 70.981752 
L 67.091499 90.904089 
L 67.447928 84.343967 
L 67.804357 103.902719 
L 68.517215 75.636493 
L 68.873645 85.184259 
L 69.230074 63.556765 
L 69.586503 66.132691 
L 69.942932 83.803027 
L 70.299361 70.600007 
L 70.65579 81.828846 
L 71.012219 106.907097 
L 71.368649 93.985325 
L 71.725078 101.504406 
L 72.081507 85.211039 
L 72.437936 92.600962 
L 72.794365 104.446159 
L 73.150794 106.839399 
L 73.507224 98.561294 
L 73.863653 101.659326 
L 74.220082 96.682914 
L 74.576511 110.02446 
L 74.93294 95.157582 
L 75.289369 86.662881 
L 75.645799 91.717739 
L 76.715086 114.881098 
L 77.071515 111.219751 
L 77.784373 105.901921 
L 78.140803 103.156539 
L 78.497232 108.319713 
L 78.853661 109.170203 
L 79.21009 104.097302 
L 79.566519 104.502255 
L 79.922948 100.226888 
L 80.279378 103.79447 
L 80.635807 99.510193 
L 80.992236 97.950156 
L 81.348665 100.104728 
L 81.705094 99.84766 
L 82.061523 86.861466 
L 82.417952 83.679217 
L 83.130811 67.395771 
L 83.48724 60.473742 
L 83.843669 58.649059 
L 84.200098 60.944097 
L 84.556527 60.113392 
L 84.912957 63.739121 
L 85.269386 63.59485 
L 85.625815 66.207935 
L 85.982244 69.750331 
L 86.695102 82.361634 
L 87.051532 82.363333 
L 87.407961 81.904765 
L 87.76439 82.307156 
L 88.120819 83.405891 
L 88.477248 78.850784 
L 88.833677 80.31542 
L 89.190106 76.631506 
L 89.546536 78.316331 
L 89.902965 83.543217 
L 90.259394 81.175474 
L 90.615823 77.509877 
L 90.972252 71.002685 
L 91.328681 71.51115 
L 91.685111 62.933551 
L 92.04154 57.350886 
L 92.397969 58.900401 
L 92.754398 54.939119 
L 93.110827 49.231452 
L 93.467256 55.733535 
L 93.823686 54.805887 
L 94.180115 63.446037 
L 94.892973 74.087822 
L 95.249402 73.961067 
L 95.96226 80.218681 
L 96.675119 76.672703 
L 97.031548 79.271307 
L 97.387977 85.974496 
L 97.744406 83.077317 
L 98.100835 88.846877 
L 98.457265 83.251687 
L 98.813694 85.749062 
L 99.170123 86.184138 
L 99.526552 89.076767 
L 99.882981 83.719437 
L 100.23941 84.458062 
L 100.595839 89.683814 
L 100.952269 88.336148 
L 101.308698 87.819741 
L 101.665127 91.846896 
L 102.021556 89.864241 
L 102.734414 81.883005 
L 103.090844 80.646903 
L 103.447273 77.933708 
L 104.160131 80.567077 
L 104.51656 80.349337 
L 105.229419 74.388993 
L 105.585848 71.882971 
L 105.942277 71.685763 
L 106.298706 74.557727 
L 106.655135 79.13586 
L 107.011564 78.382873 
L 107.724423 84.600184 
L 108.080852 86.977728 
L 108.437281 86.700111 
L 108.79371 89.808106 
L 109.150139 96.0987 
L 109.506568 98.399954 
L 109.862998 97.361899 
L 110.219427 97.208366 
L 110.575856 99.135095 
L 110.932285 97.361411 
L 111.288714 98.235686 
L 111.645143 93.779467 
L 112.001572 87.805358 
L 112.358002 86.191495 
L 112.714431 86.965832 
L 113.07086 88.268252 
L 113.427289 91.045554 
L 113.783718 92.844063 
L 114.140147 90.09275 
L 114.496577 90.549361 
L 114.853006 89.90057 
L 115.209435 90.727557 
L 115.565864 89.485411 
L 115.922293 90.802151 
L 116.278722 89.960824 
L 116.635152 90.742854 
L 116.991581 92.899266 
L 117.34801 91.822079 
L 117.704439 93.170789 
L 118.060868 89.555568 
L 118.417297 89.740677 
L 119.130156 93.018528 
L 119.486585 90.448768 
L 119.843014 86.99757 
L 120.199443 84.67454 
L 120.555872 83.657784 
L 120.912301 84.5821 
L 121.268731 84.94678 
L 121.62516 84.895438 
L 121.981589 88.824333 
L 122.338018 89.04783 
L 122.694447 89.819976 
L 123.050876 90.154788 
L 123.407305 88.857139 
L 123.763735 91.828616 
L 124.120164 92.452645 
L 124.476593 92.725681 
L 124.833022 89.985029 
L 125.54588 93.058814 
L 125.90231 96.438039 
L 126.258739 93.876677 
L 126.971597 91.827023 
L 127.328026 93.404868 
L 127.684455 90.787202 
L 128.040885 90.231764 
L 128.397314 91.75202 
L 128.753743 91.921396 
L 129.110172 89.710067 
L 129.466601 88.519054 
L 129.82303 87.836473 
L 130.179459 88.048626 
L 130.535889 87.661705 
L 130.892318 90.410612 
L 131.248747 90.251701 
L 131.605176 87.332967 
L 131.961605 88.323985 
L 132.674464 84.80368 
L 133.030893 85.481373 
L 133.387322 84.411629 
L 133.743751 84.38392 
L 134.10018 84.241196 
L 134.456609 86.339924 
L 134.813038 89.20948 
L 135.169468 88.553438 
L 135.525897 92.065673 
L 135.882326 92.360752 
L 136.238755 90.728308 
L 136.595184 91.258559 
L 137.308043 90.669701 
L 137.664472 90.122806 
L 138.020901 92.148818 
L 138.37733 91.728384 
L 138.733759 92.105171 
L 139.090188 89.812781 
L 139.803047 93.656528 
L 140.159476 94.840635 
L 140.515905 92.790614 
L 140.872334 91.929084 
L 141.228763 90.194851 
L 141.585192 86.749942 
L 141.941622 86.416068 
L 142.298051 85.653628 
L 142.65448 87.188383 
L 143.010909 86.301164 
L 143.367338 86.632384 
L 143.723767 85.901145 
L 144.436626 81.850256 
L 144.793055 81.402189 
L 145.149484 80.69001 
L 145.505913 79.639498 
L 145.862342 79.782491 
L 146.218771 79.73498 
L 146.575201 78.975671 
L 146.93163 81.259851 
L 147.288059 79.83845 
L 147.644488 80.013473 
L 148.000917 78.787969 
L 148.357346 78.171307 
L 148.713776 78.574083 
L 149.070205 78.135917 
L 149.426634 78.951822 
L 149.783063 78.707827 
L 150.139492 80.045936 
L 150.495921 79.445859 
L 150.852351 78.074298 
L 151.20878 75.070438 
L 151.565209 73.966221 
L 151.921638 75.358655 
L 152.278067 74.141501 
L 152.990925 75.371627 
L 153.347355 74.793138 
L 153.703784 74.596813 
L 154.060213 76.882944 
L 154.416642 77.193101 
L 154.773071 76.444983 
L 155.48593 79.314625 
L 156.198788 78.608977 
L 156.555217 78.583085 
L 156.911646 77.653683 
L 157.268075 77.845876 
L 157.624505 77.738751 
L 157.980934 78.768071 
L 158.337363 78.050924 
L 158.693792 76.978938 
L 159.050221 75.365297 
L 159.40665 74.576578 
L 160.119509 75.564241 
L 160.475938 76.033709 
L 160.832367 76.121633 
L 161.188796 77.039547 
L 161.545225 76.323702 
L 161.901654 73.907059 
L 162.258084 72.258217 
L 162.614513 72.941499 
L 162.970942 72.299385 
L 164.040229 73.041154 
L 164.396658 72.252655 
L 165.109517 72.243293 
L 165.822375 74.907306 
L 166.178804 73.939224 
L 166.535233 74.377665 
L 166.891663 73.035604 
L 167.248092 73.500159 
L 167.604521 71.254869 
L 167.96095 71.459495 
L 168.317379 72.357552 
L 168.673808 75.26445 
L 169.030238 74.841143 
L 169.386667 74.05549 
L 169.743096 76.882986 
L 170.099525 76.731477 
L 170.455954 76.233245 
L 170.812383 75.271063 
L 171.168812 75.414883 
L 171.525242 74.86655 
L 171.881671 75.904326 
L 172.2381 76.202083 
L 172.594529 76.034296 
L 172.950958 76.676563 
L 173.307387 75.733988 
L 173.663817 76.109284 
L 174.020246 76.299901 
L 174.376675 76.763991 
L 174.733104 77.494569 
L 175.089533 75.535745 
L 175.445962 76.172864 
L 175.802391 75.567935 
L 176.158821 77.914986 
L 176.51525 78.680539 
L 176.871679 78.550968 
L 177.584537 80.280288 
L 177.940966 79.217219 
L 178.653825 78.180819 
L 179.010254 79.443997 
L 179.366683 79.95633 
L 179.723112 79.997875 
L 180.079541 79.120066 
L 180.435971 79.093585 
L 180.7924 79.518544 
L 181.148829 79.74768 
L 181.505258 80.880725 
L 181.861687 80.000134 
L 182.218116 79.786694 
L 182.574545 80.482105 
L 183.287404 80.404578 
L 183.643833 78.942129 
L 184.000262 78.916883 
L 184.356691 79.656004 
L 184.71312 79.777977 
L 185.06955 79.23033 
L 185.425979 79.138352 
L 185.782408 78.7077 
L 186.138837 78.979357 
L 186.851695 77.30832 
L 187.208124 76.867044 
L 187.564554 76.852176 
L 187.920983 77.13138 
L 188.277412 78.187641 
L 188.633841 78.350352 
L 189.703129 73.769523 
L 190.059558 74.294845 
L 190.415987 74.298188 
L 190.772416 75.044808 
L 191.128845 73.703309 
L 191.485274 74.177284 
L 191.841704 73.510947 
L 192.198133 74.125945 
L 192.554562 74.029349 
L 192.910991 75.405794 
L 193.26742 74.648747 
L 193.980278 76.3851 
L 194.336708 75.544572 
L 194.693137 76.236592 
L 195.049566 75.901887 
L 195.405995 75.019086 
L 195.762424 76.004869 
L 196.118853 76.464272 
L 196.475283 76.158067 
L 196.831712 76.346347 
L 197.54457 77.69937 
L 197.900999 77.418269 
L 198.257428 76.821054 
L 198.970287 77.22929 
L 200.039574 79.644037 
L 200.396003 80.060452 
L 200.752432 80.982314 
L 201.108862 80.995132 
L 201.465291 80.19827 
L 201.82172 80.272362 
L 202.178149 81.064292 
L 202.534578 80.466233 
L 202.891007 79.511231 
L 203.247437 79.777108 
L 203.603866 79.292241 
L 203.960295 79.465125 
L 204.316724 79.027334 
L 204.673153 78.985423 
L 205.029582 79.091141 
L 205.386011 78.873923 
L 205.742441 78.2566 
L 206.09887 78.207694 
L 206.455299 78.347888 
L 206.811728 77.597017 
L 207.168157 77.269956 
L 207.524586 77.755779 
L 207.881016 77.674097 
L 208.237445 77.392988 
L 208.593874 77.660265 
L 209.306732 79.424381 
L 209.663161 77.952827 
L 210.01959 77.905315 
L 210.37602 78.421143 
L 210.732449 78.36056 
L 211.088878 78.478452 
L 211.445307 77.458108 
L 211.801736 77.915862 
L 212.158165 78.042983 
L 212.514595 77.049758 
L 212.871024 76.835323 
L 213.227453 77.287301 
L 213.583882 76.426739 
L 214.65317 77.969116 
L 215.009599 79.305847 
L 215.366028 79.381338 
L 215.722457 80.057293 
L 216.435315 79.830409 
L 216.791744 79.932875 
L 218.217461 77.491207 
L 218.57389 77.211812 
L 218.930319 76.570366 
L 219.286749 76.419119 
L 219.643178 76.961579 
L 219.999607 76.755832 
L 220.356036 76.325915 
L 220.712465 76.335911 
L 221.425324 74.830107 
L 221.781753 75.31591 
L 222.138182 74.46089 
L 222.494611 75.408207 
L 222.85104 74.814965 
L 223.563898 75.478541 
L 223.920328 74.718257 
L 224.276757 75.29151 
L 224.633186 76.647101 
L 224.989615 76.18827 
L 225.702473 76.884833 
L 226.058903 76.764331 
L 226.415332 76.90928 
L 226.771761 77.490747 
L 227.12819 76.237603 
L 227.484619 76.039119 
L 227.841048 77.065144 
L 228.197477 77.264978 
L 228.910336 76.118274 
L 229.266765 77.573709 
L 229.623194 77.629161 
L 229.979623 77.502166 
L 230.336052 77.772443 
L 230.692482 78.635672 
L 231.40534 79.430839 
L 231.761769 78.145566 
L 232.474627 78.206221 
L 232.831057 79.689335 
L 233.187486 79.727542 
L 233.543915 79.019301 
L 233.900344 79.181179 
L 234.256773 77.865578 
L 234.613202 77.648307 
L 234.969631 77.594694 
L 235.326061 76.036461 
L 235.68249 75.34382 
L 236.038919 75.348789 
L 236.395348 76.143208 
L 236.751777 75.307863 
L 237.108206 74.962815 
L 237.464636 75.177014 
L 237.821065 75.710893 
L 238.177494 76.740371 
L 238.533923 76.621837 
L 238.890352 76.846737 
L 239.60321 75.030301 
L 240.672498 73.862509 
L 241.028927 73.074433 
L 241.385356 73.317673 
L 242.454644 72.785413 
L 242.811073 71.235543 
L 243.167502 71.485876 
L 243.523931 70.711118 
L 244.23679 71.68148 
L 244.593219 70.987697 
L 244.949648 71.12624 
L 245.306077 70.345613 
L 246.018935 71.160352 
L 246.375364 71.248513 
L 246.731794 71.4589 
L 247.088223 71.202052 
L 247.444652 71.967573 
L 247.801081 71.984794 
L 248.15751 71.788501 
L 248.870369 72.416555 
L 249.226798 71.845468 
L 249.939656 71.586712 
L 250.296085 71.496701 
L 250.652514 70.987941 
L 251.008943 69.702033 
L 251.365373 69.989459 
L 252.078231 71.062997 
L 252.43466 70.99673 
L 252.791089 70.048032 
L 253.147518 70.697128 
L 253.503948 70.909375 
L 253.860377 71.348546 
L 254.216806 70.874933 
L 254.573235 71.24109 
L 254.929664 72.478803 
L 255.286093 72.453826 
L 255.998952 71.107286 
L 256.355381 72.03309 
L 256.71181 71.916638 
L 257.424668 70.97726 
L 257.781097 71.147596 
L 258.493956 70.827549 
L 258.850385 69.666881 
L 259.206814 69.152969 
L 259.563243 67.799456 
L 259.919672 68.67265 
L 260.276102 68.92963 
L 260.632531 69.435871 
L 260.98896 68.648267 
L 262.058247 70.473269 
L 262.414676 70.595434 
L 262.771106 71.03354 
L 263.127535 70.813521 
L 264.196822 70.663891 
L 264.553251 70.113685 
L 264.909681 71.271928 
L 265.622539 71.732805 
L 265.978968 72.712964 
L 266.691826 71.803715 
L 267.048256 71.85128 
L 267.404685 72.149855 
L 267.761114 71.8285 
L 268.117543 71.724543 
L 268.830401 70.935768 
L 269.18683 71.859407 
L 269.54326 71.65124 
L 270.256118 72.010575 
L 270.612547 71.626161 
L 270.968976 71.881218 
L 271.325405 71.930248 
L 271.681835 72.577068 
L 272.751122 72.111643 
L 273.107551 72.779517 
L 273.82041 73.273073 
L 274.176839 73.092264 
L 274.533268 72.43289 
L 274.889697 72.323768 
L 275.246126 72.048527 
L 275.602555 72.009517 
L 276.315414 73.032534 
L 276.671843 72.725223 
L 277.028272 72.119193 
L 277.384701 72.669139 
L 278.097559 71.46587 
L 278.453989 71.850522 
L 278.810418 71.140436 
L 279.166847 70.768548 
L 279.879705 71.760576 
L 280.236134 72.199124 
L 280.592563 72.143498 
L 281.305422 71.114241 
L 281.661851 70.915999 
L 282.01828 70.160914 
L 282.374709 68.876553 
L 282.731138 69.067369 
L 283.087568 68.751825 
L 283.443997 67.91161 
L 283.800426 68.11625 
L 284.156855 68.035767 
L 284.513284 68.970382 
L 284.869713 68.771058 
L 285.582572 68.964131 
L 286.29543 69.848466 
L 286.651859 70.122333 
L 287.008288 69.780598 
L 287.364717 69.818682 
L 287.721147 69.374604 
L 288.434005 69.654846 
L 288.790434 70.026567 
L 289.146863 70.988099 
L 289.503292 71.53094 
L 290.57258 69.923635 
L 291.285438 70.273827 
L 291.641867 69.994665 
L 291.998296 70.906772 
L 292.354726 70.562627 
L 292.711155 69.859435 
L 293.067584 69.722884 
L 293.424013 69.121739 
L 294.136871 69.241751 
L 294.493301 69.57797 
L 294.84973 68.938524 
L 295.206159 69.341241 
L 295.562588 68.658144 
L 295.919017 68.459183 
L 296.275446 68.874383 
L 296.631876 68.40272 
L 296.988305 68.172468 
L 297.344734 68.526092 
L 297.701163 68.658451 
L 298.057592 67.964434 
L 298.414021 68.182713 
L 298.77045 68.153297 
L 299.483309 68.385722 
L 300.196167 68.138345 
L 300.552596 68.968676 
L 300.909025 69.44697 
L 301.265455 69.387194 
L 302.334742 69.630839 
L 302.691171 69.082644 
L 303.0476 69.493282 
L 303.404029 68.809629 
L 303.760459 69.413144 
L 304.116888 68.792612 
L 305.186175 69.198501 
L 305.542604 69.502644 
L 305.899034 69.533797 
L 306.255463 70.217496 
L 307.32475 70.005021 
L 307.681179 70.173099 
L 308.037609 70.466967 
L 308.394038 70.24094 
L 308.750467 69.539513 
L 309.106896 70.09296 
L 309.463325 69.374341 
L 309.819754 69.23405 
L 310.176183 69.797829 
L 310.532613 69.76229 
L 310.889042 69.576254 
L 311.245471 69.123181 
L 311.6019 67.956504 
L 311.958329 67.640782 
L 312.314758 68.298084 
L 312.671188 68.621993 
L 313.027617 68.765399 
L 313.384046 69.196917 
L 313.740475 68.459658 
L 314.096904 68.573152 
L 314.453333 68.063935 
L 315.87905 69.342681 
L 316.235479 69.44648 
L 316.948337 68.493596 
L 317.304767 68.354409 
L 317.661196 67.987726 
L 318.017625 68.530416 
L 318.374054 67.776117 
L 319.086912 68.448285 
L 320.512629 68.730922 
L 320.869058 68.052693 
L 321.581916 67.237557 
L 321.938346 67.12604 
L 322.294775 66.615129 
L 322.651204 65.893318 
L 323.007633 65.510971 
L 323.720491 65.220007 
L 324.076921 65.470339 
L 324.43335 65.929257 
L 324.789779 66.153708 
L 325.859066 66.10598 
L 326.215495 66.325495 
L 326.571925 66.258474 
L 326.928354 66.346181 
L 327.284783 66.143566 
L 327.641212 66.757616 
L 327.997641 66.217435 
L 328.7105 66.519912 
L 329.066929 66.206097 
L 329.423358 65.717584 
L 329.779787 66.288748 
L 330.136216 66.541241 
L 330.492645 66.379559 
L 331.205504 65.709772 
L 331.561933 65.845709 
L 331.918362 66.503769 
L 332.274791 66.660991 
L 332.63122 66.440862 
L 333.344079 67.531382 
L 333.700508 67.615396 
L 334.413366 67.068292 
L 335.126224 66.967517 
L 335.482654 67.322507 
L 336.195512 67.550473 
L 336.551941 67.474392 
L 336.90837 67.048397 
L 337.264799 67.319089 
L 337.621229 67.335324 
L 337.977658 67.582907 
L 339.046945 67.66567 
L 339.403374 67.363516 
L 339.759803 66.447271 
L 340.116233 66.510535 
L 340.472662 66.909779 
L 341.18552 67.157579 
L 341.541949 67.605601 
L 341.898378 67.672452 
L 342.254808 67.937934 
L 342.967666 68.120004 
L 343.324095 67.903513 
L 343.680524 68.082678 
L 344.036953 67.760712 
L 344.393382 68.11399 
L 344.749812 68.045268 
L 345.106241 68.416807 
L 345.46267 68.085486 
L 345.819099 68.466958 
L 346.531957 67.806982 
L 346.888387 67.695966 
L 347.601245 67.817959 
L 347.957674 68.194094 
L 348.314103 67.865035 
L 348.670532 68.571005 
L 349.026962 68.40814 
L 349.383391 67.846026 
L 349.73982 67.901049 
L 350.096249 67.641522 
L 350.452678 66.988173 
L 350.809107 67.283923 
L 351.165536 67.430762 
L 351.521966 66.988798 
L 351.878395 67.016997 
L 352.234824 66.588279 
L 352.947682 66.364433 
L 353.304111 66.640212 
L 353.660541 66.71449 
L 354.01697 67.489511 
L 354.373399 67.842096 
L 355.086257 67.66559 
L 355.442686 67.35929 
L 355.799115 67.35114 
L 356.511974 66.637965 
L 357.224832 66.05415 
L 357.581261 66.012796 
L 358.29412 66.207218 
L 358.650549 66.531015 
L 359.006978 65.869224 
L 360.076265 65.216303 
L 360.432695 65.312893 
L 360.789124 65.244546 
L 361.145553 65.348211 
L 361.501982 66.0816 
L 362.571269 65.06184 
L 362.927699 65.073078 
L 363.284128 65.259825 
L 363.996986 64.655933 
L 364.353415 64.588573 
L 366.135561 63.236514 
L 366.49199 62.82608 
L 366.848419 63.079965 
L 367.204848 63.518877 
L 367.561278 63.348116 
L 367.917707 63.427527 
L 368.630565 62.419712 
L 368.986994 62.887273 
L 369.699853 63.218438 
L 370.76914 64.106025 
L 371.125569 63.295021 
L 371.481998 63.18269 
L 371.838428 63.869669 
L 372.194857 64.110013 
L 372.551286 63.923696 
L 373.264144 63.245496 
L 373.620573 64.057454 
L 373.977002 64.249354 
L 374.333432 64.187237 
L 374.689861 64.622244 
L 375.04629 65.318897 
L 375.402719 65.549715 
L 375.759148 65.42788 
L 376.115577 64.755956 
L 376.472007 64.962168 
L 377.184865 65.763317 
L 377.541294 65.485087 
L 377.897723 65.642259 
L 378.254152 66.168406 
L 378.967011 66.374035 
L 379.32344 66.273609 
L 380.036298 66.543092 
L 380.392727 65.833653 
L 380.749156 65.713519 
L 381.105586 65.849318 
L 381.818444 65.724424 
L 382.174873 65.208143 
L 382.531302 65.633793 
L 383.60059 65.063228 
L 383.957019 65.627915 
L 384.313448 65.634679 
L 385.026306 66.439965 
L 385.382735 66.484324 
L 385.739165 67.120629 
L 386.095594 66.614079 
L 386.452023 67.007046 
L 386.808452 66.674269 
L 387.164881 66.186199 
L 387.52131 66.360269 
L 387.87774 66.281046 
L 389.659885 63.769387 
L 390.016314 63.96098 
L 390.372744 63.840949 
L 390.729173 62.926587 
L 391.085602 63.023994 
L 391.79846 62.593953 
L 392.154889 62.743138 
L 392.511319 63.042688 
L 392.867748 63.162833 
L 393.224177 63.653237 
L 393.580606 63.325856 
L 393.937035 63.294353 
L 394.649894 63.509214 
L 395.362752 63.595814 
L 395.719181 63.121626 
L 396.432039 63.15143 
L 397.144898 63.301823 
L 397.501327 64.004268 
L 397.857756 63.916164 
L 398.214185 64.080562 
L 398.570614 64.10103 
L 398.927043 64.649936 
L 399.283473 64.317287 
L 400.35276 64.978897 
L 401.065618 66.426277 
L 401.422048 66.333806 
L 401.778477 65.77587 
L 402.134906 66.32749 
L 402.491335 66.468074 
L 402.847764 65.858808 
L 403.204193 65.82991 
L 403.560622 65.588736 
L 404.273481 66.701329 
L 404.62991 66.509492 
L 405.342768 66.598134 
L 406.055627 66.466602 
L 407.124914 66.142245 
L 407.481343 66.281231 
L 407.837772 66.292616 
L 408.194201 66.566518 
L 408.550631 66.205686 
L 408.90706 66.033778 
L 409.263489 66.132533 
L 410.332776 65.646803 
L 410.689206 65.265587 
L 411.045635 65.257021 
L 411.758493 66.92298 
L 412.114922 66.879679 
L 412.471351 67.039591 
L 412.827781 66.080424 
L 413.18421 66.100492 
L 413.540639 66.314994 
L 414.253497 65.788808 
L 414.609926 66.030007 
L 415.322785 65.596626 
L 415.679214 65.880062 
L 416.035643 65.787929 
L 416.392072 65.453154 
L 416.748501 65.647536 
L 417.10493 65.182567 
L 417.46136 64.948162 
L 417.817789 65.614052 
L 418.174218 65.987908 
L 418.530647 65.908116 
L 418.887076 66.108344 
L 419.243505 65.896444 
L 419.599934 66.683525 
L 419.956364 66.994841 
L 419.956364 66.994841 
" style="fill:none;stroke:#1f77b4;stroke-linecap:square;stroke-width:1.5;"/>
   </g>
   <g id="patch_3">
    <path d="M 46.08 156.672 
L 46.08 27.648 
" style="fill:none;stroke:#000000;stroke-linecap:square;stroke-linejoin:miter;stroke-width:0.8;"/>
   </g>
   <g id="patch_4">
    <path d="M 437.76 156.672 
L 437.76 27.648 
" style="fill:none;stroke:#000000;stroke-linecap:square;stroke-linejoin:miter;stroke-width:0.8;"/>
   </g>
   <g id="patch_5">
    <path d="M 46.08 156.672 
L 437.76 156.672 
" style="fill:none;stroke:#000000;stroke-linecap:square;stroke-linejoin:miter;stroke-width:0.8;"/>
   </g>
   <g id="patch_6">
    <path d="M 46.08 27.648 
L 437.76 27.648 
" style="fill:none;stroke:#000000;stroke-linecap:square;stroke-linejoin:miter;stroke-width:0.8;"/>
   </g>
   <g id="text_15">
    <!-- Utilización promedio servidor D1 -->
    <defs>
     <path id="DejaVuSans-32"/>
     <path d="M 18.109375 8.203125 
L 18.109375 -20.796875 
L 9.078125 -20.796875 
L 9.078125 54.6875 
L 18.109375 54.6875 
L 18.109375 46.390625 
Q 20.953125 51.265625 25.265625 53.625 
Q 29.59375 56 35.59375 56 
Q 45.5625 56 51.78125 48.09375 
Q 58.015625 40.1875 58.015625 27.296875 
Q 58.015625 14.40625 51.78125 6.484375 
Q 45.5625 -1.421875 35.59375 -1.421875 
Q 29.59375 -1.421875 25.265625 0.953125 
Q 20.953125 3.328125 18.109375 8.203125 
z
M 48.6875 27.296875 
Q 48.6875 37.203125 44.609375 42.84375 
Q 40.53125 48.484375 33.40625 48.484375 
Q 26.265625 48.484375 22.1875 42.84375 
Q 18.109375 37.203125 18.109375 27.296875 
Q 18.109375 17.390625 22.1875 11.75 
Q 26.265625 6.109375 33.40625 6.109375 
Q 40.53125 6.109375 44.609375 11.75 
Q 48.6875 17.390625 48.6875 27.296875 
z
" id="DejaVuSans-112"/>
     <path d="M 52 44.1875 
Q 55.375 50.25 60.0625 53.125 
Q 64.75 56 71.09375 56 
Q 79.640625 56 84.28125 50.015625 
Q 88.921875 44.046875 88.921875 33.015625 
L 88.921875 0 
L 79.890625 0 
L 79.890625 32.71875 
Q 79.890625 40.578125 77.09375 44.375 
Q 74.3125 48.1875 68.609375 48.1875 
Q 61.625 48.1875 57.5625 43.546875 
Q 53.515625 38.921875 53.515625 30.90625 
L 53.515625 0 
L 44.484375 0 
L 44.484375 32.71875 
Q 44.484375 40.625 41.703125 44.40625 
Q 38.921875 48.1875 33.109375 48.1875 
Q 26.21875 48.1875 22.15625 43.53125 
Q 18.109375 38.875 18.109375 30.90625 
L 18.109375 0 
L 9.078125 0 
L 9.078125 54.6875 
L 18.109375 54.6875 
L 18.109375 46.1875 
Q 21.1875 51.21875 25.484375 53.609375 
Q 29.78125 56 35.6875 56 
Q 41.65625 56 45.828125 52.96875 
Q 50 49.953125 52 44.1875 
z
" id="DejaVuSans-109"/>
     <path d="M 56.203125 29.59375 
L 56.203125 25.203125 
L 14.890625 25.203125 
Q 15.484375 15.921875 20.484375 11.0625 
Q 25.484375 6.203125 34.421875 6.203125 
Q 39.59375 6.203125 44.453125 7.46875 
Q 49.3125 8.734375 54.109375 11.28125 
L 54.109375 2.78125 
Q 49.265625 0.734375 44.1875 -0.34375 
Q 39.109375 -1.421875 33.890625 -1.421875 
Q 20.796875 -1.421875 13.15625 6.1875 
Q 5.515625 13.8125 5.515625 26.8125 
Q 5.515625 40.234375 12.765625 48.109375 
Q 20.015625 56 32.328125 56 
Q 43.359375 56 49.78125 48.890625 
Q 56.203125 41.796875 56.203125 29.59375 
z
M 47.21875 32.234375 
Q 47.125 39.59375 43.09375 43.984375 
Q 39.0625 48.390625 32.421875 48.390625 
Q 24.90625 48.390625 20.390625 44.140625 
Q 15.875 39.890625 15.1875 32.171875 
z
" id="DejaVuSans-101"/>
     <path d="M 2.984375 54.6875 
L 12.5 54.6875 
L 29.59375 8.796875 
L 46.6875 54.6875 
L 56.203125 54.6875 
L 35.6875 0 
L 23.484375 0 
z
" id="DejaVuSans-118"/>
     <path d="M 19.671875 64.796875 
L 19.671875 8.109375 
L 31.59375 8.109375 
Q 46.6875 8.109375 53.6875 14.9375 
Q 60.6875 21.78125 60.6875 36.53125 
Q 60.6875 51.171875 53.6875 57.984375 
Q 46.6875 64.796875 31.59375 64.796875 
z
M 9.8125 72.90625 
L 30.078125 72.90625 
Q 51.265625 72.90625 61.171875 64.09375 
Q 71.09375 55.28125 71.09375 36.53125 
Q 71.09375 17.671875 61.125 8.828125 
Q 51.171875 0 30.078125 0 
L 9.8125 0 
z
" id="DejaVuSans-68"/>
    </defs>
    <g transform="translate(143.674688 21.648)scale(0.12 -0.12)">
     <use xlink:href="#DejaVuSans-85"/>
     <use x="73.193359" xlink:href="#DejaVuSans-116"/>
     <use x="112.402344" xlink:href="#DejaVuSans-105"/>
     <use x="140.185547" xlink:href="#DejaVuSans-108"/>
     <use x="167.96875" xlink:href="#DejaVuSans-105"/>
     <use x="195.751953" xlink:href="#DejaVuSans-122"/>
     <use x="248.242188" xlink:href="#DejaVuSans-97"/>
     <use x="309.521484" xlink:href="#DejaVuSans-99"/>
     <use x="364.501953" xlink:href="#DejaVuSans-105"/>
     <use x="392.285156" xlink:href="#DejaVuSans-243"/>
     <use x="453.466797" xlink:href="#DejaVuSans-110"/>
     <use x="516.845703" xlink:href="#DejaVuSans-32"/>
     <use x="548.632812" xlink:href="#DejaVuSans-112"/>
     <use x="612.109375" xlink:href="#DejaVuSans-114"/>
     <use x="653.191406" xlink:href="#DejaVuSans-111"/>
     <use x="714.373047" xlink:href="#DejaVuSans-109"/>
     <use x="811.785156" xlink:href="#DejaVuSans-101"/>
     <use x="873.308594" xlink:href="#DejaVuSans-100"/>
     <use x="936.785156" xlink:href="#DejaVuSans-105"/>
     <use x="964.568359" xlink:href="#DejaVuSans-111"/>
     <use x="1025.75" xlink:href="#DejaVuSans-32"/>
     <use x="1057.537109" xlink:href="#DejaVuSans-115"/>
     <use x="1109.636719" xlink:href="#DejaVuSans-101"/>
     <use x="1171.160156" xlink:href="#DejaVuSans-114"/>
     <use x="1212.273438" xlink:href="#DejaVuSans-118"/>
     <use x="1271.453125" xlink:href="#DejaVuSans-105"/>
     <use x="1299.236328" xlink:href="#DejaVuSans-100"/>
     <use x="1362.712891" xlink:href="#DejaVuSans-111"/>
     <use x="1423.894531" xlink:href="#DejaVuSans-114"/>
     <use x="1465.007812" xlink:href="#DejaVuSans-32"/>
     <use x="1496.794922" xlink:href="#DejaVuSans-68"/>
     <use x="1573.796875" xlink:href="#DejaVuSans-49"/>
    </g>
   </g>
  </g>
  <g id="axes_2">
   <g id="patch_7">
    <path d="M 46.08 317.952 
L 437.76 317.952 
L 437.76 188.928 
L 46.08 188.928 
z
" style="fill:#ffffff;"/>
   </g>
   <g id="matplotlib.axis_3">
    <g id="xtick_7">
     <g id="line2d_26">
      <path clip-path="url(#p1a06352695)" d="M 63.527207 317.952 
L 63.527207 188.928 
" style="fill:none;stroke:#b0b0b0;stroke-linecap:square;stroke-width:0.8;"/>
     </g>
     <g id="line2d_27">
      <g>
       <use style="stroke:#000000;stroke-width:0.8;" x="63.527207" xlink:href="#m28b875e874" y="317.952"/>
      </g>
     </g>
     <g id="text_16">
      <!-- 0 -->
      <g transform="translate(60.345957 332.550437)scale(0.1 -0.1)">
       <use xlink:href="#DejaVuSans-48"/>
      </g>
     </g>
    </g>
    <g id="xtick_8">
     <g id="line2d_28">
      <path clip-path="url(#p1a06352695)" d="M 134.813038 317.952 
L 134.813038 188.928 
" style="fill:none;stroke:#b0b0b0;stroke-linecap:square;stroke-width:0.8;"/>
     </g>
     <g id="line2d_29">
      <g>
       <use style="stroke:#000000;stroke-width:0.8;" x="134.813038" xlink:href="#m28b875e874" y="317.952"/>
      </g>
     </g>
     <g id="text_17">
      <!-- 200 -->
      <g transform="translate(125.269288 332.550437)scale(0.1 -0.1)">
       <use xlink:href="#DejaVuSans-50"/>
       <use x="63.623047" xlink:href="#DejaVuSans-48"/>
       <use x="127.246094" xlink:href="#DejaVuSans-48"/>
      </g>
     </g>
    </g>
    <g id="xtick_9">
     <g id="line2d_30">
      <path clip-path="url(#p1a06352695)" d="M 206.09887 317.952 
L 206.09887 188.928 
" style="fill:none;stroke:#b0b0b0;stroke-linecap:square;stroke-width:0.8;"/>
     </g>
     <g id="line2d_31">
      <g>
       <use style="stroke:#000000;stroke-width:0.8;" x="206.09887" xlink:href="#m28b875e874" y="317.952"/>
      </g>
     </g>
     <g id="text_18">
      <!-- 400 -->
      <g transform="translate(196.55512 332.550437)scale(0.1 -0.1)">
       <use xlink:href="#DejaVuSans-52"/>
       <use x="63.623047" xlink:href="#DejaVuSans-48"/>
       <use x="127.246094" xlink:href="#DejaVuSans-48"/>
      </g>
     </g>
    </g>
    <g id="xtick_10">
     <g id="line2d_32">
      <path clip-path="url(#p1a06352695)" d="M 277.384701 317.952 
L 277.384701 188.928 
" style="fill:none;stroke:#b0b0b0;stroke-linecap:square;stroke-width:0.8;"/>
     </g>
     <g id="line2d_33">
      <g>
       <use style="stroke:#000000;stroke-width:0.8;" x="277.384701" xlink:href="#m28b875e874" y="317.952"/>
      </g>
     </g>
     <g id="text_19">
      <!-- 600 -->
      <g transform="translate(267.840951 332.550437)scale(0.1 -0.1)">
       <use xlink:href="#DejaVuSans-54"/>
       <use x="63.623047" xlink:href="#DejaVuSans-48"/>
       <use x="127.246094" xlink:href="#DejaVuSans-48"/>
      </g>
     </g>
    </g>
    <g id="xtick_11">
     <g id="line2d_34">
      <path clip-path="url(#p1a06352695)" d="M 348.670532 317.952 
L 348.670532 188.928 
" style="fill:none;stroke:#b0b0b0;stroke-linecap:square;stroke-width:0.8;"/>
     </g>
     <g id="line2d_35">
      <g>
       <use style="stroke:#000000;stroke-width:0.8;" x="348.670532" xlink:href="#m28b875e874" y="317.952"/>
      </g>
     </g>
     <g id="text_20">
      <!-- 800 -->
      <g transform="translate(339.126782 332.550437)scale(0.1 -0.1)">
       <use xlink:href="#DejaVuSans-56"/>
       <use x="63.623047" xlink:href="#DejaVuSans-48"/>
       <use x="127.246094" xlink:href="#DejaVuSans-48"/>
      </g>
     </g>
    </g>
    <g id="xtick_12">
     <g id="line2d_36">
      <path clip-path="url(#p1a06352695)" d="M 419.956364 317.952 
L 419.956364 188.928 
" style="fill:none;stroke:#b0b0b0;stroke-linecap:square;stroke-width:0.8;"/>
     </g>
     <g id="line2d_37">
      <g>
       <use style="stroke:#000000;stroke-width:0.8;" x="419.956364" xlink:href="#m28b875e874" y="317.952"/>
      </g>
     </g>
     <g id="text_21">
      <!-- 1000 -->
      <g transform="translate(407.231364 332.550437)scale(0.1 -0.1)">
       <use xlink:href="#DejaVuSans-49"/>
       <use x="63.623047" xlink:href="#DejaVuSans-48"/>
       <use x="127.246094" xlink:href="#DejaVuSans-48"/>
       <use x="190.869141" xlink:href="#DejaVuSans-48"/>
      </g>
     </g>
    </g>
    <g id="text_22">
     <!-- Corridas -->
     <g transform="translate(221.027031 346.228563)scale(0.1 -0.1)">
      <use xlink:href="#DejaVuSans-67"/>
      <use x="69.824219" xlink:href="#DejaVuSans-111"/>
      <use x="131.005859" xlink:href="#DejaVuSans-114"/>
      <use x="172.103516" xlink:href="#DejaVuSans-114"/>
      <use x="213.216797" xlink:href="#DejaVuSans-105"/>
      <use x="241" xlink:href="#DejaVuSans-100"/>
      <use x="304.476562" xlink:href="#DejaVuSans-97"/>
      <use x="365.755859" xlink:href="#DejaVuSans-115"/>
     </g>
    </g>
   </g>
   <g id="matplotlib.axis_4">
    <g id="ytick_7">
     <g id="line2d_38">
      <path clip-path="url(#p1a06352695)" d="M 46.08 280.006957 
L 437.76 280.006957 
" style="fill:none;stroke:#b0b0b0;stroke-linecap:square;stroke-width:0.8;"/>
     </g>
     <g id="line2d_39">
      <g>
       <use style="stroke:#000000;stroke-width:0.8;" x="46.08" xlink:href="#m6e3227df57" y="280.006957"/>
      </g>
     </g>
     <g id="text_23">
      <!-- 0.240 -->
      <g transform="translate(10.451875 283.806175)scale(0.1 -0.1)">
       <use xlink:href="#DejaVuSans-48"/>
       <use x="63.623047" xlink:href="#DejaVuSans-46"/>
       <use x="95.410156" xlink:href="#DejaVuSans-50"/>
       <use x="159.033203" xlink:href="#DejaVuSans-52"/>
       <use x="222.65625" xlink:href="#DejaVuSans-48"/>
      </g>
     </g>
    </g>
    <g id="ytick_8">
     <g id="line2d_40">
      <path clip-path="url(#p1a06352695)" d="M 46.08 240.764134 
L 437.76 240.764134 
" style="fill:none;stroke:#b0b0b0;stroke-linecap:square;stroke-width:0.8;"/>
     </g>
     <g id="line2d_41">
      <g>
       <use style="stroke:#000000;stroke-width:0.8;" x="46.08" xlink:href="#m6e3227df57" y="240.764134"/>
      </g>
     </g>
     <g id="text_24">
      <!-- 0.245 -->
      <g transform="translate(10.451875 244.563353)scale(0.1 -0.1)">
       <use xlink:href="#DejaVuSans-48"/>
       <use x="63.623047" xlink:href="#DejaVuSans-46"/>
       <use x="95.410156" xlink:href="#DejaVuSans-50"/>
       <use x="159.033203" xlink:href="#DejaVuSans-52"/>
       <use x="222.65625" xlink:href="#DejaVuSans-53"/>
      </g>
     </g>
    </g>
    <g id="ytick_9">
     <g id="line2d_42">
      <path clip-path="url(#p1a06352695)" d="M 46.08 201.521312 
L 437.76 201.521312 
" style="fill:none;stroke:#b0b0b0;stroke-linecap:square;stroke-width:0.8;"/>
     </g>
     <g id="line2d_43">
      <g>
       <use style="stroke:#000000;stroke-width:0.8;" x="46.08" xlink:href="#m6e3227df57" y="201.521312"/>
      </g>
     </g>
     <g id="text_25">
      <!-- 0.250 -->
      <g transform="translate(10.451875 205.320531)scale(0.1 -0.1)">
       <use xlink:href="#DejaVuSans-48"/>
       <use x="63.623047" xlink:href="#DejaVuSans-46"/>
       <use x="95.410156" xlink:href="#DejaVuSans-50"/>
       <use x="159.033203" xlink:href="#DejaVuSans-53"/>
       <use x="222.65625" xlink:href="#DejaVuSans-48"/>
      </g>
     </g>
    </g>
    <g id="text_26">
     <!-- Utilización -->
     <g transform="translate(4.372188 279.281406)rotate(-90)scale(0.1 -0.1)">
      <use xlink:href="#DejaVuSans-85"/>
      <use x="73.193359" xlink:href="#DejaVuSans-116"/>
      <use x="112.402344" xlink:href="#DejaVuSans-105"/>
      <use x="140.185547" xlink:href="#DejaVuSans-108"/>
      <use x="167.96875" xlink:href="#DejaVuSans-105"/>
      <use x="195.751953" xlink:href="#DejaVuSans-122"/>
      <use x="248.242188" xlink:href="#DejaVuSans-97"/>
      <use x="309.521484" xlink:href="#DejaVuSans-99"/>
      <use x="364.501953" xlink:href="#DejaVuSans-105"/>
      <use x="392.285156" xlink:href="#DejaVuSans-243"/>
      <use x="453.466797" xlink:href="#DejaVuSans-110"/>
     </g>
    </g>
   </g>
   <g id="line2d_44">
    <path clip-path="url(#p1a06352695)" d="M 63.883636 211.954073 
L 64.240066 274.414808 
L 64.596495 312.087273 
L 64.952924 210.204904 
L 65.309353 194.792727 
L 65.665782 209.980762 
L 66.022211 207.247086 
L 66.37864 199.662288 
L 66.73507 204.6897 
L 67.091499 202.781763 
L 67.447928 202.102456 
L 67.804357 204.920635 
L 68.160786 203.418326 
L 68.517215 209.420434 
L 68.873645 210.681987 
L 69.230074 213.878117 
L 69.586503 218.505448 
L 69.942932 216.299232 
L 70.299361 209.251312 
L 70.65579 220.863048 
L 71.012219 222.55038 
L 71.368649 215.733861 
L 72.081507 206.281701 
L 72.437936 207.627646 
L 72.794365 209.760743 
L 73.150794 205.590632 
L 73.863653 209.51204 
L 74.220082 206.146523 
L 74.576511 211.283337 
L 75.289369 216.218038 
L 75.645799 215.087305 
L 76.002228 217.635193 
L 76.358657 212.650847 
L 76.715086 213.431549 
L 77.071515 213.028657 
L 77.427944 216.15458 
L 77.784373 214.927394 
L 78.497232 216.598453 
L 78.853661 216.306661 
L 79.21009 215.41355 
L 79.566519 217.753455 
L 79.922948 214.927736 
L 80.279378 215.485395 
L 80.635807 215.790088 
L 80.992236 213.91253 
L 81.348665 213.501714 
L 81.705094 213.524338 
L 82.061523 212.75201 
L 82.417952 213.535989 
L 82.774382 210.634372 
L 83.130811 209.290396 
L 83.48724 209.135546 
L 83.843669 211.14713 
L 84.200098 208.54128 
L 84.556527 207.873082 
L 84.912957 208.195896 
L 85.269386 208.79322 
L 85.625815 206.28442 
L 86.338673 209.655184 
L 86.695102 208.554402 
L 87.407961 210.185384 
L 87.76439 210.118967 
L 88.120819 208.930093 
L 88.833677 212.245447 
L 89.190106 211.882752 
L 89.546536 213.141803 
L 89.902965 215.147811 
L 90.615823 212.84699 
L 90.972252 212.904981 
L 92.04154 205.434185 
L 92.397969 206.788677 
L 92.754398 207.24766 
L 93.110827 205.602238 
L 93.467256 205.266628 
L 93.823686 204.257855 
L 94.180115 206.865176 
L 94.536544 206.240162 
L 94.892973 206.974251 
L 95.249402 206.651432 
L 95.605831 206.842154 
L 95.96226 206.380131 
L 96.31869 204.259183 
L 96.675119 205.437108 
L 97.031548 205.708828 
L 97.387977 207.012085 
L 98.100835 208.900685 
L 98.457265 207.62353 
L 98.813694 207.424857 
L 99.170123 210.476098 
L 99.526552 210.06942 
L 99.882981 210.179647 
L 100.23941 211.33193 
L 100.595839 211.749556 
L 100.952269 211.808663 
L 101.665127 213.209559 
L 102.021556 213.019443 
L 102.377985 213.614511 
L 102.734414 214.50643 
L 103.090844 213.51539 
L 103.447273 214.014399 
L 103.803702 213.777572 
L 104.160131 212.918532 
L 104.51656 213.310333 
L 104.872989 213.192495 
L 105.229419 212.199761 
L 105.585848 212.286899 
L 106.298706 212.99986 
L 106.655135 213.576925 
L 107.011564 212.724671 
L 107.367993 213.998986 
L 107.724423 214.494724 
L 108.080852 214.618738 
L 108.437281 215.312209 
L 108.79371 215.484991 
L 109.150139 214.657163 
L 109.506568 215.389871 
L 109.862998 215.200075 
L 110.219427 215.737303 
L 110.575856 216.679734 
L 110.932285 216.833963 
L 111.288714 216.4092 
L 112.358002 213.332115 
L 112.714431 212.72753 
L 113.07086 214.0378 
L 113.427289 214.440149 
L 113.783718 215.071112 
L 114.140147 214.361724 
L 114.496577 212.507107 
L 114.853006 214.350951 
L 115.209435 215.230273 
L 115.565864 214.205273 
L 115.922293 214.036976 
L 116.278722 213.571451 
L 116.635152 213.957595 
L 117.34801 214.18608 
L 117.704439 213.574483 
L 118.060868 214.561848 
L 118.417297 213.955002 
L 118.773726 216.154927 
L 119.486585 216.379066 
L 119.843014 214.693631 
L 120.199443 214.480959 
L 120.555872 213.77975 
L 120.912301 214.406618 
L 121.268731 214.036233 
L 121.62516 214.375813 
L 121.981589 214.424588 
L 122.338018 213.336271 
L 122.694447 214.607483 
L 123.050876 215.365969 
L 123.407305 214.971031 
L 123.763735 215.137047 
L 124.476593 213.858541 
L 124.833022 213.371064 
L 125.189451 213.66384 
L 125.54588 213.376362 
L 126.258739 212.488055 
L 126.615168 212.338036 
L 126.971597 211.845733 
L 127.328026 211.888538 
L 127.684455 210.408368 
L 128.040885 210.938616 
L 128.397314 211.111889 
L 128.753743 211.576116 
L 129.110172 210.953959 
L 129.466601 211.215355 
L 129.82303 211.301967 
L 130.179459 211.922379 
L 130.535889 211.46208 
L 130.892318 211.404164 
L 131.605176 209.56269 
L 131.961605 210.114125 
L 132.318034 209.167082 
L 132.674464 209.65615 
L 133.030893 210.490097 
L 133.387322 210.375143 
L 133.743751 210.73545 
L 134.10018 210.082164 
L 135.169468 209.280698 
L 135.525897 210.529348 
L 135.882326 210.175314 
L 136.238755 209.995919 
L 136.595184 210.194997 
L 136.951613 209.935737 
L 137.308043 209.931761 
L 138.020901 210.395203 
L 138.37733 210.303565 
L 138.733759 209.572638 
L 139.090188 209.472243 
L 139.803047 209.948773 
L 140.159476 210.716293 
L 140.515905 210.493844 
L 141.228763 209.268165 
L 141.585192 209.528739 
L 142.298051 209.193073 
L 142.65448 209.934565 
L 143.010909 209.956047 
L 143.367338 208.799949 
L 143.723767 209.331172 
L 144.436626 207.51947 
L 144.793055 207.507957 
L 145.149484 206.974768 
L 145.505913 206.89762 
L 146.218771 207.465835 
L 146.575201 207.474219 
L 146.93163 207.739696 
L 147.288059 207.501045 
L 147.644488 207.875285 
L 148.000917 208.047444 
L 148.357346 207.675118 
L 148.713776 207.613171 
L 149.070205 207.38703 
L 149.426634 207.650458 
L 149.783063 207.171065 
L 150.139492 207.449753 
L 150.495921 208.283265 
L 150.852351 208.084662 
L 151.565209 206.845864 
L 151.921638 207.092143 
L 152.278067 206.902069 
L 152.990925 205.867645 
L 153.347355 205.899001 
L 155.1295 205.09305 
L 155.48593 204.785933 
L 155.842359 203.953026 
L 156.198788 203.808316 
L 156.555217 203.817234 
L 156.911646 203.541425 
L 157.268075 204.094466 
L 157.624505 204.402808 
L 157.980934 204.405923 
L 158.337363 204.754598 
L 159.050221 204.129158 
L 159.763079 204.725723 
L 160.119509 205.420562 
L 160.475938 205.743176 
L 161.188796 206.064376 
L 161.545225 206.444309 
L 161.901654 206.123404 
L 162.258084 205.488384 
L 162.614513 205.632692 
L 162.970942 205.496593 
L 163.327371 205.080486 
L 164.040229 205.685862 
L 164.396658 205.347013 
L 164.753088 205.780434 
L 165.465946 206.32048 
L 165.822375 206.868901 
L 166.178804 206.284047 
L 166.535233 206.370212 
L 166.891663 205.926262 
L 167.248092 206.172973 
L 167.604521 205.672413 
L 167.96095 206.029141 
L 168.673808 207.215696 
L 169.386667 207.458281 
L 169.743096 207.742131 
L 170.099525 208.376955 
L 170.455954 207.833837 
L 170.812383 207.682537 
L 171.168812 207.347755 
L 171.525242 207.367518 
L 171.881671 207.193316 
L 172.2381 207.161917 
L 172.950958 207.558341 
L 173.307387 207.10597 
L 174.020246 208.255846 
L 174.376675 208.199632 
L 174.733104 208.324734 
L 175.445962 207.831165 
L 176.158821 208.20008 
L 176.51525 207.818862 
L 176.871679 208.258007 
L 177.228108 208.251789 
L 177.940966 207.259469 
L 178.297396 207.172352 
L 178.653825 206.534808 
L 179.010254 207.127881 
L 180.435971 206.750241 
L 180.7924 206.992648 
L 181.148829 206.876063 
L 181.505258 207.332697 
L 181.861687 207.065955 
L 182.218116 207.139399 
L 182.574545 207.517712 
L 182.930975 207.603876 
L 183.287404 207.444061 
L 183.643833 206.791514 
L 184.000262 206.709191 
L 184.356691 206.802467 
L 184.71312 206.766442 
L 185.06955 206.477554 
L 185.425979 206.965738 
L 185.782408 206.932082 
L 186.495266 206.294361 
L 186.851695 206.296585 
L 187.208124 206.537264 
L 187.564554 206.587383 
L 187.920983 206.928705 
L 188.99027 206.915569 
L 189.346699 206.401048 
L 189.703129 206.484171 
L 190.415987 205.926749 
L 191.128845 205.26117 
L 191.841704 205.246339 
L 192.554562 205.002308 
L 192.910991 205.661886 
L 193.623849 205.2471 
L 194.693137 205.408528 
L 195.405995 205.950392 
L 196.831712 205.766777 
L 197.188141 206.225574 
L 197.54457 206.068702 
L 197.900999 206.247879 
L 198.257428 206.675649 
L 199.326716 206.200957 
L 199.683145 206.817083 
L 200.396003 207.271574 
L 200.752432 207.67055 
L 201.465291 207.06328 
L 201.82172 207.245745 
L 202.178149 207.697547 
L 202.534578 207.278496 
L 202.891007 207.104466 
L 203.247437 206.74967 
L 203.603866 206.847896 
L 204.316724 206.520598 
L 204.673153 206.180901 
L 205.029582 206.061854 
L 205.386011 205.717654 
L 205.742441 205.624141 
L 206.455299 206.337713 
L 206.811728 206.468678 
L 207.168157 205.94293 
L 208.237445 206.405305 
L 208.950303 206.88325 
L 210.01959 206.363202 
L 210.37602 206.270987 
L 210.732449 206.502308 
L 211.445307 206.443145 
L 211.801736 206.777734 
L 213.227453 206.490598 
L 213.583882 206.18551 
L 213.940311 206.40401 
L 214.65317 205.796043 
L 215.009599 205.917768 
L 215.366028 205.824036 
L 216.078886 206.336576 
L 216.435315 206.573983 
L 216.791744 206.633605 
L 217.861032 205.805775 
L 218.57389 205.563534 
L 218.930319 205.335077 
L 219.286749 204.920513 
L 219.643178 204.789596 
L 220.356036 204.787712 
L 220.712465 204.340037 
L 221.425324 204.532128 
L 221.781753 204.850618 
L 222.138182 204.462637 
L 223.207469 204.797876 
L 223.563898 204.753626 
L 224.276757 204.40918 
L 224.633186 204.762099 
L 224.989615 204.381106 
L 225.346044 204.600775 
L 225.702473 204.509913 
L 226.058903 204.99404 
L 227.484619 204.351894 
L 228.197477 204.725216 
L 228.553907 204.919852 
L 228.910336 204.792981 
L 229.979623 204.729197 
L 230.336052 205.080645 
L 230.692482 205.072129 
L 231.048911 205.185395 
L 231.761769 204.999314 
L 232.118198 205.299816 
L 232.474627 205.349265 
L 232.831057 205.189478 
L 233.187486 205.507581 
L 233.543915 205.247673 
L 233.900344 205.290044 
L 234.256773 205.170597 
L 234.613202 205.604752 
L 234.969631 205.506756 
L 236.038919 204.783146 
L 237.108206 205.077146 
L 237.464636 205.005431 
L 237.821065 204.41274 
L 238.177494 204.631282 
L 238.533923 204.472018 
L 239.246781 203.911265 
L 239.60321 203.849 
L 240.316069 203.519922 
L 240.672498 203.690782 
L 241.028927 203.507007 
L 241.385356 203.54778 
L 241.741785 203.115354 
L 242.098215 203.032093 
L 242.454644 203.17212 
L 242.811073 202.850555 
L 243.167502 202.841295 
L 243.523931 202.638744 
L 244.23679 202.734795 
L 244.949648 202.431263 
L 245.662506 202.177747 
L 246.018935 202.252065 
L 246.375364 202.186818 
L 246.731794 201.996657 
L 247.444652 201.985558 
L 247.801081 201.7035 
L 248.15751 201.782343 
L 248.513939 201.69372 
L 249.939656 200.774759 
L 250.296085 200.906931 
L 250.652514 201.164078 
L 251.008943 200.9156 
L 251.365373 201.131573 
L 251.721802 201.135519 
L 252.078231 200.908016 
L 253.147518 201.197947 
L 254.573235 202.157118 
L 254.929664 202.113031 
L 255.642523 201.821531 
L 255.998952 201.772953 
L 256.355381 202.33009 
L 257.068239 202.098967 
L 257.424668 202.012964 
L 258.137527 202.303158 
L 258.493956 202.240553 
L 258.850385 202.40459 
L 259.206814 202.099964 
L 259.563243 202.153949 
L 259.919672 202.342359 
L 260.276102 202.838049 
L 260.632531 202.621581 
L 260.98896 202.596992 
L 261.345389 202.753843 
L 261.701818 202.717376 
L 262.058247 202.931037 
L 262.414676 202.890425 
L 262.771106 203.128307 
L 263.483964 203.18432 
L 264.196822 203.510939 
L 264.553251 203.589487 
L 265.26611 203.986092 
L 265.622539 204.106569 
L 265.978968 204.370778 
L 266.335397 204.315008 
L 266.691826 204.005593 
L 267.048256 204.149621 
L 267.404685 204.066341 
L 268.117543 204.312676 
L 268.830401 204.085299 
L 269.18683 204.292685 
L 269.54326 204.230059 
L 269.899689 204.630448 
L 270.612547 204.838869 
L 270.968976 204.975254 
L 271.325405 204.758367 
L 272.038264 204.920497 
L 272.394693 205.205114 
L 272.751122 204.930807 
L 273.107551 204.888375 
L 273.82041 205.161608 
L 274.176839 204.981362 
L 274.889697 205.214078 
L 275.246126 205.009624 
L 277.028272 205.143456 
L 277.74113 205.038519 
L 278.097559 204.9284 
L 278.453989 205.128142 
L 278.810418 205.097536 
L 279.166847 204.923637 
L 279.879705 204.951046 
L 281.661851 205.465032 
L 282.374709 205.425259 
L 282.731138 205.639926 
L 283.087568 205.573225 
L 283.443997 205.344363 
L 283.800426 205.313124 
L 284.156855 205.040357 
L 284.869713 205.714584 
L 285.226143 205.514725 
L 285.939001 205.704276 
L 286.651859 205.78761 
L 287.721147 205.409867 
L 288.077576 205.45463 
L 289.146863 205.94648 
L 289.503292 206.47076 
L 289.859722 206.44809 
L 290.929009 206.731803 
L 291.641867 206.369535 
L 291.998296 206.6335 
L 292.711155 206.263281 
L 293.067584 206.297401 
L 293.424013 206.070698 
L 293.780442 206.047606 
L 294.136871 205.772628 
L 294.493301 205.919973 
L 294.84973 205.848843 
L 295.206159 205.958764 
L 295.562588 205.538758 
L 295.919017 205.6177 
L 296.275446 205.983635 
L 296.631876 205.703008 
L 297.701163 205.970015 
L 298.77045 206.046652 
L 299.12688 205.768274 
L 299.483309 205.681172 
L 300.552596 205.978742 
L 300.909025 205.904008 
L 301.265455 206.121524 
L 301.978313 206.065405 
L 302.691171 206.100581 
L 303.0476 206.411529 
L 303.404029 206.188257 
L 303.760459 206.257 
L 304.116888 206.085133 
L 304.829746 206.277914 
L 305.186175 206.205176 
L 305.542604 206.018353 
L 305.899034 206.293339 
L 306.968321 206.418959 
L 308.037609 206.302173 
L 308.394038 206.51205 
L 309.463325 206.551445 
L 310.176183 206.326822 
L 310.532613 206.216701 
L 310.889042 206.431506 
L 311.6019 206.155749 
L 311.958329 206.125723 
L 312.314758 206.34214 
L 312.671188 206.222346 
L 313.027617 206.323725 
L 313.740475 206.290573 
L 314.453333 205.859473 
L 314.809762 206.029151 
L 315.166192 205.990596 
L 315.87905 206.181468 
L 317.661196 206.662794 
L 318.017625 206.590094 
L 318.730483 206.775486 
L 319.443342 206.684628 
L 319.799771 206.645497 
L 320.1562 206.400237 
L 320.512629 206.477286 
L 320.869058 206.305942 
L 321.225487 206.483154 
L 321.581916 206.342045 
L 321.938346 206.427438 
L 322.294775 206.269079 
L 322.651204 206.33312 
L 323.364062 206.164497 
L 324.076921 206.237255 
L 324.789779 206.307138 
L 325.146208 206.33022 
L 325.502637 206.713122 
L 326.928354 206.57728 
L 327.284783 206.587751 
L 327.641212 206.95512 
L 327.997641 206.845124 
L 328.35407 207.132169 
L 329.066929 207.449896 
L 329.779787 207.247351 
L 330.136216 207.351136 
L 331.205504 207.23011 
L 331.561933 207.371719 
L 331.918362 207.667481 
L 332.274791 207.540404 
L 332.987649 207.562353 
L 335.482654 207.683018 
L 338.334087 207.100223 
L 338.690516 206.906925 
L 339.759803 207.170921 
L 340.116233 207.116588 
L 340.829091 207.262889 
L 341.541949 207.109896 
L 341.898378 207.115509 
L 342.254808 207.275587 
L 343.324095 207.07585 
L 343.680524 206.833384 
L 344.036953 206.806706 
L 345.106241 207.168293 
L 346.175528 207.14099 
L 346.531957 207.056313 
L 346.888387 207.121162 
L 347.244816 207.348876 
L 347.601245 207.376886 
L 349.026962 207.984239 
L 349.383391 208.015192 
L 349.73982 207.855606 
L 350.096249 207.834633 
L 350.452678 207.699213 
L 351.165536 207.65012 
L 352.591253 207.587736 
L 352.947682 207.505868 
L 353.304111 207.555939 
L 355.086257 207.148389 
L 355.442686 207.013838 
L 356.155545 207.098967 
L 356.868403 207.012505 
L 357.224832 207.129801 
L 357.93769 206.950482 
L 359.006978 207.07792 
L 359.363407 206.925756 
L 359.719836 207.034236 
L 360.076265 206.909795 
L 360.789124 207.066407 
L 361.145553 206.945071 
L 361.501982 207.118325 
L 362.927699 207.125114 
L 363.996986 207.281334 
L 365.066274 206.938378 
L 365.779132 207.20222 
L 366.135561 207.193412 
L 366.49199 207.069871 
L 366.848419 207.248362 
L 367.204848 207.266796 
L 367.561278 207.026079 
L 367.917707 206.969174 
L 368.630565 206.586411 
L 369.343423 207.058614 
L 369.699853 207.067783 
L 370.412711 206.811445 
L 370.76914 206.873738 
L 371.125569 206.741549 
L 372.194857 206.862123 
L 372.551286 206.923345 
L 372.907715 206.852109 
L 373.977002 207.053598 
L 374.333432 207.028551 
L 375.04629 207.256138 
L 375.759148 207.378078 
L 376.828436 207.376336 
L 377.184865 207.517345 
L 377.541294 207.443452 
L 378.610581 207.696164 
L 378.967011 207.645831 
L 379.32344 207.471153 
L 379.679869 207.457455 
L 380.036298 207.566384 
L 380.392727 207.348277 
L 380.749156 207.55744 
L 381.462015 207.472188 
L 381.818444 207.476465 
L 382.174873 207.32589 
L 383.957019 207.509116 
L 384.313448 207.665404 
L 385.382735 207.698015 
L 385.739165 207.942642 
L 386.452023 207.734328 
L 386.808452 207.71782 
L 387.164881 207.550184 
L 388.234169 207.49063 
L 388.590598 207.464077 
L 389.303456 207.212811 
L 389.659885 207.166798 
L 390.016314 206.991134 
L 390.729173 206.818692 
L 391.085602 206.725165 
L 395.362752 207.148241 
L 395.719181 206.975555 
L 397.144898 206.922185 
L 397.501327 207.215539 
L 399.639902 207.580863 
L 399.996331 207.528232 
L 401.422048 207.931092 
L 404.273481 207.825486 
L 405.342768 208.000419 
L 406.412056 207.727306 
L 406.768485 207.790845 
L 407.481343 207.563945 
L 407.837772 207.671344 
L 408.194201 207.609298 
L 408.90706 207.094633 
L 409.619918 207.115098 
L 410.332776 207.052554 
L 410.689206 206.848106 
L 411.758493 207.2508 
L 412.827781 207.042852 
L 413.18421 207.127594 
L 414.609926 206.79537 
L 414.966355 206.925404 
L 415.322785 206.800789 
L 415.679214 207.024258 
L 416.035643 206.9827 
L 416.748501 207.199133 
L 417.10493 207.058506 
L 417.817789 207.269154 
L 418.174218 207.380164 
L 418.530647 207.307693 
L 419.956364 207.503054 
L 419.956364 207.503054 
" style="fill:none;stroke:#1f77b4;stroke-linecap:square;stroke-width:1.5;"/>
   </g>
   <g id="patch_8">
    <path d="M 46.08 317.952 
L 46.08 188.928 
" style="fill:none;stroke:#000000;stroke-linecap:square;stroke-linejoin:miter;stroke-width:0.8;"/>
   </g>
   <g id="patch_9">
    <path d="M 437.76 317.952 
L 437.76 188.928 
" style="fill:none;stroke:#000000;stroke-linecap:square;stroke-linejoin:miter;stroke-width:0.8;"/>
   </g>
   <g id="patch_10">
    <path d="M 46.08 317.952 
L 437.76 317.952 
" style="fill:none;stroke:#000000;stroke-linecap:square;stroke-linejoin:miter;stroke-width:0.8;"/>
   </g>
   <g id="patch_11">
    <path d="M 46.08 188.928 
L 437.76 188.928 
" style="fill:none;stroke:#000000;stroke-linecap:square;stroke-linejoin:miter;stroke-width:0.8;"/>
   </g>
   <g id="text_27">
    <!-- Utilización promedio servidor D2 -->
    <g transform="translate(143.674688 182.928)scale(0.12 -0.12)">
     <use xlink:href="#DejaVuSans-85"/>
     <use x="73.193359" xlink:href="#DejaVuSans-116"/>
     <use x="112.402344" xlink:href="#DejaVuSans-105"/>
     <use x="140.185547" xlink:href="#DejaVuSans-108"/>
     <use x="167.96875" xlink:href="#DejaVuSans-105"/>
     <use x="195.751953" xlink:href="#DejaVuSans-122"/>
     <use x="248.242188" xlink:href="#DejaVuSans-97"/>
     <use x="309.521484" xlink:href="#DejaVuSans-99"/>
     <use x="364.501953" xlink:href="#DejaVuSans-105"/>
     <use x="392.285156" xlink:href="#DejaVuSans-243"/>
     <use x="453.466797" xlink:href="#DejaVuSans-110"/>
     <use x="516.845703" xlink:href="#DejaVuSans-32"/>
     <use x="548.632812" xlink:href="#DejaVuSans-112"/>
     <use x="612.109375" xlink:href="#DejaVuSans-114"/>
     <use x="653.191406" xlink:href="#DejaVuSans-111"/>
     <use x="714.373047" xlink:href="#DejaVuSans-109"/>
     <use x="811.785156" xlink:href="#DejaVuSans-101"/>
     <use x="873.308594" xlink:href="#DejaVuSans-100"/>
     <use x="936.785156" xlink:href="#DejaVuSans-105"/>
     <use x="964.568359" xlink:href="#DejaVuSans-111"/>
     <use x="1025.75" xlink:href="#DejaVuSans-32"/>
     <use x="1057.537109" xlink:href="#DejaVuSans-115"/>
     <use x="1109.636719" xlink:href="#DejaVuSans-101"/>
     <use x="1171.160156" xlink:href="#DejaVuSans-114"/>
     <use x="1212.273438" xlink:href="#DejaVuSans-118"/>
     <use x="1271.453125" xlink:href="#DejaVuSans-105"/>
     <use x="1299.236328" xlink:href="#DejaVuSans-100"/>
     <use x="1362.712891" xlink:href="#DejaVuSans-111"/>
     <use x="1423.894531" xlink:href="#DejaVuSans-114"/>
     <use x="1465.007812" xlink:href="#DejaVuSans-32"/>
     <use x="1496.794922" xlink:href="#DejaVuSans-68"/>
     <use x="1573.796875" xlink:href="#DejaVuSans-50"/>
    </g>
   </g>
  </g>
 </g>
 <defs>
  <clipPath id="p5c8d9a965d">
   <rect height="129.024" width="391.68" x="46.08" y="27.648"/>
  </clipPath>
  <clipPath id="p1a06352695">
   <rect height="129.024" width="391.68" x="46.08" y="188.928"/>
  </clipPath>
 </defs>
</svg>
