<?xml version="1.0" encoding="utf-8" standalone="no"?>
<!DOCTYPE svg PUBLIC "-//W3C//DTD SVG 1.1//EN"
  "http://www.w3.org/Graphics/SVG/1.1/DTD/svg11.dtd">
<!-- Created with matplotlib (https://matplotlib.org/) -->
<svg height="345.6pt" version="1.1" viewBox="0 0 460.8 345.6" width="460.8pt" xmlns="http://www.w3.org/2000/svg" xmlns:xlink="http://www.w3.org/1999/xlink">
 <defs>
  <style type="text/css">
*{stroke-linecap:butt;stroke-linejoin:round;}
  </style>
 </defs>
 <g id="figure_1">
  <g id="patch_1">
   <path d="M 0 345.6 
L 460.8 345.6 
L 460.8 0 
L 0 0 
z
" style="fill:#ffffff;"/>
  </g>
  <g id="axes_1">
   <g id="patch_2">
    <path d="M 46.08 156.672 
L 437.76 156.672 
L 437.76 27.648 
L 46.08 27.648 
z
" style="fill:#ffffff;"/>
   </g>
   <g id="matplotlib.axis_1">
    <g id="xtick_1">
     <g id="line2d_1">
      <path clip-path="url(#peed2518e70)" d="M 63.527207 156.672 
L 63.527207 27.648 
" style="fill:none;stroke:#b0b0b0;stroke-linecap:square;stroke-width:0.8;"/>
     </g>
     <g id="line2d_2">
      <defs>
       <path d="M 0 0 
L 0 3.5 
" id="m94a7db9739" style="stroke:#000000;stroke-width:0.8;"/>
      </defs>
      <g>
       <use style="stroke:#000000;stroke-width:0.8;" x="63.527207" xlink:href="#m94a7db9739" y="156.672"/>
      </g>
     </g>
     <g id="text_1">
      <!-- 0 -->
      <defs>
       <path d="M 31.78125 66.40625 
Q 24.171875 66.40625 20.328125 58.90625 
Q 16.5 51.421875 16.5 36.375 
Q 16.5 21.390625 20.328125 13.890625 
Q 24.171875 6.390625 31.78125 6.390625 
Q 39.453125 6.390625 43.28125 13.890625 
Q 47.125 21.390625 47.125 36.375 
Q 47.125 51.421875 43.28125 58.90625 
Q 39.453125 66.40625 31.78125 66.40625 
z
M 31.78125 74.21875 
Q 44.046875 74.21875 50.515625 64.515625 
Q 56.984375 54.828125 56.984375 36.375 
Q 56.984375 17.96875 50.515625 8.265625 
Q 44.046875 -1.421875 31.78125 -1.421875 
Q 19.53125 -1.421875 13.0625 8.265625 
Q 6.59375 17.96875 6.59375 36.375 
Q 6.59375 54.828125 13.0625 64.515625 
Q 19.53125 74.21875 31.78125 74.21875 
z
" id="DejaVuSans-48"/>
      </defs>
      <g transform="translate(60.345957 171.270437)scale(0.1 -0.1)">
       <use xlink:href="#DejaVuSans-48"/>
      </g>
     </g>
    </g>
    <g id="xtick_2">
     <g id="line2d_3">
      <path clip-path="url(#peed2518e70)" d="M 134.813038 156.672 
L 134.813038 27.648 
" style="fill:none;stroke:#b0b0b0;stroke-linecap:square;stroke-width:0.8;"/>
     </g>
     <g id="line2d_4">
      <g>
       <use style="stroke:#000000;stroke-width:0.8;" x="134.813038" xlink:href="#m94a7db9739" y="156.672"/>
      </g>
     </g>
     <g id="text_2">
      <!-- 200 -->
      <defs>
       <path d="M 19.1875 8.296875 
L 53.609375 8.296875 
L 53.609375 0 
L 7.328125 0 
L 7.328125 8.296875 
Q 12.9375 14.109375 22.625 23.890625 
Q 32.328125 33.6875 34.8125 36.53125 
Q 39.546875 41.84375 41.421875 45.53125 
Q 43.3125 49.21875 43.3125 52.78125 
Q 43.3125 58.59375 39.234375 62.25 
Q 35.15625 65.921875 28.609375 65.921875 
Q 23.96875 65.921875 18.8125 64.3125 
Q 13.671875 62.703125 7.8125 59.421875 
L 7.8125 69.390625 
Q 13.765625 71.78125 18.9375 73 
Q 24.125 74.21875 28.421875 74.21875 
Q 39.75 74.21875 46.484375 68.546875 
Q 53.21875 62.890625 53.21875 53.421875 
Q 53.21875 48.921875 51.53125 44.890625 
Q 49.859375 40.875 45.40625 35.40625 
Q 44.1875 33.984375 37.640625 27.21875 
Q 31.109375 20.453125 19.1875 8.296875 
z
" id="DejaVuSans-50"/>
      </defs>
      <g transform="translate(125.269288 171.270437)scale(0.1 -0.1)">
       <use xlink:href="#DejaVuSans-50"/>
       <use x="63.623047" xlink:href="#DejaVuSans-48"/>
       <use x="127.246094" xlink:href="#DejaVuSans-48"/>
      </g>
     </g>
    </g>
    <g id="xtick_3">
     <g id="line2d_5">
      <path clip-path="url(#peed2518e70)" d="M 206.09887 156.672 
L 206.09887 27.648 
" style="fill:none;stroke:#b0b0b0;stroke-linecap:square;stroke-width:0.8;"/>
     </g>
     <g id="line2d_6">
      <g>
       <use style="stroke:#000000;stroke-width:0.8;" x="206.09887" xlink:href="#m94a7db9739" y="156.672"/>
      </g>
     </g>
     <g id="text_3">
      <!-- 400 -->
      <defs>
       <path d="M 37.796875 64.3125 
L 12.890625 25.390625 
L 37.796875 25.390625 
z
M 35.203125 72.90625 
L 47.609375 72.90625 
L 47.609375 25.390625 
L 58.015625 25.390625 
L 58.015625 17.1875 
L 47.609375 17.1875 
L 47.609375 0 
L 37.796875 0 
L 37.796875 17.1875 
L 4.890625 17.1875 
L 4.890625 26.703125 
z
" id="DejaVuSans-52"/>
      </defs>
      <g transform="translate(196.55512 171.270437)scale(0.1 -0.1)">
       <use xlink:href="#DejaVuSans-52"/>
       <use x="63.623047" xlink:href="#DejaVuSans-48"/>
       <use x="127.246094" xlink:href="#DejaVuSans-48"/>
      </g>
     </g>
    </g>
    <g id="xtick_4">
     <g id="line2d_7">
      <path clip-path="url(#peed2518e70)" d="M 277.384701 156.672 
L 277.384701 27.648 
" style="fill:none;stroke:#b0b0b0;stroke-linecap:square;stroke-width:0.8;"/>
     </g>
     <g id="line2d_8">
      <g>
       <use style="stroke:#000000;stroke-width:0.8;" x="277.384701" xlink:href="#m94a7db9739" y="156.672"/>
      </g>
     </g>
     <g id="text_4">
      <!-- 600 -->
      <defs>
       <path d="M 33.015625 40.375 
Q 26.375 40.375 22.484375 35.828125 
Q 18.609375 31.296875 18.609375 23.390625 
Q 18.609375 15.53125 22.484375 10.953125 
Q 26.375 6.390625 33.015625 6.390625 
Q 39.65625 6.390625 43.53125 10.953125 
Q 47.40625 15.53125 47.40625 23.390625 
Q 47.40625 31.296875 43.53125 35.828125 
Q 39.65625 40.375 33.015625 40.375 
z
M 52.59375 71.296875 
L 52.59375 62.3125 
Q 48.875 64.0625 45.09375 64.984375 
Q 41.3125 65.921875 37.59375 65.921875 
Q 27.828125 65.921875 22.671875 59.328125 
Q 17.53125 52.734375 16.796875 39.40625 
Q 19.671875 43.65625 24.015625 45.921875 
Q 28.375 48.1875 33.59375 48.1875 
Q 44.578125 48.1875 50.953125 41.515625 
Q 57.328125 34.859375 57.328125 23.390625 
Q 57.328125 12.15625 50.6875 5.359375 
Q 44.046875 -1.421875 33.015625 -1.421875 
Q 20.359375 -1.421875 13.671875 8.265625 
Q 6.984375 17.96875 6.984375 36.375 
Q 6.984375 53.65625 15.1875 63.9375 
Q 23.390625 74.21875 37.203125 74.21875 
Q 40.921875 74.21875 44.703125 73.484375 
Q 48.484375 72.75 52.59375 71.296875 
z
" id="DejaVuSans-54"/>
      </defs>
      <g transform="translate(267.840951 171.270437)scale(0.1 -0.1)">
       <use xlink:href="#DejaVuSans-54"/>
       <use x="63.623047" xlink:href="#DejaVuSans-48"/>
       <use x="127.246094" xlink:href="#DejaVuSans-48"/>
      </g>
     </g>
    </g>
    <g id="xtick_5">
     <g id="line2d_9">
      <path clip-path="url(#peed2518e70)" d="M 348.670532 156.672 
L 348.670532 27.648 
" style="fill:none;stroke:#b0b0b0;stroke-linecap:square;stroke-width:0.8;"/>
     </g>
     <g id="line2d_10">
      <g>
       <use style="stroke:#000000;stroke-width:0.8;" x="348.670532" xlink:href="#m94a7db9739" y="156.672"/>
      </g>
     </g>
     <g id="text_5">
      <!-- 800 -->
      <defs>
       <path d="M 31.78125 34.625 
Q 24.75 34.625 20.71875 30.859375 
Q 16.703125 27.09375 16.703125 20.515625 
Q 16.703125 13.921875 20.71875 10.15625 
Q 24.75 6.390625 31.78125 6.390625 
Q 38.8125 6.390625 42.859375 10.171875 
Q 46.921875 13.96875 46.921875 20.515625 
Q 46.921875 27.09375 42.890625 30.859375 
Q 38.875 34.625 31.78125 34.625 
z
M 21.921875 38.8125 
Q 15.578125 40.375 12.03125 44.71875 
Q 8.5 49.078125 8.5 55.328125 
Q 8.5 64.0625 14.71875 69.140625 
Q 20.953125 74.21875 31.78125 74.21875 
Q 42.671875 74.21875 48.875 69.140625 
Q 55.078125 64.0625 55.078125 55.328125 
Q 55.078125 49.078125 51.53125 44.71875 
Q 48 40.375 41.703125 38.8125 
Q 48.828125 37.15625 52.796875 32.3125 
Q 56.78125 27.484375 56.78125 20.515625 
Q 56.78125 9.90625 50.3125 4.234375 
Q 43.84375 -1.421875 31.78125 -1.421875 
Q 19.734375 -1.421875 13.25 4.234375 
Q 6.78125 9.90625 6.78125 20.515625 
Q 6.78125 27.484375 10.78125 32.3125 
Q 14.796875 37.15625 21.921875 38.8125 
z
M 18.3125 54.390625 
Q 18.3125 48.734375 21.84375 45.5625 
Q 25.390625 42.390625 31.78125 42.390625 
Q 38.140625 42.390625 41.71875 45.5625 
Q 45.3125 48.734375 45.3125 54.390625 
Q 45.3125 60.0625 41.71875 63.234375 
Q 38.140625 66.40625 31.78125 66.40625 
Q 25.390625 66.40625 21.84375 63.234375 
Q 18.3125 60.0625 18.3125 54.390625 
z
" id="DejaVuSans-56"/>
      </defs>
      <g transform="translate(339.126782 171.270437)scale(0.1 -0.1)">
       <use xlink:href="#DejaVuSans-56"/>
       <use x="63.623047" xlink:href="#DejaVuSans-48"/>
       <use x="127.246094" xlink:href="#DejaVuSans-48"/>
      </g>
     </g>
    </g>
    <g id="xtick_6">
     <g id="line2d_11">
      <path clip-path="url(#peed2518e70)" d="M 419.956364 156.672 
L 419.956364 27.648 
" style="fill:none;stroke:#b0b0b0;stroke-linecap:square;stroke-width:0.8;"/>
     </g>
     <g id="line2d_12">
      <g>
       <use style="stroke:#000000;stroke-width:0.8;" x="419.956364" xlink:href="#m94a7db9739" y="156.672"/>
      </g>
     </g>
     <g id="text_6">
      <!-- 1000 -->
      <defs>
       <path d="M 12.40625 8.296875 
L 28.515625 8.296875 
L 28.515625 63.921875 
L 10.984375 60.40625 
L 10.984375 69.390625 
L 28.421875 72.90625 
L 38.28125 72.90625 
L 38.28125 8.296875 
L 54.390625 8.296875 
L 54.390625 0 
L 12.40625 0 
z
" id="DejaVuSans-49"/>
      </defs>
      <g transform="translate(407.231364 171.270437)scale(0.1 -0.1)">
       <use xlink:href="#DejaVuSans-49"/>
       <use x="63.623047" xlink:href="#DejaVuSans-48"/>
       <use x="127.246094" xlink:href="#DejaVuSans-48"/>
       <use x="190.869141" xlink:href="#DejaVuSans-48"/>
      </g>
     </g>
    </g>
    <g id="text_7">
     <!-- Corridas -->
     <defs>
      <path d="M 64.40625 67.28125 
L 64.40625 56.890625 
Q 59.421875 61.53125 53.78125 63.8125 
Q 48.140625 66.109375 41.796875 66.109375 
Q 29.296875 66.109375 22.65625 58.46875 
Q 16.015625 50.828125 16.015625 36.375 
Q 16.015625 21.96875 22.65625 14.328125 
Q 29.296875 6.6875 41.796875 6.6875 
Q 48.140625 6.6875 53.78125 8.984375 
Q 59.421875 11.28125 64.40625 15.921875 
L 64.40625 5.609375 
Q 59.234375 2.09375 53.4375 0.328125 
Q 47.65625 -1.421875 41.21875 -1.421875 
Q 24.65625 -1.421875 15.125 8.703125 
Q 5.609375 18.84375 5.609375 36.375 
Q 5.609375 53.953125 15.125 64.078125 
Q 24.65625 74.21875 41.21875 74.21875 
Q 47.75 74.21875 53.53125 72.484375 
Q 59.328125 70.75 64.40625 67.28125 
z
" id="DejaVuSans-67"/>
      <path d="M 30.609375 48.390625 
Q 23.390625 48.390625 19.1875 42.75 
Q 14.984375 37.109375 14.984375 27.296875 
Q 14.984375 17.484375 19.15625 11.84375 
Q 23.34375 6.203125 30.609375 6.203125 
Q 37.796875 6.203125 41.984375 11.859375 
Q 46.1875 17.53125 46.1875 27.296875 
Q 46.1875 37.015625 41.984375 42.703125 
Q 37.796875 48.390625 30.609375 48.390625 
z
M 30.609375 56 
Q 42.328125 56 49.015625 48.375 
Q 55.71875 40.765625 55.71875 27.296875 
Q 55.71875 13.875 49.015625 6.21875 
Q 42.328125 -1.421875 30.609375 -1.421875 
Q 18.84375 -1.421875 12.171875 6.21875 
Q 5.515625 13.875 5.515625 27.296875 
Q 5.515625 40.765625 12.171875 48.375 
Q 18.84375 56 30.609375 56 
z
" id="DejaVuSans-111"/>
      <path d="M 41.109375 46.296875 
Q 39.59375 47.171875 37.8125 47.578125 
Q 36.03125 48 33.890625 48 
Q 26.265625 48 22.1875 43.046875 
Q 18.109375 38.09375 18.109375 28.8125 
L 18.109375 0 
L 9.078125 0 
L 9.078125 54.6875 
L 18.109375 54.6875 
L 18.109375 46.1875 
Q 20.953125 51.171875 25.484375 53.578125 
Q 30.03125 56 36.53125 56 
Q 37.453125 56 38.578125 55.875 
Q 39.703125 55.765625 41.0625 55.515625 
z
" id="DejaVuSans-114"/>
      <path d="M 9.421875 54.6875 
L 18.40625 54.6875 
L 18.40625 0 
L 9.421875 0 
z
M 9.421875 75.984375 
L 18.40625 75.984375 
L 18.40625 64.59375 
L 9.421875 64.59375 
z
" id="DejaVuSans-105"/>
      <path d="M 45.40625 46.390625 
L 45.40625 75.984375 
L 54.390625 75.984375 
L 54.390625 0 
L 45.40625 0 
L 45.40625 8.203125 
Q 42.578125 3.328125 38.25 0.953125 
Q 33.9375 -1.421875 27.875 -1.421875 
Q 17.96875 -1.421875 11.734375 6.484375 
Q 5.515625 14.40625 5.515625 27.296875 
Q 5.515625 40.1875 11.734375 48.09375 
Q 17.96875 56 27.875 56 
Q 33.9375 56 38.25 53.625 
Q 42.578125 51.265625 45.40625 46.390625 
z
M 14.796875 27.296875 
Q 14.796875 17.390625 18.875 11.75 
Q 22.953125 6.109375 30.078125 6.109375 
Q 37.203125 6.109375 41.296875 11.75 
Q 45.40625 17.390625 45.40625 27.296875 
Q 45.40625 37.203125 41.296875 42.84375 
Q 37.203125 48.484375 30.078125 48.484375 
Q 22.953125 48.484375 18.875 42.84375 
Q 14.796875 37.203125 14.796875 27.296875 
z
" id="DejaVuSans-100"/>
      <path d="M 34.28125 27.484375 
Q 23.390625 27.484375 19.1875 25 
Q 14.984375 22.515625 14.984375 16.5 
Q 14.984375 11.71875 18.140625 8.90625 
Q 21.296875 6.109375 26.703125 6.109375 
Q 34.1875 6.109375 38.703125 11.40625 
Q 43.21875 16.703125 43.21875 25.484375 
L 43.21875 27.484375 
z
M 52.203125 31.203125 
L 52.203125 0 
L 43.21875 0 
L 43.21875 8.296875 
Q 40.140625 3.328125 35.546875 0.953125 
Q 30.953125 -1.421875 24.3125 -1.421875 
Q 15.921875 -1.421875 10.953125 3.296875 
Q 6 8.015625 6 15.921875 
Q 6 25.140625 12.171875 29.828125 
Q 18.359375 34.515625 30.609375 34.515625 
L 43.21875 34.515625 
L 43.21875 35.40625 
Q 43.21875 41.609375 39.140625 45 
Q 35.0625 48.390625 27.6875 48.390625 
Q 23 48.390625 18.546875 47.265625 
Q 14.109375 46.140625 10.015625 43.890625 
L 10.015625 52.203125 
Q 14.9375 54.109375 19.578125 55.046875 
Q 24.21875 56 28.609375 56 
Q 40.484375 56 46.34375 49.84375 
Q 52.203125 43.703125 52.203125 31.203125 
z
" id="DejaVuSans-97"/>
      <path d="M 44.28125 53.078125 
L 44.28125 44.578125 
Q 40.484375 46.53125 36.375 47.5 
Q 32.28125 48.484375 27.875 48.484375 
Q 21.1875 48.484375 17.84375 46.4375 
Q 14.5 44.390625 14.5 40.28125 
Q 14.5 37.15625 16.890625 35.375 
Q 19.28125 33.59375 26.515625 31.984375 
L 29.59375 31.296875 
Q 39.15625 29.25 43.1875 25.515625 
Q 47.21875 21.78125 47.21875 15.09375 
Q 47.21875 7.46875 41.1875 3.015625 
Q 35.15625 -1.421875 24.609375 -1.421875 
Q 20.21875 -1.421875 15.453125 -0.5625 
Q 10.6875 0.296875 5.421875 2 
L 5.421875 11.28125 
Q 10.40625 8.6875 15.234375 7.390625 
Q 20.0625 6.109375 24.8125 6.109375 
Q 31.15625 6.109375 34.5625 8.28125 
Q 37.984375 10.453125 37.984375 14.40625 
Q 37.984375 18.0625 35.515625 20.015625 
Q 33.0625 21.96875 24.703125 23.78125 
L 21.578125 24.515625 
Q 13.234375 26.265625 9.515625 29.90625 
Q 5.8125 33.546875 5.8125 39.890625 
Q 5.8125 47.609375 11.28125 51.796875 
Q 16.75 56 26.8125 56 
Q 31.78125 56 36.171875 55.265625 
Q 40.578125 54.546875 44.28125 53.078125 
z
" id="DejaVuSans-115"/>
     </defs>
     <g transform="translate(221.027031 184.948562)scale(0.1 -0.1)">
      <use xlink:href="#DejaVuSans-67"/>
      <use x="69.824219" xlink:href="#DejaVuSans-111"/>
      <use x="131.005859" xlink:href="#DejaVuSans-114"/>
      <use x="172.103516" xlink:href="#DejaVuSans-114"/>
      <use x="213.216797" xlink:href="#DejaVuSans-105"/>
      <use x="241" xlink:href="#DejaVuSans-100"/>
      <use x="304.476562" xlink:href="#DejaVuSans-97"/>
      <use x="365.755859" xlink:href="#DejaVuSans-115"/>
     </g>
    </g>
   </g>
   <g id="matplotlib.axis_2">
    <g id="ytick_1">
     <g id="line2d_13">
      <path clip-path="url(#peed2518e70)" d="M 46.08 156.555618 
L 437.76 156.555618 
" style="fill:none;stroke:#b0b0b0;stroke-linecap:square;stroke-width:0.8;"/>
     </g>
     <g id="line2d_14">
      <defs>
       <path d="M 0 0 
L -3.5 0 
" id="mdb2bc57f1c" style="stroke:#000000;stroke-width:0.8;"/>
      </defs>
      <g>
       <use style="stroke:#000000;stroke-width:0.8;" x="46.08" xlink:href="#mdb2bc57f1c" y="156.555618"/>
      </g>
     </g>
     <g id="text_8">
      <!-- 0.250 -->
      <defs>
       <path d="M 10.6875 12.40625 
L 21 12.40625 
L 21 0 
L 10.6875 0 
z
" id="DejaVuSans-46"/>
       <path d="M 10.796875 72.90625 
L 49.515625 72.90625 
L 49.515625 64.59375 
L 19.828125 64.59375 
L 19.828125 46.734375 
Q 21.96875 47.46875 24.109375 47.828125 
Q 26.265625 48.1875 28.421875 48.1875 
Q 40.625 48.1875 47.75 41.5 
Q 54.890625 34.8125 54.890625 23.390625 
Q 54.890625 11.625 47.5625 5.09375 
Q 40.234375 -1.421875 26.90625 -1.421875 
Q 22.3125 -1.421875 17.546875 -0.640625 
Q 12.796875 0.140625 7.71875 1.703125 
L 7.71875 11.625 
Q 12.109375 9.234375 16.796875 8.0625 
Q 21.484375 6.890625 26.703125 6.890625 
Q 35.15625 6.890625 40.078125 11.328125 
Q 45.015625 15.765625 45.015625 23.390625 
Q 45.015625 31 40.078125 35.4375 
Q 35.15625 39.890625 26.703125 39.890625 
Q 22.75 39.890625 18.8125 39.015625 
Q 14.890625 38.140625 10.796875 36.28125 
z
" id="DejaVuSans-53"/>
      </defs>
      <g transform="translate(10.451875 160.354837)scale(0.1 -0.1)">
       <use xlink:href="#DejaVuSans-48"/>
       <use x="63.623047" xlink:href="#DejaVuSans-46"/>
       <use x="95.410156" xlink:href="#DejaVuSans-50"/>
       <use x="159.033203" xlink:href="#DejaVuSans-53"/>
       <use x="222.65625" xlink:href="#DejaVuSans-48"/>
      </g>
     </g>
    </g>
    <g id="ytick_2">
     <g id="line2d_15">
      <path clip-path="url(#peed2518e70)" d="M 46.08 120.44974 
L 437.76 120.44974 
" style="fill:none;stroke:#b0b0b0;stroke-linecap:square;stroke-width:0.8;"/>
     </g>
     <g id="line2d_16">
      <g>
       <use style="stroke:#000000;stroke-width:0.8;" x="46.08" xlink:href="#mdb2bc57f1c" y="120.44974"/>
      </g>
     </g>
     <g id="text_9">
      <!-- 0.255 -->
      <g transform="translate(10.451875 124.248958)scale(0.1 -0.1)">
       <use xlink:href="#DejaVuSans-48"/>
       <use x="63.623047" xlink:href="#DejaVuSans-46"/>
       <use x="95.410156" xlink:href="#DejaVuSans-50"/>
       <use x="159.033203" xlink:href="#DejaVuSans-53"/>
       <use x="222.65625" xlink:href="#DejaVuSans-53"/>
      </g>
     </g>
    </g>
    <g id="ytick_3">
     <g id="line2d_17">
      <path clip-path="url(#peed2518e70)" d="M 46.08 84.343861 
L 437.76 84.343861 
" style="fill:none;stroke:#b0b0b0;stroke-linecap:square;stroke-width:0.8;"/>
     </g>
     <g id="line2d_18">
      <g>
       <use style="stroke:#000000;stroke-width:0.8;" x="46.08" xlink:href="#mdb2bc57f1c" y="84.343861"/>
      </g>
     </g>
     <g id="text_10">
      <!-- 0.260 -->
      <g transform="translate(10.451875 88.143079)scale(0.1 -0.1)">
       <use xlink:href="#DejaVuSans-48"/>
       <use x="63.623047" xlink:href="#DejaVuSans-46"/>
       <use x="95.410156" xlink:href="#DejaVuSans-50"/>
       <use x="159.033203" xlink:href="#DejaVuSans-54"/>
       <use x="222.65625" xlink:href="#DejaVuSans-48"/>
      </g>
     </g>
    </g>
    <g id="ytick_4">
     <g id="line2d_19">
      <path clip-path="url(#peed2518e70)" d="M 46.08 48.237982 
L 437.76 48.237982 
" style="fill:none;stroke:#b0b0b0;stroke-linecap:square;stroke-width:0.8;"/>
     </g>
     <g id="line2d_20">
      <g>
       <use style="stroke:#000000;stroke-width:0.8;" x="46.08" xlink:href="#mdb2bc57f1c" y="48.237982"/>
      </g>
     </g>
     <g id="text_11">
      <!-- 0.265 -->
      <g transform="translate(10.451875 52.0372)scale(0.1 -0.1)">
       <use xlink:href="#DejaVuSans-48"/>
       <use x="63.623047" xlink:href="#DejaVuSans-46"/>
       <use x="95.410156" xlink:href="#DejaVuSans-50"/>
       <use x="159.033203" xlink:href="#DejaVuSans-54"/>
       <use x="222.65625" xlink:href="#DejaVuSans-53"/>
      </g>
     </g>
    </g>
    <g id="text_12">
     <!-- Utilización -->
     <defs>
      <path d="M 8.6875 72.90625 
L 18.609375 72.90625 
L 18.609375 28.609375 
Q 18.609375 16.890625 22.84375 11.734375 
Q 27.09375 6.59375 36.625 6.59375 
Q 46.09375 6.59375 50.34375 11.734375 
Q 54.59375 16.890625 54.59375 28.609375 
L 54.59375 72.90625 
L 64.5 72.90625 
L 64.5 27.390625 
Q 64.5 13.140625 57.4375 5.859375 
Q 50.390625 -1.421875 36.625 -1.421875 
Q 22.796875 -1.421875 15.734375 5.859375 
Q 8.6875 13.140625 8.6875 27.390625 
z
" id="DejaVuSans-85"/>
      <path d="M 18.3125 70.21875 
L 18.3125 54.6875 
L 36.8125 54.6875 
L 36.8125 47.703125 
L 18.3125 47.703125 
L 18.3125 18.015625 
Q 18.3125 11.328125 20.140625 9.421875 
Q 21.96875 7.515625 27.59375 7.515625 
L 36.8125 7.515625 
L 36.8125 0 
L 27.59375 0 
Q 17.1875 0 13.234375 3.875 
Q 9.28125 7.765625 9.28125 18.015625 
L 9.28125 47.703125 
L 2.6875 47.703125 
L 2.6875 54.6875 
L 9.28125 54.6875 
L 9.28125 70.21875 
z
" id="DejaVuSans-116"/>
      <path d="M 9.421875 75.984375 
L 18.40625 75.984375 
L 18.40625 0 
L 9.421875 0 
z
" id="DejaVuSans-108"/>
      <path d="M 5.515625 54.6875 
L 48.1875 54.6875 
L 48.1875 46.484375 
L 14.40625 7.171875 
L 48.1875 7.171875 
L 48.1875 0 
L 4.296875 0 
L 4.296875 8.203125 
L 38.09375 47.515625 
L 5.515625 47.515625 
z
" id="DejaVuSans-122"/>
      <path d="M 48.78125 52.59375 
L 48.78125 44.1875 
Q 44.96875 46.296875 41.140625 47.34375 
Q 37.3125 48.390625 33.40625 48.390625 
Q 24.65625 48.390625 19.8125 42.84375 
Q 14.984375 37.3125 14.984375 27.296875 
Q 14.984375 17.28125 19.8125 11.734375 
Q 24.65625 6.203125 33.40625 6.203125 
Q 37.3125 6.203125 41.140625 7.25 
Q 44.96875 8.296875 48.78125 10.40625 
L 48.78125 2.09375 
Q 45.015625 0.34375 40.984375 -0.53125 
Q 36.96875 -1.421875 32.421875 -1.421875 
Q 20.0625 -1.421875 12.78125 6.34375 
Q 5.515625 14.109375 5.515625 27.296875 
Q 5.515625 40.671875 12.859375 48.328125 
Q 20.21875 56 33.015625 56 
Q 37.15625 56 41.109375 55.140625 
Q 45.0625 54.296875 48.78125 52.59375 
z
" id="DejaVuSans-99"/>
      <path d="M 30.609375 48.390625 
Q 23.390625 48.390625 19.1875 42.75 
Q 14.984375 37.109375 14.984375 27.296875 
Q 14.984375 17.484375 19.15625 11.84375 
Q 23.34375 6.203125 30.609375 6.203125 
Q 37.796875 6.203125 41.984375 11.859375 
Q 46.1875 17.53125 46.1875 27.296875 
Q 46.1875 37.015625 41.984375 42.703125 
Q 37.796875 48.390625 30.609375 48.390625 
z
M 30.609375 56 
Q 42.328125 56 49.015625 48.375 
Q 55.71875 40.765625 55.71875 27.296875 
Q 55.71875 13.875 49.015625 6.21875 
Q 42.328125 -1.421875 30.609375 -1.421875 
Q 18.84375 -1.421875 12.171875 6.21875 
Q 5.515625 13.875 5.515625 27.296875 
Q 5.515625 40.765625 12.171875 48.375 
Q 18.84375 56 30.609375 56 
z
M 37.40625 79.984375 
L 47.125 79.984375 
L 31.21875 61.625 
L 23.734375 61.625 
z
" id="DejaVuSans-243"/>
      <path d="M 54.890625 33.015625 
L 54.890625 0 
L 45.90625 0 
L 45.90625 32.71875 
Q 45.90625 40.484375 42.875 44.328125 
Q 39.84375 48.1875 33.796875 48.1875 
Q 26.515625 48.1875 22.3125 43.546875 
Q 18.109375 38.921875 18.109375 30.90625 
L 18.109375 0 
L 9.078125 0 
L 9.078125 54.6875 
L 18.109375 54.6875 
L 18.109375 46.1875 
Q 21.34375 51.125 25.703125 53.5625 
Q 30.078125 56 35.796875 56 
Q 45.21875 56 50.046875 50.171875 
Q 54.890625 44.34375 54.890625 33.015625 
z
" id="DejaVuSans-110"/>
     </defs>
     <g transform="translate(4.372188 118.001406)rotate(-90)scale(0.1 -0.1)">
      <use xlink:href="#DejaVuSans-85"/>
      <use x="73.193359" xlink:href="#DejaVuSans-116"/>
      <use x="112.402344" xlink:href="#DejaVuSans-105"/>
      <use x="140.185547" xlink:href="#DejaVuSans-108"/>
      <use x="167.96875" xlink:href="#DejaVuSans-105"/>
      <use x="195.751953" xlink:href="#DejaVuSans-122"/>
      <use x="248.242188" xlink:href="#DejaVuSans-97"/>
      <use x="309.521484" xlink:href="#DejaVuSans-99"/>
      <use x="364.501953" xlink:href="#DejaVuSans-105"/>
      <use x="392.285156" xlink:href="#DejaVuSans-243"/>
      <use x="453.466797" xlink:href="#DejaVuSans-110"/>
     </g>
    </g>
   </g>
   <g id="line2d_21">
    <path clip-path="url(#peed2518e70)" d="M 63.883636 128.742886 
L 64.240066 33.512727 
L 64.596495 62.021839 
L 64.952924 65.547757 
L 65.309353 99.395153 
L 65.665782 90.701674 
L 66.022211 95.693371 
L 66.73507 109.839321 
L 67.091499 106.383508 
L 67.804357 92.089209 
L 68.160786 89.957107 
L 68.517215 104.529551 
L 68.873645 105.822732 
L 69.230074 106.368797 
L 69.586503 111.119462 
L 69.942932 109.000232 
L 70.299361 115.515775 
L 70.65579 115.003991 
L 71.012219 120.530382 
L 71.368649 121.271262 
L 71.725078 123.059835 
L 72.081507 120.158001 
L 72.437936 124.216464 
L 72.794365 124.655655 
L 73.507224 120.327035 
L 73.863653 125.5841 
L 74.576511 129.663433 
L 74.93294 134.312492 
L 75.289369 136.737708 
L 75.645799 133.777667 
L 76.002228 133.419064 
L 76.358657 130.362673 
L 76.715086 130.711491 
L 77.071515 130.314712 
L 77.427944 124.455162 
L 77.784373 123.490242 
L 78.140803 125.850771 
L 78.497232 123.446497 
L 78.853661 125.271711 
L 79.21009 119.907253 
L 79.922948 122.798048 
L 80.279378 123.428026 
L 80.635807 122.169981 
L 80.992236 118.624227 
L 81.705094 122.014789 
L 82.061523 117.084721 
L 82.417952 119.460554 
L 83.130811 119.798375 
L 83.48724 120.986339 
L 83.843669 119.123913 
L 84.200098 120.702315 
L 84.556527 118.783637 
L 84.912957 118.060457 
L 85.269386 119.868809 
L 85.625815 120.56557 
L 85.982244 119.176185 
L 86.338673 119.957353 
L 86.695102 119.530434 
L 87.051532 117.146255 
L 87.407961 116.240159 
L 87.76439 115.770504 
L 88.120819 115.064503 
L 88.477248 115.043929 
L 88.833677 115.480978 
L 89.190106 118.492915 
L 89.546536 120.504742 
L 89.902965 119.898546 
L 90.615823 121.723438 
L 90.972252 121.927997 
L 91.328681 122.60374 
L 91.685111 122.46585 
L 92.04154 124.345978 
L 92.397969 125.142958 
L 92.754398 126.919253 
L 93.110827 126.986601 
L 93.467256 127.580483 
L 93.823686 127.461377 
L 94.536544 127.681957 
L 94.892973 127.354784 
L 95.249402 127.42674 
L 95.605831 126.224011 
L 95.96226 126.172301 
L 96.31869 127.401464 
L 96.675119 130.070988 
L 97.031548 129.339009 
L 97.387977 129.136692 
L 97.744406 128.572799 
L 98.100835 127.76225 
L 98.457265 127.401104 
L 98.813694 129.352603 
L 99.170123 128.639999 
L 99.526552 128.748343 
L 99.882981 128.260624 
L 100.23941 128.089455 
L 100.595839 130.433495 
L 100.952269 130.908499 
L 101.308698 129.697036 
L 101.665127 128.004397 
L 102.021556 128.231427 
L 102.377985 127.485621 
L 102.734414 128.44083 
L 103.090844 127.056289 
L 103.803702 129.060826 
L 104.51656 128.77754 
L 104.872989 129.191695 
L 105.229419 128.983373 
L 105.585848 129.070191 
L 105.942277 128.744324 
L 106.298706 129.177491 
L 106.655135 129.27024 
L 107.011564 129.810763 
L 107.367993 130.61719 
L 107.724423 130.98836 
L 108.080852 130.441388 
L 108.437281 131.594954 
L 108.79371 131.426292 
L 109.506568 132.944473 
L 109.862998 132.899256 
L 110.219427 133.299871 
L 110.575856 134.366844 
L 110.932285 134.958651 
L 111.288714 135.330587 
L 112.001572 136.33159 
L 112.358002 135.764062 
L 112.714431 135.758615 
L 113.07086 136.408228 
L 113.783718 136.451589 
L 114.140147 135.96786 
L 114.496577 135.855439 
L 114.853006 136.059958 
L 115.209435 135.579496 
L 115.565864 135.895445 
L 115.922293 136.596445 
L 116.635152 137.235112 
L 116.991581 137.109886 
L 117.34801 137.647923 
L 117.704439 137.058048 
L 118.060868 137.624736 
L 118.417297 136.622147 
L 118.773726 136.375441 
L 119.130156 136.409886 
L 119.486585 136.866596 
L 119.843014 137.069866 
L 120.199443 137.957783 
L 120.555872 137.850337 
L 120.912301 138.396768 
L 121.268731 139.232501 
L 121.62516 139.455971 
L 121.981589 140.147748 
L 122.338018 140.395847 
L 122.694447 140.858809 
L 123.050876 141.855416 
L 123.407305 141.669285 
L 123.763735 142.330803 
L 124.120164 141.880417 
L 124.476593 141.632078 
L 124.833022 141.578041 
L 125.189451 140.963157 
L 125.54588 139.90031 
L 125.90231 139.619337 
L 126.258739 139.934567 
L 126.615168 139.627363 
L 126.971597 139.070322 
L 127.328026 137.990006 
L 127.684455 138.596982 
L 128.040885 138.474523 
L 129.110172 140.254964 
L 129.466601 140.536903 
L 129.82303 141.598961 
L 130.535889 141.908322 
L 130.892318 141.168652 
L 131.605176 140.692177 
L 131.961605 140.708602 
L 132.318034 140.507888 
L 132.674464 141.145744 
L 133.030893 141.262425 
L 133.743751 140.173319 
L 134.10018 140.616283 
L 134.456609 140.700394 
L 135.525897 140.101132 
L 135.882326 140.57788 
L 136.238755 140.615204 
L 136.595184 141.998773 
L 137.308043 140.980667 
L 137.664472 141.05239 
L 138.020901 140.820086 
L 138.37733 140.732823 
L 139.803047 142.049567 
L 140.515905 141.25625 
L 140.872334 141.420754 
L 141.941622 140.531514 
L 142.298051 140.946614 
L 143.010909 141.143346 
L 143.367338 140.91828 
L 143.723767 140.350061 
L 144.080197 140.794959 
L 144.793055 142.218496 
L 145.505913 141.697319 
L 145.862342 141.808594 
L 146.218771 142.090124 
L 146.575201 141.921664 
L 146.93163 141.907862 
L 147.644488 140.657061 
L 148.000917 141.108209 
L 148.357346 141.157549 
L 149.426634 140.236511 
L 150.139492 141.570503 
L 150.495921 142.141065 
L 151.20878 142.126724 
L 151.565209 142.737422 
L 152.278067 143.085359 
L 152.634496 143.559377 
L 152.990925 143.747373 
L 153.347355 143.716968 
L 153.703784 143.55956 
L 154.060213 143.671989 
L 154.416642 143.155169 
L 154.773071 143.32213 
L 155.1295 143.115657 
L 155.842359 143.426906 
L 156.198788 142.992273 
L 156.555217 142.868856 
L 156.911646 142.404189 
L 157.268075 142.511337 
L 157.980934 142.073815 
L 158.337363 142.540143 
L 158.693792 143.231684 
L 159.050221 142.766229 
L 159.40665 142.692527 
L 159.763079 143.138008 
L 160.119509 142.96832 
L 160.475938 143.656073 
L 160.832367 144.066156 
L 161.188796 143.642255 
L 161.545225 144.249071 
L 161.901654 143.455038 
L 162.258084 143.390333 
L 162.970942 143.648172 
L 163.327371 143.210405 
L 164.040229 143.282681 
L 164.753088 142.926451 
L 165.109517 142.697922 
L 165.822375 143.041272 
L 166.178804 143.031403 
L 167.248092 143.616433 
L 167.604521 143.373284 
L 167.96095 143.438448 
L 168.317379 144.360703 
L 168.673808 144.257565 
L 169.030238 145.078155 
L 169.386667 145.455667 
L 170.455954 145.564657 
L 170.812383 144.706411 
L 171.168812 144.500041 
L 171.525242 144.62643 
L 171.881671 144.886 
L 172.2381 144.640899 
L 172.594529 144.896667 
L 172.950958 144.956843 
L 173.663817 144.830135 
L 174.020246 144.340579 
L 174.376675 144.200911 
L 174.733104 144.424835 
L 175.445962 143.916446 
L 175.802391 144.332306 
L 176.51525 143.650805 
L 176.871679 143.954682 
L 177.228108 143.439134 
L 177.584537 143.230827 
L 177.940966 143.530767 
L 178.297396 143.668189 
L 178.653825 143.93377 
L 179.010254 143.684065 
L 179.366683 143.133677 
L 179.723112 142.972891 
L 180.079541 143.333508 
L 180.435971 143.875114 
L 180.7924 143.599316 
L 181.148829 143.105177 
L 181.861687 143.352387 
L 182.218116 143.180683 
L 182.574545 143.848309 
L 183.287404 143.59335 
L 184.000262 144.464167 
L 184.356691 144.842356 
L 184.71312 144.431061 
L 186.138837 143.795278 
L 186.495266 143.979104 
L 186.851695 143.926342 
L 187.208124 144.108628 
L 187.564554 144.812154 
L 187.920983 144.927072 
L 188.277412 144.913333 
L 188.633841 145.192411 
L 189.346699 145.410861 
L 189.703129 145.661148 
L 190.059558 145.70251 
L 190.415987 145.999217 
L 190.772416 146.118793 
L 191.128845 145.85094 
L 191.485274 145.814624 
L 191.841704 145.524949 
L 193.623849 146.210569 
L 193.980278 146.516112 
L 194.336708 147.038404 
L 194.693137 147.100498 
L 195.049566 146.897591 
L 195.405995 146.896396 
L 196.118853 147.241008 
L 196.475283 147.180867 
L 197.188141 146.767351 
L 197.54457 146.90304 
L 197.900999 146.889139 
L 198.257428 146.494871 
L 198.970287 147.192298 
L 199.683145 147.474575 
L 200.039574 147.198176 
L 200.396003 147.271242 
L 200.752432 147.59103 
L 201.82172 146.803034 
L 202.178149 146.854974 
L 202.534578 147.189807 
L 202.891007 147.204802 
L 203.247437 146.612639 
L 203.603866 146.863108 
L 203.960295 146.406668 
L 204.673153 146.455854 
L 205.029582 146.943482 
L 206.811728 147.022099 
L 207.168157 146.541849 
L 207.524586 146.419458 
L 207.881016 146.773185 
L 208.237445 146.794831 
L 208.593874 146.363454 
L 209.306732 146.298127 
L 209.663161 145.841691 
L 210.01959 146.041496 
L 210.37602 145.682226 
L 211.088878 146.53564 
L 211.445307 146.457182 
L 212.158165 146.779843 
L 212.514595 146.609355 
L 212.871024 146.67236 
L 213.227453 146.43568 
L 213.583882 146.72905 
L 213.940311 146.752893 
L 214.29674 146.962181 
L 215.009599 147.099116 
L 215.366028 146.790874 
L 215.722457 146.732561 
L 216.078886 147.001651 
L 216.435315 147.013474 
L 217.148174 146.584301 
L 217.504603 146.642649 
L 217.861032 146.869269 
L 218.57389 146.862384 
L 218.930319 146.794556 
L 219.286749 147.102891 
L 219.643178 147.100098 
L 219.999607 147.288806 
L 220.356036 147.131007 
L 220.712465 147.418859 
L 221.068894 147.384219 
L 221.425324 147.131457 
L 221.781753 147.568405 
L 222.138182 147.456493 
L 222.494611 147.528384 
L 222.85104 147.449348 
L 223.207469 147.051898 
L 223.563898 147.109203 
L 224.633186 147.657068 
L 224.989615 147.331387 
L 225.346044 147.372469 
L 225.702473 147.26414 
L 227.484619 148.074993 
L 227.841048 148.06019 
L 228.197477 147.713919 
L 228.553907 147.891588 
L 229.979623 147.698921 
L 230.336052 148.131047 
L 230.692482 148.20973 
L 231.048911 147.997703 
L 231.40534 148.135152 
L 231.761769 148.00419 
L 233.187486 148.133181 
L 233.543915 148.551487 
L 233.900344 148.453876 
L 234.256773 148.102127 
L 236.038919 147.834294 
L 236.395348 147.570138 
L 237.108206 147.642664 
L 237.464636 147.475172 
L 238.177494 147.45544 
L 238.533923 147.716826 
L 238.890352 147.498529 
L 239.60321 147.704948 
L 239.95964 147.534393 
L 240.316069 147.70985 
L 240.672498 147.507184 
L 241.385356 147.433298 
L 241.741785 147.626646 
L 242.098215 147.642536 
L 242.454644 147.786954 
L 242.811073 147.636885 
L 243.88036 147.682425 
L 244.593219 148.173966 
L 244.949648 147.952376 
L 245.306077 147.866853 
L 245.662506 148.117421 
L 246.375364 148.170816 
L 246.731794 147.548441 
L 248.15751 147.734512 
L 248.513939 147.371847 
L 250.652514 147.124427 
L 251.008943 146.977567 
L 251.365373 147.241658 
L 252.791089 147.248734 
L 253.147518 146.825362 
L 253.860377 146.98696 
L 254.216806 146.803573 
L 254.573235 146.988304 
L 255.642523 147.010997 
L 255.998952 147.266464 
L 256.355381 147.705092 
L 256.71181 147.763531 
L 257.068239 148.038997 
L 257.424668 147.917937 
L 257.781097 148.068127 
L 258.493956 147.586459 
L 259.206814 148.240689 
L 259.563243 147.966583 
L 259.919672 148.035961 
L 260.276102 148.303821 
L 260.632531 148.115644 
L 260.98896 148.166426 
L 261.701818 148.539184 
L 262.414676 148.707381 
L 262.771106 148.682039 
L 263.127535 148.85098 
L 263.840393 148.955329 
L 264.196822 149.246941 
L 264.553251 149.210968 
L 264.909681 149.035768 
L 265.622539 149.253212 
L 265.978968 149.758905 
L 267.048256 149.45096 
L 267.404685 149.53923 
L 267.761114 149.465013 
L 268.117543 149.552779 
L 268.473972 149.383593 
L 268.830401 149.567158 
L 269.18683 149.391264 
L 269.54326 149.493061 
L 269.899689 149.359664 
L 270.256118 149.348995 
L 270.612547 149.165005 
L 270.968976 149.241662 
L 271.325405 149.678032 
L 272.038264 149.472704 
L 272.751122 149.212252 
L 273.107551 149.407264 
L 273.46398 149.340062 
L 273.82041 149.471203 
L 274.176839 149.432638 
L 274.533268 149.600348 
L 275.246126 149.243461 
L 276.315414 149.684061 
L 276.671843 149.455938 
L 277.74113 149.159201 
L 278.097559 149.383985 
L 278.810418 149.275985 
L 279.166847 149.098816 
L 279.879705 149.054337 
L 280.592563 148.380719 
L 280.948993 148.452804 
L 281.305422 148.746915 
L 282.731138 148.96585 
L 283.087568 148.891512 
L 284.156855 149.316686 
L 284.869713 149.315888 
L 285.226143 149.197253 
L 285.582572 149.253118 
L 285.939001 148.85564 
L 286.29543 149.02228 
L 286.651859 149.009983 
L 287.008288 148.880685 
L 287.364717 149.218998 
L 288.077576 149.142358 
L 288.790434 149.398203 
L 289.859722 149.444628 
L 290.216151 149.584715 
L 290.57258 149.509167 
L 290.929009 149.621098 
L 291.285438 149.537211 
L 291.641867 149.268146 
L 291.998296 149.504206 
L 292.354726 149.593444 
L 293.067584 149.954256 
L 293.424013 149.777965 
L 294.493301 150.288669 
L 294.84973 150.383549 
L 295.206159 150.210992 
L 295.562588 150.252307 
L 296.275446 149.784491 
L 296.988305 149.944005 
L 297.344734 149.675912 
L 297.701163 149.588463 
L 298.414021 149.025526 
L 298.77045 149.013234 
L 301.265455 148.093403 
L 301.621884 148.315313 
L 302.334742 148.375782 
L 303.760459 147.968405 
L 304.116888 148.064186 
L 304.473317 148.311946 
L 305.186175 148.451155 
L 305.542604 148.237037 
L 306.255463 148.363411 
L 306.611892 148.262023 
L 307.32475 148.318234 
L 308.037609 147.99073 
L 308.750467 148.149685 
L 309.463325 148.536933 
L 310.176183 148.224163 
L 310.532613 148.470814 
L 311.6019 148.329005 
L 311.958329 148.441586 
L 312.671188 148.319018 
L 313.027617 148.242607 
L 313.384046 148.324312 
L 313.740475 148.5548 
L 314.453333 148.480387 
L 314.809762 148.496075 
L 315.166192 148.678397 
L 316.235479 148.780446 
L 316.591908 149.01905 
L 316.948337 149.121426 
L 317.304767 149.081368 
L 317.661196 149.345907 
L 318.017625 149.246843 
L 318.374054 149.475149 
L 319.443342 149.273932 
L 319.799771 149.242504 
L 320.1562 149.067429 
L 320.512629 149.028208 
L 320.869058 148.864798 
L 321.225487 149.011547 
L 321.938346 148.957562 
L 322.294775 149.078246 
L 322.651204 149.076081 
L 323.007633 149.250699 
L 324.789779 149.149326 
L 325.502637 149.028374 
L 325.859066 148.985282 
L 326.571925 149.157235 
L 326.928354 148.992033 
L 328.7105 149.019084 
L 329.066929 148.877452 
L 330.136216 149.117544 
L 330.492645 149.111707 
L 331.918362 148.599507 
L 332.274791 148.597322 
L 332.987649 148.235796 
L 333.344079 148.399417 
L 335.126224 148.529628 
L 335.482654 148.394123 
L 335.839083 148.599045 
L 338.334087 148.704943 
L 339.046945 148.432288 
L 339.403374 148.425742 
L 339.759803 148.588776 
L 341.541949 148.64448 
L 342.611237 148.399124 
L 343.324095 148.10915 
L 343.680524 148.058902 
L 344.393382 148.246536 
L 345.46267 148.2932 
L 345.819099 148.551823 
L 346.175528 148.434212 
L 346.888387 148.591456 
L 347.244816 148.329183 
L 348.314103 148.392823 
L 348.670532 148.655542 
L 350.809107 148.791879 
L 351.165536 149.047099 
L 351.521966 148.972686 
L 351.878395 149.074642 
L 352.947682 148.97621 
L 353.304111 149.16229 
L 353.660541 149.072828 
L 354.373399 149.13875 
L 355.442686 148.937716 
L 355.799115 149.001867 
L 356.511974 148.853713 
L 357.224832 149.058605 
L 357.581261 149.039619 
L 357.93769 149.207038 
L 358.29412 149.100739 
L 359.006978 149.125134 
L 359.363407 148.948662 
L 359.719836 148.913312 
L 360.432695 148.583283 
L 360.789124 148.724827 
L 361.501982 148.476315 
L 365.066274 148.990555 
L 365.422703 148.861246 
L 365.779132 148.883591 
L 366.135561 148.785505 
L 366.848419 148.961535 
L 367.204848 148.980552 
L 367.561278 148.876768 
L 367.917707 148.912198 
L 368.274136 149.090774 
L 368.986994 148.805522 
L 369.343423 148.970942 
L 369.699853 149.000147 
L 370.056282 148.835401 
L 370.412711 148.836438 
L 370.76914 148.97742 
L 371.838428 148.76598 
L 373.264144 149.158579 
L 373.620573 149.096569 
L 374.333432 149.252214 
L 374.689861 149.186192 
L 375.04629 149.000252 
L 376.115577 149.033876 
L 376.828436 149.117713 
L 377.897723 149.061322 
L 378.254152 149.151015 
L 378.610581 149.007274 
L 382.174873 149.446031 
L 382.887731 149.171983 
L 383.244161 149.063137 
L 383.60059 149.17613 
L 384.313448 148.977792 
L 386.095594 149.274619 
L 386.452023 149.227815 
L 386.808452 149.299399 
L 387.164881 149.183529 
L 387.52131 149.306046 
L 388.590598 149.208744 
L 388.947027 149.379041 
L 390.016314 149.275651 
L 390.372744 149.228596 
L 391.085602 149.507033 
L 392.511319 149.247746 
L 392.867748 149.320741 
L 393.580606 149.12598 
L 395.006323 149.508211 
L 395.362752 149.492811 
L 396.432039 149.928586 
L 397.144898 149.757397 
L 398.214185 149.989774 
L 398.927043 149.995541 
L 399.283473 149.757939 
L 399.996331 149.815269 
L 400.35276 149.759379 
L 401.065618 149.876601 
L 401.778477 149.757299 
L 403.204193 149.577262 
L 404.986339 149.711882 
L 405.699197 149.85288 
L 407.124914 149.920459 
L 408.194201 150.222581 
L 409.619918 150.072497 
L 410.332776 150.124094 
L 412.114922 150.12159 
L 412.471351 150.230284 
L 412.827781 150.199786 
L 413.18421 150.037674 
L 414.253497 150.362465 
L 414.609926 150.223556 
L 416.392072 150.359817 
L 417.10493 150.322721 
L 417.46136 150.321428 
L 418.887076 150.80095 
L 419.599934 150.773969 
L 419.956364 150.708611 
L 419.956364 150.708611 
" style="fill:none;stroke:#1f77b4;stroke-linecap:square;stroke-width:1.5;"/>
   </g>
   <g id="patch_3">
    <path d="M 46.08 156.672 
L 46.08 27.648 
" style="fill:none;stroke:#000000;stroke-linecap:square;stroke-linejoin:miter;stroke-width:0.8;"/>
   </g>
   <g id="patch_4">
    <path d="M 437.76 156.672 
L 437.76 27.648 
" style="fill:none;stroke:#000000;stroke-linecap:square;stroke-linejoin:miter;stroke-width:0.8;"/>
   </g>
   <g id="patch_5">
    <path d="M 46.08 156.672 
L 437.76 156.672 
" style="fill:none;stroke:#000000;stroke-linecap:square;stroke-linejoin:miter;stroke-width:0.8;"/>
   </g>
   <g id="patch_6">
    <path d="M 46.08 27.648 
L 437.76 27.648 
" style="fill:none;stroke:#000000;stroke-linecap:square;stroke-linejoin:miter;stroke-width:0.8;"/>
   </g>
   <g id="text_13">
    <!-- Utilización promedio servidor D1 -->
    <defs>
     <path id="DejaVuSans-32"/>
     <path d="M 18.109375 8.203125 
L 18.109375 -20.796875 
L 9.078125 -20.796875 
L 9.078125 54.6875 
L 18.109375 54.6875 
L 18.109375 46.390625 
Q 20.953125 51.265625 25.265625 53.625 
Q 29.59375 56 35.59375 56 
Q 45.5625 56 51.78125 48.09375 
Q 58.015625 40.1875 58.015625 27.296875 
Q 58.015625 14.40625 51.78125 6.484375 
Q 45.5625 -1.421875 35.59375 -1.421875 
Q 29.59375 -1.421875 25.265625 0.953125 
Q 20.953125 3.328125 18.109375 8.203125 
z
M 48.6875 27.296875 
Q 48.6875 37.203125 44.609375 42.84375 
Q 40.53125 48.484375 33.40625 48.484375 
Q 26.265625 48.484375 22.1875 42.84375 
Q 18.109375 37.203125 18.109375 27.296875 
Q 18.109375 17.390625 22.1875 11.75 
Q 26.265625 6.109375 33.40625 6.109375 
Q 40.53125 6.109375 44.609375 11.75 
Q 48.6875 17.390625 48.6875 27.296875 
z
" id="DejaVuSans-112"/>
     <path d="M 52 44.1875 
Q 55.375 50.25 60.0625 53.125 
Q 64.75 56 71.09375 56 
Q 79.640625 56 84.28125 50.015625 
Q 88.921875 44.046875 88.921875 33.015625 
L 88.921875 0 
L 79.890625 0 
L 79.890625 32.71875 
Q 79.890625 40.578125 77.09375 44.375 
Q 74.3125 48.1875 68.609375 48.1875 
Q 61.625 48.1875 57.5625 43.546875 
Q 53.515625 38.921875 53.515625 30.90625 
L 53.515625 0 
L 44.484375 0 
L 44.484375 32.71875 
Q 44.484375 40.625 41.703125 44.40625 
Q 38.921875 48.1875 33.109375 48.1875 
Q 26.21875 48.1875 22.15625 43.53125 
Q 18.109375 38.875 18.109375 30.90625 
L 18.109375 0 
L 9.078125 0 
L 9.078125 54.6875 
L 18.109375 54.6875 
L 18.109375 46.1875 
Q 21.1875 51.21875 25.484375 53.609375 
Q 29.78125 56 35.6875 56 
Q 41.65625 56 45.828125 52.96875 
Q 50 49.953125 52 44.1875 
z
" id="DejaVuSans-109"/>
     <path d="M 56.203125 29.59375 
L 56.203125 25.203125 
L 14.890625 25.203125 
Q 15.484375 15.921875 20.484375 11.0625 
Q 25.484375 6.203125 34.421875 6.203125 
Q 39.59375 6.203125 44.453125 7.46875 
Q 49.3125 8.734375 54.109375 11.28125 
L 54.109375 2.78125 
Q 49.265625 0.734375 44.1875 -0.34375 
Q 39.109375 -1.421875 33.890625 -1.421875 
Q 20.796875 -1.421875 13.15625 6.1875 
Q 5.515625 13.8125 5.515625 26.8125 
Q 5.515625 40.234375 12.765625 48.109375 
Q 20.015625 56 32.328125 56 
Q 43.359375 56 49.78125 48.890625 
Q 56.203125 41.796875 56.203125 29.59375 
z
M 47.21875 32.234375 
Q 47.125 39.59375 43.09375 43.984375 
Q 39.0625 48.390625 32.421875 48.390625 
Q 24.90625 48.390625 20.390625 44.140625 
Q 15.875 39.890625 15.1875 32.171875 
z
" id="DejaVuSans-101"/>
     <path d="M 2.984375 54.6875 
L 12.5 54.6875 
L 29.59375 8.796875 
L 46.6875 54.6875 
L 56.203125 54.6875 
L 35.6875 0 
L 23.484375 0 
z
" id="DejaVuSans-118"/>
     <path d="M 19.671875 64.796875 
L 19.671875 8.109375 
L 31.59375 8.109375 
Q 46.6875 8.109375 53.6875 14.9375 
Q 60.6875 21.78125 60.6875 36.53125 
Q 60.6875 51.171875 53.6875 57.984375 
Q 46.6875 64.796875 31.59375 64.796875 
z
M 9.8125 72.90625 
L 30.078125 72.90625 
Q 51.265625 72.90625 61.171875 64.09375 
Q 71.09375 55.28125 71.09375 36.53125 
Q 71.09375 17.671875 61.125 8.828125 
Q 51.171875 0 30.078125 0 
L 9.8125 0 
z
" id="DejaVuSans-68"/>
    </defs>
    <g transform="translate(143.674688 21.648)scale(0.12 -0.12)">
     <use xlink:href="#DejaVuSans-85"/>
     <use x="73.193359" xlink:href="#DejaVuSans-116"/>
     <use x="112.402344" xlink:href="#DejaVuSans-105"/>
     <use x="140.185547" xlink:href="#DejaVuSans-108"/>
     <use x="167.96875" xlink:href="#DejaVuSans-105"/>
     <use x="195.751953" xlink:href="#DejaVuSans-122"/>
     <use x="248.242188" xlink:href="#DejaVuSans-97"/>
     <use x="309.521484" xlink:href="#DejaVuSans-99"/>
     <use x="364.501953" xlink:href="#DejaVuSans-105"/>
     <use x="392.285156" xlink:href="#DejaVuSans-243"/>
     <use x="453.466797" xlink:href="#DejaVuSans-110"/>
     <use x="516.845703" xlink:href="#DejaVuSans-32"/>
     <use x="548.632812" xlink:href="#DejaVuSans-112"/>
     <use x="612.109375" xlink:href="#DejaVuSans-114"/>
     <use x="653.191406" xlink:href="#DejaVuSans-111"/>
     <use x="714.373047" xlink:href="#DejaVuSans-109"/>
     <use x="811.785156" xlink:href="#DejaVuSans-101"/>
     <use x="873.308594" xlink:href="#DejaVuSans-100"/>
     <use x="936.785156" xlink:href="#DejaVuSans-105"/>
     <use x="964.568359" xlink:href="#DejaVuSans-111"/>
     <use x="1025.75" xlink:href="#DejaVuSans-32"/>
     <use x="1057.537109" xlink:href="#DejaVuSans-115"/>
     <use x="1109.636719" xlink:href="#DejaVuSans-101"/>
     <use x="1171.160156" xlink:href="#DejaVuSans-114"/>
     <use x="1212.273438" xlink:href="#DejaVuSans-118"/>
     <use x="1271.453125" xlink:href="#DejaVuSans-105"/>
     <use x="1299.236328" xlink:href="#DejaVuSans-100"/>
     <use x="1362.712891" xlink:href="#DejaVuSans-111"/>
     <use x="1423.894531" xlink:href="#DejaVuSans-114"/>
     <use x="1465.007812" xlink:href="#DejaVuSans-32"/>
     <use x="1496.794922" xlink:href="#DejaVuSans-68"/>
     <use x="1573.796875" xlink:href="#DejaVuSans-49"/>
    </g>
   </g>
  </g>
  <g id="axes_2">
   <g id="patch_7">
    <path d="M 46.08 317.952 
L 437.76 317.952 
L 437.76 188.928 
L 46.08 188.928 
z
" style="fill:#ffffff;"/>
   </g>
   <g id="matplotlib.axis_3">
    <g id="xtick_7">
     <g id="line2d_22">
      <path clip-path="url(#pefd79ecd5c)" d="M 63.527207 317.952 
L 63.527207 188.928 
" style="fill:none;stroke:#b0b0b0;stroke-linecap:square;stroke-width:0.8;"/>
     </g>
     <g id="line2d_23">
      <g>
       <use style="stroke:#000000;stroke-width:0.8;" x="63.527207" xlink:href="#m94a7db9739" y="317.952"/>
      </g>
     </g>
     <g id="text_14">
      <!-- 0 -->
      <g transform="translate(60.345957 332.550437)scale(0.1 -0.1)">
       <use xlink:href="#DejaVuSans-48"/>
      </g>
     </g>
    </g>
    <g id="xtick_8">
     <g id="line2d_24">
      <path clip-path="url(#pefd79ecd5c)" d="M 134.813038 317.952 
L 134.813038 188.928 
" style="fill:none;stroke:#b0b0b0;stroke-linecap:square;stroke-width:0.8;"/>
     </g>
     <g id="line2d_25">
      <g>
       <use style="stroke:#000000;stroke-width:0.8;" x="134.813038" xlink:href="#m94a7db9739" y="317.952"/>
      </g>
     </g>
     <g id="text_15">
      <!-- 200 -->
      <g transform="translate(125.269288 332.550437)scale(0.1 -0.1)">
       <use xlink:href="#DejaVuSans-50"/>
       <use x="63.623047" xlink:href="#DejaVuSans-48"/>
       <use x="127.246094" xlink:href="#DejaVuSans-48"/>
      </g>
     </g>
    </g>
    <g id="xtick_9">
     <g id="line2d_26">
      <path clip-path="url(#pefd79ecd5c)" d="M 206.09887 317.952 
L 206.09887 188.928 
" style="fill:none;stroke:#b0b0b0;stroke-linecap:square;stroke-width:0.8;"/>
     </g>
     <g id="line2d_27">
      <g>
       <use style="stroke:#000000;stroke-width:0.8;" x="206.09887" xlink:href="#m94a7db9739" y="317.952"/>
      </g>
     </g>
     <g id="text_16">
      <!-- 400 -->
      <g transform="translate(196.55512 332.550437)scale(0.1 -0.1)">
       <use xlink:href="#DejaVuSans-52"/>
       <use x="63.623047" xlink:href="#DejaVuSans-48"/>
       <use x="127.246094" xlink:href="#DejaVuSans-48"/>
      </g>
     </g>
    </g>
    <g id="xtick_10">
     <g id="line2d_28">
      <path clip-path="url(#pefd79ecd5c)" d="M 277.384701 317.952 
L 277.384701 188.928 
" style="fill:none;stroke:#b0b0b0;stroke-linecap:square;stroke-width:0.8;"/>
     </g>
     <g id="line2d_29">
      <g>
       <use style="stroke:#000000;stroke-width:0.8;" x="277.384701" xlink:href="#m94a7db9739" y="317.952"/>
      </g>
     </g>
     <g id="text_17">
      <!-- 600 -->
      <g transform="translate(267.840951 332.550437)scale(0.1 -0.1)">
       <use xlink:href="#DejaVuSans-54"/>
       <use x="63.623047" xlink:href="#DejaVuSans-48"/>
       <use x="127.246094" xlink:href="#DejaVuSans-48"/>
      </g>
     </g>
    </g>
    <g id="xtick_11">
     <g id="line2d_30">
      <path clip-path="url(#pefd79ecd5c)" d="M 348.670532 317.952 
L 348.670532 188.928 
" style="fill:none;stroke:#b0b0b0;stroke-linecap:square;stroke-width:0.8;"/>
     </g>
     <g id="line2d_31">
      <g>
       <use style="stroke:#000000;stroke-width:0.8;" x="348.670532" xlink:href="#m94a7db9739" y="317.952"/>
      </g>
     </g>
     <g id="text_18">
      <!-- 800 -->
      <g transform="translate(339.126782 332.550437)scale(0.1 -0.1)">
       <use xlink:href="#DejaVuSans-56"/>
       <use x="63.623047" xlink:href="#DejaVuSans-48"/>
       <use x="127.246094" xlink:href="#DejaVuSans-48"/>
      </g>
     </g>
    </g>
    <g id="xtick_12">
     <g id="line2d_32">
      <path clip-path="url(#pefd79ecd5c)" d="M 419.956364 317.952 
L 419.956364 188.928 
" style="fill:none;stroke:#b0b0b0;stroke-linecap:square;stroke-width:0.8;"/>
     </g>
     <g id="line2d_33">
      <g>
       <use style="stroke:#000000;stroke-width:0.8;" x="419.956364" xlink:href="#m94a7db9739" y="317.952"/>
      </g>
     </g>
     <g id="text_19">
      <!-- 1000 -->
      <g transform="translate(407.231364 332.550437)scale(0.1 -0.1)">
       <use xlink:href="#DejaVuSans-49"/>
       <use x="63.623047" xlink:href="#DejaVuSans-48"/>
       <use x="127.246094" xlink:href="#DejaVuSans-48"/>
       <use x="190.869141" xlink:href="#DejaVuSans-48"/>
      </g>
     </g>
    </g>
    <g id="text_20">
     <!-- Corridas -->
     <g transform="translate(221.027031 346.228563)scale(0.1 -0.1)">
      <use xlink:href="#DejaVuSans-67"/>
      <use x="69.824219" xlink:href="#DejaVuSans-111"/>
      <use x="131.005859" xlink:href="#DejaVuSans-114"/>
      <use x="172.103516" xlink:href="#DejaVuSans-114"/>
      <use x="213.216797" xlink:href="#DejaVuSans-105"/>
      <use x="241" xlink:href="#DejaVuSans-100"/>
      <use x="304.476562" xlink:href="#DejaVuSans-97"/>
      <use x="365.755859" xlink:href="#DejaVuSans-115"/>
     </g>
    </g>
   </g>
   <g id="matplotlib.axis_4">
    <g id="ytick_5">
     <g id="line2d_34">
      <path clip-path="url(#pefd79ecd5c)" d="M 46.08 309.77911 
L 437.76 309.77911 
" style="fill:none;stroke:#b0b0b0;stroke-linecap:square;stroke-width:0.8;"/>
     </g>
     <g id="line2d_35">
      <g>
       <use style="stroke:#000000;stroke-width:0.8;" x="46.08" xlink:href="#mdb2bc57f1c" y="309.77911"/>
      </g>
     </g>
     <g id="text_21">
      <!-- 0.235 -->
      <defs>
       <path d="M 40.578125 39.3125 
Q 47.65625 37.796875 51.625 33 
Q 55.609375 28.21875 55.609375 21.1875 
Q 55.609375 10.40625 48.1875 4.484375 
Q 40.765625 -1.421875 27.09375 -1.421875 
Q 22.515625 -1.421875 17.65625 -0.515625 
Q 12.796875 0.390625 7.625 2.203125 
L 7.625 11.71875 
Q 11.71875 9.328125 16.59375 8.109375 
Q 21.484375 6.890625 26.8125 6.890625 
Q 36.078125 6.890625 40.9375 10.546875 
Q 45.796875 14.203125 45.796875 21.1875 
Q 45.796875 27.640625 41.28125 31.265625 
Q 36.765625 34.90625 28.71875 34.90625 
L 20.21875 34.90625 
L 20.21875 43.015625 
L 29.109375 43.015625 
Q 36.375 43.015625 40.234375 45.921875 
Q 44.09375 48.828125 44.09375 54.296875 
Q 44.09375 59.90625 40.109375 62.90625 
Q 36.140625 65.921875 28.71875 65.921875 
Q 24.65625 65.921875 20.015625 65.03125 
Q 15.375 64.15625 9.8125 62.3125 
L 9.8125 71.09375 
Q 15.4375 72.65625 20.34375 73.4375 
Q 25.25 74.21875 29.59375 74.21875 
Q 40.828125 74.21875 47.359375 69.109375 
Q 53.90625 64.015625 53.90625 55.328125 
Q 53.90625 49.265625 50.4375 45.09375 
Q 46.96875 40.921875 40.578125 39.3125 
z
" id="DejaVuSans-51"/>
      </defs>
      <g transform="translate(10.451875 313.578329)scale(0.1 -0.1)">
       <use xlink:href="#DejaVuSans-48"/>
       <use x="63.623047" xlink:href="#DejaVuSans-46"/>
       <use x="95.410156" xlink:href="#DejaVuSans-50"/>
       <use x="159.033203" xlink:href="#DejaVuSans-51"/>
       <use x="222.65625" xlink:href="#DejaVuSans-53"/>
      </g>
     </g>
    </g>
    <g id="ytick_6">
     <g id="line2d_36">
      <path clip-path="url(#pefd79ecd5c)" d="M 46.08 277.964283 
L 437.76 277.964283 
" style="fill:none;stroke:#b0b0b0;stroke-linecap:square;stroke-width:0.8;"/>
     </g>
     <g id="line2d_37">
      <g>
       <use style="stroke:#000000;stroke-width:0.8;" x="46.08" xlink:href="#mdb2bc57f1c" y="277.964283"/>
      </g>
     </g>
     <g id="text_22">
      <!-- 0.240 -->
      <g transform="translate(10.451875 281.763502)scale(0.1 -0.1)">
       <use xlink:href="#DejaVuSans-48"/>
       <use x="63.623047" xlink:href="#DejaVuSans-46"/>
       <use x="95.410156" xlink:href="#DejaVuSans-50"/>
       <use x="159.033203" xlink:href="#DejaVuSans-52"/>
       <use x="222.65625" xlink:href="#DejaVuSans-48"/>
      </g>
     </g>
    </g>
    <g id="ytick_7">
     <g id="line2d_38">
      <path clip-path="url(#pefd79ecd5c)" d="M 46.08 246.149455 
L 437.76 246.149455 
" style="fill:none;stroke:#b0b0b0;stroke-linecap:square;stroke-width:0.8;"/>
     </g>
     <g id="line2d_39">
      <g>
       <use style="stroke:#000000;stroke-width:0.8;" x="46.08" xlink:href="#mdb2bc57f1c" y="246.149455"/>
      </g>
     </g>
     <g id="text_23">
      <!-- 0.245 -->
      <g transform="translate(10.451875 249.948674)scale(0.1 -0.1)">
       <use xlink:href="#DejaVuSans-48"/>
       <use x="63.623047" xlink:href="#DejaVuSans-46"/>
       <use x="95.410156" xlink:href="#DejaVuSans-50"/>
       <use x="159.033203" xlink:href="#DejaVuSans-52"/>
       <use x="222.65625" xlink:href="#DejaVuSans-53"/>
      </g>
     </g>
    </g>
    <g id="ytick_8">
     <g id="line2d_40">
      <path clip-path="url(#pefd79ecd5c)" d="M 46.08 214.334628 
L 437.76 214.334628 
" style="fill:none;stroke:#b0b0b0;stroke-linecap:square;stroke-width:0.8;"/>
     </g>
     <g id="line2d_41">
      <g>
       <use style="stroke:#000000;stroke-width:0.8;" x="46.08" xlink:href="#mdb2bc57f1c" y="214.334628"/>
      </g>
     </g>
     <g id="text_24">
      <!-- 0.250 -->
      <g transform="translate(10.451875 218.133847)scale(0.1 -0.1)">
       <use xlink:href="#DejaVuSans-48"/>
       <use x="63.623047" xlink:href="#DejaVuSans-46"/>
       <use x="95.410156" xlink:href="#DejaVuSans-50"/>
       <use x="159.033203" xlink:href="#DejaVuSans-53"/>
       <use x="222.65625" xlink:href="#DejaVuSans-48"/>
      </g>
     </g>
    </g>
    <g id="text_25">
     <!-- Utilización -->
     <g transform="translate(4.372188 279.281406)rotate(-90)scale(0.1 -0.1)">
      <use xlink:href="#DejaVuSans-85"/>
      <use x="73.193359" xlink:href="#DejaVuSans-116"/>
      <use x="112.402344" xlink:href="#DejaVuSans-105"/>
      <use x="140.185547" xlink:href="#DejaVuSans-108"/>
      <use x="167.96875" xlink:href="#DejaVuSans-105"/>
      <use x="195.751953" xlink:href="#DejaVuSans-122"/>
      <use x="248.242188" xlink:href="#DejaVuSans-97"/>
      <use x="309.521484" xlink:href="#DejaVuSans-99"/>
      <use x="364.501953" xlink:href="#DejaVuSans-105"/>
      <use x="392.285156" xlink:href="#DejaVuSans-243"/>
      <use x="453.466797" xlink:href="#DejaVuSans-110"/>
     </g>
    </g>
   </g>
   <g id="line2d_42">
    <path clip-path="url(#pefd79ecd5c)" d="M 63.883636 312.087273 
L 64.240066 274.091113 
L 64.596495 282.061578 
L 64.952924 255.278983 
L 65.309353 249.795029 
L 65.665782 236.207769 
L 66.022211 242.296085 
L 66.73507 238.519997 
L 67.091499 224.301941 
L 67.447928 214.782381 
L 68.160786 206.164838 
L 68.517215 212.808446 
L 68.873645 207.528215 
L 69.586503 214.787578 
L 69.942932 209.311508 
L 70.299361 211.750506 
L 70.65579 201.769686 
L 71.012219 204.910299 
L 71.368649 194.792727 
L 72.081507 199.126502 
L 72.437936 206.19233 
L 72.794365 203.620711 
L 73.150794 205.39283 
L 73.507224 205.898754 
L 73.863653 205.313439 
L 74.220082 210.369741 
L 74.576511 210.256353 
L 74.93294 212.328358 
L 75.289369 212.874212 
L 75.645799 212.545933 
L 76.002228 215.768995 
L 76.358657 215.957431 
L 76.715086 219.083298 
L 77.071515 216.968048 
L 77.427944 215.884059 
L 77.784373 216.129638 
L 78.140803 214.901347 
L 78.497232 210.809837 
L 78.853661 210.96959 
L 79.21009 212.154926 
L 79.566519 209.90279 
L 79.922948 210.598727 
L 80.279378 209.136047 
L 80.635807 208.745317 
L 80.992236 207.360445 
L 81.348665 210.062988 
L 81.705094 208.785387 
L 82.061523 209.794965 
L 82.417952 209.861783 
L 82.774382 208.297519 
L 83.130811 209.587174 
L 83.843669 208.612258 
L 84.200098 207.638825 
L 84.556527 204.923628 
L 84.912957 204.844746 
L 85.269386 203.189233 
L 85.625815 202.291741 
L 85.982244 203.03326 
L 86.338673 202.908683 
L 86.695102 203.099301 
L 87.407961 199.005675 
L 87.76439 198.333848 
L 88.477248 200.61 
L 88.833677 199.354843 
L 89.190106 200.69443 
L 89.546536 201.345044 
L 89.902965 199.966861 
L 90.615823 200.970873 
L 90.972252 202.038455 
L 91.685111 200.160372 
L 92.04154 200.797658 
L 92.754398 203.992533 
L 93.110827 203.969194 
L 93.467256 203.356515 
L 93.823686 203.730803 
L 94.180115 204.342382 
L 94.536544 204.231999 
L 94.892973 205.023957 
L 95.605831 205.321712 
L 95.96226 203.415531 
L 96.675119 206.046619 
L 97.031548 206.954987 
L 97.387977 206.231475 
L 97.744406 206.501017 
L 98.100835 206.186643 
L 98.457265 206.791776 
L 98.813694 207.741628 
L 99.526552 206.6687 
L 99.882981 207.044064 
L 100.952269 208.780303 
L 101.308698 208.523612 
L 101.665127 207.958273 
L 102.021556 207.155538 
L 102.377985 205.932064 
L 102.734414 206.201472 
L 103.090844 205.844325 
L 103.447273 207.004642 
L 103.803702 208.720657 
L 104.160131 208.947732 
L 104.51656 208.632333 
L 104.872989 209.701335 
L 105.229419 208.906455 
L 105.585848 209.70763 
L 105.942277 209.507 
L 106.298706 210.350842 
L 106.655135 209.981888 
L 107.011564 210.106434 
L 107.367993 209.393262 
L 107.724423 210.204058 
L 108.080852 208.909314 
L 108.79371 211.815959 
L 109.150139 211.367954 
L 109.506568 211.719042 
L 110.219427 211.401941 
L 110.575856 211.392687 
L 110.932285 212.045602 
L 111.288714 211.7259 
L 111.645143 212.103598 
L 112.001572 211.926495 
L 112.358002 212.077837 
L 113.427289 212.148254 
L 113.783718 211.27765 
L 114.496577 211.217717 
L 114.853006 212.170833 
L 115.209435 212.260795 
L 115.565864 211.993498 
L 115.922293 212.679951 
L 116.278722 213.10434 
L 116.635152 212.589569 
L 117.34801 213.298293 
L 117.704439 212.297487 
L 118.773726 211.715344 
L 119.130156 212.235438 
L 119.486585 211.422962 
L 119.843014 211.898167 
L 120.199443 213.21729 
L 120.555872 212.737803 
L 120.912301 211.734886 
L 121.268731 212.275009 
L 121.62516 212.497134 
L 122.338018 212.396646 
L 122.694447 211.866206 
L 123.050876 211.768157 
L 123.407305 212.171271 
L 123.763735 212.117222 
L 124.120164 210.888815 
L 124.476593 210.752547 
L 124.833022 210.332474 
L 125.189451 210.339165 
L 125.54588 209.256021 
L 125.90231 208.838916 
L 126.258739 208.767591 
L 126.615168 209.041413 
L 126.971597 208.628767 
L 127.328026 207.218885 
L 127.684455 207.504616 
L 128.040885 207.148412 
L 128.397314 207.330838 
L 128.753743 207.821934 
L 129.110172 207.923218 
L 129.466601 208.384156 
L 129.82303 209.044101 
L 130.179459 208.669425 
L 130.535889 208.931592 
L 130.892318 208.102387 
L 131.248747 207.988086 
L 131.605176 208.549416 
L 131.961605 207.500716 
L 132.318034 206.83972 
L 132.674464 207.179923 
L 133.030893 206.875686 
L 133.387322 206.836358 
L 134.10018 205.776746 
L 134.456609 205.799635 
L 134.813038 205.958676 
L 135.169468 205.952238 
L 135.882326 206.504645 
L 136.595184 207.145889 
L 136.951613 206.558524 
L 137.308043 206.666439 
L 137.664472 206.626884 
L 138.020901 206.80362 
L 138.37733 206.393454 
L 139.090188 207.377411 
L 139.446618 208.012522 
L 139.803047 207.209746 
L 140.159476 207.329492 
L 140.515905 206.769918 
L 140.872334 206.782458 
L 141.228763 206.269914 
L 141.585192 206.129245 
L 141.941622 205.428544 
L 142.298051 205.316221 
L 143.010909 205.607401 
L 143.367338 205.320975 
L 143.723767 204.718924 
L 144.080197 205.435793 
L 144.793055 206.00046 
L 145.149484 205.843915 
L 145.505913 205.962941 
L 145.862342 206.378446 
L 146.575201 205.960055 
L 147.288059 206.393408 
L 148.000917 206.016277 
L 148.713776 205.678258 
L 149.070205 206.061871 
L 149.426634 205.872953 
L 149.783063 206.189734 
L 150.139492 206.810125 
L 150.495921 206.030325 
L 151.565209 207.380164 
L 151.921638 207.456331 
L 152.634496 206.845114 
L 152.990925 206.448736 
L 153.347355 206.392724 
L 153.703784 206.043158 
L 154.060213 206.823139 
L 154.416642 206.497055 
L 154.773071 206.503354 
L 155.48593 206.781489 
L 155.842359 206.850351 
L 156.198788 206.357985 
L 156.555217 206.290341 
L 157.268075 206.620693 
L 158.337363 205.812291 
L 158.693792 205.875233 
L 159.050221 205.599588 
L 159.40665 204.823591 
L 159.763079 204.976024 
L 160.119509 205.414792 
L 160.475938 205.383338 
L 160.832367 205.557705 
L 161.188796 205.361147 
L 161.545225 205.403266 
L 161.901654 205.031788 
L 162.614513 203.848364 
L 162.970942 204.40721 
L 163.327371 204.342309 
L 164.396658 205.275701 
L 164.753088 205.242354 
L 165.109517 204.78699 
L 165.465946 204.928246 
L 165.822375 205.879077 
L 166.178804 205.76283 
L 166.891663 205.772464 
L 167.248092 206.214241 
L 167.96095 206.483773 
L 168.317379 207.098742 
L 168.673808 206.896058 
L 169.030238 207.514097 
L 169.386667 207.430954 
L 170.099525 207.652567 
L 170.455954 208.051767 
L 171.168812 208.016772 
L 171.525242 208.556023 
L 172.2381 208.460803 
L 172.594529 208.078918 
L 172.950958 208.108567 
L 173.307387 208.250564 
L 173.663817 207.995534 
L 174.376675 207.917118 
L 174.733104 208.422987 
L 175.445962 208.334629 
L 175.802391 208.824075 
L 176.51525 208.470021 
L 176.871679 208.416687 
L 177.228108 207.740779 
L 177.584537 207.396942 
L 178.297396 208.139063 
L 178.653825 208.551881 
L 179.366683 208.902141 
L 179.723112 208.749022 
L 180.079541 208.803298 
L 180.435971 209.161476 
L 180.7924 209.318271 
L 181.505258 209.151748 
L 181.861687 209.396496 
L 182.218116 209.396373 
L 182.574545 209.659374 
L 182.930975 209.569724 
L 183.287404 209.331029 
L 183.643833 209.329333 
L 184.000262 209.609207 
L 184.356691 209.686164 
L 185.06955 209.43623 
L 185.425979 209.103679 
L 186.495266 208.979644 
L 186.851695 208.994742 
L 187.208124 208.680272 
L 187.920983 209.125651 
L 188.277412 208.936518 
L 188.99027 208.926018 
L 189.346699 208.737104 
L 189.703129 209.330336 
L 190.059558 209.33611 
L 190.772416 208.927857 
L 191.128845 209.12795 
L 192.198133 208.964515 
L 192.554562 209.140915 
L 192.910991 209.716081 
L 193.26742 209.542635 
L 193.623849 209.761466 
L 193.980278 210.201866 
L 194.336708 210.427181 
L 194.693137 210.133632 
L 195.049566 210.12 
L 195.405995 210.277539 
L 196.118853 210.741393 
L 196.475283 210.864612 
L 197.188141 210.562879 
L 197.54457 210.760473 
L 198.257428 210.718047 
L 199.326716 211.309578 
L 199.683145 211.065873 
L 200.039574 210.671071 
L 200.396003 211.001537 
L 200.752432 211.14988 
L 201.108862 211.02386 
L 201.465291 210.671252 
L 201.82172 210.560441 
L 202.178149 210.793818 
L 202.534578 210.894289 
L 202.891007 211.243085 
L 203.247437 210.951774 
L 203.603866 211.045198 
L 203.960295 211.004919 
L 204.673153 211.209415 
L 205.386011 210.879508 
L 205.742441 211.131655 
L 206.09887 211.046452 
L 206.455299 211.561152 
L 206.811728 211.231344 
L 207.168157 211.284684 
L 207.881016 211.165935 
L 208.593874 211.260679 
L 209.663161 210.914046 
L 210.01959 211.172983 
L 210.37602 210.909133 
L 210.732449 211.158252 
L 211.445307 211.164427 
L 212.514595 211.313447 
L 212.871024 211.292804 
L 213.227453 211.062864 
L 213.583882 211.521353 
L 214.29674 211.378219 
L 214.65317 211.695889 
L 215.009599 211.825696 
L 215.366028 211.605536 
L 216.435315 211.662468 
L 216.791744 211.577718 
L 217.861032 211.927892 
L 218.57389 212.240772 
L 218.930319 211.966366 
L 219.286749 212.129782 
L 219.643178 211.863031 
L 220.356036 212.115133 
L 220.712465 211.996707 
L 221.425324 212.200664 
L 221.781753 212.020831 
L 222.138182 211.983136 
L 222.494611 212.25667 
L 222.85104 211.907535 
L 223.207469 211.831566 
L 223.920328 212.292182 
L 224.276757 212.211013 
L 224.633186 212.332136 
L 224.989615 212.105379 
L 225.702473 212.091267 
L 227.484619 212.785037 
L 227.841048 212.778434 
L 229.266765 213.345147 
L 230.336052 213.161751 
L 231.048911 212.911783 
L 231.40534 212.967051 
L 231.761769 212.650991 
L 232.118198 212.607573 
L 232.474627 213.005624 
L 232.831057 213.136465 
L 233.187486 213.122447 
L 233.543915 213.34801 
L 233.900344 213.428179 
L 234.613202 213.266091 
L 234.969631 213.442471 
L 235.68249 213.502646 
L 236.038919 213.764135 
L 236.751777 213.282132 
L 237.108206 213.202274 
L 237.464636 213.488809 
L 238.177494 213.514137 
L 239.60321 214.175389 
L 239.95964 214.157478 
L 240.316069 214.304991 
L 240.672498 214.313039 
L 241.028927 214.07279 
L 241.385356 214.041267 
L 241.741785 214.372344 
L 242.098215 214.212243 
L 242.454644 214.395606 
L 242.811073 214.225867 
L 243.167502 214.287173 
L 243.88036 214.107515 
L 244.23679 214.153595 
L 244.593219 214.075428 
L 244.949648 213.875988 
L 245.306077 214.007157 
L 245.662506 214.260704 
L 246.375364 214.104633 
L 246.731794 213.725128 
L 247.801081 214.226569 
L 248.513939 214.096695 
L 248.870369 213.897678 
L 249.226798 213.996898 
L 249.583227 213.732958 
L 251.008943 213.510035 
L 251.365373 213.672725 
L 251.721802 213.580269 
L 252.078231 213.828424 
L 252.43466 214.252361 
L 253.503948 214.306426 
L 253.860377 214.120597 
L 254.216806 213.712582 
L 255.286093 213.687642 
L 255.998952 213.752895 
L 256.355381 214.118209 
L 256.71181 214.076843 
L 257.068239 214.265248 
L 257.781097 213.979254 
L 258.137527 214.151473 
L 258.493956 213.955272 
L 258.850385 214.089814 
L 259.563243 213.7965 
L 260.98896 214.018684 
L 261.345389 214.171356 
L 261.701818 214.19529 
L 262.414676 213.943527 
L 263.127535 214.018985 
L 263.840393 213.804368 
L 264.196822 213.898158 
L 264.553251 213.753885 
L 266.335397 213.712367 
L 267.048256 213.308046 
L 268.830401 213.294222 
L 269.18683 213.073576 
L 269.54326 213.113901 
L 270.256118 212.818 
L 270.968976 212.835012 
L 271.325405 213.026226 
L 271.681835 213.04096 
L 273.107551 212.375531 
L 273.46398 212.32543 
L 273.82041 212.594141 
L 274.176839 212.511651 
L 274.533268 212.585813 
L 274.889697 212.346246 
L 275.602555 212.553969 
L 275.958984 212.625844 
L 276.315414 212.486171 
L 277.028272 212.671023 
L 277.384701 212.5555 
L 277.74113 212.644409 
L 279.166847 212.3966 
L 279.879705 212.486281 
L 281.305422 212.314001 
L 281.661851 212.252324 
L 282.01828 212.304311 
L 282.374709 212.235474 
L 283.800426 212.542109 
L 284.869713 213.108093 
L 285.582572 212.965273 
L 286.29543 213.148468 
L 286.651859 213.304723 
L 287.008288 213.297845 
L 287.364717 213.58223 
L 288.077576 213.537833 
L 288.434005 213.887764 
L 288.790434 213.952758 
L 289.503292 213.761954 
L 290.57258 213.564297 
L 290.929009 213.374002 
L 291.641867 213.307303 
L 292.711155 213.486998 
L 293.067584 213.514556 
L 293.424013 213.324266 
L 294.136871 213.630765 
L 294.493301 213.591004 
L 294.84973 213.748956 
L 295.206159 213.771981 
L 295.919017 214.007284 
L 296.275446 213.960775 
L 296.631876 214.077032 
L 297.701163 213.235524 
L 298.057592 213.071493 
L 299.12688 213.151663 
L 299.483309 213.348911 
L 299.839738 213.222372 
L 300.909025 213.314034 
L 301.621884 213.603122 
L 301.978313 213.622766 
L 302.691171 213.444641 
L 303.0476 213.179554 
L 303.404029 213.399928 
L 303.760459 213.405551 
L 304.116888 213.69777 
L 304.473317 213.684613 
L 305.186175 213.92711 
L 305.542604 213.784327 
L 306.611892 213.736684 
L 306.968321 213.548429 
L 307.32475 213.655391 
L 308.750467 213.305501 
L 309.463325 213.618481 
L 310.176183 213.737471 
L 311.245471 213.882908 
L 313.027617 213.574297 
L 313.384046 213.813243 
L 313.740475 213.860754 
L 314.096904 213.711828 
L 314.453333 213.778454 
L 314.809762 213.717641 
L 315.166192 213.790807 
L 315.522621 213.581876 
L 316.948337 213.578715 
L 317.304767 213.620759 
L 317.661196 213.823489 
L 318.374054 213.964442 
L 318.730483 213.785743 
L 319.799771 213.89906 
L 320.1562 213.652511 
L 320.512629 213.653882 
L 320.869058 213.468628 
L 321.225487 213.679024 
L 321.581916 213.432611 
L 322.651204 213.653835 
L 323.364062 213.797349 
L 325.146208 213.884646 
L 327.641212 214.077242 
L 327.997641 214.288841 
L 328.35407 214.121653 
L 328.7105 214.103798 
L 329.066929 213.921146 
L 329.423358 213.987353 
L 330.136216 213.854116 
L 330.492645 214.026948 
L 331.205504 213.771128 
L 332.987649 213.519547 
L 334.056937 213.761641 
L 334.769795 213.204077 
L 335.482654 213.258709 
L 337.621229 213.332211 
L 337.977658 213.506936 
L 341.18552 213.341146 
L 341.541949 213.312542 
L 341.898378 213.494944 
L 342.611237 213.370225 
L 342.967666 213.394251 
L 343.680524 213.216898 
L 344.393382 213.302157 
L 345.46267 213.333763 
L 345.819099 213.53419 
L 346.531957 213.410789 
L 346.888387 213.616606 
L 347.244816 213.432806 
L 349.026962 213.226539 
L 353.304111 213.291081 
L 355.086257 213.363612 
L 355.799115 213.314346 
L 356.155545 213.089277 
L 358.29412 213.110743 
L 359.363407 212.889729 
L 360.076265 212.920917 
L 360.432695 212.861902 
L 361.145553 212.999649 
L 361.858411 212.91553 
L 363.640557 212.918364 
L 365.066274 212.791028 
L 365.422703 212.649764 
L 365.779132 212.741315 
L 366.135561 212.637772 
L 366.848419 212.794353 
L 368.630565 212.28857 
L 371.125569 212.535729 
L 371.481998 212.441945 
L 371.838428 212.564804 
L 372.194857 212.426161 
L 373.620573 212.491577 
L 373.977002 212.241104 
L 375.04629 212.264787 
L 375.402719 212.143465 
L 376.115577 212.290391 
L 376.472007 212.271865 
L 376.828436 212.391033 
L 377.897723 212.351394 
L 378.967011 212.511619 
L 379.32344 212.659035 
L 379.679869 212.609526 
L 380.036298 212.793256 
L 380.749156 212.78821 
L 382.174873 212.830365 
L 382.887731 212.931661 
L 383.60059 212.813517 
L 383.957019 212.824173 
L 384.669877 212.611648 
L 385.382735 212.586037 
L 386.452023 212.458295 
L 387.164881 212.585342 
L 387.87774 212.533501 
L 388.234169 212.653213 
L 388.590598 212.557418 
L 389.303456 212.531457 
L 392.154889 212.817904 
L 392.867748 212.640015 
L 393.224177 212.74798 
L 395.719181 212.711904 
L 396.432039 212.723751 
L 397.501327 212.378335 
L 398.927043 212.524821 
L 399.283473 212.46993 
L 399.996331 212.62978 
L 401.065618 212.733305 
L 402.134906 212.699535 
L 402.491335 212.690607 
L 402.847764 212.565637 
L 404.273481 212.708059 
L 404.986339 212.584291 
L 405.699197 212.650365 
L 406.055627 212.452142 
L 408.90706 212.681057 
L 409.263489 212.785192 
L 411.045635 212.703959 
L 411.758493 212.860499 
L 413.18421 212.711139 
L 413.540639 212.592931 
L 414.609926 212.564879 
L 415.322785 212.552919 
L 415.679214 212.759411 
L 417.46136 212.681275 
L 418.174218 213.053108 
L 418.887076 213.154132 
L 419.599934 213.12287 
L 419.956364 213.071023 
L 419.956364 213.071023 
" style="fill:none;stroke:#1f77b4;stroke-linecap:square;stroke-width:1.5;"/>
   </g>
   <g id="patch_8">
    <path d="M 46.08 317.952 
L 46.08 188.928 
" style="fill:none;stroke:#000000;stroke-linecap:square;stroke-linejoin:miter;stroke-width:0.8;"/>
   </g>
   <g id="patch_9">
    <path d="M 437.76 317.952 
L 437.76 188.928 
" style="fill:none;stroke:#000000;stroke-linecap:square;stroke-linejoin:miter;stroke-width:0.8;"/>
   </g>
   <g id="patch_10">
    <path d="M 46.08 317.952 
L 437.76 317.952 
" style="fill:none;stroke:#000000;stroke-linecap:square;stroke-linejoin:miter;stroke-width:0.8;"/>
   </g>
   <g id="patch_11">
    <path d="M 46.08 188.928 
L 437.76 188.928 
" style="fill:none;stroke:#000000;stroke-linecap:square;stroke-linejoin:miter;stroke-width:0.8;"/>
   </g>
   <g id="text_26">
    <!-- Utilización promedio servidor D2 -->
    <g transform="translate(143.674688 182.928)scale(0.12 -0.12)">
     <use xlink:href="#DejaVuSans-85"/>
     <use x="73.193359" xlink:href="#DejaVuSans-116"/>
     <use x="112.402344" xlink:href="#DejaVuSans-105"/>
     <use x="140.185547" xlink:href="#DejaVuSans-108"/>
     <use x="167.96875" xlink:href="#DejaVuSans-105"/>
     <use x="195.751953" xlink:href="#DejaVuSans-122"/>
     <use x="248.242188" xlink:href="#DejaVuSans-97"/>
     <use x="309.521484" xlink:href="#DejaVuSans-99"/>
     <use x="364.501953" xlink:href="#DejaVuSans-105"/>
     <use x="392.285156" xlink:href="#DejaVuSans-243"/>
     <use x="453.466797" xlink:href="#DejaVuSans-110"/>
     <use x="516.845703" xlink:href="#DejaVuSans-32"/>
     <use x="548.632812" xlink:href="#DejaVuSans-112"/>
     <use x="612.109375" xlink:href="#DejaVuSans-114"/>
     <use x="653.191406" xlink:href="#DejaVuSans-111"/>
     <use x="714.373047" xlink:href="#DejaVuSans-109"/>
     <use x="811.785156" xlink:href="#DejaVuSans-101"/>
     <use x="873.308594" xlink:href="#DejaVuSans-100"/>
     <use x="936.785156" xlink:href="#DejaVuSans-105"/>
     <use x="964.568359" xlink:href="#DejaVuSans-111"/>
     <use x="1025.75" xlink:href="#DejaVuSans-32"/>
     <use x="1057.537109" xlink:href="#DejaVuSans-115"/>
     <use x="1109.636719" xlink:href="#DejaVuSans-101"/>
     <use x="1171.160156" xlink:href="#DejaVuSans-114"/>
     <use x="1212.273438" xlink:href="#DejaVuSans-118"/>
     <use x="1271.453125" xlink:href="#DejaVuSans-105"/>
     <use x="1299.236328" xlink:href="#DejaVuSans-100"/>
     <use x="1362.712891" xlink:href="#DejaVuSans-111"/>
     <use x="1423.894531" xlink:href="#DejaVuSans-114"/>
     <use x="1465.007812" xlink:href="#DejaVuSans-32"/>
     <use x="1496.794922" xlink:href="#DejaVuSans-68"/>
     <use x="1573.796875" xlink:href="#DejaVuSans-50"/>
    </g>
   </g>
  </g>
 </g>
 <defs>
  <clipPath id="peed2518e70">
   <rect height="129.024" width="391.68" x="46.08" y="27.648"/>
  </clipPath>
  <clipPath id="pefd79ecd5c">
   <rect height="129.024" width="391.68" x="46.08" y="188.928"/>
  </clipPath>
 </defs>
</svg>
